<?xml version="1.0" encoding="UTF-8"?>
<svg width="48px" height="48px" viewBox="0 0 48 48" version="1.1" xmlns="http://www.w3.org/2000/svg" xmlns:xlink="http://www.w3.org/1999/xlink">
    <!-- Generator: Sketch 61.1 (89650) - https://sketch.com -->
    <title>Group 28</title>
    <desc>Created with Sketch.</desc>
    <g id="Page-1" stroke="none" stroke-width="1" fill="none" fill-rule="evenodd">
        <g id="REBuild_Homepage1.1" transform="translate(-112.000000, -3384.000000)">
            <g id="Group-28" transform="translate(112.000000, 3384.000000)">
                <polygon id="Path-6" fill="#83F5FF" points="20.5 18.5 24 17 31 19.5 31 28.5 24 31.5 20.5 30"></polygon>
                <g id="central" fill="#3269D6" fill-rule="nonzero">
                    <path d="M32.3339062,24.3827813 C32.7223125,24.3827813 33.0370312,24.0679687 33.0370312,23.6796563 L33.0370312,18.601875 C33.0370312,18.3088125 32.85525,18.0464062 32.5808437,17.9435625 L24.2469375,14.8184062 C24.0876563,14.7586875 23.9124375,14.7586875 23.7530625,14.8184062 L15.4191562,17.9435625 C15.14475,18.0465 14.9629687,18.3088125 14.9629687,18.601875 L14.9629687,20.859375 C14.9629687,21.2476875 15.2776875,21.5625 15.6660937,21.5625 C16.0545,21.5625 16.3692188,21.2476875 16.3692188,20.859375 L16.3692188,19.6165312 L23.296875,22.2143437 L23.296875,31.508625 L16.3692188,28.9108125 L16.3692188,24.1485 C16.3692188,23.7601875 16.0545,23.445375 15.6660937,23.445375 C15.2776875,23.445375 14.9629687,23.7601875 14.9629687,24.1485 L14.9629687,29.398125 C14.9629687,29.6911875 15.14475,29.9535937 15.4191562,30.0564375 L23.7530625,33.1815937 C23.7531562,33.1810312 23.7533437,33.1802812 23.7534375,33.179625 C23.8326562,33.2093437 23.9159062,33.2263125 24.0000937,33.2263125 C24.08325,33.2263125 24.166875,33.2115937 24.2469375,33.1815 L32.5808437,30.0563437 C32.85525,29.9534062 33.0370312,29.6910937 33.0370312,29.3980312 L33.0370312,26.9569687 C33.0370312,26.5686562 32.7223125,26.2538437 32.3339062,26.2538437 C31.9455,26.2538437 31.6307812,26.5686562 31.6307812,26.9569687 L31.6307812,28.9107187 L24.703125,31.508625 L24.703125,22.2143437 L31.6307812,19.6165312 L31.6307812,23.6796562 C31.6307812,24.0680625 31.9455,24.3827812 32.3339062,24.3827812 L32.3339062,24.3827813 Z M24,20.9761875 L17.6686875,18.6019688 L24,16.2276563 L30.3313125,18.6019688 L24,20.9761875 Z" id="Shape"></path>
                    <path d="M23.296875,7.018125 L23.296875,12.0675 C23.296875,12.4558125 23.6115938,12.770625 24,12.770625 C24.3884063,12.770625 24.703125,12.4558125 24.703125,12.0675 L24.703125,7.018125 C26.3217187,6.69103125 27.5442187,5.25778125 27.5442187,3.54421875 C27.5442187,1.58990625 25.9543125,0 24,0 C22.0456875,0 20.4557813,1.58990625 20.4557813,3.54421875 C20.4557813,5.25778125 21.6782813,6.69103125 23.296875,7.018125 Z M24,1.40625 C25.1788125,1.40625 26.1379687,2.3653125 26.1379687,3.54421875 C26.1379687,4.723125 25.1788125,5.6821875 24,5.6821875 C22.8211875,5.6821875 21.8620313,4.723125 21.8620313,3.54421875 C21.8620313,2.3653125 22.8211875,1.40625 24,1.40625 Z" id="Shape"></path>
                    <path d="M37.5269062,32.656875 C36.43725,32.656875 35.4301875,33.0165937 34.6179375,33.6235312 L32.9348437,31.9404375 C32.6601562,31.6658437 32.2150312,31.6658437 31.9404375,31.9404375 C31.6658437,32.2150312 31.6658437,32.66025 31.9404375,32.93475 L33.623625,34.6178437 C33.0166875,35.4300937 32.6569687,36.43725 32.6569687,37.5268125 C32.6569687,40.2121875 34.8417187,42.3968437 37.527,42.3968437 C40.2122812,42.3968437 42.3970312,40.2121875 42.3970312,37.5268125 C42.3970312,34.8414375 40.2122812,32.656875 37.5269062,32.656875 L37.5269062,32.656875 Z M37.5269062,40.9906875 C35.6169375,40.9906875 34.063125,39.4367812 34.063125,37.5269062 C34.063125,35.6170312 35.6169375,34.063125 37.5269062,34.063125 C39.436875,34.063125 40.9906875,35.6170312 40.9906875,37.5269062 C40.9906875,39.4367812 39.436875,40.9906875 37.5269062,40.9906875 Z" id="Shape"></path>
                    <path d="M10.4730938,15.343125 C11.56275,15.343125 12.5698125,14.9834063 13.3820625,14.3764688 L15.0651562,16.0595625 C15.2025,16.1968125 15.3825,16.2655313 15.5624063,16.2655313 C15.7423125,16.2655313 15.9223125,16.1969063 16.0596562,16.0595625 C16.33425,15.7849688 16.33425,15.33975 16.0596562,15.06525 L14.3765625,13.3821563 C14.9835,12.5699063 15.3432188,11.56275 15.3432188,10.4731875 C15.3432188,7.7878125 13.1584688,5.60315625 10.4731875,5.60315625 C7.78790625,5.60315625 5.60315625,7.7878125 5.60315625,10.4731875 C5.60315625,13.1585625 7.78771875,15.343125 10.4730938,15.343125 Z M10.4730938,7.0093125 C12.3830625,7.0093125 13.936875,8.56321875 13.936875,10.4730938 C13.936875,12.3829687 12.3830625,13.936875 10.4730938,13.936875 C8.563125,13.936875 7.0093125,12.3829688 7.0093125,10.4730938 C7.0093125,8.56321875 8.563125,7.0093125 10.4730938,7.0093125 Z" id="Shape"></path>
                    <path d="M24.703125,40.981875 L24.703125,35.9325 C24.703125,35.5441875 24.3884062,35.229375 24,35.229375 C23.6115938,35.229375 23.296875,35.5441875 23.296875,35.9325 L23.296875,40.981875 C21.6782813,41.3089687 20.4557813,42.7422187 20.4557813,44.4557813 C20.4557813,46.4100938 22.0456875,48 24,48 C25.9543125,48 27.5442187,46.4100938 27.5442187,44.4557813 C27.5442187,42.7422187 26.3217187,41.3089687 24.703125,40.981875 Z M24,46.59375 C22.8211875,46.59375 21.8620313,45.6346875 21.8620313,44.4557813 C21.8620313,43.276875 22.8211875,42.3178125 24,42.3178125 C25.1788125,42.3178125 26.1379687,43.276875 26.1379687,44.4557813 C26.1379687,45.6346875 25.1788125,46.59375 24,46.59375 Z" id="Shape"></path>
                    <path d="M44.4557813,20.4557813 C42.7422187,20.4557813 41.3089687,21.6782813 40.981875,23.296875 L35.9325,23.296875 C35.5440938,23.296875 35.229375,23.6116875 35.229375,24 C35.229375,24.3883125 35.5440938,24.703125 35.9325,24.703125 L40.981875,24.703125 C41.3089687,26.3217187 42.7422187,27.5442187 44.4557813,27.5442187 C46.4100938,27.5442187 48,25.9543125 48,24 C48,22.0456875 46.4100938,20.4557813 44.4557813,20.4557813 Z M44.4557813,26.1379687 C43.2769688,26.1379687 42.3178125,25.1789062 42.3178125,24 C42.3178125,22.8210938 43.276875,21.8620313 44.4557813,21.8620313 C45.6346875,21.8620313 46.59375,22.8210937 46.59375,24 C46.59375,25.1789063 45.6346875,26.1379687 44.4557813,26.1379687 Z" id="Shape"></path>
                    <path d="M7.018125,24.703125 L12.0675,24.703125 C12.4559062,24.703125 12.770625,24.3883125 12.770625,24 C12.770625,23.6116875 12.4559062,23.296875 12.0675,23.296875 L7.018125,23.296875 C6.69103125,21.6782813 5.25778125,20.4557813 3.54421875,20.4557813 C1.58990625,20.4557813 0,22.0456875 0,24 C0,25.9543125 1.58990625,27.5442187 3.54421875,27.5442187 C5.25778125,27.5442187 6.69103125,26.3217187 7.018125,24.703125 Z M3.54421875,26.1379687 C2.3653125,26.1379687 1.40625,25.1789062 1.40625,24 C1.40625,22.8210938 2.3653125,21.8620313 3.54421875,21.8620313 C4.723125,21.8620313 5.68209375,22.8210937 5.68209375,24 C5.68209375,25.1789063 4.72303125,26.1379687 3.54421875,26.1379687 Z" id="Shape"></path>
                    <path d="M32.4375937,16.2655312 C32.6175,16.2655312 32.7975,16.1969063 32.9348437,16.0595625 L34.6179375,14.3764687 C35.4301875,14.9834062 36.4373437,15.343125 37.5269062,15.343125 C40.2122812,15.343125 42.3969375,13.1584688 42.3969375,10.4730938 C42.3969375,7.78771875 40.2121875,5.6030625 37.5269062,5.6030625 C34.841625,5.6030625 32.656875,7.78771875 32.656875,10.4730938 C32.656875,11.56275 33.0165937,12.5698125 33.6235312,13.3820625 L31.9403437,15.0651562 C31.66575,15.33975 31.66575,15.7849687 31.9403437,16.0594687 C32.0776875,16.1969063 32.2576875,16.2655312 32.4375937,16.2655312 L32.4375937,16.2655312 Z M37.5269062,7.0093125 C39.436875,7.0093125 40.9906875,8.56321875 40.9906875,10.4730937 C40.9906875,12.3829687 39.436875,13.936875 37.5269062,13.936875 C35.6169375,13.936875 34.063125,12.3829687 34.063125,10.4730937 C34.063125,8.56321875 35.6169375,7.0093125 37.5269062,7.0093125 Z" id="Shape"></path>
                    <path d="M15.0651562,31.9404375 L13.3820625,33.6235313 C12.5698125,33.0165938 11.5626562,32.656875 10.4730938,32.656875 C7.78771875,32.656875 5.6030625,34.8415313 5.6030625,37.5269063 C5.6030625,40.2122813 7.7878125,42.3969375 10.4730938,42.3969375 C13.158375,42.3969375 15.343125,40.2122813 15.343125,37.5269063 C15.343125,36.43725 14.9834062,35.4301875 14.3764687,34.6179375 L16.0595625,32.9348438 C16.3341562,32.66025 16.3341562,32.2150313 16.0595625,31.9405313 C15.7849687,31.6658438 15.3398437,31.6658438 15.0651562,31.9404375 L15.0651562,31.9404375 Z M10.4730938,40.9906875 C8.563125,40.9906875 7.0093125,39.4367813 7.0093125,37.5269063 C7.0093125,35.6170313 8.563125,34.063125 10.4730938,34.063125 C12.3830625,34.063125 13.936875,35.6170313 13.936875,37.5269063 C13.936875,39.4367813 12.3830625,40.9906875 10.4730938,40.9906875 Z" id="Shape"></path>
                </g>
            </g>
        </g>
    </g>
</svg>