<?xml version="1.0" encoding="UTF-8"?>
<svg width="28px" height="28px" viewBox="0 0 28 28" version="1.1" xmlns="http://www.w3.org/2000/svg" xmlns:xlink="http://www.w3.org/1999/xlink">
    <!-- Generator: Sketch 61.1 (89650) - https://sketch.com -->
    <title>cloud-computing (5)</title>
    <desc>Created with Sketch.</desc>
    <g id="Page-1" stroke="none" stroke-width="1" fill="none" fill-rule="evenodd">
        <g id="REBuild_Homepage1.1" transform="translate(-961.000000, -6914.000000)" fill="#4BC5D4" fill-rule="nonzero">
            <g id="cloud-computing-(5)" transform="translate(961.000000, 6914.000000)">
                <path d="M24.2095,23.625 L20.7083333,23.625 C18.9385,23.625 17.5,22.1865 17.5,20.4166667 L17.5,13.7083333 C17.5,13.2253333 17.892,12.8333333 18.375,12.8333333 C18.858,12.8333333 19.25,13.2253333 19.25,13.7083333 L19.25,20.4166667 C19.25,21.2205 19.9045,21.875 20.7083333,21.875 L24.2095,21.875 C24.6925,21.875 25.0845,22.267 25.0845,22.75 C25.0845,23.233 24.6925,23.625 24.2095,23.625 Z" id="Path"></path>
                <path d="M7.29166667,23.625 L3.7905,23.625 C3.3075,23.625 2.9155,23.233 2.9155,22.75 C2.9155,22.267 3.3075,21.875 3.7905,21.875 L7.29166667,21.875 C8.0955,21.875 8.75,21.2205 8.75,20.4166667 L8.75,13.7083333 C8.75,13.2253333 9.142,12.8333333 9.625,12.8333333 C10.108,12.8333333 10.5,13.2253333 10.5,13.7083333 L10.5,20.4166667 C10.5,22.1865 9.0615,23.625 7.29166667,23.625 Z" id="Path"></path>
                <path d="M14,27.4166667 C13.517,27.4166667 13.125,27.0246667 13.125,26.5416667 L13.125,11.375 C13.125,10.892 13.517,10.5 14,10.5 C14.483,10.5 14.875,10.892 14.875,11.375 L14.875,26.5416667 C14.875,27.0246667 14.483,27.4166667 14,27.4166667 Z" id="Path"></path>
                <path d="M5.25,25.6666667 C5.026,25.6666667 4.802,25.5815 4.63166667,25.41 L2.59,23.3683333 C2.24816667,23.0265 2.24816667,22.4723333 2.59,22.1305 L4.63166667,20.0888333 C4.9735,19.747 5.52766667,19.747 5.8695,20.0888333 C6.21133333,20.4306667 6.21133333,20.9848333 5.8695,21.3266667 L4.44616667,22.75 L5.8695,24.1733333 C6.21133333,24.5151667 6.21133333,25.0693333 5.8695,25.4111667 C5.698,25.5815 5.474,25.6666667 5.25,25.6666667 Z" id="Path"></path>
                <path d="M22.75,25.6666667 C22.526,25.6666667 22.302,25.5815 22.1316667,25.41 C21.7898333,25.0681667 21.7898333,24.514 22.1316667,24.1721667 L23.555,22.7488333 L22.1316667,21.3255 C21.7898333,20.9836667 21.7898333,20.4295 22.1316667,20.0876667 C22.4735,19.7458333 23.0276667,19.7458333 23.3695,20.0876667 L25.4111667,22.1293333 C25.753,22.4711667 25.753,23.0253333 25.4111667,23.3671667 L23.3695,25.4088333 C23.198,25.5815 22.974,25.6666667 22.75,25.6666667 L22.75,25.6666667 Z" id="Path"></path>
                <path d="M14,28 C13.776,28 13.552,27.9148333 13.3816667,27.7433333 L11.34,25.7016667 C10.9981667,25.3598333 10.9981667,24.8056667 11.34,24.4638333 C11.6818333,24.122 12.236,24.122 12.5778333,24.4638333 L14.0011667,25.8871667 L15.4245,24.4638333 C15.7663333,24.122 16.3205,24.122 16.6623333,24.4638333 C17.0041667,24.8056667 17.0041667,25.3598333 16.6623333,25.7016667 L14.6206667,27.7433333 C14.448,27.9148333 14.224,28 14,28 L14,28 Z" id="Path"></path>
                <path d="M5.83333333,18.655 C5.82516667,18.655 5.81583333,18.655 5.80766667,18.655 C2.5515,18.5581667 0,15.9495 0,12.7166667 C0,9.6495 2.35666667,7.11666667 5.37016667,6.8005 C6.27666667,2.87583333 9.86416667,1.03620816e-15 14,1.03620816e-15 C17.2573333,1.03620816e-15 20.2568333,1.78383333 21.7828333,4.585 C25.3085,5.02483333 28,8.00683333 28,11.585 C28,14.9088333 25.6223333,17.8208333 22.3463333,18.508 C21.8738333,18.6083333 21.4083333,18.3038333 21.3091667,17.8313333 C21.21,17.3588333 21.5133333,16.8945 21.9858333,16.7953333 C24.4556667,16.2773333 26.2488333,14.0863333 26.2488333,11.585 C26.2488333,8.76516667 24.0205,6.43766667 21.1738333,6.28716667 C20.853,6.26966667 20.566,6.07716667 20.4283333,5.7855 C19.2791667,3.33433333 16.7545,1.75 14,1.75 C10.4801667,1.75 7.4585,4.33533333 6.9685,7.76533333 C6.90666667,8.19583333 6.538,8.51666667 6.10166667,8.51666667 C3.65983333,8.51666667 1.75,10.4008333 1.75,12.7166667 C1.75,14.9975 3.55483333,16.8373333 5.859,16.9061667 C6.342,16.9201667 6.72116667,17.3238333 6.70833333,17.8068333 C6.69316667,18.2805 6.30466667,18.655 5.83333333,18.655 Z" id="Path"></path>
            </g>
        </g>
    </g>
</svg>