<?xml version="1.0" encoding="UTF-8"?>
<svg width="48px" height="48px" viewBox="0 0 48 48" version="1.1" xmlns="http://www.w3.org/2000/svg" xmlns:xlink="http://www.w3.org/1999/xlink">
    <!-- Generator: Sketch 61.1 (89650) - https://sketch.com -->
    <title>Group 30</title>
    <desc>Created with Sketch.</desc>
    <g id="Page-1" stroke="none" stroke-width="1" fill="none" fill-rule="evenodd">
        <g id="REBuild_Homepage1.1" transform="translate(-750.000000, -5494.000000)">
            <g id="Group-30" transform="translate(750.000000, 5494.000000)">
                <circle id="Oval" fill="#83F5FF" cx="26.5" cy="7.5" r="6.5"></circle>
                <rect id="Rectangle" fill="#83F5FF" x="29" y="26" width="2" height="5"></rect>
                <rect id="Rectangle" fill="#83F5FF" x="34" y="24" width="2" height="7"></rect>
                <rect id="Rectangle" fill="#83F5FF" x="41" y="22" width="3" height="9"></rect>
                <g id="code" fill="#3269D6" fill-rule="nonzero">
                    <polygon id="Path" points="23.2 36 24.8 36 24.8 37.6 23.2 37.6"></polygon>
                    <path d="M45.6,9.6 L31.84,9.6 C32.2430223,7.63248909 31.8860161,5.58534882 30.8408,3.8704 L33.8664,1.6 L40,1.6 L40,0 L33.6,0 C33.4269038,0 33.2584769,0.0561422975 33.12,0.16 L29.8776,2.592 C27.4482363,-0.053280083 23.5527587,-0.75330745 20.3544037,0.880657079 C17.1560487,2.51462161 15.4403216,6.0812818 16.16,9.6 L2.4,9.6 C1.0745166,9.6 2.84217094e-15,10.6745166 2.84217094e-15,12 L2.84217094e-15,37.6 C2.84217094e-15,38.9254834 1.0745166,40 2.4,40 L18.256,40 L17.7224,43.2 L16.8,43.2 C16.5481942,43.2 16.3110835,43.3185553 16.16,43.52 L13.76,46.72 C13.5781894,46.9624141 13.5489446,47.2867437 13.6844582,47.5577709 C13.8199719,47.8287981 14.0969824,48 14.4,48 L33.6,48 C33.9030176,48 34.1800281,47.8287981 34.3155418,47.5577709 C34.4510554,47.2867437 34.4218106,46.9624141 34.24,46.72 L31.84,43.52 C31.6889165,43.3185553 31.4518058,43.2 31.2,43.2 L30.2776,43.2 L29.744,40 L45.6,40 C46.9254834,40 48,38.9254834 48,37.6 L48,12 C48,10.6745166 46.9254834,9.6 45.6,9.6 L45.6,9.6 Z M28.5944,3.5544 L26.72,4.96 L27.68,6.24 L29.5544,4.8336 C30.1082856,5.79697116 30.39985,6.88875151 30.4,8 L24.8,8 L24.8,1.6552 C26.2443449,1.83712728 27.5831338,2.50722741 28.5944,3.5544 L28.5944,3.5544 Z M23.2,1.6552 L23.2,8.8 C23.2,9.2418278 23.5581722,9.6 24,9.6 L30.1896,9.6 C29.6594721,11.6751089 28.1233914,13.3457053 26.0999709,14.0477609 C24.0765505,14.7498164 21.8358587,14.389627 20.1344,13.0888 L22.2552,10.0584 L20.9448,9.1416 L18.9768,11.9528 C17.5462153,10.1434995 17.2025431,7.7033337 18.0777478,5.56928644 C18.9529525,3.43523917 20.9109878,1.93903813 23.2,1.6552 L23.2,1.6552 Z M2.4,11.2 L16.6728,11.2 C17.0127797,11.9691554 17.4717315,12.6799909 18.0328,13.3064 L15.5832,16.8 L5.6,16.8 C5.1581722,16.8 4.8,17.1581722 4.8,17.6 L4.8,22.4 L6.4,22.4 L6.4,18.4 L16,18.4 C16.2610535,18.399855 16.5056163,18.2723479 16.6552,18.0584 L19.2176,14.4 C21.1697366,15.8679895 23.6869242,16.3604873 26.0483708,15.7364676 C28.4098174,15.1124479 30.3551035,13.4407273 31.3272,11.2 L45.6,11.2 C46.0418278,11.2 46.4,11.5581722 46.4,12 L46.4,33.6 L1.6,33.6 L1.6,12 C1.6,11.5581722 1.9581722,11.2 2.4,11.2 Z M32,46.4 L16,46.4 L17.2,44.8 L30.8,44.8 L32,46.4 Z M28.656,43.2 L19.344,43.2 L19.8776,40 L28.1224,40 L28.656,43.2 Z M45.6,38.4 L2.4,38.4 C1.9581722,38.4 1.6,38.0418278 1.6,37.6 L1.6,35.2 L46.4,35.2 L46.4,37.6 C46.4,38.0418278 46.0418278,38.4 45.6,38.4 Z" id="Shape"></path>
                    <polygon id="Path" points="41.6 0 44.8 0 44.8 1.6 41.6 1.6"></polygon>
                    <polygon id="Path" points="33.6 3.2 35.2 3.2 35.2 4.8 33.6 4.8"></polygon>
                    <polygon id="Path" points="36.8 3.2 44.8 3.2 44.8 4.8 36.8 4.8"></polygon>
                    <polygon id="Path" points="33.6 6.4 40 6.4 40 8 33.6 8"></polygon>
                    <polygon id="Path" points="41.6 6.4 44.8 6.4 44.8 8 41.6 8"></polygon>
                    <polygon id="Path" points="3.2 24 7.2 24 7.2 25.6 3.2 25.6"></polygon>
                    <polygon id="Path" points="8.8 24 24 24 24 25.6 8.8 25.6"></polygon>
                    <polygon id="Path" points="3.2 27.2 16 27.2 16 28.8 3.2 28.8"></polygon>
                    <polygon id="Path" points="17.6 27.2 25.6 27.2 25.6 28.8 17.6 28.8"></polygon>
                    <polygon id="Path" points="3.2 30.4 11.2 30.4 11.2 32 3.2 32"></polygon>
                    <polygon id="Path" points="12.8 30.4 25.6 30.4 25.6 32 12.8 32"></polygon>
                    <path d="M4,8 L13.6,8 C14.0418278,8 14.4,7.6418278 14.4,7.2 L14.4,2.4 C14.4,1.9581722 14.0418278,1.6 13.6,1.6 L4,1.6 C3.5581722,1.6 3.2,1.9581722 3.2,2.4 L3.2,7.2 C3.2,7.6418278 3.5581722,8 4,8 Z M4.8,3.2 L12.8,3.2 L12.8,6.4 L4.8,6.4 L4.8,3.2 Z" id="Shape"></path>
                    <path d="M34.4,19.2 L44,19.2 C44.4418278,19.2 44.8,18.8418278 44.8,18.4 L44.8,13.6 C44.8,13.1581722 44.4418278,12.8 44,12.8 L34.4,12.8 C33.9581722,12.8 33.6,13.1581722 33.6,13.6 L33.6,18.4 C33.6,18.8418278 33.9581722,19.2 34.4,19.2 Z M35.2,14.4 L43.2,14.4 L43.2,17.6 L35.2,17.6 L35.2,14.4 Z" id="Shape"></path>
                    <path d="M27.2,24.8 L27.2,31.2 C27.2,31.6418278 27.5581722,32 28,32 L31.2,32 C31.6418278,32 32,31.6418278 32,31.2 L32,24.8 C32,24.3581722 31.6418278,24 31.2,24 L28,24 C27.5581722,24 27.2,24.3581722 27.2,24.8 Z M28.8,25.6 L30.4,25.6 L30.4,30.4 L28.8,30.4 L28.8,25.6 Z" id="Shape"></path>
                    <path d="M34.4,32 L37.6,32 C38.0418278,32 38.4,31.6418278 38.4,31.2 L38.4,23.2 C38.4,22.7581722 38.0418278,22.4 37.6,22.4 L34.4,22.4 C33.9581722,22.4 33.6,22.7581722 33.6,23.2 L33.6,31.2 C33.6,31.6418278 33.9581722,32 34.4,32 Z M35.2,24 L36.8,24 L36.8,30.4 L35.2,30.4 L35.2,24 Z" id="Shape"></path>
                    <path d="M44,20.8 L40.8,20.8 C40.3581722,20.8 40,21.1581722 40,21.6 L40,31.2 C40,31.6418278 40.3581722,32 40.8,32 L44,32 C44.4418278,32 44.8,31.6418278 44.8,31.2 L44.8,21.6 C44.8,21.1581722 44.4418278,20.8 44,20.8 Z M43.2,30.4 L41.6,30.4 L41.6,22.4 L43.2,22.4 L43.2,30.4 Z" id="Shape"></path>
                    <path d="M21.6,22.4 L28,22.4 C28.4418278,22.4 28.8,22.0418278 28.8,21.6 L28.8,18.4 C28.8,17.9581722 28.4418278,17.6 28,17.6 L21.6,17.6 C21.1581722,17.6 20.8,17.9581722 20.8,18.4 L20.8,21.6 C20.8,22.0418278 21.1581722,22.4 21.6,22.4 Z M22.4,19.2 L27.2,19.2 L27.2,20.8 L22.4,20.8 L22.4,19.2 Z" id="Shape"></path>
                </g>
            </g>
        </g>
    </g>
</svg>