<?xml version="1.0" encoding="UTF-8"?>
<svg width="48px" height="52px" viewBox="0 0 48 52" version="1.1" xmlns="http://www.w3.org/2000/svg" xmlns:xlink="http://www.w3.org/1999/xlink">
    <!-- Generator: Sketch 61.1 (89650) - https://sketch.com -->
    <title>Group 29</title>
    <desc>Created with Sketch.</desc>
    <g id="Page-1" stroke="none" stroke-width="1" fill="none" fill-rule="evenodd">
        <g id="REBuild_Homepage1.1" transform="translate(-751.000000, -4130.000000)">
            <g id="Group-29" transform="translate(751.000000, 4131.000000)">
                <rect id="Rectangle" fill="#83F5FF" x="14" y="22" width="5" height="22" rx="2.5"></rect>
                <circle id="Oval" fill="#83F5FF" cx="31.5" cy="24.5" r="5.5"></circle>
                <g id="smart-home-(1)">
                    <path d="M11.6584,36.664 C11.8725795,36.5142544 12.0001162,36.2693362 12,36.008 L12,31 C12,30.5581722 11.6418278,30.2 11.2,30.2 C10.7581722,30.2 10.4,30.5581722 10.4,31 L10.4,35.608 C8.2786158,37.3064667 7.46116499,40.1594439 8.36119259,42.7236222 C9.2612202,45.2878005 11.6824533,47.0039984 14.4,47.0039984 C17.1175467,47.0039984 19.5387798,45.2878005 20.4388074,42.7236222 C21.338835,40.1594439 20.5213842,37.3064667 18.4,35.608 L18.4,22.2 C18.4,19.990861 16.609139,18.2 14.4,18.2 C12.190861,18.2 10.4,19.990861 10.4,22.2 L10.4,27.8 C10.4,28.2418278 10.7581722,28.6 11.2,28.6 C11.6418278,28.6 12,28.2418278 12,27.8 L12,22.2 C12,20.8745166 13.0745166,19.8 14.4,19.8 C15.7254834,19.8 16.8,20.8745166 16.8,22.2 L16.8,23.8 L15.2,23.8 L15.2,22.2 C15.2,21.7581722 14.8418278,21.4 14.4,21.4 C13.9581722,21.4 13.6,21.7581722 13.6,22.2 L13.6,37.5136 C11.9939258,37.9321691 10.9759537,39.5109618 11.2574999,41.1466286 C11.5390461,42.7822955 13.026305,43.9298645 14.6798962,43.7873496 C16.3334874,43.6448348 17.6024668,42.2597193 17.6,40.6 C17.6,40.1581722 17.2418278,39.8 16.8,39.8 C16.3581722,39.8 16,40.1581722 16,40.6 C16,41.4836556 15.2836556,42.2 14.4,42.2 C13.5163444,42.2 12.8,41.4836556 12.8,40.6 C12.8,39.7163444 13.5163444,39 14.4,39 C14.8418278,39 15.2,38.6418278 15.2,38.2 L15.2,35 L16.8,35 L16.8,36.008 C16.7998838,36.2693362 16.9274205,36.5142544 17.1416,36.664 C18.8633299,37.8620432 19.6077587,40.0392822 18.9799573,42.0406634 C18.3521559,44.0420446 16.497537,45.4040037 14.4,45.4040037 C12.302463,45.4040037 10.4478441,44.0420446 9.82004269,42.0406634 C9.19224127,40.0392822 9.9366701,37.8620432 11.6584,36.664 Z M15.2,28.6 L16.8,28.6 L16.8,30.2 L15.2,30.2 L15.2,28.6 Z M16.8,25.4 L16.8,27 L15.2,27 L15.2,25.4 L16.8,25.4 Z M15.2,33.4 L15.2,31.8 L16.8,31.8 L16.8,33.4 L15.2,33.4 Z" id="Shape" fill="#3269D6" fill-rule="nonzero"></path>
                    <path d="M24.8,43 C24.3581722,43 24,43.3581722 24,43.8 L24,47 C24,47.4418278 24.3581722,47.8 24.8,47.8 L28,47.8 C28.4418278,47.8 28.8,47.4418278 28.8,47 C28.8,46.5581722 28.4418278,46.2 28,46.2 L25.6,46.2 L25.6,44.6 L28,44.6 C28.4418278,44.6 28.8,44.2418278 28.8,43.8 L28.8,40.6 C28.8,40.1581722 28.4418278,39.8 28,39.8 L24.8,39.8 C24.3581722,39.8 24,40.1581722 24,40.6 C24,41.0418278 24.3581722,41.4 24.8,41.4 L27.2,41.4 L27.2,43 L24.8,43 Z" id="Path" fill="#3269D6" fill-rule="nonzero"></path>
                    <path d="M31.2,46.2 C30.7581722,46.2 30.4,46.5581722 30.4,47 C30.4,47.4418278 30.7581722,47.8 31.2,47.8 L34.4,47.8 C34.8418278,47.8 35.2,47.4418278 35.2,47 L35.2,43.8 C35.2,43.3581722 34.8418278,43 34.4,43 L32,43 L32,41.4 L34.4,41.4 C34.8418278,41.4 35.2,41.0418278 35.2,40.6 C35.2,40.1581722 34.8418278,39.8 34.4,39.8 L31.2,39.8 C30.7581722,39.8 30.4,40.1581722 30.4,40.6 L30.4,43.8 C30.4,44.2418278 30.7581722,44.6 31.2,44.6 L33.6,44.6 L33.6,46.2 L31.2,46.2 Z" id="Path" fill="#3269D6" fill-rule="nonzero"></path>
                    <circle id="Oval" fill="#3269D6" fill-rule="nonzero" cx="36" cy="38.2" r="1"></circle>
                    <path d="M37.6,24.6 C37.6,20.181722 34.018278,16.6 29.6,16.6 C25.181722,16.6 21.6,20.181722 21.6,24.6 C21.6,29.018278 25.181722,32.6 29.6,32.6 C34.0162675,32.5951501 37.5951501,29.0162675 37.6,24.6 Z M23.2,24.6 C23.2,21.0653776 26.0653776,18.2 29.6,18.2 C33.1346224,18.2 36,21.0653776 36,24.6 C36,28.1346224 33.1346224,31 29.6,31 C26.0670225,30.9960321 23.2039679,28.1329775 23.2,24.6 Z" id="Shape" fill="#3269D6" fill-rule="nonzero"></path>
                    <path d="M30.7312,25.8688 C31.0451031,26.1719778 31.5440678,26.1676419 31.8526549,25.8590549 C32.1612419,25.5504678 32.1655778,25.0515031 31.8624,24.7376 C30.5966967,23.527889 28.6033033,23.527889 27.3376,24.7376 C27.0344222,25.0515031 27.0387581,25.5504678 27.3473451,25.8590549 C27.6559322,26.1676419 28.1548969,26.1719778 28.4688,25.8688 C29.1017336,25.2641488 30.0982664,25.2641488 30.7312,25.8688 Z" id="Path" fill="#3269D6" fill-rule="nonzero"></path>
                    <path d="M32.9944,23.6056 C33.1952596,23.8135653 33.4927023,23.8969701 33.7724059,23.8237577 C34.0521094,23.7505454 34.2705454,23.5321094 34.3437577,23.2524059 C34.4169701,22.9727023 34.3335653,22.6752596 34.1256,22.4744 C32.9253577,21.2740958 31.2974427,20.5997668 29.6,20.5997668 C27.9025573,20.5997668 26.2746423,21.2740958 25.0744,22.4744 C24.8664347,22.6752596 24.7830299,22.9727023 24.8562423,23.2524059 C24.9294546,23.5321094 25.1478906,23.7505454 25.4275941,23.8237577 C25.7072977,23.8969701 26.0047404,23.8135653 26.2056,23.6056 C27.105798,22.7052495 28.32682,22.1994251 29.6,22.1994251 C30.87318,22.1994251 32.094202,22.7052495 32.9944,23.6056 L32.9944,23.6056 Z" id="Path" fill="#3269D6" fill-rule="nonzero"></path>
                    <circle id="Oval" fill="#3269D6" fill-rule="nonzero" cx="29.6" cy="27.8" r="1"></circle>
                    <path d="M47.2,46.2 L43.2,46.2 L43.2,42.2 C43.2,41.7581722 42.8418278,41.4 42.4,41.4 C41.9581722,41.4 41.6,41.7581722 41.6,42.2 L41.6,47 C41.6,47.4418278 41.9581722,47.8 42.4,47.8 L46.4,47.8 L46.4,49.4 L40,49.4 L40,35 C40,34.5581722 39.6418278,34.2 39.2,34.2 L20.8,34.2 C20.3581722,34.2 20,34.5581722 20,35 C20,35.4418278 20.3581722,35.8 20.8,35.8 L38.4,35.8 L38.4,49.4 L20.8,49.4 L20.8,47 C20.8,46.5581722 20.4418278,46.2 20,46.2 C19.5581722,46.2 19.2,46.5581722 19.2,47 L19.2,49.4 L1.6,49.4 L1.6,47.8 L5.6,47.8 C6.0418278,47.8 6.4,47.4418278 6.4,47 L6.4,30.2 C6.4,29.7581722 6.0418278,29.4 5.6,29.4 C5.1581722,29.4 4.8,29.7581722 4.8,30.2 L4.8,46.2 L0.8,46.2 C0.3581722,46.2 0,46.5581722 0,47 L0,50.2 C0,50.6418278 0.3581722,51 0.8,51 L47.2,51 C47.6418278,51 48,50.6418278 48,50.2 L48,47 C48,46.5581722 47.6418278,46.2 47.2,46.2 Z" id="Path" fill="#3269D6" fill-rule="nonzero"></path>
                    <polyline id="Path-11" stroke="#3269D6" stroke-width="1.5" stroke-linecap="round" stroke-linejoin="round" points="5.5 28 5.5 0.5 25 0.5 25 14.5 39.5 14.5 39.5 24 39.5 32"></polyline>
                </g>
            </g>
        </g>
    </g>
</svg>