<?xml version="1.0" encoding="UTF-8"?>
<svg width="32px" height="47px" viewBox="0 0 32 47" version="1.1" xmlns="http://www.w3.org/2000/svg" xmlns:xlink="http://www.w3.org/1999/xlink">
    <!-- Generator: Sketch 61.1 (89650) - https://sketch.com -->
    <title>Group 2</title>
    <desc>Created with Sketch.</desc>
    <g id="Page-1" stroke="none" stroke-width="1" fill="none" fill-rule="evenodd">
        <g id="REBuild_Homepage1.1" transform="translate(-112.000000, -2020.000000)">
            <g id="Group-2" transform="translate(112.000000, 2020.000000)">
                <circle id="Oval" fill="#83F5FF" cx="16" cy="16" r="4.8"></circle>
                <circle id="Oval" fill="#83F5FF" cx="24" cy="4.8" r="4.8"></circle>
                <circle id="Oval" fill="#83F5FF" cx="4.8" cy="27.2" r="4.8"></circle>
                <g id="touch" transform="translate(0.000000, 1.600000)" fill="#3269D6" fill-rule="nonzero">
                    <path d="M8.01098901,28.3464972 C9.31421705,27.0432693 9.31421705,24.9223902 8.01098901,23.6191621 C7.37946426,22.9879807 6.54017855,22.6401099 5.64732141,22.6401099 C5.13118136,22.6401099 4.63324176,22.7568681 4.18303569,22.9769917 C2.59546708,20.7057006 1.759272,18.0477335 1.759272,15.2520605 C1.759272,8.09718409 7.34855771,2.16998629 14.4835165,1.75789837 C14.96875,1.72973899 15.3389423,1.31387358 15.3111263,0.82898356 C15.282967,0.343749978 14.8671016,-0.025412044 14.3822115,0.00137362637 C6.31730769,0.467376352 1.42108547e-14,7.16620879 1.42108547e-14,15.2520605 C1.42108547e-14,18.478022 0.985920352,21.542239 2.85508237,24.1449176 C2.00103024,25.4416209 2.14388738,27.2067307 3.2836538,28.3464972 C3.91517855,28.9776786 4.75446426,29.3255495 5.64732141,29.3255495 C6.54017855,29.3255495 7.37946426,28.9776786 8.01098901,28.3464972 Z M4.52747253,24.8633241 C4.83619508,24.5546017 5.24175824,24.4000687 5.64732141,24.4000687 C6.05254119,24.4000687 6.45810444,24.5546017 6.7668269,24.8633241 C7.384272,25.4804258 7.384272,26.4852335 6.7668269,27.1023351 C6.14938189,27.7197802 5.14491763,27.7197802 4.52747253,27.1023351 C3.9103709,26.4852335 3.9103709,25.4807692 4.52747253,24.8633241 Z" id="Shape"></path>
                    <path d="M28.8389423,29.609976 C28.282967,29.609976 27.7603022,29.7548935 27.3066621,30.0090144 C26.9045329,28.7339457 25.7108517,27.8067479 24.3046017,27.8067479 C23.4148352,27.8067479 22.6102335,28.1779704 22.0374313,28.7734375 C21.8784341,28.6086023 21.7015797,28.4612808 21.5103022,28.3338771 C23.5377748,27.4262534 25.362294,26.0780392 26.8385989,24.3702781 C29.2335165,21.5989869 30.5525412,18.0529704 30.5525412,14.3857315 C30.5525412,11.1614869 29.5666208,8.09555284 27.6978022,5.49253086 C28.5518544,4.19582756 28.4089973,2.43106105 27.2688874,1.29095116 C25.9656593,-0.0122767912 23.8451236,-0.0122767912 22.5415522,1.29095116 C21.2383242,2.59417921 21.2383242,4.71505833 22.5415522,6.01828637 C23.1933379,6.67007204 24.0491072,6.99596497 24.9052198,6.99596497 C25.4069368,6.99596497 25.907967,6.88298422 26.3684753,6.65908303 C27.9567307,8.93106105 28.7932693,11.5910886 28.7932693,14.3857315 C28.7932693,20.7490556 24.4735577,26.1278331 18.3825549,27.5447287 L18.3825549,22.8098385 C21.8708791,21.5220639 24.2541209,18.1501545 24.2541209,14.3857315 C24.2541209,9.43552541 20.2266484,5.40805288 15.2760989,5.40805288 C10.3258928,5.40805288 6.29842031,9.43518202 6.29842031,14.3857315 C6.29842031,16.3393716 6.91552193,18.1972012 8.08241758,19.7576407 C9.10027473,21.1185611 10.5085851,22.1755665 12.0885989,22.7785886 L12.0885989,35.7178056 L10.9835165,33.9049622 C10.0549451,32.3805804 8.11641486,31.8860749 6.5707418,32.7782451 C5.10061811,33.6271462 4.52712914,35.4897836 5.26923077,37.0261847 L8.55048079,43.6549622 C8.70398347,43.9650583 9.01579675,44.14466 9.3396291,44.14466 C9.47081046,44.14466 9.60370884,44.1154705 9.72905222,44.0533139 C10.1644918,43.8376545 10.3427198,43.3098385 10.1274039,42.8747425 L6.84958787,36.2535199 C6.50995877,35.5498798 6.77369503,34.6927369 7.45054945,34.3019402 C8.15006866,33.898094 9.06112633,34.1305804 9.481456,34.8204842 L12.217033,39.3091518 C12.4223902,39.6456902 12.8265797,39.8046874 13.206044,39.6982314 C13.5855082,39.5917754 13.8478709,39.2456216 13.8478709,38.8510473 L13.8478709,18.668355 C13.8478709,17.9032451 14.470467,17.2809924 15.235577,17.2809924 C16.0006868,17.2809924 16.623283,17.9032451 16.623283,18.668355 L16.623283,22.1477506 C16.6229396,22.153932 16.623283,22.1601133 16.623283,22.166638 L16.623283,35.3747425 C16.623283,35.8606627 17.0168269,36.2542067 17.5027473,36.2542067 C17.9886676,36.2542067 18.3825549,35.8606627 18.3825549,35.3747425 L18.3825549,30.9537259 C18.3825549,30.188616 19.0048077,29.5660199 19.7699175,29.5660199 C20.5350275,29.5660199 21.1576236,30.188616 21.1576236,30.9537259 L21.1576236,35.6947973 C21.1576236,36.1807177 21.551511,36.5746051 22.0370879,36.5746051 C22.5230083,36.5746051 22.9168956,36.1807177 22.9168956,35.6947973 L22.9168956,30.9537259 C22.9168956,30.188616 23.5394918,29.5660199 24.3046017,29.5660199 C25.0697116,29.5660199 25.6919643,30.188616 25.6919643,30.9537259 L25.6919643,35.7542067 C25.6919643,36.2401271 26.0858516,36.6340144 26.571772,36.6340144 C27.0576923,36.6340144 27.4512362,36.2401271 27.4512362,35.7542067 L27.4512362,32.756954 C27.4512362,31.9918441 28.0738324,31.369248 28.8389423,31.369248 C29.6040522,31.369248 30.2266484,31.9918441 30.2266484,32.756954 L30.2266484,43.2645089 C30.2266484,43.7504292 30.6201924,44.14466 31.1061126,44.14466 C31.592033,44.14466 31.9859204,43.7504292 31.9859204,43.2645089 L31.9859204,32.756954 C31.9859204,31.0217204 30.5741758,29.609976 28.8389423,29.609976 L28.8389423,29.609976 Z M23.7857143,4.77446765 C23.1682692,4.15702264 23.1682692,3.15255837 23.7857143,2.53511327 C24.0944368,2.22639081 24.4996566,2.07220119 24.9052198,2.07220119 C25.3107829,2.07220119 25.7163462,2.22639081 26.0250687,2.53511327 C26.6421704,3.15255837 26.6421704,4.15702264 26.0250687,4.77446765 C25.4076236,5.39156936 24.4028159,5.39156936 23.7857143,4.77446765 Z M8.05769231,14.3857315 C8.05769231,10.4053056 11.2960165,7.16698141 15.2764423,7.16698141 C19.2565247,7.16698141 22.4948489,10.4053056 22.4948489,14.3857315 C22.4948489,17.188616 20.8523351,19.7212397 18.3825549,20.9029018 L18.3825549,18.668355 C18.3825549,18.1745364 18.2678571,17.7068166 18.0638736,17.2902644 C18.8440934,16.5382039 19.3052884,15.4897836 19.3052884,14.3857315 C19.3052884,12.1638908 17.4979395,10.3565418 15.2764423,10.3565418 C13.0546017,10.3565418 11.2472527,12.1638908 11.2472527,14.3857315 C11.2472527,15.4575034 11.6837225,16.4873798 12.4340659,17.2380666 C12.2139423,17.6673248 12.0885989,18.1535885 12.0885989,18.668355 L12.0885989,20.8658138 C9.63907965,19.6686985 8.05769231,17.1862122 8.05769231,14.3857315 Z M13.6394231,15.9578468 C13.2338599,15.5382039 13.0065247,14.9822287 13.0065247,14.3857315 C13.0065247,13.1340144 14.0247253,12.1158138 15.2760989,12.1158138 C16.5278159,12.1158138 17.5460165,13.1340144 17.5460165,14.3857315 C17.5460165,14.9908138 17.3001373,15.5670502 16.8818681,15.9880666 C16.4024725,15.6923935 15.8385989,15.5217204 15.235577,15.5217204 C14.6531594,15.5217204 14.1078296,15.6810611 13.6394231,15.9578468 Z" id="Shape"></path>
                    <path d="M18.3911401,45.010989 C18.6225961,45.010989 18.8495879,44.9168956 19.0130495,44.7530906 C19.1768544,44.5896291 19.2709478,44.3626374 19.2709478,44.1311813 C19.2709478,43.9000687 19.1768544,43.6730769 19.0130495,43.509272 C18.8495879,43.3458105 18.6225961,43.251717 18.3911401,43.251717 C18.1600274,43.251717 17.9330357,43.3458105 17.7695742,43.509272 C17.6057692,43.6730769 17.5116758,43.9000687 17.5116758,44.1311813 C17.5116758,44.3626374 17.6057692,44.5896291 17.7695742,44.7530906 C17.9330357,44.9168956 18.1600274,45.010989 18.3911401,45.010989 Z" id="Path"></path>
                </g>
            </g>
        </g>
    </g>
</svg>