<?xml version="1.0" encoding="UTF-8"?>
<svg width="24px" height="24px" viewBox="0 0 24 24" version="1.1" xmlns="http://www.w3.org/2000/svg" xmlns:xlink="http://www.w3.org/1999/xlink">
    <!-- Generator: Sketch 61.1 (89650) - https://sketch.com -->
    <title>Group 3</title>
    <desc>Created with Sketch.</desc>
    <g id="Page-1" stroke="none" stroke-width="1" fill="none" fill-rule="evenodd">
        <g id="REBuild_Homepage1.1" transform="translate(-752.000000, -5873.000000)" fill="#1BBF81" fill-rule="nonzero">
            <g id="Group-24" transform="translate(752.000000, 5863.000000)">
                <g id="Group-3" transform="translate(0.000000, 10.000000)">
                    <path d="M11.9361429,4.87229305e-14 C5.35457143,4.87229305e-14 4.87229305e-14,5.35457143 4.87229305e-14,11.9361429 C4.87229305e-14,18.5177143 5.35457143,23.8722857 11.9361429,23.8722857 C18.5177143,23.8722857 23.8722857,18.5177143 23.8722857,11.9361429 C23.8718571,5.35457143 18.5177143,4.87229305e-14 11.9361429,4.87229305e-14 Z M11.9361429,21.9484286 C6.41528571,21.9484286 1.92385714,17.457 1.92385714,11.9357143 C1.92385714,6.41485714 6.41528571,1.92342857 11.9361429,1.92342857 C17.457,1.92342857 21.9484286,6.41528571 21.9484286,11.9361429 C21.9484286,17.457 17.457,21.9484286 11.9361429,21.9484286 Z" id="Shape"></path>
                    <path d="M15.741,8.13 L10.1695714,13.7018571 L8.13085714,11.6631429 C7.75542857,11.2872857 7.14642857,11.2872857 6.771,11.6631429 C6.39514286,12.0385714 6.39514286,12.6475714 6.771,13.023 L9.48985714,15.7418571 C9.67757143,15.9295714 9.924,16.0238571 10.17,16.0238571 C10.416,16.0238571 10.662,15.93 10.8497143,15.7418571 L17.1012857,9.49028571 C17.4767143,9.11442857 17.4767143,8.50585714 17.1012857,8.13 C16.7254286,7.75457143 16.1168571,7.75457143 15.741,8.13 Z" id="Path"></path>
                </g>
            </g>
        </g>
    </g>
</svg>