<?xml version="1.0" encoding="UTF-8"?>
<svg width="32px" height="48px" viewBox="0 0 32 48" version="1.1" xmlns="http://www.w3.org/2000/svg" xmlns:xlink="http://www.w3.org/1999/xlink">
    <!-- Generator: Sketch 61.1 (89650) - https://sketch.com -->
    <title>Group 5</title>
    <desc>Created with Sketch.</desc>
    <g id="Page-1" stroke="none" stroke-width="1" fill="none" fill-rule="evenodd">
        <g id="REBuild_Homepage1.1" transform="translate(-112.000000, -4844.000000)">
            <g id="Group-5" transform="translate(112.000000, 4844.000000)">
                <ellipse id="Oval" fill="#83F5FF" cx="10.4" cy="10.4" rx="2.4" ry="4"></ellipse>
                <ellipse id="Oval" fill="#83F5FF" cx="20" cy="16.8" rx="2.4" ry="4"></ellipse>
                <ellipse id="Oval" fill="#83F5FF" cx="18.4" cy="28" rx="2.4" ry="4"></ellipse>
                <g id="smart-home" fill="#3269D6" fill-rule="nonzero">
                    <path d="M1.456,38.4 C2.256,39.584 2.112,39.4 2.792,40.432 C4.24,42.608 4,42.592 4,45.6 C4,46.9254834 5.0745166,48 6.4,48 L16,48 C17.3254834,48 18.4,46.9254834 18.4,45.6 L18.4,42.4 C18.4017148,42.1159111 18.5539644,41.8540418 18.8,41.712 C20.35297,40.9039303 21.7164337,39.7749824 22.8,38.4 L23.2,38.4 C24.6553256,38.3952742 25.9241743,37.4091223 26.288,36 L27.2,36 C28.4402085,35.9851112 29.5601179,35.2548967 30.074002,34.1260646 C30.5878861,32.9972326 30.4031822,31.6731122 29.6,30.728 C30.4019734,30.2453057 30.9523966,29.4356758 31.1062793,28.5123799 C31.2601619,27.589084 31.002074,26.6447022 30.4,25.928 C31.610624,25.186476 32.1879596,23.7359692 31.8180202,22.3653441 C31.448081,20.994719 30.2193182,20.0316881 28.8,20 L26.4,20 L26.4,18.488 L29.184,17.336 C30.2472224,16.9072813 31.0009618,15.9439065 31.1612917,14.8087695 C31.3216216,13.6736326 30.8641842,12.5391878 29.9612917,11.8327694 C29.0583991,11.1263512 27.8472224,10.9552813 26.784,11.384 L26.368,11.552 L26.368,3.2 C26.368,1.4326888 24.9353112,-2.84217094e-15 23.168,-2.84217094e-15 L8.8,-2.84217094e-15 C7.0326888,-2.84217094e-15 5.6,1.4326888 5.6,3.2 L5.6,17.6 C4.20877211,17.4589787 2.82326114,17.9166189 1.78973596,18.8585466 C0.756210776,19.8004742 0.172323472,21.1376918 0.184,22.536 C0.264,28.632 0.256,27.96 0.144,29.888 C0.064,31.488 -0.048,33.48 0.024,34.44 C0.040980056,35.8837398 0.545644184,37.2793194 1.456,38.4 Z M25.856,29.48 C25.1586418,29.1951094 24.7544626,28.4623678 24.8854862,27.720543 C25.0165097,26.9787182 25.6472426,26.4287662 26.4,26.4 L28,26.4 C28.8836556,26.4 29.6,27.1163444 29.6,28 C29.6,28.8836556 28.8836556,29.6 28,29.6 C26.336,29.6 26.208,29.6 25.856,29.456 L25.856,29.48 Z M27.2,34.4 L26.4,34.4 C25.5163444,34.4 24.8,33.6836556 24.8,32.8 C24.8,31.9163444 25.5163444,31.2 26.4,31.2 L27.2,31.2 C28.0836556,31.2 28.8,31.9163444 28.8,32.8 C28.8,33.6836556 28.0836556,34.4 27.2,34.4 Z M28.8,21.6 C29.6836556,21.6 30.4,22.3163444 30.4,23.2 C30.4,24.0836556 29.6836556,24.8 28.8,24.8 L26.4,24.8 C25.5163444,24.8 24.8,24.0836556 24.8,23.2 C24.8,22.3163444 25.5163444,21.6 26.4,21.6 L28.8,21.6 Z M27.408,12.872 C28.2320089,12.5472566 29.1632566,12.9519911 29.488,13.776 C29.8127434,14.6000089 29.4080089,15.5312566 28.584,15.856 L26.4,16.8 L26.4,13.272 L27.408,12.872 Z M20.304,1.6 L19.728,2.76 C19.5911476,3.03160304 19.3121255,3.20211654 19.008,3.2 L12.992,3.2 C12.6878745,3.20211654 12.4088524,3.03160304 12.272,2.76 L11.696,1.6 L20.304,1.6 Z M7.2,3.2 C7.2,2.3163444 7.9163444,1.6 8.8,1.6 L9.904,1.6 L10.84,3.472 C11.2470379,4.28732608 12.0807189,4.8017909 12.992,4.8 L19.008,4.8 C19.9192811,4.8017909 20.7529621,4.28732608 21.16,3.472 L22.096,1.6 L23.2,1.6 C24.0836556,1.6 24.8,2.3163444 24.8,3.2 L24.8,20.408 C23.9026224,20.925292 23.3111304,21.844944 23.2126274,22.8760476 C23.1141245,23.9071513 23.5207953,24.9221594 24.304,25.6 C23.6151986,26.2074658 23.220601,27.0815982 23.220601,28 C23.220601,28.9184018 23.6151986,29.7925342 24.304,30.4 C23.5605231,31.0795506 23.1803908,32.0694934 23.2779663,33.0720033 C23.3755418,34.0745131 23.9394358,34.9725727 24.8,35.496 C24.6558153,36.2625607 23.9798871,36.8134422 23.2,36.8002407 L8.8,36.8002407 C7.9163444,36.8002407 7.2,36.0836556 7.2,35.2 L7.2,26.4 C8.76490312,26.8739411 10.4350969,26.8739411 12,26.4 L16.8,26.4 C16.8,27.7254834 17.8745166,28.8 19.2,28.8 C20.5254834,28.8 21.6,27.7254834 21.6,26.4 L22.4,26.4 C22.8418278,26.4 23.2,26.0418278 23.2,25.6 C23.2,25.1581722 22.8418278,24.8 22.4,24.8 L21.6,24.8 C21.6,23.4745166 20.5254834,22.4 19.2,22.4 C17.8745166,22.4 16.8,23.4745166 16.8,24.8 L14.336,24.8 C14.8716142,24.0724473 15.1729807,23.1990423 15.2,22.296 C15.1886129,21.090555 14.2847942,20.0806061 13.088,19.936 C8.752,19.416 8.856,18.712 7.2,17.992 L7.2,3.2 Z M20,26.4 C20,26.8418278 19.6418278,27.2 19.2,27.2 C18.7581722,27.2 18.4,26.8418278 18.4,26.4 L18.4,24.8 C18.4,24.3581722 18.7581722,24 19.2,24 C19.6418278,24 20,24.3581722 20,24.8 L20,26.4 Z M1.744,29.96 C2.128,22.912 1.144,21.768 2.744,20.152 C3.36455022,19.5309023 4.21011147,19.1874832 5.088,19.2 C6.912,19.2 7.536,20.352 9.384,20.88 C10.5357271,21.1972074 11.7097163,21.4271916 12.896,21.568 C13.2999721,21.6168187 13.6029391,21.9610994 13.6,22.368 L13.6,22.4 C13.6,22.512 13.552,25.12 9.6,25.12 C9.55232568,25.1120922 9.50367432,25.1120922 9.456,25.12 C8.856,25.176 6.04,24.6 5.512,23.52 C5.39672208,23.2431691 5.13630789,23.0540542 4.8373927,23.0300946 C4.53847751,23.0061351 4.25126474,23.1513551 4.09336325,23.4062894 C3.93546176,23.6612236 3.93339142,23.9830554 4.088,24.24 C4.42348845,24.8862562 4.95197312,25.4119446 5.6,25.744 L5.6,35.2 C5.6,36.9673112 7.0326888,38.4 8.8,38.4 L20.696,38.4 C19.8795626,39.1410414 18.9802711,39.7853099 18.016,40.32 C17.266799,40.7449066 16.802736,41.5386985 16.8,42.4 L16.8,45.6 C16.8,46.0418278 16.4418278,46.4 16,46.4 L6.4,46.4 C5.9581722,46.4 5.6,46.0418278 5.6,45.6 C5.6,42.448 5.848,42.136 4.128,39.528 C3.456,38.504 3.584,38.624 2.768,37.456 C2.01888645,36.5760981 1.60515242,35.459583 1.6,34.304 C1.552,33.448 1.664,31.512 1.744,29.96 L1.744,29.96 Z" id="Shape"></path>
                    <path d="M20,33.6 L12,33.6 C11.5581722,33.6 11.2,33.9581722 11.2,34.4 C11.2,34.8418278 11.5581722,35.2 12,35.2 L20,35.2 C20.4418278,35.2 20.8,34.8418278 20.8,34.4 C20.8,33.9581722 20.4418278,33.6 20,33.6 Z" id="Shape"></path>
                    <path d="M9.6,10.4 L10.4,10.4 C10.4,11.7254834 11.4745166,12.8 12.8,12.8 C14.1254834,12.8 15.2,11.7254834 15.2,10.4 L22.4,10.4 C22.8418278,10.4 23.2,10.0418278 23.2,9.6 C23.2,9.15817224 22.8418278,8.8 22.4,8.8 L15.2,8.8 C15.2,7.4745166 14.1254834,6.4 12.8,6.4 C11.4745166,6.4 10.4,7.4745166 10.4,8.8 L9.6,8.8 C9.15817224,8.8 8.8,9.15817224 8.8,9.6 C8.8,10.0418278 9.15817224,10.4 9.6,10.4 Z M12,8.8 C12,8.35817224 12.3581722,8 12.8,8 C13.2418278,8 13.6,8.35817224 13.6,8.8 L13.6,10.4 C13.6,10.8418278 13.2418278,11.2 12.8,11.2 C12.3581722,11.2 12,10.8418278 12,10.4 L12,8.8 Z" id="Shape"></path>
                    <path d="M9.6,18.4 L16.8,18.4 C16.8,19.7254834 17.8745166,20.8 19.2,20.8 C20.5254834,20.8 21.6,19.7254834 21.6,18.4 L22.4,18.4 C22.8418278,18.4 23.2,18.0418278 23.2,17.6 C23.2,17.1581722 22.8418278,16.8 22.4,16.8 L21.6,16.8 C21.6,15.4745166 20.5254834,14.4 19.2,14.4 C17.8745166,14.4 16.8,15.4745166 16.8,16.8 L9.6,16.8 C9.15817224,16.8 8.8,17.1581722 8.8,17.6 C8.8,18.0418278 9.15817224,18.4 9.6,18.4 Z M18.4,16.8 C18.4,16.3581722 18.7581722,16 19.2,16 C19.6418278,16 20,16.3581722 20,16.8 L20,18.4 C20,18.8418278 19.6418278,19.2 19.2,19.2 C18.7581722,19.2 18.4,18.8418278 18.4,18.4 L18.4,16.8 Z" id="Shape"></path>
                </g>
            </g>
        </g>
    </g>
</svg>