<?xml version="1.0" encoding="UTF-8"?>
<svg width="48px" height="44px" viewBox="0 0 48 44" version="1.1" xmlns="http://www.w3.org/2000/svg" xmlns:xlink="http://www.w3.org/1999/xlink">
    <!-- Generator: Sketch 61.1 (89650) - https://sketch.com -->
    <title>Group 26</title>
    <desc>Created with Sketch.</desc>
    <g id="Page-1" stroke="none" stroke-width="1" fill="none" fill-rule="evenodd">
        <g id="REBuild_Homepage1.1" transform="translate(-750.000000, -2678.000000)">
            <g id="Group-26" transform="translate(750.000000, 2678.000000)">
                <rect id="Rectangle" fill="#83F5FF" x="31" y="26" width="13" height="9"></rect>
                <circle id="Oval" fill="#83F5FF" cx="14" cy="25" r="4"></circle>
                <path d="M10,36.5 L10,36.5 L10,33.5 C10,31.0147186 12.0147186,29 14.5,29 C16.9852814,29 19,31.0147186 19,33.5 L19,36.5 L19,36.5" id="Path" fill="#83F5FF"></path>
                <g id="smart-id" fill="#3269D6" fill-rule="nonzero">
                    <path d="M16.7990625,36.5330625 L10.6959375,36.5330625 C10.3075313,36.5330625 9.9928125,36.8477812 9.9928125,37.2361875 C9.9928125,37.6245938 10.3075313,37.9393125 10.6959375,37.9393125 L16.7990625,37.9393125 C17.769375,37.9393125 18.55875,37.1498438 18.55875,36.1795312 L18.55875,32.3620312 C18.55875,30.6640312 17.6187187,29.1275625 16.1789063,28.3294687 C16.9004062,27.3565312 17.3025,26.1673125 17.3025,24.9417187 C17.3025,21.8090625 14.7538125,19.2604687 11.6211562,19.2604687 C8.4885,19.2604687 5.93990625,21.8090625 5.93990625,24.9417187 C5.93990625,26.1672187 6.342,27.3564375 7.0635,28.3294687 C5.6236875,29.1275625 4.6835625,30.664125 4.6835625,32.3620312 L4.6835625,36.1795312 C4.6835625,37.1498438 5.47303125,37.9393125 6.44334375,37.9393125 L7.88428125,37.9393125 C8.2726875,37.9393125 8.58740625,37.6245938 8.58740625,37.2361875 C8.58740625,36.8477812 8.2726875,36.5330625 7.88428125,36.5330625 L6.4434375,36.5330625 C6.24853125,36.5330625 6.08990625,36.3745313 6.08990625,36.1795312 L6.08990625,32.3620312 C6.08990625,31.049625 6.89775,29.875875 8.09278125,29.39325 C9.09525,30.1889062 10.3320937,30.6239062 11.6211562,30.6239062 C12.910125,30.6239062 14.146875,30.1889062 15.1495312,29.39325 C16.3445625,29.875875 17.1524062,31.049625 17.1524062,32.3620312 L17.1524062,36.1795312 C17.1525,36.3745312 16.9939687,36.5330625 16.7990625,36.5330625 Z M7.34625,24.9418125 C7.34625,22.5845625 9.264,20.6668125 11.62125,20.6668125 C13.9785938,20.6668125 15.8963437,22.5845625 15.8963437,24.9418125 C15.8963437,27.2749687 14.0070937,29.21775 11.62125,29.21775 C9.2319375,29.21775 7.34625,27.2713125 7.34625,24.9418125 Z" id="Shape"></path>
                    <path d="M29.7445313,34.1519062 L40.2121875,34.1519062 C41.3693437,34.1519062 42.3106875,33.2105625 42.3106875,32.0534062 L42.3106875,25.1468437 C42.3106875,23.9896875 41.3693437,23.0483437 40.2121875,23.0483437 L29.7445313,23.0483437 C28.587375,23.0483437 27.6460313,23.9896875 27.6460313,25.1468437 L27.6460313,32.0534062 C27.6460313,33.2105625 28.5874687,34.1519062 29.7445313,34.1519062 Z M40.2122813,32.7456562 L35.6815312,32.7456562 L35.6815312,29.5670625 C35.6815312,29.4215625 35.7999375,29.3033437 35.9453437,29.3033437 L40.9044375,29.3033437 L40.9044375,32.0535 C40.9044375,32.4350625 40.5939375,32.7456562 40.2122813,32.7456562 L40.2122813,32.7456562 Z M40.9044375,25.1468437 L40.9044375,27.897 L35.9453438,27.897 C35.0244375,27.897 34.2752812,28.6461562 34.2752812,29.5669687 L34.2752812,32.7455625 L32.0663438,32.7455625 L32.0663438,31.58625 C32.0663438,31.1978438 31.751625,30.883125 31.3632187,30.883125 C30.9748125,30.883125 30.6600937,31.1978438 30.6600937,31.58625 L30.6600937,32.7456562 L29.7445312,32.7456562 C29.362875,32.7456562 29.0522812,32.4350625 29.0522812,32.0534062 L29.0522812,28.144875 L31.9925625,28.144875 C32.913375,28.144875 33.6625312,27.3957188 33.6625312,26.4749063 L33.6625312,24.4546875 L36.9810937,24.4546875 L36.9810937,25.59675 C36.9810937,25.9851562 37.2958125,26.299875 37.6842187,26.299875 C38.072625,26.299875 38.3873437,25.9851562 38.3873437,25.59675 L38.3873437,24.4546875 L40.2120938,24.4546875 C40.5939375,24.4545938 40.9044375,24.7651875 40.9044375,25.1468437 L40.9044375,25.1468437 Z M29.7445313,24.4545937 L32.256375,24.4545937 L32.256375,26.4748125 C32.256375,26.6203125 32.1380625,26.7385312 31.9926563,26.7385312 L29.052375,26.7385312 L29.052375,25.14675 C29.052375,24.7651875 29.362875,24.4545937 29.7445313,24.4545937 Z" id="Shape"></path>
                    <path d="M33.1270313,17.1405938 C33.1270313,16.7521875 32.8123125,16.4374688 32.4239063,16.4374688 L15.5760938,16.4374688 C15.1876875,16.4374688 14.8729688,16.7521875 14.8729688,17.1405938 C14.8729688,17.529 15.1876875,17.8437188 15.5760938,17.8437188 L32.424,17.8437188 C32.8123125,17.8437188 33.1270313,17.5289062 33.1270313,17.1405938 Z" id="Path"></path>
                    <path d="M21.5060625,8.6784375 C21.2314688,8.953125 21.2314688,9.39825 21.5060625,9.67284375 C21.78075,9.94734375 22.225875,9.94734375 22.5004687,9.67284375 C22.9009688,9.27234375 23.4334687,9.05165625 23.9999062,9.05165625 C24.5664375,9.05165625 25.0989375,9.27234375 25.4994375,9.67284375 C25.6367812,9.81009375 25.8167812,9.87871875 25.9966875,9.87871875 C26.1765937,9.87871875 26.3565937,9.81009375 26.4939375,9.67284375 C26.7685312,9.39815625 26.7685312,8.95303125 26.4939375,8.6784375 C25.118625,7.30321875 22.8812812,7.30340625 21.5060625,8.6784375 L21.5060625,8.6784375 Z" id="Path"></path>
                    <path d="M28.44525,7.43034375 C28.6251563,7.43034375 28.8051563,7.36171875 28.9424063,7.22446875 C29.2170938,6.949875 29.2170938,6.50465625 28.9425,6.23015625 C27.6223125,4.90978125 25.8670313,4.18275 24,4.18275 C22.1330625,4.18275 20.3776875,4.90978125 19.0575,6.22996875 C18.7829062,6.50465625 18.7829062,6.94978125 19.0575,7.224375 C19.3321875,7.498875 19.7773125,7.498875 20.0519063,7.224375 C21.1065,6.16978125 22.508625,5.589 24,5.589 C25.491375,5.589 26.8935,6.16978125 27.948,7.22428125 C28.0853438,7.361625 28.26525,7.43034375 28.44525,7.43034375 L28.44525,7.43034375 Z" id="Path"></path>
                    <path d="M17.1171562,4.28953125 C20.9123437,0.49415625 27.08775,0.49415625 30.8829375,4.28953125 C31.0202812,4.42678125 31.2002812,4.49540625 31.3801875,4.49540625 C31.5600937,4.49540625 31.7400937,4.42678125 31.8774375,4.28953125 C32.1520312,4.01484375 32.1520312,3.56971875 31.8774375,3.295125 C27.5339062,-1.04821875 20.4664687,-1.04840625 16.12275,3.295125 C15.8481562,3.5698125 15.8481562,4.0149375 16.12275,4.28953125 C16.3973437,4.5639375 16.8424687,4.5639375 17.1171562,4.28953125 L17.1171562,4.28953125 Z" id="Path"></path>
                    <path d="M44.671875,11.86275 L38.5126875,11.86275 C38.1242813,11.86275 37.8095625,12.1774688 37.8095625,12.565875 C37.8095625,12.9542813 38.1242813,13.269 38.5126875,13.269 L44.671875,13.269 C45.731625,13.269 46.59375,14.131125 46.59375,15.190875 L46.59375,40.134375 C46.59375,41.194125 45.731625,42.05625 44.671875,42.05625 L3.328125,42.05625 C2.268375,42.05625 1.40625,41.194125 1.40625,40.134375 L1.40625,15.190875 C1.40625,14.131125 2.268375,13.269 3.328125,13.269 L35.7013125,13.269 C36.0897188,13.269 36.4044375,12.9542813 36.4044375,12.565875 C36.4044375,12.1774688 36.0897188,11.86275 35.7013125,11.86275 L3.328125,11.86275 C1.49296875,11.86275 0,13.3557188 0,15.190875 L0,40.134375 C0,41.9695313 1.49296875,43.4625 3.328125,43.4625 L44.671875,43.4625 C46.5070312,43.4625 48,41.9695313 48,40.134375 L48,15.190875 C48,13.3557188 46.5070312,11.86275 44.671875,11.86275 Z" id="Path"></path>
                </g>
            </g>
        </g>
    </g>
</svg>