<?xml version="1.0" encoding="utf-8"?>
<!-- Generator: Adobe Illustrator 15.0.0, SVG Export Plug-In . SVG Version: 6.00 Build 0)  -->
<!DOCTYPE svg PUBLIC "-//W3C//DTD SVG 1.1//EN" "http://www.w3.org/Graphics/SVG/1.1/DTD/svg11.dtd">
<svg version="1.1" id="Laag_2" xmlns="http://www.w3.org/2000/svg" xmlns:xlink="http://www.w3.org/1999/xlink" x="0px" y="0px"
	 width="261px" height="59px" viewBox="0 0 261 59" enable-background="new 0 0 261 59" xml:space="preserve">
<g>
	<g>
		<g>
			<defs>
				<polygon id="SVGID_1_" points="0,29.5 29.326,58.824 47.988,40.164 39.99,32.166 29.326,42.828 15.996,29.5 26.66,18.836 
					18.662,10.838 				"/>
			</defs>
			<clipPath id="SVGID_2_">
				<use xlink:href="#SVGID_1_"  overflow="visible"/>
			</clipPath>
			
				<linearGradient id="SVGID_3_" gradientUnits="userSpaceOnUse" x1="-514.2144" y1="-918.9229" x2="-513.6963" y2="-918.9229" gradientTransform="matrix(0 92.6262 -92.6262 0 -85092.3359 47640.5938)">
				<stop  offset="0" style="stop-color:#B5DB32"/>
				<stop  offset="1" style="stop-color:#6E861A"/>
			</linearGradient>
			<rect x="0" y="10.838" clip-path="url(#SVGID_2_)" fill="url(#SVGID_3_)" width="47.986" height="47.986"/>
		</g>
	</g>
	<g>
		<g>
			<defs>
				<polygon id="SVGID_4_" points="21.328,8.172 31.992,18.836 21.328,29.5 29.326,37.496 39.99,26.834 50.652,37.496 58.65,29.5 
					29.326,0.175 				"/>
			</defs>
			<clipPath id="SVGID_5_">
				<use xlink:href="#SVGID_4_"  overflow="visible"/>
			</clipPath>
			
				<linearGradient id="SVGID_6_" gradientUnits="userSpaceOnUse" x1="-513.3359" y1="-917.2109" x2="-512.8179" y2="-917.2109" gradientTransform="matrix(0 72.0426 -72.0426 0 -66038.2813 36982.2305)">
				<stop  offset="0" style="stop-color:#B5DB32"/>
				<stop  offset="1" style="stop-color:#6E861A"/>
			</linearGradient>
			<rect x="21.328" y="0.175" clip-path="url(#SVGID_5_)" fill="url(#SVGID_6_)" width="37.322" height="37.323"/>
		</g>
	</g>
	<path fill="#3F4B53" d="M88.953,36.66c-4.164,0-7.392-3.264-7.392-7.496c0-4.234,3.228-7.463,7.392-7.463
		c2.257,0,4.651,1.25,6.317,3.159l3.193-3.888c-2.395-2.464-6.074-4.026-9.579-4.026c-7.358,0-12.947,5.275-12.947,12.287
		c0,7.045,5.484,12.424,12.738,12.424c3.54,0,7.253-1.699,9.822-4.338l-3.229-3.506C93.535,35.549,91.139,36.66,88.953,36.66
		 M125.743,25.554c0-5.379-3.608-8.434-9.961-8.434h-10.55v24.293h5.484v-6.939h5.588l3.852,6.939h6.212l-5.171-8.018
		C124.146,32.01,125.743,29.302,125.743,25.554 M115.781,29.892h-5.065v-8.226h5.065c3.021,0,4.755,1.354,4.755,4.062
		C120.537,28.504,118.801,29.892,115.781,29.892 M139.314,31.488h11.695v-4.546h-11.695v-5.274h13.016v-4.546h-18.498v24.294h18.879
		v-4.547h-13.396V31.488L139.314,31.488z M158.092,21.77h7.393v19.644h5.484V21.77h7.428v-4.649h-20.305V21.77z M190.301,31.488
		h11.695v-4.546h-11.695v-5.274h13.016v-4.546h-18.498v24.294h18.879v-4.547h-13.395v-5.381H190.301z M222.752,36.66
		c-4.164,0-7.393-3.264-7.393-7.496c0-4.234,3.229-7.463,7.393-7.463c2.258,0,4.65,1.25,6.316,3.159l3.193-3.888
		c-2.396-2.464-6.074-4.026-9.578-4.026c-7.359,0-12.947,5.275-12.947,12.287c0,7.045,5.484,12.424,12.738,12.424
		c3.541,0,7.254-1.699,9.822-4.338l-3.229-3.506C227.334,35.549,224.938,36.66,222.752,36.66 M255.516,17.12v10.135h-11.002V17.12
		h-5.484v24.294h5.484v-9.578h11.002v9.578H261V17.12H255.516z"/>
</g>
</svg>
