<?xml version="1.0" encoding="utf-8"?>
<!-- Generator: Adobe Illustrator 23.0.1, SVG Export Plug-In . SVG Version: 6.00 Build 0)  -->
<svg version="1.1" id="Layer_1" xmlns="http://www.w3.org/2000/svg" xmlns:xlink="http://www.w3.org/1999/xlink" x="0px" y="0px"
	 viewBox="0 0 269 45.9" style="enable-background:new 0 0 269 45.9;" xml:space="preserve">
<style type="text/css">
	.st0{fill:#010101;}
</style>
<path class="st0" d="M3.7,30.8C1.2,27.8,0,24,0,19.2C0,9.7,5.7,2.6,16.4,2.6c2.4,0,4.9,0.3,7.3,0.8L26,3.6l0.3,7.8l-2.1,0.5
	C22.6,5.6,21,5,15.5,5C8.8,5,5,9.9,5,18.4c0,9.7,4.4,14.3,11.8,14.3c2,0.1,3.9-0.2,5.8-0.8V22l-3.8-0.8v-1.7h11.7v1.7L26.9,22v10.5
	c-2.8,1.9-7.2,2.8-11.7,2.8C10,35.3,6.2,33.8,3.7,30.8z"/>
<path class="st0" d="M49.2,35.4l-0.4-4.6c-1.7,2.6-4.5,4.3-7.6,4.5c-4.5,0-6.9-3.1-6.9-8.4V16.1l-3.6-1.9v-0.5L39,11l-0.4,4.5v9.6
	c0,4.7,1.6,6.7,5,6.7c1.9,0,3.7-0.7,5.1-1.9V16.1l-3.6-1.9v-0.5l8.3-2.7L53,15.5v15.9l3.6,1.9v0.5L49.2,35.4z"/>
<path class="st0" d="M58.6,34.5V33l3.3-0.8V5.1l-3.6-1.9V2.7L66.6,0l-0.4,4.4v27.8l3.3,0.8v1.6L58.6,34.5z"/>
<path class="st0" d="M72.5,34.5V33l3.3-0.8V14.7h-4.1l0.3-2.3l3.8-0.4v-1c-0.1-2.9,0.9-5.7,2.8-7.8C80.4,1.1,83.1,0,86,0.1
	c2.5,0,3.7,1,3.7,2.5c-0.1,1.5-1.3,2.8-2.8,2.9h-0.4c-0.1-1.5-1.4-2.6-2.8-2.6c-2.6,0-4.4,2.1-3.8,6.9l0.3,2.3h6.5l-0.3,2.6h-6.2V32
	l5.5,0.8v1.8L72.5,34.5L72.5,34.5z"/>
<path class="st0" d="M123.1,1.4v5.7h-8.8v27.5H108V7.1h-8.8V1.4H123.1z"/>
<path class="st0" d="M132.5,11.1c6.6,0.1,11.9,5.6,11.8,12.2c-0.1,6.6-5.6,11.9-12.2,11.8c-6.5-0.1-11.8-5.5-11.8-12
	c0-6.6,5.4-12,12-12C132.4,11.1,132.5,11.1,132.5,11.1z M132.5,29.3c3.5,0.1,6.4-2.6,6.5-6.1s-2.6-6.4-6.1-6.5s-6.4,2.6-6.5,6.1
	c0,0.1,0,0.2,0,0.2c-0.1,3.3,2.4,6.1,5.7,6.2C132.3,29.3,132.4,29.3,132.5,29.3z"/>
<path class="st0" d="M165.6,34.5v-1.9c-1.8,1.5-4.1,2.4-6.4,2.3c-3.3,0-6.5-1.4-8.7-3.9c-1.9-2.2-3-5.1-2.9-8.1c0-6.8,5-12,11.3-12
	c2.3-0.1,4.6,0.7,6.5,2.1V0.9h6.2v33.6H165.6z M165.4,19.6c-1.3-1.8-3.5-2.8-5.7-2.8c-3.5,0.2-6.1,3.2-5.9,6.7
	c0.2,3.2,2.8,5.7,6,5.9c2.2,0,4.3-1,5.5-2.8L165.4,19.6z"/>
<path class="st0" d="M198.8,34.5h-5.9v-1.9c-1.8,1.5-4.1,2.4-6.4,2.3c-3.3,0-6.5-1.4-8.7-3.9c-1.9-2.2-3-5.1-2.9-8.1
	c0-6.8,5-12,11.3-12c2.4,0,4.8,0.8,6.7,2.3v-1.9h5.9L198.8,34.5L198.8,34.5z M192.6,19.6c-1.3-1.8-3.5-2.8-5.7-2.8
	c-3.5,0.2-6.1,3.2-5.9,6.7c0.2,3.2,2.8,5.7,6,5.9c2.2,0,4.3-1,5.5-2.8L192.6,19.6z"/>
<path class="st0" d="M205.8,45.9l6.4-13.7l-10.3-20.7h6.8l6.7,13.8l6.2-13.8h6.4l-15.8,34.4H205.8z"/>
<g>
	<path d="M234.9,34.6h3.3c1.9,0,2.9,1.2,2.9,2.6c0,1-0.4,1.6-1,2.1c1,0.4,1.7,1.1,1.7,2.5c0,1.8-1.4,2.8-3.4,2.8h-3.5V34.6z
		 M238.2,38.9c1.1,0,1.7-0.7,1.7-1.6c0-0.8-0.6-1.6-1.7-1.6h-2v3.1H238.2z M238.5,43.4c1.3,0,2-0.7,2-1.7c0-1-0.6-1.7-2-1.7h-2.4
		v3.4H238.5z"/>
	<path d="M242.9,41.1c0-2,1.6-3.6,3.5-3.6c2,0,3.4,1.4,3.4,3.9h-5.7c0.1,1.3,1.1,2.2,2.4,2.2c0.9,0,1.6-0.4,2.1-0.8l0.8,0.8
		c-0.6,0.6-1.6,1.1-2.8,1.1C244.4,44.7,242.9,43.1,242.9,41.1z M244.2,40.3h4.3c-0.2-1.2-1.1-1.8-2.1-1.8
		C245.3,38.6,244.5,39.2,244.2,40.3z"/>
	<path d="M250.4,37.6h1.4V36l1.2-0.6v2.1h2.1l-0.3,1.1H253v3.7c0,0.7,0.3,1.1,1,1.1h0.9v1.1h-1.1c-1.3,0-2.1-0.7-2.1-2v-3.9h-1.1
		L250.4,37.6z"/>
	<path d="M261.9,43.9c-0.6,0.5-1.4,0.8-2.2,0.8c-2.1,0-3.6-1.6-3.6-3.6s1.5-3.6,3.6-3.6c0.9,0,1.6,0.3,2.2,0.8v-0.7h1.2v7h-1.2V43.9
		z M261.9,42.4v-2.7c-0.4-0.7-1.2-1.1-2.2-1.1c-1.4,0-2.4,1.1-2.4,2.5s1,2.5,2.4,2.5C260.7,43.6,261.5,43.1,261.9,42.4z"/>
</g>
</svg>
