<svg xmlns="http://www.w3.org/2000/svg" width="108" height="36"><path fill="none" d="M0 0h78.6v35.6H0z"/><path fill="#FF9100" d="M0 36v-3.73l11.22-15.05H.34V13.6h15.72v3.72L4.84 32.37H16.4V36H0zm31.8-22.4h-4.67L18.93 36h4.26l1.78-5.28h8.97L35.73 36H40l-8.2-22.4zm-5.65 13.58l3.33-9.82 3.3 9.82h-6.63zm35.1 2L65 13.57h4.25L63.23 36H59.3l-4.57-17.8L49.75 36h-3.93l-5.7-22.4h4.23l3.45 15.57 4.58-15.58h4.67l4.2 15.57zm20.53-2.03L81.6 36h-4.2v-8.85L70.36 13.6h4.44l4.7 9.85 5.07-9.86H89l-7.2 13.55zM99.8 13.6h-4.67L86.93 36h4.27l1.78-5.28h8.97l1.78 5.28H108l-8.2-22.4zm-5.64 13.58l3.32-9.82 3.3 9.82h-6.62zm9.9-13.6V14h-.6v1.74h-.48V14h-.6v-.4h1.67zm.8.9v1.26h-.47V13.6h.52l.58 1.33.6-1.34h.52v2.14h-.46v-1.27l-.4.94h-.5l-.4-.93z"/><path fill="#666" d="M2.98 1.24V6.1h-1.3V1.23H0V.1h4.64v1.14H2.98zM5.88.1h1.3v2.4h2.4V.1h1.3v6h-1.3V3.64h-2.4V6.1h-1.3v-6zm9-.1c1.94 0 2.86 1.32 2.86 3.1 0 1.77-.92 3.1-2.86 3.1-1.93 0-2.86-1.33-2.86-3.1 0-1.78.93-3.1 2.86-3.1zm1.55 3.1c0-1.17-.45-2-1.55-2s-1.55.83-1.55 2c0 1.16.46 1.98 1.55 1.98 1.1 0 1.55-.82 1.55-1.98zm2.47-3h1.3l1.87 3.95L23.94.1h1.3v6h-1.26V2.66L22.7 5.33h-1.26l-1.28-2.66V6.1H18.9v-6zm9.76 6.1c-.7 0-1.52-.2-2.15-.45l.3-1.05c.6.25 1.28.42 1.85.42.66 0 1.07-.17 1.07-.65 0-.46-.3-.6-1.2-.8-1.3-.25-2.03-.7-2.03-1.83 0-1.4.93-1.84 2.26-1.84.82 0 1.44.15 2.05.42l-.22 1.04c-.5-.22-1.17-.4-1.8-.4-.66 0-.98.14-.98.64 0 .45.3.54 1.25.77 1.28.3 1.98.68 1.98 1.85 0 1.18-.86 1.87-2.37 1.87zM34.74 0c1.94 0 2.86 1.32 2.86 3.1 0 1.77-.92 3.1-2.86 3.1s-2.86-1.33-2.86-3.1c0-1.78.92-3.1 2.86-3.1zm1.55 3.1c0-1.17-.47-2-1.56-2s-1.55.83-1.55 2c0 1.16.45 1.98 1.54 1.98s1.55-.82 1.55-1.98zm2.4-3H40l2.65 3.8V.1h1.28v6h-1.3l-2.66-3.82v3.8H38.7V.12zm13.15 3.7l1.57 2.3h-1.64l-1.34-2.13h-.95V6.1h-1.32v-6h2.85c1.26 0 2.02.77 2.02 1.94 0 .82-.46 1.5-1.2 1.77zm-1.02-2.64H49.5v1.77h1.33c.54 0 .9-.3.9-.9 0-.56-.36-.87-.9-.87zM54.4.1h4.1v1.14h-2.8v1.22h2.62V3.6H55.7v1.35h2.8v1.13h-4.1V.12zm10.4 3.7c0 1.3-.83 2.4-2.52 2.4-1.7 0-2.52-1.1-2.52-2.4V.1h1.3v3.8c0 .78.48 1.2 1.22 1.2.73 0 1.2-.42 1.2-1.2V.1h1.32v3.7zm4.05-2.56V6.1h-1.3V1.23h-1.68V.1h4.63v1.14h-1.66zM71.7.1h4.12v1.14h-2.8v1.22h2.62V3.6h-2.62v1.35h2.8v1.13h-4.1V.12zm9.02 3.7l1.57 2.3h-1.65l-1.33-2.13h-.95V6.1h-1.3v-6h2.84c1.26 0 2.02.77 2.02 1.94 0 .82-.46 1.5-1.2 1.77zM79.7 1.17h-1.33v1.77h1.33c.54 0 .9-.3.9-.9.02-.56-.36-.87-.9-.87zm5.5 5.03c-.7 0-1.53-.2-2.16-.45l.28-1.05c.6.25 1.3.42 1.86.42.66 0 1.07-.17 1.07-.65 0-.46-.3-.6-1.2-.8-1.3-.25-2.03-.7-2.03-1.83 0-1.4.95-1.84 2.27-1.84.8 0 1.43.15 2.04.42l-.23 1.04c-.5-.22-1.16-.4-1.8-.4-.64 0-.97.14-.97.64 0 .45.3.54 1.25.77 1.28.3 1.98.68 1.98 1.85 0 1.18-.86 1.87-2.37 1.87z"/></svg>