<svg xmlns="http://www.w3.org/2000/svg" width="21" height="21" viewBox="0 0 21 21">
    <g fill="none" fill-rule="evenodd" transform="translate(1.426 1.445)">
        <circle cx="9.494" cy="9.494" r="9.494" fill="#FFF" stroke="#000" stroke-width="1.14"/>
        <path fill-rule="nonzero" d="M11.891 4.702L10.648 4.7c-1.397 0-2.3.926-2.3 2.36v1.088h-1.25a.196.196 0 0 0-.196.195V9.92c0 .108.088.195.196.195h1.25v3.978c0 .108.088.196.196.196h1.63a.196.196 0 0 0 .196-.196v-3.978h1.462a.195.195 0 0 0 .195-.195l.001-1.577a.196.196 0 0 0-.196-.195H10.37v-.922c0-.444.106-.669.683-.669h.838a.195.195 0 0 0 .195-.196V4.898a.196.196 0 0 0-.195-.196z"/>
    </g>
</svg>
