<svg xmlns="http://www.w3.org/2000/svg" width="21" height="21" viewBox="0 0 21 21">
    <g fill="none" fill-rule="evenodd" transform="translate(.92 1.052)">
        <circle cx="9.494" cy="9.494" r="9.494" fill="#FFF" stroke="#000" stroke-width="1.14"/>
        <g  fill-rule="nonzero">
            <path d="M11.36 9.408a1.951 1.951 0 1 1-3.903 0 1.951 1.951 0 0 1 3.902 0z"/>
            <path d="M13.972 5.955a1.814 1.814 0 0 0-.438-.673 1.813 1.813 0 0 0-.673-.438c-.207-.08-.517-.175-1.087-.201-.618-.028-.803-.034-2.366-.034-1.563 0-1.748.005-2.366.034-.57.026-.88.121-1.087.201a1.811 1.811 0 0 0-.673.438 1.815 1.815 0 0 0-.438.673c-.08.207-.175.517-.201 1.087-.029.618-.035.803-.035 2.366 0 1.563.006 1.748.035 2.366.026.57.121.88.201 1.087.094.254.244.484.438.673.189.194.419.344.673.438.206.08.516.175 1.087.201.618.029.803.034 2.366.034 1.563 0 1.748-.005 2.365-.034.571-.026.881-.12 1.088-.201.51-.197.914-.6 1.11-1.111.08-.207.176-.516.202-1.087.028-.618.034-.803.034-2.366 0-1.563-.006-1.748-.034-2.366-.026-.57-.121-.88-.201-1.087zm-4.564 6.46a3.006 3.006 0 1 1 0-6.013 3.006 3.006 0 0 1 0 6.012zm3.125-5.43a.703.703 0 1 1 0-1.405.703.703 0 0 1 0 1.405z"/>
        </g>
    </g>
</svg>
