<svg xmlns="http://www.w3.org/2000/svg" width="21" height="21" viewBox="0 0 21 21">
    <g fill="none" fill-rule="evenodd" transform="translate(.673 1.445)">
        <circle cx="9.494" cy="9.494" r="9.494"  stroke="#000" stroke-width="1.14"/>
        <g  fill-rule="nonzero">
            <path d="M5.452 13.347h1.11a.277.277 0 0 0 .277-.277V8.219a.277.277 0 0 0-.278-.278h-1.11a.277.277 0 0 0-.277.278v4.851c0 .153.124.277.278.277zM5.452 7.089h1.11a.277.277 0 0 0 .277-.278v-.985a.277.277 0 0 0-.278-.278h-1.11a.277.277 0 0 0-.277.278v.985c0 .153.124.278.278.278zM13.294 8.504c-.156-.205-.386-.374-.69-.506a2.498 2.498 0 0 0-1.007-.199c-.745 0-1.377.285-1.895.854-.103.113-.178.088-.178-.065v-.37a.277.277 0 0 0-.277-.277h-.991a.277.277 0 0 0-.278.278v4.851c0 .153.124.277.278.277h1.11a.277.277 0 0 0 .277-.277v-1.687c0-.703.042-1.185.127-1.445.085-.261.242-.47.47-.628.23-.158.489-.237.777-.237a.99.99 0 0 1 .577.166c.16.11.276.265.347.465.071.2.107.638.107 1.318v2.048c0 .153.124.277.277.277h1.11a.277.277 0 0 0 .277-.277v-2.747c0-.486-.03-.86-.092-1.12a1.833 1.833 0 0 0-.326-.699z"/>
        </g>
    </g>
</svg>
