<svg xmlns="http://www.w3.org/2000/svg" width="22" height="21" viewBox="0 0 22 21">
    <g fill="none" fill-rule="evenodd" transform="translate(1.55 1.35)">
        <circle cx="9.494" cy="9.494" r="9.494" fill="#FFF" stroke="#000" stroke-width="1.14"/>
        <path fill-rule="nonzero" d="M13.814 6.815c-.321.141-.663.235-1.02.28.367-.22.647-.564.779-.979a3.54 3.54 0 0 1-1.123.429 1.77 1.77 0 0 0-3.064 1.211c0 .14.012.275.04.404a5.014 5.014 0 0 1-3.65-1.853 1.774 1.774 0 0 0 .544 2.367 1.75 1.75 0 0 1-.8-.218v.02c0 .86.614 1.576 1.42 1.74-.145.04-.302.059-.465.059-.114 0-.228-.007-.336-.03.23.7.881 1.217 1.655 1.233a3.56 3.56 0 0 1-2.62.731 4.987 4.987 0 0 0 2.718.795c3.26 0 5.041-2.7 5.041-5.04 0-.078-.003-.154-.006-.229.351-.25.647-.561.887-.92z"/>
    </g>
</svg>
