<svg xmlns="http://www.w3.org/2000/svg" width="21" height="21" viewBox="0 0 21 21">
    <g fill="none" fill-rule="evenodd" transform="translate(.796 1.052)">
        <circle cx="9.494" cy="9.494" r="9.494" fill="#FFF" stroke="#000" stroke-width="1.14"/>
        <path fill-rule="nonzero" d="M14.276 6.356c-.307-.546-.64-.646-1.317-.685-.678-.046-2.38-.065-3.856-.065-1.478 0-3.182.02-3.858.065-.677.039-1.01.138-1.32.685-.316.545-.479 1.483-.479 3.136v.006c0 1.646.163 2.591.479 3.13.31.547.643.645 1.319.691.677.04 2.38.063 3.859.063 1.475 0 3.178-.023 3.856-.062.678-.046 1.011-.145 1.318-.69.319-.54.48-1.486.48-3.131v-.004-.002c0-1.654-.161-2.592-.48-3.137zm-6.588 5.26V7.373l3.534 2.12-3.534 2.121z"/>
    </g>
</svg>
