<svg xmlns="http://www.w3.org/2000/svg" xmlns:xlink="http://www.w3.org/1999/xlink" width="950" height="460" viewBox="0 0 950 460">
  <defs>
    <path id="404-svg-a" d="M21.7651594,19.2188417 C23.3162788,17.5564487 24.0918385,15.9183445 24.0918385,14.3045291 C24.0918385,9.73074456 20.3840535,6.02295961 15.810269,6.02295961 C11.2364845,6.02295961 7.52869952,9.73074456 7.52869952,14.3045291 C7.52869952,15.5832106 8.01271411,16.8771405 8.98074329,18.1863188 C10.3211111,19.9990539 20.3855488,20.6974225 21.7651594,19.2188417 Z"/>
    <mask id="404-svg-b" width="16.563" height="13.997" x="0" y="0" fill="#fff" maskContentUnits="userSpaceOnUse" maskUnits="objectBoundingBox">
      <use xlink:href="#404-svg-a"/>
    </mask>
  </defs>
  <g fill="none" fill-rule="evenodd" transform="translate(.011)">
    <g transform="translate(0 234.865)">
      <path fill="#D6D7F5" d="M81.3850615,222.855648 C72.5402206,221.544195 64.9799592,218.110879 60.9425313,214.967839 C56.9051034,211.824799 55.5439048,204.371378 51.5047499,200.664289 C47.465595,196.957201 39.327595,196.957201 32.6469854,189.076361 C25.9663758,181.195522 32.6469854,175.630656 26.7698637,165.327517 C20.8927421,155.024379 13.8864349,157.753245 8.95311875,147.137488 C4.01980262,136.52173 13.2055595,133.77659 7.37564945,123.023446 C1.5457394,112.270302 -3.51922045,96.9699991 3.19996196,92.7030166 C9.91914436,88.4360341 19.9296036,93.8984472 26.7698637,107.362112 C33.6101239,120.825778 40.8171076,118.564932 43.1874315,117.246911 C45.5577554,115.928891 47.7888157,107.362112 41.2205725,99.2359969 C34.6523294,91.1098813 26.7698637,86.0656703 26.7698637,71.8624949 C26.7698637,57.6593194 32.4722881,55.5224756 33.555253,47.3332676 C34.6382179,39.1440597 30.1648098,28.5872045 32.009726,15.8443445 C33.8546422,3.10148442 51.0805026,-12.7796777 66.0074771,16.86732 C80.9344516,46.5143177 88.1216227,36.4429254 93.9985771,55.8239652 C99.8755315,75.2050051 89.1426438,85.686804 93.9985771,103.564484 C98.8545104,121.442164 107.360792,115.855664 111.202775,146.150071 C113.764098,166.346342 114.501595,192.191247 113.415268,223.684785 C97.9583575,224.006329 87.2816221,223.72995 81.3850615,222.855648 Z"/>
      <polyline stroke="#D2D4F5" stroke-linecap="round" stroke-linejoin="round" stroke-width=".764" points="53.325 224.46 48.015 224.46 140.979 224.61 145.75 224.61"/>
      <polyline stroke="#D2D4F5" stroke-linecap="round" stroke-linejoin="round" stroke-width=".764" points="31.111 224.46 30.676 224.46 38.288 224.61 38.678 224.61"/>
      <path stroke="#FFF" stroke-linecap="round" stroke-linejoin="round" stroke-width=".764" d="M91.755098,223.179241 C72.0712573,203.635381 56.7794458,185.688615 45.8796636,169.338941 C34.9798813,152.989268 22.0158086,128.33863 6.98744536,95.3870282"/>
      <path stroke="#FFF" stroke-linecap="round" stroke-linejoin="round" stroke-width=".764" d="M63.2801067 193.007457C56.6023916 191.967672 51.581536 191.280747 48.2175401 190.946681 44.8535442 190.612616 40.538215 190.372401 35.2715525 190.226036M41.6894164 163.231024C37.5216665 162.432298 33.8400466 161.469758 30.6445568 160.343404 27.4490669 159.217051 23.0419375 157.333104 17.4231684 154.691563M30.0755626 142.539887C28.7636517 136.535548 28.1076963 130.797829 28.1076963 125.326731 28.1076963 119.855632 28.3430094 116.288189 28.8136357 114.6244M13.2473777 112.00365C10.6998588 111.103261 8.76466614 110.419291 7.44179982 109.95174 6.11893349 109.484189 4.18374087 108.800218 1.63622197 107.899829M100.337382 222.208552C88.8149354 188.35589 79.6062861 158.367767 72.7114344 132.244184 65.8165827 106.120601 55.6444626 62.6727756 42.1950741 1.90070825"/>
      <path stroke="#FFF" stroke-linecap="round" stroke-linejoin="round" stroke-width=".764" d="M59.8952646 79.7537577C52.4087117 75.8976538 46.724006 73.1814682 42.8411476 71.6052009 38.9582893 70.0289336 33.9812116 68.4169108 27.9099146 66.7691323M50.4836678 39.1374829C46.7101652 33.7225637 43.778748 29.8561707 41.6894164 27.5383037 39.6000848 25.2204367 36.4672688 22.3592784 32.2909685 18.9548289M56.4114768 62.5744993C59.0429947 53.6683851 61.1536457 47.0987993 62.74343 42.8657417 64.3332143 38.6326841 65.359657 36.2686979 65.8227582 35.7737831"/>
      <line x1="61.825" x2="75.577" y1="45.484" y2="40.163" stroke="#FFF" stroke-linecap="round" stroke-linejoin="round" stroke-width=".764"/>
      <polyline stroke="#FFF" stroke-linecap="round" stroke-linejoin="round" stroke-width=".764" points="82.032 164.927 64.321 158.073 55.585 154.692"/>
      <line x1="73.748" x2="92.028" y1="135.099" y2="107.9" stroke="#FFF" stroke-linecap="round" stroke-linejoin="round" stroke-width=".764"/>
      <line x1="84.588" x2="85.623" y1="118.558" y2="96.344" stroke="#FFF" stroke-linecap="round" stroke-linejoin="round" stroke-width=".764"/>
      <line x1="63.671" x2="85.623" y1="95.387" y2="71.075" stroke="#FFF" stroke-linecap="round" stroke-linejoin="round" stroke-width=".764"/>
      <line x1="63.28" x2="50.484" y1="157.022" y2="133.097" stroke="#FFF" stroke-linecap="round" stroke-linejoin="round" stroke-width=".764"/>
    </g>
    <g transform="translate(754.52 206.541)">
      <g transform="translate(9)">
        <path fill="#FFEAEF" d="M12.6933306,181.564037 C31.6474913,182.515766 49.968096,175.195263 53.8285702,151.20948 C57.6890444,127.223697 51.7076624,126.067973 58.2240216,111.101493 C64.7403807,96.1350132 75.1912106,90.8505821 75.9601559,75.5986286 C76.7291011,60.3466752 70.6841745,59.3652896 67.7610596,45.3115714 C64.8379447,31.2578532 80.6938568,6.52267096 60.2418417,0.778917257 C39.7898266,-4.96483644 36.1629343,22.6885297 25.949482,30.3248594 C19.1405139,35.4157459 12.64208,37.4843591 6.45418044,36.5306989 L3.08807791,136.130417 L3.08807791,154.993877 C-3.14452745,172.072831 0.0572234539,180.929551 12.6933306,181.564037 Z"/>
        <path stroke="#FFF" stroke-linecap="round" stroke-linejoin="round" stroke-width="1.092" d="M7.32625492 180.374855C17.7034422 159.941601 25.6341074 138.99298 31.1182507 117.528992 39.3444657 85.3330085 48.2935726 52.2083305 50.8524624 35.7455736 52.558389 24.7704023 54.5577989 13.2997913 56.8506921 1.33374068M14.964567 164.67556C30.7452483 154.11347 40.5849384 148.150349 44.4836371 146.786198M35.8199988 100.681922C49.1133418 87.7500247 62.1064635 81.2840762 74.7993637 81.2840762M44.4836371 66.6211726C38.5785445 49.0996494 31.3997852 38.1478369 22.9473591 33.7657349M50.5345375 38.7433621C55.3958175 35.7545799 58.9861807 33.6168853 61.3056271 32.3302781 63.6250734 31.043671 66.390258 29.6559152 69.6011807 28.1670108"/>
        <path stroke="#FFF" stroke-linecap="round" stroke-linejoin="round" stroke-width="1.092" d="M26.7598804,133.052317 C23.6793933,126.321817 21.1190392,121.41741 19.0788179,118.339097 C17.0385967,115.260785 13.8044651,111.422394 9.37642324,106.823926"/>
      </g>
      <path fill="#D6D7F5" d="M52.4896139,217.458001 C60.7820053,219.831414 67.6111406,216.848955 72.9770197,208.510623 C81.0258384,196.003126 86.6689493,199.464316 95.1578365,187.844461 C103.646724,176.224606 95.1262195,173.878882 102.774305,160.765192 C110.422391,147.651502 117.316138,148.949229 122.311086,140.560636 C127.306034,132.172044 124.145728,127.283531 125.952397,116.396441 C127.759066,105.509351 140.078255,92.0034705 127.306034,87.6043627 C114.533814,83.2052548 114.533814,92.0034705 105.882545,101.191222 C97.2312755,110.378973 91.1940676,108.766561 84.8659442,119.250165 C78.5378207,129.733769 85.5820657,132.467744 78.7787358,142.543549 C71.975406,152.619353 64.7695073,150.139024 57.4270411,160.72797 C50.084575,171.316916 55.8645917,175.042439 48.4651921,184.687566 C41.0657924,194.332693 34.418709,193.061386 30.8054946,196.003126 C28.396685,197.964287 26.9077297,201.192138 26.3386288,205.68668 L48.1735312,217.458001 L52.4896139,217.458001 Z" transform="rotate(30 79.686 152.342)"/>
      <path stroke="#FFF" stroke-linecap="round" stroke-linejoin="round" stroke-width=".764" d="M18.5450161,185.102798 C46.4916894,177.905135 68.2431386,170.509812 83.7993637,162.916828 C99.3555887,155.323845 122.281631,140.912113 152.577491,119.681632"/>
      <line x1="109.418" x2="119.577" y1="148.381" y2="129.496" stroke="#FFF" stroke-linecap="round" stroke-linejoin="round" stroke-width=".764"/>
      <line x1="41.284" x2="66.242" y1="179.208" y2="186.364" stroke="#FFF" stroke-linecap="round" stroke-linejoin="round" stroke-width=".764"/>
      <line x1="68.492" x2="79.686" y1="169.721" y2="150.773" stroke="#FFF" stroke-linecap="round" stroke-linejoin="round" stroke-width=".764"/>
      <line x1="98.712" x2="120.743" y1="155.474" y2="155.474" stroke="#FFF" stroke-linecap="round" stroke-linejoin="round" stroke-width=".764"/>
    </g>
    <g transform="translate(78.989)">
      <rect width="689.345" height="459.345" x=".425" y=".328" fill="#F6F2FF" stroke="#F6F2FF" stroke-width=".655" rx="13.104"/>
      <rect width="462.541" height="16" x="97" y="11" fill="#FFF" opacity=".7" rx="8"/>
      <g transform="translate(22 13)">
        <circle cx="5.238" cy="5.238" r="5.238" fill="#ED6A5E"/>
        <circle cx="22.261" cy="5.615" r="5.238" fill="#F5C450"/>
        <circle cx="39.285" cy="5.615" r="5.238" fill="#61C755"/>
      </g>
      <path fill="#FFF" d="M5,38 L685,38 L685,444 C685,450.075132 680.075132,455 674,455 L145.024645,455 L145.024645,455 L16,455 C9.92486775,455 5,450.075132 5,444 L5,38 L5,38 Z"/>
    </g>
    <g transform="translate(734.989 237)">
      <g transform="translate(115 162)">
        <path fill="#FFC64D" stroke="#233750" stroke-width=".616" d="M37.3819151,37.582445 L37.3819151,59.5521313 L80.6695846,59.5521313 C82.2015426,59.5521313 83.4434399,58.310234 83.4434399,56.778276 L83.4434399,37.582445 L37.3819151,37.582445 Z"/>
        <path fill="#FEFCFF" d="M80.7401662,38.0271088 L82.998776,38.0271088 L82.998776,56.6940613 C82.8603688,57.2564765 82.5814572,57.7527164 82.1620415,58.1827808 C81.7426257,58.6128453 81.2686673,58.8889461 80.7401662,59.0110832 L80.7401662,38.0271088 Z"/>
        <path fill="#B18D25" d="M37.8265789,38.0271088 L82.998776,38.0271088 L82.998776,40.2857186 L71.3882556,40.2857186 L72.287069,41.0385886 C71.310124,41.040401 70.61443,40.9982414 70.1999869,40.9121097 C69.7855438,40.8259779 69.3158393,40.6171809 68.7908734,40.2857186 L50.1233161,40.2857186 L51.2067104,41.0385886 C50.2176308,41.0390502 49.5219367,40.9968906 49.1196282,40.9121097 C48.7173197,40.8273288 48.2221562,40.6185317 47.6341376,40.2857186 L39.6653283,40.2857186 L39.6653283,59.1074674 L37.8102793,59.1074674 L37.8265789,38.0271088 Z" opacity=".3" style="mix-blend-mode:multiply"/>
        <path fill="#E2A602" d="M19.0048301,37.2742388 L37.8265789,37.2742388 L37.8265789,59.8603374 L22.0868915,59.8603374 C20.384716,59.8603374 19.0048301,58.4804515 19.0048301,56.778276 L19.0048301,37.2742388 L19.0048301,37.2742388 Z"/>
        <path fill="#FEFCFF" d="M19.7577001,38.0271088 L22.0163099,38.0271088 L22.0163099,59.1074674 C20.7689142,59.1074674 19.7577001,58.0962534 19.7577001,56.8488576 L19.7577001,38.0271088 L19.7577001,38.0271088 Z"/>
        <rect width="17.316" height="2.259" x="19.758" y="38.027" fill="#B48317" opacity=".7"/>
        <path stroke="#233750" stroke-width=".616" d="M19.3130363,37.582445 L19.3130363,56.778276 C19.3130363,58.310234 20.5549336,59.5521313 22.0868915,59.5521313 L37.5183728,59.5521313 L37.5183728,37.582445 L19.3130363,37.582445 Z"/>
        <path fill="#E2A602" d="M7.49930375,7.1638524 L18.0431372,30.3098726 C16.597413,30.9168348 15.0157673,31.2512792 13.3583055,31.2512792 C6.49762871,31.2512792 0.935951286,25.5210661 0.935951286,18.45249 C0.935951286,13.5668566 3.59290315,9.32059245 7.49930375,7.1638524 Z"/>
        <path fill="#FEFCFF" d="M16.8650043,30.2720758 L7.51864829,11.3941239 C7.0021654,10.7591093 6.42594194,10.6309679 5.78997789,11.0096999 C5.15401384,11.3884318 4.98457945,11.9450794 5.28167473,12.6796427 L13.768357,30.9027991 L13.0658975,30.9027991 L5.28167473,15.9330708 C4.54481141,15.3202654 3.78726408,15.5872028 3.00903272,16.7338833 C2.23080137,17.8805637 1.7690669,19.4101698 1.62382933,21.3227016 L1.14741281,18.5508182 L2.3050428,13.0559572 L5.28167473,9.07266934 L7.25452942,7.91231072 L17.4990902,30.2254817 L16.8650043,30.2720758 Z"/>
        <path stroke="#233750" stroke-width=".616" d="M7.35874157,7.59876016 C3.615496,9.80205424 1.24415742,13.9105546 1.24415742,18.45249 C1.24415742,25.3528736 6.66993928,30.9430731 13.3583055,30.9430731 C14.8362277,30.9430731 16.2769117,30.6702135 17.6292382,30.1447463 L7.35874157,7.59876016 Z"/>
        <polygon fill="#EBAF3C" points="7.504 7.163 54.187 7.163 64.542 30.272 17.864 30.272"/>
        <path fill="#D1980A" stroke="#233750" stroke-width=".616" d="M54.0366786,7.59876016 C50.293433,9.80205424 47.9220944,13.9105546 47.9220944,18.45249 C47.9220944,25.3528736 53.3478763,30.9430731 60.0362425,30.9430731 C61.5141647,30.9430731 62.9548487,30.6702135 64.3071752,30.1447463 L54.0366786,7.59876016 Z"/>
        <g transform="rotate(-45 53.405 -62.675)">
          <polygon fill="#FEFCFF" fill-rule="nonzero" stroke="#233750" stroke-width=".616" points="6.163 7.03 9.833 7.03 9.833 25.852 6.163 25.852" transform="rotate(-135 7.998 16.44)"/>
          <polygon fill="#A08BE1" fill-rule="nonzero" points="7.345 8.308 9.121 8.308 9.121 25.853 7.345 25.853" transform="rotate(-135 8.233 17.08)"/>
          <path fill="#D8D5E2" fill-rule="nonzero" d="M25.0009761,10.0690191 C24.4861485,9.55419148 23.6741331,9.41664213 22.9871994,9.80550702 L22.0982105,8.91651811 C21.7371265,8.55543412 21.6735015,8.01662011 21.8937159,7.59265642 C22.0217791,7.34608397 21.9773974,7.04544039 21.7808984,6.84894131 C21.2219601,6.29000309 20.1534795,5.22152244 19.1279576,4.19600055 C17.4548696,2.52291258 15.3157401,1.39392377 12.9903429,0.956543936 L7.94458553,0.00765668802 C7.63086459,-0.0513607922 7.464789,0.364810693 7.73284084,0.538068669 L12.2725793,3.47159655 C13.5902072,4.32304737 13.8604273,6.13822449 12.8478472,7.33653005 L12.0947137,8.22782274 C11.8801232,8.48178085 11.8959109,8.85777166 12.1309644,9.09289297 L15.2995458,12.2614744 C15.5402911,12.5022196 15.927462,12.5121801 16.1802682,12.2841057 L17.0567896,11.4932985 C18.0118429,10.7003909 19.4136266,10.7653034 20.2912999,11.6430444 L20.720481,12.0722255 L20.720481,12.0722255 C20.3316161,12.7591591 20.4692332,13.5711746 20.983993,14.0860022 L22.2772279,15.3792371 C22.5170923,15.6191015 22.906025,15.6191015 23.1458893,15.3792371 L26.2941433,12.2309832 C26.5340077,11.9911188 26.5340077,11.6021861 26.2941433,11.3623217 L25.0009761,10.0690191 Z"/>
          <path fill="#D8D5E2" fill-rule="nonzero" d="M25.0009761,10.0690191 C24.4861485,9.55419148 23.6741331,9.41664213 22.9871994,9.80550702 L22.0982105,8.91651811 C21.7371265,8.55543412 21.6735015,8.01662011 21.8937159,7.59265642 C22.0217791,7.34608397 21.9773974,7.04544039 21.7808984,6.84894131 C21.2219601,6.29000309 20.1534795,5.22152244 19.1279576,4.19600055 C17.4548696,2.52291258 15.3157401,1.39392377 12.9903429,0.956543936 L7.94458553,0.00765668802 C7.63086459,-0.0513607922 7.464789,0.364810693 7.73284084,0.538068669 L12.2725793,3.47159655 C13.5902072,4.32304737 13.8604273,6.13822449 12.8478472,7.33653005 L12.0947137,8.22782274 C11.8801232,8.48178085 11.8959109,8.85777166 12.1309644,9.09289297 L15.2995458,12.2614744 C15.5402911,12.5022196 15.927462,12.5121801 16.1802682,12.2841057 L17.0567896,11.4932985 C18.0118429,10.7003909 19.4136266,10.7653034 20.2912999,11.6430444 L20.720481,12.0722255 L20.720481,12.0722255 C20.3316161,12.7591591 20.4692332,13.5711746 20.983993,14.0860022 L22.2772279,15.3792371 C22.5170923,15.6191015 22.906025,15.6191015 23.1458893,15.3792371 L26.2941433,12.2309832 C26.5340077,11.9911188 26.5340077,11.6021861 26.2941433,11.3623217 L25.0009761,10.0690191 Z"/>
          <path fill="#FEFCFF" d="M7.96856315,0.376434976 C12.3809705,1.98157861 15.1225289,3.24324944 16.1932383,4.16144745 C17.2639477,5.07964547 19.2819726,7.09767037 22.247313,10.2155222 L22.7719976,9.69083759 L22.0092986,8.65896741 L21.7981728,7.50688071 L21.7984099,7.0724415 L17.9988096,3.27284119 L14.5508959,1.20056474 L10.2118625,0.480451276 L7.96856315,0.376434976 Z"/>
          <polyline fill="#FEFCFF" points="25.534 10.916 21.692 14.758 22.708 15.774 26.55 11.932"/>
          <path stroke="#233750" stroke-width=".616" d="M25.0009761,10.0690191 C24.4861485,9.55419148 23.6741331,9.41664213 22.9871994,9.80550702 L22.0982105,8.91651811 C21.7371265,8.55543412 21.6735015,8.01662011 21.8937159,7.59265642 C22.0217791,7.34608397 21.9773974,7.04544039 21.7808984,6.84894131 C21.2219601,6.29000309 20.1534795,5.22152244 19.1279576,4.19600055 C17.4548696,2.52291258 15.3157401,1.39392377 12.9903429,0.956543936 L7.94458553,0.00765668802 C7.63086459,-0.0513607922 7.464789,0.364810693 7.73284084,0.538068669 L12.2725793,3.47159655 C13.5902072,4.32304737 13.8604273,6.13822449 12.8478472,7.33653005 L12.0947137,8.22782274 C11.8801232,8.48178085 11.8959109,8.85777166 12.1309644,9.09289297 L15.2995458,12.2614744 C15.5402911,12.5022196 15.927462,12.5121801 16.1802682,12.2841057 L17.0567896,11.4932985 C18.0118429,10.7003909 19.4136266,10.7653034 20.2912999,11.6430444 L20.720481,12.0722255 L20.720481,12.0722255 C20.3316161,12.7591591 20.4692332,13.5711746 20.983993,14.0860022 L22.2772279,15.3792371 C22.5170923,15.6191015 22.906025,15.6191015 23.1458893,15.3792371 L26.2941433,12.2309832 C26.5340077,11.9911188 26.5340077,11.6021861 26.2941433,11.3623217 L25.0009761,10.0690191 Z"/>
          <line x1="22.721" x2="20.592" y1="9.916" y2="12.057" stroke="#4A5D87" stroke-width=".678"/>
        </g>
        <g transform="translate(27.286 16.947)">
          <path fill="#A47516" d="M-1.34806453e-13,15.6646117 L-1.34806453e-13,12.2316954 L3.33115733,11.4475276 L4.30210957,9.09113444 L2.44422308,6.33946779 L5.6344947,2.98707258 L7.45262824,2.84680923 L9.68206091,4.38301577 L10.9802165,3.52082014 L11.6878346,-1.71182798e-14 L18.1641428,-1.71182798e-14 L18.6555702,3.4013279 L20.3492326,3.94954523 L23.7571731,2.48343147 L27.2598671,5.79163944 L25.4508355,8.62475686 L26.5196531,10.9412415 L29.9919296,11.707361 L30.1092436,15.6646117 L19.5666096,15.6646117 C19.9270654,11.7082167 18.4230694,9.7300192 15.0546218,9.7300192 C11.6861741,9.7300192 10.1396936,11.7082167 10.4151801,15.6646117 L-1.34806453e-13,15.6646117 Z"/>
          <path fill="#FEFCFF" d="M2.27716283,15.6646117 L2.27716283,12.9619461 L5.60705752,12.2833779 L6.70645699,9.04827447 L4.90378709,6.44173939 L7.27386497,3.81407347 L9.8626918,5.5463568 L13.1821699,4.27180936 L13.6278523,1.11155671 L17.3520903,1.11155671 L17.7215826,4.03654263 L20.8233533,5.25647724 L23.6764646,3.52211059 L26.3350828,5.95037271 L24.4368776,8.66672869 L25.7880616,11.7751959 L29.2942947,12.2833779 L29.2942947,15.6646117 L21.4767728,15.6646117 C21.625653,10.9993564 19.7286383,8.66672869 15.7857288,8.66672869 C11.8428192,8.66672869 9.86847358,10.9993564 9.8626918,15.6646117 L2.27716283,15.6646117 Z"/>
          <use stroke="#CDCDCD" stroke-dasharray="6.781 3.082" stroke-width="1.233" mask="url(#404-svg-b)" xlink:href="#404-svg-a"/>
        </g>
        <rect width="46.062" height="7.665" x="38.888" y="30.054" fill="#FFC64D" stroke="#233750" stroke-width=".616"/>
        <rect width="3.011" height="6.776" x="81.493" y="30.498" fill="#FEFCFF"/>
        <path fill="#E2A602" stroke="#233750" stroke-width=".616" d="M49.4278343 33.0652253L49.4278343 39.1893518C49.4278343 40.0404395 50.1177773 40.7303825 50.968865 40.7303825L54.046221 40.7303825C54.8973087 40.7303825 55.5872516 40.0404395 55.5872516 39.1893518L55.5872516 33.0652253 49.4278343 33.0652253zM70.508193 33.0652253L70.508193 39.1893518C70.508193 40.0404395 71.1981359 40.7303825 72.0492237 40.7303825L75.1265796 40.7303825C75.9776673 40.7303825 76.6676103 40.0404395 76.6676103 39.1893518L76.6676103 33.0652253 70.508193 33.0652253z"/>
        <path stroke="#979797" stroke-width=".616"/>
        <rect width="21.833" height="8.282" x="17.499" y="29.746" fill="#FEFCFF"/>
        <path fill="#E2A602" d="M21.1269823,31.2512792 L38.5794489,31.2512792 L38.5794489,31.2512792 L38.5794489,37.2742388 L20.51057,37.2742388 L20.51057,31.8676915 C20.51057,31.5272564 20.7865472,31.2512792 21.1269823,31.2512792 Z"/>
        <rect width="21.217" height="7.665" x="17.807" y="30.054" stroke="#233750" stroke-width=".616"/>
        <g transform="rotate(1 -2517.752 3882.654)">
          <path fill="#D8D5E2" stroke="#233750" stroke-linejoin="round" stroke-width=".616" d="M1.3779958,9.21609601 C0.181215721,9.69357463 -0.236017774,10.6972945 0.126295314,12.2272557 C0.488608402,13.7572169 1.28927657,14.3726496 2.5282998,14.0735537 L20.0971312,10.7144096 L23.4888327,14.0735537 L29.87733,12.9492281 L31.8040813,8.39446602 L25.4480101,9.5747331 C24.2799511,9.25759753 23.5865495,8.65347363 23.3678053,7.76236141 C23.1490612,6.87124918 23.4658882,5.94129703 24.3182864,4.97250493 L31.1151427,3.54806766 L27.3338069,-5.34946275e-15 L21.1173745,1.26703818 L19.0321849,5.52969134 L1.3779958,9.21609601 Z"/>
          <path fill="#A08BE1" d="M16.1138486,8.68183116 L16.6810949,11.0238809 L2.24013429,13.7536747 C1.80631798,13.8344917 1.44000933,13.7390613 1.14120834,13.4673836 C0.84240736,13.1957059 0.613943631,12.7163144 0.455817154,12.0292091 L0.893293147,11.6628262 L16.1138486,8.26426543 L16.1138486,8.68183116 Z"/>
          <path fill="#FEFCFF" d="M0.455817154,12.0292091 L20.173475,7.77042798 L22.6222148,2.81320174 L28.3136851,1.42231129 L27.2271732,0.409219426 L21.3712405,1.59985266 L19.283828,5.82494747 L5.63263372,8.71706748 L1.49052067,9.5735146 C1.02652661,9.74218135 0.695632099,10.0612312 0.497837132,10.5306643 C0.300042165,11.0000973 0.286035506,11.4996122 0.455817154,12.0292091 Z"/>
          <circle cx="2.993" cy="11.322" r="1" fill="#233750"/>
        </g>
        <line x1="75.406" x2="78.748" y1="28.381" y2="28.381" stroke="#233750" stroke-width=".616"/>
        <line x1="82.891" x2="84.165" y1="50.706" y2="56" stroke="#233750" stroke-width=".616"/>
        <line x1="51.207" x2="51.207" y1="34.624" y2="38.479" stroke="#233750" stroke-width=".616"/>
        <line x1="72.287" x2="72.287" y1="34.624" y2="38.479" stroke="#233750" stroke-width=".616"/>
        <line x1="7.504" x2="54.178" y1="7.538" y2="7.538" stroke="#233750" stroke-width=".616"/>
        <g transform="scale(-1 1) rotate(-77 10.333 62.761)">
          <polygon fill="#D8D5E2" points="22.467 3.95 40.525 3.95 40.69 6.7 35.678 6.7 33.48 5.021 22.467 5.021 22.467 4.089"/>
          <polygon fill="#FEFCFF" points="40.7 4.445 22.485 4.253 22.511 3.139 33.552 3.274 35.648 1.869 40.69 1.869"/>
          <path stroke="#233750" stroke-width=".616" d="M22.5020731,3.17771589 L22.5020731,5.00060198 L33.627479,5.00060198 L33.627479,3.17771589 L22.5020731,3.17771589 Z"/>
          <path fill="#A08BE1" d="M3.65894755,0.430211383 L15.6115096,0.430211383 L15.6115096,0.430211383 L15.6115096,7.74810649 L3.65894755,7.74810649 C1.63816662,7.74810649 2.4747429e-16,6.10993987 0,4.08915894 C-2.4747429e-16,2.068378 1.63816662,0.430211383 3.65894755,0.430211383 Z"/>
          <polyline fill="#A08BE1" points="15.499 7.467 19.899 5.811 19.899 2.632 15.499 .712"/>
          <path fill="#FEFCFF" d="M0.601125026,4.6659851 C1.07889867,3.70732694 2.06267434,3.1826269 3.55245205,3.09188498 C5.04222976,3.00114306 10.4912354,3.00114306 19.899469,3.09188498 L19.899469,2.3501886 L15.4985906,0.430211383 L3.55245205,0.430211383 L1.67035917,0.996034744 L0.601125026,2.58806403 L0.296786737,3.80771321 L0.601125026,4.6659851 Z"/>
          <path stroke="#233750" stroke-width=".616" d="M15.3033034,7.43990035 L15.3033034,0.738417519 L3.65894755,0.738417519 C1.80838417,0.738417519 0.308206137,2.23859555 0.308206137,4.08915894 C0.308206137,5.93972232 1.80838417,7.43990035 3.65894755,7.43990035 L15.3033034,7.43990035 Z"/>
          <polyline stroke="#233750" stroke-width=".616" points="15.499 7.467 19.899 5.811 19.899 2.632 15.448 .778"/>
          <path fill="#A08BE1" stroke="#233750" stroke-width=".616" d="M19.8828249,0.618235023 L19.8828249,7.31971786 L22.4699055,7.31971786 L22.4699055,0.618235023 L19.8828249,0.618235023 Z"/>
          <polyline fill="#FEFCFF" points="20.356 3.243 20.356 1.175 22.058 1.175 22.058 3.243"/>
          <polygon stroke="#233750" stroke-width=".616" points="33.662 3.018 35.648 1.869 40.69 1.869 40.69 6.7 35.648 6.791 33.662 5.195"/>
          <line x1="3.552" x2="12.834" y1="4.089" y2="4.089" stroke="#233750" stroke-width=".616"/>
          <line x1="3.552" x2="12.834" y1="6.137" y2="6.137" stroke="#233750" stroke-width=".616"/>
        </g>
        <line x1="6.206" x2="8.062" y1="11.677" y2="15.7" stroke="#233750" stroke-linecap="round" stroke-linejoin="round" stroke-width=".616"/>
        <line x1="9.218" x2="13.27" y1="18.452" y2="27.245" stroke="#233750" stroke-linecap="round" stroke-width=".616"/>
        <line x1="52.884" x2="56.923" y1="12.43" y2="20.939" stroke="#233750" stroke-linecap="round" stroke-width=".616"/>
        <path fill="#FEFCFF" d="M9.07548315,10.6675182 L50.1760749,10.6675182 C50.7208143,9.95020746 51.2160305,9.40214078 51.6617236,9.02331812 C52.1074167,8.64449546 52.6941291,8.27296268 53.421861,7.9087198 L7.84207578,7.9087198 L9.07548315,10.6675182 Z"/>
        <path fill="#FFC64D" d="M9.07548315,10.6675182 L50.1760749,10.6675182 C49.5131286,11.6609011 49.0590792,12.4229746 48.8139266,12.9537389 C48.568774,13.4845031 48.2873656,14.3147222 47.9697014,15.4443962 L11.24376,15.4443962 L9.07548315,10.6675182 Z"/>
        <line x1="87.048" x2="92.43" y1="59.613" y2="59.613" stroke="#233750" stroke-width=".616" opacity=".5"/>
        <line x1="94.242" x2="96.71" y1="59.613" y2="59.613" stroke="#233750" stroke-width=".616" opacity=".5"/>
        <polyline fill="#FEFCFF" points="49.866 34.281 55.152 34.281 55.152 33.504 49.866 33.504"/>
        <polyline fill="#FEFCFF" points="70.946 34.281 76.232 34.281 76.232 33.504 70.946 33.504"/>
        <line x1="20.728" x2="5.622" y1="59.552" y2="59.552" stroke="#4A5D87" stroke-width=".616" opacity=".5"/>
      </g>
      <g transform="translate(.502)">
        <path fill="#ED6E2D" d="M61.7912027,18.8816681 C60.512185,18.0582193 60.0062646,17.5005813 60.2734414,17.2087541 C60.7076164,16.7345212 66.3040819,16.4283669 72.4301965,19.8154387 C77.9867867,22.8876259 80.3276589,28.1998846 80.163829,28.866882 C80.054609,29.311547 79.6482946,29.311547 78.9448856,28.866882 L61.7912027,18.8816681 Z"/>
        <path fill="#FFD5B5" d="M63.8321594,15.4159492 C62.0658036,16.6218388 61.1725515,20.4860049 60.1966568,21.4639335 C59.2207621,22.4418622 55.561325,28.2071821 56.5073205,32.338768 C57.012791,34.5463839 57.850309,35.9934507 59.2971248,37.275026 C60.5580462,38.3919378 62.2877901,39.3260245 62.4823244,39.4430382 C62.6223354,39.5272558 63.3206071,41.2291946 62.7831519,43.4343068 C62.4287465,44.8883884 61.2701864,47.8804807 59.3074717,52.4105837 C58.272096,53.5068174 58.4120609,53.8897088 59.7273662,53.5592578 C61.7003242,53.0635814 75.8488036,45.9200824 76.4174992,41.6316781 C76.9861948,37.3432738 76.0951163,31.5505517 77.525398,29.6768664 C78.9556796,27.8031811 80.8466536,28.6735132 81.8565154,23.9722148 C82.8663773,19.2709163 79.3913542,11.7635647 75.0801695,11.5001667 C70.7689849,11.2367687 65.5985153,14.2100597 63.8321594,15.4159492 Z"/>
        <path fill="#692C1F" d="M61.7416792,18.5793531 C61.82589,19.3899111 62.4746343,19.9070208 63.6879123,20.1306821 C65.5078292,20.4661742 69.6145075,19.2547878 71.0387991,20.4774089 C72.4630907,21.70003 71.6985635,22.3312834 73.4560152,23.0604992 C75.2134669,23.7897149 75.9113756,26.2378962 74.8256753,27.403034 C73.739975,28.5681717 73.5373623,27.5935877 70.7778259,29.9661779 C69.9143885,30.7085428 66.8853662,33.5196355 65.306343,33.083784 C64.5329309,32.8703022 64.1550049,30.9880351 60.7933241,28.8298524 C59.0159475,27.6887852 57.8659103,27.126265 57.1653998,27.403034 C57.096872,27.430109 58.5275,23.98192 58.0494484,24.5891348 C57.5713969,25.1963495 54.3865915,30.5888583 56.9708481,34.8746192 C59.5551048,39.1603801 61.2950476,38.8727227 62.7000757,38.8727227 C64.1051037,38.8727227 65.1221975,38.7995882 67.1573963,37.0999551 C69.1925951,35.4003219 70.7572531,33.6185191 71.2916773,32.6964864 C71.8261014,31.7744537 74.4717491,28.2696572 76.0796865,28.017457 C77.6876239,27.7652569 76.7744592,31.008788 76.7744592,31.673778 C76.7744592,32.338768 76.2047146,35.3889311 76.9398623,34.6116919 C77.6750099,33.8344526 77.8150799,32.7267454 77.8150799,31.673778 C77.8150799,30.6208105 78.1934565,29.1188864 78.9448856,28.5681717 C79.6963147,28.017457 80.1803153,27.7601291 80.4381449,27.1071593 C80.6959746,26.4541895 78.8557006,21.5090663 77.8150799,20.9932376 C77.1213327,20.6493518 72.3282387,18.719304 63.4357978,15.2030943 C62.0548309,16.2282949 61.3643475,16.8894648 61.3643475,17.1866038 C61.3643475,17.4837429 61.4901247,17.9479926 61.7416792,18.5793531 Z"/>
        <path fill="#6195E5" d="M31.0451871,111.145551 C39.2357574,112.699735 45.2629331,113.217796 49.126714,112.699735 C52.990495,112.181674 56.3840809,95.6106717 59.3074717,62.9867283 L40.8805305,73.7830999 L35.5846256,85.8924631 L31.0451871,97.0432552 L29.5803175,108.01359 L31.0451871,111.145551 Z"/>
        <path fill="#FFBA31" stroke="#233750" stroke-width=".704" d="M61.6317936,45.605203 C60.2958451,50.4259253 59.2608691,53.3444186 58.4930463,54.4175441 C58.3819865,54.5727637 57.5217046,55.7788839 57.424098,55.9156656 C56.7586517,56.8481943 56.1272894,57.7316685 55.4535322,58.6725229 C53.5495591,61.3312869 51.7099411,63.8853107 49.967174,66.2837511 C49.8026784,66.5100887 49.8026784,66.5100887 49.6381152,66.7363342 C47.1731663,70.1244919 45.1153329,72.9056119 43.5845171,74.9050081 C41.2296096,77.9807495 39.5544906,80.463021 37.6128458,84.2024104 C35.0170498,89.2016212 33.0646656,94.6560599 31.9887899,100.578621 C31.0327665,105.84141 31.0327665,109.766009 31.9836706,113.518704 C32.4332903,115.293106 32.2118457,121.309165 31.3288721,131.68292 L31.3014339,132.005282 L26.8880564,132.005282 L26.8558905,131.688646 C25.4500014,117.849253 27.2801919,104.517363 32.345995,91.6977497 C35.6763017,83.2700148 40.8215641,74.3025517 47.0036936,65.4141543 C50.8431822,59.8939043 55.5432051,53.9190904 56.2708352,53.259918 C56.4166286,53.1278414 56.5977033,52.7196161 56.5861758,52.4548397 C56.5743213,52.1825512 56.3685323,52.0541305 55.6925966,52.1425735 C54.3607216,52.3168432 53.3619325,52.3168432 52.6817848,52.1333979 L52.112692,51.9799057 L52.5174587,51.5514313 C53.9531441,50.0316561 55.3464272,48.749526 56.6979068,47.7050854 C58.0608294,46.6518014 59.550056,45.8109014 61.16466,45.1828591 L61.8194158,44.9281748 L61.6317936,45.605203 Z"/>
        <path fill="#4377C7" d="M54.8380991,49.6890443 C45.6211429,55.3754471 40.191404,58.666004 38.5488823,59.560715 C36.0850998,60.9027816 33.3819545,61.6210601 32.8663454,61.6210601 C32.6331802,61.6210601 31.4287884,66.0749764 28.3178823,72.9762476 C27.3343568,75.1581122 25.3795925,78.8725129 22.4535893,84.1194499 C23.6792499,84.8643931 24.6161045,85.3093404 25.2641532,85.4542919 C28.8587775,86.2583151 29.8812501,85.709815 29.8812501,85.709815 C29.8812501,85.709815 30.0585066,85.2880625 30.4130195,84.4445574 L36.4221849,83.472467 L57.7735727,64.2396014 L59.3074717,50.3312742 L54.8380991,49.6890443 Z"/>
        <path fill="#FFF" d="M24.6551852,83.4218355 C26.8551833,83.9796653 28.4459283,84.2585801 29.4274203,84.2585801 C30.4089123,84.2585801 30.842234,83.9796653 30.7273855,83.4218355 L36.152869,82.4247081 L40.47924,77.9279241 L40.8805305,78.9432917 L40.3705305,79.9988914 L36.6396429,83.4218355 L30.8980606,84.4304014 L29.8812501,85.709815 L25.2641532,85.4542919 L22.8931051,84.2585801 L24.6551852,83.4218355 Z"/>
        <path stroke="#233750" stroke-width=".704" d="M54.8380991,49.6890443 C45.6211429,55.3754471 40.191404,58.666004 38.5488823,59.560715 C36.0850998,60.9027816 33.3819545,61.6210601 32.8663454,61.6210601 C32.6331802,61.6210601 31.4287884,66.0749764 28.3178823,72.9762476 C27.3343568,75.1581122 25.3795925,78.8725129 22.4535893,84.1194499 C23.6792499,84.8643931 24.6161045,85.3093404 25.2641532,85.4542919 C28.8587775,86.2583151 29.8812501,85.709815 29.8812501,85.709815 C29.8812501,85.709815 30.0585066,85.2880625 30.4130195,84.4445574 L36.4221849,83.472467 L57.7735727,64.2396014 L59.3074717,50.3312742 L54.8380991,49.6890443 Z"/>
        <path fill="#FFD5B5" stroke="#233750" stroke-width=".704" d="M22.3923193,84.4663157 C18.7392302,83.8210376 16.105881,82.5446336 14.5049992,80.6233551 C12.8861041,78.6804581 12.4772957,76.1067985 13.2653588,72.9237857 C14.4325097,68.8665427 15.8231597,65.1908591 17.4376933,61.896805 C19.0484136,58.6105307 22.0511515,53.3193381 26.4417561,46.0292829 C27.0465422,44.9350614 27.442318,44.1674571 27.6257391,43.7348011 C28.1838871,42.4182344 28.4743665,41.3447869 28.4743665,40.9677066 C28.4743665,40.5676786 28.7236373,38.554683 29.2313148,34.8334379 L29.2620881,34.607872 L38.1907286,31.9663378 L38.3041986,32.011686 C40.6463018,32.9477076 42.0971207,34.1272324 42.6305937,35.5717664 C43.1538174,36.9885474 43.0190909,39.2978647 42.2488574,42.5279746 L42.1923487,42.7649537 L41.9506725,42.7956936 C40.0401036,43.0387072 38.8935363,43.5710841 38.4848789,44.3440947 C37.3259808,46.5362502 35.5318084,50.7871692 34.2581447,54.9967168 C34.0602804,55.6506723 33.8880321,56.4258347 33.7279891,57.342437 C33.5772853,58.2055513 33.195273,60.961627 33.1239489,61.3459083 C33.097172,61.490177 33.0710391,61.6145073 33.0447224,61.7213395 C29.8254062,74.7900782 26.3818234,82.3438837 22.6244092,84.4274929 L22.5152434,84.4880289 L22.3923193,84.4663157 Z"/>
        <path fill="#FFF" d="M29.5803175,45.6253411 C26.4202444,49.5793358 18.7993172,65.7966357 17.7539804,69.0530493 C16.7514146,72.1762238 13.5084483,77.9390891 19.6134484,83.4197754 C17.4841153,82.7212844 15.8719579,81.7136468 14.7756068,80.3978746 C13.234915,78.5488324 12.8443348,76.089929 13.6038663,73.0211645 C14.7655004,68.9830989 16.1488717,65.3266536 17.7539804,62.0518286 C19.3590891,58.7770036 22.3577747,53.4929516 26.7500371,46.1996727 C27.3604641,45.0952453 27.7604636,44.3194491 27.9500357,43.8722841 C28.6502114,42.2207009 28.826602,41.2341443 28.826602,40.9677066 C28.826602,40.593062 29.0778405,38.5641769 29.5803175,34.8810512 L30.7042056,34.5493938 C31.9183854,39.4766352 31.543756,43.1686176 29.5803175,45.6253411 Z"/>
        <path fill="#E2A602" stroke="#233750" stroke-width=".704" d="M32.6851432,118.546068 C47.9383685,120.395559 59.7138065,121.104139 68.0057175,120.673027 C76.2969101,120.241952 87.7454863,118.310713 102.34589,114.878606 L102.811692,114.76911 L102.777846,115.24641 C101.265179,136.578397 101.265179,153.559549 102.776233,166.185588 C103.702759,173.927441 107.444956,190.803129 114.000194,216.793482 L114.101149,217.19375 L105.141839,217.99375 L105.02797,217.892088 C97.8424511,211.476881 89.0897514,201.988177 78.7666054,189.424023 C68.4400273,176.855691 52.9672431,153.409519 32.3408096,119.077141 L31.9696249,118.45931 L32.6851432,118.546068 Z"/>
        <path fill="#FFF" d="M72.8498752,171.923778 L72.8073586,171.968401 C71.6480565,173.29046 73.3178113,177.07552 77.816623,183.323581 C82.9605886,190.467647 92.5461954,201.863677 106.573443,217.511671 L105.262555,217.629334 C98.0926432,211.22806 89.3513779,201.751753 79.0387596,189.200412 C75.8890169,185.366905 72.2310554,180.518125 68.0648752,174.654072 L72.8498752,171.923778 Z"/>
        <path stroke="#934F09" stroke-dasharray="4.227 2.818" stroke-width=".986" d="M70.035033,126.142374 C73.6525964,142.905513 77.719631,156.468891 82.2361366,166.832508 C86.7526422,177.196125 95.8746948,193.896553 109.602294,216.933791" opacity=".5"/>
        <path fill="#692C1F" d="M114.360958,216.781484 L116.176311,222.743484 L88.6503851,222.744134 C88.6442154,221.786447 89.0217904,221.146324 89.7831102,220.823766 L89.9404907,220.763488 C90.5435038,220.555516 94.000023,220.321364 98.4995061,219.569426 C99.8109611,219.35026 102.065311,218.703563 105.262555,217.629334 C105.221063,217.59229 105.179518,217.555143 105.13792,217.517892 L114.360958,216.781484 Z"/>
        <path fill="#FFC64D" stroke="#233750" stroke-width=".704" d="M31.8004581,118.546216 C46.0097739,120.318901 58.7473922,120.846157 70.0126451,120.128693 C81.2781747,119.411211 92.0520325,117.662086 102.334544,114.881473 L102.913301,114.724964 L102.768267,115.306703 C99.3252502,129.116825 91.8158438,144.353152 80.2428843,161.019202 C73.1050474,171.298296 60.3565694,190.164757 41.9983498,217.617295 L41.8885471,217.781492 L31.429839,217.354547 L31.4056697,217.042574 C29.4323677,191.571604 28.706399,172.220526 29.2283555,158.984785 C29.7498013,145.761995 30.4754993,132.390924 31.4054478,118.871571 L31.4309982,118.500124 L31.8004581,118.546216 Z"/>
        <path fill="#692C1F" d="M31.1689382,217.632427 L42.0934657,218.134454 L38.9744344,222.933427 L15.1261002,222.934099 C14.0726425,222.130577 14.2510509,221.391192 15.6613255,220.715945 C16.6437832,220.245539 21.9703036,220.174538 26.9077285,219.238027 C28.1137651,219.009271 29.5341683,218.474071 31.1689382,217.632427 Z"/>
        <path fill="#FFF" d="M31.756853,118.895742 C32.5193827,118.990872 33.2776894,119.08242 34.0317732,119.170388 C32.6884657,129.121963 31.7263348,143.005167 31.1449069,160.818296 C30.5242346,179.833751 31.2919291,198.602273 33.4479904,217.123862 L31.7236276,217.032512 C31.7346938,217.026808 31.745769,217.021094 31.756853,217.015367 C29.7845197,191.556902 29.0590079,172.218001 29.5803175,158.998665 C30.1016271,145.779329 30.8271389,132.411688 31.756853,118.895742 Z"/>
        <path stroke="#D38F18" stroke-dasharray="4.227 2.818" stroke-width=".986" d="M63.7923464,120.55601 C61.7044281,133.462955 58.9892786,145.734555 55.6468977,157.37081 C52.3045169,169.007065 45.8065073,188.810405 36.152869,216.780831"/>
        <path fill="#FFBA31" stroke="#233750" stroke-width=".704" d="M60.0994452,53.571385 C66.6159547,51.2849064 71.1075773,49.0604497 73.5636919,46.9133594 C75.9972693,44.7859706 77.2150331,42.5885095 77.2445293,40.3146652 L77.2550905,39.5005067 L77.841226,40.0656711 L79.1204046,41.3137595 C89.7150149,47.4028784 97.2370425,56.0399265 101.677267,67.2153154 C106.116489,78.3881807 106.476724,94.4081734 102.773313,115.283024 L102.667194,115.478658 C97.4593542,120.353128 90.6247125,124.503821 82.164987,127.933152 C73.7237822,131.354974 63.1471148,134.512405 50.4336229,137.406702 L50.0770735,137.487872 L50.0093018,137.128535 C45.5236378,113.344761 45.7602148,93.4632595 50.7267879,77.4834968 C55.7444758,61.339274 58.6192209,53.7884178 60.0994452,53.571385 Z"/>
        <path fill="#FFF" d="M54.5034634,136.092214 L53.5730944,136.314242 C52.5162435,136.565836 51.4436903,136.815506 50.3554351,137.063254 C47.6548359,122.744206 46.6696078,109.847329 47.3997505,98.3726232 C50.0381737,118.368041 52.4059232,130.940579 54.5034634,136.092214 Z"/>
        <path fill="#194A94" d="M36.3345263,111.896798 C35.8792643,111.282526 36.2797213,108.338994 37.5358971,103.0662 C38.3869261,99.4940093 42.425274,87.6418245 43.1009545,85.8924631 C44.0660692,83.3937462 41.9993391,88.9535208 39.824599,96.8016337 C38.7582012,100.650006 37.5948436,105.681728 36.3345263,111.896798 Z" opacity=".3"/>
        <g transform="rotate(-113 78.248 55.833)">
          <path fill="#64529A" stroke="#233750" stroke-width=".704" d="M15.9914619,12.0378527 L118.225872,12.0378527 L118.429169,28.6362678 L16.1947584,28.6362678 L15.9914619,12.0378527 Z"/>
          <rect width="68.834" height="10.325" x="33.244" y="15.336" fill="#AF9BF0" rx="3.522"/>
          <circle cx="15.517" cy="20.931" r="15.135" fill="#64529A" stroke="#233750" stroke-width=".704"/>
          <circle cx="15.517" cy="20.931" r="6.531" fill="#A993F0" stroke="#233750" stroke-width=".704"/>
          <g transform="translate(109.611 .56)">
            <path fill="#64529A" d="M18.4735168,0.740601568 C24.8905768,0.740601568 30.5435635,4.09218711 33.8557173,9.17994373 L18.4735168,9.68747602 L13.2402771,19.4702539 L18.7513297,29.2457275 L34.4143576,29.2464851 C31.2044513,34.8426817 25.2671781,38.5992032 18.4735168,38.5992032 C8.26931181,38.5992032 -0.00283079053,30.1242666 -0.00283079053,19.6699024 C-0.00283079053,9.21553823 8.26931181,0.740601568 18.4735168,0.740601568 Z"/>
            <path fill="#FFF" d="M31.952482 8.76495933C25.8488867 3.83822311 19.6175129 1.98727436 13.2583607 3.21211308 6.89920838 4.43695181 3.0703814 7.26648285 1.77187971 11.7007062L2.29742118 9.93283906 5.59497832 5.84540834 10.358831 2.34904103 16.7978204.794206074 22.2179165 1.15990035 26.5031449 2.62847159 30.0914822 4.7806247 32.9189889 7.63723613 33.7763623 9.14150689 31.952482 8.76495933zM34.3111223 29.3864043L33.402494 30.5058266C31.5492308 30.8946712 29.1894483 30.9765554 26.3231466 30.7514795 23.4568449 30.5264035 20.9329059 30.0244862 18.7513297 29.2457275L34.3111223 29.3864043z"/>
          </g>
          <path fill="#FFF" d="M122.360881,20.236676 C124.182563,24.2540311 125.328042,26.6489372 125.797316,27.4213944 C126.26659,28.1938516 127.033996,28.8973672 128.099533,29.5319413 L122.360881,20.236676 Z" opacity=".5"/>
          <path stroke="#233750" stroke-width=".704" d="M18.4735168,0.740601568 C24.8905768,0.740601568 30.5435635,4.09218711 33.8557173,9.17994373 L18.4735168,9.68747602 L13.2402771,19.4702539 L18.7513297,29.2457275 L34.4143576,29.2464851 C31.2044513,34.8426817 25.2671781,38.5992032 18.4735168,38.5992032 C8.26931181,38.5992032 -0.00283079053,30.1242666 -0.00283079053,19.6699024 C-0.00283079053,9.21553823 8.26931181,0.740601568 18.4735168,0.740601568 Z" transform="translate(109.611 .56)"/>
        </g>
        <path fill="#6195E5" stroke="#233750" stroke-width=".704" d="M70.035033,73.2625727 C73.4222878,68.5660961 77.2585412,64.6138569 81.5437933,61.4058551 C85.8290453,58.1978533 90.2764839,56.3490284 94.886109,55.8593806 C97.9942499,60.1939202 100.448758,64.9002679 102.249635,69.9784238 C104.050511,75.0565796 104.352519,80.3612594 103.155659,85.8924631 L105.90831,87.9162591 C105.006303,90.090426 104.245101,91.6625019 103.624705,92.6324866 C103.004308,93.6024713 101.916172,94.921818 100.360298,96.5905264 C99.5860107,95.1964746 97.1729806,93.877128 93.1212079,92.6324866 C89.0694352,91.3878452 82.2010834,89.856096 72.5161524,88.0372391 L72.5161524,86.6991414 C72.456537,84.8290639 72.2722423,83.0573968 71.9632683,81.38414 C71.6542944,79.7108832 71.0115492,77.0036941 70.035033,73.2625727 Z"/>
        <path fill="#FFD5B5" stroke="#233750" stroke-width=".704" d="M72.5865311,87.6921061 C83.9044984,90.0000374 91.110347,91.6293119 94.2191774,92.5842961 C97.3799914,93.5552489 99.5245468,94.8154666 100.646862,96.3857073 L100.809689,96.6135189 L100.624462,96.8235229 C97.2018713,100.703947 93.2390601,103.583487 88.7385821,105.458925 C84.2313507,107.337178 78.2714605,108.018741 70.8636576,107.512269 C64.7235052,107.209883 58.7641385,106.140489 52.9863163,104.304139 C47.1569251,102.451399 43.5083039,100.13534 42.0616659,97.3372072 C41.1755552,95.8286637 40.871753,94.1115104 41.1482258,92.1992117 C41.4198107,90.3207215 42.0498448,88.4929026 43.0369096,86.7173448 L43.3873245,86.0870094 L43.6690248,86.7509057 C45.1774123,90.3057929 45.1774123,90.3057929 45.5010392,91.0894433 C45.5356091,91.273819 45.6327605,91.5741053 45.8116583,91.8810395 C46.0975427,92.37153 46.4912256,92.681027 47.0227442,92.7426075 C46.9278043,92.7316079 48.2354642,92.8963196 48.7754573,92.9539424 C52.4004964,93.3407712 56.193552,93.3105802 60.51604,92.5737763 C65.1150056,91.7898445 69.0434046,90.1831536 72.3058299,87.7546894 L72.4321868,87.6606326 L72.5865311,87.6921061 Z"/>
        <path fill="#FFF" d="M43.3447715,86.8276546 C43.5954815,87.2237241 43.828309,87.5915429 44.0432539,87.931111 C44.0484863,88.0176245 44.0458509,88.0937005 44.036086,88.1596033 C43.579945,91.2380837 42.8238231,93.0925025 44.1172327,95.6149953 C45.8018251,98.900399 51.0798621,102.780679 63.0115243,106.333358 C59.6479429,105.78977 56.3416427,105.000956 53.0930074,103.968451 C47.3442569,102.14134 43.7683816,99.8714588 42.3653813,97.1588063 C41.5210096,95.7213206 41.2314947,94.0849227 41.4968368,92.2496126 C41.7621789,90.4143025 42.3781571,88.6069832 43.3447715,86.8276546 Z"/>
        <path fill="#6195E5" stroke="#233750" stroke-width=".704" d="M60.1718927,53.4329177 C62.4086954,53.7589095 63.5845302,54.8687911 63.6993971,56.7625625 C63.8142639,58.656334 63.9360064,61.2057136 64.0646244,64.4107013 C68.2953272,60.8086283 71.8330465,56.8727071 74.6777821,52.6029376 C77.5225178,48.3331681 78.9448856,44.6719053 78.9448856,41.6191494 L77.1512762,38.8727227 C77.2388328,41.1185022 76.1532825,43.2726157 73.8946253,45.3350632 C71.6359681,47.3975107 67.0617239,50.0967955 60.1718927,53.4329177 Z"/>
        <path fill="#FFC64D" d="M63.6879123,16.9860687 C65.5994207,12.0281918 68.1248234,9.54925339 71.2641202,9.54925339 C75.9730655,9.54925339 82.2063581,12.6327754 83.064374,17.8545631 C83.6363846,21.3357548 82.672207,25.0607082 80.1718412,29.029423 C80.035188,27.9324736 79.5520329,26.8384842 78.7223761,25.7474548 C77.8927193,24.6564254 77.0049144,23.5715894 76.0589615,22.4929469 C75.7990203,21.8590559 75.5977157,21.4027244 75.4550478,21.1239523 C74.9857107,20.2068716 73.7749079,19.4745793 73.3752118,19.2321811 C70.0155626,17.1947003 66.7864628,16.4459961 63.6879123,16.9860687 Z"/>
        <path fill="#E7AE34" d="M64.7811926,14.6657594 L66.8822114,14.0773866 C68.7685159,11.0586311 70.8171956,9.54925339 73.0282507,9.54925339 C75.2393058,9.54925339 76.488042,9.96830591 76.7744592,10.8064109 C75.2203487,11.1854415 73.9716126,11.7454927 73.0282507,12.4865643 C72.0848889,13.227636 71.6170701,14.1579253 71.6247943,15.2774321 C73.1247473,16.3728891 74.254213,17.5702264 75.0131915,18.8694441 C75.7721701,20.1686617 76.1207388,21.1121904 76.0588977,21.70003 C68.5404276,17.6345734 64.7811926,15.4937074 64.7811926,15.2774321 C64.7811926,15.0611567 64.7811926,14.8572658 64.7811926,14.6657594 Z"/>
        <path fill="#F4BF57" d="M59.2871692,16.7383073 C58.6873984,15.0372749 59.4467441,14.2261735 61.5652065,14.3050031 C64.7429,14.4232474 67.7153568,15.5639781 70.4568986,16.9206176 C73.1984405,18.277257 74.4693027,19.2876876 75.3366378,20.1490995 C75.9148612,20.7233742 76.1556145,21.5017943 76.0588977,22.4843598 C75.2795316,21.8372859 74.2776361,21.1155865 73.0532114,20.3192615 C71.8287866,19.5229366 69.9790891,18.3900553 67.5041188,16.9206176 C63.0185635,16.6038664 60.7757858,16.4454908 60.7757858,16.4454908 C60.7757858,16.4454908 60.2795803,16.5430963 59.2871692,16.7383073 Z"/>
        <path fill="#F1A83B" d="M67.4058723,16.0779678 C73.1533398,18.3584331 76.0376735,20.4930978 76.0588735,22.481962 C75.0500568,21.5241481 73.8442541,20.5972581 72.4301965,19.8154387 C66.3040819,16.4283669 60.7076164,16.7345212 60.2734414,17.2087541 C60.1974237,17.2917854 60.2772459,17.4170721 60.326397,17.5431397 C60.3828732,17.6879954 60.6300156,17.9431683 61.0678241,18.3086581 L60.8454699,18.2477064 C60.1572803,17.6553359 59.7320019,17.2129729 59.5696346,16.9206176 C59.3158256,16.4636139 59.1615526,16.0261468 59.429214,15.5017462 C59.9325099,14.5156919 61.7674215,13.8407579 67.4058723,16.0779678 Z"/>
        <path fill="#90B8F6" stroke="#233750" stroke-width=".704" d="M62.095682,44.2586758 C61.7693385,45.4941126 61.3593618,46.911617 60.8657519,48.5111889 C60.372142,50.1107608 59.8527153,51.7050428 59.3074717,53.2940349 C58.9188234,51.5073193 58.3635563,50.4663444 57.6416704,50.1711103 C56.9197846,49.8758762 54.7151859,49.9600998 51.0278745,50.4237809 C54.4761378,48.4681717 56.7871882,47.1517021 57.9610256,46.4743722 C59.134863,45.7970422 60.5130818,45.0584768 62.095682,44.2586758 Z"/>
        <path fill="#BA7642" d="M76.928308,30.5034309 C75.8613649,32.4112735 74.5025903,33.3651949 72.8519842,33.3651949 C70.3760752,33.3651949 73.8404323,33.9066818 75.2035327,33.0365002 C76.1122663,32.4563792 76.6871914,31.6120228 76.928308,30.5034309 Z"/>
        <path fill="#692C1F" stroke="#233750" stroke-width=".704" d="M31.8621111,110.786395 C35.103124,111.471257 37.6761288,111.915123 39.5783974,112.118017 C41.4816719,112.321018 43.7857629,112.431047 46.4896855,112.447756 L46.8172308,112.449781 L47.3706984,120.771493 L46.9661967,120.741409 C44.5940742,120.564986 42.4700799,120.38649 40.5941109,120.205903 C38.7183615,120.025337 35.7596605,119.705305 31.7170655,119.245724 L31.3908415,119.208637 L31.4049424,118.880615 C31.4859265,116.99672 31.4859265,115.616586 31.4060931,114.747184 C31.3224968,113.836803 31.3334673,112.624606 31.4378829,111.106845 L31.4656914,110.702627 L31.8621111,110.786395 Z"/>
        <circle cx="34.308" cy="115.142" r="1" fill="#FFEFD6"/>
        <circle cx="39.987" cy="115.83" r="1" fill="#FFEFD6"/>
        <circle cx="44.978" cy="116.347" r="1" fill="#FFEFD6"/>
        <path fill="#233750" d="M76.7967208 82.5682129C82.732021 82.6962539 88.1895257 83.2176818 93.1692349 84.1324966 98.1489441 85.0473115 102.395302 86.3085657 105.90831 87.9162591 103.998391 86.0982741 100.851467 84.6980972 96.467536 83.7157283 92.0836055 82.7333594 85.526667 82.3508543 76.7967208 82.5682129zM33.2283794 63.6997875L30.4646938 84.0040379C30.8249256 84.0132996 31.1973124 82.8847049 31.5818542 80.6182539 31.9663959 78.351803 32.5152377 72.7123141 33.2283794 63.6997875z"/>
        <path fill="#FFF" d="M29.060926,131.653047 L27.2063226,131.653047 C26.8130365,126.60673 26.6609413,122.704936 26.7500371,119.947663 C26.839133,117.190391 27.2433856,113.288596 27.9627951,108.24228 C27.818903,114.83013 27.818903,119.657855 27.9627951,122.725453 C28.1066872,125.793051 28.4727308,128.768916 29.060926,131.653047 Z"/>
      </g>
    </g>
  </g>
</svg>
