<?xml version="1.0" encoding="UTF-8"?>
<svg width="34px" height="40px" viewBox="0 0 34 40" version="1.1" xmlns="http://www.w3.org/2000/svg" xmlns:xlink="http://www.w3.org/1999/xlink">
    <!-- Generator: Sketch 52.6 (67491) - http://www.bohemiancoding.com/sketch -->
    <title>Shape</title>
    <desc>Created with Sketch.</desc>
    <g id="Page-1" stroke="none" stroke-width="1" fill="none" fill-rule="evenodd">
        <g id="Future_Proof_Website1.0" transform="translate(-1171.000000, -1890.000000)" fill="#F8E71C" fill-rule="nonzero">
            <g id="Group-12" transform="translate(769.000000, 1588.000000)">
                <g id="arrow-pointing-to-right" transform="translate(387.000000, 302.000000)">
                    <path d="M48.2100778,18.0888353 L30.9510916,0.791514583 C29.8980777,-0.263838194 28.190301,-0.263838194 27.1372871,0.791514583 C26.0840574,1.84708358 26.0840574,3.55822102 27.1372871,4.61379002 L39.7926545,17.2972666 L17.6967166,17.2972666 C16.2074818,17.2972666 15,18.5074304 15,19.999973 C15,21.4922993 16.2074818,22.7026793 17.6967166,22.7026793 L39.7926545,22.7026793 L27.1377186,35.3861559 C26.0844889,36.4417249 26.0844889,38.1528624 27.1377186,39.2084314 C27.6641176,39.7357834 28.3544771,40 29.0446208,40 C29.7347645,40 30.4249082,39.7357834 30.951523,39.2084314 L48.2100778,21.9111107 C49.2633074,20.8555417 49.2633074,19.1444042 48.2100778,18.0888353 Z" id="Shape"></path>
                </g>
            </g>
        </g>
    </g>
</svg>