<?xml version="1.0" encoding="UTF-8" standalone="no"?>
<svg width="64px" height="64px" viewBox="0 0 64 64" version="1.1" xmlns="http://www.w3.org/2000/svg" xmlns:xlink="http://www.w3.org/1999/xlink">
    <!-- Generator: Sketch 46.2 (44496) - http://www.bohemiancoding.com/sketch -->
    <title>Shape</title>
    <desc>Created with Sketch.</desc>
    <defs></defs>
    <g id="Page-1" stroke="none" stroke-width="1" fill="none" fill-rule="evenodd">
        <g id="cancel" fill-rule="nonzero" fill="#FFFFFF">
            <path d="M28.941,31.786 L0.613,60.114 C-0.174,60.901 -0.174,62.176 0.613,62.963 C1.006,63.357 1.522,63.553 2.037,63.553 C2.553,63.553 3.068,63.357 3.461,62.963 L32.002,34.422 L60.543,62.963 C60.937,63.357 61.452,63.553 61.967,63.553 C62.482,63.553 62.998,63.357 63.391,62.963 C64.178,62.176 64.178,60.901 63.391,60.114 L35.064,31.786 L63.41,3.438 C64.197,2.651 64.197,1.376 63.41,0.589 C62.623,-0.197 61.348,-0.197 60.562,0.589 L32.003,29.15 L3.441,0.59 C2.654,-0.196 1.38,-0.196 0.593,0.59 C-0.194,1.377 -0.194,2.652 0.593,3.439 L28.941,31.786 Z" id="Shape"></path>
        </g>
    </g>
</svg>