<?xml version="1.0" encoding="UTF-8"?>
<svg width="149px" height="105px" viewBox="0 0 149 105" version="1.1" xmlns="http://www.w3.org/2000/svg" xmlns:xlink="http://www.w3.org/1999/xlink">
    <title>Artboard 2 copy</title>
    <g id="Page-1" stroke="none" stroke-width="1" fill="none" fill-rule="evenodd">
        <g id="Management-Dashboard-Copy" transform="translate(-67.000000, -280.000000)" fill="#1D4A97" fill-rule="nonzero">
            <g id="Artboard-2-copy" transform="translate(67.000000, 280.000000)">
                <path d="M91.0189484,54.0148239 C88.9607543,53.8745319 86.9749368,54.7930876 85.7662501,56.4445013 C84.4657832,58.5689856 83.8587855,61.037314 84.0276809,63.5143142 C83.8587855,65.9913144 84.4657832,68.4596428 85.7662501,70.5841271 C87.0664982,72.1155012 88.986229,73 91.0097007,73 C93.0331724,73 94.9529032,72.1155012 96.2531513,70.5841271 C97.5383153,68.4540239 98.1381469,65.9886077 97.9732251,63.5143142 C98.1381469,61.0400207 97.5383153,58.5746045 96.2531513,56.4445013 C95.0550988,54.7904422 93.0727956,53.8702722 91.0189484,54.0148239 L91.0189484,54.0148239 Z" id="Path"></path>
                <path d="M116.978806,31.5857161 C112.978568,31.0970533 111.370996,29.4243227 109.912965,25.7405567 C105.719216,13.1738486 95.1967964,3.79657895 82.2851549,1.11946699 C57.7603327,-4.51895049 35.9085666,11.7196918 33.6841353,36.8294444 C33.3663594,40.3816474 32.0017923,41.6784834 28.5623355,41.8288412 C25.9340709,41.9538667 23.3416162,42.4929454 20.8796359,43.4263928 C6.4272829,48.6378677 -2.1868101,63.5624931 0.483281392,78.7647565 C3.15337289,93.9670199 16.3305332,105.022385 31.6840164,104.941528 C44.9932187,105.073091 58.3398064,104.941528 71.6677014,104.941528 L112.959875,104.941528 C132.100295,104.537537 147.73307,89.4406421 148.905937,70.2276706 C150.291906,50.8226113 136.205486,33.7735763 116.978806,31.5857161 L116.978806,31.5857161 Z M70.5835248,73.6483105 C69.9596996,75.200781 69.0169771,76.6033694 67.8170052,77.7643553 C66.5315938,78.987965 65.0024709,79.9232586 63.3307572,80.5083851 C61.3239863,81.2065787 59.2105537,81.5437741 57.0873955,81.5045055 C54.7025452,81.5624306 52.3307348,81.1340696 50.1150184,80.245259 C48.224719,79.478671 46.5451376,78.2668972 45.2175311,76.7118507 C43.8669587,75.1270357 42.8723141,73.2679248 42.3014699,71.2613804 C41.6299078,68.9931801 41.30222,66.6361568 41.3294495,64.2697428 C41.306542,61.8529129 41.6404151,59.4460404 42.3201626,57.1277473 C42.9093377,55.0529251 43.9357545,53.1299082 45.3296873,51.4893298 C46.7087207,49.9269182 48.4126109,48.6885448 50.3206381,47.8619479 C52.5441279,46.9511751 54.9301086,46.5097584 57.3304006,46.5651119 C60.7735232,46.3579332 64.1706003,47.4428943 66.8636775,49.6098573 C69.291681,51.8894408 70.8408333,54.958061 71.2377693,58.2742255 L62.3400442,59.3831143 C62.1907588,58.7048566 61.9908027,58.0388871 61.7418778,57.3908734 C61.5065816,56.7945427 61.1644471,56.2466878 60.732472,55.7745271 C60.3049425,55.3097839 59.7818926,54.944216 59.1996706,54.7032278 C58.5126117,54.4463547 57.7827325,54.3251078 57.0500101,54.346128 C52.8254599,54.346128 50.7131848,57.5976154 50.7131848,64.0630008 C50.6669792,65.5902465 50.8050661,67.117493 51.1244242,68.6113242 C51.3564426,69.7031262 51.8011559,70.7379372 52.4329132,71.6560697 C52.9537435,72.3843075 53.6566079,72.9613382 54.4704175,73.3288002 C55.2993334,73.6751674 56.1898209,73.8478416 57.0873955,73.8362578 C60.3274635,73.8362578 62.1967335,72.0695536 62.6952054,68.5361453 L71.6863941,68.5361453 C71.6047569,70.2900988 71.2319936,72.0179805 70.5835248,73.6483105 L70.5835248,73.6483105 Z M106.398738,71.2613804 C105.750534,73.30908 104.673314,75.1932885 103.239671,76.7870296 C101.812718,78.3345324 100.05508,79.5362494 98.099179,80.3016431 C95.8725442,81.147579 93.5067753,81.5620945 91.1268019,81.5233003 C88.7723557,81.5681635 86.4310998,81.1598756 84.2291957,80.3204379 C82.3104548,79.5696773 80.5805798,78.4015754 79.163474,76.8997979 C77.7514339,75.3324239 76.6873048,73.4808561 76.0417931,71.4681224 C75.3183089,69.1325444 74.9650536,66.6970014 74.995002,64.250948 C74.9584525,61.7769817 75.3246812,59.3136664 76.0791785,56.9585948 C76.7208061,54.8743603 77.7978625,52.9519906 79.2382448,51.3201773 C80.6662944,49.7784843 82.4240236,48.5831314 84.3787373,47.8243584 C86.6016651,46.963049 88.9692077,46.5418408 91.3511143,46.5839066 C93.7051394,46.5445344 96.045374,46.9526441 98.2487206,47.786769 C100.173921,48.5428463 101.905252,49.7247787 103.314442,51.2449984 C104.730232,52.8096204 105.794855,54.6620479 106.436123,56.6766739 C107.159491,59.0058279 107.512767,61.435167 107.482914,63.8750535 C107.527683,66.3803379 107.16138,68.8759064 106.398738,71.2613804 Z M119.128466,86.2971604 L110.941064,86.2971604 L110.941064,83.7786672 L113.595427,81.6924528 L114.604833,80.8466902 C114.848615,80.6352507 115.079572,80.4093088 115.296463,80.1700801 C115.461569,79.9944523 115.594467,79.7908366 115.68901,79.5686489 C115.76296,79.363791 115.800911,79.1475621 115.801166,78.9296282 C115.801166,78.3469917 115.539468,78.0650709 115.016072,78.0650709 C114.766238,78.0515428 114.524385,78.1557597 114.361828,78.3469917 C114.168352,78.6314802 114.052348,78.9619532 114.025359,79.3055227 L110.716751,79.0048071 C110.778654,77.9531258 111.248482,76.9678488 112.02524,76.2607773 C112.925056,75.5561555 114.044849,75.1963991 115.184307,75.2458621 C116.270469,75.1814092 117.343972,75.5078831 118.212524,76.1668036 C118.915517,76.8008334 119.299527,77.7178361 119.259315,78.6665021 C119.280389,79.3321015 119.097691,79.9881567 118.73592,80.5459746 C118.324619,81.1085173 117.861483,81.6308159 117.35266,82.1059367 L116.418025,82.9329046 L115.707702,83.4967464 L119.446242,83.4967464 L119.128466,86.2971604 Z" id="Shape"></path>
            </g>
        </g>
    </g>
</svg>