<?xml version="1.0" encoding="UTF-8"?>
<svg width="80px" height="60px" viewBox="0 0 80 60" version="1.1" xmlns="http://www.w3.org/2000/svg" xmlns:xlink="http://www.w3.org/1999/xlink">
    <!-- Generator: Sketch 51.2 (57519) - http://www.bohemiancoding.com/sketch -->
    <title>cio-logo</title>
    <desc>Created with Sketch.</desc>
    <defs></defs>
    <g id="Page-1" stroke="none" stroke-width="1" fill="none" fill-rule="evenodd">
        <g id="cio-logo" fill="#999999" fill-rule="nonzero">
            <g id="Shape">
                <polygon points="32.4324324 2.61538462 37.0594595 2.61538462 37.0594595 44.1538462 32.4324324 44.1538462 32.4324324 45.3846154 47.7405405 45.3846154 47.7405405 44.1538462 43.0702703 44.1538462 43.0702703 2.61538462 47.7405405 2.61538462 47.7405405 1.38461538 32.4324324 1.38461538"></polygon>
                <path d="M17.6432432,45.025641 C8.3027027,45.025641 7.09189189,33.9487179 7.09189189,20.4102564 C7.09189189,11.8974359 7.74054054,1.48717949 17.0810811,1.48717949 C27.1567568,1.48717949 28.4108108,14 28.4108108,14 L29.5783784,14 L29.3621622,1.28205128 L28.5837838,1.28205128 L25.9027027,4.35897436 C25.9027027,4.35897436 22.6594595,0.461538462 16.7783784,0.461538462 C6.96216216,0.512820513 0,11.1282051 0,24 C0,36.1025641 7.52432432,46.4102564 17.5567568,46.4102564 C23.3513514,46.4102564 27.5027027,42.8205128 27.5027027,42.8205128 L29.6648649,45.4871795 L30.4,45.4871795 L30.4,32.5128205 L29.3189189,32.5128205 C29.3189189,32.5128205 27.6756757,45.025641 17.6432432,45.025641 Z M63.7837838,0.923076923 C54.0108108,0.923076923 47.827027,13.6923077 47.827027,23.6410256 C47.827027,33.5897436 54.0108108,46.4102564 63.7837838,46.4102564 C73.5567568,46.4102564 79.7405405,33.5897436 79.7405405,23.6410256 C79.7405405,13.6923077 73.5567568,0.923076923 63.7837838,0.923076923 Z M63.7837838,45.2307692 C54.1837838,45.2307692 54.7027027,34.1025641 54.7027027,23.6410256 C54.7027027,13.1794872 54.1837838,1.8974359 63.7837838,1.8974359 C73.3837838,1.8974359 72.8648649,13.1794872 72.8648649,23.6410256 C72.8648649,34.1025641 73.3837838,45.2307692 63.7837838,45.2307692 Z"></path>
            </g>
            <g id="from-idg" transform="translate(23.351351, 51.794872)">
                <path d="M0.0432432432,0.615384615 L5.44864865,0.615384615 L5.44864865,1.48717949 L0.908108108,1.48717949 L0.908108108,3.79487179 L5.31891892,3.79487179 L5.31891892,4.66666667 L0.908108108,4.66666667 L0.908108108,7.84615385 L0.0432432432,7.84615385 L0.0432432432,0.615384615 Z M7.13513514,0.615384615 L11.2864865,0.615384615 C11.8054054,0.615384615 12.4540541,0.615384615 13.0162162,1.17948718 C13.2324324,1.38461538 13.5783784,1.84615385 13.5783784,2.71794872 C13.5783784,4.46153846 12.3243243,4.66666667 11.9351351,4.76923077 L14.1837838,7.79487179 L13.0594595,7.79487179 L10.9837838,4.92307692 L8.04324324,4.92307692 L8.04324324,7.79487179 L7.17837838,7.79487179 L7.17837838,0.615384615 L7.13513514,0.615384615 Z M8,1.48717949 L8,4.1025641 L11.027027,4.1025641 C11.5027027,4.1025641 12.1081081,4.1025641 12.4540541,3.53846154 C12.627027,3.28205128 12.6702703,3.02564103 12.6702703,2.76923077 C12.6702703,2.51282051 12.627027,2.20512821 12.4972973,2 C12.2378378,1.48717949 11.7621622,1.48717949 11.372973,1.48717949 L8,1.48717949 Z M22.572973,4.30769231 C22.572973,6.76923077 20.8432432,8 18.8972973,8 C17.9891892,8 17.1243243,7.79487179 16.3891892,7.17948718 C15.7837838,6.66666667 15.1351351,5.79487179 15.1351351,4.25641026 C15.1351351,1.58974359 16.9945946,0.358974359 18.8108108,0.358974359 C20.972973,0.461538462 22.572973,1.94871795 22.572973,4.30769231 Z M16,4.25641026 C16,4.82051282 16.1297297,5.53846154 16.5189189,6.1025641 C17.0810811,6.87179487 17.9891892,7.12820513 18.8540541,7.12820513 C21.1027027,7.12820513 21.6648649,5.43589744 21.6648649,4.20512821 C21.6648649,2.30769231 20.3675676,1.23076923 18.7243243,1.28205128 C17.4702703,1.33333333 16,2.1025641 16,4.25641026 Z M24.3459459,0.615384615 L25.5567568,0.615384615 L27.4594595,5.33333333 C27.7621622,6.1025641 27.8054054,6.25641026 28.0648649,6.97435897 C28.2810811,6.30769231 28.3243243,6.1025641 28.627027,5.38461538 L30.572973,0.666666667 L31.7405405,0.666666667 L31.7405405,7.8974359 L30.9189189,7.8974359 L30.9189189,3.74358974 C30.9189189,2.35897436 30.9189189,2.1025641 31.0054054,1.53846154 C30.8324324,2.1025641 30.7891892,2.20512821 30.5297297,2.82051282 L28.4540541,7.8974359 L27.6756757,7.8974359 L25.772973,3.23076923 C25.427027,2.41025641 25.3405405,2.20512821 25.1675676,1.58974359 C25.2108108,2.15384615 25.2108108,2.30769231 25.2540541,3.43589744 L25.2540541,7.94871795 L24.4324324,7.94871795 L24.4324324,0.615384615 L24.3459459,0.615384615 Z M37.0594595,0.615384615 L37.9675676,0.615384615 L37.9675676,7.84615385 L37.0594595,7.84615385 L37.0594595,0.615384615 Z M40.2162162,0.615384615 L43.2432432,0.615384615 C43.9351351,0.615384615 44.7567568,0.615384615 45.5783784,1.43589744 C46.0540541,1.8974359 46.572973,2.82051282 46.572973,4.20512821 C46.572973,5.53846154 46.0540541,6.41025641 45.7081081,6.82051282 C44.8432432,7.84615385 43.6756757,7.84615385 42.6378378,7.84615385 L40.2162162,7.84615385 L40.2162162,0.615384615 Z M41.0810811,1.43589744 L41.0810811,6.92307692 L42.8540541,6.92307692 C43.6324324,6.92307692 44.5837838,6.87179487 45.2324324,5.8974359 C45.5783784,5.38461538 45.7081081,4.71794872 45.7081081,4.1025641 C45.7081081,3.12820513 45.4054054,2.46153846 45.0594595,2.1025641 C44.4972973,1.43589744 43.8054054,1.43589744 43.2432432,1.43589744 L41.0810811,1.43589744 Z M54.1837838,6.87179487 C54.0540541,6.97435897 53.9675676,7.12820513 53.8378378,7.23076923 C53.4054054,7.64102564 52.5405405,8.05128205 51.5027027,8.05128205 C49.3837838,8.05128205 48,6.30769231 48,4.25641026 C48,3.23076923 48.3459459,2.51282051 48.5189189,2.20512821 C49.0810811,1.23076923 50.2054054,0.512820513 51.6324324,0.512820513 C53.0594595,0.512820513 53.9243243,1.17948718 54.2702703,1.53846154 C54.6162162,1.8974359 54.7459459,2.15384615 54.8756757,2.41025641 L54.0108108,2.71794872 C53.8810811,2.51282051 53.7945946,2.35897436 53.6216216,2.15384615 C53.1027027,1.64102564 52.4108108,1.38461538 51.6756757,1.38461538 C50.1621622,1.38461538 48.9081081,2.41025641 48.9081081,4.20512821 C48.9081081,4.97435897 49.1243243,5.53846154 49.3405405,5.8974359 C49.9891892,7.12820513 51.2864865,7.23076923 51.6756757,7.23076923 C52.2378378,7.23076923 53.1027027,7.02564103 53.7081081,6.25641026 C54.0972973,5.74358974 54.1405405,5.38461538 54.1837838,4.92307692 L51.5027027,4.92307692 L51.5027027,4.05128205 L54.9189189,4.05128205 L54.9189189,7.84615385 L54.1837838,7.84615385 L54.1837838,6.87179487 Z" id="Shape"></path>
            </g>
        </g>
    </g>
</svg>