<?xml version="1.0" encoding="UTF-8"?>
<svg width="112px" height="105px" viewBox="0 0 112 105" version="1.1" xmlns="http://www.w3.org/2000/svg" xmlns:xlink="http://www.w3.org/1999/xlink">
    <title>Artboard 2</title>
    <g id="Page-1" stroke="none" stroke-width="1" fill="none" fill-rule="evenodd">
        <g id="Management-Dashboard-Copy" transform="translate(-94.000000, -475.000000)" fill="#CE9301" fill-rule="nonzero">
            <g id="Artboard-2" transform="translate(94.000000, 475.000000)">
                <path d="M78.2839705,53.206919 C79.0489797,61.167938 77.4096743,68.3016354 70.8524528,73.4997126 C68.7880029,75.0660365 66.5187275,76.3422921 64.1078821,77.292904 C61.6411178,78.2919338 61.4381562,79.556331 62.406127,81.8041481 C65.3412642,88.5788192 73.8032025,92.4812795 81.7967678,90.5300494 C91.8980115,88.0480846 97.5653244,80.9768265 100.93761,71.688971 C109.883533,47.0878612 95.4732584,18.7559994 70.0093815,10.8105902 C44.5455045,2.86518099 17.0832362,17.7569695 10.2606033,43.1073517 C4.63699046,63.0294551 12.5554494,84.299679 29.8385933,95.6969068 C30.369416,96.071543 30.947076,96.3837398 31.3998365,96.7427662 C33.6792516,98.3037503 35.0063084,100.33303 33.2733284,102.986703 C31.5403484,105.640376 29.2609333,105.375008 26.8253939,103.892073 C19.8909753,99.7100865 13.9549432,94.0627348 9.43314438,87.3456418 C-1.42596684,71.0522052 -3.02021662,50.2822464 5.22508786,32.5228896 C13.4703923,14.7635329 30.3664166,2.57537925 49.8225066,0.351996549 C85.9496748,-3.72217201 116.659329,28.1843435 111.413552,64.2586866 C109.399548,77.4490024 104.122546,88.6880881 92.0697482,95.5876379 C76.2699668,104.641346 57.8316843,97.741796 53.0386676,81.4607316 C52.37903,79.8780456 51.0974728,78.6362139 49.4946455,78.0265665 C38.5659429,74.1865456 33.4450652,67.3494351 33.3982279,55.8918117 C33.3982279,52.6449647 33.5231273,49.3825079 33.3982279,46.1356609 C33.257716,43.4039387 34.3661987,42.1863711 37.0359246,42.5453974 C40.7048461,43.0293025 41.5166926,41.1405117 41.2825061,37.9561041 C41.095157,35.2399917 41.2825061,32.4926597 41.2825061,29.7609374 C41.2825061,27.0292152 42.2504769,24.7189587 45.3105137,24.5784701 C48.7452488,24.4067619 49.6039325,26.8887266 49.6507698,29.7765473 C49.6976071,32.6643679 49.7444444,36.0204838 49.6507698,39.142452 C49.6507698,41.5619774 50.6031282,42.6078368 53.1635671,42.5610073 C63.4677724,42.3580793 62.047041,43.7317453 62.1875529,34.1004733 C62.1875529,32.5394892 62.1875529,30.9785051 62.1875529,29.4175209 C62.1875529,26.4516511 63.5302221,24.5628603 66.5121966,24.5628603 C69.4941712,24.5628603 70.5245917,26.5297003 70.5089793,29.2458127 C70.5089793,32.5082695 70.5089793,35.7551165 70.5089793,39.0019634 C70.5089793,41.4214888 71.3676631,42.7951549 73.9437144,42.4673482 C77.4096743,42.0458825 78.6274441,43.5444272 78.3464203,46.9317628 C78.1278462,49.0234815 78.2839705,51.1308101 78.2839705,53.206919 Z" id="Path"></path>
            </g>
        </g>
    </g>
</svg>