<?xml version="1.0" encoding="UTF-8"?>
<svg width="95px" height="25px" viewBox="0 0 95 25" version="1.1" xmlns="http://www.w3.org/2000/svg" xmlns:xlink="http://www.w3.org/1999/xlink">
    <!-- Generator: Sketch 61 (89581) - https://sketch.com -->
    <title>123-Logo</title>
    <desc>Created with Sketch.</desc>
    <g id="Logo" stroke="none" stroke-width="1" fill="none" fill-rule="evenodd">
        <g id="Group">
            <path d="M8.732,8.41094074 L8.732,12.6289407 L6.623,12.6289407 L6.623,24.9869407 L1.543,24.9869407 L1.543,12.6289407 L1.0658141e-13,12.6289407 L1.0658141e-13,8.41194074 L1.544,8.41194074 L1.544,7.78794074 C1.544,5.68794074 2.104,4.15394074 3.223,3.18294074 C4.34,2.21194074 6.098,1.72694074 8.495,1.72694074 L8.495,6.03394074 C7.821,6.03394074 7.341,6.16294074 7.054,6.41994074 C6.767,6.67794074 6.624,7.13294074 6.624,7.78694074 L6.624,8.41094074 L8.732,8.41094074 Z M22.664,16.6989407 C22.664,15.3919407 22.298,14.3869407 21.565,13.6839407 C20.832,12.9809407 19.991,12.6289407 19.04,12.6289407 C18.09,12.6289407 17.248,12.9859407 16.515,13.6989407 C15.782,14.4119407 15.416,15.4219407 15.416,16.7289407 C15.416,18.0359407 15.782,19.0409407 16.516,19.7439407 C17.248,20.4469407 18.09,20.7989407 19.04,20.7989407 C19.99,20.7989407 20.832,20.4419407 21.565,19.7289407 C22.298,19.0159407 22.665,18.0059407 22.665,16.6989407 L22.664,16.6989407 Z M10.247,16.7289407 C10.247,14.2529407 10.98,12.2189407 12.445,10.6239407 C13.911,9.02994074 15.698,8.23294074 17.807,8.23294074 C19.917,8.23294074 21.535,9.01494074 22.664,10.5789407 L22.664,8.41194074 L27.744,8.41194074 L27.744,24.9879407 L22.664,24.9879407 L22.664,22.5819407 C21.436,24.3249407 19.793,25.1959407 17.734,25.1959407 C15.674,25.1959407 13.911,24.4039407 12.445,22.8199407 C10.98,21.2349407 10.247,19.2049407 10.247,16.7299407 L10.247,16.7289407 Z M30.982,16.6989407 C30.982,14.1239407 31.749,12.0689407 33.284,10.5349407 C34.819,8.99994074 36.804,8.23294074 39.24,8.23294074 C41.26,8.23294074 42.973,8.73294074 44.38,9.73294074 C45.785,10.7329407 46.716,12.1629407 47.171,14.0249407 L41.676,14.0249407 C41.201,13.0349407 40.423,12.5399407 39.344,12.5399407 C38.264,12.5399407 37.463,12.9209407 36.938,13.6839407 C36.413,14.4459407 36.151,15.4509407 36.151,16.6989407 C36.151,17.9469407 36.413,18.9519407 36.938,19.7139407 C37.463,20.4769407 38.23,20.8579407 39.24,20.8579407 C39.874,20.8579407 40.369,20.7489407 40.725,20.5309407 C41.082,20.3129407 41.399,19.9269407 41.675,19.3729407 L47.171,19.3729407 C46.716,21.1549407 45.775,22.5709407 44.349,23.6209407 C42.924,24.6709407 41.22,25.1949407 39.24,25.1949407 C36.804,25.1949407 34.819,24.4229407 33.284,22.8779407 C31.749,21.3329407 30.982,19.2739407 30.982,16.6989407 Z M50.023,24.9869407 L50.023,8.41194074 L55.103,8.41194074 L55.103,24.9879407 L50.023,24.9879407 L50.023,24.9869407 Z M59.559,24.9869407 L59.559,3.00394074 L64.639,3.00394074 L64.639,24.9869407 L59.559,24.9869407 Z M69.094,24.9869407 L69.094,8.41194074 L74.174,8.41194074 L74.174,24.9879407 L69.094,24.9879407 L69.094,24.9869407 Z M89.591,16.6989407 C89.591,15.3519407 89.245,14.3269407 88.551,13.6239407 C87.858,12.9209407 87.037,12.5699407 86.086,12.5699407 C85.136,12.5699407 84.319,12.9209407 83.636,13.6239407 C82.952,14.3269407 82.61,15.3519407 82.61,16.6989407 C82.61,18.0459407 82.962,19.0759407 83.665,19.7889407 C84.368,20.5019407 85.195,20.8589407 86.145,20.8589407 C87.096,20.8589407 87.908,20.5019407 88.581,19.7889407 C89.255,19.0759407 89.591,18.0459407 89.591,16.6989407 Z M77.441,16.6689407 C77.441,14.1149407 78.273,12.0689407 79.937,10.5349407 C81.6,8.99994074 83.66,8.23194074 86.116,8.23194074 C88.571,8.23194074 90.626,8.99894074 92.28,10.5339407 C93.933,12.0689407 94.76,14.1139407 94.76,16.6679407 C94.76,19.2229407 93.938,21.2829407 92.294,22.8479407 C90.651,24.4119407 88.601,25.1939407 86.145,25.1939407 C83.69,25.1939407 81.625,24.4119407 79.952,22.8469407 C78.278,21.2829407 77.442,19.2229407 77.442,16.6679407 L77.441,16.6689407 Z" id="Shape" fill="#372668"></path>
            <polygon id="Path" fill="#FF3184" fill-rule="nonzero" points="50.107227 5.08 50.107227 -3.64153152e-14 55.1477854 -3.64153152e-14 55.1477854 5.08"></polygon>
            <polygon id="Path" fill="#39B3C2" fill-rule="nonzero" points="69.1536108 5.08 69.1536108 -3.64153152e-14 74.1941693 -3.64153152e-14 74.1941693 5.08"></polygon>
        </g>
    </g>
</svg>