<svg xmlns="http://www.w3.org/2000/svg" width="43" height="40" viewBox="0 0 43 40">
    <g fill="none" fill-rule="evenodd">
        <path fill="#E6D5FF" d="M29.769 19.433l13.848 5.146c1.554.577 2.345 2.304 1.768 3.857-.157.422-.407.804-.731 1.116l-18.23 17.56c-.842.81-2.078 1.058-3.167.636l-13.376-5.19c-1.544-.599-2.31-2.337-1.711-3.882.153-.395.388-.753.69-1.05l17.757-17.517c.83-.818 2.06-1.082 3.152-.676z" transform="translate(-3 -8)"/>
        <path fill="#542EAC" d="M25.742 8.898l14.67 5.451c1.553.578 2.344 2.305 1.767 3.858-.157.422-.407.803-.731 1.115L22.277 37.788c-.842.81-2.077 1.059-3.166.636L4.94 32.926c-1.545-.6-2.312-2.337-1.712-3.882.153-.395.388-.753.69-1.05L22.59 9.574c.83-.818 2.06-1.082 3.152-.676z" transform="translate(-3 -8)"/>
    </g>
</svg>
