<svg xmlns="http://www.w3.org/2000/svg" width="36" height="34" viewBox="0 0 36 34">
    <g fill="none" fill-rule="evenodd">
        <path fill="#FFC9E5" d="M24.116 6.38l13.23 22.724c.834 1.431.35 3.268-1.083 4.102-.458.266-.979.407-1.51.407H8.294c-1.657 0-3-1.343-3-3 0-.53.14-1.051.407-1.51L18.93 6.38c.834-1.432 2.671-1.917 4.103-1.083.448.261.822.634 1.083 1.083z" transform="translate(-2)"/>
        <path fill="#FF0084" d="M21.106 0h9.815c1.657 0 3 1.343 3 3 0 .525-.137 1.04-.399 1.495l-15.87 27.613c-.535.931-1.527 1.505-2.601 1.505h-9.86c-1.656 0-3-1.343-3-3 0-.526.139-1.042.401-1.498L18.507 1.502C19.042.572 20.033 0 21.106 0z" transform="translate(-2)"/>
    </g>
</svg>
