<?xml version="1.0" encoding="UTF-8"?>
<svg width="122px" height="114px" viewBox="0 0 122 114" version="1.1" xmlns="http://www.w3.org/2000/svg" xmlns:xlink="http://www.w3.org/1999/xlink">
    <!-- Generator: Sketch 52.6 (67491) - http://www.bohemiancoding.com/sketch -->
    <title>Group 14</title>
    <desc>Created with Sketch.</desc>
    <g id="Page-1" stroke="none" stroke-width="1" fill="none" fill-rule="evenodd" opacity="0.800000012">
        <g id="Future_Proof_Website1.0" transform="translate(-572.000000, -3528.000000)" fill-rule="nonzero">
            <g id="Group-14" transform="translate(570.000000, 3526.000000)">
                <path d="M2.24174785,50.7795904 L44.8752615,50.7795904 C48.18897,50.7795904 50.8752615,53.4658819 50.8752615,56.7795904 L50.8752615,56.7795904 C50.8752615,60.0932989 48.18897,62.7795904 44.8752615,62.7795904 L2.24174785,62.7795904 C-1.07196065,62.7795904 -3.75825215,60.0932989 -3.75825215,56.7795904 L-3.75825215,56.7795904 C-3.75825215,53.4658819 -1.07196065,50.7795904 2.24174785,50.7795904 Z" id="Rectangle-12" fill="#39B2C2" transform="translate(23.558505, 56.779590) rotate(-225.000000) translate(-23.558505, -56.779590) "></path>
                <rect id="Rectangle-7" fill="#39B2C2" transform="translate(32.000000, 41.000000) rotate(-630.000000) translate(-32.000000, -41.000000) " x="26" y="27.5" width="12" height="27" rx="6"></rect>
                <rect id="Rectangle-7" fill="#39B2C2" transform="translate(39.500000, 48.500000) scale(-1, 1) rotate(-360.000000) translate(-39.500000, -48.500000) " x="33.5" y="35" width="12" height="27" rx="6"></rect>
                <path d="M66.3079817,78.3380951 L108.941495,78.3380951 C112.255204,78.3380951 114.941495,81.0243866 114.941495,84.3380951 L114.941495,84.3380951 C114.941495,87.6518036 112.255204,90.3380951 108.941495,90.3380951 L66.3079817,90.3380951 C62.9942732,90.3380951 60.3079817,87.6518036 60.3079817,84.3380951 L60.3079817,84.3380951 C60.3079817,81.0243866 62.9942732,78.3380951 66.3079817,78.3380951 Z" id="Rectangle-12" fill="#FF3184" transform="translate(87.624738, 84.338095) rotate(-225.000000) translate(-87.624738, -84.338095) "></path>
                <path d="M62.5010733,103.46176 L62.5010733,103.46176 C65.8147818,103.46176 68.5010733,106.148052 68.5010733,109.46176 L68.5010733,109.46176 C68.5010733,112.775469 65.8147818,115.46176 62.5010733,115.46176 L62.5010733,115.46176 C59.1873648,115.46176 56.5010733,112.775469 56.5010733,109.46176 L56.5010733,109.46176 C56.5010733,106.148052 59.1873648,103.46176 62.5010733,103.46176 Z" id="Rectangle-12" fill="#FF3184" transform="translate(62.501073, 109.461760) rotate(-225.000000) translate(-62.501073, -109.461760) "></path>
                <rect id="Rectangle-7" fill="#FF3184" transform="translate(95.566234, 68.779590) rotate(-630.000000) translate(-95.566234, -68.779590) " x="89.5662338" y="55.2795904" width="12" height="27" rx="6"></rect>
                <rect id="Rectangle-7" fill="#FF3184" transform="translate(103.066234, 76.279590) scale(-1, 1) rotate(-360.000000) translate(-103.066234, -76.279590) " x="97.0662338" y="62.7795904" width="12" height="27" rx="6"></rect>
                <path d="M28.6724657,39.0107775 L130.672466,39.0107775 C133.986174,39.0107775 136.672466,41.697069 136.672466,45.0107775 L136.672466,45.0107775 C136.672466,48.324486 133.986174,51.0107775 130.672466,51.0107775 L28.6724657,51.0107775 C25.3587572,51.0107775 22.6724657,48.324486 22.6724657,45.0107775 L22.6724657,45.0107775 C22.6724657,41.697069 25.3587572,39.0107775 28.6724657,39.0107775 Z" id="Rectangle-12" fill="#FFCE0F" transform="translate(79.672466, 45.010777) rotate(-225.000000) translate(-79.672466, -45.010777) "></path>
                <path d="M19.1244826,91.9522705 L34.3374628,91.9522705 C37.6511713,91.9522705 40.3374628,94.638562 40.3374628,97.9522705 L40.3374628,97.9522705 C40.3374628,101.265979 37.6511713,103.95227 34.3374628,103.95227 L19.1244826,103.95227 C15.8107741,103.95227 13.1244826,101.265979 13.1244826,97.9522705 L13.1244826,97.9522705 C13.1244826,94.638562 15.8107741,91.9522705 19.1244826,91.9522705 Z" id="Rectangle-12" fill="#FFCE0F" transform="translate(26.730973, 97.952270) rotate(-225.000000) translate(-26.730973, -97.952270) "></path>
                <rect id="Rectangle-7" fill="#FFCE0F" transform="translate(109.624738, 8.441495) rotate(-630.000000) translate(-109.624738, -8.441495) " x="103.624738" y="-5.05850468" width="12" height="27" rx="6"></rect>
                <rect id="Rectangle-7" fill="#FFCE0F" transform="translate(117.124738, 15.941495) scale(-1, 1) rotate(-360.000000) translate(-117.124738, -15.941495) " x="111.124738" y="2.44149532" width="12" height="27" rx="6"></rect>
            </g>
        </g>
    </g>
</svg>