<?xml version="1.0" encoding="UTF-8"?>
<svg width="121px" height="120px" viewBox="0 0 121 120" version="1.1" xmlns="http://www.w3.org/2000/svg" xmlns:xlink="http://www.w3.org/1999/xlink">
    <!-- Generator: Sketch 52.6 (67491) - http://www.bohemiancoding.com/sketch -->
    <title>Group 13</title>
    <desc>Created with Sketch.</desc>
    <g id="Page-1" stroke="none" stroke-width="1" fill="none" fill-rule="evenodd" opacity="0.800000012">
        <g id="Future_Proof_Website1.0" transform="translate(-195.000000, -3528.000000)" fill-rule="nonzero">
            <g id="Group-13" transform="translate(195.000000, 3525.000000)">
                <rect id="Rectangle-12" fill="#39B2C2" x="0" y="57" width="120" height="12" rx="6"></rect>
                <rect id="Rectangle-12" fill="#39B2C2" transform="translate(60.000000, 90.000000) rotate(-270.000000) translate(-60.000000, -90.000000) " x="27" y="84" width="66" height="12" rx="6"></rect>
                <rect id="Rectangle-12" fill="#39B2C2" transform="translate(60.000000, 19.000000) rotate(-270.000000) translate(-60.000000, -19.000000) " x="44" y="13" width="32" height="12" rx="6"></rect>
                <rect id="Rectangle-7" fill="#FFCE0F" transform="translate(106.506097, 9.506097) rotate(-630.000000) translate(-106.506097, -9.506097) " x="100.506097" y="-3.99390335" width="12" height="27" rx="6"></rect>
                <rect id="Rectangle-7" fill="#FFCE0F" transform="translate(114.284271, 17.284271) scale(-1, 1) rotate(-360.000000) translate(-114.284271, -17.284271) " x="108.284271" y="3.78427125" width="12" height="27" rx="6"></rect>
                <rect id="Rectangle-12" fill="#FFCE0F" transform="translate(74.433243, 48.566757) rotate(-225.000000) translate(-74.433243, -48.566757) " x="12.8205448" y="42.5667568" width="123.225397" height="12" rx="6"></rect>
                <path d="M21.0660644,94.4812638 L23.9714081,94.4812638 C27.2851166,94.4812638 29.9714081,97.1675553 29.9714081,100.481264 L29.9714081,100.481264 C29.9714081,103.794972 27.2851166,106.481264 23.9714081,106.481264 L21.0660644,106.481264 C17.7523559,106.481264 15.0660644,103.794972 15.0660644,100.481264 L15.0660644,100.481264 C15.0660644,97.1675553 17.7523559,94.4812638 21.0660644,94.4812638 Z" id="Rectangle-12" fill="#FFCE0F" transform="translate(22.518736, 100.481264) rotate(-225.000000) translate(-22.518736, -100.481264) "></path>
                <path d="M35.9786841,69.4175776 L108.856471,69.4175776 C112.170179,69.4175776 114.856471,72.1038691 114.856471,75.4175776 L114.856471,75.4175776 C114.856471,78.7312861 112.170179,81.4175776 108.856471,81.4175776 L35.9786841,81.4175776 C32.6649756,81.4175776 29.9786841,78.7312861 29.9786841,75.4175776 L29.9786841,75.4175776 C29.9786841,72.1038691 32.6649756,69.4175776 35.9786841,69.4175776 Z" id="Rectangle-12" fill="#FF3184" transform="translate(72.417578, 75.417578) rotate(-135.000000) translate(-72.417578, -75.417578) "></path>
                <path d="M18.8873016,25.8873016 L38.8873016,25.8873016 C42.2010101,25.8873016 44.8873016,28.5735931 44.8873016,31.8873016 L44.8873016,31.8873016 C44.8873016,35.2010101 42.2010101,37.8873016 38.8873016,37.8873016 L18.8873016,37.8873016 C15.5735931,37.8873016 12.8873016,35.2010101 12.8873016,31.8873016 L12.8873016,31.8873016 C12.8873016,28.5735931 15.5735931,25.8873016 18.8873016,25.8873016 Z" id="Rectangle-12" fill="#FF3184" transform="translate(28.887302, 31.887302) rotate(-135.000000) translate(-28.887302, -31.887302) "></path>
            </g>
        </g>
    </g>
</svg>