<?xml version="1.0" encoding="UTF-8"?>
<svg width="880px" height="340px" viewBox="0 0 880 340" version="1.1" xmlns="http://www.w3.org/2000/svg" xmlns:xlink="http://www.w3.org/1999/xlink">
    <!-- Generator: Sketch 52.6 (67491) - http://www.bohemiancoding.com/sketch -->
    <title>Path 9</title>
    <desc>Created with Sketch.</desc>
    <defs>
        <path d="M45.4,68 L25.2,68 L25.2,41.5 L0.2,1.3 L22.9,1.3 L35.3,23.8 L47.5,1.3 L70.2,1.3 L45.4,41.5 L45.4,68 Z M104.7,69.2 C84.1,69.2 68.2,55.2 68.2,34.7 C68.2,14.2 84.1,0.2 104.7,0.2 C125.3,0.2 141.2,14.2 141.2,34.7 C141.2,55.2 125.3,69.2 104.7,69.2 Z M104.7,51.4 C114.4,51.4 120.7,44 120.7,34.7 C120.7,25.4 114.4,18 104.7,18 C95,18 88.7,25.4 88.7,34.7 C88.7,44 95,51.4 104.7,51.4 Z M183.4,69.2 C160.9,69.2 150.4,57.1 150.4,40.6 L150.4,1.3 L170.9,1.3 L170.9,39.9 C170.9,46.3 175.1,51.4 183.4,51.4 C191.6,51.4 195.8,46.3 195.8,39.9 L195.8,1.3 L216.3,1.3 L216.3,40.5 C216.3,57.1 205.9,69.2 183.4,69.2 Z M288.8,68 L265.8,68 L256.6,47 L249.3,47 L249.3,68 L229.1,68 L229.1,1.3 L264.7,1.3 C280.3,1.3 288.7,11.7 288.7,24.2 C288.7,35.7 282,41.8 276.7,44.4 L288.8,68 Z M261.6,29.4 C265,29.4 268.2,27.8 268.2,24.1 C268.2,20.5 265,18.9 261.6,18.9 L249.3,18.9 L249.3,29.4 L261.6,29.4 Z M377,68 L326.4,68 L326.4,1.3 L377,1.3 L377,18.9 L346.6,18.9 L346.6,25.5 L376.3,25.5 L376.3,43.1 L346.6,43.1 L346.6,50.4 L377,50.4 L377,68 Z M452.8,68 L429,68 L416.8,47.6 L404.6,68 L380.8,68 L403.1,33.8 L382.3,1.3 L406,1.3 L416.8,20.3 L427.4,1.3 L451.3,1.3 L430.5,33.7 L452.8,68 Z M488.5,69.2 C467.6,69.2 451.8,55.2 451.8,34.7 C451.8,14.1 467.6,0.2 488.5,0.2 C506,0.2 514.8,10.4 518.8,19.6 L501.4,27.7 C499.7,22.5 494.5,18 488.5,18 C478.8,18 472.3,25.4 472.3,34.7 C472.3,44 478.8,51.4 488.5,51.4 C494.5,51.4 499.7,46.9 501.4,41.7 L518.8,49.7 C514.9,58.6 506,69.2 488.5,69.2 Z M572.6,68 L527.1,68 L527.1,1.3 L547.3,1.3 L547.3,50.4 L572.6,50.4 L572.6,68 Z M613.7,69.2 C591.2,69.2 580.7,57.1 580.7,40.6 L580.7,1.3 L601.2,1.3 L601.2,39.9 C601.2,46.3 605.4,51.4 613.7,51.4 C621.9,51.4 626.1,46.3 626.1,39.9 L626.1,1.3 L646.6,1.3 L646.6,40.5 C646.6,57.1 636.2,69.2 613.7,69.2 Z M685.3,69.2 C671.1,69.2 661.4,65 654.3,58.6 L664.8,43.6 C669.8,48.4 677.3,52.2 686.3,52.2 C690.1,52.2 693.7,51.2 693.7,48.6 C693.7,42.2 656.5,48.7 656.5,22.4 C656.5,11.1 665.9,0.3 684.2,0.3 C695.1,0.3 704.9,3.4 712.5,9.6 L701.7,23.9 C695.9,19.5 688.4,17.3 682.1,17.3 C678.1,17.3 677,18.6 677,20.3 C677,26.6 714.1,21.2 714.1,46 C714.1,60.7 703.2,69.2 685.3,69.2 Z M742.9,68 L722.7,68 L722.7,1.3 L742.9,1.3 L742.9,68 Z M798.5,68 L773.1,68 L748.5,1.3 L771.4,1.3 L785.8,46.2 L800.2,1.3 L823.1,1.3 L798.5,68 Z M879.3,68 L828.7,68 L828.7,1.3 L879.3,1.3 L879.3,18.9 L848.9,18.9 L848.9,25.5 L878.6,25.5 L878.6,43.1 L848.9,43.1 L848.9,50.4 L879.3,50.4 L879.3,68 Z M27.6,158 L7.4,158 L7.4,91.3 L43,91.3 C58.6,91.3 67,101.7 67,114.2 C67,126.6 58.6,137 43,137 L27.6,137 L27.6,158 Z M40.4,119.4 C43.8,119.4 46.5,117.7 46.5,114.2 C46.5,110.6 43.8,108.9 40.4,108.9 L27.6,108.9 L27.6,119.4 L40.4,119.4 Z M136,158 L113.1,158 L110.7,150.2 L86.7,150.2 L84.3,158 L61.4,158 L86,91.3 L111.4,91.3 L136,158 Z M105.3,132.6 L98.7,111.1 L92.1,132.6 L105.3,132.6 Z M167.5,159.2 C153.3,159.2 143.6,155 136.5,148.6 L147,133.6 C152,138.4 159.5,142.2 168.5,142.2 C172.3,142.2 175.9,141.2 175.9,138.6 C175.9,132.2 138.7,138.7 138.7,112.4 C138.7,101.1 148.1,90.3 166.4,90.3 C177.3,90.3 187.1,93.4 194.7,99.6 L183.9,113.9 C178.1,109.5 170.6,107.3 164.3,107.3 C160.3,107.3 159.2,108.6 159.2,110.3 C159.2,116.6 196.3,111.2 196.3,136 C196.3,150.7 185.4,159.2 167.5,159.2 Z M230.8,159.2 C216.6,159.2 206.9,155 199.8,148.6 L210.3,133.6 C215.3,138.4 222.8,142.2 231.8,142.2 C235.6,142.2 239.2,141.2 239.2,138.6 C239.2,132.2 202,138.7 202,112.4 C202,101.1 211.4,90.3 229.7,90.3 C240.6,90.3 250.4,93.4 258,99.6 L247.2,113.9 C241.4,109.5 233.9,107.3 227.6,107.3 C223.6,107.3 222.5,108.6 222.5,110.3 C222.5,116.6 259.6,111.2 259.6,136 C259.6,150.7 248.7,159.2 230.8,159.2 Z M330.2,158 L310,158 L310,108.9 L292.1,108.9 L292.1,91.3 L348,91.3 L348,108.9 L330.2,108.9 L330.2,158 Z M388.1,159.2 C367.5,159.2 351.6,145.2 351.6,124.7 C351.6,104.2 367.5,90.2 388.1,90.2 C408.7,90.2 424.6,104.2 424.6,124.7 C424.6,145.2 408.7,159.2 388.1,159.2 Z M388.1,141.4 C397.8,141.4 404.1,134 404.1,124.7 C404.1,115.4 397.8,108 388.1,108 C378.4,108 372.1,115.4 372.1,124.7 C372.1,134 378.4,141.4 388.1,141.4 Z M40.5,249.2 C19.6,249.2 3.8,235.2 3.8,214.7 C3.8,194.1 19.6,180.2 40.5,180.2 C58,180.2 66.8,190.4 70.8,199.6 L53.4,207.7 C51.7,202.5 46.5,198 40.5,198 C30.8,198 24.3,205.4 24.3,214.7 C24.3,224 30.8,231.4 40.5,231.4 C46.5,231.4 51.7,226.9 53.4,221.7 L70.8,229.7 C66.9,238.6 58,249.2 40.5,249.2 Z M112,249.2 C91.4,249.2 75.5,235.2 75.5,214.7 C75.5,194.2 91.4,180.2 112,180.2 C132.6,180.2 148.5,194.2 148.5,214.7 C148.5,235.2 132.6,249.2 112,249.2 Z M112,231.4 C121.7,231.4 128,224 128,214.7 C128,205.4 121.7,198 112,198 C102.3,198 96,205.4 96,214.7 C96,224 102.3,231.4 112,231.4 Z M179.3,231.3 L155.3,231.3 L155.3,216.3 L179.3,216.3 L179.3,231.3 Z M222.8,249.2 C201.9,249.2 186.1,235.2 186.1,214.7 C186.1,194.1 201.9,180.2 222.8,180.2 C240.3,180.2 249.1,190.4 253.1,199.6 L235.7,207.7 C234,202.5 228.8,198 222.8,198 C213.1,198 206.6,205.4 206.6,214.7 C206.6,224 213.1,231.4 222.8,231.4 C228.8,231.4 234,226.9 235.7,221.7 L253.1,229.7 C249.2,238.6 240.3,249.2 222.8,249.2 Z M321.1,248 L298.1,248 L288.9,227 L281.6,227 L281.6,248 L261.4,248 L261.4,181.3 L297,181.3 C312.6,181.3 321,191.7 321,204.2 C321,215.7 314.3,221.8 309,224.4 L321.1,248 Z M293.9,209.4 C297.3,209.4 300.5,207.8 300.5,204.1 C300.5,200.5 297.3,198.9 293.9,198.9 L281.6,198.9 L281.6,209.4 L293.9,209.4 Z M381.8,248 L331.2,248 L331.2,181.3 L381.8,181.3 L381.8,198.9 L351.4,198.9 L351.4,205.5 L381.1,205.5 L381.1,223.1 L351.4,223.1 L351.4,230.4 L381.8,230.4 L381.8,248 Z M460.2,248 L437.3,248 L434.9,240.2 L410.9,240.2 L408.5,248 L385.6,248 L410.2,181.3 L435.6,181.3 L460.2,248 Z M429.5,222.6 L422.9,201.1 L416.3,222.6 L429.5,222.6 Z M494.3,248 L474.1,248 L474.1,198.9 L456.2,198.9 L456.2,181.3 L512.1,181.3 L512.1,198.9 L494.3,198.9 L494.3,248 Z M571.9,248 L521.3,248 L521.3,181.3 L571.9,181.3 L571.9,198.9 L541.5,198.9 L541.5,205.5 L571.2,205.5 L571.2,223.1 L541.5,223.1 L541.5,230.4 L571.9,230.4 L571.9,248 Z M41.9,338 L21.7,338 L21.7,288.9 L3.8,288.9 L3.8,271.3 L59.7,271.3 L59.7,288.9 L41.9,288.9 L41.9,338 Z M133.2,338 L113,338 L113,312.5 L89.1,312.5 L89.1,338 L68.9,338 L68.9,271.3 L89.1,271.3 L89.1,294.9 L113,294.9 L113,271.3 L133.2,271.3 L133.2,338 Z M196.6,338 L146,338 L146,271.3 L196.6,271.3 L196.6,288.9 L166.2,288.9 L166.2,295.5 L195.9,295.5 L195.9,313.1 L166.2,313.1 L166.2,320.4 L196.6,320.4 L196.6,338 Z M255.3,338 L235.1,338 L235.1,271.3 L285.7,271.3 L285.7,288.9 L255.3,288.9 L255.3,295.5 L285,295.5 L285,313.1 L255.3,313.1 L255.3,338 Z M329.3,339.2 C306.8,339.2 296.3,327.1 296.3,310.6 L296.3,271.3 L316.8,271.3 L316.8,309.9 C316.8,316.3 321,321.4 329.3,321.4 C337.5,321.4 341.7,316.3 341.7,309.9 L341.7,271.3 L362.2,271.3 L362.2,310.5 C362.2,327.1 351.8,339.2 329.3,339.2 Z M409.5,338 L389.3,338 L389.3,288.9 L371.4,288.9 L371.4,271.3 L427.3,271.3 L427.3,288.9 L409.5,288.9 L409.5,338 Z M469.5,339.2 C447,339.2 436.5,327.1 436.5,310.6 L436.5,271.3 L457,271.3 L457,309.9 C457,316.3 461.2,321.4 469.5,321.4 C477.7,321.4 481.9,316.3 481.9,309.9 L481.9,271.3 L502.4,271.3 L502.4,310.5 C502.4,327.1 492,339.2 469.5,339.2 Z M574.9,338 L551.9,338 L542.7,317 L535.4,317 L535.4,338 L515.2,338 L515.2,271.3 L550.8,271.3 C566.4,271.3 574.8,281.7 574.8,294.2 C574.8,305.7 568.1,311.8 562.8,314.4 L574.9,338 Z M547.7,299.4 C551.1,299.4 554.3,297.8 554.3,294.1 C554.3,290.5 551.1,288.9 547.7,288.9 L535.4,288.9 L535.4,299.4 L547.7,299.4 Z M635.6,338 L585,338 L585,271.3 L635.6,271.3 L635.6,288.9 L605.2,288.9 L605.2,295.5 L634.9,295.5 L634.9,313.1 L605.2,313.1 L605.2,320.4 L635.6,320.4 L635.6,338 Z M655.3,339.2 C649.5,339.2 644.6,334.3 644.6,328.5 C644.6,322.7 649.5,317.8 655.3,317.8 C661.1,317.8 666,322.7 666,328.5 C666,334.3 661.1,339.2 655.3,339.2 Z" id="path-1"></path>
    </defs>
    <g id="Page-1" stroke="none" stroke-width="1" fill="none" fill-rule="evenodd">
        <g id="Future_Proof_Website1.0" transform="translate(-151.000000, -5578.000000)">
            <g id="Path-9" transform="translate(151.000000, 5578.000000)">
                <mask id="mask-2" fill="white">
                    <use xlink:href="#path-1"></use>
                </mask>
                <use id="Mask" fill="#FF3184" xlink:href="#path-1"></use>
                <path d="M-30,330.5 C48.3333333,110.5 185.833333,77.1666667 382.5,230.5 C579.166667,383.833333 753.5,312.666667 905.5,17 L905.5,-50.5 C846.776972,7.04716784 724.776972,37.8805012 539.5,42 C354.223028,46.1194988 168.889695,22.1194988 -16.5,-30 L-30,330.5 Z" fill="#BB026C" fill-rule="nonzero" mask="url(#mask-2)"></path>
            </g>
        </g>
    </g>
</svg>