<?xml version="1.0" encoding="UTF-8"?>
<svg width="184px" height="125px" viewBox="0 0 184 125" version="1.1" xmlns="http://www.w3.org/2000/svg" xmlns:xlink="http://www.w3.org/1999/xlink">
    <!-- Generator: Sketch 52.6 (67491) - http://www.bohemiancoding.com/sketch -->
    <title>FP_Logo</title>
    <desc>Created with Sketch.</desc>
    <g id="Page-1" stroke="none" stroke-width="1" fill="none" fill-rule="evenodd">
        <g id="Future_Proof_Website1.0" transform="translate(-203.000000, -229.000000)" fill-rule="nonzero">
            <g id="FP_Logo" transform="translate(203.000000, 229.000000)">
                <g id="Group-9">
                    <path d="M24.155976,26.9322627 C22.064996,24.834427 22.064996,21.4331632 24.155976,19.3353275 C26.2469561,17.2374917 29.6371046,17.2374917 31.7280846,19.3353275 L47.8806032,35.5408052 C49.9715834,37.638641 49.9715834,41.0399045 47.8806032,43.1377404 C45.7896231,45.2355762 42.3994748,45.2355762 40.3084947,43.1377404 L24.155976,26.9322627 Z" id="Line-4" fill="#FF3184" transform="translate(36.018290, 31.236534) scale(-1, 1) rotate(-180.000000) translate(-36.018290, -31.236534) "></path>
                    <path d="M23.2527062,9.24311034 C21.1451269,7.12862098 21.1451269,3.70035637 23.2527062,1.58586702 C25.3602855,-0.528622338 28.7773466,-0.528622338 30.8849258,1.58586702 L38.7109618,9.43756193 C40.8185408,11.5520513 40.8185408,14.9803159 38.7109618,17.0948053 C36.6033824,19.2092946 33.1863211,19.2092946 31.078742,17.0948053 L23.2527062,9.24311034 Z" id="Line-4" fill="#FFCE0F"></path>
                    <path d="M24.2411998,17.1494696 C27.2053425,17.1494696 29.6082551,19.5488693 29.6082551,22.5086789 C29.6082551,25.4684884 27.2053425,27.8678881 24.2411998,27.8678881 L5.36705531,27.8678881 C2.4029125,27.8678881 0,25.4684884 0,22.5086789 C0,19.5488693 2.4029125,17.1494696 5.36705531,17.1494696 L24.2411998,17.1494696 Z" id="Line-5" fill="#39B2C2" transform="translate(14.804128, 22.508679) scale(-1, 1) rotate(-180.000000) translate(-14.804128, -22.508679) "></path>
                </g>
                <g id="Group-23" transform="translate(0.000000, 54.000000)" fill="#FFFFFF">
                    <g id="Group-2">
                        <path d="M20.6515247,7.14069189 L9.25686642,7.14069189 L9.25686642,13.3887973 L19.5834247,13.3887973 C21.5488633,13.3887973 23.1421661,14.9872956 23.1421661,16.9591432 C23.1421661,18.9309908 21.5488633,20.5294892 19.5834247,20.5294892 L9.25686642,20.5294892 L9.25686642,26.6416304 C9.25686642,29.2061789 7.1846463,31.2851564 4.62843323,31.2851564 C2.07222013,31.2851564 1.96102732e-15,29.2061789 1.64798151e-15,26.6416304 L3.64015021e-23,3.10252101 C-2.09158098e-16,1.38904597 1.38453119,-2.13571658e-15 3.09243697,-2.45047684e-15 L20.6515247,-3.55271372e-15 C22.6169633,-3.91493625e-15 24.2102661,1.59849833 24.2102661,3.57034593 C24.2102661,5.54219355 22.6169633,7.14069189 20.6515247,7.14069189 Z M57.0048913,4.64352594 L57.0048913,18.0748763 C57.0048913,26.3759306 51.3528621,31.6868202 42.4520291,31.6868202 C33.5066916,31.6868202 27.6766461,26.3759306 27.6766461,18.0748763 L27.6766461,4.64352594 C27.6766461,2.07897737 29.7488662,4.71099884e-16 32.3050792,-4.5397746e-23 C34.8612925,-4.71099974e-16 36.9335126,2.07897737 36.9335126,4.64352594 L36.9335126,18.0748763 C36.9335126,21.6898516 39.3812417,23.9213178 42.4965333,23.9213178 C45.5673208,23.9213178 47.7480247,21.7344809 47.7480247,18.0748763 L47.7480247,4.64352594 C47.7480247,2.07897737 49.8202448,2.74887657e-15 52.3764578,-4.5397746e-23 C54.9326709,-4.71099974e-16 57.0048913,2.07897737 57.0048913,4.64352594 Z M83.7486013,7.40846785 L78.3619457,7.40846785 L78.3619457,26.6193058 C78.3619457,29.1961839 76.279763,31.2851564 73.7112603,31.2851564 C71.1427579,31.2851564 69.060575,29.1961839 69.060575,26.6193058 L69.060575,7.40846785 L63.7184238,7.40846785 C61.6792811,7.40846785 60.0262294,5.75002582 60.0262294,3.70423392 C60.0262294,1.65844201 61.6792811,-2.07467097e-15 63.7184238,-2.45047684e-15 L83.7486013,-3.55271372e-15 C85.7877438,-3.9285196e-15 87.4407954,1.65844201 87.4407954,3.70423392 C87.4407954,5.75002582 85.7877438,7.40846785 83.7486013,7.40846785 Z M119.790379,4.64352594 L119.790379,18.0748763 C119.790379,26.3759306 114.13835,31.6868202 105.237517,31.6868202 C96.2921794,31.6868202 90.4621339,26.3759306 90.4621339,18.0748763 L90.4621339,4.64352594 C90.4621339,2.07897737 92.5343539,4.71099884e-16 95.090567,-4.5397746e-23 C97.64678,-4.71099974e-16 99.7190004,2.07897737 99.7190004,4.64352594 L99.7190004,18.0748763 C99.7190004,21.6898516 102.16673,23.9213178 105.282021,23.9213178 C108.352808,23.9213178 110.533513,21.7344809 110.533513,18.0748763 L110.533513,4.64352594 C110.533513,2.07897737 112.605733,4.71099884e-16 115.161946,-4.5397746e-23 C117.718159,-4.71099974e-16 119.790379,2.07897737 119.790379,4.64352594 Z M179.996217,7.14069189 L167.310938,7.14069189 L167.310938,12.0499176 L178.483075,12.0499176 C180.448514,12.0499176 182.041817,13.6484159 182.041817,15.6202635 C182.041817,17.5921111 180.448514,19.1906094 178.483075,19.1906094 L167.310938,19.1906094 L167.310938,24.1444644 L180.441259,24.1444644 C182.406697,24.1444644 184,25.7429628 184,27.7148104 C184,29.686658 182.406697,31.2851564 180.441259,31.2851564 L161.146509,31.2851564 C159.438603,31.2851564 158.054072,29.8961104 158.054072,28.1826353 L158.054072,3.10252101 C158.054072,1.38904597 159.438603,-1.07123854e-14 161.146509,-1.10271456e-14 L179.996217,-1.59872116e-14 C181.961655,-1.28467291e-14 183.554958,1.59849833 183.554958,3.57034593 C183.554958,5.54219355 181.961655,7.14069189 179.996217,7.14069189 Z M3.09243697,39.0506588 L14.1523247,39.0506588 C22.2075786,39.0506588 26.8360118,43.0672979 26.8360118,50.1633604 C26.8360118,57.6164575 22.2075786,61.9008728 14.1523247,61.9008728 L9.25686642,61.9008728 L9.25686642,65.692289 C9.25686642,68.2568378 7.1846463,70.3358151 4.62843323,70.3358151 C2.07222013,70.3358151 -8.0747219e-15,68.2568378 -1.0658141e-14,65.692289 L-7.36217807e-15,42.1531798 C-7.5713362e-15,40.4397046 1.38453119,39.0506588 3.09243697,39.0506588 Z M9.25686642,46.1913507 L9.25686642,54.7601808 L13.707283,54.7601808 C16.4665413,54.7601808 18.0686912,53.2427837 18.0686912,50.4311365 C18.0686912,47.7087475 16.4665413,46.1913507 13.707283,46.1913507 L9.25686642,46.1913507 Z M79.1185166,38.7828827 C88.909433,38.7828827 96.1191078,45.5219108 96.1191078,54.6709222 C96.1191078,63.8645632 88.909433,70.737479 79.1185166,70.737479 C69.3276001,70.737479 62.1179253,63.9091923 62.1179253,54.6709222 C62.1179253,45.4772813 69.3276001,38.7828827 79.1185166,38.7828827 Z M79.2520291,46.5483851 C75.1131418,46.5483851 71.5973125,49.9848432 71.5973125,54.7155517 C71.5973125,59.4462599 75.1576457,62.9719766 79.2520291,62.9719766 C83.3464123,62.9719766 86.6397207,59.4462599 86.6397207,54.7155517 C86.6397207,49.9848432 83.3464123,46.5483851 79.2520291,46.5483851 Z M115.161946,38.7828827 C124.952862,38.7828827 132.162537,45.5219108 132.162537,54.6709222 C132.162537,63.8645632 124.952862,70.737479 115.161946,70.737479 C105.371029,70.737479 98.1613544,63.9091923 98.1613544,54.6709222 C98.1613544,45.4772813 105.371029,38.7828827 115.161946,38.7828827 Z M115.295458,46.5483851 C111.156571,46.5483851 107.640742,49.9848432 107.640742,54.7155517 C107.640742,59.4462599 111.201075,62.9719766 115.295458,62.9719766 C119.389841,62.9719766 122.68315,59.4462599 122.68315,54.7155517 C122.68315,49.9848432 119.389841,46.5483851 115.295458,46.5483851 Z M156.9035,46.1913507 L145.508842,46.1913507 L145.508842,52.439456 L155.8354,52.439456 C157.800839,52.439456 159.394141,54.0379543 159.394141,56.0098018 C159.394141,57.9816497 157.800839,59.580148 155.8354,59.580148 L145.508842,59.580148 L145.508842,65.692289 C145.508842,68.2568378 143.436622,70.3358151 140.880408,70.3358151 C138.324195,70.3358151 136.251975,68.2568378 136.251975,65.692289 L136.251975,42.1531798 C136.251975,40.4397046 137.636507,39.0506588 139.344412,39.0506588 L156.9035,39.0506588 C158.868939,39.0506588 160.462241,40.649157 160.462241,42.6210046 C160.462241,44.5928525 158.868939,46.1913507 156.9035,46.1913507 Z" id="FUTURE-PROOF"></path>
                    </g>
                    <path d="M141.711111,0 L142.644444,0 C148.915944,0 154,5.16632127 154,11.5393013 C154,15.5742921 151.961972,19.1255734 148.874894,21.1881637 L151.813619,24.1744416 C153.575318,25.9646463 153.575318,28.8671416 151.813619,30.6573463 C150.051921,32.4475512 147.195643,32.4475512 145.433945,30.6573463 L138.834282,23.9508931 C138.570274,23.6826135 138.345831,23.3893547 138.160951,23.0786025 L135.212839,23.0786025 L135.212839,27.3465633 C135.212839,29.8782952 133.193146,31.9306693 130.701728,31.9306693 C128.21031,31.9306693 126.190617,29.8782952 126.190617,27.3465633 L126.190617,20.7075132 C126.190617,20.3366082 126.233966,19.9759917 126.315796,19.6306097 C126.312685,19.5684498 126.311111,19.5058777 126.311111,19.4429323 C126.311111,17.4350069 127.912937,15.807262 129.888889,15.807262 L141.088889,15.807262 L142.644444,15.807262 C144.96404,15.807262 146.844444,13.8964309 146.844444,11.5393013 C146.844444,9.18217168 144.96404,7.27134053 142.644444,7.27134053 L140.777778,7.27134053 L129.577778,7.27134053 C127.601826,7.27134053 126,5.64359562 126,3.63567026 C126,1.6277449 127.601826,0 129.577778,0 L140.777778,0 L141.711111,0 L142.644444,0 C148.915944,0 154,5.16632127 154,11.5393013 C154,17.9122813 148.915944,23.0786025 142.644444,23.0786025 L137.666667,23.0786025 L137.666667,15.807262 L142.644444,15.807262 C144.96404,15.807262 146.844444,13.8964309 146.844444,11.5393013 C146.844444,9.18217168 144.96404,7.27134053 142.644444,7.27134053 L137.666667,7.27134053 L137.666667,0 L141.711111,0 Z" id="Combined-Shape"></path>
                    <path d="M45.7111111,39 L46.6444444,39 C52.9159445,39 58,44.1663213 58,50.5393013 C58,54.5742921 55.9619718,58.1255734 52.8748937,60.1881637 L55.8136194,63.1744416 C57.5753181,64.9646463 57.5753181,67.8671416 55.8136194,69.6573463 C54.051921,71.4475512 51.1956435,71.4475512 49.4339451,69.6573463 L42.8342816,62.9508931 C42.5702743,62.6826135 42.3458309,62.3893547 42.1609513,62.0786025 L39.2128394,62.0786025 L39.2128394,66.3465633 C39.2128394,68.8782952 37.1931462,70.9306693 34.7017283,70.9306693 C32.2103104,70.9306693 30.1906173,68.8782952 30.1906173,66.3465633 L30.1906173,59.7075132 C30.1906173,59.3366082 30.2339659,58.9759917 30.3157958,58.6306097 C30.3126853,58.5684498 30.3111111,58.5058777 30.3111111,58.4429323 C30.3111111,56.4350069 31.9129367,54.807262 33.8888889,54.807262 L45.0888889,54.807262 L46.6444444,54.807262 C48.9640404,54.807262 50.8444444,52.8964309 50.8444444,50.5393013 C50.8444444,48.1821717 48.9640404,46.2713405 46.6444444,46.2713405 L44.7777778,46.2713405 L33.5777778,46.2713405 C31.6018256,46.2713405 30,44.6435956 30,42.6356703 C30,40.6277449 31.6018256,39 33.5777778,39 L44.7777778,39 L45.7111111,39 L46.6444444,39 C52.9159445,39 58,44.1663213 58,50.5393013 C58,56.9122813 52.9159445,62.0786025 46.6444444,62.0786025 L41.6666667,62.0786025 L41.6666667,54.807262 L46.6444444,54.807262 C48.9640404,54.807262 50.8444444,52.8964309 50.8444444,50.5393013 C50.8444444,48.1821717 48.9640404,46.2713405 46.6444444,46.2713405 L41.6666667,46.2713405 L41.6666667,39 L45.7111111,39 Z" id="Combined-Shape"></path>
                </g>
            </g>
        </g>
    </g>
</svg>