<?xml version="1.0" encoding="UTF-8"?>
<svg width="115px" height="122px" viewBox="0 0 115 122" version="1.1" xmlns="http://www.w3.org/2000/svg" xmlns:xlink="http://www.w3.org/1999/xlink">
    <!-- Generator: Sketch 52.6 (67491) - http://www.bohemiancoding.com/sketch -->
    <title>Group 15</title>
    <desc>Created with Sketch.</desc>
    <g id="Page-1" stroke="none" stroke-width="1" fill="none" fill-rule="evenodd" opacity="0.800000012">
        <g id="Future_Proof_Website1.0" transform="translate(-951.000000, -3528.000000)" fill-rule="nonzero">
            <g id="Group-15" transform="translate(949.000000, 3525.000000)">
                <path d="M103,78 C103,81.3137085 100.313708,84 97,84 L82,84 C78.6862915,84 76,81.3137085 76,78 C76,74.6862915 78.6862915,72 82,72 L97,72 C100.313708,72 103,74.6862915 103,78 Z" id="Rectangle-7" fill="#FFCE0F"></path>
                <path d="M97,72 C100.313708,72 103,74.6862915 103,78 L103,93 C103,96.3137085 100.313708,99 97,99 C93.6862915,99 91,96.3137085 91,93 L91,78 C91,74.6862915 93.6862915,72 97,72 Z" id="Rectangle-7" fill="#FFCE0F"></path>
                <path d="M40.9055916,74.754834 L40.9055916,74.754834 C44.2193001,74.754834 46.9055916,77.4411255 46.9055916,80.754834 L46.9055916,125.056349 C46.9055916,128.370058 44.2193001,131.056349 40.9055916,131.056349 L40.9055916,131.056349 C37.5918831,131.056349 34.9055916,128.370058 34.9055916,125.056349 L34.9055916,80.754834 C34.9055916,77.4411255 37.5918831,74.754834 40.9055916,74.754834 Z" id="Rectangle-15" fill="#39B2C2" transform="translate(40.905592, 102.905592) rotate(-225.000000) translate(-40.905592, -102.905592) "></path>
                <path d="M11.1213203,63.3933983 L11.1213203,63.3933983 C14.4350288,63.3933983 17.1213203,66.0796898 17.1213203,69.3933983 L17.1213203,76.8492424 C17.1213203,80.1629509 14.4350288,82.8492424 11.1213203,82.8492424 L11.1213203,82.8492424 C7.80761184,82.8492424 5.12132034,80.1629509 5.12132034,76.8492424 L5.12132034,69.3933983 C5.12132034,66.0796898 7.80761184,63.3933983 11.1213203,63.3933983 Z" id="Rectangle-15" fill="#39B2C2" transform="translate(11.121320, 73.121320) rotate(-225.000000) translate(-11.121320, -73.121320) "></path>
                <rect id="Rectangle-15" fill="#FFCE0F" transform="translate(77.384776, 98.669048) scale(-1, 1) rotate(-225.000000) translate(-77.384776, -98.669048) " x="71.3847763" y="64.5269119" width="12" height="68.2842712" rx="6"></rect>
                <path d="M40,50 C40,53.3137085 37.3137085,56 34,56 L19,56 C15.6862915,56 13,53.3137085 13,50 C13,46.6862915 15.6862915,44 19,44 L34,44 C37.3137085,44 40,46.6862915 40,50 Z" id="Rectangle-7" fill="#FF3184" transform="translate(26.500000, 50.000000) scale(-1, -1) translate(-26.500000, -50.000000) "></path>
                <path d="M19,29 C22.3137085,29 25,31.6862915 25,35 L25,50 C25,53.3137085 22.3137085,56 19,56 C15.6862915,56 13,53.3137085 13,50 L13,35 C13,31.6862915 15.6862915,29 19,29 Z" id="Rectangle-7" fill="#FF3184" transform="translate(19.000000, 42.500000) scale(-1, -1) translate(-19.000000, -42.500000) "></path>
                <rect id="Rectangle-15" fill="#39B2C2" transform="translate(77.844408, 27.844408) scale(-1, -1) rotate(-225.000000) translate(-77.844408, -27.844408) " x="71.8444084" y="-4.19543648" width="12" height="64.0796898" rx="6"></rect>
                <path d="M108.886039,50.9466991 L108.886039,50.9466991 C112.199747,50.9466991 114.886039,53.6329906 114.886039,56.9466991 L114.886039,60.8253788 C114.886039,64.1390873 112.199747,66.8253788 108.886039,66.8253788 L108.886039,66.8253788 C105.57233,66.8253788 102.886039,64.1390873 102.886039,60.8253788 L102.886039,56.9466991 C102.886039,53.6329906 105.57233,50.9466991 108.886039,50.9466991 Z" id="Rectangle-15" fill="#39B2C2" transform="translate(108.886039, 58.886039) scale(-1, -1) rotate(-225.000000) translate(-108.886039, -58.886039) "></path>
                <rect id="Rectangle-15" fill="#FF3184" transform="translate(38.615224, 29.330952) scale(1, -1) rotate(-225.000000) translate(-38.615224, -29.330952) " x="32.6152237" y="-4.81118318" width="12" height="68.2842712" rx="6"></rect>
            </g>
        </g>
    </g>
</svg>