<?xml version="1.0" encoding="utf-8"?>
<!-- Generator: Adobe Illustrator 23.0.3, SVG Export Plug-In . SVG Version: 6.00 Build 0)  -->
<svg version="1.1" id="Layer_1" xmlns="http://www.w3.org/2000/svg" xmlns:xlink="http://www.w3.org/1999/xlink" x="0px" y="0px"
	 viewBox="0 0 1903 1688" style="enable-background:new 0 0 1903 1688;" xml:space="preserve">
<style type="text/css">
	.st0{fill:#FFFFFF;}
</style>
<g>
	<path class="st0" d="M105,1501.5v-28.3h50.9v65.5c0,24.2-11.4,36.3-34.1,36.3H87.1c-22.7,0-34.1-12.1-34.1-36.3v-110.8
		c0-24.2,11.4-36.3,34.1-36.3h34.6c22.7,0,34.1,12.1,34.1,36.3v16.8h-36.6v-21.4c0-1.5-0.5-2.8-1.5-3.8c-1-1.1-2.3-1.6-3.7-1.6H96.7
		c-1.5,0-2.7,0.5-3.7,1.6c-1,1.1-1.5,2.4-1.5,3.8V1543c0,1.5,0.5,2.7,1.5,3.8c1,1.1,2.3,1.6,3.7,1.6H114c1.5,0,2.7-0.6,3.7-1.6
		c1-1.1,1.5-2.4,1.5-3.8v-41.5H105z"/>
	<path class="st0" d="M221,1539.7h42.1v32.5h-80.6v-177.9H221V1539.7z"/>
	<path class="st0" d="M391.5,1427.8v110.8c0,24.2-11.4,36.3-34.1,36.3h-36.6c-22.7,0-34.1-12.1-34.1-36.3v-110.8
		c0-24.2,11.4-36.3,34.1-36.3h36.6C380.1,1391.5,391.5,1403.6,391.5,1427.8z M353,1543v-119.9c0-1.5-0.5-2.8-1.5-3.8
		c-1-1.1-2.3-1.6-3.7-1.6h-17.3c-1.5,0-2.7,0.5-3.7,1.6c-1,1.1-1.5,2.4-1.5,3.8V1543c0,1.5,0.5,2.7,1.5,3.8c1,1.1,2.3,1.6,3.7,1.6
		h17.3c1.5,0,2.7-0.6,3.7-1.6C352.5,1545.8,353,1544.5,353,1543z"/>
	<path class="st0" d="M512.3,1474.8c11.9,4.2,17.9,13.9,17.9,29.1v31.9c0,24.2-11.4,36.3-34.1,36.3h-70.7v-177.9h68.5
		c22.7,0,34.1,12.1,34.1,36.3v16.2C527.9,1461.4,522.7,1470.8,512.3,1474.8z M484.2,1420.4h-20.4v47.6h20.4c1.5,0,2.7-0.5,3.7-1.6
		c1-1.1,1.5-2.4,1.5-3.8v-36.6c0-1.5-0.5-2.8-1.5-3.9C486.9,1420.9,485.7,1420.4,484.2,1420.4z M491.6,1540.3v-39.9
		c0-1.5-0.5-2.8-1.5-3.8c-1-1.1-2.3-1.6-3.7-1.6h-22.5v50.9h22.5c1.5,0,2.7-0.5,3.7-1.6C491.1,1543,491.6,1541.7,491.6,1540.3z"/>
	<path class="st0" d="M632.7,1391.5c22.7,0,34.1,12.1,34.1,36.3v144.4h-38.5v-59.7h-27.8v59.7H562v-144.4
		c0-24.2,11.4-36.3,34.1-36.3H632.7z M600.5,1482.8h27.8v-59.7c0-1.5-0.5-2.8-1.5-3.8c-1-1.1-2.3-1.6-3.7-1.6h-17.3
		c-1.5,0-2.7,0.5-3.7,1.6c-1,1.1-1.5,2.4-1.5,3.8V1482.8z"/>
	<path class="st0" d="M739.4,1539.7h42.1v32.5h-80.6v-177.9h38.5V1539.7z"/>
	<path class="st0" d="M935.5,1394.2c22.7,0,34.1,12.1,34.1,36.3v35.5c0,24.2-11.4,36.3-34.1,36.3h-31.1v69.9h-38.5v-177.9H935.5z
		 M931.1,1470.4v-44.3c0-1.5-0.5-2.7-1.5-3.8c-1-1.1-2.3-1.6-3.7-1.6h-21.5v55.3h21.5c1.5,0,2.7-0.5,3.7-1.6
		C930.6,1473.2,931.1,1471.9,931.1,1470.4z"/>
	<path class="st0" d="M1032.8,1499.3v72.9h-38.5v-177.9h68.5c22.7,0,34.1,12.1,34.1,36.3v20.6c0,14.7-5.2,24-15.7,28.1
		c9.2,3.3,13.7,10.8,13.7,22.5v70.4h-38.5v-67.4c0-3.7-1.7-5.5-5.2-5.5H1032.8z M1032.8,1420.4v52h20.4c1.5,0,2.7-0.6,3.7-1.6
		c1-1.1,1.5-2.4,1.5-3.8v-41c0-1.5-0.5-2.8-1.5-3.9c-1-1.1-2.3-1.6-3.7-1.6H1032.8z"/>
	<path class="st0" d="M1231.9,1427.8v110.8c0,24.2-11.4,36.3-34.1,36.3h-36.6c-22.7,0-34.1-12.1-34.1-36.3v-110.8
		c0-24.2,11.4-36.3,34.1-36.3h36.6C1220.6,1391.5,1231.9,1403.6,1231.9,1427.8z M1193.4,1543v-119.9c0-1.5-0.5-2.8-1.5-3.8
		c-1-1.1-2.3-1.6-3.7-1.6h-17.3c-1.5,0-2.7,0.5-3.7,1.6c-1,1.1-1.5,2.4-1.5,3.8V1543c0,1.5,0.5,2.7,1.5,3.8c1,1.1,2.3,1.6,3.7,1.6
		h17.3c1.5,0,2.7-0.6,3.7-1.6C1192.9,1545.8,1193.4,1544.5,1193.4,1543z"/>
	<path class="st0" d="M1335.1,1394.2c22.7,0,34.1,12.1,34.1,36.3v35.5c0,24.2-11.4,36.3-34.1,36.3H1304v69.9h-38.5v-177.9H1335.1z
		 M1330.7,1470.4v-44.3c0-1.5-0.5-2.7-1.5-3.8c-1-1.1-2.3-1.6-3.7-1.6H1304v55.3h21.5c1.5,0,2.7-0.5,3.7-1.6
		C1330.2,1473.2,1330.7,1471.9,1330.7,1470.4z"/>
	<path class="st0" d="M1383.7,1427v-32.7h96.3v32.7h-28.9v145.2h-38.5V1427H1383.7z"/>
	<path class="st0" d="M1541.6,1540.3h42.6v31.9h-81.1v-177.9h81.1v31.4h-42.6v41.8h39.9v30.2h-39.9V1540.3z"/>
	<path class="st0" d="M1678.3,1543v-27.5h36.6v23.1c0,24.2-11.4,36.3-34.1,36.3h-34.6c-22.7,0-34.1-12.1-34.1-36.3v-110.8
		c0-24.2,11.4-36.3,34.1-36.3h34.6c22.7,0,34.1,12.1,34.1,36.3v16.8h-36.6v-21.4c0-1.5-0.5-2.8-1.5-3.8c-1-1.1-2.3-1.6-3.7-1.6
		h-17.3c-1.5,0-2.7,0.5-3.7,1.6c-1,1.1-1.5,2.4-1.5,3.8V1543c0,1.5,0.5,2.7,1.5,3.8c1,1.1,2.3,1.6,3.7,1.6h17.3
		c1.5,0,2.7-0.6,3.7-1.6C1677.8,1545.8,1678.3,1544.5,1678.3,1543z"/>
	<path class="st0" d="M1782,1502.3v69.9h-38.5v-177.9h38.5v74.5h30.5v-74.5h38.5v177.9h-38.5v-69.9H1782z"/>
</g>
<path class="st0" d="M1783.6,421.4c-0.9-6.3-6.6-10.5-18-18.9c-45.6-33.2-93.6-64-142.6-91.4c-3.7-2.1-7.7-4-12.1-6.1l-10.6-5.1
	l-67.2,123.6c-10.6,19.6-21.2,39.1-31.9,58.6c-5.4,9.8-10.7,19.6-16,29.4c-9.4,17.4-19,35.3-29,52.8c-5.6-2.8-11.1-5.7-16.6-8.5
	c-14.8-7.7-28.8-14.9-44.4-21l-5.7-2.2l-25.7,55.3c-29.2,63-79.7,172.1-108.6,234.3l-4.6-2.1l35.8-81.9
	c22.2-50.8,43.6-99.6,48.7-111.4c3.5-8.2,7.1-16.3,10.8-24.5c7.2-16.1,14.7-32.8,20.9-49.7l1.8-4.8l-6.2-4.3c-1.4-1-2.6-1.8-4.1-2.5
	c-49-21.2-100.1-39-151.9-52.9c-1.6-0.4-3.3-0.6-5.5-0.8c-1.7-0.2-2.9,0.2-3,0.3l-6.7,2.4l-10.1,38.8c-1.7,6.8-3.4,13.5-5.5,20.2
	c-0.9,3-1.6,6-2.2,9c-1,4.6-2,9-3.8,13.3c-15.3-3.9-30.9-7.5-46.5-10.7l-6.4-1.3l-9.5,45.3c-1.5,7.5-3.6,17.4-5.9,28.8
	c2.2-30.1,4.2-61.5,6.2-92.5c4.7-74.8,9.2-145.5,16.5-184.5c0-0.1,0.6-11.7-6.3-15.2c-18.6-9.4-28.9-8.7-40.9-7.8
	c-5.3,0.4-11.1,0.8-18.5,0.4c0.2-1.9,0.4-3.8,0.6-5.7l3.3-29.9c4.6-41.6,9.2-83.2,14.1-124.8c0.8-7.3,0.2-15.8-10.1-23.5
	c-25.5-19.6-54.5-32.1-88.4-38.5c-18.3-3.5-33-5-46.1-4.8c-44.2,0.9-83.5,10.8-117.1,29.5c-13.5,7.5-28.7,18.7-26.7,38.2l57,576.7
	c-3.3,0.3-6.5,0.7-9.8,1.1c-4.3,0.5-8.5,1.1-12.7,1.7c-3.4-32.6-17.4-167.7-19.1-179.6l-0.9-6.2l-6.2,0.6c-4.5,0.4-5.3,0.2-5.7,0.1
	c-2.5-0.7-4.6-0.8-10.5,0c-7.1,0.9-14.3,2-21.4,3.1l-10,1.6c-3.9,0.5-7.8,1.3-11.7,2c-5.2,1-10.1,2-15.2,2.4
	c-1.9-9.7-3.7-19.1-5.6-28.2c-0.9-5.3-3.5-9.8-8.2-14C671,505.1,636,479,600.8,455.9c-9.4-6.2-19.4-12.1-31-18.9l-6.1-3.6l-3.1,6.4
	c-4.7,9.8-8.4,18.1-11.9,26.2c-11.4,26.1-21.9,52.7-31,79.2c-5.4,15.2-10.4,30.5-14.9,45.6c-3.5,11.7-3.2,21.3,1,30.4
	c7.3,15.5,48.4,113.9,73,172.7l8.9,21.3l-13.2,5.8l-216-469.9l-0.7-1.7c-1-2.3-2-4.5-3.4-7c-1.1-1.7-2.6-3.3-4.2-4.9l-4.5-4.8
	l-7.4,3.1c-3.3,1.3-5.9,2.4-8.7,3.8C261.4,371,197.2,408,136.8,449.5l-1.1,0.8c-0.9,0.6-1.8,1.3-2.1,1.6c-9.9,7.1-17.6,12.8-10.5,25
	c1.4,2.4,3,4.5,4.7,6.7l1.9,2.5c71.6,100.7,143.2,201.5,214.8,302.3c0.6,1,1.4,1.9,2.1,2.7c0.8,1,1.4,1.7,1.7,2.2l-16,12.7l0.3,4.9
	c0,1.3,0,4,1.6,5.5c49.5,64.5,69.4,90.3,78.4,100.7c-11.7,11.6-43.9,44.8-66,76c-0.6-0.1-1.2-0.4-1.8-0.4c-7.4,0-13.4,6-13.4,13.4
	c0,7.4,6,13.4,13.4,13.4s13.4-6,13.4-13.4c0-1.9-0.4-3.7-1.2-5.4c26.1-36.9,68.5-78.2,68.9-78.6l11.5-11.2h-13.2
	c-8.8-10.4-48.9-62.3-77.6-99.6l14.8-11.7l0.3-2.7c0.9-7-2.8-11.3-5.1-14.1c-0.5-0.6-1-1.2-1.5-1.9
	c-71.6-100.9-143.2-201.7-214.8-302.4l-2.1-2.9c-1.3-1.7-2.6-3.4-3.8-5.3c-0.5-0.8-0.7-1.3-0.9-1.5c1.3-1.7,6.2-5.2,8.2-6.7
	c0.5-0.4,1.1-0.9,2.6-1.9c59.8-41.1,123.4-77.7,189.1-108.7c2.3-1.1,4.6-2,7.2-3.1c0.4,0.4,0.7,0.7,0.9,1.1c1,1.7,1.8,3.5,2.6,5.3
	l222.2,483.4l36.6-16.1L588.8,789c-24.6-58.9-65.8-157.5-73.2-173.2c-2.8-6.1-2.9-12.6-0.3-21.2c4.5-14.9,9.5-30,14.8-45
	c9.1-26.2,19.4-52.5,30.7-78.3c2.7-6.2,5.5-12.4,8.7-19.4c8.8,5.2,16.8,10,24.3,15c34.8,22.8,69.3,48.6,105.5,78.8
	c2.4,2.1,3.5,3.9,3.9,6.4c2.2,11,4.4,22.2,6.6,33.8l1,5.2l5.3,0.1c8.1,0,15.8-1.4,23.1-2.8c3.6-0.7,7.2-1.4,11-1.9l10.2-1.6
	c7-1.1,14-2.2,21.1-3.1c4.5-0.6,5.1-0.4,5.6-0.3c1.1,0.3,2.2,0.5,4,0.6c3.9,33.1,18.9,178.4,19,180l0.7,6.9l6.8-1.1
	c6.2-1,12.6-1.9,19-2.7c5.3-0.6,10.6-1.2,16-1.7l6.5-0.6L800.7,173c-0.7-7.1,1.3-15,20.1-25.6c31.6-17.6,69-27,111-27.8
	c12-0.2,26,1.2,43.5,4.6c31.9,5.9,59,17.7,82.9,36c5,3.8,5.6,6.7,5,11.8c-4.9,41.5-9.5,83.2-14.1,124.8l-3.3,30
	c-0.3,3.6-0.8,7.2-1.2,10.8l-1,7.9l6.5,0.7c12,1.3,20.5,0.7,27.4,0.2c10.9-0.8,18.2-1.3,32.8,5.8c0.3,0.9,0.5,2.2,0.6,2.2
	c-7.4,39.4-11.9,110.4-16.6,185.7c-5.4,86-11,174.9-21.5,230.3l12.8,2.5c5-23.9,26.3-127.1,34.3-165.7l6.8-32.6
	c15,3.2,30,6.8,44.6,10.6l4.7,1.2l2.5-4.2c4.3-7.3,6-14.8,7.5-21.4c0.6-2.7,1.2-5.5,2-8.1c2.1-6.9,3.8-13.8,5.6-20.7l8.2-31.6
	c0.4,0.1,0.8,0.1,1.1,0.2c51.1,13.8,101.5,31.3,149.8,52.2c-5.7,14.9-12.3,29.7-18.8,44.2c-3.7,8.2-7.3,16.4-10.8,24.7
	c-5.1,11.7-26.4,60.5-48.6,111.3l-41,93.7l28.1,12.7l2.7-5.8c28.4-61.1,81.2-175.1,111.3-240.2l20.5-44.2
	c12.8,5.4,24.9,11.6,37.5,18.2c7.3,3.8,14.7,7.6,22.3,11.3l5.5,2.6l3-5.3c11.2-19.3,21.9-39.2,32.3-58.4
	c5.3-9.8,10.6-19.6,15.9-29.3c10.7-19.5,21.4-39.1,32-58.7l61.3-112.7c3.9,1.9,7.5,3.6,10.8,5.5c48.6,27.2,96.1,57.7,141.3,90.6
	c5.1,3.7,12.1,8.8,12.9,9.6c-0.2,0.8-2.1,3.4-3.1,4.6l-370.4,493.2l5,3.9c35.3,28,94.9,107.3,112.3,132c-1.6,2.4-2.7,5.1-2.7,8.1
	c0,8.4,6.8,15.2,15.2,15.2c8.4,0,15.2-6.8,15.2-15.2c0-8.4-6.8-15.2-15.2-15.2c-0.5,0-0.9,0.2-1.4,0.3
	c-14.7-20.8-71.7-98-110.4-131.3l362.8-483.2C1781.2,430.9,1784.4,426.7,1783.6,421.4z M344.4,808.7c-0.2-0.3-0.5-0.6-0.7-0.9
	C344,808.1,344.2,808.4,344.4,808.7L344.4,808.7z"/>
<g>
	<path class="st0" d="M669,1155.3c-1.5-3.1-3.4-5.7-4.1-8.5c-5-21.4-18.1-35.2-38.7-42.5c-6.7-2.4-12.9-6-19.3-9.2
		c-5.4-2.7-8.1-7.3-9-13.2c-0.3-2.1-0.6-4.2-1.1-6.2c-2.2-8-8.3-10.8-15.9-7.2c-2.4,1.1-4.8,2.5-6.6,4.3c-4.7,4.8-9.8,5.5-15.8,2.8
		c-3.5-1.6-7.6-2.1-10.4-6.9c2.5-1.4,4.5-3.4,6.7-3.7c6.2-0.8,12.6-1.7,18.8-1.3c14.4,0.8,20.6-2.1,26.2-15.3
		c4.7-11.1,5.8-22.2-1.5-33.2c-3.1-4.7-4.3-10.7-6.2-16.1c-1.4-4-2.1-8.2-3.8-12c-1.9-4.2-4.2-4.7-8.3-2.3
		c-4.5,2.7-8.8,5.8-13.4,8.5c-2.1,1.2-4.5,1.9-6.7,2.8c-0.4-0.6-0.8-1.1-1.2-1.7c1.5-2,3.5-3.7,4.5-5.9c0.8-1.9,1.5-4.8,0.6-6.2
		c-1.7-2.7-4.9-3.1-7.7-1.2c-1.9,1.3-3.3,3.4-5,5c-4,3.9-6,4.2-10.1,0.5c-4.3-3.9-8.2-8.2-12.3-12.3c-0.9-0.9-2-1.5-4.4-3.3
		c-0.3,4.4-0.8,7.7-0.5,10.8c0.3,4.5,1,8.9,1.8,13.3c1,5.4-0.6,10-3.8,14.1c-13.6,17.4-30.5,28.1-53.6,26.9
		c-5.2-0.3-10.6,0.5-15.7,1.7c-6.8,1.5-9.8,7.2-8.2,14c0.8,3.4,2.7,5.8,6.8,4.8c8.2-2.1,16.2-0.8,24.2,1.4
		c17.6,4.9,31.6,1.4,42.2-15.4c10.2-16.4,27.2-20,45.3-17.8c9.3,1.1,16.7,6.3,21.5,14.7c0.6,1.1,1.1,2.4,1.5,3.6
		c0.2,0.7-0.1,1.4-0.3,3.7c-3.7-3-6.6-5.4-9.5-7.8c-7.3-5.9-11.3-5.8-17.7,1.1c-3.7,4.1-6.8,8.7-10,13.2c-2.6,3.7-4.8,7.6-7.3,11.3
		c-6.2,9.3-14.8,13.2-26.8,10.8c1.8,3.8,4.8,4.1,7.2,5.1c10,4.1,11.8,8.8,6,17.5c-3.5,5.3-7.3,10.4-11.6,15.1
		c-7,7.7-16.5,8.5-25,2.6c-2.4-1.6-4.6-3.6-6.8-5.4c-5.2-4.2-10.8-6-17.6-5.3c-9,0.9-18-0.1-26.3-4c-9-4.3-18.2-5-27.8-2.5
		c-3.3,0.9-6.8,1.6-10.2,1.4c-3.3-0.2-6.9-1-9.7-2.6c-5.6-3.2-6.6-10.3-1.9-14.8c7.6-7.2,11.8-16.1,15-25.7
		c6-18.1,18.3-32,31.1-45.4c1.3-1.3,3.4-1.8,6.4-3.4c-0.1,7.2-0.2,13-0.2,18.8c0.6,0.2,1.2,0.5,1.8,0.7c2.3-2.3,4.8-4.4,7-6.9
		c6.6-7.5,12.2-15.9,21.9-20.2c2.3-1,3.8-4.2,5.3-6.6c1.8-2.9,2.4-6.1-0.8-8.5c-3.1-2.3-6.3-2.4-9.2,0.7c-6.1,6.6-14.1,5.6-22.1,6.5
		c-0.7-5.8,1.9-8.8,5.3-11.6c26.4-22.1,53.9-42.6,83.1-60.9c47-29.5,96.8-53.2,149.3-71.1c60.1-20.5,121.8-33.1,185.2-37
		c50.5-3,100.8-1.9,150.9,5.5c28.5,4.2,56.7,9.7,84.5,17.5c4.4,1.3,8.8,2.6,13.4,3.9c-1.2,6.4-4.3,8.6-9.5,9.1
		c-11.3,1.2-22-2.1-32.8-4.4c-10.3-2.2-20.5-5.2-30.9-6.8c-6.2-1-12.7-0.8-18.9,0.2c-22.4,3.6-44.7,7.7-67.1,11.6
		c-9.4,1.6-18.7,3.2-28.1,4.7c-5.8,0.9-7.2,2.6-7.4,9.2c-0.1,5.6,2.2,9.3,7.6,9c7.8-0.5,16-1.2,23.2-4.1
		c19.6-7.7,39.8-10.1,60.6-9.4c15.6,0.5,31.1,0.4,46.7,0.8c17.8,0.5,35.3,2.8,51.7,10.3c4.8,2.2,9.8,3.9,14.9,5.3
		c6.6,1.8,12.2,0.1,15.6-6.1c2.6-4.6,6.1-5.6,11.2-5.4c4.6,0.2,9.5-0.8,13.7-2.5c4.5-1.9,8.3-2.3,12.9-0.5
		c29.6,11.6,58.7,24.4,85.8,40.9c17.6,10.7,32.8,25,45.6,41.4c10.7,13.6,22.8,25.7,36.7,36c7,5.2,14.3,10,21.5,14.8
		c15.9,10.6,28.9,23.9,38.6,40.4c6.1,10.4,14.1,19.2,23.4,26.7c24.6,20,43.4,44.6,57.7,72.7c12.7,25,25.7,49.8,38.7,74.6
		c3.8,7.3,7.1,14.8,7.2,23.2c0,2.6,0.1,5.4-0.6,7.9c-2.2,8-10.5,10.4-15.8,4.2c-23.9-27.9-55-46-86.3-63.7
		c-30.2-17.1-59-36.1-84.2-60.3c-12.8-12.3-27.1-22.7-43-31c-11.7-6.1-23.5-7.4-35.9-2.8c-5.7,2.1-11.6,3.6-17.4,5.4
		c-19.8,6-38.6,3.4-56.6-6.7c-2.1-1.2-4.1-2.3-6.3-3.4c-0.4-0.2-1,0.1-2.1,0.2c-1.6,7.1-3.3,14.4-4.8,21.2c-1.4,0.5-1.9,0.9-2.3,0.9
		c-12.6,0.4-15.7,3.7-14.8,16.4c0.9,12.3,5.3,23.6,10,34.9c2.4,5.7,3.9,12.1,4.6,18.2c0.7,6.4-1.4,12.6-5.2,18
		c-3,4.3-4.6,9-4.4,14.1c0.5,14.8-5.6,26.5-16.1,36.5c-7.1,6.7-13.4,14.5-21,20.4c-7.9,6.1-15.5,12.4-22.4,19.6
		c-3.5,3.6-8.8,5.9-13.6,7.9c-19.5,8.4-39.9,12.1-61.1,10.8c-8.5-0.5-16.5-3.3-23.4-8.9c-5.1-4.2-10.3-8.3-15.6-12.3
		c-6.1-4.6-13.1-6.3-20.3-4.1c-16.2,5.1-30.3,0.6-43.2-8.9c-6.2-4.5-12.1-9.5-17.4-15c-8.7-9.2-17.4-18.6-24.8-28.8
		c-4.3-6-7-13.6-8.9-20.9c-2-7.5-5.7-12.2-13-14.3c-4.6-1.3-9.1-2.8-13.7-4c-8.4-2.1-14.7-6.9-19.3-14.2c-0.3-0.4-0.5-0.9-0.9-1.3
		c-14.1-15.7-18-34.7-18.6-55c-0.3-9.7-1.8-19.4-2.3-29.2c-0.2-4.4,0-9.1,1-13.4c2.7-11.5,0.7-22-5.5-31.8c-3.5-5.6-5-11.7-4.1-18.2
		c1-8.3,5.9-10.9,13.3-7.3c4,1.9,7.9,4.4,12.2,5.6c10.5,2.8,20.9-2,26.3-11.5c1.7-3,3-6.2,4.3-9.4c3.3-8.1,8.6-14,16-19
		c8.3-5.5,15.6-12.6,22.6-19.8c6.6-6.7,4.1-16.5-4.7-20.1c-4.1-1.7-8.6-2.3-13-3.4c-2.8-0.7-5.8-0.9-8.5-2c-4.7-1.9-5.4-4.2-3.1-8.7
		c4.3-8.3,11.2-13.9,19.7-17.6c3.9-1.7,7.9-3,12.7-4.7c-0.5-3.6-0.4-7.6-1.6-11.2c-2.3-7.1-4.6-13.9-4.4-21.6c0-2.4-2.7-5.7-5.1-7.2
		c-3.3-2-7.3-3.1-11.2-3.6c-11.3-1.5-22.6-2.5-33.9-3.6c-5.7-0.6-10.9,0.8-15.7,3.7c0,0.8-0.2,1.5,0,1.8c6.4,6,6,5.9,2.3,14.4
		c-1.6,3.7-2,8.2-1.9,12.2c0.2,8.8-0.5,9.7-9.3,11.1c-6.7,1-13.5,2.5-20,4.4c-9.6,2.8-15,0.8-19.2-8.5c-1.5-3.4-2.4-7-3.7-10.5
		c-0.6-1.7-1.3-3.3-2.1-5.1c-1.7,0.1-3,0.1-4.3,0.2c-11.9,0.3-14.3-3.5-9.1-14.4c0.9-1.9,2.1-3.7,3.1-5.5c0.8-1.4,1.7-2.7,2.2-4.2
		c1.8-5.3-0.6-8.9-6-7.8c-6.1,1.3-12.2,3.4-17.8,6.1c-10.4,5.1-20.4,11-30.7,16.4c-6.2,3.2-8.4,6-8.5,13.6c3.2-0.9,6.1-2,9-2.6
		c2-0.4,4.6-0.9,6,0.1c1.7,1.2,3.1,3.8,3.1,5.8c0,1.5-2.1,3.8-3.7,4.3c-2.9,1-6.2,0.8-9.4,1.3c-2,0.3-4.6,0.6-5.8,1.9
		c-1.5,1.7-2.8,4.6-2.5,6.7c0.2,1.3,3.6,3.1,5.5,3c9-0.1,17.9-0.6,26.9-1.1c6.6-0.4,13.2-1.1,19.8-1.4c12.7-0.6,19.7,5.6,21.2,18.3
		c0.3,2.6,0.4,5.3,0.9,7.9c1.4,6.7,6.1,8.8,11.7,4.7c5.3-3.9,9.9-8.6,14.8-13.1c1.9-1.8,3.5-4.1,5.6-5.5c3.4-2.3,6-1,7,3.1
		c1.6,7-1.7,13.2-8.5,15.9c-17.1,6.9-34.2,14-51.5,20.5c-13.8,5.2-23.6,14.2-30.1,27.6c-3.4,7-8.8,13.1-13.3,19.6
		c-2,3-5.6,5.8-3.6,9.8c1.9,3.9,6.3,5.4,10.2,4.8c5.3-0.8,10.6-2.7,15.6-4.8c4.5-1.9,8.6-4.7,12.8-7.2c0.4,0.5,0.9,1.1,1.3,1.6
		c-2.7,2.9-5.3,6.1-8.3,8.7c-5.3,4.7-11.1,9-16.4,13.7c-6.2,5.5-6.5,7.5-2.7,15.1c2.9,5.7,2.9,11.1,0,16.7c-1,1.9-1.9,3.8-2.4,5.9
		c-1.7,7.5,2.4,14.3,10,15.1c9.1,0.9,16,4.4,20.8,12.5c1.4,2.4,4.8,4.4,7.6,5.1c14.8,3.4,25.6,13.4,37.3,21.8
		c3.5,2.6,6,7.4,7.7,11.6c2.1,5.4,2.7,11.3,4.2,16.9c1.3,5.2,0.2,9.2-4.8,12.1c-5.9,3.4-9,8.8-9.8,15.5c-0.9,7.8-5.6,12.8-12.8,14.3
		c-11.3,2.5-22.8,4.1-34.3,5.8c-4.9,0.7-10,0.8-15,1.1c-8.2,0.4-14.5-3.9-16-12.1c-1.1-5.9-1.5-12.1-1.3-18.1
		c0.3-10.6,1.3-21.1,2-31.6c0.7-10.8-2.6-14.2-13.2-13.4c-11.4,0.9-24.2,7.1-26.3,20C677.1,1145.1,675.3,1151.1,669,1155.3z"/>
	<path class="st0" d="M632.7,1164.3c-0.4,0.9-0.8,1.8-1.8,4c-3.6-6.1-6.6-11.2-10.1-16.9c-3.7,4.6-7.2,9-11,13.7
		c-2.9-1.8-5.4-3.2-9.2-5.5c-1.1,1.8-2.5,4-3.9,6.3c-0.7-0.4-1.4-0.7-2-1.1c-0.9-2.8-1.9-5.5-2.9-8.7c-6.8,0.1-12.4,3.4-18.6,6
		c-0.1,1.2-0.5,2.2-0.3,3.2c1.1,4.7-0.6,7.4-5.3,8.9c-4.8,1.5-9.1,4.1-8.1,11.1c-3.2,0-6.2-0.1-9.3-0.1c-0.6,1.4-1,4-1.9,4.1
		c-4.9,0.8-10.1,2-14.8,1.1c-7.9-1.4-10.6-9.4-6.2-16.3c3.9-0.7,5.5,7.7,10.9,2.3c-0.5-2.4-1.2-5.2-1.6-8c-0.9-6.8,1.5-9.4,8.3-8.9
		c5,0.4,9.9,1,13.5,1.4c13.2-14.3,25.9-27,44.8-32.2c0.2-1.6,0.1-3.4,0.6-5.2c1.4-5.2,3.7-6.8,9.3-6.3c3.4,0.2,6.7,0.7,10.2,0.6
		c-5.2-0.4-9.6-2.2-13.2-6.3c11.6-6.7,21.5-2.4,22.5,10c0.4,4.6-0.2,9.5-1.7,13.9c-2.3,7-3.8,13,3.4,18.2c3.2,2.3,3.3,8.4,1,11.5
		C635.3,1165.3,633.7,1164.6,632.7,1164.3c-0.1-1.5-0.3-3-0.4-4.4c-0.5,0.2-1,0.4-1.4,0.6C631.5,1161.8,632.1,1163,632.7,1164.3z"/>
	<path class="st0" d="M303.8,1216.7c0.8-7.8,3.5-13.7,8.1-18.8c1.3-1.5,3.1-3.7,2.8-5.2c-1-5.7,2.3-9,5.6-12.4
		c4.6-4.7,9.4-9.3,14.3-13.6c3.3-3,7.4-4.6,11.6-2.3c4.4,2.4,4.4,6.8,4,11.1c-1.1,11.3-4.9,21-16,26.4c-4.7,2.3-6.7,6.4-7.4,11.4
		c-0.6,4.4-1.4,8.9-2.7,13.1c-2.6,8.6-10,10.2-16.4,3.8C303.6,1226.1,302.6,1221.2,303.8,1216.7z"/>
	<path class="st0" d="M572.3,1202.5c-2.1,0.9-3.9,1.7-6.9,3c-0.1-3.1-0.8-5.4-0.2-7.4c1.1-4,2.4-8.1,4.3-11.8
		c4.9-9.2,8-9.5,14.7-1.7c3.7-1.3,7.4-2.8,11.2-3.9c4.5-1.3,8.3,0.1,11.5,3.4c6.3,6.4,8.9,21,5.2,29.1c-1.4,3.2-3.9,3.1-6.6,2.4
		c-5.1-1.3-10.1-2.8-15.8-4.4c-1.7,9.2-9.5,2.4-14.4,7.1C574,1212.4,573.2,1207.6,572.3,1202.5z"/>
	<path class="st0" d="M350.7,1144.5c4.3,0.8,7.2,2.8,8.8,6.6c1.8,4.1,1,6.6-3.2,8c-3.5,1.2-7.1,1.8-10.8,2.5c-3.3,0.6-7,1.6-8.9-2.6
		c-1.6-3.6,0.5-9.7,4.5-11.5C344,1146,347.4,1145.5,350.7,1144.5z"/>
	<path class="st0" d="M800.3,968.3c-3.5,6.3-8.5,7-14.3,6.8c-5.6-0.2-11.2,0.3-16.6,0.6c0.7-5,3.4-8,12.2-12.5
		c0.4,1.7,0.8,3.3,1.2,5C788.3,969.1,793.9,964.9,800.3,968.3z"/>
	<path class="st0" d="M535.4,1207.7c-5.6-2.8-9.7-4.8-13.7-7c-0.8-0.5-1.5-2.4-1.2-3.2c0.3-0.9,1.9-1.6,3-1.7
		C529.6,1195.1,533.2,1198.3,535.4,1207.7z"/>
</g>
</svg>
