<svg width="325" height="342" viewBox="0 0 325 342" xmlns="http://www.w3.org/2000/svg" xmlns:xlink="http://www.w3.org/1999/xlink">
    <defs>
        <rect id="a5zlaepuub" x="48" y="40" width="229" height="279" rx="10"/>
        <rect id="s04fomx95c" x="0" y="0" width="93" height="82" rx="5"/>
        <path id="l5ouk50j7e" d="M0 0h2.105v2H0z"/>
        <path id="hl51s1tk3g" d="M0 0h2.105v2H0z"/>
        <filter x="-6.6%" y="-5.4%" width="113.1%" height="110.8%" filterUnits="objectBoundingBox" id="cd55mfimya">
            <feOffset in="SourceAlpha" result="shadowOffsetOuter1"/>
            <feGaussianBlur stdDeviation="5" in="shadowOffsetOuter1" result="shadowBlurOuter1"/>
            <feColorMatrix values="0 0 0 0 0 0 0 0 0 0 0 0 0 0 0 0 0 0 0.20074847 0" in="shadowBlurOuter1"/>
        </filter>
    </defs>
    <g fill="none" fill-rule="evenodd">
        <circle fill-opacity=".296" fill="#FF3184" cx="162.5" cy="179.5" r="162.5"/>
        <use fill="#000" filter="url(#cd55mfimya)" xlink:href="#a5zlaepuub"/>
        <use fill="#FFF" xlink:href="#a5zlaepuub"/>
        <g transform="translate(169 195)">
            <mask id="oy02a6yijd" fill="#fff">
                <use xlink:href="#s04fomx95c"/>
            </mask>
            <rect stroke="#8081A1" stroke-width="2" x="-1" y="-1" width="95" height="84" rx="5"/>
            <g mask="url(#oy02a6yijd)" fill="#FFF">
                <path d="M30.198 31.505 68.997 70.38-1.368 140.88l-38.799-38.874z"/>
                <path d="m66.468 41.755 38.799 38.875-61.816 61.936L4.652 103.69z"/>
            </g>
            <ellipse fill="#FFF" mask="url(#oy02a6yijd)" cx="76.725" cy="15.375" rx="8.835" ry="8.852"/>
        </g>
        <rect fill="#8081A1" x="63" y="231" width="91" height="47" rx="5"/>
        <rect fill="#8081A1" x="63" y="175" width="199" height="11" rx="5"/>
        <rect fill="#8081A1" x="63" y="193" width="91" height="11" rx="5"/>
        <rect fill="#8081A1" x="63" y="212" width="91" height="11" rx="5"/>
        <rect fill="#8081A1" x="63" y="105" width="45" height="40" rx="4"/>
        <rect fill="#8081A1" x="123" y="105" width="139" height="11" rx="5"/>
        <rect fill="#8081A1" x="123" y="120" width="106" height="11" rx="5"/>
        <g transform="translate(237)">
            <circle stroke="#FF3184" stroke-width="7" fill="#FFF" cx="40" cy="40" r="36.5"/>
            <path d="M55.086 24.345 33.677 45.901l-7.834-7.887a3.675 3.675 0 0 0-5.225 0 3.735 3.735 0 0 0 0 5.26l10.448 10.519a3.675 3.675 0 0 0 5.225 0l24.022-24.185a3.74 3.74 0 0 0 0-5.263 3.68 3.68 0 0 0-5.227 0z" fill="#FF3184"/>
        </g>
        <g opacity=".6">
            <path d="M66.686 62.027v1.753h-.89v5.134h-2.144V63.78H63v-1.753h.652v-.26c0-.871.236-1.509.709-1.912.472-.404 1.214-.606 2.225-.605v1.79c-.285 0-.488.053-.608.16-.12.107-.18.296-.183.568v.259h.891zM67.326 65.483c0-1.03.31-1.875.928-2.537.619-.661 1.373-.993 2.263-.993.89 0 1.573.325 2.05.975v-.901h2.144v6.887h-2.144v-1c-.518.724-1.21 1.086-2.079 1.086-.868 0-1.612-.33-2.232-.988-.62-.657-.93-1.5-.93-2.53zm5.241-.012c0-.543-.154-.96-.463-1.253a1.497 1.497 0 0 0-1.066-.438c-.401 0-.757.148-1.066.444-.31.296-.464.716-.464 1.259 0 .542.154.96.464 1.252.31.293.665.44 1.066.438.4 0 .756-.148 1.066-.444.31-.296.464-.716.463-1.258zM76.079 65.47c0-1.07.323-1.923.971-2.56.648-.638 1.486-.957 2.514-.957.853 0 1.576.208 2.17.623.593.416.986 1.01 1.178 1.784h-2.32c-.2-.412-.528-.618-.984-.618-.456 0-.794.16-1.014.476-.222.317-.332.734-.332 1.253 0 .518.11.935.332 1.252.221.317.545.475.971.475.268 0 .477-.045.627-.135.15-.091.284-.251.402-.482h2.32a3.06 3.06 0 0 1-1.192 1.765c-.602.437-1.32.655-2.157.654-1.028 0-1.866-.32-2.514-.963-.647-.641-.972-1.497-.972-2.566zM84.116 62.027h2.144v6.887h-2.144zM88.141 59.78h2.144v9.134h-2.144zM92.166 62.027h2.144v6.887h-2.144zM95.69 65.458c0-1.061.35-1.91 1.053-2.549.702-.638 1.571-.956 2.608-.956 1.036 0 1.904.319 2.602.956.698.638 1.047 1.487 1.047 2.549 0 1.062-.347 1.917-1.04 2.567-.693.65-1.558.975-2.595.975-1.036 0-1.908-.325-2.615-.975-.707-.65-1.06-1.505-1.06-2.567zm5.128.013c0-.56-.146-.986-.438-1.278a1.423 1.423 0 0 0-1.04-.438 1.402 1.402 0 0 0-1.035.438c-.288.292-.432.718-.432 1.278s.149.987.445 1.283c.297.296.646.444 1.047.444.395.003.771-.16 1.028-.444.283-.296.425-.724.425-1.283z" fill="#2A2C62" fill-rule="nonzero"/>
            <g transform="translate(84.135 59)">
                <mask id="f46ppnhg2f" fill="#fff">
                    <use xlink:href="#l5ouk50j7e"/>
                </mask>
                <path fill="#E63A81" fill-rule="nonzero" mask="url(#f46ppnhg2f)" d="M-.263-.25h2.631v2.5H-.263z"/>
            </g>
            <g transform="translate(92.186 59)">
                <mask id="94gf6izm5h" fill="#fff">
                    <use xlink:href="#hl51s1tk3g"/>
                </mask>
                <path fill="#34B1C0" fill-rule="nonzero" mask="url(#94gf6izm5h)" d="M-.264-.25h2.631v2.5H-.264z"/>
            </g>
        </g>
    </g>
</svg>
