<svg width="120" height="36" viewBox="0 0 120 36" fill="none" xmlns="http://www.w3.org/2000/svg">
<g clip-path="url(#clip0_76_18)">
<path d="M48.2656 0.458984H42.6349V35.532H48.2656V0.458984Z" fill="white"/>
<path d="M78.7113 5.45398C77.049 3.85704 75.074 2.61354 72.9078 1.79998C70.5012 0.901195 67.9483 0.446678 65.376 0.458984H52.6956V35.559H65.376C67.9494 35.5649 70.5022 35.1043 72.9078 34.2C75.0712 33.4061 77.0466 32.1807 78.7113 30.6C80.3319 29.0262 81.6022 27.1348 82.4409 25.047C83.3362 22.8043 83.7841 20.4112 83.7598 18C83.7785 15.6039 83.3307 13.2266 82.4409 10.998C81.5968 8.91559 80.3271 7.02816 78.7113 5.45398V5.45398ZM78.1292 18.054C78.1292 25.542 72.8805 30.771 65.3942 30.771H58.2171V5.25598H65.4124C72.9988 5.25598 78.1292 10.386 78.1292 18V18.054Z" fill="white"/>
<path d="M116.025 25.011V25.056C114.72 26.8027 113.018 28.2218 111.058 29.1988C109.097 30.1758 106.932 30.6835 104.736 30.681C97.459 30.681 92.1376 25.416 92.1376 18.162C92.1376 10.908 97.55 5.39999 104.763 5.39999C106.925 5.42531 109.05 5.95236 110.968 6.93873C112.886 7.92511 114.544 9.34324 115.806 11.079V11.079L119.745 7.55999C118.161 5.26577 116.014 3.40758 113.505 2.15999C110.755 0.75172 107.705 0.011317 104.609 -8.47041e-06C99.8219 -0.0449304 95.2077 1.76761 91.7556 5.04899C90.0633 6.68478 88.7207 8.64054 87.8077 10.8C86.8319 13.1368 86.3371 15.6427 86.3523 18.171C86.3323 20.6709 86.8178 23.1495 87.7804 25.461C88.6751 27.58 90.0003 29.4946 91.6737 31.086C95.1328 34.3067 99.7229 36.069 104.472 36C107.633 36.0088 110.751 35.2746 113.569 33.858C116.089 32.576 118.27 30.7263 119.936 28.458V28.458L116.025 25.011Z" fill="white"/>
<path d="M6.69495 32.121C8.444 33.5607 10.4449 34.671 12.5985 35.397C12.6929 35.4258 12.7909 35.4409 12.8896 35.442H24.2056C24.3072 35.4402 24.4081 35.4251 24.5058 35.397C26.0156 34.8818 27.4525 34.177 28.7811 33.3C28.8569 33.2488 28.9097 33.1704 28.9284 33.0815C28.947 32.9925 28.9301 32.8999 28.8811 32.823C28.8499 32.7749 28.8068 32.7356 28.7558 32.7088C28.7048 32.682 28.6478 32.6687 28.59 32.67H17.5743C17.1519 32.6642 16.7376 32.5541 16.3691 32.3498C16.0006 32.1455 15.6895 31.8534 15.4639 31.5C15.4197 31.4376 15.3612 31.3863 15.2933 31.3503C15.2253 31.3144 15.1498 31.2947 15.0728 31.293H6.98604C6.92554 31.293 6.86564 31.3049 6.80986 31.3281C6.75408 31.3513 6.70353 31.3852 6.66117 31.428C6.61882 31.4707 6.58551 31.5214 6.56319 31.577C6.54088 31.6327 6.53001 31.6921 6.53122 31.752C6.53044 31.8189 6.54473 31.8851 6.57305 31.9458C6.60137 32.0065 6.64302 32.0602 6.69495 32.103V32.121Z" fill="white"/>
<path d="M30.4002 3.87898C28.6917 2.47687 26.7452 1.38595 24.6513 0.656983C24.4546 0.592836 24.249 0.559435 24.0418 0.557983H13.0443C12.8371 0.558684 12.6313 0.592104 12.4348 0.656983C10.9814 1.16745 9.59738 1.85365 8.31412 2.69998C8.23679 2.74514 8.18027 2.8183 8.1565 2.90397C8.13273 2.98964 8.14358 3.08109 8.18677 3.15898C8.21795 3.20704 8.26111 3.24636 8.31209 3.27315C8.36306 3.29995 8.42015 3.31332 8.47785 3.31198H19.5209C19.951 3.31455 20.3735 3.42485 20.7488 3.63259C21.1242 3.84032 21.4403 4.13873 21.6677 4.49998C21.7108 4.56349 21.769 4.61557 21.8372 4.65166C21.9054 4.68775 21.9815 4.70674 22.0588 4.70698H30.1C30.2231 4.70698 30.3411 4.65862 30.4281 4.57255C30.5151 4.48647 30.564 4.36972 30.564 4.24798C30.5655 4.17838 30.5517 4.10928 30.5234 4.04554C30.4951 3.98179 30.4531 3.92494 30.4002 3.87898V3.87898Z" fill="white"/>
<path d="M37.0861 17.28C37.0768 17.1025 36.9989 16.9353 36.8685 16.8131C36.7382 16.6908 36.5653 16.6227 36.3857 16.623H29.2177C29.0396 16.6261 28.8646 16.5775 28.7142 16.4831C28.5638 16.3887 28.4447 16.2527 28.3717 16.092C28.314 15.976 28.2247 15.8782 28.1137 15.8098C28.0028 15.7415 27.8748 15.7051 27.7441 15.705H0.982414C0.750327 15.7046 0.526857 15.7919 0.357752 15.9492C0.188647 16.1065 0.0866962 16.3218 0.0727714 16.551C0 17.028 0 17.514 0 18C0 18.243 0 18.477 0 18.72C0.00476762 18.8974 0.0799945 19.0659 0.209389 19.1889C0.338783 19.3118 0.511929 19.3794 0.691328 19.377H7.8775C8.05403 19.3756 8.22714 19.4251 8.37574 19.5194C8.52434 19.6137 8.642 19.7487 8.71437 19.908C8.77361 20.0247 8.86459 20.1228 8.97708 20.1912C9.08957 20.2595 9.21911 20.2955 9.35112 20.295H36.1128C36.3449 20.2954 36.5684 20.208 36.7375 20.0508C36.9066 19.8935 37.0085 19.6782 37.0224 19.449C37.0224 18.972 37.077 18.486 37.077 18C37.0952 17.757 37.0952 17.523 37.0861 17.28Z" fill="white"/>
<path d="M24.8241 11.115C25.2142 11.1143 25.5981 11.2113 25.9401 11.397C26.2821 11.5827 26.571 11.851 26.7798 12.177C26.8438 12.2743 26.9315 12.3541 27.0348 12.4092C27.1381 12.4642 27.2538 12.4927 27.3711 12.492H35.2759C35.3845 12.4904 35.4913 12.4635 35.5875 12.4135C35.6837 12.3635 35.7666 12.2917 35.8295 12.2041C35.8924 12.1164 35.9335 12.0153 35.9496 11.9089C35.9656 11.8026 35.9561 11.694 35.9217 11.592C35.4952 10.4662 34.959 9.38409 34.3208 8.361C34.2383 8.227 34.1219 8.11665 33.9831 8.04087C33.8443 7.96509 33.6879 7.92653 33.5294 7.929H3.54755C3.38709 7.9189 3.22679 7.95106 3.08298 8.0222C2.93917 8.09334 2.81698 8.20093 2.72888 8.334C2.32835 8.96733 1.96981 9.62571 1.6555 10.305C1.62346 10.3729 1.60533 10.4464 1.60218 10.5213C1.59903 10.5961 1.61091 10.6709 1.63713 10.7412C1.66335 10.8115 1.7034 10.876 1.75495 10.9308C1.80651 10.9857 1.86855 11.03 1.93749 11.061C2.01458 11.096 2.09829 11.1144 2.18309 11.115H24.8241Z" fill="white"/>
<path d="M12.2437 24.885C11.8547 24.8867 11.4717 24.7901 11.131 24.6042C10.7903 24.4184 10.5033 24.1495 10.2971 23.823C10.2331 23.7257 10.1454 23.6459 10.0421 23.5908C9.93881 23.5358 9.82318 23.5073 9.70584 23.508H1.81924C1.72846 23.508 1.63856 23.5257 1.55468 23.5601C1.47081 23.5944 1.3946 23.6448 1.3304 23.7083C1.26621 23.7719 1.21528 23.8473 1.18054 23.9303C1.1458 24.0132 1.12792 24.1022 1.12792 24.192C1.12355 24.2754 1.13913 24.3587 1.1734 24.435C1.58537 25.5591 2.1063 26.6412 2.72889 27.666C2.81052 27.7987 2.92547 27.9082 3.06255 27.9839C3.19964 28.0596 3.35419 28.0989 3.51118 28.098H33.5294C33.6879 28.1005 33.8443 28.0619 33.9831 27.9861C34.1219 27.9104 34.2383 27.8 34.3208 27.666C34.7213 27.0327 35.0798 26.3743 35.3941 25.695C35.4558 25.5564 35.4598 25.3994 35.4053 25.2579C35.3508 25.1165 35.2423 25.0019 35.1031 24.939C35.0295 24.9031 34.9486 24.8846 34.8665 24.885H12.2437Z" fill="white"/>
</g>
<defs>
<clipPath id="clip0_76_18">
<rect width="120" height="36" fill="white"/>
</clipPath>
</defs>
</svg>
