<?xml version="1.0" encoding="UTF-8"?>
<svg width="140px" height="76px" viewBox="0 0 140 76" version="1.1" xmlns="http://www.w3.org/2000/svg" xmlns:xlink="http://www.w3.org/1999/xlink">
    <title>EmptyState</title>
    <g id="Final" stroke="none" stroke-width="1" fill="none" fill-rule="evenodd">
        <g id="Portal/User/Induction_Empty-State" transform="translate(-781.000000, -483.000000)">
            <g id="BG&amp;Empty-state" transform="translate(281.000000, 403.000000)">
                <g id="Empty-State" transform="translate(489.000000, 82.000000)">
                    <g id="EmptyState" transform="translate(11.000000, 0.000000)">
                        <path d="M134.131737,8.38323353 C137.372689,8.38323353 140,11.0105446 140,14.251497 C140,17.4924494 137.372689,20.1197605 134.131737,20.1197605 L100.598802,20.1197605 C103.839755,20.1197605 106.467066,22.7470715 106.467066,25.988024 C106.467066,29.2289764 103.839755,31.8562874 100.598802,31.8562874 L119.041916,31.8562874 C122.282869,31.8562874 124.91018,34.4835985 124.91018,37.7245509 C124.91018,40.9655033 122.282869,43.5928144 119.041916,43.5928144 L110.512887,43.5928144 C106.426469,43.5928144 103.113772,46.2201254 103.113772,49.4610778 C103.113772,51.6217128 104.790419,53.5778006 108.143713,55.3293413 C111.384665,55.3293413 114.011976,57.9566524 114.011976,61.1976048 C114.011976,64.4385572 111.384665,67.0658683 108.143713,67.0658683 L38.5628743,67.0658683 C35.3219218,67.0658683 32.6946108,64.4385572 32.6946108,61.1976048 C32.6946108,57.9566524 35.3219218,55.3293413 38.5628743,55.3293413 L5.86826347,55.3293413 C2.62731105,55.3293413 0,52.7020303 0,49.4610778 C0,46.2201254 2.62731105,43.5928144 5.86826347,43.5928144 L39.4011976,43.5928144 C42.64215,43.5928144 45.2694611,40.9655033 45.2694611,37.7245509 C45.2694611,34.4835985 42.64215,31.8562874 39.4011976,31.8562874 L18.4431138,31.8562874 C15.2021613,31.8562874 12.5748503,29.2289764 12.5748503,25.988024 C12.5748503,22.7470715 15.2021613,20.1197605 18.4431138,20.1197605 L51.9760479,20.1197605 C48.7350955,20.1197605 46.1077844,17.4924494 46.1077844,14.251497 C46.1077844,11.0105446 48.7350955,8.38323353 51.9760479,8.38323353 L134.131737,8.38323353 Z M134.131737,31.8562874 C137.372689,31.8562874 140,34.4835985 140,37.7245509 C140,40.9655033 137.372689,43.5928144 134.131737,43.5928144 C130.890784,43.5928144 128.263473,40.9655033 128.263473,37.7245509 C128.263473,34.4835985 130.890784,31.8562874 134.131737,31.8562874 Z" id="Background" fill="#F3F7FF"></path>
                        <path d="M59.6203423,48.8798077 C59.5548368,49.3435914 59.5209581,49.8175399 59.5209581,50.2994012 C59.5209581,55.8553196 64.0249199,60.3592814 69.5808383,60.3592814 C75.1367568,60.3592814 79.6407186,55.8553196 79.6407186,50.2994012 C79.6407186,49.8175399 79.6068398,49.3435914 79.5413344,48.8798077 L103.952096,48.8798077 L103.952096,71.257485 C103.952096,72.6464646 102.826105,73.7724551 101.437126,73.7724551 L37.7245509,73.7724551 C36.3355713,73.7724551 35.2095808,72.6464646 35.2095808,71.257485 L35.2095808,48.8798077 L59.6203423,48.8798077 Z" id="Path" fill="#FFFFFF"></path>
                        <path d="M80.4790419,48.6227545 C80.4790419,54.6416661 75.59975,59.5209581 69.5808383,59.5209581 C63.5619267,59.5209581 58.6826347,54.6416661 58.6826347,48.6227545 C58.6826347,48.4277593 58.6877559,48.2339602 58.6978711,48.0414843 L35.2095808,48.0414843 L43.2243207,24.3439488 C43.5698416,23.3223322 44.5282583,22.6347305 45.6067226,22.6347305 L93.5549541,22.6347305 C94.6334183,22.6347305 95.5918351,23.3223322 95.9373559,24.3439488 L103.952096,48.0414843 L80.4638056,48.0414843 C80.4739208,48.2339602 80.4790419,48.4277593 80.4790419,48.6227545 Z" id="Path" fill="#FFFFFF"></path>
                        <path d="M78.8841829,49.4229722 C78.8841829,54.0739494 74.7189336,58.6826347 69.5808383,58.6826347 C64.442743,58.6826347 60.2774938,54.0739494 60.2774938,49.4229722 C60.2774938,49.2722941 60.2818655,48.2842169 60.2905004,48.1354856 L42.754491,48.1354856 L49.5963422,31.5004003 C49.8912989,30.7109693 50.7094596,30.1796407 51.6300998,30.1796407 L87.5315768,30.1796407 C88.452217,30.1796407 89.2703777,30.7109693 89.5653345,31.5004003 L96.4071856,48.1354856 L78.8711762,48.1354856 C78.8798111,48.2842169 78.8841829,49.2722941 78.8841829,49.4229722 Z" id="Path" fill="#E8F0FE"></path>
                        <path d="M93.2069766,23.8847305 C93.5821923,23.8847305 93.9365248,24.0043446 94.2271064,24.212818 C94.517688,24.4212914 94.7445188,24.7186242 94.8647313,25.0740616 L94.8647313,25.0740616 L102.702096,48.2471436 L102.702096,69.9341317 C102.702096,70.4173809 102.50622,70.8548809 102.189533,71.1715686 C101.872845,71.4882563 101.435345,71.6841317 100.952096,71.6841317 L100.952096,71.6841317 L38.2095808,71.6841317 C37.7263317,71.6841317 37.2888317,71.4882563 36.972144,71.1715686 C36.6554563,70.8548809 36.4595808,70.4173809 36.4595808,69.9341317 L36.4595808,69.9341317 L36.4595808,48.2471436 L44.2969454,25.0740616 C44.4171578,24.7186242 44.6439886,24.4212914 44.9345703,24.212818 C45.2251519,24.0043446 45.5794843,23.8847305 45.9547,23.8847305 L45.9547,23.8847305 Z" id="Rectangle" stroke="#75A4FE" stroke-width="2.5"></path>
                        <path d="M40.7204926,47.7844311 L42.754491,47.7844311 L40.7204926,47.7844311 Z M46.9461078,47.7844311 C50.2462261,47.7844311 53.8076783,47.7844311 57.6304645,47.7844311 C59.2033938,47.7844311 59.2033938,48.8898238 59.2033938,49.4610778 C59.2033938,55.0169963 63.8109786,59.5209581 69.4947225,59.5209581 C75.1784664,59.5209581 79.7860513,55.0169963 79.7860513,49.4610778 C79.7860513,48.8898238 79.7860513,47.7844311 81.3589806,47.7844311 L102.275449,47.7844311" id="Shape" stroke="#75A4FE" stroke-width="2.5" stroke-linecap="round" stroke-linejoin="round"></path>
                        <path d="M68.8260198,0 L68.8260198,14.0468282 M46.9461078,3.60708271 L56.2511695,14.0468282 M90.622427,3.60708271 L81.3173653,14.0468282" id="lines" stroke="#A4C3FE" stroke-width="2.5" stroke-linecap="round" stroke-linejoin="round"></path>
                    </g>
                </g>
            </g>
        </g>
    </g>
</svg>