<svg id="Layer_1" data-name="Layer 1" xmlns="http://www.w3.org/2000/svg" viewBox="0 0 512 512"><defs><style>.cls-1{fill:#ffce00;}.cls-2{font-size:140.8px;fill:#0c0c0c;font-family:ProximaNova-Semibold, Proxima Nova;font-weight:600;}</style></defs><path class="cls-1" d="M503.47,257c0,10.68-53.52,17.44-55,27.71-1.5,10.53,47.95,32,45,42-3,10.17-56.23,1.55-60.57,11s36.94,44.23,31.27,53-54.36-14.43-61.24-6.5S426,437.13,418.07,444s-48.09-29.12-57-23.41,7.34,57.14-2.27,61.54-37.86-41.52-48-38.53c-10,2.93-9.09,56.86-19.62,58.36-10.27,1.47-24.51-50.54-35.19-50.54s-24.92,52-35.19,50.54c-10.53-1.5-9.62-55.43-19.62-58.36-10.17-3-38.52,42.88-48,38.53s6.54-55.86-2.27-61.54-49,30.29-57,23.41,22-51.75,15.11-59.7-55.53,15.37-61.24,6.5,35.67-43.43,31.27-53-57.59-.88-60.57-11c-2.93-10,46.52-31.49,45-42-1.47-10.27-55-17-55-27.71s53.52-17.44,55-27.71c1.5-10.53-47.95-32-45-42,3-10.17,56.23-1.55,60.57-11.05S42.13,132,47.8,123.18s54.36,14.43,61.24,6.5S86,76.87,93.93,70s48.09,29.12,57,23.41-7.34-57.14,2.27-61.54,37.86,41.52,48,38.53c10-2.93,9.09-56.86,19.62-58.36,10.27-1.47,24.51,50.54,35.19,50.54s24.92-52,35.19-50.54c10.53,1.5,9.62,55.43,19.62,58.36,10.17,3,38.52-42.88,48-38.53s-6.54,55.86,2.27,61.54,49-30.29,57-23.41-22,51.75-15.11,59.7,55.53-15.37,61.24-6.5-35.67,43.43-31.27,53,57.59.88,60.57,11.05c2.93,10-46.52,31.49-45,42C450,239.56,503.47,246.32,503.47,257Z"/><text class="cls-2" transform="translate(104.08 305.84)">NEW</text></svg>