<?xml version="1.0" encoding="UTF-8"?>
<svg width="48px" height="49px" viewBox="0 0 48 49" version="1.1" xmlns="http://www.w3.org/2000/svg" xmlns:xlink="http://www.w3.org/1999/xlink">
    <!-- Generator: Sketch 52.6 (67491) - http://www.bohemiancoding.com/sketch -->
    <title>linkedin</title>
    <desc>Created with Sketch.</desc>
    <g id="Page-1" stroke="none" stroke-width="1" fill="none" fill-rule="evenodd">
        <g id="Future_Proof_Website1.0" transform="translate(-234.000000, -6539.000000)" fill-rule="nonzero">
            <g id="linkedin" transform="translate(234.000000, 6539.000000)">
                <circle id="Oval" fill="#007AB9" cx="23.8292389" cy="24.2535929" r="23.8292389"></circle>
                <path d="M38.0669735,26.1710442 L38.0669735,35.9953274 L32.371115,35.9953274 L32.371115,26.8294513 C32.371115,24.528 31.5487434,22.9563186 29.4864425,22.9563186 C27.9126372,22.9563186 26.9776991,24.0144425 26.5648142,25.0390088 C26.4148673,25.4051681 26.3762124,25.9136283 26.3762124,26.4271858 L26.3762124,35.9949027 L20.6799292,35.9949027 C20.6799292,35.9949027 20.7563894,20.4709381 20.6799292,18.864 L26.3766372,18.864 L26.3766372,21.2916106 C26.3651681,21.3107257 26.3490265,21.3294159 26.3388319,21.3476814 L26.3766372,21.3476814 L26.3766372,21.2916106 C27.1335929,20.1268673 28.4835398,18.4617345 31.5100885,18.4617345 C35.2574867,18.4617345 38.0669735,20.9101593 38.0669735,26.1710442 Z M14.7211327,10.6063009 C12.7726726,10.6063009 11.4979115,11.8853097 11.4979115,13.5657345 C11.4979115,15.2104779 12.7357168,16.5264425 14.6463717,16.5264425 L14.6833274,16.5264425 C16.6700177,16.5264425 17.9052743,15.2104779 17.9052743,13.5657345 C17.867469,11.8853097 16.6700177,10.6063009 14.7211327,10.6063009 Z M11.8364602,35.9953274 L17.5306195,35.9953274 L17.5306195,18.864 L11.8364602,18.864 L11.8364602,35.9953274 Z" id="Shape" fill="#F1F2F2"></path>
            </g>
        </g>
    </g>
</svg>