<?xml version="1.0" encoding="iso-8859-1"?>
<!-- Generator: Adobe Illustrator 19.0.0, SVG Export Plug-In . SVG Version: 6.00 Build 0)  -->
<svg version="1.1" id="Capa_1" xmlns="http://www.w3.org/2000/svg" xmlns:xlink="http://www.w3.org/1999/xlink" x="0px" y="0px"
	 viewBox="0 0 512.002 512.002" style="enable-background:new 0 0 512.002 512.002;" xml:space="preserve">
<g>
	<g>
		<g>
			<path d="M171.538,301.612c-25.186-46.655-7.783-104.894,38.872-130.081c5.783-3.122,11.87-5.641,18.168-7.519l11.424-3.424V0.044
				L221.89,2.46c-36.334,4.802-71.197,17.416-102.192,36.976l17.04,27.104c21.867-13.816,45.987-23.694,71.264-29.184v99.968
				c-65.534,26.508-97.172,101.123-70.664,166.657c0.264,0.652,0.533,1.303,0.808,1.951l-70.64,70.64
				c-37.464-58.251-45.791-130.584-22.544-195.824l-30.144-10.752c-29.059,81.57-14.822,172.307,37.824,241.056l11.104,14.528
				l113.488-113.472L171.538,301.612z"/>
			<path d="M112.578,84.092L92.098,59.5c-8.745,7.28-16.997,15.132-24.704,23.504l23.568,21.664
				C97.703,97.338,104.924,90.464,112.578,84.092z"/>
			<path d="M72.274,127.948L46.05,109.564c-6.504,9.323-12.384,19.067-17.6,29.168l28.432,14.704
				C61.438,144.606,66.58,136.091,72.274,127.948z"/>
			<path d="M290.114,2.46l-18.112-2.416v160.544l11.424,3.392c50.808,15.153,79.712,68.624,64.56,119.432
				c-1.878,6.297-4.398,12.385-7.519,18.168l-5.696,10.496l113.488,113.472l11.088-14.544
				c34.223-44.437,52.741-98.969,52.656-155.056C511.643,127.926,416.962,19.761,290.114,2.46z M304.002,129.164V37.372
				c23.164,5.111,45.356,13.912,65.728,26.064L304.002,129.164z M351.874,171.692c-7.084-8.018-15.147-15.113-24-21.12
				l68.512-68.544c8.306,6.686,16.133,13.947,23.424,21.728L351.874,171.692z M440.002,128.812
				c6.269,9.098,11.863,18.644,16.736,28.56l-75.2,75.2c-2.192-11.773-6.038-23.176-11.424-33.872L440.002,128.812z
				 M373.842,305.932c3.834-9.192,6.588-18.797,8.208-28.624l87.616-87.616c3.793,12.115,6.534,24.534,8.192,37.12l-91.552,91.536
				L373.842,305.932z M444.514,376.572l-0.016,0l-35.584-35.568l70.56-70.56C477.102,308.231,465.064,344.774,444.514,376.572z"/>
			<path d="M301.666,340.412c-28.573,15.088-62.755,15.088-91.328,0l-10.496-5.696L86.402,448.204l14.528,11.104
				c91.482,70.199,218.71,70.199,310.192,0l14.544-11.088L312.162,334.716L301.666,340.412z M256.002,479.948
				c-42.796,0.082-84.697-12.251-120.624-35.504l70.64-70.64c31.993,13.312,67.975,13.312,99.968,0l70.64,70.656
				C340.694,467.701,298.795,480.028,256.002,479.948z"/>
		</g>
	</g>
</g>
<g>
</g>
<g>
</g>
<g>
</g>
<g>
</g>
<g>
</g>
<g>
</g>
<g>
</g>
<g>
</g>
<g>
</g>
<g>
</g>
<g>
</g>
<g>
</g>
<g>
</g>
<g>
</g>
<g>
</g>
</svg>
