<?xml version="1.0" encoding="UTF-8"?>
<svg width="116px" height="110px" viewBox="0 0 116 110" version="1.1" xmlns="http://www.w3.org/2000/svg" xmlns:xlink="http://www.w3.org/1999/xlink">
    <!-- Generator: Sketch 52 (66869) - http://www.bohemiancoding.com/sketch -->
    <title>“</title>
    <desc>Created with Sketch.</desc>
    <g id="Contact-Us-" stroke="none" stroke-width="1" fill="none" fill-rule="evenodd">
        <g id="Contact-Us---Testimonials" transform="translate(-286.000000, -216.000000)" fill="#F5F3FF">
            <path d="M330.923636,235.846449 C321.22177,237.676273 314.402444,244.71395 310.465455,256.959693 C308.49696,263.012186 307.512727,268.994212 307.512727,274.90595 C307.512727,275.609728 307.547878,276.207931 307.618182,276.700576 C307.688485,277.193221 307.793939,278.284061 307.934545,279.973129 L330.923636,279.973129 L330.923636,326 L286,326 L286,283.56238 C286,262.730542 290.147837,246.684637 298.443636,235.424184 C306.739435,224.163731 317.565994,217.689068 330.923636,216 L330.923636,235.846449 Z M402,235.846449 C394.266628,237.11325 388.396384,241.47661 384.389091,248.93666 C380.381798,256.39671 378.378182,264.982677 378.378182,274.694818 C378.378182,275.539352 378.413333,276.383873 378.483636,277.228407 C378.55394,278.072941 378.729696,278.987839 379.010909,279.973129 L402,279.973129 L402,326 L356.865455,326 L356.865455,283.56238 C356.865455,266.812456 360.380571,251.857391 367.410909,238.696737 C374.441247,225.536083 385.970829,217.970579 402,216 L402,235.846449 Z" id="“"></path>
        </g>
    </g>
</svg>