<svg xmlns="http://www.w3.org/2000/svg" xmlns:xlink="http://www.w3.org/1999/xlink" width="17" height="12" viewBox="0 0 39 35" version="1.1">
    <!-- Generator: Sketch 63.1 (92452) - https://sketch.com -->
    <title>“</title>
    <desc>Created with Sketch.</desc>
    <g id="Page-1" stroke="none" stroke-width="1" fill="#fff" fill-rule="evenodd">
        <g id="Case-Study-Copy-6" transform="translate(-554.000000, -5099.000000)" fill="#fff" fill-rule="nonzero">
            <g id="Testimonia-Copy" transform="translate(131.000000, 4763.000000)">
                <path d="M439.62,370.96 L439.62,355.14 L430.38,355.14 C430.52,346.32 431.64,344.36 438.36,341.7 L434.16,336.38 C425.9,340.44 423.66,344.36 423.66,355.14 L423.66,370.96 L439.62,370.96 Z M461.74,370.96 L461.74,355.14 L452.5,355.14 C452.64,346.32 453.76,344.36 460.48,341.7 L456.28,336.38 C448.02,340.44 445.78,344.36 445.78,355.14 L445.78,370.96 L461.74,370.96 Z" id="“" transform="translate(442.700000, 353.670000) scale(-1, -1) translate(-442.700000, -353.670000) "/>
            </g>
        </g>
    </g>
</svg>