<?xml version="1.0" encoding="UTF-8"?>
<svg width="24px" height="24px" viewBox="0 0 24 24" version="1.1" xmlns="http://www.w3.org/2000/svg" xmlns:xlink="http://www.w3.org/1999/xlink">
    <title>Arrow</title>
    <g id="Page-1" stroke="none" stroke-width="1" fill="none" fill-rule="evenodd">
        <g id="Thankyou_page_1" transform="translate(-245.000000, -782.000000)">
            <g id="Group-2" transform="translate(150.000000, 630.000000)">
                <g id="Arrow" transform="translate(95.000000, 152.000000)">
                    <rect id="Rectangle" x="0" y="0" width="24" height="24"></rect>
                    <g id="arrow-pointing-to-right" transform="translate(4.000000, 6.000000)" fill="#FF3184" fill-rule="nonzero">
                        <path d="M16.7684599,5.42665058 L11.7095478,0.237454375 C11.4008909,-0.0791514583 10.9003115,-0.0791514583 10.5916547,0.237454375 C10.2829345,0.554125073 10.2829345,1.06746631 10.5916547,1.38413701 L14.3011652,5.18917999 L0.790455023,5.18917999 C0.353934141,5.18917999 0,5.55222912 0,6 C0,6.44768979 0.353934141,6.8108038 0.790455023,6.8108038 L14.3011652,6.8108038 L10.5917811,10.6158468 C10.283061,10.9325175 10.283061,11.4458587 10.5917811,11.7625294 C10.7460779,11.920735 10.9484344,12 11.1507277,12 C11.3530209,12 11.5553142,11.920735 11.7096742,11.7625294 L16.7684599,6.57333321 C17.07718,6.25666251 17.07718,5.74332127 16.7684599,5.42665058 Z" id="Path"></path>
                    </g>
                </g>
            </g>
        </g>
    </g>
</svg>