<?xml version="1.0" encoding="UTF-8"?>
<svg width="60px" height="60px" viewBox="0 0 60 60" version="1.1" xmlns="http://www.w3.org/2000/svg" xmlns:xlink="http://www.w3.org/1999/xlink">
    <!-- Generator: Sketch 51.2 (57519) - http://www.bohemiancoding.com/sketch -->
    <title>right-arrow</title>
    <desc>Created with Sketch.</desc>
    <defs></defs>
    <g id="Page-1" stroke="none" stroke-width="1" fill="none" fill-rule="evenodd">
        <g id="right-arrow" fill="#FFFFFF" fill-rule="nonzero">
            <path d="M59.145948,27.2829032 L41.3020818,1.47645161 C40.2133829,-0.0980645161 38.4477323,-0.0980645161 37.3590335,1.47645161 C36.2701115,3.05129032 36.2701115,5.60419355 37.3590335,7.17903226 L50.4432714,26.1019355 L2.78810409,26.1019355 C1.24840149,26.1019355 0,27.9074194 0,30.1341935 C0,32.3606452 1.24840149,34.1664516 2.78810409,34.1664516 L50.4432714,34.1664516 L37.3594796,53.0893548 C36.2705576,54.6641935 36.2705576,57.2170968 37.3594796,58.7919355 C37.9037175,59.5787097 38.6174721,59.9729032 39.3310037,59.9729032 C40.0445353,59.9729032 40.7580669,59.5787097 41.3025279,58.7919355 L59.145948,32.9854839 C60.2348699,31.4106452 60.2348699,28.8577419 59.145948,27.2829032 Z" id="Shape"></path>
        </g>
    </g>
</svg>