<?xml version="1.0" encoding="UTF-8"?>
<svg width="91px" height="40px" viewBox="0 0 91 40" version="1.1" xmlns="http://www.w3.org/2000/svg" xmlns:xlink="http://www.w3.org/1999/xlink">
    <!-- Generator: Sketch 52 (66869) - http://www.bohemiancoding.com/sketch -->
    <title>footer-logo</title>
    <desc>Created with Sketch.</desc>
    <g id="Contact-Us-" stroke="none" stroke-width="1" fill="none" fill-rule="evenodd">
        <g id="Contact-Us---Testimonials" transform="translate(-842.000000, -752.000000)" fill="#05A1B0">
            <g id="Group-13" transform="translate(311.000000, 732.000000)">
                <g id="Group-11">
                    <g id="footer-logo" transform="translate(531.000000, 20.000000)">
                        <path d="M14.2285714,15.1428571 C14.2285714,15.1428571 2.11428571,37.9428571 1.85714286,38.4571429 C1.57142857,39 1.51428571,39.3142857 1.71428571,39.5142857 L1.85714286,39.6571429 C2.14285714,39.8857143 2.65714286,39.8285714 3.11428571,39.4857143 L21.3142857,24.6857143 C22.8285714,23.6285714 21.4857143,22.3428571 21.4857143,22.3428571 L14.2285714,15.1428571 Z" id="Shape" fill-rule="nonzero"></path>
                        <path d="M34.6,32.8571429 C33.9142857,33.3428571 33.1142857,33.6 32.1142857,33.6 C31.1142857,33.6 30.2857143,33.3714286 29.7428571,32.9142857 C29.1428571,32.4571429 28.8,31.8 28.6571429,30.9142857 L27.3428571,30.9142857 C27.3428571,32.0571429 27.7428571,32.9714286 28.6,33.7142857 C29.4285714,34.4285714 30.6285714,34.7714286 32.1428571,34.7714286 C33.5714286,34.7714286 34.7428571,34.4 35.6285714,33.6857143 C36.5142857,32.9428571 36.9428571,32.0571429 36.9428571,31.0285714 C36.9428571,30 36.6857143,29.1714286 36.1428571,28.5428571 C35.3714286,27.9142857 34.2,27.4571429 32.5142857,27.0857143 C31.2571429,26.8285714 30.3714286,26.5142857 29.8571429,26.1714286 C29.3428571,25.8 29.0571429,25.3428571 29.0571429,24.7714286 C29.0571429,24.1714286 29.3428571,23.6571429 29.9428571,23.2285714 C30.5428571,22.8 31.2571429,22.6 32.1428571,22.6 C32.9714286,22.6 33.6571429,22.8 34.2285714,23.2285714 C34.7714286,23.6571429 35.0857143,24.2285714 35.2,24.9428571 L36.5142857,24.9428571 C36.5142857,23.9142857 36.1142857,23.0857143 35.3142857,22.4285714 C34.5142857,21.7428571 33.4571429,21.4285714 32.1142857,21.4285714 C30.8,21.4285714 29.7428571,21.7714286 28.9142857,22.4285714 C28.1142857,23.0857143 27.6857143,23.8857143 27.6857143,24.8571429 C27.6857143,25.7428571 27.9428571,26.4857143 28.4,27.0285714 C29.0857143,27.5714286 30.1714286,28.0285714 31.6857143,28.3428571 C33.0857143,28.6285714 34.0857143,29 34.6857143,29.4285714 C35.2857143,29.8857143 35.5714286,30.4571429 35.5714286,31.1714286 C35.6285714,31.7714286 35.2857143,32.3714286 34.6,32.8571429" id="Path"></path>
                        <polygon id="Path" points="53.5428571 21.6 52.4857143 21.6 51.4857143 21.6 46.5428571 32.8285714 41.6285714 21.6 40.6 21.6 39.5714286 21.6 39.5714286 34.5714286 40.2285714 34.5714286 40.9142857 34.5714286 40.9142857 23.1142857 45.9714286 34.5714286 46.5428571 34.5714286 47.1428571 34.5714286 52.2 23.1142857 52.2 34.5714286 52.8571429 34.5714286 53.5428571 34.5714286"></polygon>
                        <path d="M66.3142857,21.6 L54.7142857,34.5714286 L55.4285714,34.5714286 L56.1428571,34.5714286 L60.0571429,30.1714286 L66.2857143,30.1714286 L66.2857143,34.5714286 L67.0285714,34.5714286 L67.5142857,34.5714286 L67.5142857,21.6 L67.0571429,21.6 L66.3142857,21.6 Z M66.2857143,29 L63.8857143,29 L61.0857143,29 L66.2857143,23.2285714 L66.2857143,29 Z" id="Shape" fill-rule="nonzero"></path>
                        <path d="M79.0857143,25.7142857 C79.0857143,24.4 78.6571429,23.4285714 77.7714286,22.6857143 C76.8857143,21.9428571 75.6571429,21.6 74.0571429,21.6 L70.6571429,21.6 L69.9714286,21.6 L69.9714286,34.5714286 L70.6571429,34.5714286 L71.3428571,34.5714286 L71.3428571,29.7714286 L73.5142857,29.7714286 L77.2571429,34.5428571 L78.0857143,34.5428571 L78.9142857,34.5428571 L75.0857143,29.7714286 C76.1714286,29.6285714 77.0571429,29.3142857 77.7714286,28.7142857 C78.6571429,28.0285714 79.0857143,27 79.0857143,25.7142857 M76.7714286,27.8857143 C76.1142857,28.4 75.2285714,28.6571429 74.0857143,28.6571429 L71.3142857,28.6571429 L71.3142857,22.7714286 L74.0571429,22.7714286 C75.2,22.7714286 76.1142857,23.0285714 76.7428571,23.5428571 C77.4,24.0571429 77.7142857,24.8 77.7142857,25.7142857 C77.7428571,26.6285714 77.4285714,27.3714286 76.7714286,27.8857143" id="Shape" fill-rule="nonzero"></path>
                        <polygon id="Path" points="85.0285714 34.5714286 86.4 34.5714286 86.4 22.7714286 90.9714286 22.7714286 90.9714286 21.6 80.4285714 21.6 80.4285714 22.7714286 85.0285714 22.7714286"></polygon>
                        <path d="M29.0285714,36.6 C28.9714286,36.6 28.9142857,36.6285714 28.8857143,36.6857143 L27.3142857,39.7714286 L27.6571429,39.7714286 L28.0857143,38.9428571 L29.9714286,38.9428571 L30.4,39.7714286 L30.7142857,39.7714286 L29.1428571,36.6857143 C29.1428571,36.6285714 29.1142857,36.6 29.0285714,36.6 Z M28.2285714,38.6571429 L29.0285714,37.1142857 L29.8285714,38.6571429 L28.2285714,38.6571429 Z" id="Shape" fill-rule="nonzero"></path>
                        <path d="M34.0285714,38.9428571 C34.0285714,39.0857143 34,39.1714286 33.9428571,39.2571429 C33.8857143,39.3428571 33.8,39.4 33.7142857,39.4285714 C33.6285714,39.4857143 33.5142857,39.5142857 33.4571429,39.5142857 C33.3428571,39.5142857 33.2571429,39.5428571 33.2,39.5428571 C33.1142857,39.5428571 33.0285714,39.5428571 32.9428571,39.5142857 C32.8285714,39.4857143 32.7428571,39.4571429 32.6857143,39.4285714 C32.6,39.3714286 32.5142857,39.3142857 32.4571429,39.2571429 C32.4,39.1714286 32.3714286,39.0857143 32.3714286,38.9428571 L32.3714286,36.6571429 L32.0857143,36.6571429 L32.0857143,38.9428571 C32.0857143,39.2 32.2,39.4285714 32.3714286,39.5714286 C32.6,39.7142857 32.8571429,39.8 33.2285714,39.8 C33.6,39.8 33.8857143,39.7142857 34.0857143,39.5714286 C34.3142857,39.4285714 34.3714286,39.2 34.3714286,38.9428571 L34.3714286,36.6571429 L34.0857143,36.6571429 C34.0285714,36.6285714 34.0285714,38.9428571 34.0285714,38.9428571 Z" id="Path"></path>
                        <polygon id="Path" points="35.5142857 36.9428571 36.5428571 36.9428571 36.5428571 39.7714286 36.8571429 39.7714286 36.8571429 36.9428571 37.8857143 36.9428571 37.8857143 36.6285714 35.5142857 36.6285714"></polygon>
                        <path d="M41.8857143,37.0285714 C41.7428571,36.8857143 41.5714286,36.8 41.3714286,36.7142857 C41.1714286,36.6285714 40.9428571,36.6 40.6571429,36.6 C40.3714286,36.6 40.1714286,36.6285714 39.9428571,36.7142857 C39.7142857,36.8 39.5714286,36.8857143 39.4285714,37.0285714 C39.2857143,37.1714286 39.1714286,37.3428571 39.1142857,37.5142857 C39.0285714,37.7142857 39,37.9428571 39,38.2 C39,38.4571429 39.0285714,38.6571429 39.1142857,38.8857143 C39.2,39.0857143 39.3142857,39.2571429 39.4285714,39.3714286 C39.5714286,39.5142857 39.7428571,39.6 39.9428571,39.6857143 C40.1714286,39.7714286 40.3714286,39.8 40.6571429,39.8 C40.9428571,39.8 41.1428571,39.7714286 41.3714286,39.6857143 C41.6,39.6 41.7428571,39.5142857 41.8857143,39.3714286 C42.0285714,39.2285714 42.1428571,39.0571429 42.2,38.8857143 C42.2857143,38.7142857 42.3142857,38.4571429 42.3142857,38.2 C42.3142857,37.9428571 42.2857143,37.7428571 42.2,37.5142857 C42.1428571,37.3428571 42.0285714,37.1714286 41.8857143,37.0285714 M41.6857143,39.1714286 C41.4571429,39.4 41.1142857,39.5142857 40.6857143,39.5142857 C40.2571429,39.5142857 39.8857143,39.4 39.6857143,39.1714286 C39.4285714,38.9428571 39.3428571,38.6285714 39.3428571,38.2 C39.3428571,37.7714286 39.4571429,37.4571429 39.6857143,37.2285714 C39.9142857,37 40.2571429,36.8857143 40.6857143,36.8857143 C41.1142857,36.8857143 41.4857143,37 41.6857143,37.2285714 C41.8857143,37.4571429 42.0285714,37.7714286 42.0285714,38.2 C42.0285714,38.6571429 41.9142857,38.9714286 41.6857143,39.1714286" id="Shape" fill-rule="nonzero"></path>
                        <path d="M46.8857143,36.6285714 C46.8571429,36.6285714 46.8285714,36.6285714 46.7714286,36.6285714 C46.7428571,36.6285714 46.7142857,36.6571429 46.6857143,36.6857143 L45.3714286,38.8285714 L44.0571429,36.6857143 C44.0285714,36.6571429 44,36.6285714 43.9714286,36.6285714 C43.9428571,36.6285714 43.9142857,36.6 43.8571429,36.6285714 C43.7714286,36.6571429 43.7428571,36.7142857 43.7428571,36.7714286 L43.7428571,39.7714286 L44.0285714,39.7714286 L44.0285714,37.2857143 L45.2285714,39.1714286 C45.2571429,39.2285714 45.3142857,39.2571429 45.3714286,39.2571429 C45.4,39.2571429 45.4285714,39.2571429 45.4571429,39.2285714 C45.4857143,39.2285714 45.5142857,39.2 45.5142857,39.1714286 L46.7142857,37.2857143 L46.7142857,39.7714286 L47,39.7714286 L47,36.7714286 C47,36.7428571 47,36.7142857 46.9714286,36.6857143 C46.9428571,36.6571429 46.9142857,36.6285714 46.8857143,36.6285714" id="Path"></path>
                        <path d="M50.0285714,36.6 C49.9714286,36.6 49.9142857,36.6285714 49.8857143,36.6857143 L48.3142857,39.7714286 L48.6571429,39.7714286 L49.0857143,38.9428571 L50.9428571,38.9428571 L51.3714286,39.7714286 L51.6857143,39.7714286 L50.1142857,36.6857143 C50.1428571,36.6285714 50.1142857,36.6 50.0285714,36.6 Z M49.2285714,38.6571429 L50.0285714,37.1142857 L50.8285714,38.6571429 L49.2285714,38.6571429 Z" id="Shape" fill-rule="nonzero"></path>
                        <polygon id="Path" points="52.8857143 36.9428571 53.8857143 36.9428571 53.8857143 39.7714286 54.2285714 39.7714286 54.2285714 36.9428571 55.2285714 36.9428571 55.2285714 36.6285714 52.8857143 36.6285714"></polygon>
                        <rect id="Rectangle" x="56.6571429" y="36.6285714" width="1" height="3.14285714"></rect>
                        <path d="M61.2285714,37.0285714 C61.0857143,36.8857143 60.9142857,36.8 60.7142857,36.7142857 C60.4857143,36.6285714 60.2857143,36.6 60,36.6 C59.7142857,36.6 59.5142857,36.6285714 59.2857143,36.7142857 C59.0571429,36.8 58.9142857,36.8857143 58.7714286,37.0285714 C58.6285714,37.1714286 58.5142857,37.3428571 58.4571429,37.5142857 C58.3714286,37.7142857 58.3428571,37.9428571 58.3428571,38.2 C58.3428571,38.4571429 58.3714286,38.6571429 58.4571429,38.8857143 C58.5428571,39.0857143 58.6571429,39.2571429 58.7714286,39.3714286 C58.9142857,39.5142857 59.0857143,39.6 59.2857143,39.6857143 C59.5142857,39.7714286 59.7142857,39.8 60,39.8 C60.2857143,39.8 60.4857143,39.7714286 60.7142857,39.6857143 C60.9142857,39.6 61.0857143,39.5142857 61.2285714,39.3714286 C61.3714286,39.2285714 61.4857143,39.0571429 61.5428571,38.8857143 C61.6285714,38.7142857 61.6571429,38.4571429 61.6571429,38.2 C61.6571429,37.9428571 61.6285714,37.7428571 61.5428571,37.5142857 C61.4571429,37.3428571 61.3428571,37.1714286 61.2285714,37.0285714 M61,39.1714286 C60.7714286,39.4 60.4285714,39.5142857 60,39.5142857 C59.5714286,39.5142857 59.2,39.4 59,39.1714286 C58.7428571,38.9428571 58.6571429,38.6285714 58.6571429,38.2 C58.6571429,37.7714286 58.7714286,37.4571429 59,37.2285714 C59.2285714,37 59.5714286,36.8857143 60,36.8857143 C60.4285714,36.8857143 60.8,37 61,37.2285714 C61.2571429,37.4571429 61.3428571,37.7714286 61.3428571,38.2 C61.3428571,38.6571429 61.2285714,38.9714286 61,39.1714286" id="Shape" fill-rule="nonzero"></path>
                        <path d="M65.1714286,39.2 L63.3428571,36.6857143 C63.3142857,36.6571429 63.2857143,36.6285714 63.2571429,36.6285714 C63.2285714,36.6285714 63.2,36.6285714 63.1428571,36.6285714 C63.1142857,36.6285714 63.0857143,36.6571429 63.0571429,36.6857143 C63.0285714,36.7142857 63.0285714,36.7428571 63.0285714,36.7714286 L63.0285714,39.7714286 L63.3142857,39.7714286 L63.3142857,37.2 L65.1428571,39.7142857 C65.1714286,39.7714286 65.2285714,39.7714286 65.2571429,39.7714286 C65.2857143,39.7714286 65.2857143,39.7714286 65.3142857,39.7714286 C65.3428571,39.7714286 65.3714286,39.7428571 65.4,39.7142857 C65.4285714,39.6857143 65.4285714,39.6571429 65.4285714,39.6285714 L65.4285714,36.6285714 L65.1428571,36.6285714 L65.1714286,39.2 Z" id="Path"></path>
                        <path d="M69.6571429,36.6857143 C69.6285714,36.7142857 69.6,36.7428571 69.6,36.8 L69.6,39.6571429 C69.6,39.6857143 69.6285714,39.7428571 69.6571429,39.7714286 C69.6857143,39.8 69.7142857,39.8285714 69.7714286,39.8285714 L71.6571429,39.8285714 L71.6571429,39.5428571 L69.9142857,39.5428571 L69.9142857,38.2571429 L71.2285714,38.2571429 L71.3142857,37.9714286 L69.8857143,37.9714286 L69.8857143,37 L71.6571429,37 L71.6571429,36.7142857 L69.7714286,36.7142857 C69.6857143,36.6285714 69.6571429,36.6571429 69.6571429,36.6857143" id="Path"></path>
                        <path d="M75.1428571,39.2 L73.3142857,36.6857143 C73.2857143,36.6571429 73.2571429,36.6285714 73.2285714,36.6285714 C73.2,36.6285714 73.1714286,36.6285714 73.1142857,36.6285714 C73.0857143,36.6285714 73.0571429,36.6571429 73.0285714,36.6857143 C73,36.7142857 73,36.7428571 73,36.7714286 L73,39.7714286 L73.2857143,39.7714286 L73.2857143,37.2 L75.1142857,39.7142857 C75.1428571,39.7714286 75.2,39.7714286 75.2285714,39.7714286 C75.2571429,39.7714286 75.2571429,39.7714286 75.2857143,39.7714286 C75.3142857,39.7714286 75.3428571,39.7428571 75.3714286,39.7142857 C75.4,39.6857143 75.4,39.6571429 75.4,39.6285714 L75.4,36.6285714 L75.1142857,36.6285714 L75.1428571,39.2 Z" id="Path"></path>
                        <path d="M76.8857143,36.6857143 C76.8571429,36.7142857 76.8285714,36.7428571 76.8285714,36.8 L76.8285714,39.6571429 C76.8285714,39.6857143 76.8571429,39.7428571 76.8857143,39.7714286 C76.9142857,39.8 76.9428571,39.8285714 77,39.8285714 L78.8857143,39.8285714 L78.8857143,39.5428571 L77.1428571,39.5428571 L77.1428571,38.2571429 L78.4571429,38.2571429 L78.5428571,37.9714286 L77.1142857,37.9714286 L77.1142857,37 L78.8571429,37 L78.8571429,36.7142857 L76.9714286,36.7142857 C76.9714286,36.6285714 76.9428571,36.6571429 76.8857143,36.6857143" id="Path"></path>
                        <path d="M82.2,38.3714286 C82.3142857,38.3142857 82.4,38.2285714 82.4571429,38.1714286 C82.5428571,38.0857143 82.6,38 82.6285714,37.8857143 C82.6857143,37.7714286 82.6857143,37.6857143 82.6857143,37.5428571 C82.6857143,37.4 82.6571429,37.3142857 82.6,37.1714286 C82.5428571,37.0571429 82.4857143,36.9714286 82.4,36.8857143 C82.3142857,36.8 82.2,36.7428571 82.1142857,36.6857143 C82,36.6285714 81.8571429,36.6 81.7428571,36.6 L80.3714286,36.6 C80.3428571,36.6 80.2857143,36.6285714 80.2571429,36.6571429 C80.2285714,36.6857143 80.2,36.7142857 80.2,36.7714286 L80.2,39.7428571 L80.4857143,39.7428571 L80.4857143,38.4857143 L81.4857143,38.4857143 L82.5428571,39.7428571 L82.9142857,39.7428571 L81.8571429,38.4571429 C82,38.4857143 82.1142857,38.4571429 82.2,38.3714286 Z M80.5142857,38.2285714 L80.5142857,36.9428571 L81.7428571,36.9428571 C81.8285714,36.9428571 81.9142857,36.9714286 82,37 C82.0857143,37.0285714 82.1714286,37.0857143 82.2285714,37.1428571 C82.2857143,37.2 82.3428571,37.2857143 82.3714286,37.3428571 C82.4,37.4 82.4285714,37.4857143 82.4285714,37.6 C82.4285714,37.6857143 82.4,37.7714286 82.3714286,37.8571429 C82.3428571,37.9428571 82.2857143,38 82.2285714,38.0571429 C82.1714286,38.1142857 82.0857143,38.1714286 82,38.2 C81.9142857,38.2285714 81.8285714,38.2571429 81.7428571,38.2571429 L80.5142857,38.2285714 Z" id="Shape" fill-rule="nonzero"></path>
                        <path d="M86.4857143,39.2285714 C86.2285714,39.4 85.9428571,39.5142857 85.5428571,39.5142857 C85.1142857,39.5142857 84.7428571,39.4 84.5428571,39.1714286 C84.2857143,38.9428571 84.2,38.6285714 84.2,38.2 C84.2,37.7714286 84.3142857,37.4571429 84.5428571,37.2285714 C84.8,37 85.1142857,36.8857143 85.5428571,36.8857143 C85.8857143,36.8857143 86.2,36.9714286 86.4285714,37.1142857 L86.6285714,36.8857143 C86.3714286,36.6857143 85.9714286,36.5714286 85.5428571,36.5714286 C85.2857143,36.5714286 85.0571429,36.6 84.8285714,36.6857143 C84.6,36.7714286 84.4571429,36.8571429 84.3142857,37 C84.1714286,37.1428571 84.0571429,37.3142857 84,37.4857143 C83.9142857,37.6857143 83.8857143,37.9142857 83.8857143,38.1714286 C83.8857143,38.4285714 83.9142857,38.6285714 84,38.8571429 C84.0857143,39.0571429 84.2,39.2285714 84.3142857,39.3428571 C84.4571429,39.4857143 84.6285714,39.5714286 84.8285714,39.6571429 C85.0285714,39.7428571 85.2571429,39.7714286 85.5428571,39.7714286 C86.0571429,39.7714286 86.4285714,39.6285714 86.7428571,39.3428571 C86.7714286,39.3142857 86.8,39.2571429 86.8,39.2285714 L86.8,38 L86.5142857,38.0857143 L86.5142857,39.2285714 L86.4857143,39.2285714 Z" id="Path"></path>
                        <polygon id="Path" points="90.6285714 36.6285714 89.6 38.0857143 88.5428571 36.6285714 88.1714286 36.6285714 89.4285714 38.3714286 89.4285714 39.7714286 89.7142857 39.7714286 89.7142857 38.3714286 91 36.6285714"></polygon>
                        <path d="M20.4571429,1.34285714 C20.7428571,0.8 20.8,0.485714286 20.6,0.285714286 L20.4571429,0.142857143 C20.1714286,-0.0857142857 19.6571429,-0.0285714286 19.2,0.314285714 L1,15.1428571 C-0.514285714,16.2 0.828571429,17.4857143 0.828571429,17.4857143 L8.05714286,24.6571429 C8.08571429,24.6571429 20.2,1.82857143 20.4571429,1.34285714" id="Shape" fill-rule="nonzero"></path>
                    </g>
                </g>
            </g>
        </g>
    </g>
</svg>