<?xml version="1.0" encoding="UTF-8" standalone="no"?>
<!DOCTYPE svg PUBLIC "-//W3C//DTD SVG 1.1//EN" "http://www.w3.org/Graphics/SVG/1.1/DTD/svg11.dtd">
<svg width="100%" height="100%" viewBox="0 0 4130 1855" version="1.1" xmlns="http://www.w3.org/2000/svg" xmlns:xlink="http://www.w3.org/1999/xlink" xml:space="preserve" xmlns:serif="http://www.serif.com/" style="fill-rule:evenodd;clip-rule:evenodd;stroke-linejoin:round;stroke-miterlimit:2;">
    <g transform="matrix(4.06639,0,0,4.06639,30,23.0318)">
        <path d="M362.463,348.837L358.001,358.097C353.069,355.233 346.872,353.234 343.075,353.234C340.011,353.234 337.944,354.366 337.944,356.63C337.944,364.693 362.594,360.095 362.594,376.951C362.594,386.279 354.335,391.21 343.939,391.21C336.147,391.21 328.15,388.278 322.622,383.747L327.216,374.621C332.014,378.818 339.211,381.615 344.073,381.615C347.803,381.615 350.138,380.217 350.138,377.551C350.138,369.29 325.485,374.221 325.485,357.698C325.485,349.102 332.881,343.639 344.073,343.639C350.803,343.639 357.665,345.706 362.463,348.837Z" style="fill:rgb(32,195,231);fill-rule:nonzero;"/>
        <path d="M413.547,390.81L413.547,372.687L394.226,372.687L394.226,390.81L382.364,390.81L382.364,344.173L394.226,344.173L394.226,363.361L413.547,363.361L413.547,344.173L425.407,344.173L425.407,390.81L413.547,390.81Z" style="fill:rgb(32,195,231);fill-rule:nonzero;"/>
        <path d="M457.097,367.491C457.097,375.353 463.162,381.415 470.289,381.415C477.486,381.415 483.212,375.353 483.212,367.491C483.212,359.63 477.486,353.699 470.289,353.699C463.091,353.699 457.097,359.63 457.097,367.491ZM495.406,367.425C495.406,381.017 484.613,391.342 470.154,391.342C455.766,391.342 444.973,381.083 444.973,367.425C444.973,353.834 455.766,343.773 470.154,343.773C484.613,343.773 495.406,353.899 495.406,367.425Z" style="fill:rgb(32,195,231);fill-rule:nonzero;"/>
        <path d="M551.558,390.81L542.899,358.563L534.105,390.81L521.847,390.81L506.59,344.173L519.248,344.173L528.374,378.485L537.304,344.173L548.897,344.173L558.023,378.485L567.018,344.173L579.144,344.173L563.752,390.81L551.558,390.81Z" style="fill:rgb(32,195,231);fill-rule:nonzero;"/>
        <path d="M185.827,0.317C152.524,0.317 125.43,27.411 125.43,60.714C125.43,61.667 126.203,62.44 127.156,62.44L135.743,62.44C136.696,62.44 137.468,61.667 137.468,60.714C137.468,34.049 159.162,12.356 185.827,12.356C186.78,12.356 187.552,11.583 187.552,10.63L187.552,2.043C187.552,1.09 186.78,0.317 185.827,0.317Z" style="fill:rgb(32,195,231);fill-rule:nonzero;"/>
        <path d="M202.398,0.317C201.445,0.317 200.673,1.09 200.673,2.043L200.673,10.63C200.673,11.583 201.445,12.356 202.398,12.356C229.062,12.356 250.756,34.274 250.756,61.215C250.756,62.169 251.529,62.941 252.482,62.941L261.07,62.941C262.023,62.941 262.796,62.169 262.796,61.215C262.796,27.635 235.702,0.317 202.398,0.317Z" style="fill:rgb(32,195,231);fill-rule:nonzero;"/>
        <path d="M228.993,131.155C249.173,121.69 262.796,101.634 262.796,77.887C262.796,76.934 262.023,76.161 261.07,76.161L252.482,76.161C251.529,76.161 250.756,76.934 250.756,77.887C250.756,104.278 229.514,124.953 202.398,124.953C201.445,124.953 200.673,125.725 200.673,126.678L200.673,135.28C200.673,136.234 201.445,137.006 202.398,137.006C229.062,137.006 250.756,158.092 250.756,184.756C250.756,185.71 251.529,186.482 252.482,186.482L261.07,186.482C262.023,186.482 262.796,185.71 262.796,184.756C262.796,160.993 248.996,141.008 228.993,131.155Z" style="fill:rgb(70,188,146);fill-rule:nonzero;"/>
        <path d="M60.396,124.36C27.093,124.36 0,151.453 0,184.756C0,185.709 0.772,186.482 1.725,186.482L10.312,186.482C11.265,186.482 12.038,185.709 12.038,184.756C12.038,158.092 33.732,136.398 60.396,136.398C61.349,136.398 62.122,135.625 62.122,134.672L62.122,126.085C62.122,125.132 61.349,124.36 60.396,124.36Z" style="fill:rgb(70,188,146);fill-rule:nonzero;"/>
        <path d="M60.396,261.825C27.093,261.825 0,234.731 0,201.428C0,200.475 0.772,199.703 1.725,199.703L10.312,199.703C11.265,199.703 12.038,200.475 12.038,201.428C12.038,228.092 33.732,249.787 60.396,249.787C61.349,249.787 62.122,250.559 62.122,251.512L62.122,260.1C62.122,261.052 61.349,261.825 60.396,261.825Z" style="fill:rgb(178,211,67);fill-rule:nonzero;"/>
        <path d="M262.795,201.428C262.795,234.731 235.701,261.825 202.399,261.825C201.445,261.825 200.673,261.052 200.673,260.1L200.673,251.512C200.673,250.559 201.445,249.787 202.399,249.787C229.063,249.787 250.757,228.092 250.757,201.428C250.757,200.475 251.529,199.703 252.483,199.703L261.069,199.703C262.023,199.703 262.795,200.475 262.795,201.428Z" style="fill:rgb(178,211,67);fill-rule:nonzero;"/>
        <path d="M137.464,327.737C137.464,361.04 110.371,388.133 77.068,388.133C76.114,388.133 75.342,387.361 75.342,386.408L75.342,377.821C75.342,376.868 76.114,376.095 77.068,376.095C103.733,376.095 125.426,354.401 125.426,327.737C125.426,326.784 126.199,326.011 127.152,326.011L135.739,326.011C136.692,326.011 137.464,326.784 137.464,327.737Z" style="fill:rgb(228,178,34);fill-rule:nonzero;"/>
        <path d="M135.74,76.161L127.153,76.161C126.2,76.161 125.427,76.934 125.427,77.887L125.427,148.612C114.402,133.899 96.828,124.36 77.067,124.36C76.114,124.36 75.341,125.132 75.341,126.085L75.341,134.672C75.341,135.625 76.114,136.398 77.067,136.398C103.733,136.398 125.427,157.484 125.427,184.148L125.427,184.756C125.427,185.71 126.2,186.482 127.153,186.482L135.74,186.482C136.693,186.482 137.465,185.71 137.465,184.756L137.465,77.887C137.465,76.934 136.693,76.161 135.74,76.161Z" style="fill:rgb(70,188,146);fill-rule:nonzero;"/>
        <path d="M398.99,87.763L391.449,103.771C379.751,96.69 368.053,93.766 359.897,93.766C349.276,93.766 342.35,97.767 342.35,105.001C342.35,128.55 400.529,115.929 400.376,154.715C400.376,173.955 383.446,185.806 359.742,185.806C342.812,185.806 326.806,178.88 315.723,168.723L323.573,153.023C334.655,163.18 348.507,168.723 360.05,168.723C372.672,168.723 380.213,163.951 380.213,155.639C380.213,131.628 322.034,145.018 322.034,106.695C322.034,88.225 337.887,76.682 361.282,76.682C375.288,76.682 388.986,81.146 398.99,87.763Z" style="fill:rgb(88,89,91);fill-rule:nonzero;"/>
        <path d="M553.524,134.246L553.524,185.191L535.824,185.191L535.824,139.171C535.824,126.703 528.435,119.162 516.431,119.162C502.425,119.624 493.959,130.398 493.959,144.712L493.959,185.191L476.259,185.191L476.259,139.171C476.259,126.703 469.026,119.162 457.02,119.162C442.861,119.624 434.241,130.398 434.241,144.712L434.241,185.191L416.695,185.191L416.695,103.309L434.241,103.309L434.241,119.162C439.936,107.617 450.402,102.692 463.947,102.692C478.568,102.692 488.573,109.926 492.42,122.393C497.654,108.696 508.582,102.692 523.51,102.692C542.29,102.692 553.524,114.698 553.524,134.246Z" style="fill:rgb(88,89,91);fill-rule:nonzero;"/>
        <path d="M625.416,156.409L625.416,148.866L603.253,148.866C591.71,148.866 586.322,151.944 586.322,159.794C586.322,167.182 592.325,171.954 602.175,171.954C614.795,171.954 624.492,165.336 625.416,156.409ZM625.569,175.187C619.72,182.42 610.332,185.961 598.48,185.961C580.78,185.961 569.699,175.032 569.699,160.565C569.699,145.635 580.935,136.091 600.636,135.938L625.416,135.938L625.416,133.476C625.416,123.163 618.797,117.007 605.868,117.007C598.018,117.007 589.862,119.777 581.704,125.317L574.469,113.004C585.86,106.234 594.171,102.692 609.716,102.692C630.803,102.692 642.654,113.466 642.807,131.475L642.963,185.191L625.569,185.191L625.569,175.187Z" style="fill:rgb(88,89,91);fill-rule:nonzero;"/>
        <path d="M679.479,119.624C685.021,108.541 694.872,102.692 707.8,102.692L707.8,119.624C691.333,118.7 680.865,128.397 679.479,142.402L679.479,185.191L661.781,185.191L661.781,103.309L679.479,103.309L679.479,119.624Z" style="fill:rgb(88,89,91);fill-rule:nonzero;"/>
        <path d="M772.104,179.957C765.64,183.805 758.868,185.961 751.942,185.961C739.629,185.961 729.007,178.88 729.007,162.103L729.007,119.624L717.465,119.624L717.465,106.387L729.007,106.387L729.007,83.915L746.554,83.915L746.554,106.387L770.719,106.387L770.719,119.624L746.554,119.624L746.554,158.872C746.554,167.337 749.786,169.953 755.328,169.953C759.021,169.953 762.87,168.723 767.641,166.413L772.104,179.957Z" style="fill:rgb(88,89,91);fill-rule:nonzero;"/>
        <path d="M344.044,297.03L371.748,297.03C385.909,297.03 394.374,291.489 394.374,281.33C394.374,271.788 385.909,266.092 371.748,266.092L344.044,266.092L344.044,297.03ZM344.044,250.087L371.748,250.087C383.291,250.087 390.217,244.699 390.217,235.617C390.217,226.537 383.291,221.612 371.748,221.612L344.044,221.612L344.044,250.087ZM372.672,205.451C394.989,205.451 408.841,215.61 408.841,232.386C408.841,244.546 401.608,253.626 389.91,256.397C404.378,258.86 412.998,269.172 412.998,283.639C412.998,302.11 398.067,313.191 373.749,313.191L325.882,313.191L325.882,205.451L372.672,205.451Z" style="fill:rgb(88,89,91);fill-rule:nonzero;"/>
        <path d="M503.966,313.191L486.266,313.191L486.266,297.184C480.724,308.574 470.411,313.653 457.021,313.806C438.244,313.806 427.008,301.801 427.008,282.254L427.008,231.309L444.708,231.309L444.708,277.329C444.708,289.641 451.943,297.184 463.794,297.184C477.954,296.876 486.266,285.949 486.266,271.634L486.266,231.309L503.966,231.309L503.966,313.191Z" style="fill:rgb(88,89,91);fill-rule:nonzero;"/>
        <path d="M523.211,313.191L523.211,231.309L540.755,231.309L540.755,313.191L523.211,313.191ZM542.295,207.914C542.295,214.071 537.831,218.534 531.982,218.534C526.134,218.534 521.669,214.071 521.669,207.914C521.669,201.602 526.134,197.139 531.982,197.139C537.831,197.139 542.295,201.602 542.295,207.914Z" style="fill:rgb(88,89,91);fill-rule:nonzero;"/>
        <rect x="560.766" y="198.986" width="17.7" height="114.205" style="fill:rgb(88,89,91);fill-rule:nonzero;"/>
        <path d="M661.889,272.558C661.889,256.704 651.577,245.623 636.801,245.623C622.025,245.623 611.714,256.859 611.559,272.558C611.714,288.103 621.872,299.185 636.801,299.185C651.577,299.185 661.889,288.103 661.889,272.558ZM679.589,313.191L661.889,313.191L661.889,299.185C656.041,308.727 646.19,313.961 633.108,313.961C609.559,313.961 593.859,296.876 593.859,271.941C593.859,247.315 609.713,230.539 632.799,230.539C646.037,230.539 655.887,235.925 661.889,245.467L661.889,198.986L679.589,198.986L679.589,313.191Z" style="fill:rgb(88,89,91);fill-rule:nonzero;"/>
        <path d="M699.604,313.191L699.604,231.309L717.149,231.309L717.149,313.191L699.604,313.191ZM718.688,207.914C718.688,214.071 714.224,218.534 708.376,218.534C702.527,218.534 698.063,214.071 698.063,207.914C698.063,201.602 702.527,197.139 708.376,197.139C714.224,197.139 718.688,201.602 718.688,207.914Z" style="fill:rgb(88,89,91);fill-rule:nonzero;"/>
        <path d="M814.732,262.246L814.732,313.191L797.032,313.191L797.032,267.171C797.032,254.858 789.644,247.315 777.331,247.315C763.786,247.47 755.321,256.859 754.089,269.633L754.089,313.191L736.39,313.191L736.39,231.309L754.089,231.309L754.089,247.008C759.937,235.617 770.405,230.692 784.256,230.692C803.34,230.692 814.732,242.699 814.732,262.246Z" style="fill:rgb(88,89,91);fill-rule:nonzero;"/>
        <path d="M890.924,270.094C890.924,255.318 881.228,245.007 867.376,245.007C853.371,245.007 843.673,255.473 843.52,270.094C843.673,284.87 853.215,295.338 867.376,295.338C881.228,295.338 890.924,284.87 890.924,270.094ZM908.471,305.188C908.471,328.737 891.695,343.512 865.99,343.512C853.215,343.512 841.981,339.509 831.975,332.738L839.518,319.963C847.213,325.657 855.216,328.89 865.221,328.89C880.766,328.89 890.924,319.808 890.924,305.649L890.924,295.338C885.384,304.264 876.149,309.189 863.836,309.189C841.672,309.189 826.897,293.181 826.897,269.633C826.897,246.546 841.519,230.847 863.22,230.692C875.84,230.539 885.229,235.617 890.924,244.546L890.924,231.309L908.471,231.309L908.471,305.188Z" style="fill:rgb(88,89,91);fill-rule:nonzero;"/>
        <path d="M982.354,238.85L975.889,251.933C968.657,247.47 959.575,244.699 952.34,244.699C945.415,244.699 940.336,247.008 940.336,252.857C940.336,267.94 983.892,259.785 983.739,289.488C983.739,306.264 968.81,313.806 952.34,313.806C940.336,313.806 927.561,309.804 919.404,302.417L925.714,289.795C932.795,296.106 944.184,299.954 953.111,299.954C960.652,299.954 966.501,297.338 966.501,291.18C966.501,274.404 923.406,283.793 923.559,254.241C923.559,237.62 938.027,230.539 953.726,230.539C964.039,230.539 974.965,233.617 982.354,238.85Z" style="fill:rgb(88,89,91);fill-rule:nonzero;"/>
        <path d="M185.827,249.787C159.162,249.787 137.468,228.092 137.468,201.428C137.468,200.475 136.696,199.703 135.743,199.703L127.156,199.703C126.203,199.703 125.43,200.475 125.43,201.428C125.43,225.697 139.826,246.655 160.52,256.247C147.847,262.121 137.534,272.249 131.447,284.801C121.66,264.619 100.964,249.98 77.068,249.98C76.114,249.98 75.342,250.753 75.342,251.706L75.342,260.1C75.342,261.052 76.114,261.825 77.068,261.825C103.733,261.825 125.423,284.401 125.423,311.065C125.423,312.018 126.195,312.791 127.149,312.791L135.743,312.791C136.696,312.791 137.468,312.018 137.468,311.065C137.468,284.401 159.162,261.825 185.827,261.825C186.78,261.825 187.552,261.052 187.552,260.1L187.552,251.512C187.552,250.559 186.78,249.787 185.827,249.787Z" style="fill:rgb(178,211,67);fill-rule:nonzero;"/>
        <path d="M60.396,388.133C27.093,388.133 0,361.04 0,327.737C0,326.784 0.772,326.011 1.725,326.011L10.312,326.011C11.265,326.011 12.038,326.784 12.038,327.737C12.038,354.401 33.732,376.095 60.396,376.095C61.349,376.095 62.122,376.868 62.122,377.821L62.122,386.408C62.122,387.361 61.349,388.133 60.396,388.133Z" style="fill:rgb(228,178,34);fill-rule:nonzero;"/>
        <path d="M333.921,430.839C332.307,430.839 330.961,431.286 329.881,432.179C328.801,433.073 328.261,434.233 328.261,435.66C328.261,437.087 328.781,438.313 329.821,439.339C330.861,440.366 332.168,440.88 333.741,440.88C335.315,440.88 336.621,440.42 337.661,439.5C338.701,438.58 339.221,437.406 339.221,435.979C339.221,434.553 338.741,433.339 337.781,432.339C336.821,431.339 335.534,430.839 333.921,430.839ZM334.781,420.439C332.301,420.439 330.474,421.279 329.301,422.96C328.128,424.639 327.527,426.906 327.501,429.759C328.168,429.013 329.128,428.313 330.381,427.66C331.634,427.006 333.021,426.679 334.541,426.679C337.048,426.679 339.148,427.513 340.841,429.179C342.534,430.846 343.381,433.059 343.381,435.819C343.381,438.58 342.467,440.799 340.641,442.479C338.815,444.16 336.514,445 333.741,445C329.261,445 326.168,443 324.461,439C323.501,436.707 323.021,434.12 323.021,431.239C323.021,428.359 323.327,425.96 323.941,424.04C324.554,422.12 325.394,420.599 326.461,419.479C328.541,417.293 331.094,416.199 334.121,416.199C337.148,416.199 339.887,417.146 342.341,419.04L339.981,422.519C339.367,421.986 338.548,421.506 337.521,421.08C336.494,420.653 335.581,420.439 334.781,420.439Z" style="fill:rgb(88,89,91);fill-rule:nonzero;"/>
        <rect x="348.301" y="430.639" width="13.28" height="4.2" style="fill:rgb(88,89,91);fill-rule:nonzero;"/>
        <path d="M365.541,424.759L365.541,416.719L385.221,416.719L385.221,420.92L373.382,444.679L368.181,444.679L379.741,421L369.821,421L369.821,424.759L365.541,424.759Z" style="fill:rgb(88,89,91);fill-rule:nonzero;"/>
        <path d="M421.12,423.319C419.214,421.346 416.874,420.359 414.1,420.359C411.327,420.359 408.986,421.346 407.08,423.319C405.173,425.293 404.22,427.686 404.22,430.5C404.22,433.313 405.173,435.707 407.08,437.679C408.986,439.653 411.327,440.639 414.1,440.639C416.874,440.639 419.214,439.653 421.12,437.679C423.027,435.707 423.981,433.313 423.981,430.5C423.981,427.686 423.027,425.293 421.12,423.319ZM424.58,440.819C421.754,443.58 418.26,444.96 414.1,444.96C409.941,444.96 406.447,443.58 403.62,440.819C400.794,438.059 399.381,434.62 399.381,430.5C399.381,426.38 400.794,422.939 403.62,420.179C406.447,417.42 409.941,416.04 414.1,416.04C418.26,416.04 421.754,417.42 424.58,420.179C427.407,422.939 428.82,426.38 428.82,430.5C428.82,434.62 427.407,438.059 424.58,440.819Z" style="fill:rgb(88,89,91);fill-rule:nonzero;"/>
        <path d="M443.581,445C440.621,445 438.074,443.993 435.941,441.979C433.807,439.966 432.74,437.333 432.74,434.08C432.74,430.826 433.854,428.179 436.081,426.139C438.307,424.099 441.021,423.08 444.22,423.08C447.421,423.08 450.127,424.186 452.34,426.399L449.7,429.639C447.861,428.04 446.007,427.239 444.141,427.239C442.274,427.239 440.653,427.859 439.28,429.099C437.907,430.339 437.22,431.939 437.22,433.899C437.22,435.859 437.901,437.519 439.26,438.88C440.621,440.239 442.294,440.92 444.28,440.92C446.267,440.92 448.141,440.013 449.901,438.199L452.541,441.08C449.954,443.693 446.967,445 443.581,445Z" style="fill:rgb(88,89,91);fill-rule:nonzero;"/>
        <path d="M462.7,427L462.7,437.799C462.7,438.813 462.966,439.62 463.5,440.219C464.033,440.819 464.78,441.12 465.74,441.12C466.7,441.12 467.62,440.653 468.5,439.719L470.34,442.88C468.766,444.293 467.027,445 465.12,445C463.213,445 461.587,444.339 460.24,443.019C458.893,441.699 458.22,439.92 458.22,437.679L458.22,427L455.54,427L455.54,423.399L458.22,423.399L458.22,416.719L462.7,416.719L462.7,423.399L468.3,423.399L468.3,427L462.7,427Z" style="fill:rgb(88,89,91);fill-rule:nonzero;"/>
        <path d="M478.72,439.059C479.986,440.353 481.593,441 483.54,441C485.486,441 487.093,440.353 488.361,439.059C489.626,437.766 490.26,436.093 490.26,434.04C490.26,431.986 489.626,430.313 488.361,429.019C487.093,427.726 485.486,427.08 483.54,427.08C481.593,427.08 479.986,427.726 478.72,429.019C477.453,430.313 476.82,431.986 476.82,434.04C476.82,436.093 477.453,437.766 478.72,439.059ZM491.541,441.819C489.406,443.939 486.74,445 483.54,445C480.34,445 477.673,443.939 475.54,441.819C473.406,439.699 472.34,437.106 472.34,434.04C472.34,430.973 473.406,428.38 475.54,426.259C477.673,424.139 480.34,423.08 483.54,423.08C486.74,423.08 489.406,424.139 491.541,426.259C493.673,428.38 494.741,430.973 494.741,434.04C494.741,437.106 493.673,439.699 491.541,441.819Z" style="fill:rgb(88,89,91);fill-rule:nonzero;"/>
        <path d="M504.22,434.08C504.22,436.106 504.834,437.766 506.061,439.059C507.287,440.353 508.781,441 510.541,441C512.3,441 513.834,440.359 515.14,439.08C516.447,437.799 517.099,436.139 517.099,434.099C517.099,432.059 516.461,430.366 515.18,429.019C513.901,427.673 512.367,427 510.581,427C508.794,427 507.287,427.673 506.061,429.019C504.834,430.366 504.22,432.053 504.22,434.08ZM511.22,423.08C514.073,423.08 516.513,424.066 518.541,426.04C520.567,428.013 521.581,430.639 521.581,433.92C521.581,437.199 520.573,439.866 518.56,441.92C516.547,443.973 514.201,445 511.521,445C508.84,445 506.434,443.826 504.3,441.479L504.3,444.679L499.821,444.679L499.821,415L504.3,415L504.3,427.12C506.061,424.426 508.367,423.08 511.22,423.08Z" style="fill:rgb(88,89,91);fill-rule:nonzero;"/>
        <path d="M529.821,432.479L542.02,432.479C542.02,430.693 541.461,429.319 540.34,428.359C539.22,427.399 537.84,426.92 536.201,426.92C534.56,426.92 533.087,427.42 531.781,428.42C530.473,429.42 529.821,430.773 529.821,432.479ZM546.501,436L529.821,436C529.926,437.546 530.633,438.793 531.941,439.739C533.247,440.686 534.741,441.16 536.421,441.16C539.087,441.16 541.114,440.319 542.501,438.639L545.06,441.439C542.767,443.813 539.781,445 536.1,445C533.114,445 530.574,444.006 528.48,442.019C526.386,440.033 525.34,437.366 525.34,434.019C525.34,430.673 526.407,428.013 528.541,426.04C530.673,424.066 533.187,423.08 536.081,423.08C538.973,423.08 541.433,423.953 543.461,425.699C545.487,427.446 546.501,429.853 546.501,432.92L546.501,436Z" style="fill:rgb(88,89,91);fill-rule:nonzero;"/>
        <path d="M562.581,427.599C560.367,427.599 558.7,428.319 557.581,429.759C556.461,431.199 555.9,433.133 555.9,435.559L555.9,444.679L551.421,444.679L551.421,423.399L555.9,423.399L555.9,427.679C556.621,426.346 557.6,425.254 558.84,424.399C560.081,423.546 561.393,423.106 562.78,423.08L562.82,427.599L562.581,427.599Z" style="fill:rgb(88,89,91);fill-rule:nonzero;"/>
        <path d="M589.86,427.639C590.66,426.546 591.06,425.439 591.06,424.319C591.06,423.199 590.633,422.246 589.78,421.46C588.926,420.673 587.846,420.279 586.54,420.279C584.247,420.279 582.34,421.453 580.82,423.799L577.02,421.599C578.247,419.759 579.6,418.373 581.08,417.439C582.56,416.506 584.466,416.04 586.8,416.04C589.133,416.04 591.18,416.779 592.94,418.259C594.7,419.739 595.58,421.759 595.58,424.319C595.58,425.759 595.207,427.133 594.461,428.439C593.714,429.746 592.34,431.426 590.34,433.479L583.78,440.16L596.461,440.16L596.461,444.679L577.34,444.679L577.34,440.679L585.82,432.16C587.714,430.239 589.06,428.733 589.86,427.639Z" style="fill:rgb(88,89,91);fill-rule:nonzero;"/>
        <path d="M607.16,422.96C606.052,424.88 605.5,427.399 605.5,430.519C605.5,433.639 606.052,436.16 607.16,438.08C608.266,440 609.993,440.96 612.339,440.96C614.686,440.96 616.4,440.006 617.48,438.099C618.56,436.193 619.099,433.667 619.099,430.519C619.099,427.373 618.56,424.846 617.48,422.939C616.4,421.033 614.686,420.08 612.339,420.08C609.993,420.08 608.266,421.04 607.16,422.96ZM603.78,441.059C601.886,438.433 600.94,434.92 600.94,430.519C600.94,426.12 601.886,422.606 603.78,419.979C605.672,417.353 608.526,416.04 612.339,416.04C616.153,416.04 619.005,417.353 620.9,419.979C622.793,422.606 623.74,426.12 623.74,430.519C623.74,434.92 622.793,438.433 620.9,441.059C619.005,443.686 616.153,445 612.339,445C608.526,445 605.672,443.686 603.78,441.059Z" style="fill:rgb(88,89,91);fill-rule:nonzero;"/>
        <path d="M640.939,427.639C641.739,426.546 642.139,425.439 642.139,424.319C642.139,423.199 641.713,422.246 640.859,421.46C640.005,420.673 638.925,420.279 637.619,420.279C635.326,420.279 633.42,421.453 631.899,423.799L628.099,421.599C629.326,419.759 630.679,418.373 632.159,417.439C633.639,416.506 635.546,416.04 637.88,416.04C640.213,416.04 642.259,416.779 644.019,418.259C645.779,419.739 646.659,421.759 646.659,424.319C646.659,425.759 646.286,427.133 645.54,428.439C644.793,429.746 643.42,431.426 641.42,433.479L634.859,440.16L647.54,440.16L647.54,444.679L628.42,444.679L628.42,440.679L636.899,432.16C638.793,430.239 640.139,428.733 640.939,427.639Z" style="fill:rgb(88,89,91);fill-rule:nonzero;"/>
        <path d="M650.819,416.719L660.979,416.719L660.979,444.679L656.499,444.679L656.499,420.92L650.819,420.92L650.819,416.719Z" style="fill:rgb(88,89,91);fill-rule:nonzero;"/>
        <path d="M680.778,435.679C679.764,434.667 679.258,433.453 679.258,432.04C679.258,430.627 679.764,429.413 680.778,428.399C681.792,427.386 683.005,426.88 684.418,426.88C685.831,426.88 687.045,427.386 688.058,428.399C689.071,429.413 689.578,430.627 689.578,432.04C689.578,433.453 689.071,434.667 688.058,435.679C687.045,436.693 685.831,437.199 684.418,437.199C683.005,437.199 681.792,436.693 680.778,435.679Z" style="fill:rgb(32,195,231);fill-rule:nonzero;"/>
        <path d="M727.458,416.719L727.458,421.16L712.538,421.16L712.538,428.559L725.938,428.559L725.938,432.759L712.538,432.759L712.538,440.239L727.938,440.239L727.938,444.679L707.818,444.679L707.818,416.719L727.458,416.719Z" style="fill:rgb(88,89,91);fill-rule:nonzero;"/>
        <path d="M736.738,423.399L741.298,430.399L746.018,423.399L751.339,423.399L743.898,433.799L751.658,444.679L746.138,444.679L741.058,437.599L736.098,444.679L730.858,444.679L738.419,433.839L731.258,423.399L736.738,423.399Z" style="fill:rgb(88,89,91);fill-rule:nonzero;"/>
        <path d="M769.058,440.399C770.685,440.399 772.085,440.127 773.258,439.58C774.431,439.033 775.659,438.16 776.938,436.96L779.978,440.08C777.018,443.359 773.424,445 769.199,445C764.971,445 761.464,443.639 758.678,440.92C755.891,438.199 754.499,434.759 754.499,430.599C754.499,426.439 755.919,422.973 758.758,420.199C761.598,417.426 765.185,416.04 769.518,416.04C773.852,416.04 777.471,417.639 780.379,420.839L777.379,424.12C776.045,422.839 774.785,421.946 773.598,421.439C772.412,420.933 771.018,420.679 769.419,420.679C766.591,420.679 764.218,421.593 762.298,423.42C760.379,425.246 759.419,427.58 759.419,430.42C759.419,433.259 760.372,435.633 762.279,437.54C764.185,439.446 766.445,440.399 769.058,440.399Z" style="fill:rgb(88,89,91);fill-rule:nonzero;"/>
        <path d="M788.218,432.479L800.418,432.479C800.418,430.693 799.858,429.319 798.738,428.359C797.618,427.399 796.238,426.92 794.598,426.92C792.958,426.92 791.484,427.42 790.178,428.42C788.871,429.42 788.218,430.773 788.218,432.479ZM804.898,436L788.218,436C788.324,437.546 789.031,438.793 790.339,439.739C791.644,440.686 793.138,441.16 794.818,441.16C797.484,441.16 799.511,440.319 800.898,438.639L803.458,441.439C801.165,443.813 798.178,445 794.498,445C791.511,445 788.971,444.006 786.878,442.019C784.784,440.033 783.738,437.366 783.738,434.019C783.738,430.673 784.804,428.013 786.938,426.04C789.071,424.066 791.585,423.08 794.478,423.08C797.371,423.08 799.831,423.953 801.858,425.699C803.884,427.446 804.898,429.853 804.898,432.92L804.898,436Z" style="fill:rgb(88,89,91);fill-rule:nonzero;"/>
        <path d="M810.458,444.679L810.458,416.719L815.177,416.719L815.177,440.199L827.938,440.199L827.938,444.679L810.458,444.679Z" style="fill:rgb(88,89,91);fill-rule:nonzero;"/>
        <path d="M844.056,444.679L844.056,416.719L848.776,416.719L848.776,440.199L861.537,440.199L861.537,444.679L844.056,444.679Z" style="fill:rgb(88,89,91);fill-rule:nonzero;"/>
        <path d="M870.676,439.059C871.943,440.353 873.549,441 875.497,441C877.443,441 879.049,440.353 880.317,439.059C881.583,437.766 882.216,436.093 882.216,434.04C882.216,431.986 881.583,430.313 880.317,429.019C879.049,427.726 877.443,427.08 875.497,427.08C873.549,427.08 871.943,427.726 870.676,429.019C869.41,430.313 868.777,431.986 868.777,434.04C868.777,436.093 869.41,437.766 870.676,439.059ZM883.497,441.819C881.363,443.939 878.697,445 875.497,445C872.297,445 869.63,443.939 867.497,441.819C865.363,439.699 864.297,437.106 864.297,434.04C864.297,430.973 865.363,428.38 867.497,426.259C869.63,424.139 872.297,423.08 875.497,423.08C878.697,423.08 881.363,424.139 883.497,426.259C885.63,428.38 886.697,430.973 886.697,434.04C886.697,437.106 885.63,439.699 883.497,441.819Z" style="fill:rgb(88,89,91);fill-rule:nonzero;"/>
        <path d="M896.256,433.16L896.256,444.679L891.777,444.679L891.777,423.399L896.256,423.399L896.256,427.279C896.977,425.973 897.97,424.946 899.237,424.199C900.503,423.453 901.87,423.08 903.337,423.08C905.737,423.08 907.676,423.813 909.157,425.279C910.636,426.746 911.377,428.866 911.377,431.639L911.377,444.679L906.897,444.679L906.897,433C906.897,429.08 905.27,427.12 902.017,427.12C900.47,427.12 899.123,427.633 897.977,428.66C896.83,429.686 896.256,431.186 896.256,433.16Z" style="fill:rgb(88,89,91);fill-rule:nonzero;"/>
        <path d="M920.737,434.139C920.737,436.179 921.389,437.839 922.697,439.12C924.003,440.399 925.537,441.04 927.297,441.04C929.056,441.04 930.549,440.393 931.777,439.099C933.003,437.806 933.617,436.146 933.617,434.12C933.617,432.093 933.003,430.399 931.777,429.04C930.549,427.679 929.043,427 927.256,427C925.469,427 923.936,427.679 922.657,429.04C921.377,430.399 920.737,432.099 920.737,434.139ZM919.256,441.96C917.256,439.933 916.256,437.266 916.256,433.96C916.256,430.653 917.283,428.013 919.337,426.04C921.389,424.066 923.837,423.08 926.676,423.08C929.516,423.08 931.802,424.279 933.537,426.679L933.537,415L938.016,415L938.016,444.679L933.537,444.679L933.537,441.479C931.882,443.826 929.469,445 926.297,445C923.603,445 921.256,443.986 919.256,441.96Z" style="fill:rgb(88,89,91);fill-rule:nonzero;"/>
        <path d="M949.476,439.059C950.743,440.353 952.349,441 954.297,441C956.243,441 957.849,440.353 959.117,439.059C960.382,437.766 961.016,436.093 961.016,434.04C961.016,431.986 960.382,430.313 959.117,429.019C957.849,427.726 956.243,427.08 954.297,427.08C952.349,427.08 950.743,427.726 949.476,429.019C948.21,430.313 947.577,431.986 947.577,434.04C947.577,436.093 948.21,437.766 949.476,439.059ZM962.297,441.819C960.163,443.939 957.497,445 954.297,445C951.096,445 948.429,443.939 946.297,441.819C944.163,439.699 943.096,437.106 943.096,434.04C943.096,430.973 944.163,428.38 946.297,426.259C948.429,424.139 951.096,423.08 954.297,423.08C957.497,423.08 960.163,424.139 962.297,426.259C964.429,428.38 965.497,430.973 965.497,434.04C965.497,437.106 964.429,439.699 962.297,441.819Z" style="fill:rgb(88,89,91);fill-rule:nonzero;"/>
        <path d="M975.056,433.16L975.056,444.679L970.577,444.679L970.577,423.399L975.056,423.399L975.056,427.279C975.777,425.973 976.77,424.946 978.037,424.199C979.302,423.453 980.67,423.08 982.136,423.08C984.537,423.08 986.476,423.813 987.957,425.279C989.436,426.746 990.176,428.866 990.176,431.639L990.176,444.679L985.697,444.679L985.697,433C985.697,429.08 984.07,427.12 980.817,427.12C979.27,427.12 977.922,427.633 976.777,428.66C975.63,429.686 975.056,431.186 975.056,433.16Z" style="fill:rgb(88,89,91);fill-rule:nonzero;"/>
    </g>
</svg>
