<?xml version="1.0" encoding="UTF-8"?>
<svg width="120px" height="37px" viewBox="0 0 120 37" version="1.1" xmlns="http://www.w3.org/2000/svg" xmlns:xlink="http://www.w3.org/1999/xlink">
    <!-- Generator: Sketch 55.2 (78181) - https://sketchapp.com -->
    <title>interstate-spi-cinemas-logo</title>
    <desc>Created with Sketch.</desc>
    <g id="Page-1" stroke="none" stroke-width="1" fill="none" fill-rule="evenodd">
        <g id="Facilio_Homepage2.2" transform="translate(-407.000000, -1485.000000)" fill="#16102E">
            <g id="Group-3" transform="translate(188.000000, 1408.000000)">
                <g id="Group-2" transform="translate(0.000000, 68.000000)">
                    <g id="interstate-spi-cinemas-logo" transform="translate(219.000000, 9.000000)">
                        <g id="Custom-Preset-3">
                            <g id="SPI">
                                <path d="M66.3196126,12.9559322 C67.446618,12.9579137 68.5414773,13.3317183 69.4343827,14.0193705 C69.5071293,14.0749905 69.5541133,14.1578165 69.5645267,14.248796 C69.57494,14.3397755 69.547886,14.4310758 69.4895887,14.5016949 C69.4389273,14.5757864 69.3596827,14.6254153 69.270908,14.6386488 C69.1821333,14.6518823 69.0918593,14.6275233 69.021792,14.5714286 C68.251094,13.9657048 67.2998527,13.6353273 66.3196126,13.6329298 C64.7616268,13.5510721 63.2856473,14.3356971 62.4820595,15.6729581 C61.6784716,17.0102191 61.6784716,18.6817907 62.4820595,20.0190516 C63.2856473,21.3563126 64.7616268,22.1409375 66.3196126,22.0590799 C67.2933373,22.0736395 68.2406187,21.7420911 68.992736,21.1234867 C69.0663587,21.0670461 69.1601307,21.0437527 69.251606,21.0591822 C69.3430813,21.0746117 69.4240253,21.1273755 69.4750607,21.2048426 C69.53918,21.2716952 69.5714593,21.36289 69.5636747,21.4551937 C69.55589,21.5474973 69.5087927,21.6319977 69.4343827,21.6871671 C68.5400333,22.3704009 67.445072,22.7391333 66.3196126,22.7360775 C64.5425701,22.7793781 62.8816667,21.856091 61.9804101,20.3239384 C61.0791535,18.7917858 61.0791535,16.8915071 61.9804101,15.3593545 C62.8816667,13.827202 64.5425701,12.9039149 66.3196126,12.9472155 L66.3196126,12.9559322 Z" id="Shape"></path>
                                <path d="M72.2731233,13.4266344 C72.2731233,13.240489 72.424024,13.0895884 72.6101693,13.0895884 C72.7963147,13.0895884 72.9472153,13.240489 72.9472153,13.4266344 L72.9472153,22.4135593 C72.9472153,22.5997047 72.7963147,22.7506053 72.6101693,22.7506053 C72.424024,22.7506053 72.2731233,22.5997047 72.2731233,22.4135593 L72.2731233,13.4266344 Z" id="Shape"></path>
                                <path d="M76.7651333,14.5162227 L76.7651333,22.4135593 C76.7651333,22.5964953 76.616834,22.7447942 76.433898,22.7447942 C76.2509627,22.7447942 76.1026633,22.5964953 76.1026633,22.4135593 L76.1026633,13.5631961 C76.0594833,13.4252509 76.1098973,13.2751811 76.2276027,13.1912833 C76.38086,13.0891829 76.5874,13.1263859 76.6953993,13.2755448 L82.5414047,21.3791767 L82.5414047,13.5341405 C82.5414047,13.3479951 82.6923047,13.1970944 82.8784507,13.1970944 C83.064596,13.1970944 83.2154967,13.3479951 83.2154967,13.5341405 L83.2154967,22.4251816 C83.2139687,22.5145761 83.176984,22.5997006 83.1126833,22.661822 C83.048382,22.7239434 82.9620333,22.757971 82.8726393,22.7564675 C82.7698953,22.7580371 82.6722173,22.7118816 82.6082327,22.631477 C82.6082327,22.631477 82.5675547,22.6053269 82.5530267,22.5762712 L76.7651333,14.5162227 Z" id="Shape"></path>
                                <path d="M86.205325,13.4266344 C86.2069053,13.2443561 86.3542833,13.0969778 86.536562,13.0953995 L91.4992733,13.0953995 C91.6854187,13.0953995 91.8363193,13.2463001 91.8363193,13.4324455 C91.8363193,13.6185909 91.6854187,13.7694915 91.4992733,13.7694915 L86.8823247,13.7694915 L86.8823247,17.5874092 L90.9210653,17.5874092 C91.1069993,17.5937081 91.2539833,17.747139 91.2523,17.9331719 C91.2491947,18.114806 91.1026993,18.2613013 90.9210653,18.2644068 L86.8823247,18.2644068 L86.8823247,22.0677966 L91.4992733,22.0677966 C91.5896987,22.0677096 91.676228,22.1045946 91.738782,22.1698918 C91.8013353,22.235189 91.8344747,22.3232213 91.8305087,22.4135593 C91.8312913,22.501646 91.7966453,22.5863526 91.734356,22.6486417 C91.6720667,22.7109309 91.58736,22.7455772 91.4992733,22.7448072 L86.5104113,22.7448072 C86.3377593,22.7311219 86.2047867,22.5867513 86.205325,22.4135593 L86.205325,13.4266344 Z" id="Shape"></path>
                                <path d="M101.506053,14.4871671 L98.4174333,18.7612591 C98.3583067,18.8565652 98.2535507,18.9139055 98.1414047,18.9123487 L98.115254,18.9123487 C97.997718,18.9205257 97.8855053,18.8621752 97.8246973,18.7612591 L94.7360773,14.4871671 L94.7360773,22.4135593 C94.7360773,22.5997047 94.5851767,22.7506053 94.3990313,22.7506053 C94.212886,22.7506053 94.061975,22.5997047 94.061975,22.4135593 L94.061975,13.4818402 C94.06114,13.3773759 94.112336,13.2793405 94.1985473,13.220339 C94.1985473,13.220339 94.1985473,13.220339 94.2276027,13.1912833 C94.3811813,13.0907448 94.5865547,13.1277375 94.6953993,13.2755448 L98.1268767,18.0290557 L101.543825,13.2755448 C101.651825,13.1263859 101.858365,13.0891829 102.011622,13.1912833 C102.04763,13.2243683 102.079794,13.2614059 102.107506,13.3016949 C102.138999,13.3569241 102.157853,13.4184491 102.162712,13.4818402 L102.162712,22.4135593 C102.161164,22.5947226 102.015525,22.74165 101.834383,22.7447942 C101.746556,22.7455925 101.662135,22.7108558 101.600304,22.6484773 C101.538473,22.5860988 101.504481,22.5013757 101.506053,22.4135593 L101.506053,14.4871671 Z" id="Shape"></path>
                                <path d="M109.952543,20.2489104 L105.556417,20.2489104 L104.702179,22.5239709 C104.652027,22.6556729 104.526392,22.7432715 104.385472,22.7447942 C104.356417,22.7447942 104.301211,22.7447942 104.260533,22.7447942 C104.090017,22.6713137 104.006037,22.4779051 104.068765,22.3031477 L107.415981,13.3569007 C107.479069,13.2315511 107.606891,13.1519421 107.747215,13.1506053 C107.889809,13.1437041 108.021755,13.2258816 108.078451,13.3569007 L111.42276,22.2886199 C111.488549,22.4603061 111.409715,22.6535741 111.242615,22.7302663 C111.187409,22.7302663 111.161259,22.7302663 111.117675,22.7302663 C110.978009,22.7249218 110.854274,22.6386484 110.800969,22.5094431 L109.952543,20.2489104 Z M105.80339,19.5748184 L109.705569,19.5748184 L107.761743,14.3912833 L105.80339,19.5748184 Z" id="Shape" fill-rule="nonzero"></path>
                                <path d="M112.555932,20.9375303 C112.605023,20.871387 112.679881,20.8291883 112.761886,20.8214312 C112.84389,20.813674 112.925333,20.8410874 112.985957,20.8968523 C113.700727,21.4779661 114.900727,22.1520581 116.155932,22.1375303 C116.911799,22.1534147 117.653619,21.9318847 118.276997,21.5041162 C118.771595,21.1903068 119.080992,20.6540199 119.105085,20.0687651 C119.098571,19.5188004 118.79815,19.0144026 118.317675,18.7467313 C117.630149,18.3464787 116.872939,18.0802722 116.086199,17.9622276 L116.071671,17.9622276 C115.267673,17.8450247 114.495181,17.5684288 113.799516,17.1486683 C113.198533,16.7985836 112.82232,16.1616619 112.805811,15.4663438 C112.828596,14.7366983 113.203223,14.0632352 113.811138,13.6590799 C114.493716,13.1881241 115.306421,12.9422807 116.135593,12.9559322 C117.405327,12.9559322 118.355448,13.577724 119.113801,14.0745763 C119.253943,14.1702331 119.290321,14.3612181 119.195157,14.5016949 C119.152484,14.5687125 119.084229,14.6153323 119.006279,14.6307026 C118.928329,14.6460729 118.847486,14.6288529 118.782567,14.5830509 C118.024213,14.0861985 117.196126,13.5631961 116.135593,13.5631961 C115.435207,13.5527095 114.748179,13.7553727 114.165617,14.1443099 C113.715464,14.4392384 113.433578,14.9317287 113.407264,15.4692494 C113.426253,15.9548845 113.697195,16.3954401 114.122034,16.631477 C114.756833,17.0090639 115.45981,17.2578705 116.190799,17.3636804 L116.219855,17.3636804 C117.087314,17.4874835 117.921166,17.7838764 118.672155,18.2353511 C119.315352,18.6185121 119.716056,19.3057467 119.732687,20.0542373 C119.701192,20.8352789 119.297065,21.553846 118.646005,21.9864407 C117.917703,22.490441 117.050245,22.7545385 116.164649,22.7418886 C114.68862,22.7418886 113.407264,21.9864407 112.608233,21.3501211 C112.491467,21.2442915 112.469265,21.0691471 112.555932,20.9375303 Z" id="Shape"></path>
                                <path d="M16.5704601,18.7292978 L16.3031477,18.5956417 L8.9636804,22.2595641 L4.73898305,24.3661017 C0.81937046,26.3215497 -0.81355932,31.1651332 1.09249395,35.1864407 C1.33330001,35.6897393 1.62540422,36.1668429 1.96416465,36.6101695 C1.96416465,36.6101695 2.46392252,34.2450363 7.26973367,31.6067797 C10.1985472,29.9941889 11.1079903,29.5961259 12.1627119,29.0150121 C13.2174334,28.4338983 20.3680387,24.9820823 21.6639225,23.7007264 C21.6639225,23.7007264 21.3384988,21.1322034 16.5704601,18.7292978" id="Shape"></path>
                                <path d="M22.1578693,23.2126291 C22.1578693,23.1926291 22.1878693,23.1726291 22.2012026,23.1492958 C22.2145359,23.1259625 22.1712026,23.1926291 22.1578693,23.2126291" id="Shape"></path>
                                <path d="M19.3423729,10.9627119 C15.5651332,8.9840194 12.2208233,7.51380147 7.28426153,4.99176755 C2.40871671,2.49878935 1.95544794,0 1.95544794,0 C1.62116585,0.444622983 1.33391391,0.922727053 1.09830509,1.42663438 C-0.834902053,5.42791549 0.800218547,10.2401375 4.77094431,12.2353511 C8.80096853,14.3593221 11.9244552,15.7801453 16.8290557,18.209201 L16.9510896,18.2702179 C21.7162227,20.6702179 22.1520581,23.1748184 22.1578693,23.2096852 C22.1636804,23.2445521 22.1840194,23.1748184 22.1956417,23.1544794 L22.3060533,23.0033898 C22.5773633,22.6179703 22.8145797,22.2096469 23.0150121,21.7830509 C24.9123487,17.7588378 23.1079903,12.9530267 19.3423729,10.9743341" id="Shape"></path>
                                <polyline id="Shape" points="22.3223083 22.9917675 22.1956417 23.1651009 22.3223083 22.9917675"></polyline>
                                <path d="M38.0658595,23.0033898 C37.9380145,22.3263923 37.1273608,21.5506053 35.7239709,20.7951574 L35.4014528,20.6237288 C35.4170516,20.7305246 35.4248205,20.8383181 35.4246973,20.946247 C35.4246973,22.0445521 34.7389831,22.5355932 33.1002421,22.5355932 C31.1970944,22.5355932 29.8460049,22.3961259 28.590799,22.3002421 L28.590799,24.6915254 C30.2108097,25.0183379 31.8602292,25.1770483 33.5128329,25.1651332 C35.2561743,25.1651332 36.8193705,24.7874092 37.7956417,23.9389831 C38.0406843,23.6940133 38.1493607,23.3440754 38.0861985,23.0033898" id="Shape"></path>
                                <path d="M28.9336562,11.5496368 C28.9322114,11.5699501 28.9322114,11.5903404 28.9336562,11.6106537 C29.0004843,12.0348668 29.5874092,12.6450363 30.5433414,13.2871671 C30.9553267,13.5622193 31.3821207,13.8144158 31.8217918,14.042615 C31.8217918,13.9786925 31.8217918,13.91477 31.8217918,13.8450363 C31.8217918,12.842615 32.6062954,12.5491525 34.0968523,12.5491525 C35.7239709,12.5491525 37.0024213,12.6653753 38.3535109,12.7845036 L38.3535109,10.4193705 C36.890955,10.0947093 35.3974297,9.930061 33.8992736,9.92832927 C31.537046,9.92832927 29.8663438,10.3961259 28.9598063,11.4915254 L28.9365617,11.5263923" id="Shape"></path>
                                <path d="M35.5234867,16.2769976 L33.4634383,15.431477 C33.1961259,15.3268765 32.925908,15.2106537 32.6585957,15.0886199 L32.5859564,15.0566586 C31.7636269,14.6931632 30.9725832,14.2626566 30.2208233,13.7694915 C29.3782082,13.1883777 28.820339,12.674092 28.5443099,12.1917675 C28.3061951,12.7506345 28.1902886,13.3539429 28.2043583,13.9612591 C28.2043583,16.3757869 29.5002421,17.4159806 31.577724,18.2992736 L33.6987893,19.2 C34.4374585,19.4969395 35.1591415,19.8345009 35.8605327,20.211138 L35.9970944,20.2837773 C37.5690073,21.1554479 38.4523003,22.0271187 38.6295399,22.8726392 C38.9511726,22.2055739 39.1095257,21.4715724 39.0915254,20.7312349 C39.0915254,18.4358353 37.9525424,17.2765133 35.5205811,16.2769976" id="Shape"></path>
                                <path d="M40.4920097,21.7307506 C40.4617777,21.8370025 40.4423093,21.9460258 40.4338983,22.0561743 C40.4338983,22.0968523 40.4338983,22.1375303 40.4338983,22.1811138 L40.4338983,22.4455206 C40.4338983,23.7152543 41.305569,24.9646489 44.0251816,24.9646489 L44.0251816,20.5423729 C41.7617433,20.5423729 40.8290557,21.2397095 40.4978208,21.7307506" id="Shape"></path>
                                <path d="M55.2813559,16.6808717 L55.3278451,16.7941889 C55.8653753,18.1394673 56.5307506,19.6242131 56.9927361,21.1874092 L56.9927361,12.8135593 C56.9927361,11.5060533 56.1210654,10.2188862 53.3113801,10.1985472 C53.3113801,10.4891041 53.3113801,10.779661 53.3491525,11.0702179 C53.5234867,13.1912833 54.5840194,14.9113801 55.2813559,16.6547215" id="Shape"></path>
                                <path d="M56.9782082,24.4329298 C56.9782082,24.3021792 56.9636804,24.1714286 56.9549637,24.0493947 C56.7806295,21.5418886 55.6271187,19.1099273 54.7874092,17.009201 L54.7409201,16.8958838 C54.2963681,15.788862 53.7123487,14.6847457 53.2881356,13.4789346 L53.2881356,22.3322034 C53.2881356,23.642615 54.1801453,24.9326877 56.9927361,24.9472155 C56.9927361,24.8077482 56.9927361,24.6566586 56.9927361,24.5375303 C56.9927361,24.505569 56.9927361,24.4736077 56.9927361,24.4416465" id="Shape"></path>
                                <path d="M48.4532687,15.2397095 C48.4154964,16.8348668 47.4188862,17.2154964 45.411138,17.2154964 L44.0513317,17.2154964 C42.862954,17.2154964 41.5467313,18.1743341 40.8552058,19.7113801 C40.7088997,20.0754362 40.5989223,20.4530575 40.5268765,20.8387409 C41.1254237,20.3912833 42.1394673,20.0106537 43.7230024,19.9670702 L44.0484261,19.9670702 C44.6004843,19.9845036 45.0276029,19.9845036 45.5012107,19.9845036 C46.4910761,19.9983156 47.4793591,19.9008518 48.4474576,19.6939467 C50.5104116,19.2116223 51.9951574,17.9912833 51.9951574,15.1467313 L51.9951574,14.9520581 C51.9951574,12.3108959 50.7428571,11.0963681 48.4445521,10.5675545 C46.9848583,10.2882902 45.4991416,10.1684586 44.0135593,10.2101695 C41.28523,10.2101695 40.422276,11.4624697 40.422276,12.7322034 L40.422276,19.3046005 C41.2358353,17.6716707 42.6799031,16.6547215 44.0135593,16.6401937 L44.0135593,13.8043583 C44.0135593,13.3772397 44.0513317,12.9762712 44.7283293,12.9675545 L45.4053269,12.9675545 C47.4392252,12.9675545 48.4271187,13.2813559 48.4474576,14.9694915 L48.4474576,15.2600484 C48.4474576,15.2309927 48.4474576,15.2048426 48.4474576,15.1757869 L48.4532687,15.2397095 Z" id="Shape"></path>
                            </g>
                        </g>
                    </g>
                </g>
            </g>
        </g>
    </g>
</svg>