<svg xmlns="http://www.w3.org/2000/svg" width="50" height="9" viewBox="0 0 50 9">
  <g fill="#F7B700">
    <polygon points="4.66 0 6.1 2.92 9.32 3.39 6.99 5.66 7.54 8.86 4.66 7.35 1.78 8.86 2.33 5.66 0 3.39 3.22 2.92"/>
    <polygon points="14.82 0 16.26 2.92 19.48 3.39 17.15 5.66 17.7 8.86 14.82 7.35 11.94 8.86 12.49 5.66 10.16 3.39 13.38 2.92"/>
    <polygon points="24.98 0 26.42 2.92 29.64 3.39 27.31 5.66 27.86 8.86 24.98 7.35 22.1 8.86 22.65 5.66 20.32 3.39 23.54 2.92"/>
    <polygon points="35.14 0 36.58 2.92 39.8 3.39 37.47 5.66 38.02 8.86 35.14 7.35 32.26 8.86 32.81 5.66 30.48 3.39 33.7 2.92"/>
    <polygon points="45.3 0 46.74 2.92 49.96 3.39 47.63 5.66 48.18 8.86 45.3 7.35 42.42 8.86 42.97 5.66 40.64 3.39 43.86 2.92"/>
  </g>
</svg>
