<svg id="Layer_1" data-name="Layer 1" xmlns="http://www.w3.org/2000/svg" viewBox="0 0 250 250"><defs><style>.cls-1{fill:#ffd45c;}.cls-2{fill:#48515a;}.cls-3{fill:#eaeae9;}.cls-4{fill:#475059;}.cls-5{fill:#5fe0ed;}</style></defs><title>thank you</title><path class="cls-1" d="M164,120.26a4.3,4.3,0,0,1-5.13,3.25l-7.38-1.76a49.3,49.3,0,0,1-5.08,11.14,55.91,55.91,0,0,1-7.24,9.09L139,158l9.66,3.75L166,168.42V111.58Z"/><path class="cls-1" d="M154.67,100.28c0,.15,0,.3,0,.45a2.19,2.19,0,0,1,1.11,0l7.84,1.87a4.22,4.22,0,0,1,2.37,1.49V93.74a41.4,41.4,0,0,0-82.8,0v10.68a4.3,4.3,0,0,1,2.77-2l7.26-1.67a2.09,2.09,0,0,1,1.29.09V99.13h6.34A14.32,14.32,0,0,0,115.17,84.8,14.32,14.32,0,0,0,129.5,99.13h25.17Z"/><path class="cls-1" d="M97.61,121.71l-6.94,1.6a4.29,4.29,0,0,1-5.13-3.24l-2.36-10.44v58.7l15.72-6L110,158.18l.29-15.71a56.64,56.64,0,0,1-7.64-9.58,49.48,49.48,0,0,1-5-11.18"/><path class="cls-2" d="M71.63,155.83H22V124.2H71.63Zm-47.48-2.15H69.49V126.34H24.15Z"/><path class="cls-2" d="M46.82,141.38a1,1,0,0,1-.58-.17l-17.3-11a1.07,1.07,0,0,1,1.15-1.81L46.81,139l16-10.29a1.07,1.07,0,1,1,1.16,1.8L47.4,141.21a1,1,0,0,1-.58.17"/><path class="cls-2" d="M66.92,152a1,1,0,0,1-.82-.39l-9.58-11.48a1.1,1.1,0,0,1,.14-1.52,1.08,1.08,0,0,1,1.51.14l9.58,11.49a1.08,1.08,0,0,1-.14,1.51,1,1,0,0,1-.69.25"/><path class="cls-2" d="M26.71,152a1.07,1.07,0,0,1-.82-1.76l9.57-11.49a1.08,1.08,0,1,1,1.65,1.38l-9.57,11.48a1.08,1.08,0,0,1-.83.39"/><rect class="cls-2" x="47.73" y="157.86" width="2.15" height="15.06"/><path class="cls-2" d="M48.8,176.5a1,1,0,0,1-.76-.31.87.87,0,0,1-.22-.34,1,1,0,0,1-.09-.42,1,1,0,0,1,.09-.41,1,1,0,0,1,.22-.34,1.06,1.06,0,0,1,1.17-.24,1,1,0,0,1,.35.24,1,1,0,0,1,.23.34,1.16,1.16,0,0,1,.09.41,1.22,1.22,0,0,1-.09.42.89.89,0,0,1-.23.34,1,1,0,0,1-.35.24,1.14,1.14,0,0,1-.41.07"/><rect class="cls-2" x="57.06" y="157.86" width="2.15" height="5.73"/><path class="cls-2" d="M58.13,167.18a1,1,0,0,1-.41-.09,1,1,0,0,1-.36-.23,1.11,1.11,0,0,1-.12-.16.54.54,0,0,1-.1-.18,1.29,1.29,0,0,1-.07-.21,1.36,1.36,0,0,1,0-.2,1.13,1.13,0,0,1,.31-.76,1.16,1.16,0,0,1,.36-.23,1,1,0,0,1,.81,0,1,1,0,0,1,.36.23,1.13,1.13,0,0,1,.31.76,1.36,1.36,0,0,1,0,.2.52.52,0,0,1-.07.21.76.76,0,0,1-.09.18.7.7,0,0,1-.13.16.86.86,0,0,1-.36.23.9.9,0,0,1-.4.09"/><rect class="cls-2" x="38.4" y="157.86" width="2.15" height="8.84"/><path class="cls-2" d="M39.47,170.29a1.15,1.15,0,0,1-.41-.08.92.92,0,0,1-.34-.24,1.05,1.05,0,0,1,0-1.51,1,1,0,0,1,.34-.24,1.1,1.1,0,0,1,1.17.24,1.07,1.07,0,0,1,.31.76.68.68,0,0,1,0,.2,1.6,1.6,0,0,1-.05.21c0,.06-.07.13-.11.18a.51.51,0,0,1-.13.16,1.07,1.07,0,0,1-.76.32"/><polygon class="cls-3" points="138.85 158.85 138.85 143.4 131.21 148.6 117.71 148.6 110.35 142.26 110.31 148.34 138.85 158.85"/><path class="cls-2" d="M186.88,194.73H175.57v-2.15h11.31a3.08,3.08,0,0,0,3.06-3.52A27.3,27.3,0,0,0,174,172.65l-25.79-9.9.77-2,25.8,9.9a29.43,29.43,0,0,1,17.2,17.8l0,.17a5.24,5.24,0,0,1-5.16,6.11"/><path class="cls-2" d="M53.13,229.11H51v-1.22l4.59-33.67a29.48,29.48,0,0,1,18.57-23.57l24.37-9.36.77,2-24.36,9.36a27.31,27.31,0,0,0-17.22,21.86l-4.58,33.6Z"/><path class="cls-2" d="M129,207.28c-2,2.46-3.54,4.38-4.44,5.46-4.64-5.58-27.47-33.6-27.47-44.83v-.11a5.48,5.48,0,0,1,3.57-5.12l10.56-3.88V142.5A4.6,4.6,0,0,1,109.1,141V157.3l-9.16,3.37a7.62,7.62,0,0,0-5,7.13v.11c0,13.23,27.62,45.82,28.79,47.2l.82,1,.82-1s2.2-2.59,5.3-6.5Z"/><path class="cls-2" d="M149.29,160.81l-9.22-3.5V141.87a5.9,5.9,0,0,1-2.15,1.47v15.45l10.61,4a5.47,5.47,0,0,1,3.52,5.09c0,4.13-3.3,11.36-9.54,20.89L144.3,190c6.57-10,9.9-17.45,9.9-22.07a7.63,7.63,0,0,0-4.91-7.1"/><path class="cls-2" d="M153.6,100.28c0,.29,0,.57,0,.86a5.92,5.92,0,0,1,1.5-.19c.22,0,.44,0,.65,0,0-.24,0-.47,0-.7V98.06H129.5A13.28,13.28,0,0,1,116.24,84.8V80.86H114.1V84.8a13.28,13.28,0,0,1-13.26,13.26H93.42v2.22c0,.17,0,.33,0,.5h.31a5.59,5.59,0,0,1,1.84.29c0-.26,0-.52,0-.78v-.08h5.27a15.42,15.42,0,0,0,14.33-9.75,15.42,15.42,0,0,0,14.33,9.75h24.1Z"/><path class="cls-2" d="M150.43,121.58a48.07,48.07,0,0,1-4.91,10.74A62.24,62.24,0,0,1,133.39,146h0a8.58,8.58,0,0,1-5.74,2H121a8.74,8.74,0,0,1-5.57-2.08,60.29,60.29,0,0,1-11.9-13.51,48.7,48.7,0,0,1-4.82-10.7,4.9,4.9,0,0,1-2,.71,50.25,50.25,0,0,0,5,11.12,62.34,62.34,0,0,0,12.33,14,10.89,10.89,0,0,0,7,2.6h6.77a10.79,10.79,0,0,0,7-2.49,63.22,63.22,0,0,0,12.56-14.11,50.55,50.55,0,0,0,5.15-11.29,5,5,0,0,1-2.06-.6"/><path class="cls-2" d="M178.79,91.74h-3.88V89.6a6.65,6.65,0,0,0,6.54-5.31,33.13,33.13,0,1,1,13.43,2.84,33.59,33.59,0,0,1-4.36-.28,16.62,16.62,0,0,1-11.73,4.89M194.88,23A31,31,0,0,0,183,82.64l.73.3-.08.79a8.77,8.77,0,0,1-2.82,5.72A14.29,14.29,0,0,0,189.34,85l.38-.42.56.09a32.36,32.36,0,0,0,4.6.34,31,31,0,0,0,0-62"/><rect class="cls-2" x="176.55" y="39.18" width="36.48" height="2.15"/><rect class="cls-2" x="176.55" y="43.64" width="36.48" height="2.15"/><rect class="cls-2" x="176.55" y="47.93" width="36.48" height="2.15"/><polygon class="cls-2" points="203.59 66.52 199.51 62.44 201.03 60.92 203.59 63.48 213.35 53.73 214.86 55.25 203.59 66.52"/><rect class="cls-2" x="184.06" y="55.73" width="2.15" height="12.14" transform="translate(10.53 149.01) rotate(-45)"/><rect class="cls-2" x="179.07" y="60.73" width="12.14" height="2.15" transform="translate(10.53 149.01) rotate(-45)"/><path class="cls-2" d="M193.72,70.38H176.55V53.22h17.17Zm-15-2.14h12.87V55.36H178.7Z"/><polygon class="cls-2" points="213.03 70.38 195.87 70.38 195.87 53.22 209.63 53.22 209.63 55.36 198.01 55.36 198.01 68.24 210.89 68.24 210.89 60.82 213.03 60.82 213.03 70.38"/><path class="cls-2" d="M87.82,101.45c-.2-2-.3-4-.3-5.78v-.52A38.18,38.18,0,0,1,98.79,68.26a36.47,36.47,0,0,1,48.55-2.83A37.27,37.27,0,0,1,157.6,78.06q.32.64.6,1.29a35.16,35.16,0,0,1,3.23,14.91v1.41a52.18,52.18,0,0,1-.35,5.76l-2.14-.24a48,48,0,0,0,.34-5.52V94.24a32.88,32.88,0,0,0-3-14c-.19-.42-.38-.82-.58-1.22A35.18,35.18,0,0,0,146,67.11a34.35,34.35,0,0,0-45.71,2.67A36,36,0,0,0,89.66,95.15v.52c0,1.72.1,3.59.3,5.57Z"/><path class="cls-2" d="M89.72,124.49a5.38,5.38,0,0,1-5.23-4.19l-2.83-12.56a5.36,5.36,0,0,1,4-6.41L93,99.66a3.21,3.21,0,0,1,3.89,2.42l3.78,16.75a3.23,3.23,0,0,1-2.38,3.83l-7.36,1.7a5.27,5.27,0,0,1-1.18.13m4-22.78a1.07,1.07,0,0,0-.25,0l-7.28,1.68a3.22,3.22,0,0,0-2.44,3.85l2.83,12.56a3.23,3.23,0,0,0,3.85,2.43l7.34-1.69a1.06,1.06,0,0,0,.77-1.27l-3.77-16.75a1.15,1.15,0,0,0-.48-.68,1.17,1.17,0,0,0-.57-.16"/><path class="cls-2" d="M90.87,115.55a4.29,4.29,0,1,1,4.29-4.29,4.29,4.29,0,0,1-4.29,4.29m0-6.44A2.15,2.15,0,1,0,93,111.26a2.15,2.15,0,0,0-2.14-2.15"/><path class="cls-2" d="M159.85,124.69a5.3,5.3,0,0,1-1.19-.14h0l-7.92-1.89a3.23,3.23,0,0,1-2.38-3.83l3.78-16.75a3.21,3.21,0,0,1,3.9-2.42l7.84,1.87a5.36,5.36,0,0,1,4,6.41l-2.83,12.56a5.4,5.4,0,0,1-5.22,4.19m-.72-2.23A3.22,3.22,0,0,0,163,120l2.83-12.57a3.17,3.17,0,0,0-.42-2.42,3.21,3.21,0,0,0-2-1.42l-7.86-1.87a1,1,0,0,0-.83.12,1.07,1.07,0,0,0-.48.68l-3.78,16.75a1.09,1.09,0,0,0,.79,1.28Z"/><path class="cls-2" d="M158.11,115.55a4.29,4.29,0,1,1,4.29-4.29,4.29,4.29,0,0,1-4.29,4.29m0-6.44a2.15,2.15,0,1,0,2.15,2.15,2.16,2.16,0,0,0-2.15-2.15"/><path class="cls-2" d="M128.22,135.74h-6.44a3.22,3.22,0,0,1,0-6.44h6.44a3.22,3.22,0,0,1,0,6.44m-6.44-4.29a1.07,1.07,0,0,0,0,2.14h6.44a1.07,1.07,0,0,0,0-2.14Z"/><polygon class="cls-2" points="135.53 133.59 130.36 133.59 130.36 131.45 135.39 131.45 152.2 129.38 155.61 122.73 157.52 123.71 153.59 131.37 135.53 133.59"/><rect class="cls-2" x="88.44" y="101.29" width="2.15" height="6.52" transform="translate(-18.41 19.13) rotate(-11.07)"/><rect class="cls-2" x="155.96" y="103.64" width="6.9" height="2.15" transform="translate(28.5 243.41) rotate(-79.95)"/><path class="cls-2" d="M167.92,229.08H144.49a6.63,6.63,0,0,1-6.62-6.62v-1.07a6.63,6.63,0,0,1,6.62-6.62h8.58a4.47,4.47,0,0,0,0-8.94h-25.4a6.63,6.63,0,0,1,0-13.25H143.6v2.15H127.67a4.48,4.48,0,0,0,0,9h25.4a6.62,6.62,0,0,1,0,13.24h-8.58a4.48,4.48,0,0,0-4.48,4.47v1.07a4.48,4.48,0,0,0,4.48,4.47h23.43a5.37,5.37,0,0,0,5.36-5.36V217.9l4.61-4.6,1.51,1.51-4,4v2.78a7.52,7.52,0,0,1-7.51,7.51"/><path class="cls-2" d="M172,194.73l-.21,0-.2-.06-.18-.1a.58.58,0,0,1-.17-.14,1.05,1.05,0,0,1-.32-.75,1.22,1.22,0,0,1,.09-.42,1,1,0,0,1,.23-.34.79.79,0,0,1,.17-.14l.18-.1.2,0a1.06,1.06,0,0,1,1,.29,1.39,1.39,0,0,1,.24.34,1.2,1.2,0,0,1,.07.42.68.68,0,0,1,0,.2,1.6,1.6,0,0,1-.05.21c0,.06-.07.13-.11.18a1,1,0,0,1-.13.16,1,1,0,0,1-.76.32"/><path class="cls-2" d="M166.73,193.65a1.07,1.07,0,0,1,2.14,0,1.07,1.07,0,1,1-2.14,0m-4.24,0a1.08,1.08,0,0,1,2.15,0,1.08,1.08,0,1,1-2.15,0m-4.23,0a1.06,1.06,0,0,1,1.07-1.06,1.07,1.07,0,1,1-1.07,1.06m-4.24,0a1.07,1.07,0,0,1,1.08-1.06,1.06,1.06,0,0,1,1.07,1.06,1.07,1.07,0,0,1-1.07,1.08,1.08,1.08,0,0,1-1.08-1.08m-4.22,0a1.07,1.07,0,1,1,1.07,1.08,1.06,1.06,0,0,1-1.07-1.08"/><path class="cls-2" d="M146.64,194.72a1,1,0,0,1-.76-.31,1.05,1.05,0,0,1,0-1.51,1.1,1.1,0,0,1,1.51,0,1,1,0,0,1,0,1.51,1,1,0,0,1-.75.31"/><path class="cls-4" d="M182.31,218.2l-.11,0a5.2,5.2,0,0,1-2.32-1l-4.49-4.34a3.55,3.55,0,0,1-1-2.54,3.52,3.52,0,0,1,1-2.52l8.59-8.58a3.58,3.58,0,0,1,5.06,0l3.89,3.75,1.08-.26a25,25,0,0,0,18.55-19.25l-3.91-3.78a3.56,3.56,0,0,1,0-5.06l8.6-8.58a3.55,3.55,0,0,1,2.52-1h0a3.52,3.52,0,0,1,2.52,1l3.76,3.6a6.05,6.05,0,0,1,1.79,4.31,27.27,27.27,0,0,1-.93,7.26,51.4,51.4,0,0,1-34.57,35.54,35.31,35.31,0,0,1-9.91,1.48Zm4.2-17.93a1.42,1.42,0,0,0-1,.42l-8.6,8.57a1.42,1.42,0,0,0,0,2l4.49,4.34a3.58,3.58,0,0,0,1.13.43,33.16,33.16,0,0,0,9.19-1.38,49.28,49.28,0,0,0,33.13-34.06,25.1,25.1,0,0,0,.85-6.69,3.86,3.86,0,0,0-1.14-2.78l-3.76-3.6a1.42,1.42,0,0,0-1-.44h0a1.42,1.42,0,0,0-1,.42l-8.59,8.58a1.38,1.38,0,0,0-.42,1,1.41,1.41,0,0,0,.42,1l4.73,4.57-.11.56a27.11,27.11,0,0,1-20.26,21.51l-2.23.54-4.76-4.58a1.4,1.4,0,0,0-1-.44Z"/><rect class="cls-4" x="214.1" y="176.5" width="6.44" height="2.15" transform="translate(-61.95 205.28) rotate(-44.92)"/><rect class="cls-4" x="220.81" y="171.95" width="2.14" height="2.15" transform="translate(-57.4 207.18) rotate(-44.92)"/><rect class="cls-4" x="180.03" y="208.34" width="10.73" height="2.15" transform="translate(-93.75 192.04) rotate(-44.92)"/><path class="cls-2" d="M199,172.21h-2.14a17.18,17.18,0,0,1,17.16-17.16v2.14a15,15,0,0,0-15,15"/><path class="cls-2" d="M194.74,172.21h-2.15a21.49,21.49,0,0,1,21.46-21.46v2.15a19.33,19.33,0,0,0-19.31,19.31"/><path class="cls-2" d="M190.45,172.21H188.3a25.78,25.78,0,0,1,25.75-25.75v2.15a23.63,23.63,0,0,0-23.6,23.6"/><path class="cls-2" d="M203.32,172.21h-2.14a12.88,12.88,0,0,1,12.87-12.87v2.14a10.75,10.75,0,0,0-10.73,10.73"/><rect class="cls-2" x="193.67" y="111.05" width="2.15" height="4.29"/><rect class="cls-2" x="193.67" y="121.78" width="2.15" height="4.29"/><rect class="cls-2" x="197.96" y="117.49" width="4.29" height="2.15"/><rect class="cls-2" x="187.23" y="117.49" width="4.29" height="2.15"/><path class="cls-5" d="M189.44,141.15a3.22,3.22,0,1,1-3.22-3.21,3.22,3.22,0,0,1,3.22,3.21"/></svg>