<?xml version="1.0" encoding="UTF-8"?>
<svg width="48px" height="48px" viewBox="0 0 48 48" version="1.1" xmlns="http://www.w3.org/2000/svg" xmlns:xlink="http://www.w3.org/1999/xlink">
    <!-- Generator: Sketch 52.6 (67491) - http://www.bohemiancoding.com/sketch -->
    <title>twitter</title>
    <desc>Created with Sketch.</desc>
    <g id="Page-1" stroke="none" stroke-width="1" fill="none" fill-rule="evenodd">
        <g id="Future_Proof_Website1.0" transform="translate(-155.000000, -6539.000000)" fill-rule="nonzero">
            <g id="twitter" transform="translate(155.000000, 6539.000000)">
                <path d="M23.9439452,0 C37.1686027,0 47.8880548,10.7209315 47.8880548,23.9441096 C47.8880548,37.1687671 37.1686027,47.8880548 23.9439452,47.8880548 C10.7192877,47.8880548 0,37.1686027 0,23.9441096 C0,10.7209315 10.7194521,0 23.9439452,0 Z" id="Shape" fill="#26A6D1"></path>
                <path d="M38.9135342,16.1307945 C37.8675616,16.5826849 36.7420274,16.8864658 35.5614247,17.0242192 C36.7676712,16.3223014 37.6924932,15.2133699 38.1279452,13.8890959 C36.9996164,14.5400548 35.7514521,15.0115068 34.4210959,15.2643288 C33.3570411,14.1644384 31.8410959,13.4774795 30.1620822,13.4774795 C26.9416438,13.4774795 24.3287671,16.0111233 24.3287671,19.1386849 C24.3287671,19.5831781 24.379726,20.0156712 24.4798356,20.4302466 C19.6311781,20.193863 15.3302466,17.9385205 12.4540274,14.5130959 C11.9511781,15.3496438 11.6638356,16.3208219 11.6638356,17.3593973 C11.6638356,19.3227945 12.6933699,21.0586849 14.2587945,22.0719452 C13.3010959,22.0420274 12.4030685,21.7890411 11.6145205,21.3626301 L11.6145205,21.4344658 C11.6145205,24.1790137 13.6257534,26.4672329 16.2955068,26.988 C15.806137,27.1167123 15.2912877,27.1870685 14.7585205,27.1870685 C14.3829041,27.1870685 14.0178082,27.1527123 13.661589,27.0853151 C14.4037808,29.3360548 16.5588493,30.9731507 19.1133699,31.0181918 C17.1156164,32.5385753 14.5998904,33.4425205 11.865863,33.4425205 C11.394411,33.4425205 10.9305205,33.4155616 10.4725479,33.3632877 C13.0569863,34.9704658 16.1219178,35.9087671 19.4186301,35.9087671 C30.1515616,35.9087671 36.0208767,27.2769863 36.0208767,19.794411 L36.0044384,19.0610959 C37.1416438,18.2648219 38.1309041,17.2681644 38.9135342,16.1307945 Z" id="Shape" fill="#FFFFFF"></path>
            </g>
        </g>
    </g>
</svg>