<?xml version="1.0" encoding="UTF-8"?>
<svg width="105px" height="105px" viewBox="0 0 105 105" version="1.1" xmlns="http://www.w3.org/2000/svg" xmlns:xlink="http://www.w3.org/1999/xlink">
    <title>Artboard 2 copy 2</title>
    <g id="Page-1" stroke="none" stroke-width="1" fill="none" fill-rule="evenodd">
        <g id="Management-Dashboard-Copy" transform="translate(-98.000000, -670.000000)" fill="#4A8424" fill-rule="nonzero">
            <g id="Artboard-2-copy-2" transform="translate(98.000000, 670.000000)">
                <path d="M20.0609469,84.9560381 C20.0609469,80.7730395 19.8701723,76.5752076 20.1636717,72.4218757 C20.3256102,70.8115338 21.1313945,69.3379692 22.3942678,68.3427104 C31.3606768,62.498379 40.3711107,62.5725456 49.4255696,68.4465437 C51.1554679,69.4807299 53.1114272,70.0667158 55.1194594,70.1523764 C59.859476,70.3897097 64.6141675,70.1523764 69.3541841,70.2562097 C73.7566762,70.2562097 76.1927219,72.5850423 76.0899971,76.1895411 C75.9872722,79.7940399 73.6539514,81.6630392 69.3248341,81.7075392 C63.9684687,81.7075392 58.6121032,81.7075392 53.1823629,81.7075392 C50.6142425,81.7075392 48.3836464,82.4492056 48.4129964,85.4900379 C48.4423463,88.5308703 50.5848925,89.0797034 52.9915882,89.0945367 C58.8615778,89.0945367 64.7315673,89.3022033 70.513507,89.0945367 C75.7963314,89.0466707 80.5043241,85.7149241 82.3562109,80.7137062 C82.85133,79.4911708 83.6499122,78.4183106 84.6748568,77.5987073 C88.1234756,75.0918748 91.6748193,72.7185422 95.2848628,70.4342097 C98.017411,68.5141944 101.759067,69.0945407 103.796348,71.7543759 C105.735221,74.4672611 105.288215,78.2303615 102.7691,80.4022063 C95.6517372,87.1810374 88.5930748,94.212035 80.9914383,100.486533 C77.820206,102.89622 74.0300792,104.332854 70.0732578,104.625032 C54.3563608,105.885864 38.7862135,103.764698 23.2747662,101.272699 C20.9120954,100.887033 19.9141972,99.9821998 20.016922,97.4902006 C20.1783467,93.3665353 20.0609469,89.1242034 20.0609469,84.9560381 Z" id="Path"></path>
                <path d="M38,42.6468328 C38.5350495,41.0338426 38.9363367,37.8078623 40.5117602,35.3365839 C44.5840815,28.9586136 49.1320024,22.8470088 53.6056109,16.7206058 C55.0918595,14.6488753 57.3212325,14.3085196 58.8520686,16.4690385 C63.8161391,23.4389317 69.1369093,30.2460461 73.1943681,37.7190739 C76.9545772,44.6445729 74.4874045,51.3481007 69.0625969,56.7789942 C63.8898622,62.018164 55.9767757,63.4732563 49.2657648,60.4193206 C42.1169088,57.3117249 38.4012871,51.8068411 38,42.6468328 Z" id="Path"></path>
                <path d="M12.9558824,83.5942485 C12.9558824,89.3516798 12.9558824,95.0943105 12.9558824,100.836941 C12.9558824,103.619453 11.8676471,104.744298 9.08823529,104.862703 C0,105.27712 0,105.336322 0,96.1303521 C0,86.3471591 0.102941176,76.563966 0,66.780773 C0,63.3026333 1.25,62.0149815 4.69117647,62 C12.9852941,62 12.9852941,61.852175 13,70.0221032 L13,83.5942485 L12.9558824,83.5942485 Z" id="Path"></path>
                <path d="M41,16.7998102 C41,22.8894875 37.9478341,27.2941569 33.4949157,29.0530686 C29.0876229,30.9574952 23.9648763,29.9339733 20.6227376,26.4812146 C17.0437064,23.4201574 15.9825499,18.3202459 18.0424041,14.0801485 C20.6410051,9.53324958 23.5579526,5.17677918 26.7713038,1.04350929 C27.3316047,0.274909249 29.7202563,-0.286760014 30.1183649,0.156663088 C35.3232663,5.21168645 39.7614399,10.7840368 41,16.7998102 Z" id="Path"></path>
                <path d="M85.005027,30 C76.4544469,30 70.2717198,20.6136999 74.2181414,13.9176019 C76.7613908,9.53151148 79.7723643,5.48168802 82.7102559,1.38800366 C83.1446285,0.5362069 84.0198404,0 84.9757942,0 C85.9317481,0 86.8069599,0.5362069 87.2413325,1.38800366 C90.1646077,5.48168802 93.087883,9.57537238 95.7626798,13.8883613 C99.7529505,20.4382562 93.5409906,30.0291739 85.005027,30 Z" id="Path"></path>
            </g>
        </g>
    </g>
</svg>