<svg id="Layer_1" data-name="Layer 1" xmlns="http://www.w3.org/2000/svg" xmlns:xlink="http://www.w3.org/1999/xlink" viewBox="0 0 4002 1342"><defs><style>.cls-1,.cls-10,.cls-11,.cls-12,.cls-13,.cls-15,.cls-16,.cls-17,.cls-18,.cls-19,.cls-9{fill:none;}.cls-2{clip-path:url(#clip-path);}.cls-3{fill:#420085;}.cls-4{opacity:0.5;}.cls-5{clip-path:url(#clip-path-2);}.cls-6{fill:#97faff;}.cls-7{clip-path:url(#clip-path-3);}.cls-8{opacity:0.6;}.cls-10,.cls-11,.cls-12,.cls-13,.cls-15,.cls-16,.cls-17,.cls-18,.cls-19,.cls-9{stroke:#fff;stroke-linecap:round;stroke-linejoin:round;}.cls-10,.cls-11,.cls-12,.cls-13,.cls-9{stroke-width:4.44px;}.cls-9{stroke-dasharray:0 15.46;}.cls-10{stroke-dasharray:0 15.62;}.cls-11{stroke-dasharray:0 15.51;}.cls-12{stroke-dasharray:0 15.33;}.cls-13{stroke-dasharray:0 15.65;}.cls-14,.cls-22{fill:#fff;}.cls-15,.cls-16,.cls-17,.cls-18,.cls-19{stroke-width:2.51px;}.cls-15{stroke-dasharray:0 8.76;}.cls-16{stroke-dasharray:0 8.85;}.cls-17{stroke-dasharray:0 8.79;}.cls-18{stroke-dasharray:0 8.69;}.cls-19{stroke-dasharray:0 8.86;}.cls-20{opacity:0.2;}.cls-21{opacity:0.3;}.cls-22,.cls-23{opacity:0.15;}</style><clipPath id="clip-path"><rect class="cls-1" width="4002" height="1342"/></clipPath><clipPath id="clip-path-2"><circle class="cls-1" cx="3156.75" cy="960.21" r="108.82" transform="translate(245.62 2513.4) rotate(-45)"/></clipPath><clipPath id="clip-path-3"><circle class="cls-1" cx="3582.31" cy="258.34" r="111.34"/></clipPath></defs><title>HB5</title><g class="cls-2"><ellipse class="cls-3" cx="1506.86" cy="1342.15" rx="84.04" ry="81.94" transform="translate(-507.7 1458.57) rotate(-45)"/><g class="cls-4"><g class="cls-5"><rect class="cls-6" x="3098.16" y="933.12" width="0.9" height="234.65" transform="translate(555.57 3109.02) rotate(-57.72)"/><rect class="cls-6" x="3102.23" y="926.67" width="0.9" height="234.65" transform="translate(562.92 3109.46) rotate(-57.72)"/><rect class="cls-6" x="3106.3" y="920.22" width="0.9" height="234.65" transform="translate(570.27 3109.9) rotate(-57.72)"/><rect class="cls-6" x="3110.38" y="913.78" width="0.9" height="234.65" transform="translate(577.61 3110.34) rotate(-57.72)"/><rect class="cls-6" x="3114.45" y="907.33" width="0.9" height="234.65" transform="translate(584.96 3110.78) rotate(-57.72)"/><rect class="cls-6" x="3118.52" y="900.88" width="0.9" height="234.65" transform="translate(592.31 3111.22) rotate(-57.72)"/><rect class="cls-6" x="3122.6" y="894.43" width="0.9" height="234.65" transform="translate(599.66 3111.66) rotate(-57.72)"/><rect class="cls-6" x="3126.67" y="887.99" width="0.9" height="234.65" transform="matrix(0.53, -0.85, 0.85, 0.53, 607.01, 3112.1)"/><rect class="cls-6" x="3130.74" y="881.54" width="0.9" height="234.65" transform="translate(614.36 3112.54) rotate(-57.72)"/><rect class="cls-6" x="3134.82" y="875.09" width="0.9" height="234.65" transform="translate(621.7 3112.98) rotate(-57.72)"/><rect class="cls-6" x="3138.89" y="868.64" width="0.9" height="234.65" transform="translate(629.05 3113.42) rotate(-57.72)"/><rect class="cls-6" x="3142.96" y="862.2" width="0.9" height="234.65" transform="translate(636.4 3113.86) rotate(-57.72)"/><rect class="cls-6" x="3147.04" y="855.75" width="0.9" height="234.65" transform="translate(644.01 3114.6) rotate(-57.72)"/><rect class="cls-6" x="3151.11" y="849.3" width="0.9" height="234.65" transform="translate(651.1 3114.74) rotate(-57.72)"/><rect class="cls-6" x="3155.18" y="842.85" width="0.9" height="234.65" transform="translate(658.45 3115.18) rotate(-57.72)"/><rect class="cls-6" x="3159.26" y="836.41" width="0.9" height="234.65" transform="translate(665.79 3115.62) rotate(-57.72)"/><rect class="cls-6" x="3163.33" y="829.96" width="0.9" height="234.65" transform="translate(673.14 3116.06) rotate(-57.72)"/><rect class="cls-6" x="3167.4" y="823.51" width="0.9" height="234.65" transform="translate(680.49 3116.5) rotate(-57.72)"/><rect class="cls-6" x="3171.48" y="817.07" width="0.9" height="234.65" transform="translate(687.84 3116.94) rotate(-57.72)"/><rect class="cls-6" x="3175.55" y="810.62" width="0.9" height="234.65" transform="translate(695.19 3117.38) rotate(-57.72)"/><rect class="cls-6" x="3179.62" y="804.17" width="0.9" height="234.65" transform="translate(702.54 3117.82) rotate(-57.72)"/><rect class="cls-6" x="3183.69" y="797.72" width="0.9" height="234.65" transform="translate(709.89 3118.26) rotate(-57.72)"/><rect class="cls-6" x="3187.77" y="791.28" width="0.9" height="234.65" transform="translate(717.24 3118.71) rotate(-57.72)"/><rect class="cls-6" x="3191.84" y="784.83" width="0.9" height="234.65" transform="translate(724.58 3119.13) rotate(-57.72)"/><rect class="cls-6" x="3195.91" y="778.38" width="0.9" height="234.65" transform="translate(731.92 3119.56) rotate(-57.72)"/><rect class="cls-6" x="3199.99" y="771.93" width="0.9" height="234.65" transform="translate(739.28 3120.01) rotate(-57.72)"/><rect class="cls-6" x="3204.06" y="765.49" width="0.9" height="234.65" transform="translate(746.64 3120.47) rotate(-57.72)"/><rect class="cls-6" x="3208.13" y="759.04" width="0.9" height="234.65" transform="translate(753.98 3120.89) rotate(-57.72)"/><rect class="cls-6" x="3212.21" y="752.59" width="0.9" height="234.65" transform="translate(761.31 3121.32) rotate(-57.72)"/></g></g><g class="cls-4"><g class="cls-7"><rect class="cls-6" x="3385.3" y="179.53" width="240.1" height="0.92" transform="translate(899.42 2531.37) rotate(-45)"/><rect class="cls-6" x="3390.82" y="185.04" width="240.1" height="0.92" transform="translate(897.14 2536.89) rotate(-45)"/><rect class="cls-6" x="3396.34" y="190.56" width="240.1" height="0.92" transform="translate(894.85 2542.41) rotate(-45)"/><rect class="cls-6" x="3401.85" y="196.08" width="240.1" height="0.92" transform="translate(892.57 2547.93) rotate(-45)"/><rect class="cls-6" x="3407.37" y="201.6" width="240.1" height="0.92" transform="translate(890.28 2553.44) rotate(-45)"/><rect class="cls-6" x="3412.89" y="207.12" width="240.1" height="0.92" transform="translate(888 2558.96) rotate(-45)"/><rect class="cls-6" x="3418.41" y="212.63" width="240.1" height="0.92" transform="translate(885.71 2564.48) rotate(-45)"/><rect class="cls-6" x="3423.93" y="218.15" width="240.1" height="0.92" transform="translate(883.43 2570) rotate(-45)"/><rect class="cls-6" x="3429.44" y="223.67" width="240.1" height="0.92" transform="translate(881.14 2575.52) rotate(-45)"/><rect class="cls-6" x="3434.96" y="229.19" width="240.1" height="0.92" transform="translate(878.85 2581.03) rotate(-45)"/><rect class="cls-6" x="3440.48" y="234.7" width="240.1" height="0.92" transform="translate(876.57 2586.55) rotate(-45)"/><rect class="cls-6" x="3446" y="240.22" width="240.1" height="0.92" transform="translate(874.28 2592.07) rotate(-45)"/><rect class="cls-6" x="3451.51" y="245.74" width="240.1" height="0.92" transform="translate(872.29 2597.92) rotate(-45.01)"/><rect class="cls-6" x="3457.03" y="251.26" width="240.1" height="0.92" transform="translate(869.71 2603.1) rotate(-45)"/><rect class="cls-6" x="3462.55" y="256.78" width="240.1" height="0.92" transform="translate(867.43 2608.62) rotate(-45)"/><rect class="cls-6" x="3468.07" y="262.29" width="240.1" height="0.92" transform="translate(865.14 2614.14) rotate(-45)"/><rect class="cls-6" x="3473.59" y="267.81" width="240.1" height="0.92" transform="translate(862.86 2619.66) rotate(-45)"/><rect class="cls-6" x="3479.1" y="273.33" width="240.1" height="0.92" transform="translate(860.57 2625.18) rotate(-45)"/><rect class="cls-6" x="3484.62" y="278.85" width="240.1" height="0.92" transform="translate(858.28 2630.69) rotate(-45)"/><rect class="cls-6" x="3490.14" y="284.36" width="240.1" height="0.92" transform="translate(856 2636.21) rotate(-45)"/><rect class="cls-6" x="3495.66" y="289.88" width="240.1" height="0.92" transform="translate(853.71 2641.73) rotate(-45)"/><rect class="cls-6" x="3501.17" y="295.4" width="240.1" height="0.92" transform="translate(851.43 2647.25) rotate(-45)"/><rect class="cls-6" x="3506.69" y="300.92" width="240.1" height="0.92" transform="translate(849.15 2652.78) rotate(-45)"/><rect class="cls-6" x="3512.21" y="306.44" width="240.1" height="0.92" transform="translate(846.86 2658.28) rotate(-45)"/><rect class="cls-6" x="3517.73" y="311.95" width="240.1" height="0.92" transform="translate(844.56 2663.79) rotate(-45)"/><rect class="cls-6" x="3523.25" y="317.47" width="240.1" height="0.92" transform="translate(842.29 2669.32) rotate(-45)"/><rect class="cls-6" x="3528.76" y="322.99" width="240.1" height="0.92" transform="translate(840.01 2674.85) rotate(-45)"/><rect class="cls-6" x="3534.28" y="328.51" width="240.1" height="0.92" transform="translate(837.71 2680.35) rotate(-45)"/><rect class="cls-6" x="3539.8" y="334.02" width="240.1" height="0.92" transform="translate(835.42 2685.86) rotate(-45)"/></g></g><g class="cls-8"><circle class="cls-9" cx="2824.9" cy="666.3" r="162.34" transform="translate(356.25 2192.66) rotate(-45)"/><circle class="cls-10" cx="2824.9" cy="666.3" r="136.7" transform="translate(-70.25 461.1) rotate(-9.22)"/><circle class="cls-11" cx="2824.9" cy="666.3" r="111.05" transform="translate(356.25 2192.66) rotate(-45)"/><circle class="cls-12" cx="2824.9" cy="666.3" r="85.41" transform="translate(1128.27 3021.18) rotate(-67.5)"/><circle class="cls-13" cx="2824.9" cy="666.3" r="59.77"/></g><g class="cls-4"><path class="cls-14" d="M3473.19,700.57a2.58,2.58,0,1,0,0,3.7A2.62,2.62,0,0,0,3473.19,700.57Z"/><path class="cls-14" d="M3503.13,670.62a2.58,2.58,0,1,0,.06,3.7A2.62,2.62,0,0,0,3503.13,670.62Z"/><path class="cls-14" d="M3533.08,640.68a2.58,2.58,0,1,0,.05,3.7A2.62,2.62,0,0,0,3533.08,640.68Z"/><path class="cls-14" d="M3563,610.73a2.58,2.58,0,1,0,.06,3.7A2.62,2.62,0,0,0,3563,610.73Z"/><path class="cls-14" d="M3593,580.79a2.58,2.58,0,1,0,.06,3.7A2.62,2.62,0,0,0,3593,580.79Z"/><path class="cls-14" d="M3501.68,729.06a2.58,2.58,0,1,0,.06,3.7A2.62,2.62,0,0,0,3501.68,729.06Z"/><path class="cls-14" d="M3531.62,699.12a2.58,2.58,0,1,0,.06,3.7A2.6,2.6,0,0,0,3531.62,699.12Z"/><path class="cls-14" d="M3561.57,669.17a2.58,2.58,0,1,0,.06,3.7A2.62,2.62,0,0,0,3561.57,669.17Z"/><path class="cls-14" d="M3591.52,639.23a2.58,2.58,0,1,0,.05,3.7A2.61,2.61,0,0,0,3591.52,639.23Z"/><path class="cls-14" d="M3621.46,609.28a2.58,2.58,0,1,0,.06,3.7A2.62,2.62,0,0,0,3621.46,609.28Z"/><path class="cls-14" d="M3530.17,757.55a2.58,2.58,0,1,0,.06,3.7A2.62,2.62,0,0,0,3530.17,757.55Z"/><path class="cls-14" d="M3560.12,727.61a2.58,2.58,0,1,0,.05,3.7A2.62,2.62,0,0,0,3560.12,727.61Z"/><path class="cls-14" d="M3590.06,697.66a2.58,2.58,0,1,0,.06,3.7A2.62,2.62,0,0,0,3590.06,697.66Z"/><path class="cls-14" d="M3620,667.72a2.58,2.58,0,1,0,0,3.7A2.62,2.62,0,0,0,3620,667.72Z"/><path class="cls-14" d="M3650,637.77a2.58,2.58,0,1,0,.06,3.7A2.62,2.62,0,0,0,3650,637.77Z"/><path class="cls-14" d="M3558.66,786.05a2.58,2.58,0,1,0,.06,3.7A2.61,2.61,0,0,0,3558.66,786.05Z"/><path class="cls-14" d="M3588.61,756.1a2.58,2.58,0,1,0,.06,3.7A2.62,2.62,0,0,0,3588.61,756.1Z"/><path class="cls-14" d="M3618.55,726.16a2.58,2.58,0,1,0,.06,3.7A2.6,2.6,0,0,0,3618.55,726.16Z"/><path class="cls-14" d="M3648.5,696.21a2.58,2.58,0,1,0,.06,3.7A2.62,2.62,0,0,0,3648.5,696.21Z"/><path class="cls-14" d="M3678.45,666.27a2.58,2.58,0,1,0,.05,3.7A2.61,2.61,0,0,0,3678.45,666.27Z"/><path class="cls-14" d="M3587.16,814.54a2.58,2.58,0,1,0,.05,3.7A2.62,2.62,0,0,0,3587.16,814.54Z"/><path class="cls-14" d="M3617.1,784.59a2.58,2.58,0,1,0,.06,3.7A2.62,2.62,0,0,0,3617.1,784.59Z"/><path class="cls-14" d="M3647.05,754.65a2.58,2.58,0,1,0,0,3.7A2.62,2.62,0,0,0,3647.05,754.65Z"/><path class="cls-14" d="M3677,724.7a2.58,2.58,0,1,0,.06,3.7A2.62,2.62,0,0,0,3677,724.7Z"/><path class="cls-14" d="M3706.94,694.76a2.58,2.58,0,1,0,.06,3.7A2.62,2.62,0,0,0,3706.94,694.76Z"/></g><g class="cls-8"><circle class="cls-15" cx="3592.52" cy="1072.36" r="91.99" transform="translate(293.95 2854.38) rotate(-45)"/><circle class="cls-16" cx="3592.52" cy="1072.36" r="77.46" transform="translate(293.95 2854.38) rotate(-45)"/><circle class="cls-17" cx="3592.52" cy="1072.36" r="62.93"/><circle class="cls-18" cx="3592.52" cy="1072.36" r="48.4"/><circle class="cls-19" cx="3592.52" cy="1072.36" r="33.87"/></g><g class="cls-4"><path class="cls-14" d="M3151.15,351.05a2.82,2.82,0,1,0-4.05.06A2.87,2.87,0,0,0,3151.15,351.05Z"/><path class="cls-14" d="M3183.94,383.84a2.82,2.82,0,1,0-4-4,2.82,2.82,0,1,0,4,4Z"/><path class="cls-14" d="M3216.74,416.64a2.82,2.82,0,1,0-4.06.06A2.87,2.87,0,0,0,3216.74,416.64Z"/><path class="cls-14" d="M3249.53,449.43a2.82,2.82,0,1,0-4.05.07A2.86,2.86,0,0,0,3249.53,449.43Z"/><path class="cls-14" d="M3282.33,482.23a2.82,2.82,0,1,0-4.06.06A2.87,2.87,0,0,0,3282.33,482.23Z"/><path class="cls-14" d="M3119.94,382.25a2.82,2.82,0,1,0-4.05.06A2.86,2.86,0,0,0,3119.94,382.25Z"/><path class="cls-14" d="M3152.74,415.05a2.82,2.82,0,1,0-4,.06A2.87,2.87,0,0,0,3152.74,415.05Z"/><path class="cls-14" d="M3185.53,447.84a2.82,2.82,0,1,0-4.05.06A2.86,2.86,0,0,0,3185.53,447.84Z"/><path class="cls-14" d="M3218.33,480.64a2.82,2.82,0,1,0-4-4,2.82,2.82,0,1,0,4,4Z"/><path class="cls-14" d="M3251.12,513.43a2.82,2.82,0,1,0-4,.06A2.85,2.85,0,0,0,3251.12,513.43Z"/><path class="cls-14" d="M3088.74,413.46a2.82,2.82,0,1,0-4,.06A2.87,2.87,0,0,0,3088.74,413.46Z"/><path class="cls-14" d="M3121.53,446.25a2.82,2.82,0,1,0-4.05.06A2.86,2.86,0,0,0,3121.53,446.25Z"/><path class="cls-14" d="M3154.33,479.05a2.82,2.82,0,1,0-4,.06A2.87,2.87,0,0,0,3154.33,479.05Z"/><path class="cls-14" d="M3187.12,511.84a2.82,2.82,0,1,0-4,.06A2.86,2.86,0,0,0,3187.12,511.84Z"/><path class="cls-14" d="M3219.92,544.63a2.82,2.82,0,1,0-4.05.07A2.87,2.87,0,0,0,3219.92,544.63Z"/><path class="cls-14" d="M3057.54,444.66a2.82,2.82,0,1,0-4.06.06A2.87,2.87,0,0,0,3057.54,444.66Z"/><path class="cls-14" d="M3090.33,477.45a2.82,2.82,0,1,0-4,.07A2.85,2.85,0,0,0,3090.33,477.45Z"/><path class="cls-14" d="M3123.13,510.25a2.82,2.82,0,1,0-4.06.06A2.87,2.87,0,0,0,3123.13,510.25Z"/><path class="cls-14" d="M3155.92,543a2.82,2.82,0,1,0-4.05.07A2.86,2.86,0,0,0,3155.92,543Z"/><path class="cls-14" d="M3188.71,575.84a2.82,2.82,0,1,0-4.05.06A2.86,2.86,0,0,0,3188.71,575.84Z"/><path class="cls-14" d="M3026.33,475.86a2.82,2.82,0,1,0-4,.07A2.86,2.86,0,0,0,3026.33,475.86Z"/><path class="cls-14" d="M3059.13,508.66a2.82,2.82,0,1,0-4.05.06A2.87,2.87,0,0,0,3059.13,508.66Z"/><path class="cls-14" d="M3091.92,541.45a2.82,2.82,0,1,0-4-4,2.82,2.82,0,1,0,4,4Z"/><path class="cls-14" d="M3124.72,574.25a2.82,2.82,0,1,0-4.06.06A2.87,2.87,0,0,0,3124.72,574.25Z"/><path class="cls-14" d="M3157.51,607a2.82,2.82,0,1,0-4.05.06A2.85,2.85,0,0,0,3157.51,607Z"/></g><ellipse class="cls-3" cx="2107.48" cy="-93.24" rx="244.15" ry="238.04" transform="translate(683.2 1462.91) rotate(-45)"/><ellipse class="cls-3" cx="2980.6" cy="0.47" rx="21.49" ry="22.04"/><ellipse class="cls-3" cx="3893.6" cy="1333.47" rx="21.49" ry="22.04"/><ellipse class="cls-3" cx="2000.6" cy="1342.47" rx="21.49" ry="22.04"/><ellipse class="cls-3" cx="417.6" cy="0.47" rx="21.49" ry="22.04"/><g class="cls-20"><path class="cls-14" d="M2479.21,661.67v30.74l53.23-30.74v30.74l53.24-30.74v87.5l-53.24-30.74v30.74l-53.23-30.74v30.74l-75.77-43.75Zm49.07,38V668.89L2475,699.63V668.89l-63.27,36.53L2475,742V711.21L2528.28,742V711.21L2581.51,742V668.89Z"/></g><g class="cls-21"><path class="cls-14" d="M38.14,478.11a6.93,6.93,0,1,1-6.93-6.93A6.93,6.93,0,0,1,38.14,478.11Z"/><circle class="cls-14" cx="108.92" cy="478.11" r="6.93"/><path class="cls-14" d="M38.14,549.38a6.93,6.93,0,1,1-6.93-6.93A6.93,6.93,0,0,1,38.14,549.38Z"/><circle class="cls-14" cx="108.92" cy="549.38" r="6.93"/><path class="cls-14" d="M38.14,620.65a6.93,6.93,0,1,1-6.93-6.93A6.93,6.93,0,0,1,38.14,620.65Z"/><circle class="cls-14" cx="108.92" cy="620.65" r="6.93"/><path class="cls-14" d="M38.14,691.91A6.93,6.93,0,1,1,31.21,685,6.93,6.93,0,0,1,38.14,691.91Z"/><path class="cls-14" d="M115.84,691.91a6.93,6.93,0,1,1-6.92-6.92A6.92,6.92,0,0,1,115.84,691.91Z"/><path class="cls-14" d="M38.14,763.18a6.93,6.93,0,1,1-6.93-6.93A6.93,6.93,0,0,1,38.14,763.18Z"/><circle class="cls-14" cx="108.92" cy="763.18" r="6.93"/><path class="cls-14" d="M38.14,834.45a6.93,6.93,0,1,1-6.93-6.93A6.93,6.93,0,0,1,38.14,834.45Z"/><circle class="cls-14" cx="108.92" cy="834.45" r="6.93"/><path class="cls-14" d="M38.14,905.72a6.93,6.93,0,1,1-6.93-6.93A6.93,6.93,0,0,1,38.14,905.72Z"/><circle class="cls-14" cx="108.92" cy="905.72" r="6.93"/></g><polygon class="cls-22" points="1734 1057.49 1712.42 1057.49 1712.42 1035.92 1701.63 1035.92 1701.63 1057.49 1680.06 1057.49 1680.06 1068.28 1701.63 1068.28 1701.63 1089.86 1712.42 1089.86 1712.42 1068.28 1734 1068.28 1734 1057.49"/><polygon class="cls-22" points="2259 528.7 2246.22 528.7 2246.22 515.92 2239.83 515.92 2239.83 528.7 2227.06 528.7 2227.06 535.08 2239.83 535.08 2239.83 547.86 2246.22 547.86 2246.22 535.08 2259 535.08 2259 528.7"/><polygon class="cls-22" points="1004 111.5 982.42 111.5 982.42 89.92 971.63 89.92 971.63 111.5 950.06 111.5 950.06 122.28 971.63 122.28 971.63 143.86 982.42 143.86 982.42 122.28 1004 122.28 1004 111.5"/><polygon class="cls-22" points="539 1200.49 517.42 1200.49 517.42 1178.92 506.63 1178.92 506.63 1200.49 485.06 1200.49 485.06 1211.28 506.63 1211.28 506.63 1232.86 517.42 1232.86 517.42 1211.28 539 1211.28 539 1200.49"/><polygon class="cls-22" points="3394 89.5 3372.42 89.5 3372.42 67.92 3361.63 67.92 3361.63 89.5 3340.06 89.5 3340.06 100.28 3361.63 100.28 3361.63 121.86 3372.42 121.86 3372.42 100.28 3394 100.28 3394 89.5"/><g class="cls-4"><path class="cls-14" d="M2133.19,33.8a3.69,3.69,0,1,0-3.69,3.81A3.74,3.74,0,0,0,2133.19,33.8Z"/><path class="cls-14" d="M2193.89,33.8a3.69,3.69,0,1,0-3.69,3.81A3.74,3.74,0,0,0,2193.89,33.8Z"/><path class="cls-14" d="M2254.58,33.8a3.69,3.69,0,1,0-3.69,3.81A3.74,3.74,0,0,0,2254.58,33.8Z"/><path class="cls-14" d="M2315.28,33.8a3.7,3.7,0,1,0-3.69,3.81A3.75,3.75,0,0,0,2315.28,33.8Z"/><path class="cls-14" d="M2376,33.8a3.69,3.69,0,1,0-3.69,3.81A3.74,3.74,0,0,0,2376,33.8Z"/><path class="cls-14" d="M2133.19,91.55a3.69,3.69,0,1,0-3.69,3.81A3.75,3.75,0,0,0,2133.19,91.55Z"/><path class="cls-14" d="M2193.89,91.55a3.69,3.69,0,1,0-3.69,3.81A3.75,3.75,0,0,0,2193.89,91.55Z"/><path class="cls-14" d="M2254.58,91.55a3.69,3.69,0,1,0-3.69,3.81A3.75,3.75,0,0,0,2254.58,91.55Z"/><path class="cls-14" d="M2315.28,91.55a3.7,3.7,0,1,0-3.69,3.81A3.76,3.76,0,0,0,2315.28,91.55Z"/><path class="cls-14" d="M2376,91.55a3.69,3.69,0,1,0-3.69,3.81A3.75,3.75,0,0,0,2376,91.55Z"/></g><g class="cls-23"><polygon class="cls-14" points="3939.92 690.31 3939.92 680.54 4064 738.4 4064 748.16 3939.92 690.31"/><polygon class="cls-14" points="3939.92 722.04 3939.92 712.28 4064 770.13 4064 779.9 3939.92 722.04"/><polygon class="cls-14" points="3939.92 753.78 3939.92 744.01 4064 801.87 4064 811.63 3939.92 753.78"/><polygon class="cls-14" points="3939.92 785.51 3939.92 775.75 4064 833.6 4064 843.37 3939.92 785.51"/><polygon class="cls-14" points="3939.92 817.25 3939.92 807.48 4064 865.34 4064 875.1 3939.92 817.25"/><polygon class="cls-14" points="3939.92 848.98 3939.92 839.22 4064 897.07 4064 906.84 3939.92 848.98"/><polygon class="cls-14" points="3939.92 880.72 3939.92 870.95 4064 928.81 4064 938.57 3939.92 880.72"/><polygon class="cls-14" points="3939.92 912.45 3939.92 902.69 4064 960.54 4064 970.31 3939.92 912.45"/></g><g class="cls-23"><polygon class="cls-14" points="3939.92 434.18 3939.92 424.42 4064 482.28 4064 492.04 3939.92 434.18"/><polygon class="cls-14" points="3939.92 465.92 3939.92 456.15 4064 514.01 4064 523.78 3939.92 465.92"/><polygon class="cls-14" points="3939.92 497.65 3939.92 487.89 4064 545.75 4064 555.51 3939.92 497.65"/><polygon class="cls-14" points="3939.92 529.39 3939.92 519.62 4064 577.48 4064 587.25 3939.92 529.39"/><polygon class="cls-14" points="3939.92 561.12 3939.92 551.36 4064 609.22 4064 618.98 3939.92 561.12"/><polygon class="cls-14" points="3939.92 592.86 3939.92 583.09 4064 640.95 4064 650.72 3939.92 592.86"/><polygon class="cls-14" points="3939.92 624.59 3939.92 614.83 4064 672.69 4064 682.45 3939.92 624.59"/><polygon class="cls-14" points="3939.92 656.33 3939.92 646.56 4064 704.42 4064 714.19 3939.92 656.33"/></g><rect class="cls-1" width="4002" height="1342"/></g></svg>