<?xml version="1.0" encoding="UTF-8"?> <!-- Generator: Adobe Illustrator 24.2.1, SVG Export Plug-In . SVG Version: 6.00 Build 0) --> <svg xmlns="http://www.w3.org/2000/svg" xmlns:xlink="http://www.w3.org/1999/xlink" version="1.1" id="Layer_1" x="0px" y="0px" viewBox="0 0 325.8 72.4" style="enable-background:new 0 0 325.8 72.4;" xml:space="preserve"> <style type="text/css"> .st0{fill:#E22A88;} .st1{fill:#FFFFFF;} .st2{fill:#29BAD7;} .st3{enable-background:new ;} </style> <g id="XMLID_626_"> <g id="XMLID_676_"> <g id="XMLID_725_"> <polygon id="XMLID_729_" class="st0" points="275.1,72.4 288.6,53.6 288.6,53.6 "></polygon> <path id="XMLID_728_" class="st0" d="M324.4,0h-21.3c-0.7,0-1.3,0.3-1.7,0.9l-11.3,16.4l12.2,17.1L325.5,2 C326.1,1.2,325.5,0,324.4,0z"></path> <path id="XMLID_727_" class="st0" d="M290.1,55.1l11.3,16.4c0.4,0.6,1,0.9,1.7,0.9h21.4c1,0,1.6-1.2,1-2L302.4,38L290.1,55.1z"></path> <path id="XMLID_726_" class="st0" d="M288.6,18.8l-12.9-18c-0.4-0.5-1-0.9-1.7-0.9h-21.3c-1,0-1.6,1.2-1,2l24.5,34.2l-24.5,34.2 c-0.6,0.8,0,2,1,2H274c0.7,0,1.3-0.3,1.7-0.9l12.9-18L301,36.2L288.6,18.8z"></path> </g> <g id="XMLID_677_"> <path id="XMLID_698_" class="st1" d="M0,9.8h8.7l7.4,23.9c1-3.4,2.6-9.5,5.1-18.6h6.6l5,18.6l7.4-23.9H49l-12.9,38h-6.3 l-5.4-19.9l-5.2,19.9h-6.4L0,9.8z"></path> <path id="XMLID_695_" class="st1" d="M45.8,34.8c0-2.6,0.6-4.9,1.8-7c1.2-2,2.8-3.6,4.8-4.7s4.2-1.6,6.7-1.6 c2.4,0,4.6,0.5,6.7,1.6c2,1.1,3.6,2.7,4.9,4.7s1.8,4.4,1.8,7s-0.6,4.9-1.8,7c-1.2,2.1-2.8,3.7-4.9,4.8c-2,1.1-4.2,1.6-6.7,1.6 s-4.6-0.5-6.7-1.6c-2-1.1-3.6-2.7-4.8-4.7C46.4,39.8,45.8,37.5,45.8,34.8z M53.4,34.8c0,1.7,0.6,3.1,1.7,4.2 c1.1,1.1,2.5,1.6,4.1,1.6s3-0.5,4.1-1.6c1.1-1.1,1.7-2.5,1.7-4.2s-0.6-3-1.7-4.1c-1.1-1.1-2.5-1.6-4.1-1.6s-3,0.5-4.1,1.6 C53.9,31.8,53.4,33.2,53.4,34.8z"></path> <path id="XMLID_693_" class="st1" d="M75.5,47.8V22.1h7.6v6.2c0.6-2.2,1.6-3.9,3-5s2.8-1.7,4.3-1.7c1.7,0,3.2,0.3,4.4,0.9 l-1.4,6.8c-1.1-0.5-2.4-0.8-3.9-0.8c-2.2,0-3.8,0.9-4.8,2.6c-1,1.7-1.5,4.3-1.5,7.7v9C83.1,47.8,75.5,47.8,75.5,47.8z"></path> <path id="XMLID_691_" class="st1" d="M96.3,47.8V8.1h7.6v21.1l6.1-7h9.8l-10.7,11.3l12.8,14.4h-9.4l-8.6-10.2v10.2L96.3,47.8 L96.3,47.8z"></path> <path id="XMLID_688_" class="st1" d="M122.8,60.4V22.1h7.6v3.2c0.6-1.2,1.6-2.1,3-2.7s2.9-1,4.5-1s3.2,0.3,4.7,1 c1.5,0.6,2.8,1.5,4,2.7s2,2.5,2.7,4.2c0.7,1.7,1,3.5,1,5.5s-0.3,3.9-1,5.6c-0.7,1.7-1.6,3.1-2.7,4.3s-2.5,2-4,2.7 c-1.5,0.6-3.1,1-4.7,1s-3.2-0.3-4.5-1s-2.4-1.6-3-2.7v15.8L122.8,60.4L122.8,60.4z M130.6,35c0,1.8,0.6,3.3,1.7,4.4 c1.2,1.1,2.6,1.7,4.2,1.7c1.7,0,3.1-0.6,4.2-1.7c1.1-1.1,1.7-2.6,1.7-4.4c0-1.8-0.6-3.3-1.7-4.5c-1.1-1.2-2.6-1.7-4.2-1.7 c-1.6,0-3,0.6-4.2,1.8C131.2,31.7,130.6,33.2,130.6,35z"></path> <path id="XMLID_686_" class="st1" d="M153.4,47.8V8.1h7.6v39.7C161.1,47.8,153.4,47.8,153.4,47.8z"></path> <path id="XMLID_683_" class="st1" d="M164.1,34.9c0-2,0.4-3.8,1.1-5.6s1.7-3.1,3-4.2c1.2-1.1,2.6-2,4.2-2.6s3.2-1,4.8-1 c0.7,0,1.4,0.1,2.2,0.2c0.8,0.2,1.7,0.5,2.8,1c1,0.5,1.9,1.3,2.5,2.1v-2.9h7.6v25.7h-7.6v-2.9c-0.7,1.1-1.9,2-3.4,2.5 c-1.5,0.6-2.9,0.9-4.1,0.9c-2.2,0-4.3-0.5-6.3-1.6s-3.6-2.6-4.9-4.7C164.8,39.9,164.1,37.6,164.1,34.9z M174,30.5 c-1.3,1.2-1.9,2.6-1.9,4.4s0.6,3.2,1.9,4.4c1.3,1.1,2.8,1.7,4.5,1.7s3.1-0.6,4.4-1.7s1.9-2.6,1.9-4.4c0-1.8-0.6-3.3-1.9-4.5 s-2.7-1.7-4.4-1.7C176.8,28.8,175.3,29.3,174,30.5z"></path> <path id="XMLID_681_" class="st1" d="M195.3,34.8c0-2,0.4-3.8,1.1-5.5c0.8-1.7,1.8-3.1,3.1-4.2s2.8-2,4.5-2.7 c1.7-0.6,3.4-1,5.3-1c2.3,0,4.4,0.5,6.4,1.4s3.6,2.3,4.8,4l-6.2,4.5c-0.5-0.8-1.2-1.5-2.1-1.9c-0.9-0.5-1.8-0.7-2.8-0.7 c-1.7,0-3.2,0.6-4.5,1.7S203,33,203,34.8s0.6,3.3,1.9,4.4c1.3,1.2,2.8,1.8,4.5,1.8c1,0,1.9-0.2,2.8-0.7c0.9-0.5,1.6-1.1,2.1-1.9 l6.2,4.4c-1.2,1.7-2.8,3.1-4.8,4c-2,1-4.1,1.4-6.4,1.4c-2.5,0-4.8-0.6-6.9-1.7s-3.8-2.7-5.1-4.8C196,39.8,195.3,37.5,195.3,34.8z "></path> <path id="XMLID_678_" class="st1" d="M223.2,41.9c-1.2-2.1-1.8-4.4-1.8-7s0.6-5,1.8-7c1.2-2.1,2.8-3.6,4.9-4.7 c2-1.1,4.3-1.6,6.7-1.6c1.8,0,3.5,0.3,5.1,1s3,1.6,4.2,2.7c1.2,1.2,2.1,2.6,2.8,4.3s1,3.5,1,5.5c0,0.7,0,1.5-0.1,2.4H229 c0.2,1.4,0.9,2.5,2.2,3.2c1.3,0.8,2.7,1.1,4.2,1.1c1.1,0,2.2-0.2,3.2-0.6c1-0.4,1.8-1,2.4-1.8l5.6,3.8c-1.2,1.8-2.9,3.1-5,3.9 c-2.1,0.8-4.4,1.3-6.8,1.3c-2.5,0-4.7-0.5-6.7-1.7C226.1,45.6,224.5,44,223.2,41.9z M229.2,32.6h11.1c-0.2-1.4-0.8-2.5-1.9-3.2 s-2.3-1.1-3.5-1.1s-2.4,0.4-3.6,1S229.5,31.2,229.2,32.6z"></path> </g> </g> <g id="XMLID_627_"> <g id="XMLID_655_"> <path id="XMLID_674_" class="st2" d="M199.3,60.1v-9.9h2.4v9.9H199.3z"></path> <path id="XMLID_672_" class="st2" d="M202.6,60.1v-6.7h2.3v1c0.1-0.3,0.2-0.5,0.5-0.7c0.2-0.2,0.5-0.3,0.7-0.4 c0.2-0.1,0.5-0.1,0.7-0.1c0.9,0,1.5,0.3,2,0.9s0.7,1.4,0.7,2.4v3.6h-2.3v-3.5c0-0.4-0.1-0.7-0.3-0.9s-0.5-0.3-0.8-0.3 s-0.6,0.1-0.8,0.3s-0.4,0.5-0.4,0.9v3.5H202.6L202.6,60.1z"></path> <path id="XMLID_670_" class="st2" d="M209.6,57.9h2.1c0,0.2,0.1,0.3,0.2,0.5c0.1,0.1,0.3,0.2,0.6,0.2c0.2,0,0.4,0,0.5-0.1 s0.2-0.2,0.2-0.3s0-0.2-0.1-0.2s-0.2-0.1-0.5-0.2l-0.8-0.2c-0.3-0.1-0.5-0.2-0.8-0.3c-0.2-0.1-0.4-0.2-0.6-0.3 c-0.1-0.1-0.3-0.2-0.4-0.4c-0.1-0.1-0.2-0.3-0.2-0.4c0-0.1-0.1-0.2-0.1-0.4c0-0.1,0-0.2,0-0.3s0-0.1,0-0.3c0-0.5,0.3-1,0.8-1.4 s1.2-0.6,1.9-0.6c0.4,0,0.7,0,1.1,0.1c0.3,0.1,0.6,0.2,0.9,0.4c0.3,0.2,0.5,0.4,0.7,0.7s0.3,0.7,0.2,1.1h-2.1 c0-0.4-0.2-0.6-0.7-0.6c-0.2,0-0.3,0-0.4,0.1s-0.2,0.2-0.2,0.3s0,0.2,0.1,0.3s0.2,0.1,0.4,0.2l1.2,0.3c0.3,0.1,0.6,0.2,0.9,0.4 c0.2,0.1,0.4,0.3,0.5,0.4s0.2,0.3,0.3,0.5s0.1,0.3,0.1,0.4c0,0.1,0,0.2,0,0.3c0,0.3-0.1,0.5-0.2,0.8c-0.1,0.2-0.3,0.4-0.5,0.6 s-0.4,0.3-0.7,0.4c-0.3,0.1-0.5,0.2-0.8,0.2s-0.6,0.1-0.9,0.1c-0.5,0-0.9-0.1-1.4-0.3c-0.4-0.2-0.8-0.4-1.1-0.8 C209.8,58.8,209.6,58.4,209.6,57.9z"></path> <path id="XMLID_667_" class="st2" d="M215.8,63.4v-10h2.1v1c0.2-0.4,0.5-0.7,0.8-0.9c0.4-0.2,0.8-0.3,1.2-0.3s0.8,0.1,1.2,0.2 c0.4,0.2,0.7,0.4,1,0.7s0.5,0.7,0.7,1.1c0.2,0.4,0.3,0.9,0.3,1.5c0,0.5-0.1,1-0.3,1.4s-0.4,0.8-0.7,1.1s-0.6,0.5-1,0.7 s-0.8,0.2-1.2,0.2c-0.8,0-1.4-0.2-1.8-0.7v3.9C218.1,63.4,215.8,63.4,215.8,63.4z M218.1,56.8c0,0.4,0.1,0.7,0.4,1 c0.3,0.3,0.6,0.4,1,0.4s0.7-0.1,1-0.4c0.3-0.3,0.4-0.6,0.4-1s-0.1-0.7-0.4-1s-0.6-0.4-1-0.4s-0.7,0.1-1,0.4 C218.2,56.1,218.1,56.4,218.1,56.8z"></path> <path id="XMLID_664_" class="st2" d="M223.2,51.3c0-0.3,0.1-0.6,0.4-0.8c0.3-0.2,0.6-0.3,1-0.3s0.7,0.1,1,0.3s0.4,0.5,0.4,0.9 c0,0.3-0.1,0.6-0.4,0.9c-0.3,0.2-0.6,0.4-1,0.4s-0.7-0.1-1-0.4C223.3,51.9,223.2,51.6,223.2,51.3z M223.4,60.1v-6.7h2.3v6.7 H223.4z"></path> <path id="XMLID_662_" class="st2" d="M226.4,60.1v-6.7h2.2V55c0.2-0.6,0.4-1.1,0.8-1.4c0.4-0.3,0.8-0.5,1.3-0.5 c0.4,0,0.7,0.1,1,0.2l-0.6,2.1c-0.3-0.1-0.7-0.2-1-0.2s-0.6,0.1-0.7,0.2c-0.2,0.1-0.3,0.4-0.5,0.8c-0.1,0.4-0.2,0.9-0.2,1.5v2.2 L226.4,60.1L226.4,60.1z"></path> <path id="XMLID_659_" class="st2" d="M231.4,58.5c-0.3-0.5-0.5-1.2-0.5-1.8s0.2-1.3,0.5-1.8s0.8-0.9,1.3-1.2s1.1-0.4,1.8-0.4 s1.2,0.1,1.7,0.4c0.5,0.3,0.9,0.7,1.3,1.2s0.5,1.1,0.5,1.8c0,0.1,0,0.3,0,0.7h-4.8c0,0.3,0.2,0.5,0.5,0.7s0.6,0.3,1,0.3 c0.5,0,1-0.2,1.3-0.5c0.1,0.1,0.4,0.3,0.8,0.6c0.4,0.3,0.7,0.5,0.8,0.6c-0.3,0.5-0.8,0.8-1.3,1s-1.1,0.3-1.7,0.3 c-0.6,0-1.2-0.1-1.8-0.4C232.2,59.5,231.7,59.1,231.4,58.5z M233.1,56.1h2.7c-0.1-0.2-0.1-0.4-0.2-0.5s-0.2-0.2-0.4-0.3 s-0.3-0.1-0.4-0.1c-0.1,0-0.2,0-0.3,0s-0.2,0-0.3,0s-0.2,0.1-0.4,0.1s-0.3,0.2-0.4,0.3C233.2,55.7,233.1,55.9,233.1,56.1z"></path> <path id="XMLID_656_" class="st2" d="M237.7,56.7c0-0.5,0.1-1,0.3-1.5c0.2-0.4,0.4-0.8,0.7-1.1s0.6-0.5,1-0.7s0.8-0.2,1.2-0.2 c0.8,0,1.4,0.3,1.9,0.8v-4.1h2.3v10.2h-2.2v-1c-0.2,0.4-0.5,0.6-0.8,0.8c-0.4,0.2-0.8,0.3-1.2,0.3c-0.6,0-1.1-0.1-1.6-0.4 c-0.5-0.3-0.9-0.7-1.2-1.2C237.9,58.1,237.7,57.4,237.7,56.7z M240.4,55.8c-0.3,0.3-0.4,0.6-0.4,1s0.1,0.7,0.4,1 c0.3,0.3,0.6,0.4,1,0.4s0.7-0.1,1-0.4c0.3-0.3,0.4-0.6,0.4-1s-0.1-0.7-0.4-1c-0.3-0.3-0.6-0.4-1-0.4S240.7,55.5,240.4,55.8z"></path> </g> </g> </g> <g class="st3"> <path class="st1" d="M138.2,57.9c0,0.3,0.2,0.7,0.5,0.9s0.7,0.4,1.2,0.4c0.9,0,1.4-0.5,1.5-1.1c0.1-0.7-0.5-1.2-1.3-1.4l-1-0.2 c-1.2-0.3-1.9-1-1.9-2c0-0.6,0.2-1.1,0.7-1.5c0.5-0.4,1.1-0.6,1.7-0.6c0.7,0,1.3,0.2,1.8,0.6c0.5,0.4,0.7,0.9,0.7,1.6h-1 c0-0.7-0.6-1.2-1.4-1.2c-0.4,0-0.7,0.1-1,0.3c-0.3,0.2-0.4,0.5-0.4,0.8c0,0.5,0.4,0.9,1.1,1.1l1,0.2c1.4,0.4,2.2,1.2,2,2.4 c-0.1,0.6-0.3,1-0.8,1.4c-0.5,0.4-1,0.6-1.8,0.6c-0.8,0-1.4-0.2-1.9-0.7c-0.5-0.5-0.8-1-0.8-1.6H138.2z"></path> <path class="st1" d="M147.2,55h1v5.1h-1v-0.8c-0.3,0.6-1,0.9-1.6,0.9c-1.3,0-2-0.8-2-2.3v-3h1v2.9c0,0.8,0.4,1.4,1.1,1.4 c0.8,0,1.5-0.5,1.5-1.5V55z"></path> <path class="st1" d="M154.4,57.3v2.8h-1v-2.9c0-0.8-0.4-1.4-1.1-1.4c-0.8,0-1.4,0.5-1.4,1.5v2.8h-1V55h1v0.8 c0.3-0.5,0.9-0.8,1.4-0.9c0.2,0,0.4,0,0.6,0c0.6,0.1,1.1,0.4,1.3,1c0.4-0.7,1-1.1,1.8-1.1c1.3,0,2,0.8,2,2.3v3h-1v-2.9 c0-0.8-0.4-1.4-1.2-1.4C155,55.8,154.4,56.4,154.4,57.3z"></path> <path class="st1" d="M164.1,57.3v2.8h-1v-2.9c0-0.8-0.4-1.4-1.1-1.4c-0.8,0-1.4,0.5-1.4,1.5v2.8h-1V55h1v0.8 c0.3-0.5,0.9-0.8,1.4-0.9c0.2,0,0.4,0,0.6,0c0.6,0.1,1.1,0.4,1.3,1c0.4-0.7,1-1.1,1.8-1.1c1.3,0,2,0.8,2,2.3v3h-1v-2.9 c0-0.8-0.4-1.4-1.2-1.4C164.7,55.8,164.1,56.4,164.1,57.3z"></path> <path class="st1" d="M169.3,52.6c0.3-0.3,0.7-0.3,1,0c0.3,0.3,0.3,0.7,0,0.9c-0.3,0.3-0.7,0.3-1,0C169,53.3,169,52.8,169.3,52.6z M169.3,60.1V55h1v5.1H169.3z"></path> <path class="st1" d="M173.3,55h1.1v0.8h-1.1v4.3h-1v-4.3h-0.9V55h0.9V53h1V55z"></path> <path class="st1" d="M176.7,57.8c-1-0.3-1.5-0.8-1.4-1.7c0-0.4,0.2-0.7,0.6-0.9c0.3-0.3,0.8-0.4,1.2-0.4c1,0,1.7,0.5,1.8,1.5h-1 c-0.1-0.4-0.4-0.6-0.8-0.6c-0.4,0-0.7,0.2-0.8,0.5c0,0.2,0,0.3,0,0.4c0.1,0.2,0.3,0.3,0.6,0.4l0.8,0.2c0.9,0.2,1.3,0.7,1.3,1.5 c0,0.5-0.2,0.8-0.6,1.1c-0.4,0.3-0.8,0.4-1.4,0.4c-0.5,0-0.9-0.2-1.3-0.5c-0.4-0.3-0.6-0.7-0.6-1.2h0.9c0,0.3,0.2,0.5,0.4,0.6 c0.2,0.1,0.5,0.2,0.8,0.2c0.5,0,0.8-0.3,0.8-0.7c0-0.4-0.3-0.6-0.7-0.7L176.7,57.8z"></path> <path class="st1" d="M184.3,60.1h-1v-7.9h1v3.6c0.3-0.6,1-0.9,1.8-0.9c0.7,0,1.4,0.2,1.9,0.7c0.5,0.5,0.7,1.1,0.7,1.9 c0,0.8-0.3,1.4-0.8,1.9c-0.5,0.5-1.1,0.7-1.9,0.7c-0.7,0-1.5-0.3-1.8-0.9V60.1z M184.8,58.8c0.3,0.3,0.7,0.5,1.2,0.5 c0.5,0,0.9-0.2,1.2-0.5c0.3-0.3,0.5-0.7,0.5-1.2s-0.2-0.9-0.5-1.2c-0.3-0.3-0.7-0.5-1.2-0.5c-0.5,0-0.8,0.2-1.2,0.5 c-0.3,0.3-0.5,0.7-0.5,1.2C184.3,58,184.4,58.5,184.8,58.8z"></path> <path class="st1" d="M191.3,62.6h-1l1.1-2.7l-2.1-5h1.1l1.5,3.7l1.5-3.7h1.1L191.3,62.6z"></path> </g> </svg> 