<?xml version="1.0" encoding="UTF-8"?>
<svg width="20px" height="14px" viewBox="0 0 20 14" version="1.1" xmlns="http://www.w3.org/2000/svg" xmlns:xlink="http://www.w3.org/1999/xlink">
    <!-- Generator: Sketch 61.1 (89650) - https://sketch.com -->
    <title>arrow-pointing-to-right</title>
    <desc>Created with Sketch.</desc>
    <g id="Page-1" stroke="none" stroke-width="1" fill="none" fill-rule="evenodd">
        <g id="REBuild_Homepage1.1" transform="translate(-905.000000, -9220.000000)" fill="#000000" fill-rule="nonzero">
            <g id="Group-11" transform="translate(785.000000, 9215.000000)">
                <g id="arrow-pointing-to-right" transform="translate(120.000000, 5.000000)">
                    <path d="M19.715316,6.28825279 L13.7673606,0.340297398 C13.404461,-0.0226022305 12.8159108,-0.0226022305 12.4530112,0.340297398 C12.0900372,0.703271375 12.0900372,1.29167286 12.4530112,1.65464684 L16.8144238,6.01605948 L0.92936803,6.01605948 C0.416133829,6.01605948 0,6.43219331 0,6.94542751 C0,7.45858736 0.416133829,7.87479554 0.92936803,7.87479554 L16.8144238,7.87479554 L12.4531599,12.2362082 C12.0901859,12.5991822 12.0901859,13.1875836 12.4531599,13.5505576 C12.6345725,13.7318959 12.8724907,13.8227509 13.1103346,13.8227509 C13.3481784,13.8227509 13.5860223,13.7318959 13.7675093,13.5505576 L19.715316,7.60260223 C20.07829,7.23962825 20.07829,6.65122677 19.715316,6.28825279 Z" id="Path"></path>
                </g>
            </g>
        </g>
    </g>
</svg>