<svg width="244" height="170" viewBox="0 0 244 170" fill="none" xmlns="http://www.w3.org/2000/svg">
<g style="mix-blend-mode:multiply">
<path d="M150.614 114.866L150.587 114.932H150.618L150.614 114.866Z" fill="white"/>
<path d="M-0.00012207 170C0.53775 166.936 1.07562 163.871 1.61349 160.806C3.86278 148.118 6.52383 135.518 9.59665 123.005C14.8737 101.397 21.1159 80.0993 29.6125 59.5191C34.1406 48.5404 39.2903 37.8759 45.8258 27.9291C50.7169 20.4652 56.2487 13.5521 63.344 8.06274C68.3624 4.18335 73.8711 1.4251 80.1789 0.354385C86.5484 -0.727966 92.3543 0.719048 97.782 4.04757C103.094 7.31014 107.398 11.6861 111.262 16.5237C118.543 25.6364 124.075 35.8082 128.885 46.3951C137.97 66.459 144.931 87.4273 149.653 108.954C150.004 110.537 150.232 112.147 150.506 113.745C150.537 114.003 150.551 114.262 150.549 114.521C150.113 114.327 150.105 113.924 149.981 113.633C142.963 96.8466 135.123 80.4678 125.955 64.7524C120.99 56.2448 115.636 48.0011 109.293 40.4441C105.34 35.7384 101.086 31.3469 95.848 28.0494C91.5283 25.3338 86.9345 23.7821 81.7462 24.9459C78.0101 25.8103 74.4571 27.3368 71.2538 29.4537C65.4054 33.1974 60.5028 38.0078 56.0017 43.2527C46.7871 53.9909 39.491 66.0015 32.9632 78.5126C23.8065 96.0707 16.4912 114.405 10.361 133.212C6.39258 145.32 3.01093 157.598 -0.00012207 170ZM119.508 31.9327C118.311 29.3802 116.935 26.917 115.389 24.5618C111.289 18.2345 106.545 12.4853 100.322 8.14809C96.0757 5.18423 91.4433 3.19022 86.2242 2.88375C81.005 2.57728 76.0174 3.84196 71.3078 6.13468C64.2743 9.55243 58.6769 14.7431 53.7125 20.6863C47.4935 28.1076 42.5523 36.3668 38.1747 44.9791C32.2413 56.6522 27.47 68.8141 23.2854 81.2126C19.2436 93.1961 15.8272 105.354 12.8277 117.644C12.5382 118.835 12.2796 120.03 12.0016 121.221C11.7237 122.412 11.4728 123.517 11.2103 124.662C11.3526 124.556 11.4514 124.401 11.4882 124.227C15.1942 109.12 19.7791 94.244 25.2194 79.6764C30.5235 65.5864 36.6305 51.8728 44.4515 38.9854C49.4507 30.7495 55.0095 22.9363 62.2091 16.4461C65.996 13.0323 70.088 10.0257 75.0253 8.57483C82.4989 6.37909 89.8027 7.411 96.8439 10.4486C104.341 13.6917 110.17 19.0453 115.084 25.489C116.671 27.5683 118.076 29.768 119.508 31.9327Z" fill="#9C595E"/>
<path d="M123.403 96.3038C124.515 95.7839 124.511 95.7839 124.515 94.4378C124.538 88.7622 124.449 83.0867 124.607 77.4111C124.607 77.332 124.586 77.2543 124.546 77.1861C124.506 77.118 124.448 77.0617 124.38 77.0232C124.171 78.4081 123.955 79.7969 123.75 81.1858C123.052 85.9729 122.338 90.7562 121.685 95.5395C121.577 96.3387 121.241 96.4512 120.55 96.4628C119.778 96.4628 119.844 95.9818 119.778 95.4891C119.006 89.3092 118.114 83.1449 117.562 76.9495C117.176 76.9107 117.242 77.1706 117.246 77.3374C117.292 82.7104 117.126 88.0872 117.327 93.4641C117.365 94.4611 117.531 95.4038 118.581 95.8615C118.619 95.8742 118.655 95.8943 118.685 95.9208C118.715 95.9472 118.739 95.9795 118.757 96.0156C118.775 96.0517 118.785 96.091 118.787 96.1312C118.79 96.1713 118.784 96.2115 118.771 96.2495C118.705 96.459 118.508 96.4163 118.358 96.4202C117.431 96.4202 116.508 96.4202 115.582 96.4202C115.428 96.4202 115.227 96.459 115.169 96.2456C115.111 96.0322 115.308 95.9003 115.482 95.8111C116.331 95.3844 116.613 94.624 116.617 93.755C116.617 87.7109 116.617 81.6707 116.655 75.6305C116.655 74.9438 116.269 74.9981 115.825 74.9943C115.621 74.9943 115.408 74.9555 115.439 74.6761C115.47 74.3968 115.679 74.4899 115.825 74.4899C117.18 74.4899 118.527 74.5093 119.886 74.4899C120.434 74.4899 120.454 74.8352 120.504 75.1843C120.99 78.7301 121.473 82.2759 121.952 85.8216C121.932 86.2225 122.046 86.6183 122.276 86.9467C122.585 84.8906 122.87 83.0246 123.144 81.1586C123.435 79.1931 123.714 77.2249 123.982 75.2542C124.055 74.7188 124.225 74.4511 124.851 74.4783C126.101 74.5365 127.36 74.4783 128.614 74.5016C128.792 74.5016 129.055 74.4279 129.082 74.7111C129.109 74.9942 128.869 75.0214 128.672 75.0059C128.024 74.9477 128.02 75.3589 128.02 75.8322C128.02 82.272 128.055 88.7118 127.993 95.1477C127.993 96.1137 128.665 95.8848 129.082 96.3115L123.403 96.3038Z" fill="#9C595E"/>
<path d="M70.5746 96.3381C71.9489 96.21 71.6246 95.2053 71.6246 94.4178C71.6246 88.2754 71.6246 82.1356 71.6246 75.9984C71.6246 75.4553 71.7134 74.8889 70.8525 75.0014C70.8115 75.0098 70.7692 75.0079 70.7291 74.9959C70.689 74.9839 70.6525 74.9622 70.6227 74.9327C70.593 74.9032 70.5709 74.8667 70.5585 74.8266C70.546 74.7865 70.5436 74.7439 70.5514 74.7027C70.5784 74.4699 70.783 74.5087 70.9374 74.5087C73.9755 74.5087 77.0136 74.5087 80.0517 74.5087C80.4377 74.5087 80.5535 74.6716 80.5574 75.0441C80.6037 77.4299 80.6693 79.8157 80.7157 82.2054C80.7157 82.4071 80.8315 82.733 80.4802 82.7485C80.1289 82.764 80.1714 82.4731 80.1327 82.2403C79.9128 80.5326 79.5539 78.8459 79.0596 77.1971C78.5384 75.6182 77.554 74.9665 75.9289 75.0285C75.4656 75.0285 75.2842 75.1953 75.2842 75.6686C75.2842 78.5549 75.2842 81.4412 75.2842 84.3313C75.2842 84.9831 75.5698 84.9676 76.0215 84.7193C76.9789 84.1684 77.2684 83.2141 77.4846 82.2326C77.612 81.6545 77.6351 81.0494 77.7355 80.4636C77.7702 80.2386 77.5965 79.8196 78.0096 79.8584C78.3493 79.8855 78.2528 80.2735 78.2566 80.5256C78.2566 81.189 78.2566 81.8524 78.2566 82.5158V89.6539C78.2566 89.8517 78.2566 90.0418 78.2566 90.2513C78.2566 90.4608 78.2837 90.7789 77.9439 90.7556C77.6737 90.7323 77.7664 90.4491 77.7432 90.2746C77.6818 89.3157 77.5068 88.3676 77.2221 87.4504C77.007 86.7793 76.5517 86.2125 75.9443 85.8598C75.5312 85.6348 75.2842 85.6348 75.2842 86.2283C75.2996 89.2827 75.2996 92.3371 75.2842 95.3915C75.2842 95.8958 75.5274 95.9773 75.9597 95.9928C77.2722 96.0355 78.1949 95.4536 78.7932 94.0841C79.5653 92.3035 79.7699 90.3793 80.1096 88.49C80.1405 88.3271 80.1366 88.1603 80.1598 87.9974C80.1829 87.8344 80.264 87.6637 80.4532 87.6521C80.762 87.6521 80.7157 87.8926 80.7157 88.0749C80.7157 89.2388 80.7157 90.4026 80.6886 91.5664C80.6578 92.9591 80.5844 94.3479 80.5612 95.7406C80.5612 96.21 80.4918 96.4661 79.9243 96.4622C76.921 96.435 73.9138 96.4622 70.9104 96.4428C70.7945 96.4224 70.6816 96.3872 70.5746 96.3381Z" fill="#9C595E"/>
<path d="M101.468 75.9175C101.855 75.4481 102.183 75.0369 102.526 74.6373C102.65 74.4976 102.762 74.2687 102.997 74.3618C103.233 74.455 103.136 74.7032 103.136 74.8817C103.136 77.1046 103.136 79.3275 103.136 81.5504C103.154 81.8825 103.154 82.2153 103.136 82.5474C103.105 82.7995 103.321 83.2418 102.87 83.2495C102.418 83.2573 102.588 82.8073 102.53 82.5396C102.264 81.2788 102.028 80.0064 101.731 78.7494C101.536 77.7733 101.188 76.8344 100.7 75.9679C100.391 75.4597 100.052 74.8739 99.3299 75.0407C98.608 75.2076 98.5809 75.8981 98.5771 76.4955C98.5578 79.7465 98.5771 82.9974 98.5578 86.2522C98.5578 88.8385 98.5578 91.4247 98.5578 94.011C98.4948 94.5768 98.6182 95.1478 98.9091 95.6365C99.4264 96.3425 100.604 96.1757 101.287 95.2485C102.156 94.0847 102.418 92.723 102.546 91.3265C102.661 90.0579 102.712 88.7816 102.789 87.4975C102.928 87.5285 103.036 87.5363 103.04 87.5557C103.294 90.0812 103.352 92.5989 102.159 94.9265C101.086 97.0331 98.5925 97.3395 96.9519 95.6326C96.427 95.0362 96.0325 94.3357 95.7938 93.5765C95.2927 92.065 95.0068 90.4899 94.9445 88.898C94.7129 85.4453 94.709 82.0004 95.4232 78.5982C95.5798 77.8868 95.7995 77.1909 96.0795 76.5188C97.0523 74.1291 99.7622 73.2291 101.468 75.9175Z" fill="#9C595E"/>
<path d="M150.614 114.866L150.618 114.944L150.587 114.932L150.614 114.866Z" fill="#9C595E"/>
<path d="M119.508 31.9319C118.076 29.7672 116.671 27.5676 115.088 25.4882C110.174 19.0445 104.344 13.691 96.8477 10.4478C89.8065 7.40248 82.5028 6.37832 75.0292 8.57406C70.0918 10.025 65.9999 13.0315 62.2129 16.4454C55.0095 22.9356 49.4506 30.7487 44.4554 38.9846C36.6344 51.872 30.5273 65.5857 25.2232 79.6756C19.7816 94.2432 15.1954 109.119 11.4882 124.227C11.4514 124.401 11.3525 124.555 11.2102 124.661C11.4727 123.517 11.7391 122.368 12.0016 121.22C12.2641 120.072 12.5382 118.834 12.8277 117.643C15.8156 105.353 19.2436 93.2031 23.2853 81.2119C27.4699 68.7978 32.2413 56.6514 38.1746 44.9783C42.5522 36.3661 47.4935 28.1068 53.7124 20.6855C58.6845 14.7501 64.2743 9.55166 71.3078 6.12228C76.0174 3.82956 80.9586 2.56487 86.2241 2.87135C91.4896 3.17782 96.0757 5.17183 100.322 8.13569C106.553 12.4845 111.289 18.2221 115.377 24.5649C116.927 26.9185 118.307 29.3804 119.508 31.9319Z" fill="#D8C0C1"/>
<path d="M37.8735 96.1409C39.1242 96.1797 39.0007 95.4465 38.8463 94.6939C38.8463 94.5969 38.8038 94.4999 38.7884 94.3991C38.6571 93.6232 38.9196 92.4865 38.3136 92.1878C37.5647 91.8193 36.5108 92.0792 35.5882 92.0637C35.531 92.055 35.4726 92.0583 35.4168 92.0735C35.361 92.0886 35.3089 92.1153 35.2639 92.1518C35.2189 92.1883 35.1819 92.2338 35.1553 92.2854C35.1287 92.337 35.1131 92.3936 35.1095 92.4516C34.9071 93.3245 34.8484 94.2248 34.9358 95.1168C35.0169 95.8616 35.7851 95.8151 36.4182 96.4319C35.0516 96.4319 33.9591 96.4319 32.8705 96.4319C32.6235 96.4319 32.5308 96.172 32.774 96.044C33.963 95.3612 34.1444 94.1314 34.349 92.9792C35.3759 87.1601 36.3487 81.341 37.3446 75.5491C37.4103 75.1806 37.3137 74.6336 37.7886 74.5676C38.4428 74.4979 39.1032 74.5135 39.7535 74.6142C40.0005 74.6452 39.904 75.0021 39.9349 75.231C40.6607 80.6156 41.3825 86.0015 42.1006 91.3887C42.2704 92.6689 42.5175 93.9413 42.6063 95.2293C42.6796 96.2651 43.3397 96.1099 43.9072 95.9547C44.2788 95.8529 44.6086 95.6349 44.8487 95.3322C45.0889 95.0295 45.2269 94.6579 45.2429 94.2711C45.3072 93.7108 45.3407 93.1475 45.3432 92.5835C45.3432 87.0748 45.3432 81.566 45.3432 76.0573C45.3432 75.4211 45.3432 74.9168 44.4824 75.037C44.2855 75.0681 44.0693 75.0021 44.0963 74.7228C44.1234 74.4435 44.3357 74.5366 44.4824 74.5366C45.8335 74.5366 47.1846 74.5366 48.5434 74.5366C49.0723 74.5366 49.1186 74.8586 49.1688 75.2271C49.6526 78.8065 50.1326 82.3859 50.6087 85.9653C50.6071 86.3091 50.7306 86.6416 50.9561 86.9002C51.2495 84.9605 51.5275 83.1217 51.7938 81.2906C52.0872 79.2927 52.3845 77.2948 52.6508 75.2892C52.728 74.6879 52.9635 74.4667 53.5889 74.4939C54.8435 74.5482 56.0981 74.4939 57.3527 74.5133C57.5341 74.5133 57.7928 74.4473 57.8121 74.7383C57.8136 74.7803 57.8056 74.822 57.7886 74.8604C57.7716 74.8987 57.7462 74.9327 57.7141 74.9596C57.6821 74.9866 57.6444 75.0058 57.6038 75.0159C57.5632 75.0259 57.5209 75.0265 57.4801 75.0176C56.6077 74.8935 56.7273 75.4909 56.7273 76.0185C56.7273 82.1583 56.7273 88.2981 56.7273 94.4379C56.7273 95.2138 56.3915 96.2573 58.0321 96.0517L57.8044 96.3233H52.0795C52.0894 96.252 52.1062 96.1818 52.1297 96.1138C53.1642 96.1138 53.2144 95.5008 53.2144 94.659C53.2144 89.0184 53.2492 83.3816 53.2723 77.741C53.2762 77.6295 53.2569 77.5185 53.2157 77.415C53.1745 77.3115 53.1123 77.2177 53.033 77.1396C52.7551 78.9824 52.4733 80.8251 52.2069 82.6717C51.5892 86.9364 50.9767 91.2038 50.3694 95.4737C50.2806 96.0905 50.1725 96.5289 49.3155 96.5017C48.4585 96.4746 48.5048 95.9625 48.4354 95.4077C47.8177 90.4085 47.1949 85.4105 46.567 80.4139C46.4203 79.2772 46.4743 78.1134 46.1809 76.9224C45.8837 77.3103 46.0072 77.6634 46.0072 78.0009C46.0072 82.8113 46.0072 87.6257 46.0072 92.4361C46.0072 93.7667 45.7872 95.237 47.3931 95.9547C47.4242 95.9675 47.4523 95.9868 47.4755 96.0112C47.4988 96.0357 47.5166 96.0648 47.5279 96.0966C47.5392 96.1285 47.5437 96.1623 47.5411 96.196C47.5385 96.2298 47.5288 96.2625 47.5127 96.2922C47.3931 96.5134 47.1692 96.4435 46.9839 96.4435C45.6328 96.4435 44.2816 96.4435 42.9344 96.4435C41.5871 96.4435 40.2322 96.4435 38.8733 96.4435C38.6948 96.4828 38.5093 96.4756 38.3343 96.4227C38.1593 96.3697 38.0007 96.2727 37.8735 96.1409ZM37.1555 81.0811H37.0204C36.5687 83.7113 36.1363 86.3455 35.6654 88.9718C35.1944 91.5982 35.179 91.5555 37.8349 91.4197C38.3329 91.3926 38.4371 91.2645 38.3676 90.7796C38.1862 89.5033 38.0665 88.2192 37.9082 86.939C37.6612 85.0071 37.4064 83.0519 37.1555 81.0811Z" fill="#9C595E"/>
<path d="M88.3549 85.4562C88.8105 85.6114 88.9571 85.6696 89.127 85.7084C91.1653 86.2476 92.057 87.683 92.2616 89.6925C92.4237 91.2831 92.3465 92.8736 92.3851 94.4642C92.3851 94.8987 92.2886 95.5039 92.9256 95.5854C93.5625 95.6668 93.7169 95.0849 93.8289 94.6077C93.964 94.0413 94.018 93.4439 94.1338 92.7185C94.6395 93.3431 94.4774 93.9056 94.4234 94.4138C94.2767 95.8763 93.3656 96.6638 91.8254 96.7414C90.2002 96.8112 89.3123 96.1983 88.9919 94.7241C88.7448 93.5797 88.8992 92.3965 88.8568 91.2521C88.8066 89.8632 88.9996 88.4628 88.7448 87.0817C88.6775 86.6876 88.4693 86.3318 88.1594 86.0811C87.8495 85.8304 87.4592 85.702 87.0617 85.72C86.6255 85.72 86.6757 86.0032 86.6757 86.2515C86.6564 89.3046 86.6487 92.3538 86.6139 95.4069C86.6139 95.8802 86.7722 96.0664 87.2432 96.0315C87.385 95.9875 87.5372 95.9913 87.6766 96.0425C87.8161 96.0936 87.935 96.1892 88.0152 96.3147C85.9498 96.4633 83.8762 96.4568 81.8117 96.2953C83.3095 96.2293 82.9389 95.1896 82.9389 94.3905C82.9389 88.2895 82.9389 82.1859 82.9389 76.0797C82.9389 75.5172 83.0624 74.9159 82.1668 75.009C82.1256 75.014 82.0837 75.0085 82.0451 74.9932C82.0064 74.9779 81.9722 74.9531 81.9454 74.9212C81.9186 74.8893 81.9001 74.8512 81.8916 74.8103C81.8831 74.7694 81.8848 74.7271 81.8966 74.687C81.9275 74.5125 82.0858 74.5163 82.2093 74.5202C84.5757 74.6056 86.9614 74.2642 89.3046 74.8461C90.0065 74.9866 90.6504 75.3351 91.1534 75.8468C91.6563 76.3585 91.9953 77.0098 92.1265 77.7168C92.4596 79.1742 92.4767 80.6865 92.1767 82.151C92.0584 82.7567 91.7877 83.3218 91.3903 83.7925C90.993 84.2631 90.4822 84.6236 89.9068 84.8394C89.4706 85.0101 89.0498 85.173 88.3549 85.4562ZM86.5753 79.9747C86.5753 81.4294 86.5753 82.8881 86.5753 84.3429C86.5753 84.6183 86.4865 84.9286 86.9305 85.0295C87.7682 85.2235 88.5981 84.7851 88.6831 83.9161C88.9398 81.3506 88.9398 78.7656 88.6831 76.2C88.6722 76.0353 88.6289 75.8744 88.5557 75.7267C88.1696 75.0556 87.5211 75.0478 86.9073 75.1293C86.2935 75.2108 86.5985 75.7694 86.5869 76.1069C86.5522 77.3949 86.5753 78.6867 86.5753 79.9747Z" fill="#9C595E"/>
<path d="M58.6152 96.2846C60.0899 96.1721 59.7309 95.1208 59.7309 94.3449C59.7309 88.2387 59.7309 82.1326 59.7309 76.0264C59.7309 75.5143 59.8737 74.8975 58.9936 75.0216C58.9526 75.0298 58.9103 75.0281 58.8701 75.0168C58.8299 75.0055 58.7929 74.9849 58.7621 74.9566C58.7313 74.9282 58.7075 74.893 58.6928 74.8538C58.678 74.8146 58.6726 74.7724 58.677 74.7307C58.677 74.5018 58.8932 74.5212 59.063 74.5212C61.0781 74.5561 63.101 74.3505 65.1006 74.6221C67.633 74.9673 68.7602 76.1738 69.1539 78.7652C69.3746 80.0755 69.2165 81.422 68.6984 82.6446C68.1348 83.9326 67.0694 84.5843 65.7144 84.8365C65.8225 84.98 65.8495 85.0499 65.8997 85.077C66.6729 85.4554 67.3625 85.9863 67.9274 86.638C68.4923 87.2898 68.9209 88.049 69.1878 88.8707C69.4547 89.6923 69.5544 90.5595 69.4809 91.4206C69.4074 92.2818 69.1623 93.1193 68.7602 93.8833C68.4954 94.4966 68.0842 95.0348 67.5631 95.4502C67.0419 95.8657 66.4268 96.1456 65.7723 96.2652C63.4175 96.6725 61.0511 96.3583 58.6152 96.2846ZM63.3866 90.4655C63.3866 92.0173 63.3866 93.569 63.3866 95.1402C63.3866 95.6406 63.5179 95.8385 64.0545 95.8307C65.1585 95.8307 65.5716 95.4428 65.5986 94.0229C65.641 91.7341 65.5986 89.4491 65.5986 87.1603C65.5887 86.8297 65.5461 86.5009 65.4712 86.1788C65.2898 85.2671 64.5602 85.2128 63.8576 85.2322C63.0353 85.2516 63.4252 85.9227 63.4098 86.2913C63.3596 87.6762 63.3866 89.0689 63.3866 90.4616V90.4655ZM63.3866 79.8204C63.3866 81.1821 63.3866 82.536 63.3866 83.8977C63.3866 84.4136 63.5372 84.6037 64.0622 84.5921C65.1508 84.5727 65.5638 84.1576 65.6063 82.7571C65.6488 80.8679 65.6063 78.9786 65.6063 77.0893C65.6094 76.6949 65.5521 76.3024 65.4365 75.9255C65.1701 75.1496 64.4752 75.0759 63.8035 75.1496C63.1318 75.2234 63.4175 75.8169 63.4175 76.1699C63.3596 77.3648 63.3866 78.5907 63.3866 79.8166V79.8204Z" fill="#9C595E"/>
<path d="M104.723 85.496C104.792 82.8813 104.835 80.2627 105.696 77.7372C105.811 77.3934 105.947 77.0566 106.101 76.7285C106.808 75.2544 107.842 74.2418 109.575 74.2651C111.309 74.2884 112.343 75.3746 113.015 76.8294C113.992 78.9437 114.204 81.2247 114.293 83.5136C114.412 86.7296 114.393 89.9379 113.443 93.0569C113.241 93.7572 112.933 94.422 112.529 95.0276C110.93 97.3553 107.997 97.3204 106.456 94.9384C105.456 93.3867 105.163 91.6215 104.943 89.8487C104.768 88.4048 104.694 86.9503 104.723 85.496ZM108.464 85.4533C108.464 88.3046 108.464 91.1521 108.464 93.988C108.448 94.4179 108.478 94.8483 108.552 95.272C108.583 95.5071 108.7 95.7224 108.879 95.8759C109.059 96.0293 109.289 96.11 109.525 96.1022C109.76 96.1123 109.99 96.0314 110.167 95.8762C110.345 95.721 110.456 95.5034 110.479 95.2682C110.546 94.8774 110.581 94.4816 110.583 94.0849C110.583 88.315 110.583 82.5476 110.583 76.7828C110.594 76.5512 110.587 76.3191 110.564 76.0884C110.463 75.4755 110.305 74.8703 109.518 74.8819C108.73 74.8936 108.533 75.4406 108.483 76.0923C108.46 76.4221 108.456 76.7518 108.456 77.0854L108.464 85.4533Z" fill="#9C595E"/>
<path d="M158.2 96.718C159.208 94.1266 160.13 91.7951 161.026 89.4674C161.38 88.6855 161.69 87.8837 161.952 87.0661C162.203 86.1195 162.894 86.4338 163.454 86.426C164.226 86.426 163.882 87.0506 163.882 87.3881C163.909 90.705 163.906 94.018 163.882 97.3349C163.882 97.7228 164.106 98.2038 163.346 98.231C162.524 98.2582 162.751 97.7228 162.747 97.3155C162.747 94.437 162.747 91.5584 162.747 88.5907C162.296 88.7808 162.284 89.1338 162.18 89.4015C161.115 92.1171 160.061 94.8132 158.995 97.5172C158.856 97.8663 158.787 98.2349 158.223 98.2349C157.66 98.2349 157.536 97.8974 157.378 97.4862C156.294 94.7163 155.203 91.9515 154.104 89.192C154.025 88.9325 153.866 88.7054 153.649 88.5441C153.649 91.508 153.649 94.4719 153.649 97.4357C153.649 97.7112 153.861 98.134 153.313 98.2116C152.765 98.2892 152.46 98.1418 152.471 97.4357C152.51 94.0529 152.471 90.6701 152.502 87.2872C152.502 86.9924 152.236 86.4376 152.811 86.4415C153.386 86.4454 154.05 86.0536 154.39 86.9536C155.312 89.4287 156.297 91.8804 157.262 94.3245C157.532 95.046 157.818 95.7559 158.2 96.718ZM195.394 89.4286C193.526 89.3821 192.063 90.5692 191.603 92.5322C191.082 94.7628 191.966 97.0711 193.618 97.7693C193.869 97.865 194.127 97.939 194.391 97.9905C195.803 98.3008 196.973 97.8741 197.965 96.5823C198.008 96.9896 198.042 97.2068 198.046 97.4202C198.046 99.0612 197.479 100.175 196.413 100.524C195.058 100.985 193.943 100.57 192.916 99.1853C192.653 98.8284 192.31 98.9332 192.028 99.0069C191.592 99.1155 191.912 99.4608 191.962 99.6586C192.07 100.08 192.317 100.454 192.661 100.718C194.028 101.73 195.537 101.812 197.085 101.272C198.498 100.776 198.992 99.5461 199.015 98.2038C199.104 95.5193 199.058 92.827 199.062 90.1424C199.062 89.9291 199.135 89.6304 198.76 89.6459C198.54 89.6459 198.228 89.5295 198.12 89.7429C198.014 90.0825 197.954 90.4348 197.942 90.7903C197.162 90.0532 196.433 89.4558 195.394 89.4286ZM195.518 90.3519C195.848 90.3683 196.17 90.4553 196.464 90.6072C196.757 90.7591 197.015 90.9723 197.22 91.2326C198.29 92.5516 198.282 95.0499 197.22 96.3378C196.975 96.6184 196.672 96.842 196.332 96.9932C195.992 97.1443 195.623 97.2193 195.252 97.213C194.88 97.2068 194.514 97.1193 194.18 96.9568C193.845 96.7943 193.549 96.5606 193.314 96.2719C192.794 95.5761 192.522 94.7249 192.541 93.855C192.514 91.6321 193.715 90.2239 195.518 90.3519ZM210.534 90.3519C210.534 89.964 210.558 89.6342 209.994 89.6459C209.43 89.6575 209.569 90.0338 209.569 90.3364C209.569 92.7572 209.569 95.1818 209.569 97.6025C209.569 98.2 209.832 98.2388 210.284 98.2038C210.735 98.1689 210.6 97.7849 210.612 97.5327C210.697 95.7443 210.423 93.9443 210.805 92.1753C210.919 91.5798 211.263 91.0541 211.763 90.7137C212.262 90.3733 212.876 90.246 213.468 90.3597C214.476 90.4916 214.928 91.1666 214.931 92.5826C214.931 94.2391 214.966 95.8995 214.931 97.5599C214.912 98.2155 215.217 98.2737 215.703 98.1922C216.19 98.1107 215.966 97.7267 215.978 97.4745C216.066 95.721 215.796 93.9559 216.14 92.2141C216.421 90.7903 217.275 90.2006 218.703 90.3558C219.83 90.48 220.293 91.1084 220.297 92.5593C220.297 94.2197 220.297 95.8762 220.297 97.5366C220.297 97.9245 220.262 98.2388 220.838 98.2194C221.332 98.2194 221.343 97.9633 221.34 97.5948C221.34 95.7715 221.37 93.9443 221.34 92.1209C221.282 90.1231 219.865 89.064 217.908 89.483C217.486 89.5734 217.088 89.7508 216.739 90.0039C216.389 90.257 216.096 90.5803 215.877 90.9533C214.526 88.9243 212.696 88.87 210.589 90.8873C210.534 90.6235 210.531 90.4877 210.534 90.3597V90.3519ZM152.506 83.6561C152.506 84.1333 152.645 84.2729 153.12 84.2846C153.595 84.2962 153.699 84.0634 153.691 83.6367C153.672 82.3759 153.691 81.119 153.691 79.862C153.691 79.3461 153.822 79.1793 154.347 79.1832C155.664 79.233 156.982 79.211 158.297 79.1172C160.227 78.9388 161.288 77.6236 161.23 75.6917C161.172 73.7598 159.964 72.5571 158.034 72.4912C156.42 72.4369 154.803 72.4912 153.189 72.4563C152.568 72.4563 152.514 72.7201 152.521 73.2322C152.545 74.9546 152.521 76.6771 152.521 78.3995C152.521 80.122 152.529 81.9026 152.506 83.6561ZM153.857 73.5425C154.293 73.1546 155.301 73.4222 156.058 73.4261C156.781 73.4052 157.504 73.4351 158.223 73.5154C159.362 73.6822 159.991 74.4658 160.045 75.6374C160.107 76.9758 159.582 77.8137 158.397 78.093C156.969 78.4305 155.509 78.1784 154.066 78.2443C153.66 78.2637 153.68 77.9805 153.68 77.709V75.6801C153.761 75.04 153.34 74.0003 153.857 73.5425ZM177.664 76.7236C177.54 76.3706 178.019 75.6956 177.154 75.7266C176.382 75.7538 176.71 76.3473 176.71 76.6965C176.682 79.9474 176.682 83.1996 176.71 86.4531C176.71 86.8411 176.425 87.454 177.258 87.4269C178.092 87.3997 177.745 86.779 177.76 86.4066C177.807 85.3087 177.76 84.2109 177.76 82.8259C178.59 83.9587 179.432 84.4591 180.524 84.5018C183.296 84.6143 185.006 82.1742 184.435 78.9271C184.161 77.3482 183.443 76.1107 181.81 75.649C180.177 75.1874 178.83 75.6762 177.702 77.1659C177.702 77.0176 177.689 76.8697 177.664 76.7236ZM182.952 82.31C182.723 82.6933 182.403 83.0139 182.021 83.2431C181.639 83.4723 181.206 83.603 180.762 83.6238C180.317 83.6445 179.874 83.5545 179.472 83.3619C179.071 83.1692 178.723 82.8798 178.459 82.5194C177.602 81.3129 177.533 78.8301 178.32 77.581C179.358 75.9322 182.007 76.0059 182.952 77.7167C183.315 78.4278 183.497 79.2182 183.481 80.0172C183.498 80.8139 183.316 81.6021 182.952 82.31ZM190.337 98.2155C190.604 98.1845 190.793 98.1263 190.777 97.8275C190.777 97.6181 190.866 97.3116 190.507 97.3038C189.801 97.2844 189.866 96.7762 189.866 96.3146C189.866 94.9257 189.897 93.533 189.866 92.1442C189.812 90.511 189.063 89.7041 187.504 89.4752C185.593 89.1998 184.029 89.9136 183.52 91.283C183.462 91.4048 183.428 91.5364 183.42 91.6709C183.42 91.8921 183.169 92.2567 183.64 92.2722C183.917 92.2722 184.242 92.4391 184.431 91.9464C184.55 91.6067 184.741 91.2969 184.99 91.0383C185.239 90.7796 185.541 90.5781 185.875 90.4477C186.209 90.3173 186.567 90.2609 186.925 90.2826C187.283 90.3042 187.632 90.4033 187.948 90.5731C188.689 90.9261 188.863 91.5739 188.789 92.3149C188.716 93.0559 188.148 93.1451 187.573 93.2305C186.625 93.3339 185.683 93.4866 184.751 93.6882C183.447 94.0257 182.883 94.9413 183.003 96.2913C183.107 97.4823 183.925 98.2737 185.218 98.4288C186.624 98.5995 187.847 98.2853 188.747 96.912C189.156 98.0331 189.561 98.3125 190.337 98.2155ZM186.454 97.5288C185.931 97.645 185.383 97.5707 184.91 97.3193C184.639 97.1925 184.41 96.9893 184.252 96.7345C184.094 96.4798 184.012 96.1843 184.018 95.884C184.02 95.5846 184.115 95.2933 184.29 95.0511C184.465 94.8089 184.712 94.628 184.995 94.5339C185.582 94.3205 186.192 94.176 186.813 94.1033C187.427 93.9753 188.044 93.8977 188.743 93.7852C188.932 96.0779 188.237 97.1952 186.454 97.5288ZM195.63 76.4753C195.607 76.134 195.749 75.6995 195.143 75.6995C194.537 75.6995 194.692 76.1533 194.692 76.4753C194.692 78.834 194.692 81.1888 194.692 83.5475C194.692 83.8889 194.572 84.2613 195.182 84.2807C195.854 84.2807 195.722 83.8927 195.722 83.5048C195.722 82.2091 195.703 80.9134 195.722 79.6254C195.753 78.1706 196.695 76.9447 197.969 76.7236C198.517 76.6266 199.092 76.7236 199.648 76.6577C200.278 76.5917 200.501 76.7779 200.478 77.4568C200.428 79.0823 200.478 80.7078 200.478 82.3332C200.478 83.9587 201.034 84.4824 202.652 84.3777C203.038 84.3544 203.281 84.3272 203.273 83.8384C203.265 83.3496 202.922 83.4505 202.663 83.4505C201.926 83.5087 201.505 83.2177 201.505 82.4535C201.505 80.6922 201.505 78.9349 201.505 77.1736C201.505 76.7857 201.625 76.6266 202.007 76.6499C202.273 76.6693 202.536 76.6499 202.802 76.6499C203.138 76.6732 203.269 76.5297 203.265 76.1883C203.262 75.8469 203.184 75.6374 202.829 75.7111C201.378 76.0098 201.416 75.0904 201.509 74.1128C201.509 73.9499 201.509 73.783 201.509 73.6162C201.544 73.1546 201.231 73.1856 200.922 73.1701C200.613 73.1546 200.451 73.302 200.467 73.6395C200.445 73.9715 200.445 74.3045 200.467 74.6365C200.644 75.6141 200.154 75.8701 199.332 75.6956C197.788 75.3619 196.63 75.9439 195.676 77.4801C195.637 76.9874 195.626 76.7314 195.61 76.4753H195.63ZM191.661 80.3043C193.526 80.3043 193.549 80.2733 193.094 78.4538C192.638 76.6344 191.387 75.5714 189.696 75.5132C187.843 75.4473 186.512 76.4133 185.948 78.2599C185.499 79.6639 185.588 81.1861 186.199 82.5272C186.832 83.9393 188.098 84.6066 189.851 84.5212C191.395 84.4436 192.491 83.6677 192.997 82.2362C193.082 81.9957 193.383 81.6349 192.958 81.4914C192.874 81.4452 192.78 81.4187 192.684 81.4137C192.588 81.4088 192.492 81.4255 192.403 81.4627C192.314 81.4999 192.235 81.5567 192.17 81.6288C192.106 81.7009 192.059 81.7865 192.032 81.8793C191.426 83.3031 190.387 83.8462 189.067 83.5979C188.451 83.4596 187.896 83.1258 187.484 82.6458C187.072 82.1658 186.824 81.5651 186.778 80.9328C186.728 80.4983 186.778 80.2578 187.307 80.2849C188.199 80.3276 189.09 80.2849 189.982 80.2849L191.661 80.3043ZM187.461 79.3965C186.755 79.4431 186.716 79.1638 186.905 78.5818C187.357 77.1775 188.299 76.3978 189.608 76.4288C190.203 76.4481 190.775 76.6695 191.229 77.057C191.683 77.4444 191.993 77.9751 192.109 78.5625C192.237 79.0901 192.229 79.4586 191.499 79.4004C190.77 79.3422 190.121 79.4004 189.434 79.4004C188.747 79.4004 188.114 79.3344 187.461 79.3771V79.3965ZM172.877 98.2349C173.166 98.2116 173.406 98.1806 173.41 97.812C173.41 97.5637 173.41 97.3271 173.082 97.3155C172.441 97.2922 172.479 96.8344 172.483 96.3922C172.483 94.9995 172.506 93.6068 172.483 92.2141C172.448 90.5963 171.692 89.739 170.167 89.4985C168.237 89.1881 166.612 89.9252 166.118 91.3489C166.06 91.4715 166.022 91.6025 166.006 91.7369C166.006 91.9386 165.824 92.2684 166.199 92.2761C166.469 92.2761 166.801 92.4973 167.013 92.0084C167.681 90.4877 168.8 90.0106 170.337 90.5032C171.163 90.767 171.437 91.3916 171.414 92.1947C171.391 92.9977 170.785 93.1839 170.121 93.2499C169.166 93.3077 168.219 93.4623 167.295 93.7115C166.74 93.8417 166.255 94.179 165.938 94.6552C165.621 95.1313 165.496 95.7106 165.589 96.2758C165.628 96.8285 165.862 97.349 166.249 97.7437C166.636 98.1384 167.151 98.3813 167.7 98.4288C169.21 98.6422 170.522 98.3125 171.456 96.7879C171.68 97.9633 172.043 98.2814 172.877 98.2155V98.2349ZM167.77 97.459C167.434 97.3643 167.138 97.161 166.929 96.8805C166.72 96.5999 166.608 96.2579 166.612 95.9072C166.612 95.1896 167.056 94.7434 167.685 94.5262C168.77 94.1382 169.932 94.049 171.059 93.8783C171.75 93.7736 171.144 94.5145 171.402 94.6542C171.368 96.7297 169.546 98.0758 167.77 97.428V97.459ZM206.968 95.7792C206.253 97.2573 205.423 97.7499 204.138 97.587C202.852 97.4241 202.038 96.5241 201.714 95.0499C201.59 94.4913 201.633 94.2119 202.335 94.2391C203.721 94.2973 205.111 94.2585 206.497 94.2585C208.427 94.2585 208.488 94.1693 207.971 92.2878C207.493 90.5459 206.249 89.514 204.578 89.4674C203.745 89.4098 202.918 89.6466 202.241 90.1368C201.563 90.6271 201.078 91.3399 200.868 92.152C200.42 93.5536 200.498 95.0718 201.088 96.4193C201.775 97.9711 203.262 98.6888 205.211 98.425C206.755 98.2155 207.794 97.1448 208.048 95.4262C207.662 95.4534 207.261 95.143 206.968 95.7482V95.7792ZM202.169 93.3507C201.822 93.3507 201.633 93.3274 201.717 92.858C201.976 91.4459 203.061 90.4024 204.381 90.3791C205.701 90.3558 206.697 91.2403 207.052 92.6757C207.184 93.2382 207.033 93.3779 206.504 93.3546C205.782 93.3236 205.061 93.3546 204.335 93.3546C203.609 93.3546 202.891 93.308 202.169 93.3197V93.3507ZM228.751 94.2585C230.62 94.2585 230.682 94.1887 230.176 92.3188C229.709 90.5692 228.473 89.5179 226.813 89.4597C225.981 89.3935 225.152 89.6217 224.47 90.1048C223.788 90.588 223.295 91.2957 223.077 92.1054C222.623 93.5042 222.691 95.0212 223.27 96.3728C223.895 97.8198 225.127 98.5142 226.875 98.456C228.473 98.3978 229.643 97.5948 230.118 96.1594C230.187 95.946 230.55 95.562 230.087 95.4223C230.001 95.3762 229.906 95.3497 229.809 95.3447C229.712 95.3396 229.615 95.3563 229.525 95.3933C229.435 95.4304 229.354 95.487 229.289 95.5591C229.223 95.6311 229.174 95.7169 229.145 95.8103C228.52 97.2495 227.497 97.7849 226.18 97.5366C224.941 97.3077 224.011 96.1633 223.864 94.7706C223.814 94.2973 223.988 94.2158 224.397 94.2275C225.289 94.2507 226.18 94.2275 227.072 94.2275L228.751 94.2585ZM224.37 93.3507C224.03 93.3507 223.829 93.3507 223.914 92.8619C224.005 92.1853 224.333 91.5633 224.839 91.1076C225.344 90.6518 225.995 90.3922 226.674 90.3752C228.002 90.3946 228.991 91.3489 229.269 92.7688C229.357 93.2305 229.242 93.3624 228.802 93.3507C228.029 93.3507 227.292 93.3507 226.536 93.3507C225.779 93.3507 225.092 93.3119 224.37 93.3197V93.3507ZM170.53 84.4669C172.742 84.7423 174.425 83.6134 175.004 81.472C175.618 79.2181 174.757 76.8167 173.02 75.9167C170.152 74.4425 167.144 76.5374 167.152 80.0095C167.152 82.4186 168.523 84.2186 170.53 84.4669ZM173.456 82.3953C173.202 82.7859 172.854 83.105 172.443 83.3223C172.033 83.5396 171.574 83.648 171.11 83.6371C170.646 83.6262 170.192 83.4965 169.792 83.2601C169.392 83.0238 169.059 82.6887 168.824 82.2867C168.429 81.6514 168.206 80.9236 168.177 80.1752C168.147 79.4267 168.313 78.6836 168.658 78.0193C168.909 77.4533 169.346 76.9907 169.895 76.7084C170.444 76.4261 171.073 76.3411 171.676 76.4676C172.892 76.6577 173.854 77.7323 174.074 79.1832C174.116 79.478 174.116 79.7806 174.132 80.0754C174.153 80.9006 173.916 81.7117 173.456 82.3953ZM175.027 89.6575C174.189 89.7002 174.537 90.317 174.529 90.6817C174.498 92.9356 174.529 95.1895 174.529 97.4435C174.529 97.8314 174.421 98.2194 175.081 98.2194C175.741 98.2194 175.602 97.7771 175.606 97.4124C175.606 95.9189 175.556 94.4253 175.641 92.9395C175.737 91.252 176.834 90.2821 178.401 90.3442C179.802 90.3985 180.401 91.2093 180.408 93.0598C180.408 94.5844 180.408 96.109 180.408 97.6336C180.408 98.0564 180.509 98.2232 180.957 98.2077C181.343 98.2077 181.47 98.0991 181.462 97.6995C181.435 95.8103 181.493 93.9171 181.412 92.0317C181.35 90.5808 180.64 89.7739 179.328 89.5062C178.678 89.3323 177.991 89.3575 177.355 89.5787C176.72 89.7999 176.164 90.207 175.761 90.7476C175.471 90.2899 175.857 89.6149 175.027 89.6575ZM232.812 90.4567C232.751 90.1153 232.971 89.6459 232.28 89.6459C231.589 89.6459 231.766 90.0998 231.766 90.4528C231.766 92.8425 231.766 95.2322 231.766 97.6181C231.766 98.006 231.766 98.2349 232.276 98.2271C232.785 98.2194 232.824 98.0564 232.816 97.6452C232.797 96.4154 232.816 95.1895 232.816 93.9637C232.764 93.2354 232.876 92.5047 233.144 91.8261C233.38 91.2902 233.794 90.8537 234.316 90.5917C234.837 90.3297 235.433 90.2586 236.001 90.3907C237.028 90.5576 237.518 91.2132 237.607 92.5593C237.634 92.9201 237.607 93.2886 237.607 93.6533C237.607 94.9801 237.607 96.3068 237.607 97.6336C237.607 97.9478 237.607 98.2543 238.051 98.2077C238.325 98.1844 238.699 98.3202 238.684 97.8198C238.607 95.6706 238.896 93.5059 238.503 91.3683C238.433 90.9392 238.236 90.541 237.939 90.225C237.642 89.909 237.257 89.6897 236.835 89.5955C236.151 89.3621 235.411 89.3488 234.72 89.5574C234.028 89.766 233.418 90.1861 232.975 90.7593C232.912 90.6633 232.858 90.562 232.812 90.4567ZM206.883 83.5746C206.998 83.8824 207.042 84.2128 207.011 84.5404C206.979 84.8679 206.873 85.1838 206.701 85.4636C206.529 85.7434 206.294 85.9795 206.017 86.1538C205.739 86.3281 205.425 86.4358 205.099 86.4687C204.813 86.4881 204.59 86.4493 204.601 86.8566C204.613 87.2639 204.713 87.3803 205.099 87.4308C206.23 87.5782 207.029 87.1243 207.512 85.8363C208.724 82.694 209.89 79.5401 211.067 76.3822C211.144 76.1805 211.411 75.8624 211.005 75.7538C210.72 75.6762 210.326 75.587 210.16 76.0253C210.091 76.2115 210.029 76.4133 209.959 76.584C209.222 78.6245 208.485 80.6651 207.743 82.725C207.357 82.4923 207.357 82.1276 207.222 81.8328C206.535 80.0793 205.848 78.3413 205.211 76.5568C204.976 75.8973 204.674 75.5171 203.802 75.8275C204.837 78.4267 205.863 80.9987 206.883 83.5746ZM243.973 97.8935C244.042 97.1797 243.49 97.4163 243.158 97.4124C242.456 97.4124 242.247 97.0245 242.251 96.396C242.251 94.9064 242.309 93.4089 242.251 91.9231C242.205 90.9727 242.328 90.3713 243.463 90.6041C243.83 90.6778 244.007 90.4994 244 90.1037C243.992 89.708 243.807 89.6071 243.498 89.673C242.274 89.9291 242.151 89.2347 242.27 88.292C242.297 88.0631 242.27 87.8265 242.27 87.5937C242.293 87.2368 242.097 87.1359 241.788 87.1359C241.479 87.1359 241.178 87.1359 241.189 87.5859C241.201 88.0359 241.155 88.3851 241.189 88.7769C241.267 89.4403 241.085 89.7817 240.352 89.673C240.027 89.6265 239.695 89.5993 239.691 90.1308C239.688 90.6623 240.008 90.6545 240.34 90.6041C241.058 90.4955 241.216 90.8097 241.197 91.4886C241.151 93.1451 241.158 94.8016 241.197 96.462C241.224 97.8702 241.672 98.2892 243.096 98.3163C243.367 98.2232 243.899 98.5375 243.973 97.8935ZM163.628 76.5103C163.562 76.2115 163.852 75.7344 163.207 75.715C162.562 75.6956 162.69 76.1689 162.686 76.5296C162.686 78.8844 162.686 81.2354 162.686 83.5863C162.686 83.9742 162.663 84.2846 163.226 84.2846C163.79 84.2846 163.774 83.9897 163.77 83.594C163.77 82.2362 163.736 80.8785 163.77 79.5207C163.759 78.817 164.013 78.135 164.481 77.6118C164.95 77.0886 165.598 76.763 166.295 76.7003C166.812 76.6383 166.998 76.487 166.932 75.9826C166.855 75.3503 166.419 75.6257 166.106 75.6607C165.091 75.7654 164.431 76.4365 163.844 77.2124C163.554 76.9758 163.678 76.7236 163.628 76.5103Z" fill="#322F33"/>
</g>
</svg>
