<svg xmlns="http://www.w3.org/2000/svg"
        xmlns:xlink="http://www.w3.org/1999/xlink" x="-4.17527in" y="-4.42826in" width="5.72587in" height="1.87669in" style="shape-rendering:geometricPrecision; text-rendering:geometricPrecision; image-rendering:optimizeQuality"
     viewBox="-4175 0 5726 2177">
<!--<svg xml:space="preserve" x="-4.17527in" y="-4.42826in" width="5.72587in" height="1.87669in" style="shape-rendering:geometricPrecision; text-rendering:geometricPrecision; image-rendering:optimizeQuality"
     viewBox="-4175 0 5726 1877">-->
 <g id="Layer 1">
  <g>
   <path id="71261600" style="fill:#1E5078" d="M275 311l670 262 599 818 -348 142 -921 -1222z"/>
   <path id="71259136" style="fill:#00CCFF" d="M926 1630l100 -147 -247 -314 -489 708 636 -247z"/>
   <path id="71258080" style="fill:#00CCFF" d="M1149 655l402 155 -160 210 -242 -365z"/>
  </g>
  <path id="71255616" style="fill:#000000" d="M-3940 664c3,17 5,35 6,53 1,18 2,36 2,54l0 373 -104 0 0 -601 86 0 441 392c13,11 25,24 37,37 12,13 23,29 35,46 -3,-18 -6,-37 -8,-55 -1,-18 -2,-38 -2,-57l0 -363 104 0 0 601 -77 0 -450 -398c-15,-15 -29,-29 -40,-42 -11,-13 -21,-27 -30,-40z"/>
  <path id="71255616" style="fill:#000000" d="M-2958 1144l0 -601 604 0 0 89 -491 0 0 155 296 0 0 89 -296 0 0 180 497 0 0 88 -610 0z"/>
  <path id="71255616" style="fill:#000000" d="M-1741 632l0 512 -113 0 0 -512 -283 0 0 -89 681 0 0 89 -285 0z"/>
  <path id="71255616" style="fill:#000000" d="M-1070 1144l-113 0 0 -599 113 0 0 599z"/>
  <path id="71255616" style="fill:#000000" d="M-781 1144l302 -308 -306 -293 153 0 217 218 198 -218 140 0 -276 279 337 322 -159 0 -242 -244 -218 244 -146 0z"/>
  <path id="71257640" style="fill:#1F1A17" d="M-3760 1739c-29,11 -60,16 -93,16 -33,0 -63,-7 -89,-19 -25,-13 -45,-31 -60,-54 -14,-23 -21,-50 -21,-79 0,-31 8,-59 23,-84 15,-26 37,-45 65,-59 28,-14 59,-21 94,-21 29,0 56,4 81,12l0 23c-26,-10 -53,-15 -81,-15 -31,0 -58,6 -82,18 -23,12 -41,29 -54,50 -13,22 -19,46 -19,74 0,26 6,49 18,70 12,20 29,36 52,47 22,11 47,17 75,17 34,0 64,-6 91,-17l0 21z"/>
  <path id="71257640" style="fill:#1F1A17" d="M-3312 1755c-34,0 -64,-7 -89,-20 -26,-13 -46,-31 -60,-54 -14,-24 -21,-51 -21,-81 0,-32 7,-60 21,-85 15,-24 36,-43 62,-56 27,-13 58,-20 93,-20 33,0 62,7 87,19 26,13 45,31 59,55 14,23 21,50 21,79 0,32 -7,61 -21,86 -14,24 -34,43 -60,57 -27,13 -57,20 -92,20zm2 -296c-28,0 -53,6 -75,18 -23,11 -40,28 -52,49 -12,21 -18,45 -18,72 0,27 5,51 17,72 12,21 28,36 50,48 22,11 47,17 75,17 46,0 82,-13 108,-37 26,-25 39,-59 39,-102 0,-42 -13,-76 -39,-100 -25,-25 -60,-37 -105,-37z"/>
  <path id="71257640" style="fill:#1F1A17" d="M-2591 1749l-216 -246c-7,-7 -12,-14 -16,-19l0 0 0 15 0 250 -26 0 0 -305 21 0 215 245 16 19 1 0c-1,-10 -1,-19 -1,-27l0 -237 26 0 0 305 -20 0z"/>
  <path id="71257640" style="fill:#1F1A17" d="M-2162 1464l0 285 -26 0 0 -285 -105 0 0 -20 237 0 0 20 -106 0z"/>
  <path id="71257640" style="fill:#1F1A17" d="M-1589 1749l-50 -89c-9,-17 -19,-29 -29,-36 -9,-7 -23,-10 -39,-10l-45 0 0 135 -26 0 0 -305 102 0c31,0 56,8 76,22 19,15 28,34 28,58 0,22 -8,40 -23,55 -16,15 -37,24 -63,28l0 1c15,5 29,20 43,44l55 97 -29 0zm-163 -285l0 130 63 0c27,0 49,-6 65,-18 17,-13 25,-29 25,-50 0,-19 -7,-34 -22,-45 -15,-11 -36,-17 -63,-17l-68 0z"/>
  <path id="71257640" style="fill:#1F1A17" d="M-1127 1755c-34,0 -64,-7 -89,-20 -26,-13 -46,-31 -60,-54 -14,-24 -21,-51 -21,-81 0,-32 7,-60 21,-85 15,-24 36,-43 62,-56 27,-13 58,-20 93,-20 33,0 62,7 87,19 26,13 45,31 59,55 14,23 21,50 21,79 0,32 -7,61 -21,86 -14,24 -34,43 -60,57 -27,13 -57,20 -92,20zm2 -296c-28,0 -53,6 -75,18 -23,11 -40,28 -52,49 -12,21 -18,45 -18,72 0,27 5,51 17,72 12,21 28,36 50,48 22,11 47,17 75,17 46,0 82,-13 108,-37 26,-25 39,-59 39,-102 0,-42 -13,-76 -39,-100 -25,-25 -60,-37 -105,-37z"/>
  <path id="71257640" style="fill:#1F1A17" d="M-664 1749l0 -305 26 0 0 286 147 0 0 19 -173 0z"/>
  <path id="71257640" style="fill:#1F1A17" d="M-220 1713c26,15 53,22 80,22 29,0 51,-5 65,-15 15,-10 22,-24 22,-43 0,-9 -2,-17 -6,-23 -4,-7 -10,-13 -18,-20 -9,-6 -27,-16 -56,-30 -27,-13 -45,-23 -55,-31 -10,-8 -17,-16 -22,-25 -6,-9 -8,-19 -8,-31 0,-15 4,-28 14,-40 9,-12 22,-21 39,-28 17,-7 37,-10 58,-10 23,0 45,3 66,9l0 24c-21,-9 -44,-13 -69,-13 -25,0 -44,5 -59,15 -15,11 -22,24 -22,40 0,11 2,20 6,27 4,6 11,13 21,20 10,6 27,16 52,28 23,10 40,20 52,29 13,8 21,17 27,26 5,9 7,19 7,31 0,25 -10,44 -30,58 -21,15 -48,22 -83,22 -12,0 -27,-2 -44,-5 -17,-4 -29,-8 -37,-11l0 -26z"/>
 </g>
</svg>
