<?xml version="1.0" encoding="UTF-8"?>
<svg width="353px" height="312px" viewBox="0 0 353 312" version="1.1" xmlns="http://www.w3.org/2000/svg" xmlns:xlink="http://www.w3.org/1999/xlink">
    <!-- Generator: Sketch 52.6 (67491) - http://www.bohemiancoding.com/sketch -->
    <title>check-mark</title>
    <desc>Created with Sketch.</desc>
    <g id="Page-1" stroke="none" stroke-width="1" fill="none" fill-rule="evenodd">
        <g id="check-mark" fill="#01A345" fill-rule="nonzero">
            <path d="M337.222,2.952 C321.31,-5.616 303.562,10.908 293.158,20.7 C269.291,43.956 249.095,70.884 226.45,95.364 C201.358,122.292 178.102,149.22 152.398,175.537 C137.71,190.225 121.798,206.137 112.006,224.497 C89.974,203.076 71.002,179.82 46.522,160.849 C28.774,147.385 -0.602,137.593 0.01,170.029 C1.234,212.258 38.566,257.546 66.106,286.309 C77.734,298.549 93.034,311.401 110.782,312.013 C132.202,313.237 154.234,287.533 167.086,273.457 C189.731,248.977 208.091,221.436 228.898,196.345 C255.826,163.297 283.366,130.86 309.682,97.2 C326.206,76.392 378.226,24.983 337.222,2.952 Z M26.937,167.581 C26.325,167.581 25.713,167.581 24.489,168.192 C22.041,167.581 20.205,166.968 17.757,165.744 C19.593,164.52 22.653,165.132 26.937,167.581 Z" id="Shape"></path>
        </g>
    </g>
</svg>