<svg xmlns="http://www.w3.org/2000/svg" width="26" height="26" viewBox="0 0 26 26">
  <g fill="#36B76A">
    <path d="M12.9308214,0 C5.80078571,0 0,5.80078571 0,12.9308214 C0,20.0608571 5.80078571,25.8616429 12.9308214,25.8616429 C20.0608571,25.8616429 25.8616429,20.0608571 25.8616429,12.9308214 C25.8611786,5.80078571 20.0608571,0 12.9308214,0 Z M12.9308214,23.7774643 C6.94989286,23.7774643 2.08417857,18.91175 2.08417857,12.9303571 C2.08417857,6.94942857 6.94989286,2.08371429 12.9308214,2.08371429 C18.91175,2.08371429 23.7774643,6.94989286 23.7774643,12.9308214 C23.7774643,18.91175 18.91175,23.7774643 12.9308214,23.7774643 Z"/>
    <path d="M17.05275,8.8075 L11.0170357,14.8436786 L8.80842857,12.6350714 C8.40171429,12.2278929 7.74196429,12.2278929 7.33525,12.6350714 C6.92807143,13.0417857 6.92807143,13.7015357 7.33525,14.10825 L10.2806786,17.0536786 C10.4840357,17.2570357 10.751,17.3591786 11.0175,17.3591786 C11.284,17.3591786 11.5505,17.2575 11.7538571,17.0536786 L18.5263929,10.2811429 C18.9331071,9.87396429 18.9331071,9.21467857 18.5263929,8.8075 C18.1192143,8.40078571 17.4599286,8.40078571 17.05275,8.8075 Z"/>
  </g>
</svg>
