<svg xmlns="http://www.w3.org/2000/svg" width="243" height="69" viewBox="0 0 243 69">
  <path fill="#D2CBE5" fill-rule="evenodd" d="M1336.89837,566 C1335.18539,566 1333.79675,564.620553 1333.79675,562.918919 C1333.79675,561.217285 1335.18539,559.837838 1336.89837,559.837838 C1338.61135,559.837838 1340,561.217285 1340,562.918919 C1340,564.620553 1338.61135,566 1336.89837,566 Z M1336.89837,544.432432 C1335.18539,544.432432 1333.79675,543.052985 1333.79675,541.351351 C1333.79675,539.649717 1335.18539,538.27027 1336.89837,538.27027 C1338.61135,538.27027 1340,539.649717 1340,541.351351 C1340,543.052985 1338.61135,544.432432 1336.89837,544.432432 Z M1336.89837,522.864865 C1335.18539,522.864865 1333.79675,521.485418 1333.79675,519.783784 C1333.79675,518.08215 1335.18539,516.702703 1336.89837,516.702703 C1338.61135,516.702703 1340,518.08215 1340,519.783784 C1340,521.485418 1338.61135,522.864865 1336.89837,522.864865 Z M1336.89837,501.297297 C1335.18539,501.297297 1333.79675,499.91785 1333.79675,498.216216 C1333.79675,496.514582 1335.18539,495.135135 1336.89837,495.135135 C1338.61135,495.135135 1340,496.514582 1340,498.216216 C1340,499.91785 1338.61135,501.297297 1336.89837,501.297297 Z M1336.89837,479.72973 C1335.18539,479.72973 1333.79675,478.350283 1333.79675,476.648649 C1333.79675,474.947015 1335.18539,473.567568 1336.89837,473.567568 C1338.61135,473.567568 1340,474.947015 1340,476.648649 C1340,478.350283 1338.61135,479.72973 1336.89837,479.72973 Z M1336.89837,458.162162 C1335.18539,458.162162 1333.79675,456.782715 1333.79675,455.081081 C1333.79675,453.379447 1335.18539,452 1336.89837,452 C1338.61135,452 1340,453.379447 1340,455.081081 C1340,456.782715 1338.61135,458.162162 1336.89837,458.162162 Z M1316.51626,566 C1314.80328,566 1313.41463,564.620553 1313.41463,562.918919 C1313.41463,561.217285 1314.80328,559.837838 1316.51626,559.837838 C1318.22924,559.837838 1319.61789,561.217285 1319.61789,562.918919 C1319.61789,564.620553 1318.22924,566 1316.51626,566 Z M1316.51626,544.432432 C1314.80328,544.432432 1313.41463,543.052985 1313.41463,541.351351 C1313.41463,539.649717 1314.80328,538.27027 1316.51626,538.27027 C1318.22924,538.27027 1319.61789,539.649717 1319.61789,541.351351 C1319.61789,543.052985 1318.22924,544.432432 1316.51626,544.432432 Z M1316.51626,522.864865 C1314.80328,522.864865 1313.41463,521.485418 1313.41463,519.783784 C1313.41463,518.08215 1314.80328,516.702703 1316.51626,516.702703 C1318.22924,516.702703 1319.61789,518.08215 1319.61789,519.783784 C1319.61789,521.485418 1318.22924,522.864865 1316.51626,522.864865 Z M1316.51626,501.297297 C1314.80328,501.297297 1313.41463,499.91785 1313.41463,498.216216 C1313.41463,496.514582 1314.80328,495.135135 1316.51626,495.135135 C1318.22924,495.135135 1319.61789,496.514582 1319.61789,498.216216 C1319.61789,499.91785 1318.22924,501.297297 1316.51626,501.297297 Z M1316.51626,479.72973 C1314.80328,479.72973 1313.41463,478.350283 1313.41463,476.648649 C1313.41463,474.947015 1314.80328,473.567568 1316.51626,473.567568 C1318.22924,473.567568 1319.61789,474.947015 1319.61789,476.648649 C1319.61789,478.350283 1318.22924,479.72973 1316.51626,479.72973 Z M1316.51626,458.162162 C1314.80328,458.162162 1313.41463,456.782715 1313.41463,455.081081 C1313.41463,453.379447 1314.80328,452 1316.51626,452 C1318.22924,452 1319.61789,453.379447 1319.61789,455.081081 C1319.61789,456.782715 1318.22924,458.162162 1316.51626,458.162162 Z M1296.13415,566 C1294.42117,566 1293.03252,564.620553 1293.03252,562.918919 C1293.03252,561.217285 1294.42117,559.837838 1296.13415,559.837838 C1297.84713,559.837838 1299.23577,561.217285 1299.23577,562.918919 C1299.23577,564.620553 1297.84713,566 1296.13415,566 Z M1296.13415,544.432432 C1294.42117,544.432432 1293.03252,543.052985 1293.03252,541.351351 C1293.03252,539.649717 1294.42117,538.27027 1296.13415,538.27027 C1297.84713,538.27027 1299.23577,539.649717 1299.23577,541.351351 C1299.23577,543.052985 1297.84713,544.432432 1296.13415,544.432432 Z M1296.13415,522.864865 C1294.42117,522.864865 1293.03252,521.485418 1293.03252,519.783784 C1293.03252,518.08215 1294.42117,516.702703 1296.13415,516.702703 C1297.84713,516.702703 1299.23577,518.08215 1299.23577,519.783784 C1299.23577,521.485418 1297.84713,522.864865 1296.13415,522.864865 Z M1296.13415,501.297297 C1294.42117,501.297297 1293.03252,499.91785 1293.03252,498.216216 C1293.03252,496.514582 1294.42117,495.135135 1296.13415,495.135135 C1297.84713,495.135135 1299.23577,496.514582 1299.23577,498.216216 C1299.23577,499.91785 1297.84713,501.297297 1296.13415,501.297297 Z M1296.13415,479.72973 C1294.42117,479.72973 1293.03252,478.350283 1293.03252,476.648649 C1293.03252,474.947015 1294.42117,473.567568 1296.13415,473.567568 C1297.84713,473.567568 1299.23577,474.947015 1299.23577,476.648649 C1299.23577,478.350283 1297.84713,479.72973 1296.13415,479.72973 Z M1296.13415,458.162162 C1294.42117,458.162162 1293.03252,456.782715 1293.03252,455.081081 C1293.03252,453.379447 1294.42117,452 1296.13415,452 C1297.84713,452 1299.23577,453.379447 1299.23577,455.081081 C1299.23577,456.782715 1297.84713,458.162162 1296.13415,458.162162 Z M1274.86585,566 C1273.15287,566 1271.76423,564.620553 1271.76423,562.918919 C1271.76423,561.217285 1273.15287,559.837838 1274.86585,559.837838 C1276.57883,559.837838 1277.96748,561.217285 1277.96748,562.918919 C1277.96748,564.620553 1276.57883,566 1274.86585,566 Z M1274.86585,544.432432 C1273.15287,544.432432 1271.76423,543.052985 1271.76423,541.351351 C1271.76423,539.649717 1273.15287,538.27027 1274.86585,538.27027 C1276.57883,538.27027 1277.96748,539.649717 1277.96748,541.351351 C1277.96748,543.052985 1276.57883,544.432432 1274.86585,544.432432 Z M1274.86585,522.864865 C1273.15287,522.864865 1271.76423,521.485418 1271.76423,519.783784 C1271.76423,518.08215 1273.15287,516.702703 1274.86585,516.702703 C1276.57883,516.702703 1277.96748,518.08215 1277.96748,519.783784 C1277.96748,521.485418 1276.57883,522.864865 1274.86585,522.864865 Z M1274.86585,501.297297 C1273.15287,501.297297 1271.76423,499.91785 1271.76423,498.216216 C1271.76423,496.514582 1273.15287,495.135135 1274.86585,495.135135 C1276.57883,495.135135 1277.96748,496.514582 1277.96748,498.216216 C1277.96748,499.91785 1276.57883,501.297297 1274.86585,501.297297 Z M1274.86585,479.72973 C1273.15287,479.72973 1271.76423,478.350283 1271.76423,476.648649 C1271.76423,474.947015 1273.15287,473.567568 1274.86585,473.567568 C1276.57883,473.567568 1277.96748,474.947015 1277.96748,476.648649 C1277.96748,478.350283 1276.57883,479.72973 1274.86585,479.72973 Z M1274.86585,458.162162 C1273.15287,458.162162 1271.76423,456.782715 1271.76423,455.081081 C1271.76423,453.379447 1273.15287,452 1274.86585,452 C1276.57883,452 1277.96748,453.379447 1277.96748,455.081081 C1277.96748,456.782715 1276.57883,458.162162 1274.86585,458.162162 Z M1254.48374,566 C1252.77076,566 1251.38211,564.620553 1251.38211,562.918919 C1251.38211,561.217285 1252.77076,559.837838 1254.48374,559.837838 C1256.19672,559.837838 1257.58537,561.217285 1257.58537,562.918919 C1257.58537,564.620553 1256.19672,566 1254.48374,566 Z M1254.48374,544.432432 C1252.77076,544.432432 1251.38211,543.052985 1251.38211,541.351351 C1251.38211,539.649717 1252.77076,538.27027 1254.48374,538.27027 C1256.19672,538.27027 1257.58537,539.649717 1257.58537,541.351351 C1257.58537,543.052985 1256.19672,544.432432 1254.48374,544.432432 Z M1254.48374,522.864865 C1252.77076,522.864865 1251.38211,521.485418 1251.38211,519.783784 C1251.38211,518.08215 1252.77076,516.702703 1254.48374,516.702703 C1256.19672,516.702703 1257.58537,518.08215 1257.58537,519.783784 C1257.58537,521.485418 1256.19672,522.864865 1254.48374,522.864865 Z M1254.48374,501.297297 C1252.77076,501.297297 1251.38211,499.91785 1251.38211,498.216216 C1251.38211,496.514582 1252.77076,495.135135 1254.48374,495.135135 C1256.19672,495.135135 1257.58537,496.514582 1257.58537,498.216216 C1257.58537,499.91785 1256.19672,501.297297 1254.48374,501.297297 Z M1254.48374,479.72973 C1252.77076,479.72973 1251.38211,478.350283 1251.38211,476.648649 C1251.38211,474.947015 1252.77076,473.567568 1254.48374,473.567568 C1256.19672,473.567568 1257.58537,474.947015 1257.58537,476.648649 C1257.58537,478.350283 1256.19672,479.72973 1254.48374,479.72973 Z M1254.48374,458.162162 C1252.77076,458.162162 1251.38211,456.782715 1251.38211,455.081081 C1251.38211,453.379447 1252.77076,452 1254.48374,452 C1256.19672,452 1257.58537,453.379447 1257.58537,455.081081 C1257.58537,456.782715 1256.19672,458.162162 1254.48374,458.162162 Z M1234.10163,566 C1232.38865,566 1231,564.620553 1231,562.918919 C1231,561.217285 1232.38865,559.837838 1234.10163,559.837838 C1235.81461,559.837838 1237.20325,561.217285 1237.20325,562.918919 C1237.20325,564.620553 1235.81461,566 1234.10163,566 Z M1234.10163,544.432432 C1232.38865,544.432432 1231,543.052985 1231,541.351351 C1231,539.649717 1232.38865,538.27027 1234.10163,538.27027 C1235.81461,538.27027 1237.20325,539.649717 1237.20325,541.351351 C1237.20325,543.052985 1235.81461,544.432432 1234.10163,544.432432 Z M1234.10163,522.864865 C1232.38865,522.864865 1231,521.485418 1231,519.783784 C1231,518.08215 1232.38865,516.702703 1234.10163,516.702703 C1235.81461,516.702703 1237.20325,518.08215 1237.20325,519.783784 C1237.20325,521.485418 1235.81461,522.864865 1234.10163,522.864865 Z M1234.10163,501.297297 C1232.38865,501.297297 1231,499.91785 1231,498.216216 C1231,496.514582 1232.38865,495.135135 1234.10163,495.135135 C1235.81461,495.135135 1237.20325,496.514582 1237.20325,498.216216 C1237.20325,499.91785 1235.81461,501.297297 1234.10163,501.297297 Z M1234.10163,479.72973 C1232.38865,479.72973 1231,478.350283 1231,476.648649 C1231,474.947015 1232.38865,473.567568 1234.10163,473.567568 C1235.81461,473.567568 1237.20325,474.947015 1237.20325,476.648649 C1237.20325,478.350283 1235.81461,479.72973 1234.10163,479.72973 Z M1234.10163,458.162162 C1232.38865,458.162162 1231,456.782715 1231,455.081081 C1231,453.379447 1232.38865,452 1234.10163,452 C1235.81461,452 1237.20325,453.379447 1237.20325,455.081081 C1237.20325,456.782715 1235.81461,458.162162 1234.10163,458.162162 Z M1336.89837,695 C1335.18539,695 1333.79675,693.620553 1333.79675,691.918919 C1333.79675,690.217285 1335.18539,688.837838 1336.89837,688.837838 C1338.61135,688.837838 1340,690.217285 1340,691.918919 C1340,693.620553 1338.61135,695 1336.89837,695 Z M1336.89837,673.432432 C1335.18539,673.432432 1333.79675,672.052985 1333.79675,670.351351 C1333.79675,668.649717 1335.18539,667.27027 1336.89837,667.27027 C1338.61135,667.27027 1340,668.649717 1340,670.351351 C1340,672.052985 1338.61135,673.432432 1336.89837,673.432432 Z M1336.89837,651.864865 C1335.18539,651.864865 1333.79675,650.485418 1333.79675,648.783784 C1333.79675,647.08215 1335.18539,645.702703 1336.89837,645.702703 C1338.61135,645.702703 1340,647.08215 1340,648.783784 C1340,650.485418 1338.61135,651.864865 1336.89837,651.864865 Z M1336.89837,630.297297 C1335.18539,630.297297 1333.79675,628.91785 1333.79675,627.216216 C1333.79675,625.514582 1335.18539,624.135135 1336.89837,624.135135 C1338.61135,624.135135 1340,625.514582 1340,627.216216 C1340,628.91785 1338.61135,630.297297 1336.89837,630.297297 Z M1336.89837,608.72973 C1335.18539,608.72973 1333.79675,607.350283 1333.79675,605.648649 C1333.79675,603.947015 1335.18539,602.567568 1336.89837,602.567568 C1338.61135,602.567568 1340,603.947015 1340,605.648649 C1340,607.350283 1338.61135,608.72973 1336.89837,608.72973 Z M1336.89837,587.162162 C1335.18539,587.162162 1333.79675,585.782715 1333.79675,584.081081 C1333.79675,582.379447 1335.18539,581 1336.89837,581 C1338.61135,581 1340,582.379447 1340,584.081081 C1340,585.782715 1338.61135,587.162162 1336.89837,587.162162 Z M1316.51626,695 C1314.80328,695 1313.41463,693.620553 1313.41463,691.918919 C1313.41463,690.217285 1314.80328,688.837838 1316.51626,688.837838 C1318.22924,688.837838 1319.61789,690.217285 1319.61789,691.918919 C1319.61789,693.620553 1318.22924,695 1316.51626,695 Z M1316.51626,673.432432 C1314.80328,673.432432 1313.41463,672.052985 1313.41463,670.351351 C1313.41463,668.649717 1314.80328,667.27027 1316.51626,667.27027 C1318.22924,667.27027 1319.61789,668.649717 1319.61789,670.351351 C1319.61789,672.052985 1318.22924,673.432432 1316.51626,673.432432 Z M1316.51626,651.864865 C1314.80328,651.864865 1313.41463,650.485418 1313.41463,648.783784 C1313.41463,647.08215 1314.80328,645.702703 1316.51626,645.702703 C1318.22924,645.702703 1319.61789,647.08215 1319.61789,648.783784 C1319.61789,650.485418 1318.22924,651.864865 1316.51626,651.864865 Z M1316.51626,630.297297 C1314.80328,630.297297 1313.41463,628.91785 1313.41463,627.216216 C1313.41463,625.514582 1314.80328,624.135135 1316.51626,624.135135 C1318.22924,624.135135 1319.61789,625.514582 1319.61789,627.216216 C1319.61789,628.91785 1318.22924,630.297297 1316.51626,630.297297 Z M1316.51626,608.72973 C1314.80328,608.72973 1313.41463,607.350283 1313.41463,605.648649 C1313.41463,603.947015 1314.80328,602.567568 1316.51626,602.567568 C1318.22924,602.567568 1319.61789,603.947015 1319.61789,605.648649 C1319.61789,607.350283 1318.22924,608.72973 1316.51626,608.72973 Z M1316.51626,587.162162 C1314.80328,587.162162 1313.41463,585.782715 1313.41463,584.081081 C1313.41463,582.379447 1314.80328,581 1316.51626,581 C1318.22924,581 1319.61789,582.379447 1319.61789,584.081081 C1319.61789,585.782715 1318.22924,587.162162 1316.51626,587.162162 Z M1296.13415,695 C1294.42117,695 1293.03252,693.620553 1293.03252,691.918919 C1293.03252,690.217285 1294.42117,688.837838 1296.13415,688.837838 C1297.84713,688.837838 1299.23577,690.217285 1299.23577,691.918919 C1299.23577,693.620553 1297.84713,695 1296.13415,695 Z M1296.13415,673.432432 C1294.42117,673.432432 1293.03252,672.052985 1293.03252,670.351351 C1293.03252,668.649717 1294.42117,667.27027 1296.13415,667.27027 C1297.84713,667.27027 1299.23577,668.649717 1299.23577,670.351351 C1299.23577,672.052985 1297.84713,673.432432 1296.13415,673.432432 Z M1296.13415,651.864865 C1294.42117,651.864865 1293.03252,650.485418 1293.03252,648.783784 C1293.03252,647.08215 1294.42117,645.702703 1296.13415,645.702703 C1297.84713,645.702703 1299.23577,647.08215 1299.23577,648.783784 C1299.23577,650.485418 1297.84713,651.864865 1296.13415,651.864865 Z M1296.13415,630.297297 C1294.42117,630.297297 1293.03252,628.91785 1293.03252,627.216216 C1293.03252,625.514582 1294.42117,624.135135 1296.13415,624.135135 C1297.84713,624.135135 1299.23577,625.514582 1299.23577,627.216216 C1299.23577,628.91785 1297.84713,630.297297 1296.13415,630.297297 Z M1296.13415,608.72973 C1294.42117,608.72973 1293.03252,607.350283 1293.03252,605.648649 C1293.03252,603.947015 1294.42117,602.567568 1296.13415,602.567568 C1297.84713,602.567568 1299.23577,603.947015 1299.23577,605.648649 C1299.23577,607.350283 1297.84713,608.72973 1296.13415,608.72973 Z M1296.13415,587.162162 C1294.42117,587.162162 1293.03252,585.782715 1293.03252,584.081081 C1293.03252,582.379447 1294.42117,581 1296.13415,581 C1297.84713,581 1299.23577,582.379447 1299.23577,584.081081 C1299.23577,585.782715 1297.84713,587.162162 1296.13415,587.162162 Z M1274.86585,695 C1273.15287,695 1271.76423,693.620553 1271.76423,691.918919 C1271.76423,690.217285 1273.15287,688.837838 1274.86585,688.837838 C1276.57883,688.837838 1277.96748,690.217285 1277.96748,691.918919 C1277.96748,693.620553 1276.57883,695 1274.86585,695 Z M1274.86585,673.432432 C1273.15287,673.432432 1271.76423,672.052985 1271.76423,670.351351 C1271.76423,668.649717 1273.15287,667.27027 1274.86585,667.27027 C1276.57883,667.27027 1277.96748,668.649717 1277.96748,670.351351 C1277.96748,672.052985 1276.57883,673.432432 1274.86585,673.432432 Z M1274.86585,651.864865 C1273.15287,651.864865 1271.76423,650.485418 1271.76423,648.783784 C1271.76423,647.08215 1273.15287,645.702703 1274.86585,645.702703 C1276.57883,645.702703 1277.96748,647.08215 1277.96748,648.783784 C1277.96748,650.485418 1276.57883,651.864865 1274.86585,651.864865 Z M1274.86585,630.297297 C1273.15287,630.297297 1271.76423,628.91785 1271.76423,627.216216 C1271.76423,625.514582 1273.15287,624.135135 1274.86585,624.135135 C1276.57883,624.135135 1277.96748,625.514582 1277.96748,627.216216 C1277.96748,628.91785 1276.57883,630.297297 1274.86585,630.297297 Z M1274.86585,608.72973 C1273.15287,608.72973 1271.76423,607.350283 1271.76423,605.648649 C1271.76423,603.947015 1273.15287,602.567568 1274.86585,602.567568 C1276.57883,602.567568 1277.96748,603.947015 1277.96748,605.648649 C1277.96748,607.350283 1276.57883,608.72973 1274.86585,608.72973 Z M1274.86585,587.162162 C1273.15287,587.162162 1271.76423,585.782715 1271.76423,584.081081 C1271.76423,582.379447 1273.15287,581 1274.86585,581 C1276.57883,581 1277.96748,582.379447 1277.96748,584.081081 C1277.96748,585.782715 1276.57883,587.162162 1274.86585,587.162162 Z M1254.48374,695 C1252.77076,695 1251.38211,693.620553 1251.38211,691.918919 C1251.38211,690.217285 1252.77076,688.837838 1254.48374,688.837838 C1256.19672,688.837838 1257.58537,690.217285 1257.58537,691.918919 C1257.58537,693.620553 1256.19672,695 1254.48374,695 Z M1254.48374,673.432432 C1252.77076,673.432432 1251.38211,672.052985 1251.38211,670.351351 C1251.38211,668.649717 1252.77076,667.27027 1254.48374,667.27027 C1256.19672,667.27027 1257.58537,668.649717 1257.58537,670.351351 C1257.58537,672.052985 1256.19672,673.432432 1254.48374,673.432432 Z M1254.48374,651.864865 C1252.77076,651.864865 1251.38211,650.485418 1251.38211,648.783784 C1251.38211,647.08215 1252.77076,645.702703 1254.48374,645.702703 C1256.19672,645.702703 1257.58537,647.08215 1257.58537,648.783784 C1257.58537,650.485418 1256.19672,651.864865 1254.48374,651.864865 Z M1254.48374,630.297297 C1252.77076,630.297297 1251.38211,628.91785 1251.38211,627.216216 C1251.38211,625.514582 1252.77076,624.135135 1254.48374,624.135135 C1256.19672,624.135135 1257.58537,625.514582 1257.58537,627.216216 C1257.58537,628.91785 1256.19672,630.297297 1254.48374,630.297297 Z M1254.48374,608.72973 C1252.77076,608.72973 1251.38211,607.350283 1251.38211,605.648649 C1251.38211,603.947015 1252.77076,602.567568 1254.48374,602.567568 C1256.19672,602.567568 1257.58537,603.947015 1257.58537,605.648649 C1257.58537,607.350283 1256.19672,608.72973 1254.48374,608.72973 Z M1254.48374,587.162162 C1252.77076,587.162162 1251.38211,585.782715 1251.38211,584.081081 C1251.38211,582.379447 1252.77076,581 1254.48374,581 C1256.19672,581 1257.58537,582.379447 1257.58537,584.081081 C1257.58537,585.782715 1256.19672,587.162162 1254.48374,587.162162 Z M1234.10163,695 C1232.38865,695 1231,693.620553 1231,691.918919 C1231,690.217285 1232.38865,688.837838 1234.10163,688.837838 C1235.81461,688.837838 1237.20325,690.217285 1237.20325,691.918919 C1237.20325,693.620553 1235.81461,695 1234.10163,695 Z M1234.10163,673.432432 C1232.38865,673.432432 1231,672.052985 1231,670.351351 C1231,668.649717 1232.38865,667.27027 1234.10163,667.27027 C1235.81461,667.27027 1237.20325,668.649717 1237.20325,670.351351 C1237.20325,672.052985 1235.81461,673.432432 1234.10163,673.432432 Z M1234.10163,651.864865 C1232.38865,651.864865 1231,650.485418 1231,648.783784 C1231,647.08215 1232.38865,645.702703 1234.10163,645.702703 C1235.81461,645.702703 1237.20325,647.08215 1237.20325,648.783784 C1237.20325,650.485418 1235.81461,651.864865 1234.10163,651.864865 Z M1234.10163,630.297297 C1232.38865,630.297297 1231,628.91785 1231,627.216216 C1231,625.514582 1232.38865,624.135135 1234.10163,624.135135 C1235.81461,624.135135 1237.20325,625.514582 1237.20325,627.216216 C1237.20325,628.91785 1235.81461,630.297297 1234.10163,630.297297 Z M1234.10163,608.72973 C1232.38865,608.72973 1231,607.350283 1231,605.648649 C1231,603.947015 1232.38865,602.567568 1234.10163,602.567568 C1235.81461,602.567568 1237.20325,603.947015 1237.20325,605.648649 C1237.20325,607.350283 1235.81461,608.72973 1234.10163,608.72973 Z M1234.10163,587.162162 C1232.38865,587.162162 1231,585.782715 1231,584.081081 C1231,582.379447 1232.38865,581 1234.10163,581 C1235.81461,581 1237.20325,582.379447 1237.20325,584.081081 C1237.20325,585.782715 1235.81461,587.162162 1234.10163,587.162162 Z" opacity=".3" transform="rotate(90 963 -268)"/>
</svg>
