<svg xmlns="http://www.w3.org/2000/svg" width="1440" height="330" viewBox="0 0 1440 330">
    <g fill="none" fill-rule="evenodd">
        <path fill="#F8F6FB" d="M0 0h1440v330H0z"/>
        <path fill="#A77FFF" fill-opacity=".2" d="M1336.912 197.449a3.182 3.182 0 0 1-3.188-3.177 3.182 3.182 0 0 1 3.188-3.176 3.182 3.182 0 0 1 3.189 3.176 3.182 3.182 0 0 1-3.189 3.177zm0-22.234a3.182 3.182 0 0 1-3.188-3.176 3.182 3.182 0 0 1 3.188-3.176 3.182 3.182 0 0 1 3.189 3.176 3.182 3.182 0 0 1-3.189 3.176zm0-22.233a3.182 3.182 0 0 1-3.188-3.177 3.182 3.182 0 0 1 3.188-3.176 3.182 3.182 0 0 1 3.189 3.176 3.182 3.182 0 0 1-3.189 3.177zm0-22.234a3.182 3.182 0 0 1-3.188-3.176 3.182 3.182 0 0 1 3.188-3.176 3.182 3.182 0 0 1 3.189 3.176 3.182 3.182 0 0 1-3.189 3.176zm-20.953 66.7a3.182 3.182 0 0 1-3.189-3.176 3.182 3.182 0 0 1 3.189-3.176 3.182 3.182 0 0 1 3.188 3.176 3.182 3.182 0 0 1-3.188 3.177zm0-22.233a3.182 3.182 0 0 1-3.189-3.176 3.182 3.182 0 0 1 3.189-3.176 3.182 3.182 0 0 1 3.188 3.176 3.182 3.182 0 0 1-3.188 3.176zm0-22.233a3.182 3.182 0 0 1-3.189-3.177 3.182 3.182 0 0 1 3.189-3.176 3.182 3.182 0 0 1 3.188 3.176 3.182 3.182 0 0 1-3.188 3.177zm0-22.234a3.182 3.182 0 0 1-3.189-3.176 3.182 3.182 0 0 1 3.189-3.176 3.182 3.182 0 0 1 3.188 3.176 3.182 3.182 0 0 1-3.188 3.176zm-21.864 66.7a3.182 3.182 0 0 1-3.189-3.176 3.182 3.182 0 0 1 3.189-3.176 3.182 3.182 0 0 1 3.188 3.176 3.182 3.182 0 0 1-3.188 3.177zm0-22.233a3.182 3.182 0 0 1-3.189-3.176 3.182 3.182 0 0 1 3.189-3.176 3.182 3.182 0 0 1 3.188 3.176 3.182 3.182 0 0 1-3.188 3.176zm0-22.233a3.182 3.182 0 0 1-3.189-3.177 3.182 3.182 0 0 1 3.189-3.176 3.182 3.182 0 0 1 3.188 3.176 3.182 3.182 0 0 1-3.188 3.177zm0-22.234a3.182 3.182 0 0 1-3.189-3.176 3.182 3.182 0 0 1 3.189-3.176 3.182 3.182 0 0 1 3.188 3.176 3.182 3.182 0 0 1-3.188 3.176zm-20.953 66.7a3.182 3.182 0 0 1-3.189-3.176 3.182 3.182 0 0 1 3.189-3.176 3.182 3.182 0 0 1 3.188 3.176 3.182 3.182 0 0 1-3.188 3.177zm0-22.233a3.182 3.182 0 0 1-3.189-3.176 3.182 3.182 0 0 1 3.189-3.176 3.182 3.182 0 0 1 3.188 3.176 3.182 3.182 0 0 1-3.188 3.176zm0-22.233a3.182 3.182 0 0 1-3.189-3.177 3.182 3.182 0 0 1 3.189-3.176 3.182 3.182 0 0 1 3.188 3.176 3.182 3.182 0 0 1-3.188 3.177zm0-22.234a3.182 3.182 0 0 1-3.189-3.176 3.182 3.182 0 0 1 3.189-3.176 3.182 3.182 0 0 1 3.188 3.176 3.182 3.182 0 0 1-3.188 3.176zm-20.953 66.7a3.182 3.182 0 0 1-3.189-3.176 3.182 3.182 0 0 1 3.189-3.176 3.182 3.182 0 0 1 3.188 3.176 3.182 3.182 0 0 1-3.188 3.177zm0-22.233a3.182 3.182 0 0 1-3.189-3.176 3.182 3.182 0 0 1 3.189-3.176 3.182 3.182 0 0 1 3.188 3.176 3.182 3.182 0 0 1-3.188 3.176zm0-22.233a3.182 3.182 0 0 1-3.189-3.177 3.182 3.182 0 0 1 3.189-3.176 3.182 3.182 0 0 1 3.188 3.176 3.182 3.182 0 0 1-3.188 3.177zm0-22.234a3.182 3.182 0 0 1-3.189-3.176 3.182 3.182 0 0 1 3.189-3.176 3.182 3.182 0 0 1 3.188 3.176 3.182 3.182 0 0 1-3.188 3.176zM1336.912 330a3.182 3.182 0 0 1-3.188-3.176 3.182 3.182 0 0 1 3.188-3.176 3.182 3.182 0 0 1 3.189 3.176 3.182 3.182 0 0 1-3.189 3.176zm0-22.233a3.182 3.182 0 0 1-3.188-3.177 3.182 3.182 0 0 1 3.188-3.176 3.182 3.182 0 0 1 3.189 3.176 3.182 3.182 0 0 1-3.189 3.177zm0-22.234a3.182 3.182 0 0 1-3.188-3.176 3.182 3.182 0 0 1 3.188-3.176 3.182 3.182 0 0 1 3.189 3.176 3.182 3.182 0 0 1-3.189 3.176zm0-22.233a3.182 3.182 0 0 1-3.188-3.177 3.182 3.182 0 0 1 3.188-3.176 3.182 3.182 0 0 1 3.189 3.176 3.182 3.182 0 0 1-3.189 3.177zm0-22.234a3.182 3.182 0 0 1-3.188-3.176 3.182 3.182 0 0 1 3.188-3.176 3.182 3.182 0 0 1 3.189 3.176 3.182 3.182 0 0 1-3.189 3.176zm0-22.233a3.182 3.182 0 0 1-3.188-3.177 3.182 3.182 0 0 1 3.188-3.176 3.182 3.182 0 0 1 3.189 3.176 3.182 3.182 0 0 1-3.189 3.177zM1315.96 330a3.182 3.182 0 0 1-3.189-3.176 3.182 3.182 0 0 1 3.189-3.176 3.182 3.182 0 0 1 3.188 3.176 3.182 3.182 0 0 1-3.188 3.176zm0-22.233a3.182 3.182 0 0 1-3.189-3.177 3.182 3.182 0 0 1 3.189-3.176 3.182 3.182 0 0 1 3.188 3.176 3.182 3.182 0 0 1-3.188 3.177zm0-22.234a3.182 3.182 0 0 1-3.189-3.176 3.182 3.182 0 0 1 3.189-3.176 3.182 3.182 0 0 1 3.188 3.176 3.182 3.182 0 0 1-3.188 3.176zm0-22.233a3.182 3.182 0 0 1-3.189-3.177 3.182 3.182 0 0 1 3.189-3.176 3.182 3.182 0 0 1 3.188 3.176 3.182 3.182 0 0 1-3.188 3.177zm0-22.234a3.182 3.182 0 0 1-3.189-3.176 3.182 3.182 0 0 1 3.189-3.176 3.182 3.182 0 0 1 3.188 3.176 3.182 3.182 0 0 1-3.188 3.176zm0-22.233a3.182 3.182 0 0 1-3.189-3.177 3.182 3.182 0 0 1 3.189-3.176 3.182 3.182 0 0 1 3.188 3.176 3.182 3.182 0 0 1-3.188 3.177zM1294.095 330a3.182 3.182 0 0 1-3.189-3.176 3.182 3.182 0 0 1 3.189-3.176 3.182 3.182 0 0 1 3.188 3.176 3.182 3.182 0 0 1-3.188 3.176zm0-22.233a3.182 3.182 0 0 1-3.189-3.177 3.182 3.182 0 0 1 3.189-3.176 3.182 3.182 0 0 1 3.188 3.176 3.182 3.182 0 0 1-3.188 3.177zm0-22.234a3.182 3.182 0 0 1-3.189-3.176 3.182 3.182 0 0 1 3.189-3.176 3.182 3.182 0 0 1 3.188 3.176 3.182 3.182 0 0 1-3.188 3.176zm0-22.233a3.182 3.182 0 0 1-3.189-3.177 3.182 3.182 0 0 1 3.189-3.176 3.182 3.182 0 0 1 3.188 3.176 3.182 3.182 0 0 1-3.188 3.177zm0-22.234a3.182 3.182 0 0 1-3.189-3.176 3.182 3.182 0 0 1 3.189-3.176 3.182 3.182 0 0 1 3.188 3.176 3.182 3.182 0 0 1-3.188 3.176zm0-22.233a3.182 3.182 0 0 1-3.189-3.177 3.182 3.182 0 0 1 3.189-3.176 3.182 3.182 0 0 1 3.188 3.176 3.182 3.182 0 0 1-3.188 3.177zM1273.142 330a3.182 3.182 0 0 1-3.189-3.176 3.182 3.182 0 0 1 3.189-3.176 3.182 3.182 0 0 1 3.188 3.176 3.182 3.182 0 0 1-3.188 3.176zm0-22.233a3.182 3.182 0 0 1-3.189-3.177 3.182 3.182 0 0 1 3.189-3.176 3.182 3.182 0 0 1 3.188 3.176 3.182 3.182 0 0 1-3.188 3.177zm0-22.234a3.182 3.182 0 0 1-3.189-3.176 3.182 3.182 0 0 1 3.189-3.176 3.182 3.182 0 0 1 3.188 3.176 3.182 3.182 0 0 1-3.188 3.176zm0-22.233a3.182 3.182 0 0 1-3.189-3.177 3.182 3.182 0 0 1 3.189-3.176 3.182 3.182 0 0 1 3.188 3.176 3.182 3.182 0 0 1-3.188 3.177zm0-22.234a3.182 3.182 0 0 1-3.189-3.176 3.182 3.182 0 0 1 3.189-3.176 3.182 3.182 0 0 1 3.188 3.176 3.182 3.182 0 0 1-3.188 3.176zm0-22.233a3.182 3.182 0 0 1-3.189-3.177 3.182 3.182 0 0 1 3.189-3.176 3.182 3.182 0 0 1 3.188 3.176 3.182 3.182 0 0 1-3.188 3.177zM1252.189 330a3.182 3.182 0 0 1-3.189-3.176 3.182 3.182 0 0 1 3.189-3.176 3.182 3.182 0 0 1 3.188 3.176 3.182 3.182 0 0 1-3.188 3.176zm0-22.233a3.182 3.182 0 0 1-3.189-3.177 3.182 3.182 0 0 1 3.189-3.176 3.182 3.182 0 0 1 3.188 3.176 3.182 3.182 0 0 1-3.188 3.177zm0-22.234a3.182 3.182 0 0 1-3.189-3.176 3.182 3.182 0 0 1 3.189-3.176 3.182 3.182 0 0 1 3.188 3.176 3.182 3.182 0 0 1-3.188 3.176zm0-22.233a3.182 3.182 0 0 1-3.189-3.177 3.182 3.182 0 0 1 3.189-3.176 3.182 3.182 0 0 1 3.188 3.176 3.182 3.182 0 0 1-3.188 3.177zm0-22.234a3.182 3.182 0 0 1-3.189-3.176 3.182 3.182 0 0 1 3.189-3.176 3.182 3.182 0 0 1 3.188 3.176 3.182 3.182 0 0 1-3.188 3.176zm0-22.233a3.182 3.182 0 0 1-3.189-3.177 3.182 3.182 0 0 1 3.189-3.176 3.182 3.182 0 0 1 3.188 3.176 3.182 3.182 0 0 1-3.188 3.177zM188.811 95.52a3.182 3.182 0 0 1-3.188-3.176 3.182 3.182 0 0 1 3.188-3.177A3.182 3.182 0 0 1 192 92.344a3.182 3.182 0 0 1-3.189 3.176zm0-22.234a3.182 3.182 0 0 1-3.188-3.176 3.182 3.182 0 0 1 3.188-3.176A3.182 3.182 0 0 1 192 70.11a3.182 3.182 0 0 1-3.189 3.176zm0-22.233a3.182 3.182 0 0 1-3.188-3.176 3.182 3.182 0 0 1 3.188-3.177A3.182 3.182 0 0 1 192 47.877a3.182 3.182 0 0 1-3.189 3.176zm0-22.234a3.182 3.182 0 0 1-3.188-3.176 3.182 3.182 0 0 1 3.188-3.176A3.182 3.182 0 0 1 192 25.643a3.182 3.182 0 0 1-3.189 3.176zm0-22.233a3.182 3.182 0 0 1-3.188-3.176 3.182 3.182 0 0 1 3.188-3.177A3.182 3.182 0 0 1 192 3.41a3.182 3.182 0 0 1-3.189 3.176zM167.858 95.52a3.182 3.182 0 0 1-3.188-3.176 3.182 3.182 0 0 1 3.188-3.177 3.182 3.182 0 0 1 3.189 3.177 3.182 3.182 0 0 1-3.189 3.176zm0-22.234a3.182 3.182 0 0 1-3.188-3.176 3.182 3.182 0 0 1 3.188-3.176 3.182 3.182 0 0 1 3.189 3.176 3.182 3.182 0 0 1-3.189 3.176zm0-22.233a3.182 3.182 0 0 1-3.188-3.176 3.182 3.182 0 0 1 3.188-3.177 3.182 3.182 0 0 1 3.189 3.177 3.182 3.182 0 0 1-3.189 3.176zm0-22.234a3.182 3.182 0 0 1-3.188-3.176 3.182 3.182 0 0 1 3.188-3.176 3.182 3.182 0 0 1 3.189 3.176 3.182 3.182 0 0 1-3.189 3.176zm0-22.233a3.182 3.182 0 0 1-3.188-3.176 3.182 3.182 0 0 1 3.188-3.177 3.182 3.182 0 0 1 3.189 3.177 3.182 3.182 0 0 1-3.189 3.176zM145.994 95.52a3.182 3.182 0 0 1-3.188-3.176 3.182 3.182 0 0 1 3.188-3.177 3.182 3.182 0 0 1 3.189 3.177 3.182 3.182 0 0 1-3.189 3.176zm0-22.234a3.182 3.182 0 0 1-3.188-3.176 3.182 3.182 0 0 1 3.188-3.176 3.182 3.182 0 0 1 3.189 3.176 3.182 3.182 0 0 1-3.189 3.176zm0-22.233a3.182 3.182 0 0 1-3.188-3.176 3.182 3.182 0 0 1 3.188-3.177 3.182 3.182 0 0 1 3.189 3.177 3.182 3.182 0 0 1-3.189 3.176zm0-22.234a3.182 3.182 0 0 1-3.188-3.176 3.182 3.182 0 0 1 3.188-3.176 3.182 3.182 0 0 1 3.189 3.176 3.182 3.182 0 0 1-3.189 3.176zm0-22.233a3.182 3.182 0 0 1-3.188-3.176 3.182 3.182 0 0 1 3.188-3.177 3.182 3.182 0 0 1 3.189 3.177 3.182 3.182 0 0 1-3.189 3.176zM125.041 95.52a3.182 3.182 0 0 1-3.188-3.176 3.182 3.182 0 0 1 3.188-3.177 3.182 3.182 0 0 1 3.189 3.177 3.182 3.182 0 0 1-3.189 3.176zm0-22.234a3.182 3.182 0 0 1-3.188-3.176 3.182 3.182 0 0 1 3.188-3.176 3.182 3.182 0 0 1 3.189 3.176 3.182 3.182 0 0 1-3.189 3.176zm0-22.233a3.182 3.182 0 0 1-3.188-3.176 3.182 3.182 0 0 1 3.188-3.177 3.182 3.182 0 0 1 3.189 3.177 3.182 3.182 0 0 1-3.189 3.176zm0-22.234a3.182 3.182 0 0 1-3.188-3.176 3.182 3.182 0 0 1 3.188-3.176 3.182 3.182 0 0 1 3.189 3.176 3.182 3.182 0 0 1-3.189 3.176zm0-22.233a3.182 3.182 0 0 1-3.188-3.176A3.182 3.182 0 0 1 125.04.233a3.182 3.182 0 0 1 3.189 3.177 3.182 3.182 0 0 1-3.189 3.176zM104.088 95.52a3.182 3.182 0 0 1-3.189-3.176 3.182 3.182 0 0 1 3.189-3.177 3.182 3.182 0 0 1 3.188 3.177 3.182 3.182 0 0 1-3.188 3.176zm0-22.234a3.182 3.182 0 0 1-3.189-3.176 3.182 3.182 0 0 1 3.189-3.176 3.182 3.182 0 0 1 3.188 3.176 3.182 3.182 0 0 1-3.188 3.176zm0-22.233a3.182 3.182 0 0 1-3.189-3.176 3.182 3.182 0 0 1 3.189-3.177 3.182 3.182 0 0 1 3.188 3.177 3.182 3.182 0 0 1-3.188 3.176zm0-22.234a3.182 3.182 0 0 1-3.189-3.176 3.182 3.182 0 0 1 3.189-3.176 3.182 3.182 0 0 1 3.188 3.176 3.182 3.182 0 0 1-3.188 3.176zm0-22.233a3.182 3.182 0 0 1-3.189-3.176 3.182 3.182 0 0 1 3.189-3.177 3.182 3.182 0 0 1 3.188 3.177 3.182 3.182 0 0 1-3.188 3.176zM188.81 228.07a3.182 3.182 0 0 1-3.188-3.176 3.182 3.182 0 0 1 3.188-3.176 3.182 3.182 0 0 1 3.189 3.176 3.182 3.182 0 0 1-3.189 3.176zm0-22.233a3.182 3.182 0 0 1-3.188-3.176 3.182 3.182 0 0 1 3.188-3.177 3.182 3.182 0 0 1 3.189 3.177 3.182 3.182 0 0 1-3.189 3.176zm0-22.234a3.182 3.182 0 0 1-3.188-3.176 3.182 3.182 0 0 1 3.188-3.176 3.182 3.182 0 0 1 3.189 3.176 3.182 3.182 0 0 1-3.189 3.176zm0-22.233a3.182 3.182 0 0 1-3.188-3.176 3.182 3.182 0 0 1 3.188-3.177 3.182 3.182 0 0 1 3.189 3.177 3.182 3.182 0 0 1-3.189 3.176zm0-22.234a3.182 3.182 0 0 1-3.188-3.176 3.182 3.182 0 0 1 3.188-3.176A3.182 3.182 0 0 1 192 135.96a3.182 3.182 0 0 1-3.189 3.176zm0-22.233a3.182 3.182 0 0 1-3.188-3.176 3.182 3.182 0 0 1 3.188-3.177 3.182 3.182 0 0 1 3.189 3.177 3.182 3.182 0 0 1-3.189 3.176zM167.858 228.07a3.182 3.182 0 0 1-3.188-3.176 3.182 3.182 0 0 1 3.188-3.176 3.182 3.182 0 0 1 3.189 3.176 3.182 3.182 0 0 1-3.189 3.176zm0-22.233a3.182 3.182 0 0 1-3.188-3.176 3.182 3.182 0 0 1 3.188-3.177 3.182 3.182 0 0 1 3.189 3.177 3.182 3.182 0 0 1-3.189 3.176zm0-22.234a3.182 3.182 0 0 1-3.188-3.176 3.182 3.182 0 0 1 3.188-3.176 3.182 3.182 0 0 1 3.189 3.176 3.182 3.182 0 0 1-3.189 3.176zm0-22.233a3.182 3.182 0 0 1-3.188-3.176 3.182 3.182 0 0 1 3.188-3.177 3.182 3.182 0 0 1 3.189 3.177 3.182 3.182 0 0 1-3.189 3.176zm0-22.234a3.182 3.182 0 0 1-3.188-3.176 3.182 3.182 0 0 1 3.188-3.176 3.182 3.182 0 0 1 3.189 3.176 3.182 3.182 0 0 1-3.189 3.176zm0-22.233a3.182 3.182 0 0 1-3.188-3.176 3.182 3.182 0 0 1 3.188-3.177 3.182 3.182 0 0 1 3.189 3.177 3.182 3.182 0 0 1-3.189 3.176zM145.994 228.07a3.182 3.182 0 0 1-3.188-3.176 3.182 3.182 0 0 1 3.188-3.176 3.182 3.182 0 0 1 3.189 3.176 3.182 3.182 0 0 1-3.189 3.176zm0-22.233a3.182 3.182 0 0 1-3.188-3.176 3.182 3.182 0 0 1 3.188-3.177 3.182 3.182 0 0 1 3.189 3.177 3.182 3.182 0 0 1-3.189 3.176zm0-22.234a3.182 3.182 0 0 1-3.188-3.176 3.182 3.182 0 0 1 3.188-3.176 3.182 3.182 0 0 1 3.189 3.176 3.182 3.182 0 0 1-3.189 3.176zm0-22.233a3.182 3.182 0 0 1-3.188-3.176 3.182 3.182 0 0 1 3.188-3.177 3.182 3.182 0 0 1 3.189 3.177 3.182 3.182 0 0 1-3.189 3.176zm0-22.234a3.182 3.182 0 0 1-3.188-3.176 3.182 3.182 0 0 1 3.188-3.176 3.182 3.182 0 0 1 3.189 3.176 3.182 3.182 0 0 1-3.189 3.176zm0-22.233a3.182 3.182 0 0 1-3.188-3.176 3.182 3.182 0 0 1 3.188-3.177 3.182 3.182 0 0 1 3.189 3.177 3.182 3.182 0 0 1-3.189 3.176zM125.041 228.07a3.182 3.182 0 0 1-3.188-3.176 3.182 3.182 0 0 1 3.188-3.176 3.182 3.182 0 0 1 3.189 3.176 3.182 3.182 0 0 1-3.189 3.176zm0-22.233a3.182 3.182 0 0 1-3.188-3.176 3.182 3.182 0 0 1 3.188-3.177 3.182 3.182 0 0 1 3.189 3.177 3.182 3.182 0 0 1-3.189 3.176zm0-22.234a3.182 3.182 0 0 1-3.188-3.176 3.182 3.182 0 0 1 3.188-3.176 3.182 3.182 0 0 1 3.189 3.176 3.182 3.182 0 0 1-3.189 3.176zm0-22.233a3.182 3.182 0 0 1-3.188-3.176 3.182 3.182 0 0 1 3.188-3.177 3.182 3.182 0 0 1 3.189 3.177 3.182 3.182 0 0 1-3.189 3.176zm0-22.234a3.182 3.182 0 0 1-3.188-3.176 3.182 3.182 0 0 1 3.188-3.176 3.182 3.182 0 0 1 3.189 3.176 3.182 3.182 0 0 1-3.189 3.176zm0-22.233a3.182 3.182 0 0 1-3.188-3.176 3.182 3.182 0 0 1 3.188-3.177 3.182 3.182 0 0 1 3.189 3.177 3.182 3.182 0 0 1-3.189 3.176zM104.088 228.07a3.182 3.182 0 0 1-3.189-3.176 3.182 3.182 0 0 1 3.189-3.176 3.182 3.182 0 0 1 3.188 3.176 3.182 3.182 0 0 1-3.188 3.176zm0-22.233a3.182 3.182 0 0 1-3.189-3.176 3.182 3.182 0 0 1 3.189-3.177 3.182 3.182 0 0 1 3.188 3.177 3.182 3.182 0 0 1-3.188 3.176zm0-22.234a3.182 3.182 0 0 1-3.189-3.176 3.182 3.182 0 0 1 3.189-3.176 3.182 3.182 0 0 1 3.188 3.176 3.182 3.182 0 0 1-3.188 3.176zm0-22.233a3.182 3.182 0 0 1-3.189-3.176 3.182 3.182 0 0 1 3.189-3.177 3.182 3.182 0 0 1 3.188 3.177 3.182 3.182 0 0 1-3.188 3.176zm0-22.234a3.182 3.182 0 0 1-3.189-3.176 3.182 3.182 0 0 1 3.189-3.176 3.182 3.182 0 0 1 3.188 3.176 3.182 3.182 0 0 1-3.188 3.176zm0-22.233a3.182 3.182 0 0 1-3.189-3.176 3.182 3.182 0 0 1 3.189-3.177 3.182 3.182 0 0 1 3.188 3.177 3.182 3.182 0 0 1-3.188 3.176z"/>
    </g>
</svg>
