<svg xmlns="http://www.w3.org/2000/svg" xmlns:xlink="http://www.w3.org/1999/xlink" width="692" height="313" viewBox="0 0 692 313">
    <defs>
        <path id="a" d="M.004.215h328v231.014h-328z"/>
    </defs>
    <g fill="none" fill-rule="evenodd" transform="translate(-6.5 -416)">
        <g transform="translate(375.5 513)">
            <mask id="b" fill="#fff">
                <use xlink:href="#a"/>
            </mask>
            <path fill="#EFF5F8" d="M-25.138 216.088C-227.512 209.02-385.84 39.235-378.772-163.138-371.705-365.512-201.92-523.84.454-516.772c202.373 7.067 360.7 176.852 353.634 379.226-7.067 202.373-176.853 360.7-379.226 353.634z" mask="url(#b)"/>
        </g>
        <circle cx="348.5" cy="348.5" r="348.5" fill="#39B2C2"/>
        <path fill="#FFCE10" d="M376.811 696.493C354.116 645.61 341.5 589.24 341.5 529.925c0-183.076 120.187-338.081 285.964-390.418 43.969 58.327 70.036 130.91 70.036 209.58 0 183.11-141.22 333.236-320.689 347.406z"/>
    </g>
</svg>
