<?xml version="1.0" encoding="UTF-8"?>
<svg width="133px" height="91px" viewBox="0 0 133 91" version="1.1" xmlns="http://www.w3.org/2000/svg" xmlns:xlink="http://www.w3.org/1999/xlink">
    <!-- Generator: Sketch 52.6 (67491) - http://www.bohemiancoding.com/sketch -->
    <title>Group 18</title>
    <desc>Created with Sketch.</desc>
    <g id="Page-1" stroke="none" stroke-width="1" fill="none" fill-rule="evenodd">
        <g id="Futureproof_subdomain_01" transform="translate(-120.000000, -140.000000)" fill-rule="nonzero">
            <g id="Group-18" transform="translate(120.000000, 140.000000)">
                <g id="Group-16">
                    <g id="FP_Logo" transform="translate(0.119999, 0.719996)">
                        <g id="Group-17">
                            <g id="Group-9">
                                <path d="M17.3923012,19.3912275 C15.8867957,17.8807859 15.8867957,15.4318762 17.3923012,13.9214346 C18.8978068,12.410993 21.3387135,12.410993 22.844219,13.9214346 L34.4740314,25.5893776 C35.9795369,27.0998192 35.9795369,29.5487287 34.4740314,31.0591704 C32.9685258,32.569612 30.5276193,32.569612 29.0221137,31.0591704 L17.3923012,19.3912275 Z" id="Line-4" fill="#FF3184" transform="translate(25.933166, 22.490303) scale(-1, 1) rotate(-180.000000) translate(-25.933166, -22.490303) "></path>
                                <path d="M16.741947,6.65503887 C15.2244901,5.13260666 15.2244901,2.66425636 16.741947,1.14182415 C18.259404,-0.38060805 20.7196878,-0.38060805 22.2371447,1.14182415 L27.8718901,6.795044 C29.3893469,8.31747622 29.3893469,10.7858265 27.8718901,12.3082587 C26.354433,13.8306909 23.8941491,13.8306909 22.3766923,12.3082587 L16.741947,6.65503887 Z" id="Line-4" fill="#FFCE0F"></path>
                                <path d="M17.4536623,12.3476171 C19.5878449,12.3476171 21.3179418,14.0751847 21.3179418,16.2062474 C21.3179418,18.3373101 19.5878449,20.0648777 17.4536623,20.0648777 L3.86427949,20.0648777 C1.73009685,20.0648777 0,18.3373101 0,16.2062474 C0,14.0751847 1.73009685,12.3476171 3.86427949,12.3476171 L17.4536623,12.3476171 Z" id="Line-5" fill="#39B2C2" transform="translate(10.658971, 16.206247) scale(-1, 1) rotate(-180.000000) translate(-10.658971, -16.206247) "></path>
                            </g>
                            <g id="Group-2" transform="translate(0.000000, 38.879997)" fill="#FFFFFF">
                                <path d="M14.8690965,5.14129772 L6.66494325,5.14129772 L6.66494325,9.63993321 L14.1000646,9.63993321 C15.5151802,9.63993321 16.6623581,10.7908519 16.6623581,12.2105821 C16.6623581,13.6303122 15.5151802,14.7812309 14.1000646,14.7812309 L6.66494325,14.7812309 L6.66494325,19.1819722 C6.66494325,21.028447 5.17294489,22.5253106 3.33247164,22.5253106 C1.49199837,22.5253106 1.41193956e-15,21.028447 1.18654659e-15,19.1819722 L3.64015021e-23,2.23381493 C-1.50593808e-16,1.00011301 0.996862373,-2.53247587e-15 2.22655443,-2.75910324e-15 L14.8690965,-3.55271372e-15 C16.2842122,-3.81351392e-15 17.4313901,1.1509187 17.4313901,2.57064885 C17.4313901,3.99037901 16.2842122,5.14129772 14.8690965,5.14129772 Z M41.0435182,3.34333839 L41.0435182,13.0139098 C41.0435182,18.9906684 36.9740576,22.8145086 30.5654583,22.8145086 C24.1248159,22.8145086 19.9271834,18.9906684 19.9271834,13.0139098 L19.9271834,3.34333839 C19.9271834,1.49686358 21.4191818,3.39191874e-16 23.259655,-4.5397746e-23 C25.1001284,-3.39191965e-16 26.5921268,1.49686358 26.5921268,3.34333839 L26.5921268,13.0139098 C26.5921268,15.6166918 28.3544916,17.2233473 30.5975013,17.2233473 C32.8084681,17.2233473 34.3785749,15.6488249 34.3785749,13.0139098 L34.3785749,3.34333839 C34.3785749,1.49686358 35.8705732,1.97919095e-15 37.7110464,-4.5397746e-23 C39.5515196,-3.39191965e-16 41.0435182,1.49686358 41.0435182,3.34333839 Z M60.2989878,5.33409639 L56.420596,5.33409639 L56.420596,19.1658985 C56.420596,21.0212506 54.9214246,22.5253106 53.0721029,22.5253106 C51.2227813,22.5253106 49.7236097,21.0212506 49.7236097,19.1658985 L49.7236097,5.33409639 L45.8772612,5.33409639 C44.4090785,5.33409639 43.2188814,4.14001823 43.2188814,2.66704819 C43.2188814,1.19407815 44.4090785,-2.48852303e-15 45.8772612,-2.75910324e-15 L60.2989878,-3.55271372e-15 C61.7671702,-3.82329393e-15 62.9573673,1.19407815 62.9573673,2.66704819 C62.9573673,4.14001823 61.7671702,5.33409639 60.2989878,5.33409639 Z M86.2490655,3.34333839 L86.2490655,13.0139098 C86.2490655,18.9906684 82.1796049,22.8145086 75.7710057,22.8145086 C69.3303632,22.8145086 65.1327308,18.9906684 65.1327308,13.0139098 L65.1327308,3.34333839 C65.1327308,1.49686358 66.6247291,3.39191874e-16 68.4652023,-4.5397746e-23 C70.3056756,-3.39191965e-16 71.7976741,1.49686358 71.7976741,3.34333839 L71.7976741,13.0139098 C71.7976741,15.6166918 73.5600389,17.2233473 75.8030485,17.2233473 C78.0140152,17.2233473 79.5841222,15.6488249 79.5841222,13.0139098 L79.5841222,3.34333839 C79.5841222,1.49686358 81.0761205,3.39191874e-16 82.9165937,-4.5397746e-23 C84.757067,-3.39191965e-16 86.2490655,1.49686358 86.2490655,3.34333839 Z M129.597265,5.14129772 L120.463865,5.14129772 L120.463865,8.67593989 L128.507803,8.67593989 C129.922919,8.67593989 131.070097,9.8268586 131.070097,11.2465888 C131.070097,12.6663189 129.922919,13.8172376 128.507803,13.8172376 L120.463865,13.8172376 L120.463865,17.3840129 L129.917695,17.3840129 C131.332811,17.3840129 132.479989,18.5349316 132.479989,19.9546618 C132.479989,21.3743919 131.332811,22.5253106 129.917695,22.5253106 L116.025476,22.5253106 C114.795784,22.5253106 113.798922,21.5251976 113.798922,20.2914957 L113.798922,2.23381493 C113.798922,1.00011301 114.795784,-1.2189337e-14 116.025476,-1.24159644e-14 L129.597265,-1.59872116e-14 C131.012381,-1.37260644e-14 132.159559,1.1509187 132.159559,2.57064885 C132.159559,3.99037901 131.012381,5.14129772 129.597265,5.14129772 Z M2.22655443,28.1164719 L10.1896729,28.1164719 C15.9894552,28.1164719 19.3219269,31.0084518 19.3219269,36.1176164 C19.3219269,41.4838459 15.9894552,44.5686246 10.1896729,44.5686246 L6.66494325,44.5686246 L6.66494325,47.298444 C6.66494325,49.144919 5.17294489,50.6417825 3.33247164,50.6417825 C1.49199837,50.6417825 -8.79807941e-15,49.144919 -1.0658141e-14,47.298444 L-8.28504789e-15,30.3502868 C-8.43564174e-15,29.1165848 0.996862373,28.1164719 2.22655443,28.1164719 Z M6.66494325,33.2577696 L6.66494325,39.4273268 L9.8692429,39.4273268 C11.8559087,39.4273268 13.0094565,38.334801 13.0094565,36.3104151 C13.0094565,34.3502952 11.8559087,33.2577696 9.8692429,33.2577696 L6.66494325,33.2577696 Z M56.965327,27.9236731 C64.0147863,27.9236731 69.2057517,32.7757729 69.2057517,39.3630606 C69.2057517,45.9824815 64.0147863,50.9309805 56.965327,50.9309805 C49.9158678,50.9309805 44.7249024,46.0146145 44.7249024,39.3630606 C44.7249024,32.7436397 49.9158678,27.9236731 56.965327,27.9236731 Z M57.0614561,33.5148344 C54.0814574,33.5148344 51.5500605,35.989084 51.5500605,39.3951938 C51.5500605,42.8013034 54.1135002,45.3398192 57.0614561,45.3398192 C60.0094117,45.3398192 62.3805935,42.8013034 62.3805935,39.3951938 C62.3805935,35.989084 60.0094117,33.5148344 57.0614561,33.5148344 Z M82.9165937,27.9236731 C89.966053,27.9236731 95.1570184,32.7757729 95.1570184,39.3630606 C95.1570184,45.9824815 89.966053,50.9309805 82.9165937,50.9309805 C75.8671345,50.9309805 70.6761691,46.0146145 70.6761691,39.3630606 C70.6761691,32.7436397 75.8671345,27.9236731 82.9165937,27.9236731 Z M83.0127228,33.5148344 C80.0327242,33.5148344 77.5013275,35.989084 77.5013275,39.3951938 C77.5013275,42.8013034 80.0647672,45.3398192 83.0127228,45.3398192 C85.9606784,45.3398192 88.3318602,42.8013034 88.3318602,39.3951938 C88.3318602,35.989084 85.9606784,33.5148344 83.0127228,33.5148344 Z M112.97051,33.2577696 L104.766357,33.2577696 L104.766357,37.7564051 L112.201478,37.7564051 C113.616594,37.7564051 114.763772,38.9073237 114.763772,40.3270539 C114.763772,41.7467842 113.616594,42.8977028 112.201478,42.8977028 L104.766357,42.8977028 L104.766357,47.298444 C104.766357,49.144919 103.274359,50.6417825 101.433885,50.6417825 C99.5934121,50.6417825 98.1014137,49.144919 98.1014137,47.298444 L98.1014137,30.3502868 C98.1014137,29.1165848 99.0982762,28.1164719 100.327968,28.1164719 L112.97051,28.1164719 C114.385626,28.1164719 115.532804,29.2673905 115.532804,30.6871207 C115.532804,32.106851 114.385626,33.2577696 112.97051,33.2577696 Z" id="FUTURE-PROOF"></path>
                            </g>
                        </g>
                        <path d="M102.031991,38.8799967 L102.703991,38.8799967 C107.219471,38.8799967 110.87999,42.5997476 110.87999,47.1882929 C110.87999,50.093486 109.41261,52.6504083 107.189914,54.1354732 L109.305797,56.2855931 C110.57422,57.5745404 110.57422,59.6643368 109.305797,60.9532841 C108.037374,62.2422315 105.980854,62.2422315 104.712431,60.9532841 L99.9606741,56.1246382 C99.7705889,55.9314769 99.6089897,55.7203306 99.4758764,55.4965891 L97.353236,55.4965891 L97.353236,58.5695205 C97.353236,60.3923673 95.899057,61.8700765 94.1052362,61.8700765 C92.3114155,61.8700765 90.8572365,60.3923673 90.8572365,58.5695205 L90.8572365,53.7894049 C90.8572365,53.5223533 90.8884476,53.2627095 90.9473652,53.0140344 C90.9451256,52.9692793 90.9439922,52.9242274 90.9439922,52.8789067 C90.9439922,51.4332006 92.0973065,50.2612243 93.5199919,50.2612243 L101.583991,50.2612243 L102.703991,50.2612243 C104.3741,50.2612243 105.727991,48.885426 105.727991,47.1882929 C105.727991,45.4911597 104.3741,44.1153614 102.703991,44.1153614 L101.359991,44.1153614 L93.295992,44.1153614 C91.8733065,44.1153614 90.7199922,42.9433852 90.7199922,41.497679 C90.7199922,40.0519729 91.8733065,38.8799967 93.295992,38.8799967 L101.359991,38.8799967 L102.031991,38.8799967 L102.703991,38.8799967 C107.219471,38.8799967 110.87999,42.5997476 110.87999,47.1882929 C110.87999,51.7768381 107.219471,55.4965891 102.703991,55.4965891 L99.1199915,55.4965891 L99.1199915,50.2612243 L102.703991,50.2612243 C104.3741,50.2612243 105.727991,48.885426 105.727991,47.1882929 C105.727991,45.4911597 104.3741,44.1153614 102.703991,44.1153614 L99.1199915,44.1153614 L99.1199915,38.8799967 L102.031991,38.8799967 Z" id="Combined-Shape" fill="#FFFFFF"></path>
                        <path d="M32.9119972,66.9599942 L33.5839971,66.9599942 C38.0994768,66.9599942 41.7599964,70.6797452 41.7599964,75.2682904 C41.7599964,78.1734836 40.2926162,80.7304059 38.0699202,82.2154708 L40.1858025,84.3655907 C41.4542255,85.6545379 41.4542255,87.7443344 40.1858025,89.0332816 C38.9173798,90.3222291 36.8608601,90.3222291 35.5924374,89.0332816 L30.8406801,84.2046358 C30.6505948,84.0114745 30.4889956,83.8003281 30.3558823,83.5765866 L28.2332419,83.5765866 L28.2332419,86.6495181 C28.2332419,88.4723649 26.7790629,89.9500741 24.9852422,89.9500741 C23.1914215,89.9500741 21.7372426,88.4723649 21.7372426,86.6495181 L21.7372426,81.8694025 C21.7372426,81.6023509 21.7684536,81.342707 21.8273711,81.094032 C21.8251315,81.0492769 21.8239981,81.004225 21.8239981,80.9589043 C21.8239981,79.5131981 22.9773124,78.3412219 24.3999979,78.3412219 L32.4639972,78.3412219 L33.5839971,78.3412219 C35.254106,78.3412219 36.6079968,76.9654236 36.6079968,75.2682904 C36.6079968,73.5711573 35.254106,72.195359 33.5839971,72.195359 L32.2399972,72.195359 L24.1759979,72.195359 C22.7533124,72.195359 21.5999981,71.0233827 21.5999981,69.5776766 C21.5999981,68.1319705 22.7533124,66.9599942 24.1759979,66.9599942 L32.2399972,66.9599942 L32.9119972,66.9599942 L33.5839971,66.9599942 C38.0994768,66.9599942 41.7599964,70.6797452 41.7599964,75.2682904 C41.7599964,79.8568356 38.0994768,83.5765866 33.5839971,83.5765866 L29.9999974,83.5765866 L29.9999974,78.3412219 L33.5839971,78.3412219 C35.254106,78.3412219 36.6079968,76.9654236 36.6079968,75.2682904 C36.6079968,73.5711573 35.254106,72.195359 33.5839971,72.195359 L29.9999974,72.195359 L29.9999974,66.9599942 L32.9119972,66.9599942 Z" id="Combined-Shape" fill="#FFFFFF"></path>
                    </g>
                </g>
            </g>
        </g>
    </g>
</svg>