<?xml version="1.0" encoding="UTF-8"?>
<svg width="33px" height="24px" viewBox="0 0 33 24" version="1.1" xmlns="http://www.w3.org/2000/svg" xmlns:xlink="http://www.w3.org/1999/xlink">
    <!-- Generator: Sketch 61.2 (89653) - https://sketch.com -->
    <title>Path</title>
    <desc>Created with Sketch.</desc>
    <g id="Page-1" stroke="none" stroke-width="1" fill="none" fill-rule="evenodd">
        <g id="Artboard" transform="translate(-2.000000, -2.000000)" fill="#95F1FD" fill-rule="nonzero" stroke="#95F1FD">
            <path d="M24.205,3.333 C23.776,2.889 23.062,2.889 22.618,3.333 C22.189,3.762 22.189,4.476 22.618,4.904 L30.665,12.951 L4.111,12.951 C3.492,12.952 3,13.444 3,14.063 C3,14.682 3.492,15.19 4.111,15.19 L30.665,15.19 L22.618,23.222 C22.189,23.666 22.189,24.381 22.618,24.809 C23.062,25.253 23.777,25.253 24.205,24.809 L34.157,14.857 C34.601,14.428 34.601,13.714 34.157,13.286 L24.205,3.333 Z" id="Path"></path>
        </g>
    </g>
</svg>