<?xml version="1.0" encoding="UTF-8"?>
<svg width="16px" height="16px" viewBox="0 0 16 16" version="1.1" xmlns="http://www.w3.org/2000/svg" xmlns:xlink="http://www.w3.org/1999/xlink">
    <!-- Generator: Sketch 52.6 (67491) - http://www.bohemiancoding.com/sketch -->
    <title>no-stopping</title>
    <desc>Created with Sketch.</desc>
    <g id="Page-1" stroke="none" stroke-width="1" fill="none" fill-rule="evenodd">
        <g id="Artboard-Copy-6" transform="translate(-1072.000000, -5603.000000)" fill="#A5A7B9" fill-rule="nonzero">
            <g id="Group-7" transform="translate(195.000000, 5350.000000)">
                <g id="Group-8" transform="translate(75.000000, 149.000000)">
                    <g id="Group-18" transform="translate(0.000000, 24.000000)">
                        <g id="Group-16" transform="translate(0.000000, 76.000000)">
                            <g id="no-stopping" transform="translate(802.000000, 4.000000)">
                                <path d="M8,0 C3.588875,0 0,3.588875 0,8 C0,12.411125 3.588875,16 8,16 C12.411125,16 16,12.411125 16,8 C16,3.588875 12.411125,0 8,0 Z M8,14 C4.69171875,14 2,11.3082812 2,8 C2,6.7373125 2.3828125,5.543625 3.1106875,4.5250625 L11.4749375,12.8893125 C10.456375,13.6171875 9.2626875,14 8,14 Z M12.8893125,11.4749375 L4.5250625,3.1106875 C5.543625,2.3828125 6.7373125,2 8,2 C11.3082813,2 14,4.69171875 14,8 C14,9.2626875 13.6171875,10.456375 12.8893125,11.4749375 Z" id="Shape"></path>
                            </g>
                        </g>
                    </g>
                </g>
            </g>
        </g>
    </g>
</svg>