<svg xmlns="http://www.w3.org/2000/svg" width="107" height="84" viewBox="0 0 107 84">
    <g fill="none" fill-rule="evenodd">
        <path stroke="#7176C4" stroke-linecap="round" stroke-linejoin="round" d="M1.38 74.3h104.93M69.99 82.699h13.75M27.749 82.699h30.708"/>
        <path fill="#EDEDF9" d="M81.385 27.907V73.97H54.872V27.515l17.004-3.887 1.063-.24z"/>
        <path stroke="#7176C4" stroke-linecap="round" stroke-linejoin="round" d="M44.301 74.305h-37.1V18.92l37.1-8.577zM44.301 74.305h10.571V16.062l-10.571-5.718z"/>
        <path fill="#BCBCE2" d="M63.367 22.362V73.97h-8.495V24.31z"/>
        <path stroke="#7176C4" stroke-linecap="round" stroke-linejoin="round" d="M71.876 20.4v53.9l-17.004.012v-50l8.494-1.95z"/>
        <path fill="#EDEDF9" d="M13.783 24.715l24.194-4.45v4.851l-24.194 1.381z"/>
        <path stroke="#7176C4" stroke-linecap="round" stroke-linejoin="round" d="M83.28 31.826v-6.49l-11.403-4.953v53.922H83.28v-2.122M13.783 24.984l24.334-4.587"/>
        <path fill="#EDEDF9" d="M13.783 34.18l24.334-3.84v4.851l-24.334.772z"/>
        <path stroke="#7176C4" stroke-linecap="round" stroke-linejoin="round" d="M13.783 34.13l24.334-3.79"/>
        <path fill="#EDEDF9" d="M13.783 43.003l24.334-3.14v4.852l-24.334.071z"/>
        <path stroke="#7176C4" stroke-linecap="round" stroke-linejoin="round" d="M13.783 42.997l24.334-3.192"/>
        <path fill="#EDEDF9" d="M13.783 52.565l24.334-3.14v4.852l-24.334.07z"/>
        <path stroke="#7176C4" stroke-linecap="round" stroke-linejoin="round" d="M13.783 52.616l24.334-3.192"/>
        <path fill="#EDEDF9" d="M13.783 61.31l24.334-1.125v4.852l-24.334-1.944z"/>
        <path stroke="#7176C4" stroke-linecap="round" stroke-linejoin="round" d="M13.783 61.31l24.334-1.125"/>
        <g>
            <path fill="#DBDBF3" d="M100.492 51.434c1.552-1.127 2.57-2.94 2.57-5.004a6.197 6.197 0 0 0-6.196-6.197c-1.017 0-1.962.269-2.808.703A5.318 5.318 0 0 0 83.53 41.99c0 .343.038.677.102 1.002a6.193 6.193 0 0 0-3.82 5.72c0 1.903.876 3.585 2.228 4.722-2.631 1.275-4.46 3.946-4.46 7.065a7.876 7.876 0 0 0 7.875 7.876c2.825 0 5.285-1.503 6.674-3.738 1.321 1.003 2.951 1.62 4.738 1.62a7.874 7.874 0 0 0 7.874-7.873c0-3.034-1.735-5.636-4.248-6.951"/>
            <path stroke="#7176C4" stroke-linecap="round" stroke-linejoin="round" d="M100.226 50.371c1.649-1.196 2.73-3.126 2.73-5.317a6.584 6.584 0 0 0-6.584-6.584c-1.08 0-2.084.283-2.983.744a5.651 5.651 0 0 0-11.19 1.122c0 .365.041.72.107 1.066a6.583 6.583 0 0 0-4.058 6.079c0 2.022.93 3.81 2.367 5.017-2.795 1.355-4.738 4.194-4.738 7.509a8.368 8.368 0 0 0 8.368 8.369c3.003 0 5.615-1.597 7.091-3.973 1.406 1.067 3.137 1.723 5.036 1.723a8.368 8.368 0 0 0 8.368-8.368c0-3.224-1.844-5.989-4.514-7.387zM91.258 46.253v27.724"/>
            <path stroke="#7176C4" stroke-linecap="round" stroke-linejoin="round" d="M85.341 57.157l5.782 3.59 6.053-3.59M86.271 48.38l4.852 3.592 4.058-2.794"/>
            <path fill="#DBDBF3" d="M95.181 14.107l-1.634 19.044 3.12 1.18 1.09-20.224z"/>
            <path stroke="#7176C4" stroke-linecap="round" stroke-linejoin="round" d="M96.666 34.33l1.217-29.569h4.897l1.337 32.468M91.02 31.16l1.407-17.053h4.94"/>
            <path fill="#DBDBF3" d="M88.502 6.923a2.61 2.61 0 1 1-5.221 0 2.61 2.61 0 0 1 5.22 0M66.8 5.144a4.512 4.512 0 1 1-9.024 0 4.512 4.512 0 0 1 9.025 0M12.98 7.952a2.257 2.257 0 1 1-4.513 0 2.257 2.257 0 0 1 4.513 0"/>
        </g>
    </g>
</svg>
