<?xml version="1.0" encoding="UTF-8"?>
<svg width="36px" height="22px" viewBox="0 0 36 22" version="1.1" xmlns="http://www.w3.org/2000/svg" xmlns:xlink="http://www.w3.org/1999/xlink">
    <!-- Generator: Sketch 50.2 (55047) - http://www.bohemiancoding.com/sketch -->
    <title>Group 38</title>
    <desc>Created with Sketch.</desc>
    <defs></defs>
    <g id="Page-1" stroke="none" stroke-width="1" fill="none" fill-rule="evenodd">
        <g id="Assets_Product1.0" transform="translate(-1050.000000, -5543.000000)">
            <g id="Group-38" transform="translate(1051.000000, 5544.000000)">
                <g id="Group-14" stroke="#FF4491" stroke-width="2">
                    <rect id="Rectangle-4" fill="#FFFFFF" x="1" y="1" width="22" height="18" rx="1.5"></rect>
                    <rect id="Path" fill="#FFFFFF" x="0" y="0" width="24" height="20" rx="1.5"></rect>
                    <path d="M0.5,5.5 L23.5,5.5" id="Line-2" stroke-linecap="round"></path>
                </g>
                <circle id="Oval-2" fill="#FFFFFF" cx="26" cy="11" r="7"></circle>
                <g id="settings-cog" transform="translate(17.000000, 2.000000)" fill="#FF4491" fill-rule="nonzero">
                    <path d="M17.8092,7.60217143 C17.76672,7.32219429 17.5736571,7.08860571 17.3071543,6.99408 L15.8952343,6.49203429 C15.8117143,6.25546286 15.7169829,6.02547429 15.6119657,5.80299429 L16.2545143,4.45083429 C16.3757829,4.19585143 16.3469829,3.89427429 16.1795314,3.66624 C15.6379886,2.92968 14.9909143,2.28260571 14.2563086,1.74353143 C14.0280686,1.57597714 13.72752,1.54748571 13.4720229,1.66906286 L12.1206857,2.31109714 C11.8982057,2.20608 11.6679086,2.11155429 11.4311314,2.02803429 L10.92888,0.615908571 C10.8343543,0.34992 10.6013829,0.157371429 10.3220229,0.114377143 C9.32945143,-0.03816 8.59484571,-0.03816 7.60073143,0.114377143 C7.32168,0.157371429 7.0884,0.34992 6.99387429,0.615908571 L6.49162286,2.02803429 C6.25484571,2.11155429 6.02454857,2.20608 5.80227429,2.31109714 L4.45042286,1.66906286 C4.19544,1.54758857 3.89437714,1.57608 3.66634286,1.74353143 C2.93173714,2.28260571 2.28466286,2.92968 1.74312,3.66624 C1.57556571,3.89427429 1.54686857,4.19574857 1.66813714,4.45083429 L2.31068571,5.80299429 C2.20566857,6.02506286 2.11114286,6.25556571 2.02741714,6.49203429 L0.615291429,6.99459429 C0.348994286,7.08912 0.15624,7.32260571 0.113451429,7.60217143 C0.0364114286,8.10822857 0.000411428571,8.53971429 0.000411428571,8.96184 C0.000411428571,9.38334857 0.0364114286,9.81545143 0.113451429,10.3215086 C0.155931429,10.6014857 0.348994286,10.8350743 0.615497143,10.9296 L2.02741714,11.4316457 C2.11114286,11.6686286 2.20597714,11.89872 2.31068571,12.1212 L1.66813714,13.4728457 C1.54686857,13.7278286 1.57566857,14.0294057 1.74291429,14.2569257 C2.28373714,14.9929714 2.93081143,15.6400457 3.66634286,16.1801486 C3.89437714,16.3477029 4.19544,16.3767086 4.45062857,16.2546171 L5.80196571,15.6125829 C6.02444571,15.7176 6.25474286,15.8121257 6.49152,15.8956457 L6.99377143,17.3077714 C7.08829714,17.57376 7.32126857,17.7663086 7.60062857,17.8093029 C8.09722286,17.8858286 8.54218286,17.9228571 8.96122286,17.9228571 C9.38026286,17.9228571 9.82532571,17.8858286 10.3218171,17.8093029 C10.6010743,17.7663086 10.8341486,17.57376 10.9286743,17.3077714 L11.4309257,15.8956457 C11.6677029,15.8121257 11.898,15.7176 12.12048,15.6125829 L13.4718171,16.2546171 C13.7273143,16.3766057 14.0283771,16.3476 14.2564114,16.1801486 C14.9927657,15.63912 15.63984,14.9920457 16.1796343,14.2569257 C16.34688,14.0294057 16.37568,13.7278286 16.2544114,13.4728457 L15.6118629,12.1212 C15.71688,11.89872 15.8116114,11.6681143 15.8951314,11.4316457 L17.3070514,10.9296 C17.5735543,10.8350743 17.7666171,10.6015886 17.8090971,10.3215086 C17.8861371,9.81545143 17.9221371,9.38345143 17.9221371,8.96184 C17.9221371,8.54022857 17.88624,8.10812571 17.8092,7.60217143 Z M16.34904,9.63977143 L15.0244457,10.1108571 C14.7929143,10.1928343 14.6148686,10.3808571 14.5451314,10.6169143 C14.4268457,11.0169257 14.27112,11.39544 14.0818629,11.74248 C13.9644,11.95848 13.9570971,12.2175771 14.0626286,12.4395429 L14.6634171,13.7031429 C14.3731543,14.0517257 14.0521371,14.3732571 13.70304,14.6632114 L12.4396457,14.0631429 C12.2173714,13.9565829 11.9590971,13.96512 11.7427886,14.0821714 C11.3952343,14.2712229 11.0165143,14.4267429 10.6161943,14.5452343 C10.3806514,14.6147657 10.1926286,14.7927086 10.1104457,15.02424 L9.63915429,16.3493486 C9.15809143,16.3983086 8.76456,16.3983086 8.28349714,16.3493486 L7.81220571,15.02424 C7.72992,14.7932229 7.54189714,14.6146629 7.30645714,14.5452343 C6.90593143,14.4267429 6.52690286,14.2712229 6.17986286,14.0821714 C5.96355429,13.9641943 5.70476571,13.9566857 5.48300571,14.0631429 L4.21961143,14.6637257 C3.87082286,14.3731543 3.54980571,14.0521371 3.25923429,13.7031429 L3.86002286,12.4395429 C3.96555429,12.2174743 3.95825143,11.95848 3.84078857,11.74248 C3.65204571,11.3964686 3.49621714,11.01744 3.37752,10.6164 C3.30778286,10.3808571 3.12953143,10.1928343 2.89820571,10.1108571 L1.57361143,9.63977143 C1.54861714,9.39877714 1.53658286,9.17670857 1.53658286,8.96173714 C1.53658286,8.74676571 1.54861714,8.52521143 1.57361143,8.28421714 L2.89851429,7.81272 C3.12973714,7.73074286 3.30778286,7.54272 3.37752,7.30717714 C3.49601143,6.90716571 3.65184,6.52813714 3.84078857,6.18058286 C3.95825143,5.96509714 3.96555429,5.70548571 3.86002286,5.48403429 L3.25923429,4.22043429 C3.55001143,3.87144 3.87102857,3.54990857 4.21961143,3.25985143 L5.48352,3.86043429 C5.70476571,3.96699429 5.96458286,3.95845714 6.18037714,3.84140571 C6.52721143,3.65235429 6.90593143,3.49683429 7.30645714,3.37834286 C7.542,3.30881143 7.73002286,3.13035429 7.81220571,2.89933714 L8.28349714,1.57422857 C8.76003429,1.52475429 9.15428571,1.52475429 9.63915429,1.57422857 L10.1104457,2.89933714 C10.1927314,3.13035429 10.3807543,3.30891429 10.6161943,3.37834286 C11.01672,3.49683429 11.3957486,3.65235429 11.7427886,3.84140571 C11.9590971,3.95938286 12.2173714,3.96689143 12.4396457,3.86043429 L13.70304,3.25985143 C14.0516229,3.54990857 14.37264,3.87144 14.6634171,4.22043429 L14.0626286,5.48403429 C13.9570971,5.70558857 13.9644,5.96509714 14.0818629,6.18058286 C14.2714286,6.52916571 14.4271543,6.90768 14.5451314,7.30666286 C14.6148686,7.54272 14.7929143,7.73074286 15.0244457,7.81272 L16.34904,8.28380571 C16.3740343,8.5248 16.3860686,8.74686857 16.3860686,8.96184 C16.3860686,9.17681143 16.3740343,9.39877714 16.34904,9.63977143 Z" id="Shape"></path>
                    <path d="M8.96132571,5.22534857 C7.00066286,5.22534857 5.40545143,6.82045714 5.40545143,8.78122286 C5.40545143,10.7419886 7.00056,12.3370971 8.96132571,12.3370971 C10.9220914,12.3370971 12.5172,10.7419886 12.5172,8.78122286 C12.5172,6.82045714 10.9219886,5.22534857 8.96132571,5.22534857 Z M8.96132571,10.8009257 C7.84769143,10.8009257 6.94162286,9.89485714 6.94162286,8.78122286 C6.94162286,7.66758857 7.84769143,6.76152 8.96132571,6.76152 C10.07496,6.76152 10.9810286,7.66758857 10.9810286,8.78122286 C10.9810286,9.89485714 10.07496,10.8009257 8.96132571,10.8009257 Z" id="Shape"></path>
                </g>
            </g>
        </g>
    </g>
</svg>