<svg xmlns="http://www.w3.org/2000/svg" width="70" height="71" viewBox="0 0 70 71">
    <g fill="none" fill-rule="nonzero">
        <path fill="#4E36A6" d="M41.18 9.996L32.048.866a2.281 2.281 0 1 0-3.897 1.614v3.053C17.266 8.027 8.882 16.163 5.832 26.53l.74-.74a6.8 6.8 0 0 1 4.841-2.007 6.8 6.8 0 0 1 4.842 2.007l3.2 3.2a16.711 16.711 0 0 1 8.697-9.078v.828a2.281 2.281 0 0 0 3.897 1.614l9.13-9.13a2.281 2.281 0 0 0 0-3.228z"/>
        <path fill="#FF3284" d="M69.826 29.758a2.283 2.283 0 0 0-2.109-1.41h-3.053C62.17 17.463 54.035 9.079 43.666 6.029l.74.74a6.8 6.8 0 0 1 2.007 4.842c0 1.83-.713 3.55-2.008 4.843l-3.197 3.197a16.707 16.707 0 0 1 9.076 8.699h-.827a2.282 2.282 0 0 0-1.614 3.896l9.13 9.13c.446.447 1.03.67 1.614.67.584 0 1.168-.223 1.614-.67l9.13-9.13a2.283 2.283 0 0 0 .495-2.487z"/>
        <path fill="#44C6EA" d="M63.429 44.603a6.8 6.8 0 0 1-4.842 2.007 6.8 6.8 0 0 1-4.842-2.007l-3.199-3.2a16.711 16.711 0 0 1-8.698 9.078v-.828a2.281 2.281 0 0 0-3.897-1.614l-9.13 9.13a2.282 2.282 0 0 0 0 3.229l9.13 9.13a2.282 2.282 0 0 0 3.897-1.613V64.86c10.886-2.493 19.27-10.629 22.32-20.997l-.74.74z"/>
        <path fill="#6979F8" d="M23.587 58.784c0-1.83.713-3.55 2.008-4.843l3.197-3.198a16.707 16.707 0 0 1-9.076-8.699h.827a2.282 2.282 0 0 0 1.614-3.896l-9.13-9.13a2.282 2.282 0 0 0-3.228 0l-9.13 9.13a2.283 2.283 0 0 0 1.613 3.897h3.054c2.493 10.887 10.629 19.27 20.998 22.321l-.74-.74a6.8 6.8 0 0 1-2.007-4.842z"/>
    </g>
</svg>
