<svg xmlns="http://www.w3.org/2000/svg" width="31" height="29" viewBox="0 0 31 29">
    <g fill="none" fill-rule="evenodd">
        <path fill="#B8B9FD" d="M5.358 27.141C1.87 24.611-3.313 16.595 2.9 10.225c2.884-2.958 13.788-3.331 17.307.269 5.403 5.529 0 18.068-4.4 18.068-4.64.74-8.122.266-10.448-1.42z"/>
        <g fill="#324056" fill-rule="nonzero">
            <path stroke="#324056" stroke-width=".2" d="M14.881 13.394c-.588 0-1.175-.23-1.61-.664L7.904 7.363a2.24 2.24 0 0 1-.664-1.61c0-.613.23-1.175.664-1.61l2.48-2.479A2.24 2.24 0 0 1 11.993 1c.613 0 1.175.23 1.61.664l5.34 5.342a2.298 2.298 0 0 1 0 3.245c-.255.256-.69.256-.97 0-.256-.255-.256-.69 0-.971a.887.887 0 0 0 .255-.639.908.908 0 0 0-.256-.639l-5.34-5.366a.977.977 0 0 0-1.304 0L8.85 5.114a.887.887 0 0 0-.256.64c0 .255.103.485.256.638l5.341 5.341c.332.333.946.333 1.303 0 .256-.255.69-.255.972 0 .255.256.255.69 0 .971-.435.46-.997.69-1.585.69zM25.487 24a2.24 2.24 0 0 1-1.61-.664l-5.341-5.342a2.298 2.298 0 0 1 0-3.245c.255-.256.69-.256.97 0 .256.255.256.69 0 .971a.887.887 0 0 0-.255.639c0 .255.102.485.256.639l5.34 5.34c.359.359.946.333 1.304 0l2.479-2.478a.887.887 0 0 0 .256-.639.908.908 0 0 0-.256-.639l-5.367-5.34c-.332-.333-.945-.359-1.303 0-.256.255-.69.255-.971 0-.256-.256-.256-.69 0-.972a2.298 2.298 0 0 1 3.245 0l5.342 5.341c.434.435.664.997.664 1.61a2.24 2.24 0 0 1-.664 1.61l-2.48 2.479c-.434.46-.996.69-1.61.69z"/>
            <path d="M23.953 7.977a.698.698 0 0 1-.485-.205c-.256-.255-.256-.69 0-.97l2.479-2.48c.255-.255.69-.255.97 0 .256.256.256.69 0 .971l-2.478 2.48a.677.677 0 0 1-.486.204zM29.448 9.97H25.92a.687.687 0 0 1-.69-.69c0-.383.307-.69.69-.69h3.501c.384 0 .69.307.69.69 0 .383-.306.69-.664.69zM21.96 5.983a.687.687 0 0 1-.69-.69v-3.5c0-.384.307-.69.69-.69.383 0 .69.306.69.69v3.5c-.026.384-.307.69-.69.69zM11.303 20.627a.698.698 0 0 1-.485-.205c-.256-.255-.256-.69 0-.97l2.479-2.48c.255-.255.69-.255.97 0 .256.256.256.69 0 .971l-2.504 2.48a.588.588 0 0 1-.46.204zM11.789 16.154H8.288a.687.687 0 0 1-.69-.69c0-.383.306-.664.69-.664h3.5c.384 0 .69.307.69.69 0 .383-.306.664-.69.664zM15.75 23.642a.687.687 0 0 1-.69-.69v-3.5c0-.384.307-.69.69-.69.383 0 .69.306.69.69v3.5c0 .384-.307.69-.69.69z"/>
        </g>
    </g>
</svg>
