<svg xmlns="http://www.w3.org/2000/svg" width="35" height="30" viewBox="0 0 35 30">
    <g fill="none" fill-rule="evenodd">
        <path fill="#F4C5ED" d="M5.358 28.141C1.87 25.611-3.313 17.595 2.9 11.225c2.884-2.958 13.788-3.331 17.307.269 5.403 5.529 0 18.068-4.4 18.068-4.64.74-8.122.266-10.448-1.42z"/>
        <g fill="#324056" fill-rule="nonzero" stroke="#324056" stroke-width=".3">
            <path d="M33.428 9.479a1.91 1.91 0 0 0-1.36-.563c-.513 0-.996.2-1.359.563l-2.928 2.928a1.907 1.907 0 0 0-.5-.238l-.023-.006a1.955 1.955 0 0 0-.226-.052l-.056-.01a1.912 1.912 0 0 0-.262-.019l-8.829.002c-.792 0-1.544.303-2.124.862l-4.37 4.365a.517.517 0 0 0 0 .731l3.978 3.978a.517.517 0 0 0 .73 0l1.874-1.874h6.712c.514 0 .996-.2 1.36-.563l7.383-7.384c.364-.363.564-.846.564-1.36 0-.514-.2-.997-.564-1.36zm-.73 1.989l-7.385 7.384a.884.884 0 0 1-.63.26H17.76a.517.517 0 0 0-.366.152l-1.659 1.66-3.246-3.247 3.997-3.993c.379-.366.876-.567 1.4-.567l8.829-.001c.263 0 .512.12.684.33.008.01.018.018.027.027a.885.885 0 0 1-.082 1.16.882.882 0 0 1-.628.261h-4.87a.517.517 0 0 0 0 1.034h4.87c.513 0 .996-.2 1.359-.563.363-.364.563-.846.563-1.36 0-.281-.068-.555-.185-.807l2.988-2.988a.91.91 0 0 1 1.257 0 .885.885 0 0 1 0 1.258zM22.088 10.392c.021 0 .042-.004.063-.006.014.001.027.005.041.005l.12.001a6.55 6.55 0 0 0 4.669-1.933 6.55 6.55 0 0 0 1.932-4.788.517.517 0 0 0-.508-.508 6.511 6.511 0 0 0-4.023 1.273A6.549 6.549 0 0 0 22.447.743a.517.517 0 0 0-.718 0 6.549 6.549 0 0 0-2.02 4.752c0 1.807.717 3.495 2.02 4.753.1.096.23.144.359.144zm4.162-2.664a5.51 5.51 0 0 1-2.972 1.547 6.53 6.53 0 0 0 1.183-3.554 5.513 5.513 0 0 1 3.404-1.51 5.52 5.52 0 0 1-1.615 3.517zm-4.162-5.863a5.518 5.518 0 0 1 1.345 3.63c0 1.349-.474 2.619-1.345 3.629a5.517 5.517 0 0 1-1.346-3.63c0-1.35.475-2.62 1.346-3.629z"/>
        </g>
    </g>
</svg>
