<svg xmlns="http://www.w3.org/2000/svg" width="58" height="49" viewBox="0 0 58 49">
  <g fill="#FFF" transform="translate(0 1)">
    <path d="M9.186,44.842 C3.206,40.506 -5.68,26.763 4.97,15.842 C9.914,10.772 28.607,10.132 34.638,16.304 C43.901,25.782 34.638,47.278 27.097,47.278 C19.143,48.545 13.173,47.733 9.186,44.842 Z" opacity=".2"/>
    <g stroke="#FFF" transform="translate(14)">
      <path stroke-width=".5" d="M26.216,35.543 L0.723,35.543 C0.385,35.543 0.16,35.318 0.16,34.98 C0.16,34.642 0.385,34.417 0.723,34.417 L25.653,34.417 L25.653,1.24 L7.813,1.24 L7.813,34.487 C7.813,34.825 7.589,35.05 7.251,35.05 C6.913,35.05 6.688,34.825 6.688,34.487 L6.688,0.677 C6.688,0.339 6.913,0.114 7.251,0.114 L26.216,0.114 C26.554,0.114 26.779,0.339 26.779,0.677 L26.779,34.98 C26.7784496,35.290708 26.526708,35.5424496 26.216,35.543 L26.216,35.543 Z M42.465,35.543 L30.085,35.543 C29.747,35.543 29.522,35.318 29.522,34.98 L29.522,11.738 C29.522,11.4 29.747,11.175 30.084,11.175 L42.465,11.175 C42.803,11.175 43.028,11.4 43.028,11.738 L43.028,34.98 C43.028,35.318 42.803,35.543 42.465,35.543 L42.465,35.543 Z M30.647,34.417 L41.903,34.417 L41.903,12.3 L30.647,12.3 L30.647,34.417 L30.647,34.417 Z"/>
      <path stroke-width=".2" d="M15.611 10.493L11.704 10.493C11.414 10.493 11.222 10.3 11.222 10.011L11.222 6.441C11.222 6.152 11.414 5.959 11.704 5.959L15.611 5.959C15.901 5.959 16.094 6.152 16.094 6.441L16.094 10.011C16.094 10.301 15.852 10.493 15.611 10.493zM12.138 9.529L15.081 9.529 15.081 6.924 12.138 6.924 12.138 9.529zM21.978 10.493L18.071 10.493C17.781 10.493 17.589 10.3 17.589 10.011L17.589 6.441C17.589 6.152 17.782 5.959 18.071 5.959L21.978 5.959C22.268 5.959 22.461 6.152 22.461 6.441L22.461 10.011C22.461 10.301 22.22 10.493 21.978 10.493L21.978 10.493zM18.505 9.529L21.448 9.529 21.448 6.924 18.505 6.924 18.505 9.529zM38.229 19.065L34.32 19.065C34.03 19.065 33.838 18.872 33.838 18.582L33.838 15.012C33.838 14.723 34.031 14.53 34.32 14.53L38.228 14.53C38.517 14.53 38.71 14.723 38.71 15.013L38.71 18.583C38.71 18.872 38.469 19.065 38.228 19.065L38.229 19.065zM34.755 18.1L37.698 18.1 37.698 15.495 34.755 15.495 34.755 18.1zM38.229 25.213L34.32 25.213C34.03 25.213 33.838 25.02 33.838 24.731L33.838 21.161C33.838 20.872 34.031 20.679 34.32 20.679L38.228 20.679C38.517 20.679 38.71 20.872 38.71 21.161L38.71 24.731C38.71 25.021 38.469 25.213 38.228 25.213L38.229 25.213zM34.755 24.249L37.698 24.249 37.698 21.644 34.755 21.644 34.755 24.249zM38.229 31.362L34.32 31.362C34.03 31.362 33.838 31.169 33.838 30.879L33.838 27.309C33.838 27.02 34.031 26.828 34.32 26.828L38.228 26.828C38.517 26.828 38.71 27.02 38.71 27.31L38.71 30.88C38.71 31.169 38.469 31.362 38.228 31.362L38.229 31.362zM34.755 30.397L37.698 30.397 37.698 27.792 34.755 27.792 34.755 30.397zM15.611 18.742L11.704 18.742C11.414 18.742 11.222 18.549 11.222 18.26L11.222 14.69C11.222 14.4 11.414 14.208 11.704 14.208L15.611 14.208C15.901 14.208 16.094 14.401 16.094 14.69L16.094 18.26C16.094 18.5 15.852 18.742 15.611 18.742zM12.138 17.777L15.081 17.777 15.081 15.172 12.138 15.172 12.138 17.777zM21.978 18.742L18.071 18.742C17.781 18.742 17.589 18.549 17.589 18.26L17.589 14.69C17.589 14.4 17.782 14.208 18.071 14.208L21.978 14.208C22.268 14.208 22.461 14.401 22.461 14.69L22.461 18.26C22.461 18.5 22.22 18.742 21.978 18.742L21.978 18.742zM18.505 17.777L21.448 17.777 21.448 15.172 18.505 15.172 18.505 17.777z"/>
      <path stroke-width=".5" d="M20.76,35.543 L12.994,35.543 C12.657,35.543 12.432,35.318 12.432,34.98 L12.432,22.712 C12.432,22.374 12.657,22.149 12.994,22.149 L20.761,22.149 C21.098,22.149 21.323,22.374 21.323,22.712 L21.323,34.98 C21.3224517,35.2903189 21.0713174,35.5419001 20.761,35.543 L20.76,35.543 Z M13.557,34.417 L20.197,34.417 L20.197,23.274 L13.557,23.274 L13.557,34.417 L13.557,34.417 Z M39.708,12.3 L32.842,12.3 C32.504,12.3 32.279,12.075 32.279,11.738 L32.279,8.36 C32.279,8.022 32.504,7.797 32.842,7.797 L39.764,7.797 C40.102,7.797 40.327,8.022 40.327,8.36 L40.327,11.737 C40.271,12.074 40.046,12.299 39.707,12.299 L39.708,12.3 Z M33.405,11.175 L39.2,11.175 L39.2,8.924 L33.404,8.924 L33.404,11.174 L33.405,11.175 Z"/>
    </g>
  </g>
</svg>
