<svg xmlns="http://www.w3.org/2000/svg" width="32" height="29" viewBox="0 0 32 29">
    <g fill="none" fill-rule="evenodd">
        <path fill="#B2D4FF" d="M5.358 27.141C1.87 24.611-3.313 16.595 2.9 10.225c2.884-2.958 13.788-3.331 17.307.269 5.403 5.529 0 18.068-4.4 18.068-4.64.74-8.122.266-10.448-1.42z"/>
        <path fill="#324056" fill-rule="nonzero" d="M20.249.597c6.351 0 11.5 5.15 11.5 11.5 0 6.352-5.149 11.5-11.5 11.5s-11.5-5.148-11.5-11.5c0-6.35 5.149-11.5 11.5-11.5zm0 1.609c-5.463 0-9.892 4.428-9.892 9.891 0 5.464 4.429 9.892 9.892 9.892 5.463 0 9.892-4.428 9.892-9.892 0-5.463-4.429-9.891-9.892-9.891zm-.077 13.297a1.608 1.608 0 0 1 1.395 2.409 5.575 5.575 0 0 0 1.38-.806l.232-.187.689.822c-2.34 1.959-4.783 2.016-7.17.176l-.216-.173.68-.829c.543.447 1.079.775 1.61.985a1.608 1.608 0 0 1 1.4-2.398zm-5.515-7.147l.828.68c-.446.544-.774 1.08-.985 1.61a1.608 1.608 0 1 1-.011 2.795c.179.46.448.919.806 1.381l.187.232-.822.688c-1.96-2.338-2.017-4.782-.176-7.169l.173-.217zm11.181 0c1.96 2.34 2.017 4.783.176 7.17l-.172.216-.83-.68c.447-.543.775-1.079.986-1.61a1.608 1.608 0 1 1 .011-2.795 5.575 5.575 0 0 0-.806-1.38l-.187-.232.822-.689zm-2.187-2.078l.217.173-.68.829c-.544-.447-1.08-.775-1.611-.985a1.608 1.608 0 1 1-2.795-.011 5.575 5.575 0 0 0-1.38.805l-.232.187-.688-.822c2.338-1.959 4.782-2.016 7.169-.176z"/>
    </g>
</svg>
