<svg xmlns="http://www.w3.org/2000/svg" width="33" height="29" viewBox="0 0 33 29">
    <g fill="none" fill-rule="evenodd">
        <path fill="#FFB5C0" d="M5.358 27.141C1.87 24.611-3.313 16.595 2.9 10.225c2.884-2.958 13.788-3.331 17.307.269 5.403 5.529 0 18.068-4.4 18.068-4.64.74-8.122.266-10.448-1.42z"/>
        <g fill="#324056" fill-rule="nonzero" stroke="#324056" stroke-width=".3">
            <path d="M21.07 5.826c0 .186-.014.371-.037.555.01-.064.016-.125.026-.188-.05.357-.144.705-.283 1.037l.07-.17a4.138 4.138 0 0 1-.481.847c-.087.122.103-.127.026-.033a4.948 4.948 0 0 1-.317.357 4.213 4.213 0 0 1-.285.26c-.024.018-.047.04-.073.058-.097.078.138-.103.044-.035a4.143 4.143 0 0 1-.86.492l.169-.071c-.334.139-.68.233-1.037.282.063-.01.124-.016.188-.026-.37.05-.74.05-1.11 0 .063.01.125.017.188.026a4.157 4.157 0 0 1-1.037-.282l.17.07a4.138 4.138 0 0 1-.847-.482c-.123-.087.127.104.033.026a4.948 4.948 0 0 1-.357-.317 4.213 4.213 0 0 1-.26-.285c-.018-.023-.04-.047-.058-.073-.078-.096.103.139.035.045a4.143 4.143 0 0 1-.492-.86l.071.168a4.185 4.185 0 0 1-.282-1.037c.01.064.016.125.026.188-.05-.369-.05-.74 0-1.11-.01.064-.017.125-.026.189.05-.358.143-.706.282-1.038l-.07.17a4.138 4.138 0 0 1 .482-.847c.087-.122-.104.127-.026.033L15 3.702a4.213 4.213 0 0 1 .543-.543c.024-.019.048-.04.074-.059.096-.078-.14.104-.045.035a4.143 4.143 0 0 1 .86-.492l-.169.071c.334-.138.68-.232 1.037-.282-.063.01-.124.017-.188.026.37-.05.741-.05 1.11 0-.063-.01-.124-.016-.188-.026.358.05.706.144 1.037.282l-.169-.07a4.138 4.138 0 0 1 .847.482c.122.087-.127-.104-.033-.026l.073.059a4.213 4.213 0 0 1 .543.543c.019.024.04.047.059.073.077.096-.104-.139-.036-.045a4.143 4.143 0 0 1 .492.86l-.07-.168c.138.334.232.68.282 1.037-.01-.064-.017-.125-.026-.188.023.186.035.369.037.555.003.369.325.722.706.705.38-.016.708-.31.705-.705-.004-.976-.298-1.966-.872-2.759a4.962 4.962 0 0 0-2.34-1.78c-1.842-.677-4.05-.078-5.292 1.442a4.955 4.955 0 0 0-1.119 2.768c-.078.968.17 1.973.67 2.805.49.811 1.23 1.498 2.098 1.889.96.43 1.997.555 3.031.348 1.889-.377 3.46-1.997 3.75-3.907.04-.268.07-.536.07-.806.002-.37-.325-.722-.706-.706-.379.02-.7.31-.7.706zM29.116 7.472c0 .132-.01.261-.026.39.01-.063.016-.124.026-.188a2.913 2.913 0 0 1-.21.76l.07-.17a3.327 3.327 0 0 1-.255.478c-.026.038-.055.075-.08.113-.055.077.054-.068.054-.068 0 .011-.04.049-.05.058a3.038 3.038 0 0 1-.378.381l-.06.05c-.06.052.137-.099.071-.054l-.113.08a2.982 2.982 0 0 1-.489.265l.17-.07a3.062 3.062 0 0 1-.76.21l.188-.027a3.117 3.117 0 0 1-.783 0c.064.01.125.017.188.026a2.913 2.913 0 0 1-.76-.21l.17.071a3.327 3.327 0 0 1-.477-.256l-.113-.08c-.078-.054.068.054.068.054-.012 0-.05-.04-.059-.05a3.038 3.038 0 0 1-.381-.378l-.05-.059c-.051-.06.1.137.055.07l-.08-.112a2.982 2.982 0 0 1-.266-.49l.07.17a3.062 3.062 0 0 1-.209-.76c.01.064.017.125.026.189a3.117 3.117 0 0 1 0-.783c-.01.063-.016.124-.026.188.036-.264.106-.518.21-.76l-.071.17c.073-.168.158-.325.256-.478l.08-.113c.054-.077-.054.068-.054.068 0-.011.04-.049.05-.058a3.038 3.038 0 0 1 .378-.381l.06-.05c.06-.052-.137.099-.071.054l.112-.08c.156-.103.318-.193.49-.265l-.17.07c.245-.103.499-.172.76-.21l-.188.027c.26-.033.522-.033.783 0-.064-.01-.125-.017-.188-.026.263.035.517.106.76.21l-.17-.071c.167.072.325.157.477.256l.113.08c.078.054-.068-.054-.068-.054.012 0 .05.04.059.05a3.038 3.038 0 0 1 .38.378l.05.059c.052.06-.099-.137-.054-.07l.08.112c.104.155.193.317.266.49l-.07-.17c.103.244.171.498.209.76-.01-.064-.017-.125-.026-.189.016.132.026.264.026.393.002.37.322.722.705.706.381-.017.708-.31.706-.706-.005-.73-.221-1.477-.65-2.072a3.795 3.795 0 0 0-1.787-1.366c-1.376-.51-3.052-.06-3.984 1.077a3.755 3.755 0 0 0-.86 2.116c-.061.732.131 1.5.51 2.126.365.602.915 1.12 1.56 1.411a3.79 3.79 0 0 0 2.332.273c1.409-.282 2.599-1.5 2.82-2.923a4.53 4.53 0 0 0 .061-.642c.002-.37-.327-.722-.706-.706-.385.02-.705.31-.707.706zM24.149 17.295v.725c0 .254.019.52-.01.773.01-.063.017-.124.026-.188a1.37 1.37 0 0 1-.092.336l.071-.169a1.52 1.52 0 0 1-.103.193c-.095.143.094-.104.018-.019-.023.026-.047.054-.073.08-.025.026-.054.05-.08.073-.089.082.158-.103.031-.026-.068.04-.134.08-.205.113l.17-.07a1.37 1.37 0 0 1-.337.091c.064-.01.125-.016.189-.026-.149.017-.301.01-.45.01H13.161c-.468 0-.936.004-1.404 0a2.1 2.1 0 0 1-.174-.01c.064.01.125.017.189.026a1.37 1.37 0 0 1-.337-.092l.17.071a1.52 1.52 0 0 1-.193-.103c-.144-.095.103.094.019.018-.026-.023-.055-.047-.08-.073-.026-.025-.05-.054-.073-.08-.083-.089.103.158.026.031-.04-.068-.08-.134-.113-.205l.07.17a1.37 1.37 0 0 1-.092-.337c.01.064.017.125.026.189-.037-.33-.01-.673-.01-1.005 0-.383-.006-.766.043-1.147-.01.063-.016.124-.026.188.06-.442.177-.873.35-1.284l-.07.17c.127-.297.28-.582.459-.85.047-.068.094-.136.143-.202.03-.042.113-.134-.035.045.026-.03.052-.064.078-.097a5.102 5.102 0 0 1 .677-.677c.023-.019.068-.07.096-.078-.035.007-.15.116-.044.036.066-.05.134-.097.202-.144.268-.181.553-.334.849-.458l-.17.07a5.17 5.17 0 0 1 1.285-.35c-.064.01-.125.016-.189.026.661-.085 1.346-.043 2.009-.043h2.603c.36 0 .72-.002 1.077.045-.063-.01-.124-.017-.188-.026.433.061.856.176 1.258.343l-.169-.07a5.234 5.234 0 0 1 1.077.62c.108.08-.139-.11-.012-.006a5.243 5.243 0 0 1 .736.731c.022.028.043.056.066.082-.15-.176-.035-.047-.004-.002a4.942 4.942 0 0 1 .576 1.018l-.07-.169c.166.402.281.823.34 1.253-.01-.063-.016-.124-.026-.188.026.221.04.445.043.668.002.37.324.722.705.706.381-.017.708-.31.706-.706-.005-1.169-.367-2.35-1.056-3.295a5.872 5.872 0 0 0-2.93-2.15c-.673-.218-1.37-.267-2.07-.267h-3.593c-.577 0-1.143.019-1.71.146-2.02.456-3.685 2.074-4.229 4.066-.202.736-.2 1.481-.2 2.236 0 .252-.016.51.01.762.073.659.442 1.284 1.051 1.585.301.148.614.226.95.226h11.552c.437 0 .858-.04 1.251-.27.588-.346.953-.976.978-1.656.01-.238 0-.477 0-.717v-.668c0-.37-.324-.722-.705-.706-.388.02-.71.313-.71.708z"/>
            <path d="M31.32 16.251c0 .202.013.412-.01.614.01-.064.016-.125.026-.188a1.101 1.101 0 0 1-.064.244l.07-.17a.92.92 0 0 1-.086.166c-.043.063-.09.072.037-.043-.02.021-.04.047-.063.068-.01.01-.061.066-.068.064.004.002.171-.12.042-.038a1.372 1.372 0 0 1-.165.087l.17-.07c-.08.03-.16.052-.245.063.064-.01.125-.016.188-.026-.23.026-.47.01-.7.01h-5.598l.706.705c0-.595-.019-1.183-.155-1.768a5.544 5.544 0 0 0-.986-2.084 5.842 5.842 0 0 0-.948-.995v.998c.085-.08.174-.156.264-.23.061-.053-.15.11-.04.03.019-.014.04-.029.059-.045a3.922 3.922 0 0 1 .774-.433l-.17.07c.315-.13.644-.22.98-.27-.063.01-.124.017-.187.026.428-.056.865-.037 1.293-.037h1.463c.228 0 .454.004.68.035-.064-.01-.125-.017-.189-.026.346.047.685.139 1.007.275l-.17-.07c.229.098.45.216.657.352l.153.106c.108.08-.01-.028-.045-.035.021.005.054.042.073.059a3.892 3.892 0 0 1 .536.531c.019.024.038.05.059.073.05.057-.118-.16-.036-.045l.109.15c.14.213.263.436.362.671l-.07-.17c.133.323.227.662.274 1.007l-.025-.188c.025.179.035.353.037.527.003.37.325.722.706.706.38-.017.708-.31.705-.706-.004-1.08-.385-2.093-1.051-2.935a4.628 4.628 0 0 0-2.432-1.576c-.611-.16-1.23-.153-1.855-.153h-1.649c-1.22 0-2.384.461-3.271 1.301-.256.242-.292.762 0 .997.16.13.313.268.456.414.07.07.137.146.202.221.036.04.069.08.102.122.014.02.028.038.044.055.05.06-.113-.151-.035-.045.247.334.454.691.616 1.075l-.07-.17c.167.402.282.823.34 1.254l-.025-.188c.05.369.044.74.044 1.112 0 .381.323.705.706.705h2.874c1.084 0 2.17.003 3.255 0a1.764 1.764 0 0 0 1.458-.761c.305-.428.289-.934.289-1.433 0-.369-.325-.722-.706-.705-.38.023-.703.315-.703.71z"/>
        </g>
    </g>
</svg>
