<svg xmlns="http://www.w3.org/2000/svg" width="32" height="28" viewBox="0 0 32 28">
    <g fill="none" fill-rule="evenodd">
        <path fill="#86E5F2" d="M5.358 26.141C1.87 23.611-3.313 15.595 2.9 9.225c2.884-2.958 13.788-3.331 17.307.269 5.403 5.529 0 18.068-4.4 18.068-4.64.74-8.122.266-10.448-1.42z"/>
        <path fill="#324056" fill-rule="nonzero" stroke="#324056" stroke-width=".2" d="M26.135 14.004c1.703-3.338 1.192-7.56-1.6-10.352-3.474-3.473-9.16-3.473-12.633 0-3.474 3.473-3.474 9.126 0 12.633a8.9 8.9 0 0 0 6.3 2.622c1.395 0 2.757-.34 4.051-.988l4.427 4.734c.204.204.477.306.783.306.647 0 1.464-.477 2.384-1.362 1.328-1.328 1.702-2.486 1.021-3.167l-4.733-4.426zm-13.212 1.293c-2.962-2.928-2.962-7.73 0-10.658 1.464-1.498 3.405-2.213 5.312-2.213 1.941 0 3.882.715 5.346 2.213 2.248 2.248 2.759 5.619 1.533 8.377l-1.975-1.839c.408-1.736-.103-3.507-1.362-4.801-1.192-1.192-2.895-1.737-4.53-1.43a1.15 1.15 0 0 0-.885.783c-.136.409-.034.851.273 1.158l1.532 1.532c.204.204.307.443.307.75 0 .272-.103.544-.307.748a1.028 1.028 0 0 1-1.464 0L15.17 8.351a1.123 1.123 0 0 0-1.158-.272 1.15 1.15 0 0 0-.783.885c-.273 1.668.238 3.337 1.43 4.529a5.11 5.11 0 0 0 4.801 1.362L21.3 16.83c-2.792 1.226-6.13.715-8.377-1.533zm14.642 6.232l-7.423-7.934a.693.693 0 0 0-.51-.204c-.069 0-.137 0-.205.034a3.751 3.751 0 0 1-3.814-.886 3.668 3.668 0 0 1-1.09-2.826l1.192 1.192c.954.953 2.486.953 3.406 0 .953-.954.953-2.486 0-3.405l-1.192-1.192c1.055-.068 2.077.34 2.86 1.09a3.665 3.665 0 0 1 .885 3.813.677.677 0 0 0 .17.715l7.969 7.356c-.17.647-1.6 2.077-2.248 2.247z"/>
    </g>
</svg>
