<svg xmlns="http://www.w3.org/2000/svg" width="60" height="52" viewBox="0 0 60 52">
  <g fill="#FFF" fill-rule="evenodd" transform="translate(0 1)">
    <path d="M9.743,47.62 C3.4,43.023 -6.024,28.447 5.27,16.864 C10.514,11.486 30.34,10.808 36.736,17.354 C46.56,27.406 36.736,50.204 28.738,50.204 C20.302,51.549 13.97,50.688 9.742,47.622 L9.743,47.62 Z" opacity=".196"/>
    <g stroke="#FFF" stroke-width=".3" transform="translate(17)">
      <path d="M21.31,8.865 C21.31,9.203 21.284,9.541 21.241,9.875 C21.258,9.759 21.271,9.648 21.288,9.532 C21.198,10.182 21.028,10.815 20.775,11.418 L20.903,11.11 C20.672677,11.6560454 20.3786384,12.1729625 20.027,12.65 C19.869,12.872 20.215,12.418 20.074,12.59 L19.967,12.722 C19.817,12.902 19.659,13.072 19.497,13.239 C19.3315799,13.4034723 19.1587331,13.5603024 18.979,13.709 C18.937,13.744 18.894,13.782 18.847,13.817 C18.671,13.957 19.099,13.628 18.928,13.752 C18.4439915,14.1115581 17.918565,14.4117059 17.363,14.646 L17.671,14.518 C17.0670048,14.7693781 16.4331085,14.9418006 15.785,15.031 C15.901,15.014 16.012,15.001 16.127,14.984 C15.456,15.074 14.78,15.074 14.109,14.984 C14.224,15.001 14.336,15.014 14.451,15.031 C13.8027794,14.9423511 13.168813,14.7699095 12.565,14.518 L12.873,14.646 C12.327254,14.4152921 11.810674,14.1209187 11.334,13.769 C11.112,13.611 11.564,13.958 11.394,13.817 L11.261,13.71 C11.081,13.56 10.911,13.402 10.744,13.24 C10.5795277,13.0745799 10.4226976,12.9017331 10.274,12.722 C10.239,12.679 10.201,12.636 10.167,12.589 C10.026,12.414 10.355,12.842 10.231,12.671 C9.87144191,12.1869915 9.57129412,11.661565 9.337,11.106 L9.465,11.413 C9.21370457,10.8093232 9.04128348,10.1757681 8.952,9.528 C8.969,9.643 8.982,9.754 8.999,9.87 C8.90922611,9.20032863 8.90922611,8.52167137 8.999,7.852 C8.982,7.967 8.969,8.078 8.952,8.194 C9.042,7.544 9.213,6.911 9.465,6.308 L9.337,6.616 C9.56763758,6.06990649 9.86201296,5.55298736 10.214,5.076 C10.372,4.854 10.026,5.307 10.167,5.136 L10.274,5.004 C10.424,4.824 10.581,4.654 10.744,4.487 C10.9090947,4.32255112 11.0816075,4.16572135 11.261,4.017 C11.304,3.982 11.347,3.943 11.394,3.909 C11.569,3.769 11.142,4.097 11.313,3.973 C11.7970085,3.61344191 12.322435,3.31329412 12.878,3.079 L12.57,3.208 C13.1736768,2.95670457 13.8072319,2.78428348 14.455,2.695 C14.34,2.712 14.229,2.725 14.113,2.742 C14.7830002,2.65213672 15.4619998,2.65213672 16.132,2.742 C16.016,2.725 15.905,2.712 15.789,2.695 C16.439,2.785 17.072,2.955 17.675,3.208 L17.367,3.08 C17.9130454,3.31032304 18.4299625,3.60436161 18.907,3.956 C19.129,4.115 18.676,3.768 18.847,3.909 L18.979,4.016 C19.159,4.166 19.329,4.324 19.497,4.486 C19.663,4.653 19.817,4.824 19.967,5.004 C20.001,5.047 20.04,5.089 20.074,5.136 C20.215,5.312 19.886,4.884 20.01,5.056 C20.3695581,5.54000847 20.6697059,6.06543498 20.904,6.621 L20.775,6.312 C21.027,6.92 21.198,7.548 21.288,8.198 C21.271,8.083 21.258,7.971 21.241,7.856 C21.284,8.194 21.305,8.527 21.31,8.865 C21.314,9.536 21.9,10.178 22.592,10.148 C23.285,10.118 23.879,9.583 23.8750201,8.865 C23.867,7.091 23.332,5.29 22.289,3.849 C21.230138,2.36525722 19.7466697,1.23705433 18.034,0.613 C14.686,-0.619 10.671,0.471 8.414,3.233 C7.229,4.687 6.528,6.393 6.378,8.266 C6.238,10.028 6.686,11.854 7.597,13.368 C8.487,14.843 9.833,16.091 11.411,16.801 C13.1360487,17.5863989 15.0648171,17.8078993 16.923,17.434 C20.356,16.75 23.213,13.804 23.738,10.332 C23.8172146,9.84686241 23.8603329,9.35651702 23.867,8.865 C23.871,8.194 23.277,7.552 22.584,7.582 C21.895,7.616 21.31,8.147 21.31,8.865 L21.31,8.865 Z M35.937,11.858 C35.9364002,12.0954237 35.9207018,12.332569 35.89,12.568 C35.908,12.453 35.92,12.341 35.937,12.226 C35.873,12.705 35.745,13.166 35.557,13.607 L35.685,13.299 C35.5535216,13.6005205 35.3976717,13.890816 35.219,14.167 C35.172,14.236 35.121,14.304 35.074,14.372 C34.975,14.513 35.172,14.248 35.172,14.248 C35.172,14.27 35.099,14.338 35.082,14.355 C34.8735781,14.6058609 34.6433451,14.8377671 34.394,15.048 C34.36,15.078 34.321,15.108 34.287,15.138 C34.176,15.232 34.535,14.958 34.415,15.039 C34.347,15.086 34.278,15.138 34.21,15.185 C33.9290561,15.373421 33.6310893,15.5351265 33.32,15.668 L33.628,15.54 C33.1862647,15.7255114 32.7224331,15.8532331 32.248,15.92 C32.363,15.903 32.474,15.89 32.589,15.873 C32.115,15.933 31.64,15.933 31.166,15.873 C31.281,15.89 31.392,15.903 31.508,15.92 C31.0325828,15.8564546 30.5680016,15.7286191 30.127,15.54 L30.434,15.668 C30.1324795,15.5365216 29.842184,15.3806717 29.566,15.202 C29.498,15.155 29.43,15.104 29.361,15.057 C29.22,14.958 29.485,15.155 29.485,15.155 C29.464,15.155 29.395,15.082 29.378,15.065 C29.127486,14.856533 28.8959157,14.6263013 28.686,14.377 C28.656,14.342 28.626,14.304 28.596,14.27 C28.502,14.159 28.776,14.518 28.694,14.398 L28.549,14.193 C28.360579,13.9120561 28.1988735,13.6140893 28.066,13.303 L28.194,13.611 C28.0084886,13.1692647 27.8807669,12.7054331 27.814,12.231 L27.86,12.572 C27.8,12.098 27.8,11.623 27.86,11.148 C27.843,11.264 27.83,11.375 27.813,11.49 C27.877,11.012 28.006,10.55 28.193,10.11 L28.066,10.417 C28.1974784,10.1154795 28.3533283,9.82518398 28.532,9.549 L28.677,9.344 C28.775,9.203 28.579,9.468 28.579,9.468 C28.579,9.447 28.651,9.378 28.669,9.361 C28.8774219,9.11013915 29.1076549,8.87823292 29.357,8.668 C29.391,8.638 29.43,8.608 29.464,8.578 C29.574,8.484 29.216,8.758 29.335,8.677 C29.404,8.63 29.472,8.579 29.541,8.532 C29.8219049,8.34323362 30.1198729,8.1811926 30.431,8.048 L30.122,8.177 C30.5640536,7.99140598 31.0282265,7.8636828 31.503,7.797 C31.388,7.813 31.277,7.826 31.161,7.843 C31.636,7.783 32.111,7.783 32.585,7.843 C32.47,7.826 32.359,7.813 32.243,7.796 C32.722,7.86 33.183,7.988 33.624,8.176 L33.316,8.048 C33.62,8.181 33.906,8.335 34.184,8.514 C34.253,8.561 34.321,8.613 34.39,8.66 C34.53,8.758 34.266,8.561 34.266,8.561 C34.287,8.561 34.356,8.634 34.372,8.651 C34.6229045,8.85973909 34.854812,9.09030806 35.065,9.34 C35.095,9.374 35.125,9.412 35.155,9.447 C35.249,9.557 34.975,9.199 35.057,9.318 C35.104,9.387 35.155,9.455 35.202,9.524 C35.39,9.806 35.552,10.101 35.685,10.413 L35.557,10.105 C35.745,10.55 35.869,11.012 35.937,11.486 C35.92,11.371 35.907,11.26 35.89,11.144 C35.92,11.384 35.937,11.623 35.937,11.858 C35.942,12.529 36.523,13.171 37.22,13.141 C37.913,13.111 38.5070311,12.577 38.503,11.858 C38.494,10.533 38.101,9.173 37.323,8.091 C36.5156457,6.95353231 35.3825064,6.08746517 34.073,5.607 C31.572,4.679 28.523,5.5 26.83,7.565 C25.9212874,8.65396249 25.3742912,9.99890902 25.265,11.413 C25.154,12.743 25.505,14.141 26.193,15.279 C26.855,16.373 27.856,17.314 29.028,17.844 C30.3535142,18.4541217 31.8384715,18.6277927 33.269,18.34 C35.831,17.827 37.994,15.612 38.396,13.025 C38.456,12.636 38.503,12.252 38.5070311,11.858 C38.512,11.187 37.913,10.545 37.224,10.575 C36.524,10.61 35.942,11.14 35.937,11.858 L35.937,11.858 Z M26.907,29.719 L26.907,31.036 C26.907,31.497 26.941,31.98 26.89,32.442 C26.907,32.327 26.92,32.216 26.937,32.1 C26.9076538,32.3102857 26.8515318,32.5159544 26.77,32.712 L26.898,32.404 C26.843,32.524 26.783,32.644 26.71,32.754 C26.539,33.015 26.881,32.566 26.744,32.72 C26.702,32.767 26.659,32.819 26.612,32.866 C26.565,32.913 26.513,32.956 26.466,32.998 C26.304,33.148 26.753,32.81 26.522,32.951 C26.398,33.024 26.278,33.096 26.15,33.156 L26.458,33.028 C26.2619544,33.1095318 26.0562857,33.1656538 25.846,33.195 C25.962,33.178 26.073,33.165 26.188,33.148 C25.919,33.178 25.641,33.165 25.372,33.165 L6.93,33.165 C6.079,33.165 5.228,33.173 4.377,33.165 C4.27,33.165 4.163,33.156 4.061,33.148 C4.176,33.165 4.287,33.178 4.403,33.195 C4.19271427,33.1656538 3.98704556,33.1095318 3.791,33.028 L4.099,33.156 C3.97797624,33.101807 3.8610077,33.0389782 3.749,32.968 C3.488,32.798 3.937,33.139 3.783,33.002 C3.736,32.96 3.684,32.917 3.637,32.87 C3.59,32.823 3.547,32.772 3.505,32.724 C3.355,32.562 3.693,33.011 3.552,32.78 C3.479,32.656 3.406,32.536 3.347,32.408 L3.475,32.716 C3.39346823,32.5199544 3.33734622,32.3142857 3.308,32.104 C3.325,32.22 3.338,32.331 3.355,32.447 C3.287,31.847 3.338,31.224 3.338,30.621 C3.338,29.924 3.325,29.227 3.415,28.534 C3.398,28.65 3.385,28.761 3.368,28.876 C3.475,28.072 3.688,27.29 4.005,26.542 L3.877,26.849 C4.107,26.311 4.386,25.793 4.711,25.306 C4.796,25.182 4.881,25.058 4.971,24.938 C5.027,24.861 5.177,24.694 4.907,25.019 C5.13293056,24.7312358 5.375688,24.4570902 5.634,24.198 C5.839,23.993 6.054,23.796 6.28,23.613 C6.323,23.578 6.404,23.484 6.455,23.471 C6.391,23.484 6.182,23.681 6.374,23.536 C6.96358923,23.0938677 7.60542848,22.7260948 8.285,22.441 L7.977,22.569 C8.7246347,22.2569424 9.50947078,22.0428351 10.312,21.932 C10.197,21.949 10.085,21.962 9.97,21.979 C11.172,21.825 12.416,21.902 13.622,21.902 L18.355,21.902 C19.009,21.902 19.663,21.898 20.313,21.983 C20.198,21.966 20.087,21.953 19.971,21.936 C20.758,22.048 21.528,22.257 22.259,22.561 L21.951,22.432 C22.5203236,22.6751095 23.0645687,22.9731883 23.576,23.322 C23.687,23.399 23.798,23.48 23.909,23.562 C24.106,23.707 23.657,23.36 23.888,23.548 C24.1615861,23.7700347 24.4226533,24.007065 24.67,24.258 C24.863,24.455 25.051,24.664 25.226,24.878 C25.265,24.93 25.303,24.981 25.346,25.028 C25.072,24.708 25.282,24.942 25.338,25.024 C25.7593843,25.5973326 26.1111817,26.2186846 26.386,26.875 L26.256,26.567 C26.56,27.298 26.77,28.064 26.876,28.847 L26.83,28.504 C26.877,28.906 26.902,29.312 26.907,29.719 C26.911,30.389 27.497,31.031 28.19,31.001 C28.882,30.971 29.477,30.437 29.472,29.719 C29.464,27.593 28.805,25.447 27.552,23.728 C26.218,21.898 24.388,20.525 22.225,19.82 C21.002,19.422 19.736,19.332 18.462,19.332 L11.928,19.332 C10.881,19.332 9.85,19.367 8.82,19.598 C5.147,20.427 2.12,23.368 1.132,26.991 C0.764,28.329 0.768,29.684 0.768,31.057 C0.768,31.514 0.738,31.985 0.785,32.442 C0.918,33.64 1.589,34.777 2.697,35.324 C3.244,35.594 3.813,35.734 4.424,35.734 L25.427,35.734 C26.223,35.734 26.988,35.662 27.702,35.243 C28.7681073,34.6073057 29.4382153,33.4735086 29.481,32.233 C29.498,31.801 29.481,31.365 29.481,30.929 L29.481,29.714 C29.481,29.043 28.891,28.402 28.198,28.431 C27.493,28.466 26.907,29.001 26.907,29.719 L26.907,29.719 Z"/>
      <path d="M39.944,27.82 C39.944,28.188 39.97,28.568 39.927,28.936 C39.944,28.821 39.957,28.709 39.974,28.594 C39.953,28.748 39.914,28.894 39.858,29.039 L39.987,28.731 C39.9446288,28.8360927 39.8916903,28.9366087 39.829,29.031 C39.752,29.146 39.666,29.163 39.897,28.953 C39.858,28.992 39.824,29.039 39.781,29.077 C39.764,29.094 39.671,29.197 39.657,29.193 C39.666,29.197 39.97,28.975 39.734,29.124 C39.64,29.184 39.538,29.235 39.435,29.282 L39.743,29.154 C39.598,29.21 39.453,29.248 39.298,29.27 C39.414,29.252 39.525,29.24 39.64,29.223 C39.221,29.27 38.785,29.24 38.366,29.24 L28.19,29.24 L29.472,30.522 C29.472,29.441 29.438,28.372 29.19,27.307 C28.8650521,25.9324705 28.2548655,24.6415732 27.399,23.518 C26.885,22.851 26.329,22.24 25.675,21.71 L25.675,23.523 C25.829,23.377 25.992,23.241 26.155,23.103 C26.265,23.01 25.881,23.305 26.082,23.159 C26.116,23.134 26.154,23.108 26.188,23.079 C26.6257432,22.7643248 27.0977589,22.5003047 27.595,22.292 L27.287,22.42 C27.858452,22.1821757 28.4574507,22.0168884 29.07,21.928 C28.955,21.945 28.844,21.958 28.728,21.975 C29.507,21.872 30.302,21.906 31.08,21.906 L33.74,21.906 C34.154,21.906 34.565,21.915 34.975,21.971 C34.86,21.954 34.749,21.941 34.633,21.924 C35.2624465,22.0089111 35.8778271,22.1770479 36.463,22.424 L36.156,22.296 C36.57,22.476 36.972,22.689 37.348,22.937 C37.443,23.001 37.532,23.065 37.626,23.129 C37.823,23.275 37.609,23.079 37.546,23.065 C37.584,23.074 37.644,23.142 37.678,23.172 C38.0335346,23.4616452 38.3600703,23.7851667 38.653,24.138 C38.687,24.181 38.721,24.228 38.76,24.271 C38.85,24.374 38.546,23.981 38.695,24.19 L38.892,24.463 C39.149,24.848 39.371,25.255 39.551,25.683 L39.422,25.374 C39.666,25.96 39.837,26.576 39.922,27.204 C39.905,27.089 39.892,26.978 39.876,26.862 C39.923,27.187 39.94,27.504 39.944,27.82 C39.948,28.491 40.534,29.133 41.227,29.103 C41.919,29.073 42.514,28.538 42.5100201,27.82 C42.5,25.857 41.808,24.015 40.598,22.484 C39.495,21.09 37.896,20.068 36.177,19.619 C35.065,19.329 33.941,19.3409299 32.803,19.3409299 L29.806,19.3409299 C27.5932767,19.3366971 25.463635,20.1834696 23.858,21.706 C23.392,22.146 23.328,23.091 23.858,23.518 C24.148,23.754 24.427,24.006 24.688,24.271 C24.816,24.399 24.936,24.536 25.055,24.673 C25.119,24.746 25.179,24.818 25.239,24.895 C25.265,24.93 25.29,24.964 25.32,24.994 C25.41,25.104 25.115,24.72 25.256,24.912 C25.7053801,25.5170507 26.0813441,26.1733094 26.376,26.867 L26.248,26.559 C26.552,27.289 26.761,28.055 26.868,28.838 C26.851,28.722 26.838,28.611 26.821,28.496 C26.911,29.166 26.902,29.843 26.902,30.518 C26.9111573,31.2227534 27.4802466,31.7918427 28.185,31.801 L33.41,31.801 C35.382,31.801 37.357,31.805 39.328,31.801 C40.41,31.797 41.351,31.296 41.979,30.416 C42.535,29.637 42.505,28.718 42.505,27.811 C42.505,27.141 41.915,26.499 41.222,26.529 C40.53,26.571 39.944,27.102 39.944,27.82 L39.944,27.82 Z"/>
    </g>
  </g>
</svg>
