<svg xmlns="http://www.w3.org/2000/svg" width="59" height="54" viewBox="0 0 59 54">
  <g fill="#FFF">
    <path d="M5.611,17.972 C11.193,12.26 32.298,11.54 39.108,18.492 C49.565,29.168 39.108,53.382 30.593,53.382 C21.613,54.809 14.873,53.895 10.371,50.638 C3.62,45.754 -6.412,30.274 5.611,17.972 Z" opacity=".2"/>
    <g transform="translate(14)">
      <path stroke="#FFF" stroke-width=".2" d="M14.802,24.0930325 C13.6347918,24.0930325 12.5148603,23.6318064 11.686,22.81 L1.3,12.446 C0.46890684,11.6259675 0.00503119355,10.5045139 0.0137482192,9.337 C0.0137482192,8.153 0.459,7.067 1.3,6.229 L6.098,1.442 C6.92128265,0.612438772 8.04428991,0.149896778 9.213,0.158740018 C10.4,0.158740018 11.488,0.603 12.329,1.442 L22.667,11.756 C23.4984084,12.5868687 23.9655342,13.7140925 23.9655342,14.8895 C23.9655342,16.0649075 23.4984084,17.1921313 22.667,18.023 C22.172,18.516 21.331,18.516 20.787,18.023 C20.293,17.529 20.293,16.69 20.787,16.148 C21.133,15.802 21.282,15.358 21.282,14.914 C21.2857675,14.4535636 21.1079168,14.0101943 20.787,13.68 L10.45,3.317 C9.757,2.675 8.62,2.675 7.927,3.317 L3.129,8.104 C2.783,8.449 2.634,8.894 2.634,9.337 C2.634,9.831 2.832,10.275 3.129,10.571 L13.467,20.885 C14.11,21.527 15.297,21.527 15.989,20.885 C16.484,20.392 17.325,20.392 17.869,20.885 C18.364,21.379 18.364,22.217 17.869,22.76 C17.0775531,23.6129637 15.9655827,24.0962556 14.802,24.0930325 L14.802,24.0930325 Z M35.33,44.572 C34.160598,44.5816432 33.0367688,44.1190596 32.213,43.289 L21.875,32.975 C21.0435916,32.1441313 20.5764658,31.0169075 20.5764658,29.8415 C20.5764658,28.6660925 21.0435916,27.5388687 21.875,26.708 C22.37,26.215 23.211,26.215 23.755,26.708 C24.25,27.202 24.25,28.041 23.755,28.583 C23.409,28.929 23.26,29.373 23.26,29.817 C23.26,30.311 23.458,30.755 23.755,31.051 L34.093,41.365 C34.785,42.055 35.923,42.006 36.615,41.365 L41.413,36.578 C41.759,36.232 41.908,35.788 41.908,35.344 C41.9117675,34.8835636 41.7339168,34.4401943 41.413,34.11 L31.026,23.797 C30.383,23.155 29.196,23.106 28.503,23.797 C28.009,24.29 27.168,24.29 26.623,23.797 C26.129,23.303 26.129,22.464 26.623,21.921 C28.3606694,20.1933931 31.1673306,20.1933931 32.905,21.921 L43.243,32.235 C44.0743431,33.0552749 44.5382397,34.1771401 44.5292669,35.345 C44.5292669,36.529 44.084,37.615 43.243,38.453 L38.445,43.24 C37.6397888,44.102329 36.5087396,44.5858199 35.329,44.572 L35.33,44.572 Z"/>
      <path d="M32.361,13.63 C32.015,13.63 31.669,13.483 31.421,13.236 C30.927,12.743 30.927,11.904 31.421,11.361 L36.219,6.574 C36.714,6.08 37.555,6.08 38.099,6.574 C38.594,7.067 38.594,7.906 38.099,8.449 L33.301,13.236 C33.0537363,13.4890146 32.7147733,13.6314512 32.361,13.6310022 L32.361,13.63 Z M42.996,17.4800478 L36.17,17.4800478 C35.8157141,17.4821359 35.4752628,17.3426154 35.224365,17.0924687 C34.9734672,16.8423221 34.8329264,16.5022907 34.8339879,16.148 C34.8339879,15.408 35.428,14.815 36.17,14.815 L42.946,14.815 C43.688,14.815 44.282,15.407 44.282,16.148 C44.282,16.888 43.688,17.4800478 42.996,17.4800478 Z M28.503,9.782 C28.148713,9.78387003 27.8083669,9.64409434 27.5576569,9.39375997 C27.3069469,9.14342559 27.1666611,8.80328943 27.1679811,8.449 L27.1679811,1.69 C27.1679811,0.95 27.761,0.357 28.503,0.357 C29.245,0.357 29.839,0.949 29.839,1.689 L29.839,8.45 C29.789,9.19 29.245,9.783 28.503,9.783 L28.503,9.782 Z M7.877,38.058 C7.531,38.058 7.185,37.91 6.937,37.664 C6.443,37.17 6.443,36.331 6.937,35.788 L11.736,31.002 C12.23,30.508 13.071,30.508 13.616,31.002 C14.11,31.495 14.11,32.334 13.616,32.877 L8.768,37.664 C8.54521035,37.9218584 8.21866896,38.0664172 7.878,38.058 L7.877,38.058 Z M8.817,29.4220478 L2.041,29.4220478 C1.68671409,29.4241359 1.34626284,29.2846154 1.095365,29.0344687 C0.844467168,28.7843221 0.703926416,28.4442907 0.704987857,28.09 C0.704987857,27.35 1.299,26.807 2.041,26.807 L8.817,26.807 C9.559,26.807 10.153,27.399 10.153,28.139 C10.153,28.879 9.559,29.4220478 8.817,29.4220478 Z M16.484,43.8820478 C16.1295402,43.8841379 15.7889359,43.7444805 15.5380088,43.4941169 C15.2870817,43.2437532 15.146659,42.9034637 15.1479811,42.549 L15.1479811,35.789 C15.1479811,35.049 15.742,34.456 16.484,34.456 C17.226,34.456 17.819,35.048 17.819,35.788 L17.819,42.549 C17.819,43.289 17.226,43.8820478 16.484,43.8820478 L16.484,43.8820478 Z"/>
    </g>
  </g>
</svg>
