<svg xmlns="http://www.w3.org/2000/svg" width="59" height="51" viewBox="0 0 59 51">
  <g fill="#FFF">
    <path d="M9.186,47.557 C3.206,43.22 -5.68,29.477 4.97,18.557 C9.914,13.486 28.607,12.847 34.638,19.018 C43.901,28.496 34.638,49.992 27.097,49.992 C19.143,51.259 13.173,50.447 9.186,47.557 Z" opacity=".2"/>
    <path stroke="#FFF" stroke-width=".5" d="M57.306,15.564 C56.6891457,14.9436835 55.8498126,14.5958518 54.975,14.5979803 C54.094,14.5979803 53.266,14.941 52.645,15.564 L47.625,20.584 C47.3607108,20.4070188 47.0719998,20.2695695 46.768,20.176 L46.728,20.165 C46.6008728,20.1277093 46.4716459,20.0979803 46.341,20.076 L46.244,20.06 C46.09562,20.038434 45.9459352,20.027074 45.796,20.026 L45.795,20.026 L30.66,20.029 C29.302,20.029 28.013,20.549 27.019,21.507 L19.529,28.991 C19.3628407,29.1571575 19.2694932,29.3825165 19.2694932,29.6175 C19.2694932,29.8524835 19.3628407,30.0778425 19.529,30.244 L26.346,37.063 C26.512198,37.2294654 26.7377714,37.3230072 26.973,37.3230072 C27.2082286,37.3230072 27.433802,37.2294654 27.6,37.063 L30.811,33.85 L42.318,33.85 C43.198,33.85 44.025,33.508 44.648,32.885 L57.306,20.227 C57.929,19.604 58.272,18.777 58.272,17.896 C58.272,17.014 57.929,16.186 57.306,15.564 L57.306,15.564 Z M56.053,18.973 L43.394,31.632 C43.107,31.919 42.724,32.078 42.315,32.078 L30.444,32.078 C30.2087943,32.078108 29.9832615,32.1716304 29.817,32.338 L26.973,35.183 L21.408,29.618 L28.259,22.772 C28.9029084,22.1489971 29.7640369,21.8011026 30.66,21.802 L45.795,21.798 C46.247,21.798 46.674,22.005 46.968,22.366 C46.982,22.382 46.998,22.396 47.014,22.411 C47.4718293,23.0159233 47.4120154,23.8661361 46.874,24.401 C46.586,24.688 46.204,24.847 45.797,24.847 L37.447,24.847 C36.9576757,24.847 36.561,25.2436757 36.561,25.733 C36.561,26.2223243 36.9576757,26.619 37.447,26.619 L45.797,26.619 C46.671454,26.6218152 47.5106049,26.2742699 48.127,25.654 C48.749,25.031 49.092,24.204 49.092,23.322 C49.092,22.841 48.975,22.372 48.775,21.939 L53.898,16.817 C54.473,16.241 55.477,16.242 56.053,16.817 C56.341,17.105 56.5,17.489 56.5,17.896 C56.5,18.303 56.341,18.685 56.053,18.973 L56.053,18.973 Z M37.865,17.1290032 C37.902,17.1290032 37.937,17.123 37.973,17.119 C37.997,17.121 38.019,17.127 38.043,17.127 L38.25,17.1290032 C41.276,17.1290032 44.11,15.957 46.253,13.815 C48.4343131,11.6479136 49.6314561,8.68108093 49.565,5.607 C49.5564627,5.13009328 49.1719067,4.74553728 48.695,4.737 C46.217182,4.67831346 43.7903067,5.4459913 41.797,6.919 C41.4110097,4.5034426 40.2466423,2.28004853 38.481,0.587 C38.1377861,0.256048019 37.5942139,0.256048019 37.251,0.587 C35.0290843,2.71350393 33.7769185,5.65847946 33.7868799,8.734 C33.7868799,11.832 35.017,14.726 37.25,16.882 C37.41527,17.0408818 37.6357459,17.1294306 37.865,17.1290032 L37.865,17.1290032 Z M45,12.562 C43.6180325,13.954047 41.8369425,14.8812902 39.904,15.215 C41.1610272,13.4261279 41.866729,11.3083273 41.934,9.123 C43.5196684,7.60893774 45.5824447,6.69332664 47.769,6.533 C47.6039017,8.81099609 46.6203997,10.9523949 45,12.562 L45,12.562 Z M37.865,2.512 C39.3597013,4.2395427 40.1787943,6.44960182 40.171,8.734 C40.171,11.047 39.358,13.224 37.865,14.954 C36.3700054,13.2269547 35.550544,11.0172152 35.558,8.733 C35.558,6.419 36.372,4.242 37.865,2.512 L37.865,2.512 Z"/>
  </g>
</svg>
