<svg xmlns="http://www.w3.org/2000/svg" width="59" height="52" viewBox="0 0 59 52">
  <g fill="#FFF" transform="translate(0 1)">
    <path d="M10.097,46.994 C3.523,42.264 -6.243,27.271 5.463,15.357 C10.897,9.826 31.444,9.129 38.073,15.861 C48.255,26.201 38.073,49.651 29.784,49.651 C21.042,51.033 14.479,50.148 10.097,46.994 Z" opacity=".2"/>
    <path stroke="#FFF" stroke-width=".2" d="M49.246,24.295 C52.455,18.054 51.492,10.157 46.231,4.935 C39.686,-1.56 28.971,-1.56 22.426,4.935 C15.881,11.431 15.881,22.002 22.426,28.561 C25.5790635,31.7001606 29.8467151,33.4633084 34.296,33.465 C36.927,33.465 39.494,32.828 41.932,31.618 L50.273,40.47 C50.658,40.852 51.171,41.043 51.749,41.043 C52.968,41.043 54.508,40.151 56.24,38.495 C58.743,36.012 59.448,33.847 58.165,32.573 L49.246,24.295 Z M24.351,26.715 C18.769,21.238 18.769,12.259 24.351,6.782 C27.111,3.98 30.767,2.643 34.361,2.643 C38.018,2.643 41.675,3.98 44.434,6.783 C48.669,10.985 49.631,17.29 47.322,22.448 L43.6,19.009 C44.37,15.761 43.408,12.45 41.034,10.03 C38.788,7.801 35.58,6.782 32.5,7.355 C31.73,7.483 31.088,8.056 30.832,8.82 C30.5727414,9.58028581 30.7721587,10.4218815 31.345,10.985 L34.232,13.851 C34.617,14.233 34.81,14.679 34.81,15.251 C34.81,15.761 34.617,16.271 34.232,16.653 C33.462,17.417 32.243,17.417 31.473,16.653 L28.586,13.723 C28.0141057,13.1531627 27.1690003,12.9560231 26.404,13.214 C25.634,13.469 25.057,14.106 24.929,14.87 C24.415,17.99 25.378,21.11 27.623,23.34 C29.9962252,25.6947905 33.4168301,26.6577927 36.67,25.887 L40.135,29.58 C34.874,31.873 28.585,30.917 24.351,26.715 Z M51.941,38.368 L37.954,23.53 C37.699059,23.2758551 37.3508317,23.1377213 36.991,23.148 C36.863,23.148 36.735,23.148 36.606,23.212 C34.04,24.04 31.345,23.403 29.42,21.556 C28.008,20.156 27.238,18.245 27.367,16.271 L29.612,18.5 C31.409,20.283 34.296,20.283 36.029,18.5 C37.825,16.717 37.825,13.85 36.029,12.132 L33.783,9.902 C35.773,9.775 37.697,10.54 39.173,11.941 C41.033,13.787 41.739,16.526 40.841,19.073 C40.649,19.583 40.841,20.092 41.161,20.41 L56.176,34.165 C55.856,35.375 53.16,38.05 51.941,38.368 L51.941,38.368 Z"/>
  </g>
</svg>
