<svg xmlns="http://www.w3.org/2000/svg" width="34" height="29" viewBox="0 0 34 29">
    <g fill="none" fill-rule="evenodd">
        <path fill="#FFE5B2" d="M5.358 27.141C1.87 24.611-3.313 16.595 2.9 10.225c2.884-2.958 13.788-3.331 17.307.269 5.403 5.529 0 18.068-4.4 18.068-4.64.74-8.122.266-10.448-1.42z"/>
        <g fill="#324056" fill-rule="nonzero" stroke="#324056">
            <path stroke-width=".5" d="M23.46 21.717H8.588c-.197 0-.328-.132-.328-.329s.131-.328.328-.328h14.543V1.707H12.725V21.1c0 .197-.132.328-.329.328s-.328-.131-.328-.328V1.378c0-.197.131-.328.328-.328H23.46c.197 0 .328.131.328.328v20.01a.329.329 0 0 1-.328.329zM32.938 21.717h-7.222c-.197 0-.328-.132-.328-.329V7.83c0-.197.131-.328.328-.328h7.222c.197 0 .328.131.328.328v13.558c0 .197-.13.329-.328.329zm-6.894-.657h6.566V8.16h-6.566V21.06z"/>
            <g stroke-width=".2">
                <path d="M30.459 11.961h-1.993c-.124 0-.207-.083-.207-.207v-1.681c0-.125.083-.208.207-.208h1.993c.124 0 .207.083.207.208v1.68a.208.208 0 0 1-.207.208zm-1.785-.415h1.577V10.28h-1.577v1.266zM30.459 15.655h-1.993c-.124 0-.207-.083-.207-.208v-1.68c0-.125.083-.208.207-.208h1.993c.124 0 .207.083.207.207v1.681a.208.208 0 0 1-.207.208zm-1.785-.415h1.577v-1.266h-1.577v1.266zM30.459 19.348h-1.993c-.124 0-.207-.083-.207-.207V17.46c0-.125.083-.208.207-.208h1.993c.124 0 .207.083.207.208v1.68c0 .125-.083.208-.207.208zm-1.785-.415h1.577v-1.266h-1.577v1.266z"/>
            </g>
            <g stroke-width=".2">
                <path d="M17.273 7.104h-2.28c-.168 0-.28-.112-.28-.28V4.74c0-.169.112-.282.28-.282h2.28c.169 0 .282.113.282.282v2.082c0 .169-.141.281-.282.281zm-2.026-.562h1.717v-1.52h-1.717v1.52zM20.987 7.104h-2.279c-.169 0-.281-.112-.281-.28V4.74c0-.169.112-.282.281-.282h2.28c.168 0 .28.113.28.282v2.082c0 .169-.14.281-.28.281zm-2.026-.562h1.717v-1.52H18.96v1.52z"/>
            </g>
            <g stroke-width=".2">
                <path d="M17.273 11.916h-2.28c-.168 0-.28-.112-.28-.281V9.553c0-.17.112-.282.28-.282h2.28c.169 0 .282.113.282.282v2.082c0 .14-.141.281-.282.281zm-2.026-.563h1.717v-1.52h-1.717v1.52zM20.987 11.916h-2.279c-.169 0-.281-.112-.281-.281V9.553c0-.17.112-.282.281-.282h2.28c.168 0 .28.113.28.282v2.082c0 .14-.14.281-.28.281zm-2.026-.563h1.717v-1.52H18.96v1.52z"/>
            </g>
            <path stroke-width=".5" d="M20.277 21.717h-4.53c-.197 0-.329-.132-.329-.329v-7.156c0-.197.132-.328.329-.328h4.53c.197 0 .328.13.328.328v7.156a.329.329 0 0 1-.328.329zm-4.202-.657h3.874v-6.5h-3.874v6.5zM31.33 8.159h-4.005c-.197 0-.329-.132-.329-.329V5.86c0-.196.132-.328.329-.328h4.037c.197 0 .329.132.329.329v1.97c-.033.196-.164.328-.361.328zm-3.677-.657h3.381V6.189h-3.381v1.313z"/>
        </g>
    </g>
</svg>
