<svg xmlns="http://www.w3.org/2000/svg" width="60" height="54" viewBox="0 0 60 54">
  <g fill="#FFF">
    <path d="M10.047,50.14 C3.507,45.397 -6.212,30.366 5.436,18.421 C10.844,12.875 31.289,12.176 37.886,18.926 C48.016,29.293 37.886,52.804 29.637,52.804 C20.937,54.19 14.407,53.302 10.047,50.14 Z" opacity=".2"/>
    <path d="M37.967,0.37 C49.876,0.37 59.529,10.024 59.529,21.933 C59.529,33.841 49.876,43.495 37.967,43.495 C26.058,43.495 16.404,33.841 16.404,21.933 C16.404,10.024 26.058,0.37 37.967,0.37 Z M37.967,3.386 C27.724,3.386 19.42,11.69 19.42,21.933 C19.42,32.176 27.724,40.48 37.967,40.48 C48.21,40.48 56.514,32.176 56.514,21.933 C56.514,11.69 48.21,3.386 37.967,3.386 Z M37.823,28.3169992 C38.8999067,28.3164671 39.8953331,28.8903671 40.4344634,29.8226046 C40.9735937,30.7548421 40.9745606,31.9038565 40.437,32.837 C41.329,32.488 42.223,31.958 43.123,31.247 L43.461,30.973 L44.751,32.513 C40.319,36.227 35.684,36.297 31.164,32.73 L30.903,32.52 L32.178,30.966 C33.196,31.802 34.2,32.417 35.195,32.812 C34.6689125,31.8782832 34.6780309,30.7354764 35.2189506,29.8102731 C35.7598703,28.8850699 36.7512748,28.3165563 37.823,28.3169992 L37.823,28.3169992 Z M27.481,14.918 L29.035,16.194 C28.199,17.212 27.584,18.215 27.189,19.21 C28.4600086,18.4954044 30.0602617,18.7927785 30.9896974,19.9162816 C31.9191331,21.0397847 31.9113707,22.6674152 30.9712611,23.7820021 C30.0311516,24.8965889 28.4281349,25.1786862 27.164,24.452 C27.514,25.344 28.044,26.238 28.754,27.138 L29.028,27.476 L27.488,28.767 C23.774,24.334 23.704,19.7 27.271,15.179 L27.481,14.919 L27.481,14.918 Z M48.446,14.918 C52.16,19.351 52.23,23.985 48.663,28.506 L48.453,28.767 L46.899,27.492 C47.735,26.473 48.349,25.47 48.745,24.475 C47.4739914,25.1895956 45.8737383,24.8922215 44.9443026,23.7687184 C44.0148669,22.6452153 44.0226293,21.0175848 44.9627389,19.9029979 C45.9028484,18.7884111 47.5058651,18.5063138 48.77,19.233 C48.42,18.341 47.89,17.447 47.18,16.547 L46.905,16.209 L48.446,14.919 L48.446,14.918 Z M44.491,11.135 L44.751,11.345 L43.476,12.899 C42.458,12.063 41.455,11.449 40.459,11.053 C41.1735956,12.3240086 40.8762215,13.9242617 39.7527184,14.8536974 C38.6292153,15.7831331 37.0015848,15.7753707 35.8869979,14.8352611 C34.7724111,13.8951516 34.4903138,12.2921349 35.217,11.028 C34.326,11.378 33.432,11.908 32.532,12.618 L32.194,12.893 L30.903,11.352 C35.336,7.638 39.97,7.568 44.491,11.135 L44.491,11.135 Z"/>
  </g>
</svg>
