<?xml version="1.0" encoding="UTF-8"?>
<svg width="38px" height="25px" viewBox="0 0 38 25" version="1.1" xmlns="http://www.w3.org/2000/svg" xmlns:xlink="http://www.w3.org/1999/xlink">
    <!-- Generator: Sketch 50.1 (55044) - http://www.bohemiancoding.com/sketch -->
    <title>Group 29</title>
    <desc>Created with Sketch.</desc>
    <defs></defs>
    <g id="Page-1" stroke="none" stroke-width="1" fill="none" fill-rule="evenodd">
        <g id="Smart_Workforce_Product1.0" transform="translate(-680.000000, -6049.000000)" stroke="#FF4491" stroke-width="2">
            <g id="Group-29" transform="translate(681.000000, 6050.000000)">
                <g id="Group-14">
                    <rect id="Rectangle-4" fill="#FFFFFF" x="1" y="1" width="22" height="18" rx="1.5"></rect>
                    <rect id="Path" fill="#FFFFFF" x="0" y="0" width="24" height="20" rx="1.5"></rect>
                    <path d="M0.5,5.5 L23.5,5.5" id="Line-2" stroke-linecap="round"></path>
                </g>
                <g id="Group-18" transform="translate(26.000000, 7.000000)" fill="#FFFFFF">
                    <ellipse id="Oval-5" cx="5" cy="2.57142857" rx="2.5" ry="2.57142857"></ellipse>
                    <path d="M10,9.99158936 C10,7.3137085 7.76142375,5.14285714 5,5.14285714 C2.23857625,5.14285714 0,7.3137085 0,9.99158936 C0,12.6694702 10,12.6694702 10,9.99158936 Z" id="Oval-5"></path>
                </g>
                <g id="Group-18" transform="translate(19.000000, 9.000000)" fill="#FFFFFF">
                    <circle id="Oval-5" cx="6" cy="3" r="3"></circle>
                    <path d="M12,11.6568542 C12,8.53265992 9.3137085,6 6,6 C2.6862915,6 0,8.53265992 0,11.6568542 C0,14.7810486 12,14.7810486 12,11.6568542 Z" id="Oval-5"></path>
                </g>
            </g>
        </g>
    </g>
</svg>