<svg xmlns="http://www.w3.org/2000/svg" width="35" height="32" viewBox="0 0 35 32">
    <g fill="none" fill-rule="evenodd">
        <path fill="#FFB5C0" d="M7.148 28.922C2.788 25.76-3.692 15.739 4.074 7.776c3.605-3.697 17.235-4.163 21.633.337 6.754 6.91 0 22.585-5.499 22.585-5.8.924-10.153.332-13.06-1.776z"/>
        <g fill="#26405C" fill-rule="nonzero">
            <path stroke="#2B405A" stroke-width=".2" d="M29.063 4.965C27.718 2.294 24.936.502 21.846.502c-4.04 0-7.386 2.985-7.973 6.863h-.101a4.85 4.85 0 0 0-4.844 4.844 4.85 4.85 0 0 0 4.844 4.844h2.022v3.629c0 .668.543 1.211 1.21 1.211h2.735l-.242 1.211h-.477a.403.403 0 1 0 0 .807h5.651a.403.403 0 1 0 0-.807h-.477l-.242-1.21h2.734c.668 0 1.211-.544 1.211-1.212v-3.63h.811a6.062 6.062 0 0 0 6.055-6.054c0-3.198-2.534-5.847-5.7-6.033zM27.09 19.47H16.601v-6.05c0-.223.18-.404.404-.404h9.682c.222 0 .403.18.403.404v6.05zm-3.719 3.633H20.32l.242-1.21h2.567l.242 1.21zm3.316-2.018h-9.682a.404.404 0 0 1-.404-.404v-.404h5.253a.402.402 0 0 0-.402.404.405.405 0 0 0 .81 0 .404.404 0 0 0-.404-.404h5.233v.404a.404.404 0 0 1-.404.404zm2.021-4.84h-.81V13.42c0-.668-.544-1.211-1.211-1.211h-9.682c-.668 0-1.211.543-1.211 1.21v2.826h-2.022a4.041 4.041 0 0 1-4.037-4.037 4.041 4.041 0 0 1 4.037-4.037h.02c-.006.134-.02.267-.02.404a.403.403 0 1 0 .807 0c0-4.007 3.26-7.267 7.267-7.267 3.401 0 6.389 2.41 7.103 5.73.108.5.163 1.018.163 1.537a.403.403 0 1 0 .807 0c0-.576-.06-1.15-.18-1.707a7.991 7.991 0 0 0-.316-1.062c2.55.353 4.533 2.558 4.533 5.19a5.254 5.254 0 0 1-5.248 5.249z"/>
            <path d="M23.747 6.27a.4.4 0 0 0-.572 0l-.807.807a.403.403 0 1 0 .57.571l.119-.118v3.063a.403.403 0 1 0 .807 0V7.53l.119.118a.403.403 0 0 0 .57 0 .403.403 0 0 0 0-.57l-.806-.808zM20.752 9.5l-.118.118V6.555a.403.403 0 1 0-.808 0v3.063l-.118-.118a.403.403 0 1 0-.57.57l.806.808a.4.4 0 0 0 .286.119.4.4 0 0 0 .286-.12l.807-.806a.403.403 0 1 0-.571-.57z"/>
        </g>
    </g>
</svg>
