<svg xmlns="http://www.w3.org/2000/svg" xmlns:xlink="http://www.w3.org/1999/xlink" width="70" height="59" viewBox="0 0 70 59">
    <defs>
        <path id="a" d="M0 .004h68.886v18.22H0z"/>
        <path id="c" d="M.018.097h68.871v18.23H.018z"/>
    </defs>
    <g fill="none" fill-rule="evenodd">
        <path stroke="#DBDDF3" stroke-linecap="square" d="M8.616 17.965v22.839M61.407 18.256v22.839"/>
        <path fill="#4E36A6" fill-opacity=".1" d="M1.735 15.613l30.342 12.533c.79.321 1.848.49 2.887.49 1.04 0 2.098-.169 2.888-.49l30.342-12.533c1.597-.66 1.597-1.734 0-2.392L37.852.688c-.79-.322-1.848-.491-2.888-.491-1.04 0-2.097.169-2.887.49L1.735 13.222c-1.591.658-1.591 1.732 0 2.392"/>
        <path stroke="#DBDDF3" stroke-linecap="square" d="M35 28.677v22.839"/>
        <path fill="#4E36A6" d="M4.933 15.497l27.422 11.327c.714.291 1.67.444 2.61.444s1.895-.153 2.609-.444l27.422-11.327c1.444-.596 1.444-1.566 0-2.161L37.574 2.009c-.714-.29-1.67-.444-2.61-.444s-1.895.153-2.609.444L4.933 13.336c-1.438.595-1.438 1.565 0 2.161"/>
        <g transform="translate(.5 25.628)">
            <mask id="b" fill="#fff">
                <use xlink:href="#a"/>
            </mask>
            <path fill="#FF3284" d="M67.694 2.819S62.153.534 61.417.227c-.735-.307-.932-.29-1.703.015-.772.307-22.38 9.237-22.38 9.237-.808.323-1.848.49-2.888.49-1.04 0-2.097-.167-2.887-.49 0 0-21.036-8.679-22.022-9.092C8.461-.058 8.155-.058 7.187.34l-5.99 2.47c-1.596.659-1.596 1.731 0 2.391L31.54 17.734c.79.322 1.847.49 2.887.49s2.098-.168 2.887-.49L67.656 5.201c1.633-.644 1.633-1.717.036-2.376l.002-.006z" mask="url(#b)"/>
        </g>
        <g transform="translate(.5 40.687)">
            <mask id="d" fill="#fff">
                <use xlink:href="#c"/>
            </mask>
            <path fill="#44C6EA" d="M67.694 2.911S62.153.627 61.417.319c-.735-.307-.932-.29-1.703.016C58.942.64 37.352 9.58 37.352 9.58c-.808.322-1.848.492-2.888.492-1.04 0-2.097-.17-2.887-.492 0 0-21.036-8.679-22.022-9.093C8.48.044 8.172.044 7.205.442l-5.99 2.469c-1.596.66-1.596 1.733 0 2.392l30.343 12.533c.79.337 1.847.49 2.887.49s2.098-.168 2.887-.49L67.676 5.303c1.615-.659 1.615-1.732.018-2.392" mask="url(#d)"/>
        </g>
    </g>
</svg>
