<?xml version="1.0" encoding="UTF-8"?>
<svg width="20px" height="17px" viewBox="0 0 20 17" version="1.1" xmlns="http://www.w3.org/2000/svg" xmlns:xlink="http://www.w3.org/1999/xlink">
    <!-- Generator: Sketch 56.3 (81716) - https://sketch.com -->
    <title>left-quote</title>
    <desc>Created with Sketch.</desc>
    <g id="Page-1" stroke="none" stroke-width="1" fill="none" fill-rule="evenodd">
        <g id="left-quote" fill="#FF3185" fill-rule="nonzero">
            <path d="M6.35666667,7.75262963 C5.8675,7.61075309 5.37833333,7.53876543 4.9025,7.53876543 C4.16770833,7.53876543 3.55458333,7.70792593 3.07916667,7.91507407 C3.5375,6.2247284 4.63854167,3.30807407 6.831875,2.97961728 C7.035,2.94918519 7.20145833,2.80122222 7.256875,2.60204938 L7.73625,0.874765432 C7.77666667,0.728691358 7.75270833,0.572333333 7.67,0.445567901 C7.58729167,0.318802469 7.454375,0.234222222 7.30541667,0.213654321 C7.14354167,0.191407407 6.97854167,0.180074074 6.815,0.180074074 C4.18229167,0.180074074 1.575,2.94834568 0.474791667,6.91207407 C-0.171041667,9.23750617 -0.360416667,12.7336296 1.23041667,14.9341852 C2.120625,16.1655309 3.419375,16.8230741 5.090625,16.8887654 C5.0975,16.8889753 5.10416667,16.8891852 5.11104167,16.8891852 C7.173125,16.8891852 9.00166667,15.4901481 9.55791667,13.4872963 C9.89020833,12.2899506 9.74,11.0342593 9.13458333,9.95066667 C8.535625,8.87924691 7.54916667,8.0982963 6.35666667,7.75262963 Z" id="Path"></path>
            <path d="M19.2647917,9.95087654 C18.6658333,8.87924691 17.679375,8.0982963 16.486875,7.75262963 C15.9977083,7.61075309 15.5085417,7.53876543 15.0329167,7.53876543 C14.298125,7.53876543 13.6847917,7.70792593 13.209375,7.91507407 C13.6677083,6.2247284 14.76875,3.30807407 16.9622917,2.97961728 C17.1654167,2.94918519 17.3316667,2.80122222 17.3872917,2.60204938 L17.8666667,0.874765432 C17.9070833,0.728691358 17.883125,0.572333333 17.8004167,0.445567901 C17.7179167,0.318802469 17.585,0.234222222 17.4358333,0.213654321 C17.2741667,0.191407407 17.1091667,0.180074074 16.9454167,0.180074074 C14.3127083,0.180074074 11.7054167,2.94834568 10.605,6.91207407 C9.959375,9.23750617 9.77,12.7336296 11.3610417,14.9346049 C12.2510417,16.1657407 13.55,16.8234938 15.2210417,16.8889753 C15.2279167,16.8891852 15.2345833,16.8893951 15.2416667,16.8893951 C17.3035417,16.8893951 19.1322917,15.490358 19.6885417,13.4875062 C20.0204167,12.2901605 19.87,11.0342593 19.2647917,9.95087654 Z" id="Path"></path>
        </g>
    </g>
</svg>