<?xml version="1.0" encoding="UTF-8"?>
<svg width="203px" height="43px" viewBox="0 0 203 43" version="1.1" xmlns="http://www.w3.org/2000/svg" xmlns:xlink="http://www.w3.org/1999/xlink">
    <!-- Generator: Sketch 61.1 (89650) - https://sketch.com -->
    <title>REbuild_logo</title>
    <desc>Created with Sketch.</desc>
    <defs>
        <path d="M9.49,55 L9.49,40.78 L15.73,40.78 L23.59,55 L33.37,55 L24.37,39.76 C28.69,38.74 33.13,34.96 33.13,27.88 C33.13,20.44 28.03,14.98 19.69,14.98 L0.97,14.98 L0.97,55 L9.49,55 Z M18.43,33.28 L9.49,33.28 L9.49,22.48 L18.43,22.48 C21.85,22.48 24.43,24.52 24.43,27.88 C24.43,31.24 21.85,33.28 18.43,33.28 Z M67.87,55 L67.87,47.5 L48.07,47.5 L48.07,38.44 L67.45,38.44 L67.45,30.94 L48.07,30.94 L48.07,22.48 L67.87,22.48 L67.87,14.98 L39.55,14.98 L39.55,55 L67.87,55 Z" id="path-1"></path>
        <path d="M90.91,55.72 C98.23,55.72 103.75,50.2 103.75,40.54 C103.75,31.06 98.29,25.3 90.91,25.3 C87.49,25.3 84.25,26.8 81.97,29.74 L81.97,14.98 L74.35,14.98 L74.35,55 L81.97,55 L81.97,51.28 C84.25,54.16 87.43,55.72 90.91,55.72 Z M88.51,48.94 C86.05,48.94 83.23,47.56 81.97,45.7 L81.97,35.44 C83.23,33.52 86.05,32.08 88.51,32.08 C92.95,32.08 95.89,35.5 95.89,40.54 C95.89,45.58 92.95,48.94 88.51,48.94 Z M118.87,55.72 C123.61,55.72 127.09,53.56 129.07,51.34 L129.07,55 L136.69,55 L136.69,26.02 L129.07,26.02 L129.07,45.64 C127.75,47.32 125.41,48.94 122.47,48.94 C119.23,48.94 117.13,47.62 117.13,43.6 L117.13,26.02 L109.51,26.02 L109.51,46.6 C109.51,52.24 112.51,55.72 118.87,55.72 Z M148.03,22.9 C150.55,22.9 152.59,20.86 152.59,18.34 C152.59,15.82 150.55,13.84 148.03,13.84 C145.57,13.84 143.47,15.82 143.47,18.34 C143.47,20.86 145.57,22.9 148.03,22.9 Z M151.87,55 L151.87,26.02 L144.25,26.02 L144.25,55 L151.87,55 Z M167.05,55 L167.05,14.98 L159.43,14.98 L159.43,55 L167.05,55 Z M185.59,55.72 C189.07,55.72 192.25,54.16 194.53,51.28 L194.53,55 L202.21,55 L202.21,14.98 L194.53,14.98 L194.53,29.74 C192.25,26.8 189.01,25.3 185.59,25.3 C178.21,25.3 172.75,31.06 172.75,40.54 C172.75,50.2 178.27,55.72 185.59,55.72 Z M187.93,48.94 C183.61,48.94 180.61,45.52 180.61,40.54 C180.61,35.5 183.61,32.08 187.93,32.08 C190.51,32.08 193.27,33.46 194.53,35.38 L194.53,45.64 C193.27,47.56 190.51,48.94 187.93,48.94 Z" id="path-2"></path>
    </defs>
    <g id="Page-1" stroke="none" stroke-width="1" fill="none" fill-rule="evenodd">
        <g id="REbuild_logo" transform="translate(0.000000, -13.000000)" fill-rule="nonzero">
            <g id="RE">
                <use fill="#000000" xlink:href="#path-1"></use>
                <use fill="#FEDA42" xlink:href="#path-1"></use>
            </g>
            <g id="build">
                <use fill="#000000" xlink:href="#path-2"></use>
                <use fill="#44D9EC" xlink:href="#path-2"></use>
            </g>
        </g>
    </g>
</svg>