<?xml version="1.0" encoding="UTF-8"?>
<svg width="36px" height="29px" viewBox="0 0 36 29" version="1.1" xmlns="http://www.w3.org/2000/svg" xmlns:xlink="http://www.w3.org/1999/xlink">
    <!-- Generator: Sketch 50.2 (55047) - http://www.bohemiancoding.com/sketch -->
    <title>Group 39</title>
    <desc>Created with Sketch.</desc>
    <defs></defs>
    <g id="Page-1" stroke="none" stroke-width="1" fill="none" fill-rule="evenodd">
        <g id="Assets_Product1.0" transform="translate(-680.000000, -5787.000000)">
            <g id="Group-39" transform="translate(681.000000, 5788.000000)">
                <g id="Group-14">
                    <path d="M21,20 L1.5,20 C0.671572875,20 1.01453063e-16,19.3284271 0,18.5 L0,1.5 C-1.01453063e-16,0.671572875 0.671572875,1.52179594e-16 1.5,0 L26.5,0 C27.3284271,-1.52179594e-16 28,0.671572875 28,1.5 L28,4" id="Path" stroke="#FF4491" stroke-width="2" fill="#FFFFFF" stroke-linecap="round"></path>
                    <rect id="Rectangle-path" fill="#FF4491" fill-rule="nonzero" x="8" y="4" width="11.3833992" height="1.8972332"></rect>
                    <rect id="Rectangle-path" fill="#FF4491" fill-rule="nonzero" x="3" y="9.0513834" width="11.3833992" height="1.8972332"></rect>
                    <rect id="Rectangle-path" fill="#FF4491" fill-rule="nonzero" x="3" y="13.0513834" width="9.48616601" height="1.8972332"></rect>
                </g>
                <path d="M33.7721146,10.5104453 C33.7236166,10.4584492 33.6733399,10.4081725 33.6213439,10.3596745 C33.3814032,10.1328366 33.2501976,9.81410139 33.2608696,9.48410139 C33.2886759,8.64048479 32.9662648,7.82295515 32.3701186,7.22544526 C31.7694071,6.63410139 30.9541304,6.31222392 30.1114625,6.33374566 C29.7794466,6.34275752 29.4592885,6.20995119 29.2311462,5.96852827 C28.0816601,4.7373425 26.1518182,4.6711172 24.9206324,5.82054408 C24.8696443,5.86815277 24.8202569,5.91748084 24.7726482,5.96852827 C24.5499605,6.21712511 24.2266008,6.35141364 23.8932806,6.33374566 C22.2104348,6.27676938 20.7999605,7.59475357 20.7429842,9.2776587 C20.7406719,9.34613696 20.7406719,9.41467451 20.7429249,9.48315277 C20.7538933,9.81534645 20.6211462,10.1361567 20.3786561,10.363469 C19.1474704,11.5114136 19.08,13.4400105 20.2278854,14.6711963 C20.2763834,14.7231923 20.3266601,14.773469 20.3786561,14.821967 C20.6209684,15.0489828 20.7537154,15.3694374 20.7429249,15.7013346 C20.7151186,16.5449512 21.0375296,17.3624808 21.6336759,17.9599907 C21.8199012,18.1408208 22.0294862,18.2958603 22.256917,18.4210184 L22.256917,27.4101093 L27,25.0385678 L31.743083,27.4101093 L31.743083,18.4200698 C31.970336,18.293548 32.1798617,18.1375599 32.3663241,17.9561963 C32.9622925,17.3589828 33.2847036,16.5418089 33.2570751,15.6984887 C33.2461067,15.3662951 33.3788538,15.0454848 33.6213439,14.8181725 C34.8525296,13.6702872 34.92,11.741631 33.7721146,10.5104453 Z M29.8458498,24.3365915 L27,22.9136666 L24.1541502,24.3365915 L24.1541502,18.8716113 C24.3910079,18.9178563 24.6073518,19.0372634 24.7726482,19.2131132 C25.9221344,20.444299 27.8519763,20.5105243 29.0831621,19.3610974 C29.1341502,19.3134887 29.1835375,19.2641607 29.2311462,19.2131132 C29.3965613,19.0439038 29.6121344,18.9324413 29.8458498,18.8953267 L29.8458498,24.3365915 Z M32.3835178,13.3771053 C32.3657905,13.3960777 32.3473518,13.4145164 32.3283794,13.4322437 L32.3264822,13.4322437 C31.683913,14.0336073 31.3328063,14.8834492 31.3636364,15.7629947 C31.3761462,16.0822042 31.2539526,16.3920461 31.0268775,16.6167496 C30.8056719,16.8491014 30.4933992,16.9722437 30.1731225,16.9535085 C29.2932213,16.9223227 28.4431423,17.2746745 27.8433202,17.9192002 C27.3878656,18.3839038 26.6418972,18.3913741 26.1771937,17.9359196 C26.1715613,17.9304057 26.1659881,17.9248326 26.1604743,17.9192002 C25.5841304,17.3020658 24.7775692,16.9516706 23.9331225,16.9516113 L23.8297233,16.9516113 C23.1941502,16.9750302 22.6599012,16.4787852 22.6364822,15.8431528 C22.6354743,15.8161172 22.635415,15.7890816 22.6363636,15.7620461 C22.6664229,14.8825599 22.314664,14.0330144 21.6716206,13.4322437 C21.206917,12.9980144 21.182253,12.2692397 21.6164822,11.8045362 C21.6342095,11.7855638 21.6526482,11.7671251 21.6716206,11.7493978 C22.3149012,11.1483899 22.6667194,10.2984887 22.6363636,9.41864685 C22.6238538,9.09943736 22.7460474,8.78959546 22.9731225,8.56489191 C23.1970553,8.33657175 23.5074308,8.21420021 23.8268775,8.22813301 C24.7045257,8.24716463 25.5498617,7.89676938 26.1566798,7.26244131 C26.6121344,6.79773775 27.3581028,6.7902674 27.8228063,7.24572194 C27.8284387,7.25123578 27.8340119,7.2568089 27.8395257,7.26244131 C28.4460474,7.89884447 29.2933399,8.24923973 30.1721739,8.2271844 C30.8078063,8.20477333 31.3412253,8.70184843 31.3636957,9.33748084 C31.3646443,9.36481285 31.3646443,9.39220416 31.3636364,9.41959546 C31.3335771,10.2990816 31.685336,11.1486271 32.3283794,11.7493978 C32.793083,12.1836864 32.817747,12.9124018 32.3835178,13.3771053 Z" id="Shape" fill="#FF4491" fill-rule="nonzero"></path>
                <path d="M27.2037092,9 C25.1080966,9 23.4092428,10.6988538 23.4092428,12.7944664 C23.4092428,14.8900791 25.1080966,16.5889328 27.2037092,16.5889328 C29.2993219,16.5889328 30.9981756,14.8900791 30.9981756,12.7944664 C30.9981756,10.6988538 29.2993219,9 27.2037092,9 Z M27.2037092,14.6916996 C26.1559029,14.6916996 25.306476,13.8422727 25.306476,12.7944664 C25.306476,11.7466601 26.1559029,10.8972332 27.2037092,10.8972332 C28.2515155,10.8972332 29.1009424,11.7466601 29.1009424,12.7944664 C29.1009424,13.8422727 28.2515155,14.6916996 27.2037092,14.6916996 Z" id="Shape" fill="#FF4491" fill-rule="nonzero"></path>
            </g>
        </g>
    </g>
</svg>