<?xml version="1.0" encoding="UTF-8"?>
<svg width="18px" height="19px" viewBox="0 0 18 19" version="1.1" xmlns="http://www.w3.org/2000/svg" xmlns:xlink="http://www.w3.org/1999/xlink">
    <!-- Generator: Sketch 52.6 (67491) - http://www.bohemiancoding.com/sketch -->
    <title>Path 2</title>
    <desc>Created with Sketch.</desc>
    <g id="Page-1" stroke="none" stroke-width="1" fill="none" fill-rule="evenodd">
        <g id="Artboard-Copy-6" transform="translate(-666.000000, -5603.000000)" fill="#01A345">
            <g id="Group-7" transform="translate(195.000000, 5350.000000)">
                <g id="Group-8" transform="translate(75.000000, 149.000000)">
                    <g id="Group-18" transform="translate(0.000000, 24.000000)">
                        <g id="Group-16" transform="translate(0.000000, 76.000000)">
                            <path d="M396.260247,15.5997351 C395.87057,14.7617695 395.918501,14.0451974 396.404039,13.4500187 C396.822421,12.9034858 397.357808,12.6302193 398.010198,12.6302193 C398.444131,12.6180717 398.850877,12.7814573 399.230435,13.1203762 L402.435881,16.9417445 L412.371926,4.41855948 C412.932236,4.0317679 413.3769,3.91305242 413.705918,4.06241306 C414,4.35776611 414.07352,4.73141617 413.92648,5.18336322 C413.639161,5.89256395 413.380948,6.38026369 413.151839,6.64646243 L405,19.7901705 L403.943225,21.4590892 C403.244182,22.2631519 402.354002,22.3440993 401.272684,21.7019314 L396.260247,15.5997351 Z" id="Path-2"></path>
                        </g>
                    </g>
                </g>
            </g>
        </g>
    </g>
</svg>