<svg xmlns="http://www.w3.org/2000/svg" width="25" height="25" viewBox="0 0 25 25">
    <path fill-rule="nonzero" d="M18.75 11.875a6.25 6.25 0 1 1 0 12.5 6.25 6.25 0 0 1 0-12.5zM17.361.625c.384 0 .695.31.695.694l-.001.417h3.75c.998 0 1.806.808 1.806 1.806v7.184a.694.694 0 1 1-1.389 0V8.124H1.388v13.195c0 .23.187.417.418.417h9.389a.694.694 0 1 1 0 1.389h-9.39A1.806 1.806 0 0 1 0 21.319V3.542c0-.998.808-1.806 1.806-1.806h3.749v-.417a.694.694 0 1 1 1.39 0l-.001.417h4.167v-.417a.694.694 0 1 1 1.389 0v.417h4.166v-.417c0-.383.312-.694.695-.694zm1.389 12.639a4.861 4.861 0 1 0 0 9.722 4.861 4.861 0 0 0 0-9.722zm0 1.641c.384 0 .694.311.694.695v3.03c0 .384-.31.694-.694.694h-2.02a.694.694 0 1 1 0-1.388l1.325-.001V15.6c0-.384.311-.695.695-.695zM5.555 3.125h-3.75a.417.417 0 0 0-.416.417l-.001 3.194h20.834V3.542a.417.417 0 0 0-.416-.417h-3.751v.417a.694.694 0 0 1-1.388 0l-.001-.417H12.5v.417a.694.694 0 1 1-1.389 0v-.417H6.944v.417a.694.694 0 1 1-1.388 0l-.001-.417z"/>
</svg>
