<?xml version="1.0" encoding="UTF-8"?>
<svg width="35px" height="21px" viewBox="0 0 35 21" version="1.1" xmlns="http://www.w3.org/2000/svg" xmlns:xlink="http://www.w3.org/1999/xlink">
    <!-- Generator: Sketch 50.1 (55044) - http://www.bohemiancoding.com/sketch -->
    <title>Group 35</title>
    <desc>Created with Sketch.</desc>
    <defs></defs>
    <g id="Page-1" stroke="none" stroke-width="1" fill="none" fill-rule="evenodd">
        <g id="Smart_Workforce_Product1.0" transform="translate(-1051.000000, -6538.000000)" stroke="#FF4491" stroke-width="2">
            <g id="Group-35" transform="translate(1052.000000, 6539.000000)">
                <g id="Group-18" transform="translate(0.000000, 5.000000)" fill="#FFFFFF">
                    <circle id="Oval-5" cx="6" cy="3" r="3"></circle>
                    <path d="M12,11.6568542 C12,8.53265992 9.3137085,6 6,6 C2.6862915,6 0,8.53265992 0,11.6568542 C0,14.7810486 12,14.7810486 12,11.6568542 Z" id="Oval-5"></path>
                </g>
                <g id="Group-18" transform="translate(9.000000, 0.000000)" fill="#FFFFFF">
                    <circle id="Oval-5" cx="8" cy="4" r="4"></circle>
                    <path d="M16,15.7781746 C16,11.4824074 12.418278,8 8,8 C3.581722,8 0,11.4824074 0,15.7781746 C0,20.0739418 16,20.0739418 16,15.7781746 Z" id="Oval-5"></path>
                </g>
                <g id="Group-23" transform="translate(22.000000, 5.000000)">
                    <rect id="Rectangle-11" fill="#FFFFFF" x="1" y="5" width="10" height="9" rx="2"></rect>
                    <path d="M3,4 L3,2.8 C3,1.2536027 4.34314575,0 6,0 C7.27456643,0 8.36348813,0.741850268 8.79813046,1.78815847" id="Rectangle-12" stroke-linecap="round"></path>
                </g>
            </g>
        </g>
    </g>
</svg>