<?xml version="1.0" encoding="UTF-8"?>
<svg width="36px" height="36px" viewBox="0 0 36 36" version="1.1" xmlns="http://www.w3.org/2000/svg" xmlns:xlink="http://www.w3.org/1999/xlink">
    <!-- Generator: Sketch 61.1 (89650) - https://sketch.com -->
    <title>Group 28</title>
    <desc>Created with Sketch.</desc>
    <g id="Page-1" stroke="none" stroke-width="1" fill="none" fill-rule="evenodd">
        <g id="Group-28" fill="#FFFFFF" fill-rule="nonzero">
            <g id="central">
                <path d="M24.2504297,18.2870859 C24.5417344,18.2870859 24.7777734,18.0509766 24.7777734,17.7597422 L24.7777734,13.9514063 C24.7777734,13.7316094 24.6414375,13.5348047 24.4356328,13.4576719 L18.1852031,11.1138047 C18.0657422,11.0690156 17.9343281,11.0690156 17.8147969,11.1138047 L11.5643672,13.4576719 C11.3585625,13.534875 11.2222266,13.7316094 11.2222266,13.9514063 L11.2222266,15.6445312 C11.2222266,15.9357656 11.4582656,16.171875 11.7495703,16.171875 C12.040875,16.171875 12.2769141,15.9357656 12.2769141,15.6445312 L12.2769141,14.7123984 L17.4726562,16.6607578 L17.4726562,23.6314688 L12.2769141,21.6831094 L12.2769141,18.111375 C12.2769141,17.8201406 12.040875,17.5840313 11.7495703,17.5840313 C11.4582656,17.5840313 11.2222266,17.8201406 11.2222266,18.111375 L11.2222266,22.0485938 C11.2222266,22.2683906 11.3585625,22.4651953 11.5643672,22.5423281 L17.8147969,24.8861953 C17.8148672,24.8857734 17.8150078,24.8852109 17.8150781,24.8847188 C17.8744922,24.9070078 17.9369297,24.9197344 18.0000703,24.9197344 C18.0624375,24.9197344 18.1251562,24.9086953 18.1852031,24.886125 L24.4356328,22.5422578 C24.6414375,22.4650547 24.7777734,22.2683203 24.7777734,22.0485234 L24.7777734,20.2177266 C24.7777734,19.9264922 24.5417344,19.6903828 24.2504297,19.6903828 C23.959125,19.6903828 23.7230859,19.9264922 23.7230859,20.2177266 L23.7230859,21.6830391 L18.5273437,23.6314687 L18.5273437,16.6607578 L23.7230859,14.7123984 L23.7230859,17.7597422 C23.7230859,18.0510469 23.959125,18.2870859 24.2504297,18.2870859 L24.2504297,18.2870859 Z M18,15.7321406 L13.2515156,13.9514766 L18,12.1707422 L22.7484844,13.9514766 L18,15.7321406 Z" id="Shape"></path>
                <path d="M17.4726562,5.26359375 L17.4726562,9.050625 C17.4726562,9.34185938 17.7086953,9.57796875 18,9.57796875 C18.2913047,9.57796875 18.5273438,9.34185938 18.5273438,9.050625 L18.5273438,5.26359375 C19.7412891,5.01827344 20.6581641,3.94333594 20.6581641,2.65816406 C20.6581641,1.19242969 19.4657344,0 18,0 C16.5342656,0 15.3418359,1.19242969 15.3418359,2.65816406 C15.3418359,3.94333594 16.2587109,5.01827344 17.4726562,5.26359375 Z M18,1.0546875 C18.8841094,1.0546875 19.6034766,1.77398437 19.6034766,2.65816406 C19.6034766,3.54234375 18.8841094,4.26164063 18,4.26164063 C17.1158906,4.26164063 16.3965234,3.54234375 16.3965234,2.65816406 C16.3965234,1.77398438 17.1158906,1.0546875 18,1.0546875 Z" id="Shape"></path>
                <path d="M28.1451797,24.4926562 C27.3279375,24.4926562 26.5726406,24.7624453 25.9634531,25.2176484 L24.7011328,23.9553281 C24.4951172,23.7493828 24.1612734,23.7493828 23.9553281,23.9553281 C23.7493828,24.1612734 23.7493828,24.4951875 23.9553281,24.7010625 L25.2177187,25.9633828 C24.7625156,26.5725703 24.4927266,27.3279375 24.4927266,28.1451094 C24.4927266,30.1591406 26.1312891,31.7976328 28.14525,31.7976328 C30.1592109,31.7976328 31.7977734,30.1591406 31.7977734,28.1451094 C31.7977734,26.1310781 30.1592109,24.4926562 28.1451797,24.4926562 L28.1451797,24.4926562 Z M28.1451797,30.7430156 C26.7127031,30.7430156 25.5473437,29.5775859 25.5473437,28.1451797 C25.5473437,26.7127734 26.7127031,25.5473437 28.1451797,25.5473437 C29.5776562,25.5473437 30.7430156,26.7127734 30.7430156,28.1451797 C30.7430156,29.5775859 29.5776562,30.7430156 28.1451797,30.7430156 Z" id="Shape"></path>
                <path d="M7.85482031,11.5073438 C8.6720625,11.5073438 9.42735938,11.2375547 10.0365469,10.7823516 L11.2988672,12.0446719 C11.401875,12.1476094 11.536875,12.1991484 11.6718047,12.1991484 C11.8067344,12.1991484 11.9417344,12.1476797 12.0447422,12.0446719 C12.2506875,11.8387266 12.2506875,11.5048125 12.0447422,11.2989375 L10.7824219,10.0366172 C11.237625,9.42742969 11.5074141,8.6720625 11.5074141,7.85489063 C11.5074141,5.84085938 9.86885156,4.20236719 7.85489063,4.20236719 C5.84092969,4.20236719 4.20236719,5.84085938 4.20236719,7.85489063 C4.20236719,9.86892188 5.84078906,11.5073438 7.85482031,11.5073438 Z M7.85482031,5.25698438 C9.28729688,5.25698438 10.4526563,6.42241406 10.4526563,7.85482031 C10.4526563,9.28722656 9.28729688,10.4526563 7.85482031,10.4526563 C6.42234375,10.4526563 5.25698438,9.28722656 5.25698438,7.85482031 C5.25698438,6.42241406 6.42234375,5.25698438 7.85482031,5.25698438 Z" id="Shape"></path>
                <path d="M18.5273438,30.7364063 L18.5273438,26.949375 C18.5273438,26.6581406 18.2913047,26.4220312 18,26.4220312 C17.7086953,26.4220312 17.4726562,26.6581406 17.4726562,26.949375 L17.4726562,30.7364063 C16.2587109,30.9817266 15.3418359,32.0566641 15.3418359,33.3418359 C15.3418359,34.8075703 16.5342656,36 18,36 C19.4657344,36 20.6581641,34.8075703 20.6581641,33.3418359 C20.6581641,32.0566641 19.7412891,30.9817266 18.5273438,30.7364063 Z M18,34.9453125 C17.1158906,34.9453125 16.3965234,34.2260156 16.3965234,33.3418359 C16.3965234,32.4576563 17.1158906,31.7383594 18,31.7383594 C18.8841094,31.7383594 19.6034766,32.4576563 19.6034766,33.3418359 C19.6034766,34.2260156 18.8841094,34.9453125 18,34.9453125 Z" id="Shape"></path>
                <path d="M33.3418359,15.3418359 C32.0566641,15.3418359 30.9817266,16.2587109 30.7364063,17.4726562 L26.949375,17.4726562 C26.6580703,17.4726562 26.4220312,17.7087656 26.4220312,18 C26.4220312,18.2912344 26.6580703,18.5273438 26.949375,18.5273438 L30.7364063,18.5273438 C30.9817266,19.7412891 32.0566641,20.6581641 33.3418359,20.6581641 C34.8075703,20.6581641 36,19.4657344 36,18 C36,16.5342656 34.8075703,15.3418359 33.3418359,15.3418359 Z M33.3418359,19.6034766 C32.4577266,19.6034766 31.7383594,18.8841797 31.7383594,18 C31.7383594,17.1158203 32.4576563,16.3965234 33.3418359,16.3965234 C34.2260156,16.3965234 34.9453125,17.1158203 34.9453125,18 C34.9453125,18.8841797 34.2260156,19.6034766 33.3418359,19.6034766 Z" id="Shape"></path>
                <path d="M5.26359375,18.5273438 L9.050625,18.5273438 C9.34192969,18.5273438 9.57796875,18.2912344 9.57796875,18 C9.57796875,17.7087656 9.34192969,17.4726562 9.050625,17.4726562 L5.26359375,17.4726562 C5.01827344,16.2587109 3.94333594,15.3418359 2.65816406,15.3418359 C1.19242969,15.3418359 0,16.5342656 0,18 C0,19.4657344 1.19242969,20.6581641 2.65816406,20.6581641 C3.94333594,20.6581641 5.01827344,19.7412891 5.26359375,18.5273438 Z M2.65816406,19.6034766 C1.77398437,19.6034766 1.0546875,18.8841797 1.0546875,18 C1.0546875,17.1158203 1.77398437,16.3965234 2.65816406,16.3965234 C3.54234375,16.3965234 4.26157031,17.1158203 4.26157031,18 C4.26157031,18.8841797 3.54227344,19.6034766 2.65816406,19.6034766 Z" id="Shape"></path>
                <path d="M24.3281953,12.1991484 C24.463125,12.1991484 24.598125,12.1476797 24.7011328,12.0446719 L25.9634531,10.7823516 C26.5726406,11.2375547 27.3280078,11.5073438 28.1451797,11.5073438 C30.1592109,11.5073438 31.7977031,9.86885156 31.7977031,7.85482031 C31.7977031,5.84078906 30.1591406,4.20229687 28.1451797,4.20229687 C26.1312187,4.20229687 24.4926562,5.84078906 24.4926562,7.85482031 C24.4926562,8.6720625 24.7624453,9.42735937 25.2176484,10.0365469 L23.9552578,11.2988672 C23.7493125,11.5048125 23.7493125,11.8387266 23.9552578,12.0446016 C24.0582656,12.1476797 24.1932656,12.1991484 24.3281953,12.1991484 L24.3281953,12.1991484 Z M28.1451797,5.25698437 C29.5776562,5.25698437 30.7430156,6.42241406 30.7430156,7.85482031 C30.7430156,9.28722656 29.5776562,10.4526562 28.1451797,10.4526562 C26.7127031,10.4526562 25.5473437,9.28722656 25.5473437,7.85482031 C25.5473437,6.42241406 26.7127031,5.25698437 28.1451797,5.25698437 Z" id="Shape"></path>
                <path d="M11.2988672,23.9553281 L10.0365469,25.2176484 C9.42735937,24.7624453 8.67199219,24.4926562 7.85482031,24.4926562 C5.84078906,24.4926562 4.20229688,26.1311484 4.20229688,28.1451797 C4.20229688,30.1592109 5.84085937,31.7977031 7.85482031,31.7977031 C9.86878125,31.7977031 11.5073437,30.1592109 11.5073437,28.1451797 C11.5073437,27.3279375 11.2375547,26.5726406 10.7823516,25.9634531 L12.0446719,24.7011328 C12.2506172,24.4951875 12.2506172,24.1612734 12.0446719,23.9553984 C11.8387266,23.7493828 11.5048828,23.7493828 11.2988672,23.9553281 L11.2988672,23.9553281 Z M7.85482031,30.7430156 C6.42234375,30.7430156 5.25698438,29.5775859 5.25698438,28.1451797 C5.25698438,26.7127734 6.42234375,25.5473437 7.85482031,25.5473437 C9.28729688,25.5473437 10.4526563,26.7127734 10.4526563,28.1451797 C10.4526563,29.5775859 9.28729687,30.7430156 7.85482031,30.7430156 Z" id="Shape"></path>
            </g>
        </g>
    </g>
</svg>