<?xml version="1.0" encoding="UTF-8"?>
<svg width="36px" height="36px" viewBox="0 0 36 36" version="1.1" xmlns="http://www.w3.org/2000/svg" xmlns:xlink="http://www.w3.org/1999/xlink">
    <!-- Generator: Sketch 61.1 (89650) - https://sketch.com -->
    <title>Group 30</title>
    <desc>Created with Sketch.</desc>
    <g id="Page-1" stroke="none" stroke-width="1" fill="none" fill-rule="evenodd">
        <g id="Group-30" fill-rule="nonzero">
            <g id="code">
                <polygon id="Path" fill="#3269D6" points="17.4 27 18.6 27 18.6 28.2 17.4 28.2"></polygon>
                <path d="M34.2,7.2 L23.88,7.2 C24.1822667,5.72436682 23.9145121,4.18901161 23.1306,2.9028 L25.3998,1.2 L30,1.2 L30,0 L25.2,0 C25.0701779,0 24.9438577,0.0421067231 24.84,0.12 L22.4082,1.944 C20.5861772,-0.0399600623 17.664569,-0.564980587 15.2658027,0.66049281 C12.8670365,1.88596621 11.5802412,4.56096135 12.12,7.2 L1.8,7.2 C0.80588745,7.2 2.13162821e-15,8.00588745 2.13162821e-15,9 L2.13162821e-15,28.2 C2.13162821e-15,29.1941125 0.80588745,30 1.8,30 L13.692,30 L13.2918,32.4 L12.6,32.4 C12.4111456,32.4 12.2333126,32.4889165 12.12,32.64 L10.32,35.04 C10.1836421,35.2218106 10.1617085,35.4650577 10.2633437,35.6683282 C10.3649789,35.8715986 10.5727368,36 10.8,36 L25.2,36 C25.4272632,36 25.6350211,35.8715986 25.7366563,35.6683282 C25.8382915,35.4650577 25.8163579,35.2218106 25.68,35.04 L23.88,32.64 C23.7666874,32.4889165 23.5888544,32.4 23.4,32.4 L22.7082,32.4 L22.308,30 L34.2,30 C35.1941125,30 36,29.1941125 36,28.2 L36,9 C36,8.00588745 35.1941125,7.2 34.2,7.2 L34.2,7.2 Z M21.4458,2.6658 L20.04,3.72 L20.76,4.68 L22.1658,3.6252 C22.5812142,4.34772837 22.7998875,5.16656363 22.8,6 L18.6,6 L18.6,1.2414 C19.6832587,1.37784546 20.6873504,1.88042056 21.4458,2.6658 L21.4458,2.6658 Z M17.4,1.2414 L17.4,6.6 C17.4,6.93137085 17.6686292,7.2 18,7.2 L22.6422,7.2 C22.2446041,8.75633166 21.0925436,10.009279 19.5749782,10.5358206 C18.0574128,11.0623623 16.376894,10.7922202 15.1008,9.8166 L16.6914,7.5438 L15.7086,6.8562 L14.2326,8.9646 C13.1596615,7.60762459 12.9019073,5.77750028 13.5583108,4.17696483 C14.2147144,2.57642938 15.6832408,1.45427859 17.4,1.2414 L17.4,1.2414 Z M1.8,8.4 L12.5046,8.4 C12.7595847,8.97686658 13.1037986,9.50999315 13.5246,9.9798 L11.6874,12.6 L4.2,12.6 C3.86862915,12.6 3.6,12.8686292 3.6,13.2 L3.6,16.8 L4.8,16.8 L4.8,13.8 L12,13.8 C12.1957901,13.7998912 12.3792123,13.7042609 12.4914,13.5438 L14.4132,10.8 C15.8773025,11.9009921 17.7651932,12.2703655 19.5362781,11.8023507 C21.307363,11.3343359 22.7663276,10.0805455 23.4954,8.4 L34.2,8.4 C34.5313708,8.4 34.8,8.66862915 34.8,9 L34.8,25.2 L1.2,25.2 L1.2,9 C1.2,8.66862915 1.46862915,8.4 1.8,8.4 Z M24,34.8 L12,34.8 L12.9,33.6 L23.1,33.6 L24,34.8 Z M21.492,32.4 L14.508,32.4 L14.9082,30 L21.0918,30 L21.492,32.4 Z M34.2,28.8 L1.8,28.8 C1.46862915,28.8 1.2,28.5313708 1.2,28.2 L1.2,26.4 L34.8,26.4 L34.8,28.2 C34.8,28.5313708 34.5313708,28.8 34.2,28.8 Z" id="Shape" fill="#FFFFFF"></path>
                <polygon id="Path" fill="#FFFFFF" points="31.2 0 33.6 0 33.6 1.2 31.2 1.2"></polygon>
                <polygon id="Path" fill="#FFFFFF" points="25.2 2.4 26.4 2.4 26.4 3.6 25.2 3.6"></polygon>
                <polygon id="Path" fill="#FFFFFF" points="27.6 2.4 33.6 2.4 33.6 3.6 27.6 3.6"></polygon>
                <polygon id="Path" fill="#FFFFFF" points="25.2 4.8 30 4.8 30 6 25.2 6"></polygon>
                <polygon id="Path" fill="#FFFFFF" points="31.2 4.8 33.6 4.8 33.6 6 31.2 6"></polygon>
                <polygon id="Path" fill="#FFFFFF" points="2.4 18 5.4 18 5.4 19.2 2.4 19.2"></polygon>
                <polygon id="Path" fill="#FFFFFF" points="6.6 18 18 18 18 19.2 6.6 19.2"></polygon>
                <polygon id="Path" fill="#FFFFFF" points="2.4 20.4 12 20.4 12 21.6 2.4 21.6"></polygon>
                <polygon id="Path" fill="#FFFFFF" points="13.2 20.4 19.2 20.4 19.2 21.6 13.2 21.6"></polygon>
                <polygon id="Path" fill="#FFFFFF" points="2.4 22.8 8.4 22.8 8.4 24 2.4 24"></polygon>
                <polygon id="Path" fill="#FFFFFF" points="9.6 22.8 19.2 22.8 19.2 24 9.6 24"></polygon>
                <path d="M3,6 L10.2,6 C10.5313708,6 10.8,5.73137085 10.8,5.4 L10.8,1.8 C10.8,1.46862915 10.5313708,1.2 10.2,1.2 L3,1.2 C2.66862915,1.2 2.4,1.46862915 2.4,1.8 L2.4,5.4 C2.4,5.73137085 2.66862915,6 3,6 Z M3.6,2.4 L9.6,2.4 L9.6,4.8 L3.6,4.8 L3.6,2.4 Z" id="Shape" fill="#FFFFFF"></path>
                <path d="M25.8,14.4 L33,14.4 C33.3313708,14.4 33.6,14.1313708 33.6,13.8 L33.6,10.2 C33.6,9.86862915 33.3313708,9.6 33,9.6 L25.8,9.6 C25.4686292,9.6 25.2,9.86862915 25.2,10.2 L25.2,13.8 C25.2,14.1313708 25.4686292,14.4 25.8,14.4 Z M26.4,10.8 L32.4,10.8 L32.4,13.2 L26.4,13.2 L26.4,10.8 Z" id="Shape" fill="#FFFFFF"></path>
                <path d="M20.4,18.6 L20.4,23.4 C20.4,23.7313708 20.6686292,24 21,24 L23.4,24 C23.7313708,24 24,23.7313708 24,23.4 L24,18.6 C24,18.2686292 23.7313708,18 23.4,18 L21,18 C20.6686292,18 20.4,18.2686292 20.4,18.6 Z M21.6,19.2 L22.8,19.2 L22.8,22.8 L21.6,22.8 L21.6,19.2 Z" id="Shape" fill="#FFFFFF"></path>
                <path d="M25.8,24 L28.2,24 C28.5313708,24 28.8,23.7313708 28.8,23.4 L28.8,17.4 C28.8,17.0686292 28.5313708,16.8 28.2,16.8 L25.8,16.8 C25.4686292,16.8 25.2,17.0686292 25.2,17.4 L25.2,23.4 C25.2,23.7313708 25.4686292,24 25.8,24 Z M26.4,18 L27.6,18 L27.6,22.8 L26.4,22.8 L26.4,18 Z" id="Shape" fill="#FFFFFF"></path>
                <path d="M33,15.6 L30.6,15.6 C30.2686292,15.6 30,15.8686292 30,16.2 L30,23.4 C30,23.7313708 30.2686292,24 30.6,24 L33,24 C33.3313708,24 33.6,23.7313708 33.6,23.4 L33.6,16.2 C33.6,15.8686292 33.3313708,15.6 33,15.6 Z M32.4,22.8 L31.2,22.8 L31.2,16.8 L32.4,16.8 L32.4,22.8 Z" id="Shape" fill="#FFFFFF"></path>
                <path d="M16.2,16.8 L21,16.8 C21.3313708,16.8 21.6,16.5313708 21.6,16.2 L21.6,13.8 C21.6,13.4686292 21.3313708,13.2 21,13.2 L16.2,13.2 C15.8686292,13.2 15.6,13.4686292 15.6,13.8 L15.6,16.2 C15.6,16.5313708 15.8686292,16.8 16.2,16.8 Z M16.8,14.4 L20.4,14.4 L20.4,15.6 L16.8,15.6 L16.8,14.4 Z" id="Shape" fill="#FFFFFF"></path>
            </g>
        </g>
    </g>
</svg>