<?xml version="1.0" encoding="UTF-8"?>
<svg width="34px" height="37px" viewBox="0 0 34 37" version="1.1" xmlns="http://www.w3.org/2000/svg" xmlns:xlink="http://www.w3.org/1999/xlink">
    <!-- Generator: Sketch 61.1 (89650) - https://sketch.com -->
    <title>Group 29</title>
    <desc>Created with Sketch.</desc>
    <g id="Page-1" stroke="none" stroke-width="1" fill="none" fill-rule="evenodd">
        <g id="Group-29" transform="translate(0.000000, 1.000000)">
            <g id="smart-home-(1)">
                <path d="M8.22945882,25.8804706 C8.38064437,25.7747678 8.47067025,25.6018844 8.47058824,25.4174118 L8.47058824,21.8823529 C8.47058824,21.5704745 8.2177608,21.3176471 7.90588235,21.3176471 C7.59400391,21.3176471 7.34117647,21.5704745 7.34117647,21.8823529 L7.34117647,25.1350588 C5.8437288,26.3339765 5.2667047,28.3478428 5.9020183,30.157851 C6.53733191,31.9678592 8.24643764,33.179293 10.1647059,33.179293 C12.0829741,33.179293 13.7920799,31.9678592 14.4273935,30.157851 C15.0627071,28.3478428 14.485683,26.3339765 12.9882353,25.1350588 L12.9882353,15.6705882 C12.9882353,14.111196 11.7240981,12.8470588 10.1647059,12.8470588 C8.60531365,12.8470588 7.34117647,14.111196 7.34117647,15.6705882 L7.34117647,19.6235294 C7.34117647,19.9354079 7.59400391,20.1882353 7.90588235,20.1882353 C8.2177608,20.1882353 8.47058824,19.9354079 8.47058824,19.6235294 L8.47058824,15.6705882 C8.47058824,14.7349529 9.22907054,13.9764706 10.1647059,13.9764706 C11.1003412,13.9764706 11.8588235,14.7349529 11.8588235,15.6705882 L11.8588235,16.8 L10.7294118,16.8 L10.7294118,15.6705882 C10.7294118,15.3587098 10.4765843,15.1058824 10.1647059,15.1058824 C9.85282744,15.1058824 9.6,15.3587098 9.6,15.6705882 L9.6,26.4801882 C8.46630058,26.7756488 7.74773202,27.8900907 7.94647052,29.044679 C8.14520902,30.1992674 9.19503882,31.0093161 10.3622797,30.9087174 C11.5295205,30.8081187 12.4252707,29.8303901 12.4235294,28.6588235 C12.4235294,28.3469451 12.170702,28.0941176 11.8588235,28.0941176 C11.5469451,28.0941176 11.2941176,28.3469451 11.2941176,28.6588235 C11.2941176,29.2825804 10.7884628,29.7882353 10.1647059,29.7882353 C9.54094899,29.7882353 9.03529412,29.2825804 9.03529412,28.6588235 C9.03529412,28.0350666 9.54094899,27.5294118 10.1647059,27.5294118 C10.4765843,27.5294118 10.7294118,27.2765843 10.7294118,26.9647059 L10.7294118,24.7058824 L11.8588235,24.7058824 L11.8588235,25.4174118 C11.8587415,25.6018844 11.9487674,25.7747678 12.0999529,25.8804706 C13.3152917,26.7261481 13.8407709,28.2630227 13.3976169,29.6757624 C12.954463,31.0885021 11.6453202,32.049885 10.1647059,32.049885 C8.68409155,32.049885 7.37494878,31.0885021 6.93179484,29.6757624 C6.4886409,28.2630227 7.01412007,26.7261481 8.22945882,25.8804706 Z M10.7294118,20.1882353 L11.8588235,20.1882353 L11.8588235,21.3176471 L10.7294118,21.3176471 L10.7294118,20.1882353 Z M11.8588235,17.9294118 L11.8588235,19.0588235 L10.7294118,19.0588235 L10.7294118,17.9294118 L11.8588235,17.9294118 Z M10.7294118,23.5764706 L10.7294118,22.4470588 L11.8588235,22.4470588 L11.8588235,23.5764706 L10.7294118,23.5764706 Z" id="Shape" fill="#FFFFFF" fill-rule="nonzero"></path>
                <path d="M17.5058824,30.3529412 C17.1940039,30.3529412 16.9411765,30.6057686 16.9411765,30.9176471 L16.9411765,33.1764706 C16.9411765,33.488349 17.1940039,33.7411765 17.5058824,33.7411765 L19.7647059,33.7411765 C20.0765843,33.7411765 20.3294118,33.488349 20.3294118,33.1764706 C20.3294118,32.8645921 20.0765843,32.6117647 19.7647059,32.6117647 L18.0705882,32.6117647 L18.0705882,31.4823529 L19.7647059,31.4823529 C20.0765843,31.4823529 20.3294118,31.2295255 20.3294118,30.9176471 L20.3294118,28.6588235 C20.3294118,28.3469451 20.0765843,28.0941176 19.7647059,28.0941176 L17.5058824,28.0941176 C17.1940039,28.0941176 16.9411765,28.3469451 16.9411765,28.6588235 C16.9411765,28.970702 17.1940039,29.2235294 17.5058824,29.2235294 L19.2,29.2235294 L19.2,30.3529412 L17.5058824,30.3529412 Z" id="Path" fill="#FFFFFF" fill-rule="nonzero"></path>
                <path d="M22.0235294,32.6117647 C21.711651,32.6117647 21.4588235,32.8645921 21.4588235,33.1764706 C21.4588235,33.488349 21.711651,33.7411765 22.0235294,33.7411765 L24.2823529,33.7411765 C24.5942314,33.7411765 24.8470588,33.488349 24.8470588,33.1764706 L24.8470588,30.9176471 C24.8470588,30.6057686 24.5942314,30.3529412 24.2823529,30.3529412 L22.5882353,30.3529412 L22.5882353,29.2235294 L24.2823529,29.2235294 C24.5942314,29.2235294 24.8470588,28.970702 24.8470588,28.6588235 C24.8470588,28.3469451 24.5942314,28.0941176 24.2823529,28.0941176 L22.0235294,28.0941176 C21.711651,28.0941176 21.4588235,28.3469451 21.4588235,28.6588235 L21.4588235,30.9176471 C21.4588235,31.2295255 21.711651,31.4823529 22.0235294,31.4823529 L23.7176471,31.4823529 L23.7176471,32.6117647 L22.0235294,32.6117647 Z" id="Path" fill="#FFFFFF" fill-rule="nonzero"></path>
                <circle id="Oval" fill="#FFFFFF" fill-rule="nonzero" cx="25.4117647" cy="26.9647059" r="1"></circle>
                <path d="M26.5411765,17.3647059 C26.5411765,14.2459214 24.0129021,11.7176471 20.8941176,11.7176471 C17.7753332,11.7176471 15.2470588,14.2459214 15.2470588,17.3647059 C15.2470588,20.4834904 17.7753332,23.0117647 20.8941176,23.0117647 C24.011483,23.0083412 26.537753,20.4820712 26.5411765,17.3647059 Z M16.3764706,17.3647059 C16.3764706,14.8696783 18.3990901,12.8470588 20.8941176,12.8470588 C23.3891452,12.8470588 25.4117647,14.8696783 25.4117647,17.3647059 C25.4117647,19.8597335 23.3891452,21.8823529 20.8941176,21.8823529 C18.4002512,21.8795521 16.3792715,19.8585724 16.3764706,17.3647059 Z" id="Shape" fill="#FFFFFF" fill-rule="nonzero"></path>
                <path d="M21.6926118,18.2603294 C21.9141904,18.4743372 22.2664008,18.4712766 22.484227,18.2534505 C22.7020531,18.0356243 22.7051137,17.683414 22.4911059,17.4618353 C21.5976682,16.6079216 20.1905671,16.6079216 19.2971294,17.4618353 C19.0831216,17.683414 19.0861822,18.0356243 19.3040083,18.2534505 C19.5218345,18.4712766 19.8740449,18.4743372 20.0956235,18.2603294 C20.5424002,17.8335168 21.2458351,17.8335168 21.6926118,18.2603294 Z" id="Path" fill="#FFFFFF" fill-rule="nonzero"></path>
                <path d="M23.2901647,16.6627765 C23.4319479,16.8095755 23.6419075,16.8684495 23.8393453,16.8167702 C24.0367831,16.7650909 24.1909732,16.6109008 24.2426525,16.413463 C24.2943318,16.2160252 24.2354578,16.0060656 24.0886588,15.8642824 C23.241429,15.0170088 22.0923125,14.5410119 20.8941176,14.5410119 C19.6959228,14.5410119 18.5468063,15.0170088 17.6995765,15.8642824 C17.5527775,16.0060656 17.4939035,16.2160252 17.5455828,16.413463 C17.5972621,16.6109008 17.7514522,16.7650909 17.94889,16.8167702 C18.1463278,16.8684495 18.3562874,16.8095755 18.4980706,16.6627765 C19.1335045,16.027235 19.9954023,15.6701824 20.8941176,15.6701824 C21.792833,15.6701824 22.6547308,16.027235 23.2901647,16.6627765 L23.2901647,16.6627765 Z" id="Path" fill="#FFFFFF" fill-rule="nonzero"></path>
                <circle id="Oval" fill="#FFFFFF" fill-rule="nonzero" cx="20.8941176" cy="19.6235294" r="1"></circle>
                <path d="M33.3176471,32.6117647 L30.4941176,32.6117647 L30.4941176,29.7882353 C30.4941176,29.4763568 30.2412902,29.2235294 29.9294118,29.2235294 C29.6175333,29.2235294 29.3647059,29.4763568 29.3647059,29.7882353 L29.3647059,33.1764706 C29.3647059,33.488349 29.6175333,33.7411765 29.9294118,33.7411765 L32.7529412,33.7411765 L32.7529412,34.8705882 L28.2352941,34.8705882 L28.2352941,24.7058824 C28.2352941,24.3940039 27.9824667,24.1411765 27.6705882,24.1411765 L14.6823529,24.1411765 C14.3704745,24.1411765 14.1176471,24.3940039 14.1176471,24.7058824 C14.1176471,25.0177608 14.3704745,25.2705882 14.6823529,25.2705882 L27.1058824,25.2705882 L27.1058824,34.8705882 L14.6823529,34.8705882 L14.6823529,33.1764706 C14.6823529,32.8645921 14.4295255,32.6117647 14.1176471,32.6117647 C13.8057686,32.6117647 13.5529412,32.8645921 13.5529412,33.1764706 L13.5529412,34.8705882 L1.12941176,34.8705882 L1.12941176,33.7411765 L3.95294118,33.7411765 C4.26481962,33.7411765 4.51764706,33.488349 4.51764706,33.1764706 L4.51764706,21.3176471 C4.51764706,21.0057686 4.26481962,20.7529412 3.95294118,20.7529412 C3.64106273,20.7529412 3.38823529,21.0057686 3.38823529,21.3176471 L3.38823529,32.6117647 L0.564705882,32.6117647 C0.252827435,32.6117647 0,32.8645921 0,33.1764706 L0,35.4352941 C0,35.7471726 0.252827435,36 0.564705882,36 L33.3176471,36 C33.6295255,36 33.8823529,35.7471726 33.8823529,35.4352941 L33.8823529,33.1764706 C33.8823529,32.8645921 33.6295255,32.6117647 33.3176471,32.6117647 Z" id="Path" fill="#FFFFFF" fill-rule="nonzero"></path>
                <polyline id="Path-11" stroke="#FFFFFF" stroke-linecap="round" stroke-linejoin="round" points="3.88235294 19.7647059 3.88235294 0.352941176 17.6470588 0.352941176 17.6470588 10.2352941 27.8823529 10.2352941 27.8823529 16.9411765 27.8823529 22.5882353"></polyline>
            </g>
        </g>
    </g>
</svg>