<?xml version="1.0" encoding="UTF-8"?>
<svg width="24px" height="34px" viewBox="0 0 24 34" version="1.1" xmlns="http://www.w3.org/2000/svg" xmlns:xlink="http://www.w3.org/1999/xlink">
    <!-- Generator: Sketch 61.1 (89650) - https://sketch.com -->
    <title>Group 2</title>
    <desc>Created with Sketch.</desc>
    <g id="Page-1" stroke="none" stroke-width="1" fill="none" fill-rule="evenodd">
        <g id="Group-2" fill="#FFFFFF" fill-rule="nonzero">
            <g id="touch" transform="translate(0.000000, 0.200000)">
                <path d="M6.00824176,21.2598729 C6.98566279,20.282452 6.98566279,18.6917926 6.00824176,17.7143716 C5.5345982,17.2409856 4.90513391,16.9800824 4.23549105,16.9800824 C3.84838602,16.9800824 3.47493132,17.0676511 3.13727677,17.2327438 C1.94660031,15.5292754 1.319454,13.5358002 1.319454,11.4390454 C1.319454,6.07288807 5.51141829,1.62748971 10.8626374,1.31842378 C11.2265625,1.29730424 11.5042067,0.985405187 11.4833447,0.62173767 C11.4622253,0.257812484 11.1503262,-0.019059033 10.7866586,0.00103021978 C4.73798077,0.350532264 1.0658141e-14,5.37465659 1.0658141e-14,11.4390454 C1.0658141e-14,13.8585165 0.739440264,16.1566793 2.14131178,18.1086882 C1.50077268,19.0812157 1.60791554,20.405048 2.46274035,21.2598729 C2.93638391,21.7332589 3.5658482,21.9941621 4.23549105,21.9941621 C4.90513391,21.9941621 5.5345982,21.7332589 6.00824176,21.2598729 Z M3.3956044,18.6474931 C3.62714631,18.4159513 3.93131868,18.3000515 4.23549105,18.3000515 C4.53940589,18.3000515 4.84357833,18.4159513 5.07512018,18.6474931 C5.538204,19.1103194 5.538204,19.8639251 5.07512018,20.3267513 C4.61203642,20.7898352 3.85868822,20.7898352 3.3956044,20.3267513 C2.93277818,19.8639251 2.93277818,19.1105769 3.3956044,18.6474931 Z" id="Shape"></path>
                <path d="M21.6292067,22.207482 C21.2122253,22.207482 20.8202267,22.3161701 20.4799965,22.5067608 C20.1783997,21.5504593 19.2831388,20.8550609 18.2284513,20.8550609 C17.5611264,20.8550609 16.9576751,21.1334778 16.5280735,21.5800781 C16.4088256,21.4564517 16.2761848,21.3459606 16.1327267,21.2504078 C17.6533311,20.5696901 19.0217205,19.5585294 20.1289491,18.2777086 C21.9251374,16.1992402 22.9144059,13.5397278 22.9144059,10.7892986 C22.9144059,8.37111518 22.1749656,6.07166463 20.7733516,4.11939814 C21.4138908,3.14687067 21.306748,1.82329579 20.4516655,0.968213374 C19.4742445,-0.00920759341 17.8838427,-0.00920759341 16.9061641,0.968213374 C15.9287432,1.94563441 15.9287432,3.53629375 16.9061641,4.51371478 C17.3950035,5.00255403 18.0368304,5.24697373 18.6789148,5.24697373 C19.0552026,5.24697373 19.4309753,5.16223816 19.7763564,4.99431227 C20.967548,6.69829579 21.594952,8.69331643 21.594952,10.7892986 C21.594952,15.5617917 18.3551683,19.5958748 13.7869162,20.6585465 L13.7869162,17.1073789 C16.4031593,16.1415479 18.1905907,13.6126159 18.1905907,10.7892986 C18.1905907,7.07664405 15.1699863,4.05603966 11.4570742,4.05603966 C7.74441963,4.05603966 4.72381523,7.07638652 4.72381523,10.7892986 C4.72381523,12.2545287 5.18664145,13.6479009 6.06181319,14.8182306 C6.82520604,15.8389208 7.88143886,16.6316749 9.06644914,17.0839415 L9.06644914,26.7883542 L8.23763736,25.4287217 C7.54120879,24.2854353 6.08731114,23.9145561 4.92805635,24.5836839 C3.82546358,25.2203597 3.39534686,26.6173377 3.95192308,27.7696386 L6.41286059,32.7412217 C6.5279876,32.9737937 6.76184756,33.108495 7.00472182,33.108495 C7.10310785,33.108495 7.20278163,33.0866028 7.29678916,33.0399854 C7.62336884,32.8782408 7.75703987,32.4823789 7.5955529,32.1560568 L5.1371909,27.1901399 C4.88246908,26.6624098 5.08027127,26.0195527 5.58791209,25.7264551 C6.11255149,25.4235705 6.79584475,25.5979353 7.111092,26.1153631 L9.16277473,29.4818638 C9.31679262,29.7342677 9.61993477,29.8535156 9.90453297,29.7736736 C10.1891312,29.6938316 10.3859031,29.4342162 10.3859031,29.1382855 L10.3859031,14.0012663 C10.3859031,13.4274339 10.8528502,12.9607443 11.4266827,12.9607443 C12.0005151,12.9607443 12.4674622,13.4274339 12.4674622,14.0012663 L12.4674622,16.610813 C12.4672047,16.615449 12.4674622,16.620085 12.4674622,16.6249785 L12.4674622,26.5310568 C12.4674622,26.895497 12.7626202,27.190655 13.1270604,27.190655 C13.4915007,27.190655 13.7869162,26.895497 13.7869162,26.5310568 L13.7869162,23.2152945 C13.7869162,22.641462 14.2536058,22.1745149 14.8274382,22.1745149 C15.4012706,22.1745149 15.8682177,22.641462 15.8682177,23.2152945 L15.8682177,26.771098 C15.8682177,27.1355383 16.1636333,27.4309538 16.5278159,27.4309538 C16.8922562,27.4309538 17.1876717,27.1355383 17.1876717,26.771098 L17.1876717,23.2152945 C17.1876717,22.641462 17.6546188,22.1745149 18.2284513,22.1745149 C18.8022837,22.1745149 19.2689732,22.641462 19.2689732,23.2152945 L19.2689732,26.815655 C19.2689732,27.1800953 19.5643887,27.4755108 19.928829,27.4755108 C20.2932692,27.4755108 20.5884272,27.1800953 20.5884272,26.815655 L20.5884272,24.5677155 C20.5884272,23.9938831 21.0553743,23.526936 21.6292067,23.526936 C22.2030392,23.526936 22.6699863,23.9938831 22.6699863,24.5677155 L22.6699863,32.4483817 C22.6699863,32.8128219 22.9651443,33.108495 23.3295845,33.108495 C23.6940247,33.108495 23.9894403,32.8128219 23.9894403,32.4483817 L23.9894403,24.5677155 C23.9894403,23.2662903 22.9306319,22.207482 21.6292067,22.207482 L21.6292067,22.207482 Z M17.8392857,3.58085074 C17.3762019,3.11776698 17.3762019,2.36441878 17.8392857,1.90133496 C18.0708276,1.66979311 18.3747425,1.55415089 18.6789148,1.55415089 C18.9830872,1.55415089 19.2872596,1.66979311 19.5188015,1.90133496 C19.9816278,2.36441878 19.9816278,3.11776698 19.5188015,3.58085074 C19.0557177,4.04367702 18.3021119,4.04367702 17.8392857,3.58085074 Z M6.04326923,10.7892986 C6.04326923,7.80397922 8.4720124,5.37523605 11.4573317,5.37523605 C14.4423936,5.37523605 16.8711367,7.80397922 16.8711367,10.7892986 C16.8711367,12.891462 15.6392513,14.7909298 13.7869162,15.6771763 L13.7869162,14.0012663 C13.7869162,13.6309023 13.7008929,13.2801124 13.5479052,12.9676983 C14.13307,12.4036529 14.4789663,11.6173377 14.4789663,10.7892986 C14.4789663,9.12291808 13.1234546,7.76740638 11.4573317,7.76740638 C9.79095125,7.76740638 8.43543956,9.12291808 8.43543956,10.7892986 C8.43543956,11.5931276 8.76279191,12.3655349 9.32554945,12.9285499 C9.16045675,13.2504936 9.06644914,13.6151914 9.06644914,14.0012663 L9.06644914,15.6493604 C7.22930974,14.7515239 6.04326923,12.8896591 6.04326923,10.7892986 Z M10.2295673,11.9683851 C9.9253949,11.6536529 9.75489356,11.2366715 9.75489356,10.7892986 C9.75489356,9.85051078 10.518544,9.08686038 11.4570742,9.08686038 C12.3958619,9.08686038 13.1595124,9.85051078 13.1595124,10.7892986 C13.1595124,11.2431104 12.975103,11.6752876 12.6614011,11.9910499 C12.3018544,11.7692952 11.8789491,11.6412903 11.4266827,11.6412903 C10.9898695,11.6412903 10.5808722,11.7607958 10.2295673,11.9683851 Z" id="Shape"></path>
                <path d="M13.7933551,33.7582418 C13.9669471,33.7582418 14.1371909,33.6876717 14.2597871,33.564818 C14.3826408,33.4422218 14.4532108,33.271978 14.4532108,33.098386 C14.4532108,32.9250515 14.3826408,32.7548077 14.2597871,32.631954 C14.1371909,32.5093578 13.9669471,32.4387878 13.7933551,32.4387878 C13.6200206,32.4387878 13.4497768,32.5093578 13.3271806,32.631954 C13.2043269,32.7548077 13.1337568,32.9250515 13.1337568,33.098386 C13.1337568,33.271978 13.2043269,33.4422218 13.3271806,33.564818 C13.4497768,33.6876717 13.6200206,33.7582418 13.7933551,33.7582418 Z" id="Path"></path>
            </g>
        </g>
    </g>
</svg>