<?xml version="1.0" encoding="UTF-8"?>
<svg width="24px" height="36px" viewBox="0 0 24 36" version="1.1" xmlns="http://www.w3.org/2000/svg" xmlns:xlink="http://www.w3.org/1999/xlink">
    <!-- Generator: Sketch 61.1 (89650) - https://sketch.com -->
    <title>Group 5</title>
    <desc>Created with Sketch.</desc>
    <g id="Page-1" stroke="none" stroke-width="1" fill="none" fill-rule="evenodd">
        <g id="Group-5" fill="#FFFFFF" fill-rule="nonzero">
            <g id="smart-home">
                <path d="M1.092,28.8 C1.692,29.688 1.584,29.55 2.094,30.324 C3.18,31.956 3,31.944 3,34.2 C3,35.1941125 3.80588745,36 4.8,36 L12,36 C12.9941125,36 13.8,35.1941125 13.8,34.2 L13.8,31.8 C13.8012861,31.5869333 13.9154733,31.3905314 14.1,31.284 C15.2647275,30.6779477 16.2873253,29.8312368 17.1,28.8 L17.4,28.8 C18.4914942,28.7964557 19.4431307,28.0568417 19.716,27 L20.4,27 C21.3301564,26.9888334 22.1700884,26.4411725 22.5555015,25.5945485 C22.9409146,24.7479244 22.8023867,23.7548341 22.2,23.046 C22.8014801,22.6839793 23.2142975,22.0767568 23.3297095,21.3842849 C23.4451214,20.691813 23.2515555,19.9835267 22.8,19.446 C23.707968,18.889857 24.1409697,17.8019769 23.8635152,16.7740081 C23.5860607,15.7460392 22.6644887,15.0237661 21.6,15 L19.8,15 L19.8,13.866 L21.888,13.002 C22.6854168,12.680461 23.2507213,11.9579299 23.3709688,11.1065771 C23.4912162,10.2552244 23.1481381,9.40439082 22.4709688,8.87457708 C21.7937993,8.3447634 20.8854168,8.21646096 20.088,8.538 L19.776,8.664 L19.776,2.4 C19.776,1.0745166 18.7014834,-2.13162821e-15 17.376,-2.13162821e-15 L6.6,-2.13162821e-15 C5.2745166,-2.13162821e-15 4.2,1.0745166 4.2,2.4 L4.2,13.2 C3.15657908,13.094234 2.11744585,13.4374642 1.34230197,14.1439099 C0.567158082,14.8503557 0.129242604,15.8532689 0.138,16.902 C0.198,21.474 0.192,20.97 0.108,22.416 C0.048,23.616 -0.036,25.11 0.018,25.83 C0.030735042,26.9128048 0.409233138,27.9594895 1.092,28.8 Z M19.392,22.11 C18.8689813,21.8963321 18.5658469,21.3467758 18.6641146,20.7904073 C18.7623823,20.2340387 19.235432,19.8215747 19.8,19.8 L21,19.8 C21.6627417,19.8 22.2,20.3372583 22.2,21 C22.2,21.6627417 21.6627417,22.2 21,22.2 C19.752,22.2 19.656,22.2 19.392,22.092 L19.392,22.11 Z M20.4,25.8 L19.8,25.8 C19.1372583,25.8 18.6,25.2627417 18.6,24.6 C18.6,23.9372583 19.1372583,23.4 19.8,23.4 L20.4,23.4 C21.0627417,23.4 21.6,23.9372583 21.6,24.6 C21.6,25.2627417 21.0627417,25.8 20.4,25.8 Z M21.6,16.2 C22.2627417,16.2 22.8,16.7372583 22.8,17.4 C22.8,18.0627417 22.2627417,18.6 21.6,18.6 L19.8,18.6 C19.1372583,18.6 18.6,18.0627417 18.6,17.4 C18.6,16.7372583 19.1372583,16.2 19.8,16.2 L21.6,16.2 Z M20.556,9.654 C21.1740067,9.41044242 21.8724424,9.71399334 22.116,10.332 C22.3595576,10.9500067 22.0560067,11.6484424 21.438,11.892 L19.8,12.6 L19.8,9.954 L20.556,9.654 Z M15.228,1.2 L14.796,2.07 C14.6933607,2.27370228 14.4840941,2.4015874 14.256,2.4 L9.744,2.4 C9.51590586,2.4015874 9.3066393,2.27370228 9.204,2.07 L8.772,1.2 L15.228,1.2 Z M5.4,2.4 C5.4,1.7372583 5.9372583,1.2 6.6,1.2 L7.428,1.2 L8.13,2.604 C8.43527844,3.21549456 9.06053916,3.60134318 9.744,3.6 L14.256,3.6 C14.9394608,3.60134318 15.5647216,3.21549456 15.87,2.604 L16.572,1.2 L17.4,1.2 C18.0627417,1.2 18.6,1.7372583 18.6,2.4 L18.6,15.306 C17.9269668,15.693969 17.4833478,16.383708 17.4094706,17.1570357 C17.3355934,17.9303635 17.6405965,18.6916195 18.228,19.2 C17.711399,19.6555993 17.4154508,20.3111986 17.4154508,21 C17.4154508,21.6888014 17.711399,22.3444007 18.228,22.8 C17.6703923,23.3096629 17.3852931,24.0521201 17.4584747,24.8040025 C17.5316564,25.5558848 17.9545768,26.2294295 18.6,26.622 C18.4918615,27.1969205 17.9849153,27.6100817 17.4,27.6001806 L6.6,27.6001806 C5.9372583,27.6001806 5.4,27.0627417 5.4,26.4 L5.4,19.8 C6.57367734,20.1554558 7.82632266,20.1554558 9,19.8 L12.6,19.8 C12.6,20.7941125 13.4058875,21.6 14.4,21.6 C15.3941125,21.6 16.2,20.7941125 16.2,19.8 L16.8,19.8 C17.1313708,19.8 17.4,19.5313708 17.4,19.2 C17.4,18.8686292 17.1313708,18.6 16.8,18.6 L16.2,18.6 C16.2,17.6058875 15.3941125,16.8 14.4,16.8 C13.4058875,16.8 12.6,17.6058875 12.6,18.6 L10.752,18.6 C11.1537106,18.0543355 11.3797355,17.3992817 11.4,16.722 C11.3914597,15.8179163 10.7135956,15.0604546 9.816,14.952 C6.564,14.562 6.642,14.034 5.4,13.494 L5.4,2.4 Z M15,19.8 C15,20.1313708 14.7313708,20.4 14.4,20.4 C14.0686292,20.4 13.8,20.1313708 13.8,19.8 L13.8,18.6 C13.8,18.2686292 14.0686292,18 14.4,18 C14.7313708,18 15,18.2686292 15,18.6 L15,19.8 Z M1.308,22.47 C1.596,17.184 0.858,16.326 2.058,15.114 C2.52341266,14.6481767 3.1575836,14.3906124 3.816,14.4 C5.184,14.4 5.652,15.264 7.038,15.66 C7.90179534,15.8979056 8.78228724,16.0703937 9.672,16.176 C9.97497906,16.212614 10.2022043,16.4708246 10.2,16.776 L10.2,16.8 C10.2,16.884 10.164,18.84 7.2,18.84 C7.16424426,18.8340691 7.12775574,18.8340691 7.092,18.84 C6.642,18.882 4.53,18.45 4.134,17.64 C4.04754156,17.4323768 3.85223092,17.2905406 3.62804453,17.272571 C3.40385813,17.2546013 3.18844856,17.3635163 3.07002244,17.554717 C2.95159632,17.7459177 2.95004356,17.9872915 3.066,18.18 C3.31761634,18.6646922 3.71397984,19.0589585 4.2,19.308 L4.2,26.4 C4.2,27.7254834 5.2745166,28.8 6.6,28.8 L15.522,28.8 C14.909672,29.355781 14.2352033,29.8389824 13.512,30.24 C12.9500992,30.5586799 12.602052,31.1540239 12.6,31.8 L12.6,34.2 C12.6,34.5313708 12.3313708,34.8 12,34.8 L4.8,34.8 C4.46862915,34.8 4.2,34.5313708 4.2,34.2 C4.2,31.836 4.386,31.602 3.096,29.646 C2.592,28.878 2.688,28.968 2.076,28.092 C1.51416484,27.4320736 1.20386432,26.5946872 1.2,25.728 C1.164,25.086 1.248,23.634 1.308,22.47 L1.308,22.47 Z" id="Shape"></path>
                <path d="M15,25.2 L9,25.2 C8.66862918,25.2 8.4,25.4686292 8.4,25.8 C8.4,26.1313708 8.66862918,26.4 9,26.4 L15,26.4 C15.3313708,26.4 15.6,26.1313708 15.6,25.8 C15.6,25.4686292 15.3313708,25.2 15,25.2 Z" id="Shape"></path>
                <path d="M7.2,7.8 L7.8,7.8 C7.8,8.79411252 8.60588748,9.6 9.6,9.6 C10.5941125,9.6 11.4,8.79411252 11.4,7.8 L16.8,7.8 C17.1313708,7.8 17.4,7.53137082 17.4,7.2 C17.4,6.86862918 17.1313708,6.6 16.8,6.6 L11.4,6.6 C11.4,5.60588745 10.5941125,4.8 9.6,4.8 C8.60588748,4.8 7.8,5.60588745 7.8,6.6 L7.2,6.6 C6.86862918,6.6 6.6,6.86862918 6.6,7.2 C6.6,7.53137082 6.86862918,7.8 7.2,7.8 Z M9,6.6 C9,6.26862918 9.26862918,6 9.6,6 C9.93137082,6 10.2,6.26862918 10.2,6.6 L10.2,7.8 C10.2,8.13137082 9.93137082,8.4 9.6,8.4 C9.26862918,8.4 9,8.13137082 9,7.8 L9,6.6 Z" id="Shape"></path>
                <path d="M7.2,13.8 L12.6,13.8 C12.6,14.7941125 13.4058875,15.6 14.4,15.6 C15.3941125,15.6 16.2,14.7941125 16.2,13.8 L16.8,13.8 C17.1313708,13.8 17.4,13.5313708 17.4,13.2 C17.4,12.8686292 17.1313708,12.6 16.8,12.6 L16.2,12.6 C16.2,11.6058875 15.3941125,10.8 14.4,10.8 C13.4058875,10.8 12.6,11.6058875 12.6,12.6 L7.2,12.6 C6.86862918,12.6 6.6,12.8686292 6.6,13.2 C6.6,13.5313708 6.86862918,13.8 7.2,13.8 Z M13.8,12.6 C13.8,12.2686292 14.0686292,12 14.4,12 C14.7313708,12 15,12.2686292 15,12.6 L15,13.8 C15,14.1313708 14.7313708,14.4 14.4,14.4 C14.0686292,14.4 13.8,14.1313708 13.8,13.8 L13.8,12.6 Z" id="Shape"></path>
            </g>
        </g>
    </g>
</svg>