<?xml version="1.0" encoding="UTF-8"?>
<svg width="40px" height="36px" viewBox="0 0 40 36" version="1.1" xmlns="http://www.w3.org/2000/svg" xmlns:xlink="http://www.w3.org/1999/xlink">
    <!-- Generator: Sketch 61.1 (89650) - https://sketch.com -->
    <title>Group 26</title>
    <desc>Created with Sketch.</desc>
    <g id="Page-1" stroke="none" stroke-width="1" fill="none" fill-rule="evenodd">
        <g id="Group-26" fill="#FFFFFF" fill-rule="nonzero">
            <g id="smart-id">
                <path d="M13.7446875,29.8906875 L8.75122159,29.8906875 C8.43343466,29.8906875 8.1759375,30.1481847 8.1759375,30.4659716 C8.1759375,30.7837585 8.43343466,31.0412557 8.75122159,31.0412557 L13.7446875,31.0412557 C14.5385795,31.0412557 15.1844318,30.3953267 15.1844318,29.6014347 L15.1844318,26.4780256 C15.1844318,25.0887528 14.4153153,23.831642 13.2372869,23.1786562 C13.8276051,22.3826165 14.1565909,21.4096193 14.1565909,20.4068608 C14.1565909,17.8437784 12.0713011,15.7585653 9.50821875,15.7585653 C6.94513636,15.7585653 4.8599233,17.8437784 4.8599233,20.4068608 C4.8599233,21.4095426 5.18890909,22.3825398 5.77922727,23.1786562 C4.60119886,23.831642 3.83200568,25.0888295 3.83200568,26.4780256 L3.83200568,29.6014347 C3.83200568,30.3953267 4.47793466,31.0412557 5.2718267,31.0412557 L6.45077557,31.0412557 C6.7685625,31.0412557 7.02605966,30.7837585 7.02605966,30.4659716 C7.02605966,30.1481847 6.7685625,29.8906875 6.45077557,29.8906875 L5.27190341,29.8906875 C5.11243466,29.8906875 4.98265057,29.7609801 4.98265057,29.6014347 L4.98265057,26.4780256 C4.98265057,25.4042386 5.64361364,24.4438977 6.62136648,24.0490227 C7.44156818,24.7000142 8.45353125,25.0559233 9.50821875,25.0559233 C10.5628295,25.0559233 11.5747159,24.7000142 12.395071,24.0490227 C13.3728239,24.4438977 14.0337869,25.4042386 14.0337869,26.4780256 L14.0337869,29.6014347 C14.0338636,29.7609801 13.9041562,29.8906875 13.7446875,29.8906875 Z M6.01056818,20.4069375 C6.01056818,18.4782784 7.57963636,16.9092102 9.50829545,16.9092102 C11.4370313,16.9092102 13.0060994,18.4782784 13.0060994,20.4069375 C13.0060994,22.3158835 11.4603494,23.9054318 9.50829545,23.9054318 C7.55340341,23.9054318 6.01056818,22.312892 6.01056818,20.4069375 Z" id="Shape"></path>
                <path d="M24.3364347,27.9424688 L32.9008807,27.9424688 C33.8476449,27.9424688 34.6178352,27.1722784 34.6178352,26.2255142 L34.6178352,20.5746903 C34.6178352,19.6279261 33.8476449,18.8577358 32.9008807,18.8577358 L24.3364347,18.8577358 C23.3896705,18.8577358 22.6194801,19.6279261 22.6194801,20.5746903 L22.6194801,26.2255142 C22.6194801,27.1722784 23.3897472,27.9424688 24.3364347,27.9424688 Z M32.9009574,26.7919006 L29.1939801,26.7919006 L29.1939801,24.191233 C29.1939801,24.0721875 29.290858,23.9754631 29.4098267,23.9754631 L33.467267,23.9754631 L33.467267,26.2255909 C33.467267,26.5377784 33.2132216,26.7919006 32.9009574,26.7919006 L32.9009574,26.7919006 Z M33.467267,20.5746903 L33.467267,22.8248182 L29.4098267,22.8248182 C28.656358,22.8248182 28.0434119,23.4377642 28.0434119,24.1911562 L28.0434119,26.7918239 L26.2360994,26.7918239 L26.2360994,25.8432955 C26.2360994,25.5255085 25.9786023,25.2680114 25.6608153,25.2680114 C25.3430284,25.2680114 25.0855312,25.5255085 25.0855312,25.8432955 L25.0855312,26.7919006 L24.3364347,26.7919006 C24.0241705,26.7919006 23.7700483,26.5377784 23.7700483,26.2255142 L23.7700483,23.027625 L26.175733,23.027625 C26.929125,23.027625 27.542071,22.414679 27.542071,21.6612869 L27.542071,20.0083807 L30.2572585,20.0083807 L30.2572585,20.9427955 C30.2572585,21.2605824 30.5147557,21.5180795 30.8325426,21.5180795 C31.1503295,21.5180795 31.4078267,21.2605824 31.4078267,20.9427955 L31.4078267,20.0083807 L32.900804,20.0083807 C33.2132216,20.008304 33.467267,20.2624261 33.467267,20.5746903 L33.467267,20.5746903 Z M24.3364347,20.008304 L26.3915795,20.008304 L26.3915795,21.6612102 C26.3915795,21.7802557 26.2947784,21.8769801 26.1758097,21.8769801 L23.770125,21.8769801 L23.770125,20.5746136 C23.770125,20.2624261 24.0241705,20.008304 24.3364347,20.008304 Z" id="Shape"></path>
                <path d="M27.1039347,14.0241222 C27.1039347,13.7063352 26.8464375,13.4488381 26.5286506,13.4488381 L12.7440767,13.4488381 C12.4262898,13.4488381 12.1687926,13.7063352 12.1687926,14.0241222 C12.1687926,14.3419091 12.4262898,14.5994063 12.7440767,14.5994063 L26.5287273,14.5994063 C26.8464375,14.5994063 27.1039347,14.3418324 27.1039347,14.0241222 Z" id="Path"></path>
                <path d="M17.5958693,7.10053977 C17.3712017,7.32528409 17.3712017,7.68947727 17.5958693,7.91414489 C17.8206136,8.1387358 18.1848068,8.1387358 18.4094744,7.91414489 C18.7371562,7.58646307 19.1728381,7.40590057 19.6362869,7.40590057 C20.0998125,7.40590057 20.5354943,7.58646307 20.8631761,7.91414489 C20.9755483,8.02644034 21.122821,8.08258807 21.270017,8.08258807 C21.4172131,8.08258807 21.5644858,8.02644034 21.676858,7.91414489 C21.9015256,7.68940057 21.9015256,7.32520739 21.676858,7.10053977 C20.5516023,5.9753608 18.7210483,5.9755142 17.5958693,7.10053977 L17.5958693,7.10053977 Z" id="Path"></path>
                <path d="M23.2733864,6.07937216 C23.4205824,6.07937216 23.5678551,6.02322443 23.6801506,5.91092898 C23.9048949,5.68626136 23.9048949,5.32199148 23.6802273,5.09740057 C22.6000739,4.01709375 21.1639347,3.42225 19.6363636,3.42225 C18.1088693,3.42225 16.6726534,4.01709375 15.5925,5.09724716 C15.3678324,5.32199148 15.3678324,5.68618466 15.5925,5.91085227 C15.8172443,6.13544318 16.1814375,6.13544318 16.4061051,5.91085227 C17.2689545,5.04800284 18.4161477,4.57281818 19.6363636,4.57281818 C20.8565795,4.57281818 22.0037727,5.04800284 22.8665455,5.91077557 C22.9789176,6.02314773 23.1261136,6.07937216 23.2733864,6.07937216 L23.2733864,6.07937216 Z" id="Path"></path>
                <path d="M14.004946,3.50961648 C17.1100994,0.404309659 22.1627045,0.404309659 25.267858,3.50961648 C25.3802301,3.62191193 25.5275028,3.67805966 25.6746989,3.67805966 C25.8218949,3.67805966 25.9691676,3.62191193 26.0815398,3.50961648 C26.3062074,3.28487216 26.3062074,2.92067898 26.0815398,2.69601136 C22.5277415,-0.857633523 16.7452926,-0.857786932 13.1913409,2.69601136 C12.9666733,2.92075568 12.9666733,3.28494886 13.1913409,3.50961648 C13.4160085,3.73413068 13.7802017,3.73413068 14.004946,3.50961648 L14.004946,3.50961648 Z" id="Path"></path>
                <path d="M36.5497159,9.70588636 L31.5103807,9.70588636 C31.1925938,9.70588636 30.9350966,9.96338352 30.9350966,10.2811705 C30.9350966,10.5989574 31.1925938,10.8564545 31.5103807,10.8564545 L36.5497159,10.8564545 C37.4167841,10.8564545 38.1221591,11.5618295 38.1221591,12.4288977 L38.1221591,32.8372159 C38.1221591,33.7042841 37.4167841,34.4096591 36.5497159,34.4096591 L2.72301136,34.4096591 C1.85594318,34.4096591 1.15056818,33.7042841 1.15056818,32.8372159 L1.15056818,12.4288977 C1.15056818,11.5618295 1.85594318,10.8564545 2.72301136,10.8564545 L29.2101648,10.8564545 C29.5279517,10.8564545 29.7854489,10.5989574 29.7854489,10.2811705 C29.7854489,9.96338352 29.5279517,9.70588636 29.2101648,9.70588636 L2.72301136,9.70588636 C1.22151989,9.70588636 0,10.9274063 0,12.4288977 L0,32.8372159 C0,34.3387074 1.22151989,35.5602273 2.72301136,35.5602273 L36.5497159,35.5602273 C38.0512074,35.5602273 39.2727273,34.3387074 39.2727273,32.8372159 L39.2727273,12.4288977 C39.2727273,10.9274063 38.0512074,9.70588636 36.5497159,9.70588636 Z" id="Path"></path>
            </g>
        </g>
    </g>
</svg>