<svg xmlns="http://www.w3.org/2000/svg" width="111" height="220" viewBox="0 0 111 220">
    <path fill="#E7DEFD" fill-rule="evenodd" d="M3.5 216c1.933 0 3.5 1.567 3.5 3.5S5.433 223 3.5 223 0 221.433 0 219.5s1.567-3.5 3.5-3.5zm26 0c1.933 0 3.5 1.567 3.5 3.5s-1.567 3.5-3.5 3.5-3.5-1.567-3.5-3.5 1.567-3.5 3.5-3.5zm26 0c1.933 0 3.5 1.567 3.5 3.5s-1.567 3.5-3.5 3.5-3.5-1.567-3.5-3.5 1.567-3.5 3.5-3.5zm26 0c1.933 0 3.5 1.567 3.5 3.5s-1.567 3.5-3.5 3.5-3.5-1.567-3.5-3.5 1.567-3.5 3.5-3.5zm26 0c1.933 0 3.5 1.567 3.5 3.5s-1.567 3.5-3.5 3.5-3.5-1.567-3.5-3.5 1.567-3.5 3.5-3.5zm-104-27c1.933 0 3.5 1.567 3.5 3.5S5.433 196 3.5 196 0 194.433 0 192.5s1.567-3.5 3.5-3.5zm26 0c1.933 0 3.5 1.567 3.5 3.5s-1.567 3.5-3.5 3.5-3.5-1.567-3.5-3.5 1.567-3.5 3.5-3.5zm26 0c1.933 0 3.5 1.567 3.5 3.5s-1.567 3.5-3.5 3.5-3.5-1.567-3.5-3.5 1.567-3.5 3.5-3.5zm26 0c1.933 0 3.5 1.567 3.5 3.5s-1.567 3.5-3.5 3.5-3.5-1.567-3.5-3.5 1.567-3.5 3.5-3.5zm26 0c1.933 0 3.5 1.567 3.5 3.5s-1.567 3.5-3.5 3.5-3.5-1.567-3.5-3.5 1.567-3.5 3.5-3.5zm-104-27c1.933 0 3.5 1.567 3.5 3.5S5.433 169 3.5 169 0 167.433 0 165.5s1.567-3.5 3.5-3.5zm26 0c1.933 0 3.5 1.567 3.5 3.5s-1.567 3.5-3.5 3.5-3.5-1.567-3.5-3.5 1.567-3.5 3.5-3.5zm26 0c1.933 0 3.5 1.567 3.5 3.5s-1.567 3.5-3.5 3.5-3.5-1.567-3.5-3.5 1.567-3.5 3.5-3.5zm26 0c1.933 0 3.5 1.567 3.5 3.5s-1.567 3.5-3.5 3.5-3.5-1.567-3.5-3.5 1.567-3.5 3.5-3.5zm26 0c1.933 0 3.5 1.567 3.5 3.5s-1.567 3.5-3.5 3.5-3.5-1.567-3.5-3.5 1.567-3.5 3.5-3.5zm-104-27c1.933 0 3.5 1.567 3.5 3.5S5.433 142 3.5 142 0 140.433 0 138.5s1.567-3.5 3.5-3.5zm26 0c1.933 0 3.5 1.567 3.5 3.5s-1.567 3.5-3.5 3.5-3.5-1.567-3.5-3.5 1.567-3.5 3.5-3.5zm26 0c1.933 0 3.5 1.567 3.5 3.5s-1.567 3.5-3.5 3.5-3.5-1.567-3.5-3.5 1.567-3.5 3.5-3.5zm26 0c1.933 0 3.5 1.567 3.5 3.5s-1.567 3.5-3.5 3.5-3.5-1.567-3.5-3.5 1.567-3.5 3.5-3.5zm26 0c1.933 0 3.5 1.567 3.5 3.5s-1.567 3.5-3.5 3.5-3.5-1.567-3.5-3.5 1.567-3.5 3.5-3.5zm-26-27c1.933 0 3.5 1.567 3.5 3.5s-1.567 3.5-3.5 3.5-3.5-1.567-3.5-3.5 1.567-3.5 3.5-3.5zm-78 0c1.933 0 3.5 1.567 3.5 3.5S5.433 115 3.5 115 0 113.433 0 111.5s1.567-3.5 3.5-3.5zm52 0c1.933 0 3.5 1.567 3.5 3.5s-1.567 3.5-3.5 3.5-3.5-1.567-3.5-3.5 1.567-3.5 3.5-3.5zm52 0c1.933 0 3.5 1.567 3.5 3.5s-1.567 3.5-3.5 3.5-3.5-1.567-3.5-3.5 1.567-3.5 3.5-3.5zm-78 0c1.933 0 3.5 1.567 3.5 3.5s-1.567 3.5-3.5 3.5-3.5-1.567-3.5-3.5 1.567-3.5 3.5-3.5zm52-27c1.933 0 3.5 1.567 3.5 3.5S83.433 88 81.5 88 78 86.433 78 84.5s1.567-3.5 3.5-3.5zm-78 0C5.433 81 7 82.567 7 84.5S5.433 88 3.5 88 0 86.433 0 84.5 1.567 81 3.5 81zm52 0c1.933 0 3.5 1.567 3.5 3.5S57.433 88 55.5 88 52 86.433 52 84.5s1.567-3.5 3.5-3.5zm52 0c1.933 0 3.5 1.567 3.5 3.5s-1.567 3.5-3.5 3.5-3.5-1.567-3.5-3.5 1.567-3.5 3.5-3.5zm-78 0c1.933 0 3.5 1.567 3.5 3.5S31.433 88 29.5 88 26 86.433 26 84.5s1.567-3.5 3.5-3.5zm26-27c1.933 0 3.5 1.567 3.5 3.5S57.433 61 55.5 61 52 59.433 52 57.5s1.567-3.5 3.5-3.5zm26 0c1.933 0 3.5 1.567 3.5 3.5S83.433 61 81.5 61 78 59.433 78 57.5s1.567-3.5 3.5-3.5zm26 0c1.933 0 3.5 1.567 3.5 3.5s-1.567 3.5-3.5 3.5-3.5-1.567-3.5-3.5 1.567-3.5 3.5-3.5zm-104 0C5.433 54 7 55.567 7 57.5S5.433 61 3.5 61 0 59.433 0 57.5 1.567 54 3.5 54zm26 0c1.933 0 3.5 1.567 3.5 3.5S31.433 61 29.5 61 26 59.433 26 57.5s1.567-3.5 3.5-3.5zm-26-27C5.433 27 7 28.567 7 30.5S5.433 34 3.5 34 0 32.433 0 30.5 1.567 27 3.5 27zm26 0c1.933 0 3.5 1.567 3.5 3.5S31.433 34 29.5 34 26 32.433 26 30.5s1.567-3.5 3.5-3.5zm26 0c1.933 0 3.5 1.567 3.5 3.5S57.433 34 55.5 34 52 32.433 52 30.5s1.567-3.5 3.5-3.5zm26 0c1.933 0 3.5 1.567 3.5 3.5S83.433 34 81.5 34 78 32.433 78 30.5s1.567-3.5 3.5-3.5zm26 0c1.933 0 3.5 1.567 3.5 3.5s-1.567 3.5-3.5 3.5-3.5-1.567-3.5-3.5 1.567-3.5 3.5-3.5zM3.5 0C5.433 0 7 1.567 7 3.5S5.433 7 3.5 7 0 5.433 0 3.5 1.567 0 3.5 0zm26 0C31.433 0 33 1.567 33 3.5S31.433 7 29.5 7 26 5.433 26 3.5 27.567 0 29.5 0zm26 0C57.433 0 59 1.567 59 3.5S57.433 7 55.5 7 52 5.433 52 3.5 53.567 0 55.5 0zm26 0C83.433 0 85 1.567 85 3.5S83.433 7 81.5 7 78 5.433 78 3.5 79.567 0 81.5 0zm26 0c1.933 0 3.5 1.567 3.5 3.5S109.433 7 107.5 7 104 5.433 104 3.5s1.567-3.5 3.5-3.5z"/>
</svg>
