<?xml version="1.0" encoding="UTF-8"?>
<svg width="25px" height="25px" viewBox="0 0 25 25" version="1.1" xmlns="http://www.w3.org/2000/svg" xmlns:xlink="http://www.w3.org/1999/xlink">
    <!-- Generator: Sketch 51.2 (57519) - http://www.bohemiancoding.com/sketch -->
    <title>Group 7</title>
    <desc>Created with Sketch.</desc>
    <defs></defs>
    <g id="Page-1" stroke="none" stroke-width="1" fill="none" fill-rule="evenodd">
        <g id="facilio_homepage2.0" transform="translate(-190.000000, -7174.000000)" fill="#000000" fill-rule="nonzero">
            <g id="Group-6" transform="translate(110.000000, 7174.000000)">
                <g id="Group-7" transform="translate(80.000000, 0.000000)">
                    <path d="M25,12.5 C25,5.59656863 19.4033905,0 12.5,0 C5.59656863,0 0,5.59656863 0,12.5 C0,19.4033905 5.59656863,25 12.5,25 C19.4033905,25 25,19.4033905 25,12.5 Z M1.13635621,12.5 C1.13635621,6.22385621 6.22385621,1.13635621 12.5,1.13635621 C18.7761438,1.13635621 23.8636438,6.22385621 23.8636438,12.5 C23.8636438,18.7761438 18.7761438,23.8636438 12.5,23.8636438 C6.22385621,23.8636438 1.13635621,18.7761438 1.13635621,12.5 Z" id="Shape"></path>
                    <path d="M6,18.5 L8.34375,18.5 L8.34375,9.125 L6,9.125 L6,18.5 Z M15.375,9.125 C13.368457,9.15859375 12.38125,10.6211426 12.25,10.6875 L12.25,9.125 L9.90625,9.125 L9.90625,18.5 L12.25,18.5 L12.25,13.03125 C12.25,12.8306641 12.7443848,11.2246094 14.59375,11.46875 C15.5871094,11.5335937 16.1226562,12.8473633 16.15625,13.03125 L16.15625,18.5 L18.4908203,18.5106934 L18.4908203,12.0203613 C18.4084473,11.0834473 17.9399902,9.15854492 15.375,9.125 Z M7.171875,6 C6.52490234,6 6,6.52412109 6,7.171875 C6,7.81962891 6.52490234,8.34375 7.171875,8.34375 C7.81884766,8.34375 8.34375,7.81962891 8.34375,7.171875 C8.34375,6.52412109 7.81884766,6 7.171875,6 Z" id="Shape"></path>
                </g>
            </g>
        </g>
    </g>
</svg>