<?xml version="1.0" encoding="UTF-8"?>
<svg width="32px" height="32px" viewBox="0 0 32 32" version="1.1" xmlns="http://www.w3.org/2000/svg" xmlns:xlink="http://www.w3.org/1999/xlink">
    <title>email-svgrepo-com (1)</title>
    <g id="Final" stroke="none" stroke-width="1" fill="none" fill-rule="evenodd">
        <g id="Thankyou_Page_2" transform="translate(-118.000000, -409.000000)" fill="#FF3184" fill-rule="nonzero">
            <g id="email-svgrepo-com-(1)" transform="translate(118.000000, 409.000000)">
                <path d="M15.9997333,0 C7.16342606,0 0,7.16359164 0,15.99984 C0,24.835875 7.16342606,32 15.9997333,32 C24.8360406,32 32,24.835875 32,15.99984 C32,7.16359164 24.8360406,0 15.9997333,0 Z M16.0000533,5.6198962 L25.4682645,11.5239552 L6.5318422,11.5239552 L16.0000533,5.6198962 Z M25.5862398,20.9519962 L25.5852798,20.9519962 C25.5852798,21.8989923 24.8178003,22.66636 23.8709045,22.66636 L8.12920215,22.66636 C7.1821997,22.66636 6.41482691,21.8988857 6.41482691,20.9519962 L6.41482691,11.899639 C6.41482691,11.799478 6.42506708,11.7020904 6.44170736,11.6064094 L15.4880448,17.2473191 C15.4991383,17.2542525 15.5109785,17.2589459 15.522392,17.265346 C15.5343389,17.2719594 15.5464991,17.2783595 15.5586593,17.2844395 C15.6225537,17.3173998 15.6883681,17.3439601 15.7556759,17.3613469 C15.7626094,17.363267 15.7695428,17.3641203 15.7764763,17.3657203 C15.8502908,17.3831072 15.9250654,17.3939873 15.9997333,17.3939873 L16.0002667,17.3939873 C16.0008,17.3939873 16.0013334,17.3939873 16.0013334,17.3939873 C16.0760013,17.3939873 16.1507758,17.3834272 16.2245904,17.3657203 C16.2315239,17.3640136 16.2384573,17.363267 16.2453908,17.3613469 C16.3125919,17.3439601 16.378193,17.3173998 16.4424074,17.2844395 C16.4545676,17.2783595 16.4667278,17.2719594 16.4786746,17.265346 C16.4899815,17.2589459 16.5019284,17.2542525 16.5130219,17.2473191 L25.5593593,11.6064094 C25.5759996,11.7020904 25.5862398,11.7992647 25.5862398,11.899639 L25.5862398,20.9519962 Z" id="Shape"></path>
            </g>
        </g>
    </g>
</svg>