<?xml version="1.0" encoding="UTF-8"?>
<svg width="32px" height="68px" viewBox="0 0 32 68" version="1.1" xmlns="http://www.w3.org/2000/svg" xmlns:xlink="http://www.w3.org/1999/xlink">
    <title>Group 7</title>
    <g id="Page-1" stroke="none" stroke-width="1" fill="none" fill-rule="evenodd">
        <g id="Landing-page---Dark-Copy-5" transform="translate(-968.000000, -876.000000)">
            <g id="Group-6" transform="translate(984.038260, 910.261201) scale(-1, 1) translate(-984.038260, -910.261201) translate(968.449357, 876.836792)">
                <path d="M4.0733206,47.1190172 C4.0733206,47.1190172 3.35281158,47.8363381 2.99255707,49.6886202 C1.65674609,54.9808546 7.60253958,64.1019887 16.5100715,59.3612944 C20.4282378,57.2507768 20.9638374,52.768318 20.3102784,50.2401603 C19.4781861,47.0265625 15.601465,42.244423 13.9340923,39.7194533 C10.8990278,35.0967184 12.5090147,25.9947128 13.6599163,26.4920553 C13.9468447,26.5908862 14.2529016,27.2795143 14.4186825,27.5345617 C20.195507,37.0573956 33.4324693,40.9213644 30.8469258,53.4218771 C26.2560719,72.5344948 -2.95642451,70.4367296 0.244420882,52.2390946 C0.50584451,50.1859627 1.24548209,48.4867091 2.64505493,46.9819292 C3.11051651,46.4718343 3.30180209,46.4112605 3.31455446,46.3730034 C3.79276842,45.8597204 4.56747502,46.6280509 4.0733206,47.1190172" id="Fill-2" fill="#FFFFFF"></path>
                <path d="M23.0887126,24.0240475 C23.0887126,25.8539455 21.6056812,27.3369769 19.7757832,27.3369769 L9.40164202,27.3369769 C7.56997431,27.3369769 6.0887126,25.8539455 6.0887126,24.0240475 L6.0887126,6.62939829 L14.5922521,0 L23.0887126,6.62939829 L23.0887126,24.0240475 Z" id="Fill-4" fill="#F7B500"></path>
            </g>
        </g>
    </g>
</svg>