<?xml version="1.0" encoding="UTF-8"?>
<svg width="121px" height="109px" viewBox="0 0 121 109" version="1.1" xmlns="http://www.w3.org/2000/svg" xmlns:xlink="http://www.w3.org/1999/xlink">
    <title>Group 18</title>
    <defs>
        <polygon id="path-1" points="0.731085241 0.0423511236 27.2341307 0.0423511236 27.2341307 96.0119035 0.731085241 96.0119035"></polygon>
    </defs>
    <g id="Page-1" stroke="none" stroke-width="1" fill="none" fill-rule="evenodd">
        <g id="Landing-page---Dark-Copy-5" transform="translate(-521.000000, -2643.000000)">
            <g id="Group-4" transform="translate(447.500000, 941.000000)">
                <g id="Group-18" transform="translate(74.000000, 1702.000000)">
                    <path d="M11.3849258,82.620427 C11.3409995,82.291191 11.299657,81.9587893 11.2505629,81.6295534 C10.9689177,79.6414747 10.6304267,77.6628933 10.413379,75.6653174 C9.89401495,70.8597388 9.07233446,66.114309 8.46770165,61.324559 C8.42635923,61.007986 8.47028555,60.5331264 8.19122425,60.4381545 C7.86823664,60.3305197 7.70803478,60.7895506 7.52457782,61.0554719 C6.82175677,62.052677 6.11893573,63.0467163 5.4522893,64.0819101 C4.10866083,66.1776236 2.76503236,68.2923315 2.12939273,70.8945618 C1.67204227,72.7718399 1.62553206,74.7282612 2.45238035,76.4440871 C4.3102051,80.2936152 7.23776482,82.3323455 10.7053598,83.3517107 C11.2376434,83.5099972 11.4443555,83.2757331 11.3849258,82.620427 M23.5912736,19.6540506 C23.400065,23.8581404 22.5112031,30.0218174 20.4311628,35.8879157 C19.3562601,38.9206854 18.3459548,41.9819466 16.855044,44.7741208 C14.4881908,49.2029775 12.3383852,53.8122809 9.59686634,57.9308961 C9.28163043,58.4057556 9.21186511,58.9281011 9.28679824,59.5105955 C9.94310906,64.5187809 10.3074391,69.5807837 11.0335152,74.5794719 C11.4211004,77.2291882 11.7311685,79.8947331 12.0412366,82.5571124 C12.134257,83.3548764 12.4184861,83.7695871 13.0877165,83.8107416 C16.9868229,84.0481713 20.7722377,83.5163287 24.286343,81.2559972 C25.0330903,80.7748062 25.7255758,80.1638202 26.449068,79.6319775 C26.7203776,79.4325365 27.0511169,79.1507865 27.2914197,79.6256461 C27.5162191,80.0688483 27.2087349,80.3347697 26.945177,80.5753652 C23.9866105,83.3073904 20.6378749,84.7193062 16.9584,84.9757303 C15.7284632,85.0612051 14.4959425,85.2163258 13.2582539,85.1846685 C12.5838558,85.1656742 12.4133183,85.4569213 12.52701,86.3053371 C13.0825487,90.427118 13.6665103,94.5425674 14.1987939,98.667514 C14.5760434,101.573654 14.8886954,104.492458 15.2323542,107.408096 C15.2452737,107.518896 15.2581932,107.629697 15.2607771,107.743663 C15.2762805,108.148876 15.2762805,108.604742 14.8344335,108.62098 C14.4313449,108.636399 14.4003381,108.190031 14.4003381,107.822806 C14.3951703,106.439382 14.1781226,105.093947 14.0411759,103.729517 C13.5631542,98.9112753 12.8525815,94.1405197 12.2350292,89.3507697 C12.0903307,88.242764 11.899122,87.1442556 11.8086855,86.0267528 C11.7415041,85.2163258 11.4211004,84.8427697 10.7983803,84.6876489 C9.43408059,84.34575 8.0439419,84.0861601 6.82175677,83.1744298 C5.98198898,82.5476152 5.08537537,82.0031096 4.3231246,81.2591629 C2.0234528,79.0336545 0.42918594,76.3142921 0.811603274,72.4932556 C1.04415435,70.1886039 1.90976116,68.1625365 3.05701316,66.3517388 C4.58926639,63.942618 6.06467381,61.4733483 7.73387379,59.2003539 C8.0336063,58.7919747 8.07494871,58.3044522 8.0284385,57.7821067 C7.72870599,54.1573455 7.33853695,50.5389157 7.1705834,46.9046573 C7.02588495,43.77375 6.82950848,40.6365112 6.74682365,37.5056039 C6.67189052,34.7735787 6.9044416,32.022559 7.15249609,29.2905337 C7.22742922,28.4832725 7.21967751,27.6696798 7.25843603,26.8592528 C7.28427504,26.4002219 7.32820135,25.8747107 7.82947813,25.906368 C8.27649298,25.9348596 8.3204193,26.4287135 8.328171,26.8592528 C8.42377533,31.5318708 8.59689669,36.2076545 8.12921063,40.8771067 C7.85790104,43.6154635 8.19122425,46.3664831 8.25840568,49.1080056 C8.3178354,51.3493427 8.44961434,53.587514 8.82944778,55.7908624 C8.88112579,56.1074354 8.83203168,56.5569691 9.14468369,56.6582725 C9.51159761,56.7785702 9.60978585,56.2942135 9.78290721,56.0251264 C12.6355338,51.5519494 15.082488,46.7432051 17.3072266,41.7825056 C19.7826037,36.2583062 21.3768706,30.3510534 22.2218062,24.1145646 C22.7256668,20.4138258 22.6869083,16.7384129 22.4285182,13.0503371 C22.2579808,10.5873989 21.4983139,8.29857584 20.4931765,6.18070225 C19.7515969,4.61683146 18.6611907,3.28405899 17.3692403,2.47996348 C15.942927,1.58089607 14.3228211,1.80249719 12.839662,2.52428371 C11.718249,3.07512079 10.6536818,3.80957022 9.57877904,4.49336798 C9.01807254,4.84792978 8.63048741,5.45258427 8.22481496,6.02874719 C7.4651481,7.11142697 6.70289733,8.19410674 5.93806267,9.27362079 C4.80889797,10.8659831 4.27661438,12.8065758 3.83476733,14.7819916 C2.35160821,21.4490197 1.97177478,28.3154888 1.37489367,35.1408034 C1.20952401,37.0022528 1.24311472,38.8921938 1.19660451,40.7663062 C1.1811011,41.3867893 1.15784599,42.000941 1.04415435,42.6024298 C0.976972931,42.9664888 0.809019373,43.2292444 0.475696156,43.1975871 C0.137205138,43.162764 -0.00232551081,42.8588539 0.000223197671,42.4947949 C0.0054261919,41.9376264 0.0984466244,41.3772921 0.0777754172,40.8201236 C-0.0798425379,36.2171517 0.770260859,31.7344775 1.13200699,27.1916545 C1.35422246,24.4279719 1.59452525,21.6611236 2.18107075,18.9734185 C2.80120697,16.1590843 3.49886021,13.3700758 4.39288993,10.6665421 C4.71329364,9.69782865 5.28433574,8.90639607 5.82695493,8.10863202 C6.52719207,7.0734382 7.1835029,5.97809551 7.95350537,5.02521067 C10.2816001,2.15705899 13.0076155,0.346261236 16.4312842,0.548867978 C16.9222254,0.580525281 17.4105827,0.672331461 17.8085034,1.01423034 C19.6404892,2.57493539 21.3536155,4.24644101 22.1365374,6.98796348 C23.5525151,11.9613258 23.5783541,11.9486629 23.5912736,19.6540506" id="Fill-1" fill="#FFFFFF"></path>
                    <g id="Group-5" transform="translate(29.771032, 0.472644)">
                        <mask id="mask-2" fill="white">
                            <use xlink:href="#path-1"></use>
                        </mask>
                        <g id="Clip-4"></g>
                        <path d="M1.78020661,29.0198638 C1.88614655,33.2587767 2.54504128,38.2131447 3.97910628,42.9997289 C4.325349,44.1583862 4.64316881,45.3297065 4.84471308,46.5421812 C4.91189451,46.966389 4.97132423,47.4380829 4.51914157,47.5805407 C4.038536,47.7293301 3.89383755,47.2734649 3.77497811,46.8239312 C3.42098369,45.4911587 3.07990877,44.1520548 2.70265924,42.8287795 C1.49856141,38.5867008 0.723391144,34.2148272 0.731085241,29.7416503 C0.738894549,23.9895183 1.07996947,18.2310548 2.67940413,12.7511756 C3.68454158,9.30686096 5.10310317,6.08414747 7.40535888,3.61171208 C8.15727404,2.80128511 8.74898735,1.74393118 9.68694338,1.21208848 C11.6300369,0.0977514045 13.6790703,-0.177667135 15.7849495,0.199054775 C17.0562288,0.43015309 18.2835817,0.911344101 19.4980151,1.40519803 C20.2602659,1.71860534 20.9656708,2.1839677 21.5108739,2.9564059 C22.890677,4.90016433 24.4926956,6.69829916 25.3298794,9.07576264 C26.7148503,12.9981025 27.8621023,17.0470716 26.8466293,21.4474368 C26.828542,21.5297458 26.8130386,21.6120548 26.8104547,21.6975295 C26.5830714,26.8513385 24.3583327,30.9667879 22.056077,34.9840997 C19.9372783,38.6721756 17.7564659,42.3159312 15.0614573,45.4341756 C14.547261,46.0230014 14.6712882,46.779611 14.7436374,47.4919003 C14.9064232,49.1064228 15.1027997,50.7146138 15.2991761,52.319639 C16.058843,58.5371334 17.1001551,64.6881475 18.379186,70.7695154 C19.397243,75.6289115 20.5005687,80.459816 21.8131903,85.214743 C22.7020522,88.4279593 23.5108132,91.6728329 24.7381661,94.7277626 C24.766589,94.8005744 24.795012,94.8828834 24.8105154,94.9620267 C24.8776968,95.3229199 25.1231674,95.7946138 24.6968237,95.9782261 C24.3195742,96.1460098 24.2291377,95.6489902 24.1206138,95.3229199 C22.2834603,89.8177149 20.7227841,84.1985435 19.4592566,78.4495772 C18.6298244,74.6918553 17.6401904,70.9847851 16.9477049,67.1795772 C15.8598826,61.183684 14.7074628,55.2067851 14.1415885,49.0937598 C14.1209173,48.8721587 14.0950783,48.6473919 14.0640715,48.4289565 C13.8831984,47.1373385 13.7850102,47.0771896 12.8883966,47.7293301 C12.6816845,47.8812851 12.4672207,48.0079143 12.2682604,47.7546559 C12.0512127,47.4824031 12.1183941,47.1626643 12.2863477,46.9157374 C12.5679929,46.5073581 12.8703093,46.1274705 13.1777935,45.7507486 C13.477526,45.3866896 13.5938015,44.9688132 13.5188684,44.4527992 C13.0976926,41.6068076 13.0718536,38.7069986 12.7772889,35.8420126 C12.6403421,34.5092402 12.4801403,33.1764677 12.3251062,31.8500267 C12.1494009,30.3178132 12.0718839,28.782434 12.0822195,27.2375576 C12.0925551,25.6388638 12.1261458,24.0401699 11.9736957,22.4478076 C11.9297694,21.9539537 11.9711118,21.4379396 12.0098703,20.9377542 C12.0331254,20.6433413 12.1881595,20.4059115 12.4517173,20.3805857 C12.7540337,20.3425969 12.929739,20.576861 12.9891687,20.9060969 C13.0692697,21.3682935 13.1467867,21.8399874 13.1571223,22.3148469 C13.216552,25.2083244 13.6816542,28.054316 13.7772585,30.9382963 C13.8987018,34.7213441 14.2320251,38.4822317 14.4128981,42.2621138 C14.4232337,42.4837149 14.4180659,42.7084817 14.4361532,42.9332486 C14.4568244,43.1833413 14.4645761,43.4619256 14.6893755,43.5790576 C14.9245105,43.6993553 15.069209,43.4619256 15.2268269,43.3131362 C17.206095,41.426361 18.6634151,39.0172402 20.022547,36.4624958 C21.7356733,33.242948 23.3428596,29.9505885 24.9448782,26.6487317 C25.3583024,25.7939846 25.6115246,24.8854199 25.6942095,23.8818834 C25.7923977,22.7137289 25.9500157,21.5455744 26.1567277,20.3964143 C26.4590441,18.7154115 26.4125339,17.0629003 26.0740429,15.4008919 C25.4280677,12.2351615 24.479776,9.259375 22.6400386,6.80593399 C22.2550374,6.29308567 21.9113785,5.72958567 21.5780553,5.15975421 C20.7046968,3.66869522 19.5186863,2.82027949 18.0691179,2.43722612 C17.3998876,2.25994522 16.7461606,1.99402388 16.0898498,1.74393118 C14.3224616,1.07279635 12.5964158,1.49700421 10.8781217,2.04150983 C9.58617124,2.44672331 8.83167218,3.78582725 7.89113225,4.78619803 C5.4648493,7.37259972 4.17031495,10.7884228 3.18843261,14.4701671 C1.99725429,18.9433441 1.85513974,23.546316 1.78020661,29.0198638" id="Fill-3" fill="#FFFFFF" mask="url(#mask-2)"></path>
                    </g>
                    <path d="M84.4204351,42.1339017 C84.319663,44.8944185 84.7046642,47.8385478 84.8726178,50.7985056 C85.0121484,53.2962669 85.4436599,55.7370449 85.6581237,58.2158118 C85.6813788,58.4880646 85.6581237,58.8204663 85.9475206,58.9027753 C86.1826555,58.9724213 86.3247701,58.7444888 86.4617168,58.5577107 C86.9397385,57.9119017 87.3505788,57.1996124 87.7045732,56.4461685 C88.3195416,55.1355562 88.8518252,53.7616292 89.5236394,52.4953371 C90.2936419,51.0422669 91.3530413,49.9026039 92.6837502,49.2599607 C93.8310022,48.7059579 94.7947973,49.0351938 95.4872827,50.0450618 C96.1746003,51.0391011 96.3244666,52.6821152 95.7637601,53.834441 C95.1953019,54.9930983 94.567414,56.0662809 93.4434171,56.5791292 C92.8568716,56.851382 92.350427,57.3863904 91.80264,57.7916039 C91.4408939,58.0575253 91.0429731,58.1809888 90.7716636,57.6681404 C90.4951862,57.1457949 90.6011261,56.6266152 91.0378053,56.2910478 C91.7328747,55.7528736 92.3555948,55.0944017 93.0713354,54.5783876 C93.8852641,53.9927275 94.489897,53.1601404 94.4511384,51.8716882 C94.4278833,51.1878904 94.1643254,50.8681517 93.5958672,50.8428258 C92.8904623,50.8080028 92.3917694,51.2701994 91.880157,51.7577219 C90.7096499,52.872059 90.0275001,54.4074382 89.5727335,56.053618 C89.0688729,57.896073 87.9888023,59.1022163 86.8441342,60.2703708 C86.3712803,60.7515618 85.7640636,60.9446713 85.1671825,60.5837781 C84.5832209,60.2292163 84.5935565,59.5105955 84.5677175,58.8267978 C84.4023478,54.9044579 83.8468091,51.0391011 83.433385,47.1515843 C83.1956661,44.90075 83.0819745,42.6309213 82.9527794,40.3705899 C82.7641547,37.1510421 83.3662036,34.0201348 84.1181187,30.9493764 C84.2705689,30.3162303 84.5961404,29.8002163 85.0121484,29.3918371 C85.6167813,28.793514 86.3144345,28.9454691 86.588328,29.8223764 C87.004336,31.1614803 87.0379267,32.6145506 87.2498066,34.0201348 C87.291149,34.3208792 87.1206116,34.5519775 86.8570537,34.6121264 C86.5702407,34.675441 86.3480252,34.510823 86.2575887,34.1879185 C86.1309775,33.7415506 86.0637961,33.266691 85.9475206,32.8139916 C85.8984264,32.6145506 85.8932586,32.304309 85.6529559,32.3233034 C85.4746667,32.3422978 85.441076,32.6082191 85.4049014,32.7918315 C85.0043967,34.8875449 84.4540258,36.9516011 84.423019,39.1359551 C84.4075156,40.0603483 84.4204351,40.9847416 84.4204351,42.1339017" id="Fill-6" fill="#FFFFFF"></path>
                    <path d="M59.3888951,58.7786787 C59.3294654,58.7850101 59.2700357,58.7913416 59.210606,58.797673 C59.158928,59.0635944 59.1098338,59.3326815 59.0555719,59.6017685 C58.2933212,63.3974792 58.4328518,67.1995213 58.9315447,71.0237236 C59.0762431,72.1317292 59.2932908,73.1542601 59.8539973,74.0438303 C60.0400382,74.3382433 60.1433942,74.857423 60.5413149,74.7023022 C60.8875577,74.5661758 60.8203762,74.0849848 60.799705,73.743086 C60.6550066,71.2864792 60.7351075,68.8108781 60.3190995,66.3827629 C60.1588976,65.4267124 60.0245348,64.4611646 59.9289304,63.4861197 C59.7713125,61.9127517 59.5697682,60.3457152 59.3888951,58.7786787 M57.2494252,67.3103219 C57.3140227,64.1604202 57.5336543,61.5486927 58.0142599,58.9717882 C58.2209719,57.8511197 58.350167,56.7114567 58.5362078,55.5844567 C58.6498995,54.900659 58.5517112,54.2485185 58.427684,53.5900466 C58.3191602,53.0170494 58.4483552,52.5865101 58.9367125,52.4060635 C59.3630561,52.2509427 59.5361775,51.836232 59.6860437,51.389864 C60.1408103,50.0729202 60.5904091,48.7559764 61.0477595,47.4421983 C61.1356121,47.1857742 61.2415521,46.9325157 61.3655793,46.7014174 C61.5697075,46.3120326 61.8513527,46.0461112 62.2234344,46.3278612 C62.5490059,46.5779539 62.5490059,46.9926646 62.3733007,47.3725522 C61.6136338,49.0155663 61.1692029,50.8168669 60.6059125,52.5580185 C60.0839645,54.1820382 59.9444338,55.7205831 60.4043682,57.4427404 C61.1536995,60.2412461 61.5361168,63.1220607 61.5412846,66.1105101 C61.5438685,68.5038022 62.0296419,70.8812657 62.0994072,73.2935522 C62.1226623,74.0374989 62.0890716,74.7529539 61.8074264,75.4177573 C61.3914183,76.3928022 60.6756778,76.6998781 59.9108431,76.1395438 C58.8152691,75.3354483 58.0090921,74.224277 57.724863,72.6414118 C57.7041917,72.5021197 57.670601,72.3628275 57.6731849,72.2267011 C57.7196952,70.3937433 57.306271,68.6146028 57.2494252,67.3103219" id="Fill-8" fill="#FFFFFF"></path>
                    <path d="M71.9727509,58.4415284 C72.2259732,55.1966548 72.0993621,51.8346492 72.6807398,48.561284 C72.9520494,47.0322362 73.4093998,45.5601716 73.5592661,43.9899694 C73.5980246,43.5942531 73.7530586,43.1795424 74.1638989,43.2333598 C74.6083298,43.2935087 74.6884308,43.7588711 74.6393367,44.1894104 C74.3396041,46.8834469 74.3757788,49.6376323 73.8512469,52.2778514 C73.0993317,56.0672306 73.0709088,59.8724385 73.3189633,63.7156351 C73.3318828,63.9562306 73.3086277,64.2949638 73.5592661,64.339284 C73.8279918,64.3899357 73.8641664,64.0385396 73.9210122,63.8169385 C74.6600079,60.923461 75.1922914,57.9793317 75.3628289,54.9465621 C75.3964196,54.3419076 75.2698085,53.6391154 75.9054481,53.385857 C76.5204165,53.1420958 77.0087738,53.5378121 77.3472648,54.079152 C78.3756574,55.7284975 79.3575397,57.4095003 80.3471737,59.0905031 C80.6158994,59.5463683 80.5590536,60.0180621 80.1947236,60.3536295 C79.794219,60.7176885 79.3730431,60.5783963 79.0939818,60.1415256 C78.5177719,59.2392924 77.99324,58.2864076 77.4428691,57.3556829 C77.2516605,57.0296126 77.1379688,56.450284 76.7607193,56.5452559 C76.4118927,56.6338963 76.5023292,57.2005621 76.4532351,57.5741183 C76.246523,59.1189947 76.0708178,60.6733683 75.8589379,62.2182447 C75.6573936,63.6839778 75.12511,64.9787615 74.4403763,66.1912362 C73.8848376,67.1789441 73.0864122,67.1314581 72.5903032,66.0804357 C72.3474166,65.5580902 72.2724834,64.9660986 72.2414766,64.3804385 C72.1381206,62.4240171 72.0631875,60.4675958 71.9727509,58.4415284" id="Fill-10" fill="#FFFFFF"></path>
                    <path d="M98.5636751,44.2546244 C98.5636751,41.8486694 98.5533395,39.4427143 98.566259,37.039925 C98.5817624,34.0483098 98.3337079,31.1168435 97.4629333,28.2930121 C97.2717247,27.6661975 97.1425296,27.0077256 97.0133346,26.3555851 C96.9332336,25.9440402 96.9849117,25.5324952 97.3750807,25.4027003 C97.7394107,25.2824025 97.9357872,25.6021413 98.0313915,25.9662003 C98.7367965,28.6254138 99.7083432,31.1801581 100.111432,33.9596694 C100.248379,34.9062228 100.305224,35.865439 100.145022,36.8024952 C99.5713965,40.1423407 99.4938794,43.5296722 99.5481414,46.9201694 C99.5946516,49.7756581 101.685027,52.1182986 104.256009,50.7855261 C105.739168,50.0130879 107.126723,49.0697003 108.483271,48.0218435 C108.599546,47.9332031 108.715822,47.8413969 108.834681,47.7559222 C109.139582,47.5533154 109.454817,47.4456806 109.679617,47.8762199 C109.891497,48.2782677 109.744214,48.639161 109.472905,48.9114138 C108.460016,49.9212817 107.395448,50.8361778 106.186183,51.4756553 C105.790846,51.690925 105.398093,51.9188576 105.015676,52.1689503 C102.889125,53.5587059 100.558447,52.7292846 99.2251537,50.2568492 C98.5765946,49.0538716 98.3750503,47.8192368 98.4293123,46.4389784 C98.462903,45.7140261 98.437064,44.9827424 98.437064,44.2546244 L98.5636751,44.2546244 Z" id="Fill-12" fill="#FFFFFF"></path>
                    <path d="M118.783216,53.4273281 C119.147546,53.4209966 119.400769,53.6236034 119.504125,54.050977 C119.628152,54.5479966 119.473118,54.9373815 119.113956,55.1874742 C118.300027,55.7478084 117.48093,56.3081427 116.65925,56.855814 C114.610217,58.2170781 112.558599,59.5656792 110.509566,60.9174461 C110.328693,61.0345781 110.142652,61.1517101 109.951443,61.2403506 C109.690469,61.3511511 109.439831,61.3004994 109.289965,60.9934236 C109.124595,60.648359 109.20728,60.3222888 109.457918,60.1038534 C109.809329,59.7967775 110.173659,59.5023646 110.556076,59.2554376 C113.065044,57.6409152 115.499078,55.8681062 117.860764,53.9465079 C118.144993,53.7154096 118.42147,53.4621511 118.783216,53.4273281" id="Fill-14" fill="#FFFFFF"></path>
                    <path d="M34.8795615,64.0157463 C34.5462383,63.9777576 34.3860364,63.7593222 34.3757008,63.4110919 C34.3627813,63.0248728 34.5178154,62.7526199 34.8537225,62.7462885 C35.1508711,62.7431228 35.3162408,62.986884 35.3291603,63.3351143 C35.3446637,63.7308306 35.1637906,63.9524317 34.8795615,64.0157463" id="Fill-16" fill="#FFFFFF"></path>
                </g>
            </g>
        </g>
    </g>
</svg>