<svg id="Layer_1" data-name="Layer 1" xmlns="http://www.w3.org/2000/svg" viewBox="0 0 1283 217"><defs><style>.cls-1{fill:#fff;}</style></defs><title>Artboard 1</title><path class="cls-1" d="M110.93,119.83a30.69,30.69,0,1,0,0-22.65,30.69,30.69,0,1,0,0,22.65m28.5-30.13a18.8,18.8,0,1,1-18.8,18.81,18.82,18.82,0,0,1,18.8-18.81m-57,37.61a18.8,18.8,0,1,1,18.8-18.8,18.82,18.82,0,0,1-18.8,18.8"/><path class="cls-1" d="M110.93,80.18a20,20,0,1,0-20-20,20,20,0,0,0,20,20m0-28.1a8.11,8.11,0,1,1-8.11,8.11,8.12,8.12,0,0,1,8.11-8.11"/><path class="cls-1" d="M130.92,156.82a20,20,0,1,0-20,20,20,20,0,0,0,20-20m-28.1,0a8.1,8.1,0,1,1,8.11,8.1,8.12,8.12,0,0,1-8.11-8.1"/><path class="cls-1" d="M212.86,108.5A101.93,101.93,0,1,0,110.93,210.43,102,102,0,0,0,212.86,108.5m-185.29,0a83.36,83.36,0,1,1,83.36,83.36A83.46,83.46,0,0,1,27.57,108.5"/><path class="cls-1" d="M260.38,63.4A3.69,3.69,0,0,1,264,59.78h36.61c11,0,19.91,3.2,25.33,8.63a21,21,0,0,1,6.26,15.31V84c0,13.22-8.63,19.9-16.56,23.11,11.69,3.06,22,9.74,22,23.24v.28c0,16.29-13.92,26.59-34.94,26.59H264a3.69,3.69,0,0,1-3.62-3.62Zm39.39,41.34c14.62,0,25.06-7.1,25.06-20v-.28c0-10.72-8.77-18-24.36-18H267.62v38.28Zm3.2,45.8c16.7,0,27.28-7.66,27.28-19.91v-.28c0-12-10.44-18.93-29.65-18.93h-33v39.12Z"/><path class="cls-1" d="M357.39,116.71V62.84a3.62,3.62,0,0,1,7.24,0V116c0,23,12.39,36.19,33,36.19,19.76,0,32.43-12,32.43-35.49V62.84a3.62,3.62,0,1,1,7.24,0v53c0,28-16.29,42.87-39.95,42.87C374,158.75,357.39,144,357.39,116.71Z"/><path class="cls-1" d="M463.72,62.84a3.62,3.62,0,1,1,7.24,0v91.31a3.62,3.62,0,0,1-7.24,0Z"/><path class="cls-1" d="M498.93,62.84a3.62,3.62,0,1,1,7.24,0v87.69h54.42a3.34,3.34,0,0,1,0,6.68h-58a3.69,3.69,0,0,1-3.62-3.62Z"/><path class="cls-1" d="M596.21,66.46H565a3.34,3.34,0,1,1,0-6.68h69.6a3.34,3.34,0,0,1,0,6.68H603.45v87.69a3.62,3.62,0,0,1-7.24,0Z"/><path class="cls-1" d="M651.74,64.79a4.81,4.81,0,0,1-.41-1.81,3.93,3.93,0,0,1,3.76-3.76c1.94,0,3.34,1.67,3.89,3.34l29.65,83.93L716.33,62c.56-1.53,1.53-2.78,3.48-2.78h.28A3.71,3.71,0,0,1,723.56,62l27.71,84.49L781,62.15c.7-1.81,1.82-2.92,3.48-2.92a3.89,3.89,0,0,1,3.63,3.62,6,6,0,0,1-.56,1.95L755,155.13c-.7,1.81-1.81,3.2-3.76,3.2H751c-1.95,0-3.21-1.39-3.76-3.2L719.67,73.28l-27.56,81.85c-.56,1.81-1.81,3.2-3.76,3.2h-.28c-2,0-3.06-1.25-3.76-3.2Z"/><path class="cls-1" d="M799.69,108.78v-.28c0-26.58,19.62-50.39,49.13-50.39s48.85,23.52,48.85,50.11v.28c0,26.59-19.63,50.39-49.13,50.39S799.69,135.36,799.69,108.78Zm90.47,0v-.28c0-24.08-17.54-43.84-41.62-43.84S807.2,84.14,807.2,108.22v.28c0,24.08,17.54,43.85,41.62,43.85S890.16,132.86,890.16,108.78Z"/><path class="cls-1" d="M920.34,63.4A3.69,3.69,0,0,1,924,59.78h37.31c12,0,21.57,3.76,27.42,9.6a25.69,25.69,0,0,1,7.37,18.09v.28c0,16.28-12.1,25.61-28.54,27.84l27.7,35.91a4,4,0,0,1,1.11,2.51,3.93,3.93,0,0,1-3.76,3.76,4,4,0,0,1-3.2-1.94l-29.93-39H927.58v37.31a3.62,3.62,0,0,1-7.24,0Zm40.09,46.91c16.29,0,28.39-8.21,28.39-22.27v-.28c0-13.08-10.3-21.3-28-21.3H927.58v43.85Z"/><path class="cls-1" d="M1019,62.84a3.62,3.62,0,1,1,7.24,0v87.69h54.42a3.34,3.34,0,1,1,0,6.68h-58a3.69,3.69,0,0,1-3.62-3.62Z"/><path class="cls-1" d="M1103.22,63.4a3.69,3.69,0,0,1,3.62-3.62h28.81c30.62,0,51.78,21,51.78,48.44v.28c0,27.42-21.16,48.72-51.78,48.72h-28.81a3.69,3.69,0,0,1-3.62-3.62Zm32.44,87.14c27.14,0,44.26-18.51,44.26-41.76v-.28c0-23.11-17.12-42-44.26-42h-25.2v84.07Z"/><path class="cls-1" d="M1204.68,145a3.61,3.61,0,0,1-1.39-2.78,3.68,3.68,0,0,1,3.62-3.62,4,4,0,0,1,2.36.83c9.74,8.77,19.49,12.67,32.85,12.67,14.61,0,24.64-8.21,24.64-19.35v-.28c0-10.3-5.42-16.29-27.56-20.74-23.38-4.73-32.84-12.67-32.84-27.42V84c0-14.48,13.22-25.61,31.31-25.61,13.09,0,22.14,3.34,31,10a3.77,3.77,0,0,1,1.53,2.92,3.69,3.69,0,0,1-3.62,3.62,3.77,3.77,0,0,1-2.37-.84,41.7,41.7,0,0,0-26.87-9.19c-14.33,0-23.8,8.21-23.8,18.37v.28c0,10.3,5.29,16.56,28.4,21.3,22.54,4.59,32,12.67,32,26.87V132c0,15.72-13.5,26.59-32.3,26.59C1227.09,158.61,1215.68,154,1204.68,145Z"/></svg>