<svg width="413" height="225" xmlns="http://www.w3.org/2000/svg"><g fill="none" fill-rule="evenodd" stroke-linecap="round" stroke-linejoin="round"><g stroke="#8262F6" stroke-width="2.8"><path d="M1.8 199.483c18.557 13.287 33.26 13.287 44.11 0 16.275-19.929-4.259-47.61 0-54.015 4.26-6.406 22.218-20.602 35.917 0 13.698 20.602-.664 51.272 0 54.015.663 2.744 7.802 7.929 13.06 0 6.174-50.018-.304-103.02 0-105.81.305-2.79 7.295 6.09 11.554 0 4.258-6.09-7.024-12.586 0-16.522 7.023-3.935 21.765-4.325 29.484 0 7.718 4.326-2.87 13.701 0 16.522 2.87 2.821 16.804-13.203 16.804 0 0 13.204-3.514 96.929 0 105.81 3.515 8.882 27.473 20.686 41.866 0 18.03-57.097-9.697-141.447-3.395-153.609 6.302-12.162 38.125 14.786 54.483 59.215 16.359 44.43-10.714 81.814-2.272 94.394 5.628 8.388 26.7 8.388 63.218 0"/><path d="M121.257 8.055c30.564-11.916 75.545-5.831 88.16 3.794 12.616 9.626 7.27 40.153 7.27 43.526 0 3.374-33.657-38.359-24.942 11.243 8.715 49.602 10.032 115.482 2.85 132.865-7.182 17.384-37.907 13.899-41.866 0-3.959-13.898 2.017-93.081 0-105.81-2.017-12.728 1.671-30.519-.908-38.298-1.72-5.186-18.05-7.083-48.99-5.69-8.091-19.81-1.95-33.687 18.426-41.63z"/><path d="M151.82 145.236c0-18.27-30.565-14.684-30.565-2.862s6.85 45.342 0 57.11c-6.849 11.766-31.301 11.366-39.598 0-8.297-11.367-15.194-42.33-19.088-54.248-.64-1.959-1.514-5.538-2.455-10.182-4.781-23.608-11.286-74.722 2.455-80.24 16.443-6.604 22.807-4.975 42.069-4.975M276.16 68.879c8.01 6.372 7.144 118.646 0 130.604-7.144 11.959-33.376 6.11-39.598 0-4.149-4.073-4.092-16.979.17-38.717-9.503 4.315-15.922 4.246-19.259-.21-5.004-6.681-15.07-72.483 0-91.677 15.07-19.194 50.677-6.373 58.687 0z"/></g><path d="M335.6 198.55c16.845 0 42.644 8 77.4 24" stroke="#7C5EE8" stroke-width="3.5"/></g></svg>