<?xml version="1.0" encoding="UTF-8"?>
<svg width="354px" height="367px" viewBox="0 0 354 367" version="1.1" xmlns="http://www.w3.org/2000/svg" xmlns:xlink="http://www.w3.org/1999/xlink">
    <!-- Generator: Sketch 57.1 (83088) - https://sketch.com -->
    <title>Group 7</title>
    <desc>Created with Sketch.</desc>
    <defs>
        <linearGradient x1="50%" y1="1.08741554%" x2="50%" y2="100%" id="linearGradient-1">
            <stop stop-color="#D74165" offset="0%"></stop>
            <stop stop-color="#D74165" stop-opacity="0" offset="100%"></stop>
        </linearGradient>
        <linearGradient x1="50%" y1="1.08741554%" x2="50%" y2="100%" id="linearGradient-2">
            <stop stop-color="#D74165" offset="0%"></stop>
            <stop stop-color="#D74165" stop-opacity="0" offset="100%"></stop>
        </linearGradient>
        <linearGradient x1="50%" y1="1.08741554%" x2="50%" y2="100%" id="linearGradient-3">
            <stop stop-color="#D74165" offset="0%"></stop>
            <stop stop-color="#D74165" stop-opacity="0" offset="100%"></stop>
        </linearGradient>
    </defs>
    <g id="Page-1" stroke="none" stroke-width="1" fill="none" fill-rule="evenodd">
        <g id="Futureproof_banner_form_revamp-Copy-8" transform="translate(-824.000000, -2414.000000)">
            <g id="Group-7" transform="translate(758.800014, 2359.400013)">
                <path d="M402.581592,201.041588 C390.082392,170.57599 372.595193,146.415991 350.516795,129.077592 C353.348794,125.301593 354.624794,121.247993 354.387994,116.838393 C353.523994,100.717594 332.939996,93.5159944 306.871197,84.394395 C290.414398,78.6359953 271.762399,72.1087957 262.3248,64.5223962 C255.9512,59.3975965 248.459201,56.7999966 240.056801,56.7999966 C235.999201,56.7999966 231.704802,57.4231966 227.293602,58.6527965 C204.776003,64.9271961 183.100805,86.0375949 172.184005,98.0623942 C156.937606,114.858393 143.918407,134.373592 137.498407,149.908791 C133.894408,144.450391 131.375208,138.283192 130.490408,133.629592 C129.778408,129.887192 127.364008,126.823992 124.143208,125.180793 C137.299207,112.481593 148.627207,101.491194 148.610407,88.1023947 C148.602407,81.8679951 146.011207,76.0871955 141.112807,71.3831957 C138.867207,69.2279959 135.916007,68.0407959 132.803208,68.0407959 C129.554408,68.0407959 126.400008,69.3847959 124.147208,71.7287957 C119.576008,76.4919954 119.718408,84.079195 124.460008,88.6647947 C123.017608,92.9111945 112.880809,102.694394 107.302409,108.079194 C91.85921,122.983993 72.6400112,141.532792 74.1616111,164.32479 C75.438411,183.461589 87.0112103,196.888788 104.364009,199.364788 C106.148009,199.619188 107.989609,199.747988 109.837609,199.747988 C121.989608,199.746388 134.389608,194.268788 143.965607,184.867189 C147.724807,186.071989 151.596806,186.679189 155.536006,186.679189 C161.786406,186.679189 168.060806,185.149589 174.184005,182.132789 C177.712805,180.394389 181.452005,179.291989 185.668804,178.769589 C183.598405,181.178389 181.677605,183.973589 179.893605,187.168789 C173.429605,187.382389 167.487206,188.834389 162.208806,191.494389 C151.429606,196.926388 144.173607,207.075188 141.225607,220.843987 C137.030407,240.438386 133.999208,254.595185 141.271207,265.684784 C145.233607,271.727184 151.773606,275.705584 160.705606,277.507983 C161.831206,277.735183 162.964006,277.851183 164.074406,277.850383 C172.208005,277.849583 178.424005,272.367184 182.552005,261.552784 C185.068804,254.960785 187.029604,246.246385 189.109604,236.995986 C190.806404,229.454386 192.676004,221.146387 194.970404,213.623987 C197.319204,214.395987 199.744804,215.347987 202.229603,216.472787 C202.544003,217.808787 203.036803,223.424787 195.723204,238.999986 C190.547204,250.024785 183.401605,261.989584 178.184005,270.724784 C169.456805,285.338383 165.473606,292.007983 165.567206,298.184782 C165.726406,308.492782 175.488005,312.924781 179.677605,314.350381 C184.790405,316.091181 191.251204,317.011981 198.360804,317.011981 C205.339203,317.011981 212.668003,316.135981 219.555202,314.479981 C225.066402,313.155181 231.562402,311.053581 238.264001,307.723982 C231.894402,314.767981 227.236002,322.511981 224.545602,330.61358 C222.337602,337.07598 224.608002,343.79758 230.192802,347.338379 C232.832802,349.014379 236.153601,349.863179 240.061601,349.863179 C244.108801,349.863179 248.995201,348.970379 254.652,347.200779 C253.296,348.428779 251.996,349.661579 250.760001,350.897579 C241.360001,360.302379 230.999202,375.491178 235.025602,394.443176 C237.873601,407.850376 247.200801,417.875975 254.9376,420.849575 C256.7224,421.535975 258.5312,421.884775 260.3136,421.884775 L260.3152,421.884775 C269.393599,421.884775 273.955999,413.570375 276.975999,408.069576 C282.291199,398.387176 290.322398,383.754377 315.651997,376.071978 L319.371196,374.946378 C353.199994,364.714378 391.542392,353.118379 402.051192,333.55598 C423.86479,292.942383 424.02399,253.311985 402.581592,201.041588" id="Fill-1-Copy-3" fill="url(#linearGradient-1)" opacity="0.5"></path>
                <path d="M356.076394,347.200539 L356.076394,347.200539 C382.806975,347.200539 404.476391,340.216182 404.476391,331.60054 C404.476391,326.123296 395.718566,321.305344 382.470161,318.522079" id="Path-Copy-4" stroke="#D74165" stroke-width="3.99999976" stroke-linecap="round" stroke-linejoin="round"></path>
                <path d="M232.942808,117.750842 C187.509706,100.564192 164.793156,93.2177419 164.793156,95.7114918 C164.793156,99.4521166 157.225969,96.1730075 157.225969,101.631804 C157.225969,107.0906 153.088469,102.796272 153.088469,107.0906 C153.088469,111.384928 147.124407,113.822428 147.124407,116.373991 C147.124407,118.925553 142.986907,120.175553 145.055657,123.006803 C146.434823,124.894303 171.055801,129.918261 218.91859,138.078677 L232.942808,117.750842 Z" id="Path-11-Copy-2" fill="url(#linearGradient-2)" opacity="0.5"></path>
                <path d="M318.876397,117.750842 L348.993582,89.1228356 C344.33577,106.71952 338.061812,116.262189 330.171708,117.750842 C322.281605,119.239495 318.516501,120.757628 318.876397,122.30524 L318.876397,117.750842 Z" id="Path-13-Copy-2" stroke="#D74165" stroke-width="3.99999976" stroke-linecap="round" stroke-linejoin="round"></path>
                <path d="M383.441655,200.0786 C371.902089,213.462634 339.458281,231.479434 322.237546,205.728317 C305.016812,179.977199 272.961975,186.209488 273.941441,161.599661 C274.920906,136.989834 274.073345,100.010092 234.247472,91.7472411 C194.420589,83.4843898 153.678782,92.1351162 112.34837,124.071748 C71.0189666,156.008381 52.5233646,187.138659 51.2076497,229.970582 C50.6562384,247.935493 80.0200841,278.448355 101.534435,301.415626 C133.748016,335.804675 116.548628,365.594888 124.837578,366.903392 C132.217505,368.068836 159.331668,358.334892 149.971951,323.36938 C141.223378,290.686943 105.692002,239.324541 119.306146,234.787143 C147.485468,225.393363 190.520048,275.163709 182.634846,313.487062 C179.82166,327.765043 126.05441,261.181711 153.355329,245.7706 C180.656248,230.359489 187.582342,214.831273 193.781248,256.372725 C199.981163,297.914177 246.556479,319.152013 251.40029,311.051733 C256.24309,302.952462 242.951587,213.342323 271.850867,216.160558 C300.750147,218.977784 318.06253,233.871695 310.031978,258.712269 C302.001425,283.552844 297.776041,296.316393 280.070941,290.360839 C262.36685,284.403266 333.192732,191.850175 271.612644,189.444015 C210.032556,187.037855 237.685406,139.141715 205.185329,91.9890361 C172.685251,44.8353478 257.954107,84.310296 296.571866,78.3341507 C318.016672,75.015541 333.568907,102.05872 341.977686,133.513009 M348.885194,176.454922 C349.477947,186.97447 349.13184,196.603266 347.793706,204.238286 C340.888883,243.63529 378.300655,269.445569 397.819884,240.309147 C417.339114,211.172724 371.460682,151.497444 399.145749,144.675188" id="Shape-Copy" stroke="#D74165" stroke-width="3.99999976" stroke-linecap="round" stroke-linejoin="round" transform="translate(227.009157, 217.752764) scale(-1, 1) rotate(-30.000000) translate(-227.009157, -217.752764) "></path>
                <g id="Group-4-Copy" transform="translate(343.373425, 115.004673) rotate(14.000000) translate(-343.373425, -115.004673) translate(326.873425, 97.004673)">
                    <path d="M2.39999986,31.170361 L32.5171856,2.54235452 C30.3682274,21.4804015 25.3486964,31.6937515 17.4585927,33.1824046 C9.56848901,34.6710576 4.54895806,35.5185091 2.39999986,35.7247591 L2.39999986,31.170361 Z" id="Path-13-Copy" fill="url(#linearGradient-3)" opacity="0.5"></path>
                    <path d="M0,28.6280065 L30.1171857,3.55271368e-15 C27.9682275,18.938047 22.9486965,29.151397 15.0585929,30.64005 C7.16848916,32.1287031 2.14895821,32.9761546 0,33.1824046 L0,28.6280065 Z" id="Path-13" stroke="#D74165" stroke-width="3.99999976" stroke-linecap="round" stroke-linejoin="round"></path>
                </g>
                <path d="M234.113902,112.792741 C185.632654,94.8229502 161.392031,87.0849298 161.392031,89.5786797 C161.392031,93.3193044 153.824844,90.0401954 153.824844,95.4989918 C153.824844,100.957788 149.687344,96.6634602 149.687344,100.957788 C149.687344,105.252116 143.723282,107.689616 143.723282,110.241178 C143.723282,112.792741 139.585782,114.042741 141.654532,116.873991 C143.033699,118.76149 169.419635,124.299511 220.81234,133.488052" id="Path-11-Copy-3" stroke="#D74165" stroke-width="3.99999976" stroke-linecap="round" stroke-linejoin="round"></path>
                <path d="M159.672044,97.0302417 L182.757655,104.495866" id="Path-12-Copy" stroke="#D74165" stroke-width="3.99999976" stroke-linecap="round" stroke-linejoin="round"></path>
                <path d="M164.508981,111.305444 L171.635764,113.610164 M182.091288,116.991362 L187.594592,118.771068" id="Shape-Copy-2" stroke="#D74165" stroke-width="3.99999976" stroke-linecap="round" stroke-linejoin="round" transform="translate(176.051787, 115.038256) rotate(-5.000000) translate(-176.051787, -115.038256) "></path>
                <path d="M316.476397,115.208488 L346.593582,86.5804811 C344.444624,105.518528 339.425093,115.731878 331.53499,117.220531 C323.644886,118.709184 318.625355,119.556636 316.476397,119.762886 L316.476397,115.208488 Z" id="Path-13-Copy-3" stroke="#EF5A5A" stroke-width="3.19999962" stroke-linecap="round" stroke-linejoin="round"></path>
            </g>
        </g>
    </g>
</svg>