<?xml version="1.0" encoding="UTF-8"?>
<svg width="486px" height="390px" viewBox="0 0 486 390" version="1.1" xmlns="http://www.w3.org/2000/svg" xmlns:xlink="http://www.w3.org/1999/xlink">
    <!-- Generator: Sketch 57.1 (83088) - https://sketch.com -->
    <title>Group 8</title>
    <desc>Created with Sketch.</desc>
    <defs>
        <linearGradient x1="50%" y1="1.08741554%" x2="50%" y2="100%" id="linearGradient-1">
            <stop stop-color="#D74165" offset="0%"></stop>
            <stop stop-color="#D74165" stop-opacity="0" offset="100%"></stop>
        </linearGradient>
        <linearGradient x1="50%" y1="1.08741554%" x2="50%" y2="100%" id="linearGradient-2">
            <stop stop-color="#D74165" offset="0%"></stop>
            <stop stop-color="#D74165" stop-opacity="0" offset="100%"></stop>
        </linearGradient>
    </defs>
    <g id="Page-1" stroke="none" stroke-width="1" fill="none" fill-rule="evenodd">
        <g id="Futureproof_banner_form_revamp-Copy-8" transform="translate(-128.000000, -3969.000000)">
            <g id="Group-8" transform="translate(372.000000, 4165.500000) scale(-1, 1) translate(-372.000000, -4165.500000) translate(130.000000, 3971.000000)">
                <g id="Group-2-Copy-7" transform="translate(0.000000, 93.708984)">
                    <path d="M265.710174,212.622756 C266.254564,211.193107 266.810192,209.787182 267.380803,208.407478 C271.483707,198.479848 279.674532,182.143147 289.113959,182.143147 C289.376165,182.143147 289.640869,182.155633 289.905572,182.180605 C291.096738,182.296725 292.242954,182.420337 293.342972,182.547694 C292.13932,183.71139 290.944409,184.861352 289.769475,185.992585 C277.579379,197.723195 269.449735,205.766686 265.710174,212.622756 M465.970856,83.6459765 C462.544694,80.2535265 457.010893,80.2822443 453.613448,83.707158 C453.361231,83.9618727 440.986342,96.2518563 421.821559,107.574174 C421.441985,106.369274 421.057415,105.156882 420.666603,103.929506 C401.098522,42.4234011 373.741665,31.5555745 351.761286,22.8228563 C346.509668,20.7364433 341.548975,18.7649017 337.005314,16.2414782 C321.460227,7.60490232 290.226463,17.1517087 281.023022,20.2819524 C280.021644,20.6228206 279.024011,20.972429 278.032621,21.3270318 C269.083895,17.056815 258.454551,13.6606191 246.029719,11.0822572 C178.355523,-2.95576837 124.207426,6.64098203 80.4826529,40.4281361 C31.6123939,78.1933342 2.51873253,134.465302 0.665808048,194.816451 C-0.435458392,230.675035 2.44381645,272.488199 34.7526264,277.588736 C38.9753964,278.256737 42.8972534,277.155471 45.8139863,274.492204 C52.0619877,268.788593 51.418958,258.955857 50.5287052,245.346102 C49.1052996,223.570493 49.0541069,206.567039 62.1107318,202.215663 C65.3858133,201.124386 68.7095902,200.560018 72.0108924,200.506328 C64.4493623,219.486318 65.8677734,238.622383 76.469648,254.876676 C86.7156711,270.582833 104.224809,281.059848 116.308773,278.698742 C122.250867,277.546283 126.476134,273.405921 127.601124,267.697315 C133.278515,240.104473 125.40858,212.846256 107.060382,196.559499 C104.228554,194.044816 101.243148,191.869752 98.1416226,190.043048 C118.27532,163.983488 146.529921,159.48228 166.824689,164.221971 C188.350577,169.245094 203.491118,184.224566 206.339177,203.314432 C210.121191,228.647306 213.602292,248.563747 216.686337,262.511874 C221.800609,285.630977 225.603848,293.122586 232.960608,294.579704 C233.561185,294.697072 234.201718,294.763248 234.865974,294.763248 C238.043664,294.763248 241.771988,293.269921 244.322881,289.004698 C246.393062,285.542327 247.870157,279.304314 251.012887,265.524749 C254.086944,252.049843 258.088711,234.506993 263.510139,218.712185 C263.245435,220.406537 263.297876,222.070923 263.676203,223.754037 C264.250559,226.312422 266.179648,230.928501 272.643658,233.103565 C284.864968,237.215209 298.796863,234.228555 312.942268,224.466989 C322.908605,217.590941 332.148255,207.629599 335.41085,200.244122 C339.074247,191.957154 337.19635,185.689175 334.976337,181.889681 C333.079712,178.644566 330.171719,175.868925 326.166206,173.531543 C327.655787,171.741049 329.055469,169.961792 330.335286,168.20501 C337.876838,157.851607 340.674954,148.881654 338.717147,141.416266 C338.999331,141.503668 339.284012,141.588573 339.568693,141.674727 C339.819662,141.748394 340.075625,141.812073 340.331589,141.863266 C366.287515,147.073679 379.537673,145.896248 399.914848,137.106094 C417.557586,198.394943 426.3827,220.578844 390.616513,236.774453 C385.952987,238.673576 379.314173,237.873222 376.632177,235.068863 C375.140099,233.508112 375.160076,230.874811 376.690862,227.237635 C378.190432,226.40357 381.496728,225.997774 382.828986,226.508452 C384.925388,230.597622 389.874844,232.385619 394.13632,230.506474 C398.551375,228.55491 400.547889,223.393192 398.596325,218.978137 C395.884362,212.846256 389.867352,209.147898 382.08482,208.828256 C374.855417,208.542327 365.334832,211.382895 361.552818,218.336356 C361.471659,218.483691 361.396743,218.632274 361.325573,218.785852 C356.193821,229.667414 357.16773,240.005833 363.998828,247.149082 C371.667738,255.170097 386.052875,257.627345 397.4576,252.862682 C397.532516,252.830218 397.607432,252.797755 397.6811,252.764043 C424.251338,240.777469 437.852353,221.783744 439.263272,194.700331 C440.248419,175.76654 435.706007,153.90228 427.120624,124.862309 C449.985013,112.026686 464.847115,97.208285 466.044524,95.9971416 C469.434477,92.5647364 469.399516,87.0396751 465.970856,83.6459765" id="Fill-1" fill="url(#linearGradient-1)" opacity="0.5"></path>
                    <path d="M483.494634,77.2064458 C483.494634,77.2064458 427.605777,133.800872 364.436563,121.11957 C345.151442,115.406863 327.468051,100.924405 328.692383,70.1621198 C329.916714,39.3998345 315.357263,16.5578406 265.574918,6.22927579 C215.791312,-4.09928898 157.085229,-5.68713383 105.42221,34.2336588 C53.7604532,74.1544515 29.8089874,130.043309 28.1643436,183.583216 C26.5209621,237.124385 37.322851,255.4414 55.169066,258.258626 C73.0165432,261.077113 43.4281019,194.150336 78.6522565,182.410634 C113.876411,170.668408 148.853175,207.301175 138.996672,255.205369 C135.480189,273.052846 68.0851363,234.540666 108.005929,177.008428 C147.926722,119.476189 228.237845,138.671693 235.986477,190.598511 C243.736372,242.52533 252.006292,284.117272 258.061055,273.991921 C264.114555,263.867833 276.455064,158.223137 312.579165,161.745931 C348.703267,165.267463 354.104211,175.130277 349.642342,185.22786 C345.180473,195.325442 319.22085,221.0869 297.089474,213.642457 C274.959359,206.19549 370.307045,149.06463 349.878373,126.990052 C329.447177,104.916737 282.951596,162.448976 242.326497,103.508124 C201.701398,44.5660102 329.683208,-3.57295248 355.043286,10.5156996 C380.404627,24.6056139 412.323086,21.3087532 435.488202,94.1148478 C458.652057,166.91968 467.52657,211.058738 417.038657,233.83636 C404.054428,239.263811 382.049271,232.225796 391.910823,211.309915 C394.786109,206.025093 409.994331,203.342923 413.515863,211.309915" id="Stroke-1" stroke="#D74165" stroke-width="3.99999976" stroke-linecap="round" stroke-linejoin="round"></path>
                </g>
                <path d="M142.488281,104.941406 C135.266276,98.5104167 133.357422,93.1627604 136.761719,88.8984375 C141.868164,82.5019531 183.625,74.9619141 190.104492,78.5126953 C196.583984,82.0634766 192.689453,84.5664062 192.689453,93.7089844" id="Path-17" stroke="#D74165" stroke-width="3.99999976" stroke-linecap="round" stroke-linejoin="round"></path>
                <path d="M134.57284,107.3788 C127.350835,100.94781 125.441981,95.6001538 128.846278,91.3358309 C133.952723,84.9393465 175.709559,77.3993075 182.189051,80.9500887 C188.668543,84.50087 184.774012,87.0037997 184.774012,96.1463778" id="Path-17-Copy" fill="url(#linearGradient-2)" opacity="0.5"></path>
                <path d="M160.597656,80.2421875 C147.902344,59.0690104 152.413411,42.4856771 174.130859,30.4921875" id="Path-20" stroke="#D74165" stroke-width="3.99999976" stroke-linecap="round" stroke-linejoin="round"></path>
                <path d="M158.878906,0 L163.851659,10.3828125" id="Path-21" stroke="#D74165" stroke-width="3.99999976" stroke-linecap="round" stroke-linejoin="round"></path>
                <path d="M153.572459,26.1367188 L139.738281,26.1367188" id="Path-22" stroke="#D74165" stroke-width="3.99999976" stroke-linecap="round" stroke-linejoin="round"></path>
                <path d="M185.023438,45.9648438 L188.957031,59.1894531" id="Path-23" stroke="#D74165" stroke-width="3.99999976" stroke-linecap="round" stroke-linejoin="round"></path>
                <path d="M205.402344,30.4921875 L221.626953,33.1660156" id="Path-24" stroke="#D74165" stroke-width="3.99999976" stroke-linecap="round" stroke-linejoin="round"></path>
                <path d="M188.957031,14.9003906 L198.496094,5.19140625" id="Path-25" stroke="#D74165" stroke-width="3.99999976" stroke-linecap="round" stroke-linejoin="round"></path>
            </g>
        </g>
    </g>
</svg>