<?xml version="1.0" encoding="UTF-8"?>
<svg width="402px" height="347px" viewBox="0 0 402 347" version="1.1" xmlns="http://www.w3.org/2000/svg" xmlns:xlink="http://www.w3.org/1999/xlink">
    <!-- Generator: Sketch 57.1 (83088) - https://sketch.com -->
    <title>Group 11</title>
    <desc>Created with Sketch.</desc>
    <defs>
        <linearGradient x1="50%" y1="1.08741554%" x2="50%" y2="100%" id="linearGradient-1">
            <stop stop-color="#D74165" offset="0%"></stop>
            <stop stop-color="#D74165" stop-opacity="0" offset="100%"></stop>
        </linearGradient>
    </defs>
    <g id="Page-1" stroke="none" stroke-width="1" fill="none" fill-rule="evenodd">
        <g id="Futureproof_banner_form_revamp-Copy-8" transform="translate(-846.000000, -3474.000000)">
            <g id="Group-11" transform="translate(848.767491, 3476.218560)">
                <g id="Group-13" transform="translate(81.232509, 30.781440)">
                    <g id="Group-4" transform="translate(0.499624, 0.399889)">
                        <path d="M137.411107,17.0120545 C146.030107,30.7387552 220.501911,25.5101549 220.374674,119.61196 C220.252311,211.241165 189.064009,282.301769 180.469709,286.600869 C171.875408,290.89867 147.932007,287.828069 143.634207,276.776769 C139.336407,265.726768 95.8475042,202.493465 118.926405,170.839763 C148.528707,130.238161 109.129605,269.409668 86.4134037,285.985969 C86.4134037,285.985969 69.9632028,305.63287 44.7913014,284.143869 C19.6207,262.657468 -11.6027017,127.990461 9.79789948,80.934358 C30.7526006,34.8597555 71.6376029,23.2923548 85.1433036,20.8353547 C98.6503044,18.3809545 109.836805,-0.599046495 116.589005,0.014553539 C123.342506,0.628153573 125.938606,-1.26074653 137.411107,17.0120545 Z" id="Stroke-1" stroke="#D74165" stroke-width="3.99999976" stroke-linecap="round" stroke-linejoin="round"></path>
                        <path d="M209.665254,39.4470111 C205.130564,30.6160612 194.666764,20.0901112 170.566124,20.0901112 C162.973654,20.0901112 155.791374,21.1557012 150.743664,22.1501012 C144.174974,13.8152213 138.387114,10.7472713 129.625094,10.2545913 C129.246544,10.2331213 128.851044,10.2127813 128.418254,10.1721013 C127.889414,10.1246413 125.362834,8.10091127 124.837384,8.10091127 C116.643755,8.10091127 109.884145,13.5192612 104.306465,18.7658512 C102.735765,20.2438912 101.046415,21.8338012 99.4067846,23.1977112 C94.1658446,21.8066812 88.5789746,21.9760812 79.6824847,21.9760812 C59.9492948,21.9760812 44.1929105,24.6291937 39.8910005,32.0171336 C37.3372005,36.4026636 36.4532049,49.3864911 34.2723049,49.3864911 C31.2122649,49.3864911 28.2968649,50.3537711 25.8413749,52.1809811 C20.9111849,55.8500911 1.545345,109.041451 4.59408499,111.832551 C4.17033499,114.736651 3.32057499,117.778611 2.434655,120.951651 C-0.254744991,130.588291 -2.32048497,145.149471 9.36710498,158.145601 C11.857625,160.916361 10.976375,166.059971 12.9041549,167.732371 C13.9855649,177.159961 16.5178449,183.963841 18.4750049,193.94739 C20.7564749,205.59204 35.1729149,264.5577 55.5547248,281.95744 C64.9766647,289.99965 74.8031447,294.07782 84.7618347,294.07782 C85.7697947,294.07782 86.7777547,294.03601 87.7529446,293.95352 C99.6891346,292.95347 107.555065,286.22319 110.485155,283.2479 C116.439125,278.29285 122.660904,268.62344 129.078174,254.37979 C130.765264,257.54379 132.347264,260.40721 133.710044,262.87513 C135.214074,265.59843 137.086484,268.98843 137.477464,269.93085 C139.372474,274.80115 143.922984,281.49075 154.847824,285.70452 C160.535114,287.89898 167.186294,289.10695 173.575314,289.10695 C177.752924,289.10695 183.816504,288.56568 188.980604,285.9825 C196.547084,282.19813 204.497764,268.27992 212.612294,244.61998 C220.439804,221.80076 240.019907,142.096205 234.443735,96.64308 C229.471079,62.6665175 212.295894,44.5704311 209.665254,39.4470111 Z" id="Fill-1" fill="url(#linearGradient-1)" opacity="0.5"></path>
                        <path d="M98.8484244,85.2785682 C98.8484244,85.2785682 121.165526,174.481973 174.716429,173.707173 C174.716429,173.707173 191.378529,172.963573 194.35293,168.715173 C197.32733,164.465473 187.979029,169.564073 173.530828,166.165873 C159.082628,162.765072 111.522125,132.169571 142.085127,87.5509684" id="Stroke-3" stroke="#D74165" stroke-width="3.99999976" stroke-linecap="round" stroke-linejoin="round"></path>
                        <path d="M136.873911,14.9643691 C136.873911,14.9643691 180.898709,9.11274449 197.08059,24.9311349 C213.262471,40.7495253 202.730844,55.3120253 202.730844,55.3120253" id="Stroke-5" stroke="#D74165" stroke-width="3.99999976" stroke-linecap="round" stroke-linejoin="round"></path>
                        <path d="M90.1160982,18.9091933 C86.4368303,17.3838835 48.0179536,8.84522845 36.3368013,19.649916 C24.655649,30.4546035 28.7576997,41.6606581 31.1761568,49.7690566" id="Stroke-7" stroke="#D74165" stroke-width="3.99999976" stroke-linecap="round" stroke-linejoin="round"></path>
                    </g>
                </g>
                <path d="M297.597743,295.78144 L333.232509,295.78144 C405.498288,315.051414 416.164954,327.949237 365.232509,334.474909 C288.833841,344.263417 106.904977,344.170373 31.2325091,334.474909 C-19.2158027,328.011266 -8.54913599,315.113443 63.2325091,295.78144 L95.0352435,295.78144" id="Path" stroke="#D74165" stroke-width="4.15999973" opacity="0.4" stroke-linecap="round" stroke-linejoin="round"></path>
                <path d="M299.347259,-5.68434189e-14 L320.738793,-5.68434189e-14 C353.818171,121.083974 351.46523,201.290265 313.679972,240.618874 C257.002084,299.611787 149.133862,302.623562 89.5623887,240.618874 C49.848073,199.282415 47.4951325,119.076124 82.5035672,-5.68434189e-14 L99.4427817,-5.68434189e-14" id="Path" stroke="#D74165" stroke-width="4.15999973" opacity="0.4" stroke-linecap="round" stroke-linejoin="round" transform="translate(200.900809, 143.000000) scale(1, -1) translate(-200.900809, -143.000000) "></path>
            </g>
        </g>
    </g>
</svg>