<?xml version="1.0" encoding="UTF-8"?>
<svg width="480px" height="340px" viewBox="0 0 480 340" version="1.1" xmlns="http://www.w3.org/2000/svg" xmlns:xlink="http://www.w3.org/1999/xlink">
    <!-- Generator: Sketch 57.1 (83088) - https://sketch.com -->
    <title>Group 9</title>
    <desc>Created with Sketch.</desc>
    <defs>
        <linearGradient x1="50%" y1="1.08741554%" x2="50%" y2="100%" id="linearGradient-1">
            <stop stop-color="#D74165" offset="0%"></stop>
            <stop stop-color="#D74165" stop-opacity="0" offset="100%"></stop>
        </linearGradient>
    </defs>
    <g id="Page-1" stroke="none" stroke-width="1" fill="none" fill-rule="evenodd">
        <g id="Futureproof_banner_form_revamp-Copy-8" transform="translate(-157.000000, -2965.000000)">
            <g id="Group-9" transform="translate(159.100009, 2966.600006)">
                <g id="Group-15" stroke="#D74165" stroke-linecap="round" stroke-linejoin="round" stroke-width="3.99999976">
                    <path d="M129.113858,172.763988 C135.925382,170 145.217141,169.829452 148.118741,182.889252 C151.021641,195.950351 124.585538,219.2164 109.728056,189.480873 C74.1743573,122.728476 109.001356,58.5737646 139.475955,24.0493793 C169.950554,-10.4750061 215.662452,3.2437439 215.662452,3.2437439 C215.662452,3.2437439 278.06245,10.9895797 289.671449,45.8165785 C301.280449,80.6448772 280.96405,140.141975 234.528051,143.044875 C188.090753,145.946475 215.662452,103.695176 215.662452,103.695176 C215.662452,103.695176 169.986954,111.118176 195.001553,164.812074 C220.016152,218.504672 231.625152,256.234571 215.662452,273.64937 C199.699753,291.062869 161.887954,287.07187 165.959554,263.85257 C170.032454,240.634571 200.262653,209.797272 182.567053,192.383773 C164.872754,174.968974 162.695254,128.168975 169.950554,115.109176 C177.207154,102.049376 130.420155,154.291174 69.0952575,129.621075" id="Stroke-1"></path>
                    <path d="M291.898349,54.9365981 C291.898349,54.9365981 359.881847,93.4074967 358.761247,150.607495 C358.185347,179.987494 333.296848,190.460293 344.180447,210.049992 C355.064047,229.642292 359.689447,242.354991 379.280446,232.424292 C398.871445,222.496192 415.196845,242.085891 394.517746,256.235091 C373.838646,270.38429 367.109847,266.03059 340.543048,256.235091 C313.978848,246.439591 285.68045,244.263391 276.97435,249.703891 C268.26695,255.146991 235.616151,246.439591 268.26695,182.226093 C300.917749,118.012596 267.17885,251.881391 258.471451,259.499391 C249.765351,267.11869 278.06245,264.14689 272.62065,281.66959 C267.17885,299.193589 194.257953,288.88589 198.611653,268.20679 C202.965353,247.527691 229.086252,221.406792 229.086252,203.993293 C229.086252,186.579793 214.591252,174.072494 218.202652,158.281394" id="Stroke-3"></path>
                    <path d="M169.603064,192.383643 C161.344164,204.313743 158.590764,213.114742 158.590764,218.771042 C158.590764,224.426042 143.220865,238.191741 127.619565,228.097242 C112.019566,218.002742 98.2538664,204.313743 89.9949667,220.832842 C81.734767,237.350641 89.9949667,271.30404 108.348366,270.38754 C126.701765,269.46974 138.395265,252.339641 157.903064,254.786241 C177.412163,257.234141 190.782663,253.868441 190.782663,253.868441" id="Stroke-5"></path>
                    <path d="M372.381476,265.27503 C372.381476,265.27503 392.246776,286.13223 416.418975,284.42533 C440.592474,282.71843 475.419473,300.131929 475.419473,300.131929" id="Stroke-7"></path>
                    <path d="M271.94257,282.70309 C271.94257,282.70309 286.424569,314.406189 304.044769,311.811389 C321.664968,309.217889 347.052667,335.685888 347.052667,335.685888" id="Stroke-9"></path>
                    <path d="M126.480245,306.186939 C126.480245,306.186939 156.966544,312.647939 162.685244,299.719439 C168.405244,286.79224 199.666343,283.41874 199.666343,283.41874" id="Stroke-11"></path>
                    <path d="M0.318109988,267.39048 C0.318109988,267.39048 25.4445091,281.47338 48.0424082,272.72568 C70.6403074,263.97538 109.052706,270.36228 109.052706,270.36228" id="Stroke-13"></path>
                </g>
                <path d="M364.38771,210.694235 C359.21864,210.694235 353.987632,211.961238 349.261904,214.357244 C347.926443,215.034211 347.009332,215.400403 346.431248,215.598169 C344.666571,213.502071 341.707693,208.070038 340.18968,205.282847 C339.469248,203.959339 338.721651,202.588019 337.936021,201.175408 C337.026517,199.537866 336.752688,199.043452 341.332808,191.021993 C345.641273,183.477562 351.540554,173.147028 351.830683,158.350468 C352.288152,135.005437 341.36432,111.557177 320.237089,90.5418684 C310.190163,80.5471005 300.306231,73.4568787 294.400429,69.5971901 C294.090742,68.4486285 293.758235,67.3120198 293.386609,66.1982301 C282.262839,32.8290926 241.493803,23.2111802 224.437101,17.5132751 C207.380398,11.8153701 171.655851,13.7730408 143.766086,44.6048373 C118.917479,72.0746703 110.909835,103.210818 107.171848,130.020006 C105.16594,129.428883 103.171985,128.73453 101.198676,127.941295 C99.5785194,127.28932 97.8725196,126.958986 96.1295747,126.958986 C90.5508469,126.958986 85.602361,130.304702 83.5279957,135.472686 C80.7331987,142.419473 84.1104262,150.345309 91.0604736,153.143366 C96.105669,155.174266 101.250834,156.745524 106.439464,157.846275 C107.749932,171.738763 111.670472,184.882567 118.138058,197.025591 L118.182609,197.106001 C117.684936,197.195104 117.190522,197.298333 116.703714,197.422209 C112.201831,198.57077 105.900498,201.807823 101.449686,210.708361 C94.7017507,224.200971 96.299088,244.615377 105.16594,258.192744 C110.814212,266.842272 119.2638,271.802711 128.346891,271.802711 C128.761981,271.802711 129.180331,271.791844 129.619327,271.770112 C139.661907,271.267005 147.607302,266.973753 154.014037,263.511769 C157.590117,261.579752 160.637011,259.950902 163.511131,259.128328 C164.677079,267.903903 170.08738,275.389656 178.780372,279.673128 C183.854906,282.174537 189.947607,283.494785 196.401067,283.494785 L196.402154,283.494785 C201.027913,283.493699 205.524363,282.839551 209.753504,281.605146 C213.141597,283.109034 216.938262,284.427109 221.173922,285.527859 C228.88026,287.530507 237.835129,288.680155 245.742492,288.680155 C256.272965,288.680155 274.623872,286.466702 279.221378,271.663623 C281.400059,264.646205 280.623123,257.998239 277.063343,252.566205 C277.850059,252.379306 279.6908,252.059838 283.082153,252.059838 C285.071762,252.059838 287.255876,252.171761 289.576905,252.391259 C298.692594,253.255125 308.902514,255.644611 318.326804,259.119635 C320.017591,259.743357 321.610582,260.339914 323.120989,260.904958 C333.421099,264.76356 340.863387,267.550751 349.124989,267.550751 C357.618043,267.550751 365.59821,264.570141 375.808129,257.585322 C384.410931,251.699079 387.68167,245.040247 388.910642,240.490552 C390.56557,234.363079 389.735389,228.046534 386.573313,222.70469 C382.054044,215.072243 373.968475,210.694235 364.38771,210.694235 Z" id="Fill-1" fill="url(#linearGradient-1)" opacity="0.5"></path>
            </g>
        </g>
    </g>
</svg>