<svg xmlns="http://www.w3.org/2000/svg" width="135" height="90" viewBox="0 0 135 90">
    <g fill="none">
        <path fill="#FF3184" d="M17.392 24.555c-1.505 1.45-1.505 3.8 0 5.25 1.506 1.449 3.947 1.449 5.452 0l11.63-11.197c1.506-1.45 1.506-3.8 0-5.249-1.505-1.45-3.946-1.45-5.452 0l-11.63 11.196z"/>
        <path fill="#FFCE0F" d="M16.742 6.386c-1.518-1.46-1.518-3.83 0-5.29 1.517-1.461 3.978-1.461 5.495 0l5.635 5.424c1.517 1.461 1.517 3.83 0 5.291-1.518 1.46-3.978 1.46-5.495 0l-5.635-5.425z"/>
        <path fill="#39B2C2" d="M17.454 19.254c2.134 0 3.864-1.658 3.864-3.703s-1.73-3.702-3.864-3.702H3.864C1.73 11.849 0 13.506 0 15.55s1.73 3.703 3.864 3.703h13.59z"/>
        <path fill="#FFF" d="M15.06 45.11H6.75v4.392h7.531c1.433 0 2.595 1.124 2.595 2.51 0 1.386-1.162 2.51-2.595 2.51h-7.53v4.297c0 1.802-1.512 3.264-3.376 3.264C1.511 62.083 0 60.62 0 58.819V42.272c0-1.205 1.01-2.181 2.255-2.181H15.06c1.433 0 2.595 1.124 2.595 2.51 0 1.386-1.162 2.51-2.595 2.51zm26.51-1.755v9.442c0 5.835-4.121 9.568-10.612 9.568-6.523 0-10.775-3.733-10.775-9.568v-9.442c0-1.803 1.511-3.264 3.375-3.264 1.865 0 3.376 1.461 3.376 3.264v9.442c0 2.54 1.785 4.11 4.057 4.11 2.239 0 3.83-1.538 3.83-4.11v-9.442c0-1.803 1.51-3.264 3.374-3.264 1.865 0 3.376 1.461 3.376 3.264zM61.075 45.3h-3.929v13.504c0 1.811-1.518 3.28-3.391 3.28s-3.392-1.469-3.392-3.28V45.299h-3.895c-1.487 0-2.693-1.166-2.693-2.604 0-1.438 1.206-2.604 2.693-2.604h14.607c1.487 0 2.692 1.166 2.692 2.604 0 1.438-1.205 2.604-2.692 2.604zm26.283-1.944v9.442c0 5.835-4.122 9.568-10.613 9.568-6.523 0-10.775-3.733-10.775-9.568v-9.442c0-1.803 1.512-3.264 3.376-3.264 1.864 0 3.375 1.461 3.375 3.264v9.442c0 2.54 1.785 4.11 4.057 4.11 2.24 0 3.83-1.538 3.83-4.11v-9.442c0-1.803 1.51-3.264 3.375-3.264 1.864 0 3.375 1.461 3.375 3.264zm43.905 1.755h-9.25v3.451h8.147c1.433 0 2.595 1.124 2.595 2.51 0 1.386-1.162 2.51-2.595 2.51h-8.148v3.482h9.576c1.433 0 2.595 1.124 2.595 2.51 0 1.386-1.162 2.51-2.595 2.51h-14.071c-1.246 0-2.255-.977-2.255-2.181v-17.63c0-1.205 1.01-2.181 2.255-2.181h13.746c1.433 0 2.595 1.124 2.595 2.51 0 1.386-1.162 2.51-2.595 2.51zM2.255 67.541h8.066c5.874 0 9.25 2.824 9.25 7.812 0 5.24-3.376 8.25-9.25 8.25H6.75v2.666c0 1.803-1.512 3.264-3.376 3.264C1.511 89.533 0 88.072 0 86.27V69.722c0-1.204 1.01-2.18 2.255-2.18zm4.496 5.02v6.023h3.245c2.012 0 3.18-1.066 3.18-3.043 0-1.913-1.168-2.98-3.18-2.98H6.751zm50.946-5.208c7.14 0 12.398 4.737 12.398 11.169 0 6.462-5.258 11.293-12.398 11.293S45.3 85.015 45.3 78.522c0-6.463 5.258-11.169 12.398-11.169zm.097 5.459c-3.018 0-5.582 2.416-5.582 5.74 0 3.326 2.597 5.805 5.582 5.805 2.986 0 5.388-2.479 5.388-5.804s-2.402-5.741-5.388-5.741zm26.188-5.459c7.14 0 12.397 4.737 12.397 11.169 0 6.462-5.257 11.293-12.397 11.293-7.14 0-12.398-4.8-12.398-11.293 0-6.463 5.258-11.169 12.398-11.169zm.097 5.459c-3.018 0-5.582 2.416-5.582 5.74 0 3.326 2.596 5.805 5.582 5.805 2.986 0 5.388-2.479 5.388-5.804s-2.402-5.741-5.388-5.741zm30.343-.251h-8.31v4.392h7.53c1.434 0 2.596 1.124 2.596 2.51 0 1.386-1.162 2.51-2.595 2.51h-7.53v4.296c0 1.803-1.512 3.264-3.376 3.264-1.864 0-3.375-1.461-3.375-3.264V69.722c0-1.204 1.01-2.18 2.255-2.18h12.805c1.433 0 2.595 1.123 2.595 2.51 0 1.385-1.162 2.509-2.595 2.509zM103.014 40.09h.627c4.215 0 7.632 3.7 7.632 8.262 0 2.889-1.37 5.431-3.445 6.908l1.975 2.138c1.184 1.281 1.184 3.36 0 4.64-1.184 1.282-3.103 1.282-4.287 0l-4.436-4.8c-.177-.192-.328-.402-.452-.625h-1.982v3.056c0 1.812-1.357 3.281-3.032 3.281-1.674 0-3.031-1.469-3.031-3.281v-4.753c0-.266.029-.524.084-.771l-.003-.135c0-1.437 1.076-2.603 2.404-2.603h8.573c1.559 0 2.823-1.368 2.823-3.055s-1.264-3.055-2.823-3.055h-8.782c-1.328 0-2.404-1.166-2.404-2.603 0-1.438 1.076-2.603 2.404-2.603h8.782c4.215 0 7.632 3.699 7.632 8.261 0 4.562-3.417 8.261-7.632 8.261h-3.346v-5.206h3.346c1.559 0 2.823-1.368 2.823-3.055s-1.264-3.055-2.823-3.055h-3.346V40.09h2.719zM33.468 67.09h.627c4.215 0 7.632 3.7 7.632 8.262 0 2.889-1.37 5.431-3.444 6.908l1.975 2.138c1.184 1.281 1.184 3.36 0 4.64-1.184 1.282-3.104 1.282-4.288 0l-4.435-4.8c-.178-.192-.329-.402-.453-.625h-1.981v3.056c0 1.812-1.358 3.281-3.032 3.281s-3.032-1.469-3.032-3.281v-4.753c0-.266.03-.524.084-.771l-.003-.135c0-1.437 1.077-2.603 2.405-2.603h8.572c1.56 0 2.823-1.368 2.823-3.055s-1.264-3.055-2.823-3.055h-8.781c-1.328 0-2.405-1.166-2.405-2.603 0-1.438 1.077-2.603 2.405-2.603h8.781c4.215 0 7.632 3.699 7.632 8.261 0 4.562-3.417 8.261-7.632 8.261H30.75v-5.206h3.345c1.56 0 2.823-1.368 2.823-3.055s-1.264-3.055-2.823-3.055H30.75V67.09h2.718z"/>
    </g>
</svg>
