<svg xmlns="http://www.w3.org/2000/svg" width="66" height="66" viewBox="0 0 66 66">
    <g fill="none" fill-rule="evenodd">
        <circle cx="33" cy="33" r="33" fill="#FFDC55"/>
        <path stroke="#000" stroke-width="2.4" d="M45.6 16.8H19.2v33.6h26.4c.663 0 1.263-.269 1.697-.703.434-.434.703-1.034.703-1.697V19.2c0-.663-.269-1.263-.703-1.697-.434-.434-1.034-.703-1.697-.703z"/>
        <path stroke="#000" stroke-width="2.4" d="M26.4 18v10.576c0 .052.042.094.094.094.024 0 .048-.01.066-.027l3.318-3.276h0l3.565 3.288c.038.035.097.033.132-.005.016-.018.025-.04.025-.064V18h0"/>
    </g>
</svg>
