<svg xmlns="http://www.w3.org/2000/svg" width="66" height="66" viewBox="0 0 66 66">
    <g fill="none" fill-rule="evenodd">
        <circle cx="33" cy="33" r="33" fill="#A0E2EB"/>
        <path stroke="#000" stroke-width="2.4" d="M39.93 39.618c2.004-1.76 3.27-4.34 3.27-7.218 0-5.302-4.298-9.6-9.6-9.6S24 27.098 24 32.4c0 2.887 1.275 5.477 3.292 7.237 2.145 2.092 3.217 4.368 3.217 6.827l6.232.004c.09-2.49 1.042-4.655 2.855-6.492 1.814-1.836 1.925-1.956.333-.358z"/>
        <path stroke="#000" stroke-linecap="round" stroke-width="2.4" d="M29.936 51L37.202 51M33.6 18.732L33.6 14.4"/>
        <path stroke="#000" stroke-linecap="round" stroke-width="2.4" d="M46.918 25.146L46.918 20.813" transform="rotate(51 46.918 22.98)"/>
        <path stroke="#000" stroke-linecap="round" stroke-width="2.4" d="M50.207 39.556L50.207 35.224" transform="rotate(103 50.207 37.39)"/>
        <path stroke="#000" stroke-linecap="round" stroke-width="2.4" d="M16.993 39.556L16.993 35.224" transform="rotate(-103 16.993 37.39)"/>
        <path stroke="#000" stroke-linecap="round" stroke-width="2.4" d="M20.282 25.146L20.282 20.813" transform="rotate(-51 20.282 22.98)"/>
        <path stroke="#000" stroke-linecap="round" stroke-width="2.4" d="M31.136 55.2L36.002 55.2"/>
    </g>
</svg>
