<svg xmlns="http://www.w3.org/2000/svg" width="35" height="35" viewBox="0 0 35 35">
    <path fill="#342863" fill-rule="evenodd" d="M27.488 21.643c-.048 1.07-.218 1.8-.467 2.44-.522 1.35-1.589 2.416-2.939 2.938-.639.249-1.37.418-2.439.467-1.071.05-1.414.06-4.143.06s-3.071-.01-4.143-.06c-1.07-.049-1.8-.218-2.439-.467-.67-.252-1.278-.648-1.78-1.159-.511-.502-.907-1.11-1.159-1.78-.248-.639-.418-1.37-.467-2.439-.05-1.072-.06-1.414-.06-4.143s.01-3.071.06-4.143c.048-1.07.218-1.8.467-2.44.252-.67.648-1.277 1.159-1.779.502-.511 1.11-.907 1.78-1.16.639-.248 1.37-.417 2.439-.466 1.072-.05 1.414-.06 4.143-.06 2.73 0 3.071.01 4.143.06 1.07.049 1.8.218 2.44.467.67.252 1.277.648 1.78 1.159.51.502.906 1.11 1.158 1.78.249.639.419 1.37.467 2.44.05 1.07.06 1.413.06 4.142s-.01 3.071-.06 4.143M17.5 0C7.836 0 0 7.836 0 17.5S7.836 35 17.5 35 35 27.164 35 17.5 27.164 0 17.5 0m5.364 13.342c-.666 0-1.206-.54-1.206-1.206 0-.666.54-1.206 1.206-1.206.666 0 1.206.54 1.206 1.206 0 .666-.54 1.206-1.206 1.206M17.5 22.66c-2.85 0-5.16-2.31-5.16-5.16s2.31-5.16 5.16-5.16 5.16 2.31 5.16 5.16-2.31 5.16-5.16 5.16m7.834-11.086c-.161-.437-.418-.832-.752-1.156-.324-.334-.719-.59-1.156-.752-.354-.137-.886-.3-1.865-.345-1.06-.049-1.378-.06-4.061-.06s-3.001.011-4.06.06c-.98.044-1.513.208-1.866.345-.437.161-.832.418-1.156.752-.334.324-.59.719-.752 1.156-.137.354-.301.886-.346 1.866-.048 1.06-.058 1.377-.058 4.06s.01 3.001.058 4.061c.045.98.209 1.512.346 1.866.161.436.418.831.752 1.155.324.334.719.59 1.155.752.354.138.887.301 1.866.346 1.06.048 1.377.058 4.06.058 2.684 0 3.002-.01 4.061-.058.98-.045 1.512-.208 1.866-.346.877-.338 1.57-1.03 1.908-1.907.137-.354.3-.886.346-1.866.048-1.06.058-1.378.058-4.06 0-2.684-.01-3.002-.058-4.061-.045-.98-.209-1.512-.346-1.866M17.5 14.15c-1.85 0-3.35 1.5-3.35 3.35s1.5 3.35 3.35 3.35 3.35-1.5 3.35-3.35-1.5-3.35-3.35-3.35"/>
</svg>
