<svg xmlns="http://www.w3.org/2000/svg" width="35" height="35" viewBox="0 0 35 35">
    <path fill="#342863" fill-rule="evenodd" d="M25.49 13.645c.008.172.012.345.012.519 0 5.307-4.04 11.428-11.429 11.428-2.268 0-4.379-.665-6.157-1.804.315.037.635.056.958.056 1.882 0 3.614-.642 4.99-1.72-1.76-.032-3.242-1.194-3.753-2.79.245.047.496.073.755.073.366 0 .721-.05 1.059-.142-1.838-.368-3.223-1.992-3.223-3.937l.001-.051c.541.3 1.16.482 1.82.502-1.08-.72-1.788-1.95-1.788-3.343 0-.736.199-1.426.544-2.02 1.98 2.431 4.94 4.03 8.28 4.197-.07-.294-.105-.6-.105-.915 0-2.218 1.799-4.017 4.017-4.017 1.155 0 2.199.489 2.932 1.27.915-.181 1.774-.515 2.55-.976-.3.938-.936 1.725-1.766 2.222.813-.097 1.587-.313 2.307-.633-.538.806-1.22 1.514-2.004 2.08M17.5 0C7.837 0 0 7.837 0 17.5 0 27.164 7.837 35 17.5 35 27.164 35 35 27.164 35 17.5 35 7.837 27.164 0 17.5 0"/>
</svg>
