<svg xmlns="http://www.w3.org/2000/svg" width="214" height="157" viewBox="0 0 214 157">
    <path fill="#5385E7" fill-rule="evenodd" d="M-110.715 5.939c0 2.761-2.394 5-5.348 5-2.954 0-5.349-2.239-5.349-5 0-2.762 2.395-5 5.349-5s5.348 2.238 5.348 5zm0 36c0 2.761-2.394 5-5.348 5-2.954 0-5.349-2.239-5.349-5 0-2.762 2.395-5 5.349-5s5.348 2.238 5.348 5zm0 37c0 2.761-2.394 5-5.348 5-2.954 0-5.349-2.239-5.349-5 0-2.762 2.395-5 5.349-5s5.348 2.238 5.348 5zm0 37c0 2.761-2.394 5-5.348 5-2.954 0-5.349-2.239-5.349-5 0-2.762 2.395-5 5.349-5s5.348 2.238 5.348 5zm0 36c0 2.761-2.394 5-5.348 5-2.954 0-5.349-2.239-5.349-5 0-2.762 2.395-5 5.349-5s5.348 2.238 5.348 5zm40.65-146c0 2.761-2.395 5-5.349 5s-5.348-2.239-5.348-5c0-2.762 2.394-5 5.348-5 2.954 0 5.349 2.238 5.349 5zm0 36c0 2.761-2.395 5-5.349 5s-5.348-2.239-5.348-5c0-2.762 2.394-5 5.348-5 2.954 0 5.349 2.238 5.349 5zm0 37c0 2.761-2.395 5-5.349 5s-5.348-2.239-5.348-5c0-2.762 2.394-5 5.348-5 2.954 0 5.349 2.238 5.349 5zm0 37c0 2.761-2.395 5-5.349 5s-5.348-2.239-5.348-5c0-2.762 2.394-5 5.348-5 2.954 0 5.349 2.238 5.349 5zm0 36c0 2.761-2.395 5-5.349 5s-5.348-2.239-5.348-5c0-2.762 2.394-5 5.348-5 2.954 0 5.349 2.238 5.349 5zm40.65-146c0 2.761-2.395 5-5.35 5-2.953 0-5.348-2.239-5.348-5 0-2.762 2.395-5 5.349-5s5.348 2.238 5.348 5zm0 36c0 2.761-2.395 5-5.35 5-2.953 0-5.348-2.239-5.348-5 0-2.762 2.395-5 5.349-5s5.348 2.238 5.348 5zm0 37c0 2.761-2.395 5-5.35 5-2.953 0-5.348-2.239-5.348-5 0-2.762 2.395-5 5.349-5s5.348 2.238 5.348 5zm0 37c0 2.761-2.395 5-5.35 5-2.953 0-5.348-2.239-5.348-5 0-2.762 2.395-5 5.349-5s5.348 2.238 5.348 5zm0 36c0 2.761-2.395 5-5.35 5-2.953 0-5.348-2.239-5.348-5 0-2.762 2.395-5 5.349-5s5.348 2.238 5.348 5zm40.649-146c0 2.761-2.395 5-5.349 5S.537 8.7.537 5.939c0-2.762 2.394-5 5.348-5 2.954 0 5.349 2.238 5.349 5zm0 36c0 2.761-2.395 5-5.349 5s-5.348-2.239-5.348-5c0-2.762 2.394-5 5.348-5 2.954 0 5.349 2.238 5.349 5zm0 37c0 2.761-2.395 5-5.349 5s-5.348-2.239-5.348-5c0-2.762 2.394-5 5.348-5 2.954 0 5.349 2.238 5.349 5zm0 37c0 2.761-2.395 5-5.349 5s-5.348-2.239-5.348-5c0-2.762 2.394-5 5.348-5 2.954 0 5.349 2.238 5.349 5zm0 36c0 2.761-2.395 5-5.349 5s-5.348-2.239-5.348-5c0-2.762 2.394-5 5.348-5 2.954 0 5.349 2.238 5.349 5zm39.58-36c0 2.761-2.395 5-5.349 5s-5.348-2.239-5.348-5c0-2.762 2.394-5 5.348-5 2.954 0 5.349 2.238 5.349 5zm0-110c0 2.761-2.395 5-5.349 5s-5.348-2.239-5.348-5c0-2.762 2.394-5 5.348-5 2.954 0 5.349 2.238 5.349 5zm0 73c0 2.761-2.395 5-5.349 5s-5.348-2.239-5.348-5c0-2.762 2.394-5 5.348-5 2.954 0 5.349 2.238 5.349 5zm0 73c0 2.761-2.395 5-5.349 5s-5.348-2.239-5.348-5c0-2.762 2.394-5 5.348-5 2.954 0 5.349 2.238 5.349 5zm0-110c0 2.761-2.395 5-5.349 5s-5.348-2.239-5.348-5c0-2.762 2.394-5 5.348-5 2.954 0 5.349 2.238 5.349 5zm40.65 74c0 2.761-2.395 5-5.35 5-2.953 0-5.348-2.239-5.348-5 0-2.762 2.395-5 5.349-5s5.348 2.238 5.348 5zm0-110c0 2.761-2.395 5-5.35 5-2.953 0-5.348-2.239-5.348-5 0-2.762 2.395-5 5.349-5s5.348 2.238 5.348 5zm0 73c0 2.761-2.395 5-5.35 5-2.953 0-5.348-2.239-5.348-5 0-2.762 2.395-5 5.349-5s5.348 2.238 5.348 5zm0 73c0 2.761-2.395 5-5.35 5-2.953 0-5.348-2.239-5.348-5 0-2.762 2.395-5 5.349-5s5.348 2.238 5.348 5zm0-110c0 2.761-2.395 5-5.35 5-2.953 0-5.348-2.239-5.348-5 0-2.762 2.395-5 5.349-5s5.348 2.238 5.348 5zm40.649 37c0 2.761-2.395 5-5.349 5s-5.348-2.239-5.348-5c0-2.762 2.394-5 5.348-5 2.954 0 5.349 2.238 5.349 5zm0 37c0 2.761-2.395 5-5.349 5s-5.348-2.239-5.348-5c0-2.762 2.394-5 5.348-5 2.954 0 5.349 2.238 5.349 5zm0 36c0 2.761-2.395 5-5.349 5s-5.348-2.239-5.348-5c0-2.762 2.394-5 5.348-5 2.954 0 5.349 2.238 5.349 5zm0-146c0 2.761-2.395 5-5.349 5s-5.348-2.239-5.348-5c0-2.762 2.394-5 5.348-5 2.954 0 5.349 2.238 5.349 5zm0 36c0 2.761-2.395 5-5.349 5s-5.348-2.239-5.348-5c0-2.762 2.394-5 5.348-5 2.954 0 5.349 2.238 5.349 5zm40.65-36c0 2.761-2.395 5-5.35 5-2.953 0-5.348-2.239-5.348-5 0-2.762 2.395-5 5.349-5s5.348 2.238 5.348 5zm0 36c0 2.761-2.395 5-5.35 5-2.953 0-5.348-2.239-5.348-5 0-2.762 2.395-5 5.349-5s5.348 2.238 5.348 5zm0 37c0 2.761-2.395 5-5.35 5-2.953 0-5.348-2.239-5.348-5 0-2.762 2.395-5 5.349-5s5.348 2.238 5.348 5zm0 37c0 2.761-2.395 5-5.35 5-2.953 0-5.348-2.239-5.348-5 0-2.762 2.395-5 5.349-5s5.348 2.238 5.348 5zm0 36c0 2.761-2.395 5-5.35 5-2.953 0-5.348-2.239-5.348-5 0-2.762 2.395-5 5.349-5s5.348 2.238 5.348 5zm40.649-146c0 2.761-2.395 5-5.349 5s-5.348-2.239-5.348-5c0-2.762 2.394-5 5.348-5 2.954 0 5.349 2.238 5.349 5zm0 36c0 2.761-2.395 5-5.349 5s-5.348-2.239-5.348-5c0-2.762 2.394-5 5.348-5 2.954 0 5.349 2.238 5.349 5zm0 37c0 2.761-2.395 5-5.349 5s-5.348-2.239-5.348-5c0-2.762 2.394-5 5.348-5 2.954 0 5.349 2.238 5.349 5zm0 37c0 2.761-2.395 5-5.349 5s-5.348-2.239-5.348-5c0-2.762 2.394-5 5.348-5 2.954 0 5.349 2.238 5.349 5zm0 36c0 2.761-2.395 5-5.349 5s-5.348-2.239-5.348-5c0-2.762 2.394-5 5.348-5 2.954 0 5.349 2.238 5.349 5z"/>
</svg>
