<svg xmlns="http://www.w3.org/2000/svg" width="100" height="60" viewBox="0 0 100 60">
    <g fill="#181B3B" fill-rule="nonzero">
        <path d="M54.817 6.032c8.018 2.733 13.85 8.93 16.219 16.401.091-9.203-5.65-17.86-14.853-20.957-9.476-3.19-19.59.364-24.966 8.2 6.56-4.92 15.308-6.56 23.6-3.644M.145 25.44S1.24 11.499 24.11 11.499c8.656 0 17.586 3.371 25.877 6.196 6.743 2.369 9.568 3.462 15.673 5.376 0 0-8.474-1.64-20.229-4.465-6.105-1.458-12.574-2.642-21.23-2.642-9.477-.092-21.322 5.193-24.056 9.476"/>
        <path d="M12.993 29.267s-.729-9.659 16.766-9.659c17.495 0 29.614 6.196 48.11 6.196 13.669 0 19.136-4.1 19.136-4.1s-5.65 6.47-24.967 6.47c-19.59 0-23.964-3.919-43.464-3.919-3.918.092-11.298.183-15.581 5.012"/>
        <g>
            <path d="M99.283 58.79c0 .273-.273.546-.547.546-.273 0-.547-.273-.547-.546 0-.274.274-.547.547-.547.274 0 .547.273.547.547 0-.274-.182-.547-.547-.547-.273 0-.547.273-.547.547 0 .273.274.546.547.546.274 0 .547-.273.547-.546z"/>
            <path d="M99.39 59.26s-.21 0 0 0c0-.208.208-.208.208-.417a.45.45 0 0 0-.418-.418h-.626v1.462h.418v-.627h.208l.418.627h.418s0-.209-.21-.209c-.417 0-.417-.209-.417-.418m-.417 0l-.21-.626h.21c.208 0 .208 0 .208.209s0 .417-.208.417M30.761 51.227H27.025l.456 1.275v6.743h1.913v-3.462h1.367c1.64 0 2.825-.73 2.825-2.278 0-1.458-1.093-2.278-2.825-2.278m-.546 4.1h-.82v-3.554h.82c1.275 0 1.549.456 1.549 1.823 0 1.184-.456 1.731-1.55 1.731M46.525 51.136c-2.551 0-4.1 1.822-4.1 4.1 0 2.278 1.549 4.1 4.1 4.1 2.551 0 4.1-1.822 4.1-4.1 0-2.278-1.458-4.1-4.1-4.1m0 7.836c-1.64 0-2.096-1.55-2.096-3.645 0-2.096.365-3.645 2.096-3.645s2.187 1.55 2.187 3.645c0 2.096-.365 3.645-2.187 3.645M55.637 51.227H51.9l.455 1.275v6.743h1.914v-3.462h1.367c1.64 0 2.824-.73 2.824-2.278 0-1.458-1.184-2.278-2.824-2.278m-.547 4.1h-.82v-3.554h.82c1.276 0 1.55.456 1.55 1.823 0 1.184-.457 1.731-1.55 1.731M61.65 55.327h2.279v-.456H61.65v-3.189h3.644v-.455h-6.013l.455 1.275v6.834h5.65v-.455H61.65zM73.496 51.682h2.46v7.654h1.914v-7.654h2.551v-.455h-6.925zM87.528 55.327h2.187v-.456h-2.187v-3.189h3.554v-.455H85.068l.547 1.275v6.834h5.558v-.455h-3.645zM95.182 54.143c-.91-.365-1.366-.73-1.366-1.458 0-.82.638-1.094 1.366-1.094.73 0 1.367.182 2.005.547V51.5c-.455-.273-1.093-.456-2.005-.456-1.549 0-2.915.912-2.915 2.46 0 1.55.82 2.096 2.095 2.643 1.094.456 1.732.73 1.732 1.55 0 .82-.547 1.184-1.64 1.184-.73 0-1.55-.274-2.187-.73v.639c.546.273 1.275.546 2.187.546 1.913 0 3.189-1.002 3.189-2.642.09-1.458-.911-1.914-2.46-2.551M6.068 55.965c-.091-.182-.456-.365-.638-.456v-.09c1.094-.183 1.914-.912 1.914-2.005 0-1.55-1.003-2.187-2.643-2.187H.783l.456 1.275v6.743h1.913v-3.827h.73l1.821 3.098c.092.091.547.73 1.458.73h1.003c-.183-.183-.456-.82-.911-1.459-.274-.364-.912-1.366-1.185-1.822m-2.187-.911h-.729v-3.372h.73c1.184 0 1.457.365 1.457 1.64.091 1.276-.273 1.732-1.458 1.732M39.69 55.965c-.09-.182-.455-.365-.637-.456v-.09c1.094-.183 1.914-.912 1.914-2.005 0-1.55-1.003-2.187-2.643-2.187h-3.918l.456 1.275v6.743h1.913v-3.827h.73l1.821 3.098c.092.091.547.73 1.458.73h1.003c-.183-.183-.456-.82-.912-1.459-.182-.364-.82-1.366-1.184-1.822m-2.096-.911h-.729v-3.372h.73c1.184 0 1.457.365 1.457 1.64 0 1.276-.364 1.732-1.458 1.732M71.4 55.965c-.09-.182-.455-.365-.637-.456v-.09c1.093-.183 1.913-.912 1.913-2.005 0-1.55-1.002-2.187-2.642-2.187h-3.919l.456 1.275v6.743h1.914v-3.827h.729l1.822 3.098c.091.091.547.73 1.458.73h1.002c-.182-.183-.455-.82-.911-1.459-.182-.364-.82-1.366-1.185-1.822m-2.095-.911h-.73v-3.372h.73c1.184 0 1.458.365 1.458 1.64 0 1.276-.365 1.732-1.458 1.732M23.38 51.318h-.728l-3.554 4.01v-4.01h-2.37l.456 1.276v6.742h1.914v-3.28l.364-.364 2.005 3.007s.456.728 1.458.728h1.276l-3.463-5.102 2.643-3.007zM11.717 51.318h-.91l.455 1.276-2.734 6.742h.638l1.002-2.46h2.734l.911 2.46H16l-2.825-7.107c-.182-.456-.364-.911-1.458-.911zm-1.275 5.103l1.184-3.007h.091l1.094 3.007h-2.37zM81.241 51.227l.456 1.275v6.834h1.913v-8.11h-1.913z"/>
        </g>
        <g>
            <path d="M3.608 40.11h.729c.09 0 .09 0 .09-.09v-.821c0-.091 0-.091-.09-.091h-.73c-.09 0-.09 0-.09.091v.82c0 .091.09.091.09.091zM2.332 40.11h.729c.091 0 .091 0 .091-.09v-.821c0-.091 0-.091-.091-.091h-.729c-.091 0-.091 0-.091.091v.82c0 .091 0 .091.091.091zM8.71 46.944h-.729c-.09 0-.09 0-.09.091v.82c0 .091 0 .091.09.091h.73c.09 0 .09 0 .09-.09v-.82c0-.092 0-.092-.09-.092zM9.713 41.568h-.638c-.091 0-.091 0-.091.091v2.825c0 .182 0 .364-.091.456-.091.09-.183.09-.365.09H5.795c-.183 0-.274 0-.365-.09-.091-.092-.091-.274-.091-.456v-3.645c0-.091 0-.091-.091-.091h-.73c-.09 0-.09 0-.09.091v.456H3.334c-.273 0-.546 0-.729.09-.273.092-.455.183-.637.365-.183.183-.365.365-.456.638a3.276 3.276 0 0 0-.182 1.002c0 .365.09.638.182.912.091.273.273.455.364.638.183.182.365.273.638.364.274.091.456.091.73.091.273 0 .455 0 .637-.091l.547-.273c.09.273.182.546.364.637.183.092.456.183.82.183h2.916c.456 0 .73-.091.911-.365.183-.182.274-.546.274-1.002v-2.916c.09.091 0 0 0 0zM4.337 43.3c0 .456-.091.73-.274 1.003-.182.273-.455.364-.82.364-.364 0-.638-.091-.82-.273-.182-.182-.273-.456-.273-.82 0-.456.091-.82.273-1.003.182-.182.456-.273.82-.273h1.003V43.3h.09zM7.435 46.944h-.73c-.09 0-.09 0-.09.091v.82c0 .091 0 .091.09.091h.73c.09 0 .09 0 .09-.09v-.82c0-.092 0-.092-.09-.092zM12.629 41.568h-.638c-.091 0-.091 0-.091.091v4.647c0 .638-.274.911-.82.911h-.274c-.091 0-.091 0-.091.092v.637c0 .092 0 .092.091.092h.274c.546 0 1.002-.183 1.275-.456.274-.273.456-.729.456-1.276V41.75l-.182-.182zM19.098 40.566h.729c.091 0 .091 0 .091-.091v-.82c0-.092 0-.092-.091-.092h-.729c-.091 0-.091 0-.091.092v.82l.091.09zM20.465 40.566h.729c.09 0 .09 0 .09-.091v-.82c0-.092 0-.092-.09-.092h-.73c-.09 0-.09 0-.09.092v.82c-.091 0 0 .09.09.09z"/>
            <path d="M36.32 38.743h-.638c-.091 0-.091 0-.091.092v5.74c0 .182 0 .365-.092.456-.09.09-.182.09-.364.09H29.668c.182-.09.273-.181.455-.364.183-.182.274-.273.365-.455l.273-.547c.091-.182.091-.456.091-.638 0-.547-.182-.911-.546-1.184-.365-.274-.912-.456-1.64-.456-.274 0-.456 0-.73.091-.182 0-.455.091-.637.182-.183.091-.365.091-.456.183-.182.09-.273.09-.364.182-.091 0-.091.09-.091.182v.729l.09.091c.183.091.274.182.456.365.182.09.274.273.456.364.091.182.273.365.364.547.091.182.183.455.274.729-.183.09-.365.09-.547.09H21.285c.273-.181.547-.455.729-.82.182-.273.273-.637.273-1.002 0-.273 0-.546-.091-.82-.091-.273-.182-.455-.364-.637-.183-.183-.365-.274-.638-.365-.274-.091-.547-.182-.911-.182-.365 0-.638.091-.912.182-.273.091-.455.273-.637.365-.183.182-.274.364-.365.637-.091.274-.091.456-.091.82 0 .365.091.73.273 1.003.183.273.365.547.73.729h-3.463c-.183 0-.274 0-.365-.091-.09-.091-.09-.274-.09-.456v-5.74c0-.092 0-.092-.092-.092h-.638c-.091 0-.091 0-.091.092v5.74c0 .456.091.82.273 1.002.183.183.547.365.912.365H19.462c.274 0 .547-.091.73-.182.182.09.455.182.637.182H27.208c.182 0 .455 0 .729-.091.273-.091.546-.091.729-.274.182.091.455.183.637.274.274.09.456.09.73.09h5.193c.456 0 .729-.09.911-.364.183-.182.274-.546.274-1.002v-5.74c0-.092 0-.092-.091-.092zM20.1 44.94c-.364-.092-.638-.365-.82-.547-.182-.274-.364-.547-.364-1.003 0-.364.09-.637.364-.82.182-.182.456-.273.82-.273.365 0 .638.091.82.273.183.183.365.456.365.82 0 .365-.091.73-.365 1.003-.182.182-.455.364-.82.547zm9.112-.547c-.09.09-.273.182-.364.273a2.721 2.721 0 0 0-.547-1.276c-.273-.364-.547-.637-.911-.82.091-.09.273-.09.455-.182.274-.09.547-.09.82-.09h.547c.182 0 .274.09.365.181l.273.274c.091.09.091.273.091.455s0 .365-.09.456c-.092.182-.183.273-.274.455a1.258 1.258 0 0 1-.365.274zM38.689 38.743h-.638c-.091 0-.091 0-.091.092v7.016c0 .09 0 .09.09.09h.639c.09 0 .09 0 .09-.09v-7.016c0-.092 0-.092-.09-.092zM43.518 40.11h.729c.091 0 .091 0 .091-.09v-.821c0-.091 0-.091-.091-.091h-.73c-.09 0-.09 0-.09.091v.82c0 .091 0 .091.09.091zM44.794 40.11h.729c.09 0 .09 0 .09-.09v-.821c0-.091 0-.091-.09-.091h-.73c-.09 0-.09 0-.09.091v.82c0 .091.09.091.09.091zM60.648 46.944h-.729c-.09 0-.09 0-.09.091v.82c0 .091 0 .091.09.091h.73c.09 0 .09 0 .09-.09v-.82c0-.092-.09-.092-.09-.092zM61.924 46.944h-.729c-.091 0-.091 0-.091.091v.82c0 .091 0 .091.091.091h.729c.091 0 .091 0 .091-.09v-.82c0-.092 0-.092-.091-.092zM67.573 40.566h.73c.09 0 .09 0 .09-.091v-.82c0-.092 0-.092-.09-.092h-.73c-.09 0-.09 0-.09.092v.82l.09.09z"/>
            <path d="M76.139 38.743H75.5c-.091 0-.091 0-.091.092v5.74c0 .182 0 .365-.091.456-.092.09-.183.09-.365.09H71.4c-.273 0-.546-.09-.637-.181a.501.501 0 0 1-.274-.456v-.182-.183c0-.364 0-.729-.09-1.002-.092-.364-.183-.638-.365-.82-.183-.273-.456-.456-.73-.638-.273-.182-.728-.273-1.184-.273-.455 0-.82.091-1.093.273-.274.182-.547.365-.73.638v.182l.456.365h.183c.182-.182.364-.274.546-.365.183-.09.456-.182.638-.182.273 0 .547 0 .73.091.181.091.364.182.455.365.09.182.182.364.273.637.091.274.091.456.091.73v.455c0 .091-.091.273-.091.273-.091.092-.182.092-.273.183-.091 0-.274.09-.456.09H65.751c-.273 0-3.371-.09-3.554-.181-.182-.092-.273-.274-.273-.547v-2.734c0-.09 0-.09-.091-.09h-1.185c-.09 0-.09 0-.09.09v2.825c0 .182 0 .364-.092.456-.091.09-.182.09-.364.09h-3.554-.365c-.182 0-.273-.09-.455-.182-.182-.09-.182-.364-.182-.729v-.182-.273c0-.82-.183-1.367-.547-1.731-.365-.365-.82-.547-1.458-.547s-1.093.182-1.458.547c-.364.364-.547.91-.547 1.73v.456c0 .183 0 .365-.09.456 0 .091-.092.182-.183.273l-.182.183c-.091 0-.182.09-.274.09H46.981c-.183 0-.274 0-.365-.09-.091-.091-.091-.274-.091-.456V40.93c0-.09 0-.09-.091-.09h-.638c-.091 0-.091 0-.091.09v.456h-1.003c-.273 0-.546 0-.728.091-.274.091-.456.182-.638.364-.183.183-.365.365-.456.638a3.276 3.276 0 0 0-.182 1.003c0 .364.091.637.182.91.091.274.273.456.365.639.182.182.364.273.637.364.274.091.456.091.73.091.273 0 .455 0 .637-.09l.547-.274c.091.273.182.546.364.638.183.09.456.182.82.182H50.9c.182 0 .455 0 .637-.091.274-.091.456-.183.547-.456.182.182.365.365.638.456.273.09.547.182.911.182.365 0 .638-.091.911-.182.274-.091.456-.274.638-.456l.274.273c.09.092.182.092.273.183.091 0 .182.09.364.09H60.466c.547 0 .911-.181 1.094-.546.09.182.182.365.364.456.182.09.364.182.638.182H69.03c.365 0 .638-.091.82-.182.183-.091.365-.274.547-.456.091.182.182.365.365.456.182.09.364.182.637.182h3.827c.456 0 .73-.091.912-.365.182-.182.273-.546.273-1.002v-5.74c-.182-.183-.182-.183-.273-.183zM45.523 43.3c0 .456-.092.73-.274 1.003-.182.273-.455.364-.82.364-.364 0-.638-.091-.82-.273-.182-.182-.273-.456-.273-.82 0-.456.09-.82.273-1.003.182-.182.456-.273.82-.273h1.002V43.3h.092zm8.838 1.55c-.182.273-.455.364-.911.364-.365 0-.729-.091-.911-.365-.183-.273-.274-.637-.274-1.093 0-.456.091-.82.274-1.093.182-.274.455-.365.91-.365.365 0 .73.091.912.365.182.273.273.637.273 1.093 0 .456-.09.82-.273 1.093zM78.508 38.743h-.638c-.091 0-.091 0-.091.092v7.016c0 .09 0 .09.09.09h.639c.09 0 .09 0 .09-.09v-7.016c0-.092 0-.092-.09-.092zM92.449 41.568h-.638c-.091 0-.091 0-.091.091v2.825c0 .182 0 .364-.091.456-.091.09-.182.09-.365.09h-.273c-.273 0-.547-.09-.729-.182-.182-.09-.273-.273-.273-.546v-1.823c0-.09 0-.09-.091-.09h-.638c-.091 0-.091 0-.091.09v1.914c0 .182 0 .364-.091.455-.092.092-.183.092-.365.092h-.273c-.274 0-.547-.092-.73-.183-.182-.09-.273-.273-.273-.546v-1.823c0-.09 0-.09-.09-.09h-.639c-.09 0-.09 0-.09.09v3.098c0 .547-.183.911-.456 1.094-.274.273-.638.364-1.094.364-.182 0-.364 0-.546-.091-.183-.091-.365-.091-.547-.273-.182-.091-.274-.274-.365-.456a1.717 1.717 0 0 1-.182-.729c0-.273.091-.638.182-.911s.274-.547.365-.729v-.182l-.547-.274h-.182c-.182.274-.365.547-.456 1.003-.182.364-.182.82-.182 1.184 0 .365.091.73.182 1.003.091.273.274.546.547.728.182.183.456.365.82.456.273.091.638.182 1.002.182.82 0 1.458-.182 1.823-.638.455-.455.638-1.002.638-1.73v-.092c.182.182.455.365.82.365h.546c.547 0 .912-.183 1.094-.547.09.182.182.364.364.455.183.092.365.183.638.183h.547c.455 0 .729-.091.911-.365.182-.182.273-.546.273-1.002v-2.916c-.182.091-.273 0-.364 0zM94.818 38.743h-.638c-.09 0-.09 0-.09.092v7.016c0 .09 0 .09.09.09h.638c.091 0 .091 0 .091-.09v-7.016c0-.092 0-.092-.091-.092zM95.547 37.741h-1.093l-.274-.273c-.09-.091-.09-.274-.09-.365 0-.182.09-.273.181-.455a.696.696 0 0 1 .456-.183c.091 0 .182 0 .273.092.091.09.182.09.182.182h.092l.182-.182v-.092c-.091-.09-.182-.182-.365-.273-.182-.091-.273-.091-.455-.091s-.365 0-.547.091a1.258 1.258 0 0 0-.364.273c-.092.092-.183.183-.183.365 0 .091-.09.273-.09.364 0 .091 0 .274.09.365 0 .091.091.182.183.273h-.365s-.091 0-.091.091v.274c0 .09 0 .09.091.09h2.187s.091 0 .091-.09l-.091-.456c.091 0 0 0 0 0zM97.643 41.568h-.638c-.091 0-.091 0-.091.091v4.647c0 .638-.274.911-.82.911h-.274c-.09 0-.09 0-.09.092v.637c0 .092 0 .092.09.092h.274c.546 0 1.002-.183 1.275-.456.274-.273.456-.729.456-1.276V41.75c-.091-.09-.091-.182-.182-.182z"/>
        </g>
    </g>
</svg>
