<svg xmlns="http://www.w3.org/2000/svg" width="149" height="46" viewBox="0 0 149 46">
    <g fill="none" fill-rule="nonzero">
        <path fill="#181B3B" d="M82.352 16.642a6.317 6.317 0 0 1 3.843 1.312.416.416 0 0 1 .069.596.398.398 0 0 1-.578.086 5.417 5.417 0 0 0-3.334-1.158 5.206 5.206 0 1 0 0 10.397 5.073 5.073 0 0 0 3.298-1.155.412.412 0 0 1 .596.1.398.398 0 0 1-.05.596 6.303 6.303 0 0 1-3.844 1.294 6.041 6.041 0 1 1 0-12.078v.01zM89.698 17.223a.416.416 0 1 1 .832 0v11.09a.416.416 0 0 1-.832 0v-11.09zM95.24 18.568v9.744a.409.409 0 0 1-.817 0v-10.92a.412.412 0 0 1 .155-.46.423.423 0 0 1 .577.105l7.213 9.999v-9.68a.416.416 0 1 1 .832 0v10.97a.416.416 0 0 1-.423.41.409.409 0 0 1-.326-.155s-.05-.032-.068-.068l-7.142-9.945zM106.89 17.223a.412.412 0 0 1 .408-.409h6.123a.416.416 0 1 1 0 .832h-5.696v4.711h4.983c.23.008.41.197.409.427a.416.416 0 0 1-.41.408h-4.982v4.693h5.696a.409.409 0 0 1 .41.427.405.405 0 0 1-.41.409h-6.155a.409.409 0 0 1-.377-.409V17.223zM125.769 18.532l-3.811 5.274a.394.394 0 0 1-.34.186h-.033a.387.387 0 0 1-.359-.186l-3.81-5.274v9.78a.416.416 0 0 1-.832 0v-11.02a.387.387 0 0 1 .168-.323l.036-.036a.427.427 0 0 1 .577.104l4.234 5.865 4.216-5.865a.423.423 0 0 1 .578-.104c.044.04.084.086.118.136a.53.53 0 0 1 .068.222v11.021a.412.412 0 0 1-.405.409.402.402 0 0 1-.405-.409v-9.78zM136.191 25.641h-5.424l-1.054 2.807a.423.423 0 0 1-.391.273h-.154a.434.434 0 0 1-.237-.545l4.13-11.039a.462.462 0 0 1 .409-.255.423.423 0 0 1 .409.255l4.126 11.02a.43.43 0 0 1-.222.546h-.154a.441.441 0 0 1-.391-.273l-1.047-2.789zm-5.12-.832h4.815l-2.398-6.396-2.417 6.396zM139.403 26.49a.359.359 0 0 1 .53-.05c.883.718 2.364 1.55 3.912 1.532a4.46 4.46 0 0 0 2.618-.782 2.205 2.205 0 0 0 1.021-1.771 1.893 1.893 0 0 0-.971-1.631 7.762 7.762 0 0 0-2.754-.968h-.018a7.529 7.529 0 0 1-2.803-1.004 2.47 2.47 0 0 1-1.226-2.076c.028-.9.49-1.731 1.24-2.23a4.908 4.908 0 0 1 2.868-.868c1.567 0 2.74.768 3.675 1.38a.38.38 0 0 1 .1.528.359.359 0 0 1-.509.1c-.935-.613-1.957-1.258-3.266-1.258a4.263 4.263 0 0 0-2.43.717 2.076 2.076 0 0 0-.936 1.634c.023.6.358 1.143.882 1.435.783.465 1.65.772 2.552.903h.036c1.07.153 2.1.519 3.026 1.076a2.682 2.682 0 0 1 1.309 2.244 3.008 3.008 0 0 1-1.341 2.384 5.249 5.249 0 0 1-3.062.932c-1.821 0-3.402-.932-4.388-1.717a.394.394 0 0 1-.065-.51zM20.966 23.766l-.33-.165-9.056 4.521-5.213 2.6c-4.836 2.412-6.85 8.389-4.499 13.35.297.622.658 1.21 1.076 1.757 0 0 .616-2.918 6.546-6.173 3.614-1.99 4.736-2.481 6.038-3.198 1.301-.717 10.124-4.977 11.723-6.558 0 0-.401-3.169-6.285-6.134"/>
        <path fill="#000" d="M27.86 29.298c0-.025.038-.05.054-.078.017-.029-.037.053-.053.078"/>
        <path fill="#181B3B" d="M24.387 14.183c-4.661-2.442-8.788-4.256-14.879-7.368C3.492 3.74 2.933.655 2.933.655a9.924 9.924 0 0 0-1.058 1.761 10.039 10.039 0 0 0 4.532 13.337c4.973 2.62 8.827 4.374 14.878 7.371l.151.076c5.88 2.961 6.418 6.051 6.425 6.094.007.043.032-.043.046-.068l.137-.186c.334-.476.627-.98.874-1.506 2.341-4.965.115-10.895-4.531-13.337"/>
        <path fill="#000" d="M28.064 29.026l-.157.213.157-.213"/>
        <path fill="#181B3B" d="M47.49 29.04c-.158-.835-1.158-1.793-2.89-2.725l-.398-.211c.02.131.029.264.029.398 0 1.355-.846 1.96-2.868 1.96-2.349 0-4.016-.171-5.565-.29v2.95c2 .404 4.034.6 6.074.585 2.15 0 4.08-.466 5.284-1.513.303-.302.437-.734.359-1.154M36.221 14.907a.53.53 0 0 0 0 .075c.083.524.807 1.277 1.987 2.069.508.34 1.035.65 1.577.932v-.244c0-1.237.968-1.599 2.807-1.599 2.008 0 3.585.144 5.253.29v-2.918a25.498 25.498 0 0 0-5.497-.605c-2.914 0-4.976.577-6.094 1.928l-.03.043"/>
        <path fill="#181B3B" d="M44.353 20.74l-2.542-1.043a19.63 19.63 0 0 1-.993-.423l-.09-.04a20.235 20.235 0 0 1-2.918-1.588c-1.04-.717-1.728-1.351-2.07-1.947a5.26 5.26 0 0 0-.419 2.184c0 2.98 1.6 4.263 4.163 5.352l2.617 1.112c.912.366 1.802.783 2.667 1.248l.169.09c1.94 1.075 3.03 2.15 3.248 3.194a5.761 5.761 0 0 0 .57-2.643c0-2.832-1.405-4.263-4.406-5.496M50.483 27.47a2.033 2.033 0 0 0-.071.401v.481c0 1.566 1.075 3.108 4.43 3.108v-5.457c-2.792 0-3.943.86-4.352 1.467M68.732 21.239l.057.14c.664 1.66 1.485 3.491 2.055 5.42V16.467c0-1.614-1.076-3.202-4.543-3.227 0 .358 0 .717.047 1.075.215 2.618 1.523 4.74 2.384 6.891M70.826 30.804c0-.162-.018-.323-.029-.473-.215-3.094-1.638-6.095-2.675-8.687l-.057-.14c-.548-1.366-1.27-2.729-1.793-4.216v10.924c0 1.617 1.101 3.208 4.572 3.226v-.505-.118M60.307 19.46c-.047 1.969-1.277 2.438-3.754 2.438h-1.678c-1.466 0-3.09 1.183-3.944 3.08a7.35 7.35 0 0 0-.405 1.39c.739-.551 1.99-1.02 3.944-1.075h.402c.68.022 1.208.022 1.792.022 1.222.017 2.441-.103 3.636-.359 2.545-.595 4.377-2.1 4.377-5.61v-.24c0-3.26-1.545-4.758-4.381-5.41a25.315 25.315 0 0 0-5.467-.442c-3.367 0-4.432 1.545-4.432 3.112v8.11c1.004-2.015 2.786-3.27 4.432-3.288V17.69c0-.527.046-1.022.881-1.032h.836c2.51 0 3.728.387 3.754 2.47v.254l.007.08z"/>
    </g>
</svg>
