<?xml version="1.0" encoding="UTF-8"?>
<svg width="90px" height="23px" viewBox="0 0 90 23" version="1.1" xmlns="http://www.w3.org/2000/svg" xmlns:xlink="http://www.w3.org/1999/xlink">
    <!-- Generator: Sketch 52.6 (67491) - http://www.bohemiancoding.com/sketch -->
    <title>Group Copy 3</title>
    <desc>Created with Sketch.</desc>
    <g id="Page-1" stroke="none" stroke-width="1" fill="none" fill-rule="evenodd">
        <g id="Artboard-Copy-6" transform="translate(-634.000000, -5523.000000)">
            <g id="Group-7" transform="translate(195.000000, 5350.000000)">
                <g id="Group-8" transform="translate(75.000000, 149.000000)">
                    <g id="Group-18" transform="translate(0.000000, 24.000000)">
                        <g id="Group-Copy-3" transform="translate(364.000000, 0.000000)">
                            <path d="M8.29467085,6.97713489 L8.29467085,11.0011834 L6.29153605,11.0011834 L6.29153605,22.7899453 L1.46708464,22.7899453 L1.46708464,11.0011834 L0,11.0011834 L0,6.97713489 L1.46708464,6.97713489 L1.46708464,6.38202912 C1.46708464,4.37944097 1.99842729,2.9153065 3.06112853,1.98958179 C4.12382976,1.06385708 5.79309207,0.601001669 8.06896552,0.601001669 L8.06896552,4.7100653 C7.42946389,4.7100653 6.9733556,4.83286367 6.70062696,5.07846411 C6.42789832,5.32406454 6.29153605,5.75858187 6.29153605,6.38202912 L6.29153605,6.97713489 L8.29467085,6.97713489 Z M21.5266458,14.8835401 C21.5266458,13.6366456 21.1786869,12.6778736 20.4827586,12.0071955 C19.7868304,11.3365174 18.9874653,11.0011834 18.0846395,11.0011834 C17.1818137,11.0011834 16.3824486,11.3412404 15.6865204,12.0213647 C14.9905921,12.701489 14.6426332,13.6649839 14.6426332,14.9118784 C14.6426332,16.158773 14.9905921,17.1175449 15.6865204,17.788223 C16.3824486,18.4589011 17.1818137,18.7942351 18.0846395,18.7942351 C18.9874653,18.7942351 19.7868304,18.4541781 20.4827586,17.7740538 C21.1786869,17.0939295 21.5266458,16.1304346 21.5266458,14.8835401 Z M9.73354232,14.9118784 C9.73354232,12.5503358 10.4294601,10.6091769 11.8213166,9.08834344 C13.2131731,7.56750999 14.9106483,6.80710467 16.9137931,6.80710467 C18.9169379,6.80710467 20.4545401,7.55334095 21.5266458,9.04583589 L21.5266458,6.97713489 L26.3510972,6.97713489 L26.3510972,22.7899453 L21.5266458,22.7899453 L21.5266458,20.4945373 C20.3604957,22.1570633 18.7993828,22.9883139 16.8432602,22.9883139 C14.8871376,22.9883139 13.2131731,22.2326316 11.8213166,20.7212443 C10.4294601,19.209857 9.73354232,17.2734211 9.73354232,14.9118784 Z M29.4263323,14.8835401 C29.4263323,12.4275357 30.1551651,10.4674848 31.6128527,9.00332833 C33.0705402,7.5391719 34.9561013,6.80710467 37.2695925,6.80710467 C39.1880974,6.80710467 40.8150403,7.28412912 42.1504702,8.23819235 C43.4859001,9.19225557 44.3699038,10.5572067 44.8025078,12.3330868 L39.5830721,12.3330868 C39.1316592,11.3884697 38.3934221,10.9161683 37.3683386,10.9161683 C36.3432551,10.9161683 35.5815072,11.2798404 35.0830721,12.0071955 C34.584637,12.7345507 34.3354232,13.6933226 34.3354232,14.8835401 C34.3354232,16.0737576 34.584637,17.0325295 35.0830721,17.7598846 C35.5815072,18.4872397 36.31034,18.8509119 37.2695925,18.8509119 C37.8714764,18.8509119 38.3416911,18.7470055 38.6802508,18.5391898 C39.0188105,18.331374 39.3197479,17.9629789 39.5830721,17.4339934 L44.8025078,17.4339934 C44.3699038,19.1343041 43.4764958,20.4850862 42.1222571,21.4863803 C40.7680183,22.4876743 39.1504796,22.9883139 37.2695925,22.9883139 C34.9561013,22.9883139 33.0705402,22.2515236 31.6128527,20.777921 C30.1551651,19.3043184 29.4263323,17.3395444 29.4263323,14.8835401 Z M47.5109718,22.7899453 L47.5109718,6.97713489 L52.3354232,6.97713489 L52.3354232,22.7899453 L47.5109718,22.7899453 Z M56.5673981,22.7899453 L56.5673981,1.81955157 L61.3918495,1.81955157 L61.3918495,22.7899453 L56.5673981,22.7899453 Z M65.6238245,22.7899453 L65.6238245,6.97713489 L70.4482759,6.97713489 L70.4482759,22.7899453 L65.6238245,22.7899453 Z M85.0909091,14.8835401 C85.0909091,13.5988609 84.7617588,12.6211969 84.1034483,11.9505188 C83.4451378,11.2798407 82.6645813,10.9445067 81.7617555,10.9445067 C80.8589297,10.9445067 80.0830753,11.2798407 79.4341693,11.9505188 C78.7852632,12.6211969 78.460815,13.5988609 78.460815,14.8835401 C78.460815,16.1682193 78.7946675,17.1506063 79.4623824,17.8307305 C80.1300974,18.5108548 80.915356,18.8509119 81.8181818,18.8509119 C82.7210076,18.8509119 83.4921598,18.5108548 84.1316614,17.8307305 C84.7711631,17.1506063 85.0909091,16.1682193 85.0909091,14.8835401 Z M73.5517241,14.8552017 C73.5517241,12.4180897 74.3416849,10.4674848 75.9216301,9.00332833 C77.5015753,7.5391719 79.4576686,6.80710467 81.7899687,6.80710467 C84.1222687,6.80710467 86.0736599,7.5391719 87.6442006,9.00332833 C89.2147414,10.4674848 90,12.4180897 90,14.8552017 C90,17.2923137 89.2194435,19.2570877 87.6583072,20.7495826 C86.0971709,22.2420776 84.1504819,22.9883139 81.8181818,22.9883139 C79.4858818,22.9883139 77.5250863,22.2420776 75.9357367,20.7495826 C74.346387,19.2570877 73.5517241,17.2923137 73.5517241,14.8552017 Z" id="facilio" fill="#372668"></path>
                            <polygon id="Path" fill="#FF3184" points="47.7796327 4.80801336 47.7796327 0 52.5876461 0 52.5876461 4.80801336"></polygon>
                            <polygon id="Path" fill="#39B3C2" points="65.8096828 4.80801336 65.8096828 0 70.6176962 0 70.6176962 4.80801336"></polygon>
                        </g>
                    </g>
                </g>
            </g>
        </g>
    </g>
</svg>