<?xml version="1.0" encoding="UTF-8"?>
<svg width="80px" height="48px" viewBox="0 0 80 48" version="1.1" xmlns="http://www.w3.org/2000/svg" xmlns:xlink="http://www.w3.org/1999/xlink">
    <!-- Generator: Sketch 52.6 (67491) - http://www.bohemiancoding.com/sketch -->
    <title>RAK Properties-16</title>
    <desc>Created with Sketch.</desc>
    <g id="Page-1" stroke="none" stroke-width="1" fill="none" fill-rule="evenodd">
        <g id="Facilio_Homepage2.2" transform="translate(-1018.000000, -1476.000000)" fill="#151138">
            <g id="Group-3" transform="translate(188.000000, 1408.000000)">
                <g id="Group-2" transform="translate(0.000000, 68.000000)">
                    <g id="RAK-Properties-16" transform="translate(830.000000, 0.000000)">
                        <g id="Group">
                            <path d="M44.0727273,4.65454545 C50.4727273,6.83636364 55.1272727,11.7818182 57.0181818,17.7454545 C57.0909091,10.4 52.5090909,3.49090909 45.1636364,1.01818182 C37.6,-1.52727273 29.5272727,1.30909091 25.2363636,7.56363636 C30.4727273,3.63636364 37.4545455,2.32727273 44.0727273,4.65454545" id="Path"></path>
                            <path d="M0.436363636,20.1454545 C0.436363636,20.1454545 1.30909091,9.01818182 19.5636364,9.01818182 C26.4727273,9.01818182 33.6,11.7090909 40.2181818,13.9636364 C45.6,15.8545455 47.8545455,16.7272727 52.7272727,18.2545455 C52.7272727,18.2545455 45.9636364,16.9454545 36.5818182,14.6909091 C31.7090909,13.5272727 26.5454545,12.5818182 19.6363636,12.5818182 C12.0727273,12.5090909 2.61818182,16.7272727 0.436363636,20.1454545" id="Path"></path>
                            <path d="M10.6909091,23.2 C10.6909091,23.2 10.1090909,15.4909091 24.0727273,15.4909091 C38.0363636,15.4909091 47.7090909,20.4363636 62.4727273,20.4363636 C73.3818182,20.4363636 77.7454545,17.1636364 77.7454545,17.1636364 C77.7454545,17.1636364 73.2363636,22.3272727 57.8181818,22.3272727 C42.1818182,22.3272727 38.6909091,19.2 23.1272727,19.2 C20,19.2727273 14.1090909,19.3454545 10.6909091,23.2" id="Path"></path>
                        </g>
                        <g id="Group" transform="translate(0.727273, 40.000000)">
                            <path d="M78.8363636,6.76363636 C78.8363636,6.98181818 78.6181818,7.2 78.4,7.2 C78.1818182,7.2 77.9636364,6.98181818 77.9636364,6.76363636 C77.9636364,6.54545455 78.1818182,6.32727273 78.4,6.32727273 C78.6181818,6.32727273 78.8363636,6.54545455 78.8363636,6.76363636 C78.8363636,6.54545455 78.6909091,6.32727273 78.4,6.32727273 C78.1818182,6.32727273 77.9636364,6.54545455 77.9636364,6.76363636 C77.9636364,6.98181818 78.1818182,7.2 78.4,7.2 C78.6181818,7.2 78.8363636,6.98181818 78.8363636,6.76363636 Z" id="Path"></path>
                            <path d="M78.6545455,6.87272727 C78.6545455,6.87272727 78.5545455,6.87272727 78.6545455,6.87272727 C78.6545455,6.77272727 78.7545455,6.77272727 78.7545455,6.67272727 C78.7545455,6.57272727 78.6545455,6.47272727 78.5545455,6.47272727 L78.2545455,6.47272727 L78.2545455,6.57272727 L78.2545455,7.17272727 L78.4545455,7.17272727 L78.4545455,6.87272727 L78.5545455,6.87272727 L78.7545455,7.17272727 L78.9545455,7.17272727 C78.9545455,7.17272727 78.9545455,7.07272727 78.8545455,7.07272727 C78.6545455,7.07272727 78.6545455,6.97272727 78.6545455,6.87272727 M78.4545455,6.87272727 L78.3545455,6.57272727 L78.4545455,6.57272727 C78.5545455,6.57272727 78.5545455,6.57272727 78.5545455,6.67272727 C78.5545455,6.77272727 78.5545455,6.87272727 78.4545455,6.87272727" id="Shape" fill-rule="nonzero"></path>
                            <path d="M24.1454545,0.727272727 L21.5272727,0.727272727 L21.1636364,0.727272727 L21.5272727,1.74545455 L21.5272727,7.12727273 L23.0545455,7.12727273 L23.0545455,4.36363636 L24.1454545,4.36363636 C25.4545455,4.36363636 26.4,3.78181818 26.4,2.54545455 C26.4,1.38181818 25.5272727,0.727272727 24.1454545,0.727272727 M23.7090909,4 L23.0545455,4 L23.0545455,1.16363636 L23.7090909,1.16363636 C24.7272727,1.16363636 24.9454545,1.52727273 24.9454545,2.61818182 C24.9454545,3.56363636 24.5818182,4 23.7090909,4" id="Shape" fill-rule="nonzero"></path>
                            <path d="M36.7272727,0.654545455 C34.6909091,0.654545455 33.4545455,2.10909091 33.4545455,3.92727273 C33.4545455,5.74545455 34.6909091,7.2 36.7272727,7.2 C38.7636364,7.2 40,5.74545455 40,3.92727273 C40,2.10909091 38.8363636,0.654545455 36.7272727,0.654545455 M36.7272727,6.90909091 C35.4181818,6.90909091 35.0545455,5.67272727 35.0545455,4 C35.0545455,2.32727273 35.3454545,1.09090909 36.7272727,1.09090909 C38.1090909,1.09090909 38.4727273,2.32727273 38.4727273,4 C38.4727273,5.67272727 38.1818182,6.90909091 36.7272727,6.90909091" id="Shape" fill-rule="nonzero"></path>
                            <path d="M44,0.727272727 L41.3818182,0.727272727 L41.0181818,0.727272727 L41.3818182,1.74545455 L41.3818182,7.12727273 L42.9090909,7.12727273 L42.9090909,4.36363636 L44,4.36363636 C45.3090909,4.36363636 46.2545455,3.78181818 46.2545455,2.54545455 C46.2545455,1.38181818 45.3090909,0.727272727 44,0.727272727 M43.5636364,4 L42.9090909,4 L42.9090909,1.16363636 L43.5636364,1.16363636 C44.5818182,1.16363636 44.8,1.52727273 44.8,2.61818182 C44.8,3.56363636 44.4363636,4 43.5636364,4" id="Shape" fill-rule="nonzero"></path>
                            <polygon id="Path" points="48.8 4 50.6181818 4 50.6181818 3.63636364 48.8 3.63636364 48.8 1.09090909 51.7090909 1.09090909 51.7090909 0.727272727 47.2727273 0.727272727 46.9090909 0.727272727 47.2727273 1.74545455 47.2727273 7.2 51.7818182 7.2 51.7818182 6.83636364 48.8 6.83636364"></polygon>
                            <polygon id="Path" points="58.2545455 1.09090909 60.2181818 1.09090909 60.2181818 7.2 61.7454545 7.2 61.7454545 1.09090909 63.7818182 1.09090909 63.7818182 0.727272727 58.2545455 0.727272727"></polygon>
                            <polygon id="Path" points="69.4545455 4 71.2 4 71.2 3.63636364 69.4545455 3.63636364 69.4545455 1.09090909 72.2909091 1.09090909 72.2909091 0.727272727 67.9272727 0.727272727 67.4909091 0.727272727 67.9272727 1.74545455 67.9272727 7.2 72.3636364 7.2 72.3636364 6.83636364 69.4545455 6.83636364"></polygon>
                            <path d="M75.5636364,3.05454545 C74.8363636,2.76363636 74.4727273,2.47272727 74.4727273,1.89090909 C74.4727273,1.23636364 74.9818182,1.01818182 75.5636364,1.01818182 C76.1454545,1.01818182 76.6545455,1.16363636 77.1636364,1.45454545 L77.1636364,0.945454545 C76.8,0.727272727 76.2909091,0.581818182 75.5636364,0.581818182 C74.3272727,0.581818182 73.2363636,1.30909091 73.2363636,2.54545455 C73.2363636,3.78181818 73.8909091,4.21818182 74.9090909,4.65454545 C75.7818182,5.01818182 76.2909091,5.23636364 76.2909091,5.89090909 C76.2909091,6.54545455 75.8545455,6.83636364 74.9818182,6.83636364 C74.4,6.83636364 73.7454545,6.61818182 73.2363636,6.25454545 L73.2363636,6.76363636 C73.6727273,6.98181818 74.2545455,7.2 74.9818182,7.2 C76.5090909,7.2 77.5272727,6.4 77.5272727,5.09090909 C77.6,3.92727273 76.8,3.56363636 75.5636364,3.05454545" id="Path"></path>
                            <path d="M4.43636364,4.50909091 C4.36363636,4.36363636 4.07272727,4.21818182 3.92727273,4.14545455 L3.92727273,4.07272727 C4.8,3.92727273 5.45454545,3.34545455 5.45454545,2.47272727 C5.45454545,1.23636364 4.65454545,0.727272727 3.34545455,0.727272727 L0.218181818,0.727272727 L0.581818182,1.74545455 L0.581818182,7.12727273 L2.10909091,7.12727273 L2.10909091,4.07272727 L2.69090909,4.07272727 L4.14545455,6.54545455 C4.21818182,6.61818182 4.58181818,7.12727273 5.30909091,7.12727273 L6.10909091,7.12727273 C5.96363636,6.98181818 5.74545455,6.47272727 5.38181818,5.96363636 C5.16363636,5.67272727 4.65454545,4.87272727 4.43636364,4.50909091 M2.69090909,3.78181818 L2.10909091,3.78181818 L2.10909091,1.09090909 L2.69090909,1.09090909 C3.63636364,1.09090909 3.85454545,1.38181818 3.85454545,2.4 C3.92727273,3.41818182 3.63636364,3.78181818 2.69090909,3.78181818" id="Shape" fill-rule="nonzero"></path>
                            <path d="M31.2727273,4.50909091 C31.2,4.36363636 30.9090909,4.21818182 30.7636364,4.14545455 L30.7636364,4.07272727 C31.6363636,3.92727273 32.2909091,3.34545455 32.2909091,2.47272727 C32.2909091,1.23636364 31.4909091,0.727272727 30.1818182,0.727272727 L27.0545455,0.727272727 L27.4181818,1.74545455 L27.4181818,7.12727273 L28.9454545,7.12727273 L28.9454545,4.07272727 L29.5272727,4.07272727 L30.9818182,6.54545455 C31.0545455,6.61818182 31.4181818,7.12727273 32.1454545,7.12727273 L32.9454545,7.12727273 C32.8,6.98181818 32.5818182,6.47272727 32.2181818,5.96363636 C32.0727273,5.67272727 31.5636364,4.87272727 31.2727273,4.50909091 M29.6,3.78181818 L29.0181818,3.78181818 L29.0181818,1.09090909 L29.6,1.09090909 C30.5454545,1.09090909 30.7636364,1.38181818 30.7636364,2.4 C30.7636364,3.41818182 30.4727273,3.78181818 29.6,3.78181818" id="Shape" fill-rule="nonzero"></path>
                            <path d="M56.5818182,4.50909091 C56.5090909,4.36363636 56.2181818,4.21818182 56.0727273,4.14545455 L56.0727273,4.07272727 C56.9454545,3.92727273 57.6,3.34545455 57.6,2.47272727 C57.6,1.23636364 56.8,0.727272727 55.4909091,0.727272727 L52.3636364,0.727272727 L52.7272727,1.74545455 L52.7272727,7.12727273 L54.2545455,7.12727273 L54.2545455,4.07272727 L54.8363636,4.07272727 L56.2909091,6.54545455 C56.3636364,6.61818182 56.7272727,7.12727273 57.4545455,7.12727273 L58.2545455,7.12727273 C58.1090909,6.98181818 57.8909091,6.47272727 57.5272727,5.96363636 C57.3818182,5.67272727 56.8727273,4.87272727 56.5818182,4.50909091 M54.9090909,3.78181818 L54.3272727,3.78181818 L54.3272727,1.09090909 L54.9090909,1.09090909 C55.8545455,1.09090909 56.0727273,1.38181818 56.0727273,2.4 C56.0727273,3.41818182 55.7818182,3.78181818 54.9090909,3.78181818" id="Shape" fill-rule="nonzero"></path>
                            <path d="M18.2545455,0.8 L17.6727273,0.8 L14.8363636,4 L14.8363636,0.8 L12.9454545,0.8 L13.3090909,1.81818182 L13.3090909,7.2 L14.8363636,7.2 L14.8363636,4.58181818 L15.1272727,4.29090909 L16.7272727,6.69090909 C16.7272727,6.69090909 17.0909091,7.27272727 17.8909091,7.27272727 L18.9090909,7.27272727 L16.1454545,3.2 L18.2545455,0.8 Z" id="Path"></path>
                            <path d="M8.94545455,0.8 L8.21818182,0.8 L8.58181818,1.81818182 L6.4,7.2 L6.90909091,7.2 L7.70909091,5.23636364 L9.89090909,5.23636364 L10.6181818,7.2 L12.3636364,7.2 L10.1090909,1.52727273 C9.96363636,1.16363636 9.81818182,0.8 8.94545455,0.8 Z M7.92727273,4.87272727 L8.87272727,2.47272727 L8.94545455,2.47272727 L9.81818182,4.87272727 L7.92727273,4.87272727 Z" id="Shape" fill-rule="nonzero"></path>
                            <polygon id="Path" points="64.4363636 0.727272727 64.8 1.74545455 64.8 7.2 66.3272727 7.2 66.3272727 0.727272727 64.8 0.727272727"></polygon>
                        </g>
                        <g id="Group" transform="translate(0.727273, 28.363636)">
                            <path d="M2.47272727,3.49090909 L3.05454545,3.49090909 C3.12727273,3.49090909 3.12727273,3.49090909 3.12727273,3.41818182 L3.12727273,2.76363636 C3.12727273,2.69090909 3.12727273,2.69090909 3.05454545,2.69090909 L2.47272727,2.69090909 C2.4,2.69090909 2.4,2.69090909 2.4,2.76363636 L2.4,3.41818182 C2.4,3.49090909 2.47272727,3.49090909 2.47272727,3.49090909 Z" id="Path"></path>
                            <path d="M1.45454545,3.49090909 L2.03636364,3.49090909 C2.10909091,3.49090909 2.10909091,3.49090909 2.10909091,3.41818182 L2.10909091,2.76363636 C2.10909091,2.69090909 2.10909091,2.69090909 2.03636364,2.69090909 L1.45454545,2.69090909 C1.38181818,2.69090909 1.38181818,2.69090909 1.38181818,2.76363636 L1.38181818,3.41818182 C1.38181818,3.49090909 1.38181818,3.49090909 1.45454545,3.49090909 Z" id="Path"></path>
                            <path d="M6.54545455,8.94545455 L5.96363636,8.94545455 C5.89090909,8.94545455 5.89090909,8.94545455 5.89090909,9.01818182 L5.89090909,9.67272727 C5.89090909,9.74545455 5.89090909,9.74545455 5.96363636,9.74545455 L6.54545455,9.74545455 C6.61818182,9.74545455 6.61818182,9.74545455 6.61818182,9.67272727 L6.61818182,9.01818182 C6.61818182,8.94545455 6.61818182,8.94545455 6.54545455,8.94545455 Z" id="Path"></path>
                            <path d="M7.34545455,4.65454545 L6.83636364,4.65454545 C6.76363636,4.65454545 6.76363636,4.65454545 6.76363636,4.72727273 L6.76363636,6.98181818 C6.76363636,7.12727273 6.76363636,7.27272727 6.69090909,7.34545455 C6.61818182,7.41818182 6.54545455,7.41818182 6.4,7.41818182 L4.58181818,7.41818182 C4.58181818,7.41818182 4.58181818,7.41818182 4.58181818,7.41818182 L4.21818182,7.41818182 C4.07272727,7.41818182 4,7.41818182 3.92727273,7.34545455 C3.85454545,7.27272727 3.85454545,7.12727273 3.85454545,6.98181818 L3.85454545,4.07272727 C3.85454545,4 3.85454545,4 3.78181818,4 L3.2,4 C3.12727273,4 3.12727273,4 3.12727273,4.07272727 L3.12727273,4.43636364 L2.25454545,4.43636364 C2.03636364,4.43636364 1.81818182,4.43636364 1.67272727,4.50909091 C1.45454545,4.58181818 1.30909091,4.65454545 1.16363636,4.8 C1.01818182,4.94545455 0.872727273,5.09090909 0.8,5.30909091 C0.727272727,5.52727273 0.654545455,5.81818182 0.654545455,6.10909091 C0.654545455,6.4 0.727272727,6.61818182 0.8,6.83636364 C0.872727273,7.05454545 1.01818182,7.2 1.09090909,7.34545455 C1.23636364,7.49090909 1.38181818,7.56363636 1.6,7.63636364 C1.81818182,7.70909091 1.96363636,7.70909091 2.18181818,7.70909091 C2.4,7.70909091 2.54545455,7.70909091 2.69090909,7.63636364 C2.83636364,7.56363636 2.98181818,7.49090909 3.12727273,7.41818182 C3.2,7.63636364 3.27272727,7.85454545 3.41818182,7.92727273 C3.56363636,8 3.78181818,8.07272727 4.07272727,8.07272727 L4.58181818,8.07272727 C4.58181818,8.07272727 4.58181818,8.07272727 4.58181818,8.07272727 L6.4,8.07272727 C6.76363636,8.07272727 6.98181818,8 7.12727273,7.78181818 C7.27272727,7.63636364 7.34545455,7.34545455 7.34545455,6.98181818 L7.34545455,4.65454545 C7.41818182,4.72727273 7.34545455,4.65454545 7.34545455,4.65454545 Z M3.05454545,6.03636364 C3.05454545,6.4 2.98181818,6.61818182 2.83636364,6.83636364 C2.69090909,7.05454545 2.47272727,7.12727273 2.18181818,7.12727273 C1.89090909,7.12727273 1.67272727,7.05454545 1.52727273,6.90909091 C1.38181818,6.76363636 1.30909091,6.54545455 1.30909091,6.25454545 C1.30909091,5.89090909 1.38181818,5.6 1.52727273,5.45454545 C1.67272727,5.30909091 1.89090909,5.23636364 2.18181818,5.23636364 L2.98181818,5.23636364 L2.98181818,6.03636364 L3.05454545,6.03636364 Z" id="Shape" fill-rule="nonzero"></path>
                            <path d="M5.52727273,8.94545455 L4.94545455,8.94545455 C4.87272727,8.94545455 4.87272727,8.94545455 4.87272727,9.01818182 L4.87272727,9.67272727 C4.87272727,9.74545455 4.87272727,9.74545455 4.94545455,9.74545455 L5.52727273,9.74545455 C5.6,9.74545455 5.6,9.74545455 5.6,9.67272727 L5.6,9.01818182 C5.6,8.94545455 5.6,8.94545455 5.52727273,8.94545455 Z" id="Path"></path>
                            <path d="M9.67272727,4.65454545 L9.16363636,4.65454545 C9.09090909,4.65454545 9.09090909,4.65454545 9.09090909,4.72727273 L9.09090909,8.43636364 C9.09090909,8.94545455 8.87272727,9.16363636 8.43636364,9.16363636 L8.21818182,9.16363636 C8.14545455,9.16363636 8.14545455,9.16363636 8.14545455,9.23636364 L8.14545455,9.74545455 C8.14545455,9.81818182 8.14545455,9.81818182 8.21818182,9.81818182 L8.43636364,9.81818182 C8.87272727,9.81818182 9.23636364,9.67272727 9.45454545,9.45454545 C9.67272727,9.23636364 9.81818182,8.87272727 9.81818182,8.43636364 L9.81818182,4.8 C9.74545455,4.72727273 9.67272727,4.65454545 9.67272727,4.65454545 Z" id="Path"></path>
                            <path d="M14.8363636,3.85454545 L15.4181818,3.85454545 C15.4909091,3.85454545 15.4909091,3.85454545 15.4909091,3.78181818 L15.4909091,3.12727273 C15.4909091,3.05454545 15.4909091,3.05454545 15.4181818,3.05454545 L14.8363636,3.05454545 C14.7636364,3.05454545 14.7636364,3.05454545 14.7636364,3.12727273 L14.7636364,3.78181818 C14.7636364,3.78181818 14.8363636,3.85454545 14.8363636,3.85454545 Z" id="Path"></path>
                            <path d="M15.9272727,3.85454545 L16.5090909,3.85454545 C16.5818182,3.85454545 16.5818182,3.85454545 16.5818182,3.78181818 L16.5818182,3.12727273 C16.5818182,3.05454545 16.5818182,3.05454545 16.5090909,3.05454545 L15.9272727,3.05454545 C15.8545455,3.05454545 15.8545455,3.05454545 15.8545455,3.12727273 L15.8545455,3.78181818 C15.7818182,3.78181818 15.8545455,3.85454545 15.9272727,3.85454545 Z" id="Path"></path>
                            <path d="M28.5818182,2.4 L28.0727273,2.4 C28,2.4 28,2.4 28,2.47272727 L28,7.05454545 C28,7.2 28,7.34545455 27.9272727,7.41818182 C27.8545455,7.49090909 27.7818182,7.49090909 27.6363636,7.49090909 L25.9636364,7.49090909 C25.9636364,7.49090909 25.9636364,7.49090909 25.9636364,7.49090909 L23.5636364,7.49090909 L23.4181818,7.49090909 C23.3454545,7.49090909 23.3454545,7.49090909 23.2727273,7.49090909 C23.4181818,7.41818182 23.4909091,7.34545455 23.6363636,7.2 C23.7818182,7.05454545 23.8545455,6.98181818 23.9272727,6.83636364 C24,6.69090909 24.0727273,6.54545455 24.1454545,6.4 C24.2181818,6.25454545 24.2181818,6.03636364 24.2181818,5.89090909 C24.2181818,5.45454545 24.0727273,5.16363636 23.7818182,4.94545455 C23.4909091,4.72727273 23.0545455,4.58181818 22.4727273,4.58181818 C22.2545455,4.58181818 22.1090909,4.58181818 21.8909091,4.65454545 C21.7454545,4.65454545 21.5272727,4.72727273 21.3818182,4.8 C21.2363636,4.87272727 21.0909091,4.87272727 21.0181818,4.94545455 C20.8727273,5.01818182 20.8,5.01818182 20.7272727,5.09090909 C20.6545455,5.09090909 20.6545455,5.16363636 20.6545455,5.23636364 L20.6545455,5.74545455 C20.6545455,5.74545455 20.6545455,5.81818182 20.6545455,5.81818182 C20.6545455,5.81818182 20.7272727,5.89090909 20.7272727,5.89090909 C20.8727273,5.96363636 20.9454545,6.03636364 21.0909091,6.18181818 C21.2363636,6.25454545 21.3090909,6.4 21.4545455,6.47272727 C21.5272727,6.61818182 21.6727273,6.76363636 21.7454545,6.90909091 C21.8181818,7.05454545 21.8909091,7.27272727 21.9636364,7.49090909 C21.8181818,7.56363636 21.6727273,7.56363636 21.5272727,7.56363636 C21.3818182,7.56363636 21.3090909,7.56363636 21.2363636,7.56363636 L17.8909091,7.56363636 C17.8909091,7.56363636 17.8909091,7.56363636 17.8909091,7.56363636 L16.7272727,7.56363636 C16.6545455,7.56363636 16.6545455,7.56363636 16.5818182,7.56363636 C16.8,7.41818182 17.0181818,7.2 17.1636364,6.90909091 C17.3090909,6.69090909 17.3818182,6.4 17.3818182,6.10909091 C17.3818182,5.89090909 17.3818182,5.67272727 17.3090909,5.45454545 C17.2363636,5.23636364 17.1636364,5.09090909 17.0181818,4.94545455 C16.8727273,4.8 16.7272727,4.72727273 16.5090909,4.65454545 C16.2909091,4.58181818 16.0727273,4.50909091 15.7818182,4.50909091 C15.4909091,4.50909091 15.2727273,4.58181818 15.0545455,4.65454545 C14.8363636,4.72727273 14.6909091,4.87272727 14.5454545,4.94545455 C14.4,5.09090909 14.3272727,5.23636364 14.2545455,5.45454545 C14.1818182,5.67272727 14.1818182,5.81818182 14.1818182,6.10909091 C14.1818182,6.4 14.2545455,6.69090909 14.4,6.90909091 C14.5454545,7.12727273 14.6909091,7.34545455 14.9818182,7.49090909 L13.7454545,7.49090909 C13.7454545,7.49090909 13.7454545,7.49090909 13.7454545,7.49090909 L12.2181818,7.49090909 C12.0727273,7.49090909 12,7.49090909 11.9272727,7.41818182 C11.8545455,7.34545455 11.8545455,7.2 11.8545455,7.05454545 L11.8545455,2.47272727 C11.8545455,2.4 11.8545455,2.4 11.7818182,2.4 L11.2727273,2.4 C11.2,2.4 11.2,2.4 11.2,2.47272727 L11.2,7.05454545 C11.2,7.41818182 11.2727273,7.70909091 11.4181818,7.85454545 C11.5636364,8 11.8545455,8.14545455 12.1454545,8.14545455 L13.7454545,8.14545455 C13.7454545,8.14545455 13.7454545,8.14545455 13.7454545,8.14545455 L14.5454545,8.14545455 C14.6909091,8.14545455 14.9090909,8.14545455 15.1272727,8.14545455 C15.3454545,8.14545455 15.5636364,8.07272727 15.7090909,8 C15.8545455,8.07272727 16.0727273,8.14545455 16.2181818,8.14545455 C16.3636364,8.14545455 16.5818182,8.14545455 16.8,8.14545455 L17.8909091,8.14545455 C17.8909091,8.14545455 17.8909091,8.14545455 17.8909091,8.14545455 L21.3090909,8.14545455 C21.4545455,8.14545455 21.6727273,8.14545455 21.8909091,8.07272727 C22.1090909,8 22.3272727,8 22.4727273,7.85454545 C22.6181818,7.92727273 22.8363636,8 22.9818182,8.07272727 C23.2,8.14545455 23.3454545,8.14545455 23.5636364,8.14545455 L25.8909091,8.14545455 C25.8909091,8.14545455 25.8909091,8.14545455 25.8909091,8.14545455 L27.7090909,8.14545455 C28.0727273,8.14545455 28.2909091,8.07272727 28.4363636,7.85454545 C28.5818182,7.70909091 28.6545455,7.41818182 28.6545455,7.05454545 L28.6545455,2.47272727 C28.6545455,2.4 28.6545455,2.4 28.5818182,2.4 Z M15.6363636,7.34545455 C15.3454545,7.27272727 15.1272727,7.05454545 14.9818182,6.90909091 C14.8363636,6.69090909 14.6909091,6.47272727 14.6909091,6.10909091 C14.6909091,5.81818182 14.7636364,5.6 14.9818182,5.45454545 C15.1272727,5.30909091 15.3454545,5.23636364 15.6363636,5.23636364 C15.9272727,5.23636364 16.1454545,5.30909091 16.2909091,5.45454545 C16.4363636,5.6 16.5818182,5.81818182 16.5818182,6.10909091 C16.5818182,6.4 16.5090909,6.69090909 16.2909091,6.90909091 C16.1454545,7.05454545 15.9272727,7.2 15.6363636,7.34545455 Z M22.9090909,6.90909091 C22.8363636,6.98181818 22.6909091,7.05454545 22.6181818,7.12727273 C22.5454545,6.69090909 22.4,6.4 22.1818182,6.10909091 C21.9636364,5.81818182 21.7454545,5.6 21.4545455,5.45454545 C21.5272727,5.38181818 21.6727273,5.38181818 21.8181818,5.30909091 C22.0363636,5.23636364 22.2545455,5.23636364 22.4727273,5.23636364 C22.6181818,5.23636364 22.7636364,5.23636364 22.9090909,5.23636364 C23.0545455,5.23636364 23.1272727,5.30909091 23.2,5.38181818 C23.2727273,5.45454545 23.3454545,5.52727273 23.4181818,5.6 C23.4909091,5.67272727 23.4909091,5.81818182 23.4909091,5.96363636 C23.4909091,6.10909091 23.4909091,6.25454545 23.4181818,6.32727273 C23.3454545,6.47272727 23.2727273,6.54545455 23.2,6.69090909 C23.1272727,6.76363636 23.0545455,6.83636364 22.9090909,6.90909091 Z" id="Shape" fill-rule="nonzero"></path>
                            <path d="M30.4727273,2.4 L29.9636364,2.4 C29.8909091,2.4 29.8909091,2.4 29.8909091,2.47272727 L29.8909091,8.07272727 C29.8909091,8.14545455 29.8909091,8.14545455 29.9636364,8.14545455 L30.4727273,8.14545455 C30.5454545,8.14545455 30.5454545,8.14545455 30.5454545,8.07272727 L30.5454545,2.47272727 C30.5454545,2.4 30.5454545,2.4 30.4727273,2.4 Z" id="Path"></path>
                            <path d="M34.3272727,3.49090909 L34.9090909,3.49090909 C34.9818182,3.49090909 34.9818182,3.49090909 34.9818182,3.41818182 L34.9818182,2.76363636 C34.9818182,2.69090909 34.9818182,2.69090909 34.9090909,2.69090909 L34.3272727,2.69090909 C34.2545455,2.69090909 34.2545455,2.69090909 34.2545455,2.76363636 L34.2545455,3.41818182 C34.2545455,3.49090909 34.2545455,3.49090909 34.3272727,3.49090909 Z" id="Path"></path>
                            <path d="M35.3454545,3.49090909 L35.9272727,3.49090909 C36,3.49090909 36,3.49090909 36,3.41818182 L36,2.76363636 C36,2.69090909 36,2.69090909 35.9272727,2.69090909 L35.3454545,2.69090909 C35.2727273,2.69090909 35.2727273,2.69090909 35.2727273,2.76363636 L35.2727273,3.41818182 C35.2727273,3.49090909 35.3454545,3.49090909 35.3454545,3.49090909 Z" id="Path"></path>
                            <path d="M48,8.94545455 L47.4181818,8.94545455 C47.3454545,8.94545455 47.3454545,8.94545455 47.3454545,9.01818182 L47.3454545,9.67272727 C47.3454545,9.74545455 47.3454545,9.74545455 47.4181818,9.74545455 L48,9.74545455 C48.0727273,9.74545455 48.0727273,9.74545455 48.0727273,9.67272727 L48.0727273,9.01818182 C48.0727273,8.94545455 48,8.94545455 48,8.94545455 Z" id="Path"></path>
                            <path d="M49.0181818,8.94545455 L48.4363636,8.94545455 C48.3636364,8.94545455 48.3636364,8.94545455 48.3636364,9.01818182 L48.3636364,9.67272727 C48.3636364,9.74545455 48.3636364,9.74545455 48.4363636,9.74545455 L49.0181818,9.74545455 C49.0909091,9.74545455 49.0909091,9.74545455 49.0909091,9.67272727 L49.0909091,9.01818182 C49.0909091,8.94545455 49.0909091,8.94545455 49.0181818,8.94545455 Z" id="Path"></path>
                            <path d="M53.5272727,3.85454545 L54.1090909,3.85454545 C54.1818182,3.85454545 54.1818182,3.85454545 54.1818182,3.78181818 L54.1818182,3.12727273 C54.1818182,3.05454545 54.1818182,3.05454545 54.1090909,3.05454545 L53.5272727,3.05454545 C53.4545455,3.05454545 53.4545455,3.05454545 53.4545455,3.12727273 L53.4545455,3.78181818 C53.4545455,3.78181818 53.5272727,3.85454545 53.5272727,3.85454545 Z" id="Path"></path>
                            <path d="M60.3636364,2.4 L59.8545455,2.4 C59.7818182,2.4 59.7818182,2.4 59.7818182,2.47272727 L59.7818182,7.05454545 C59.7818182,7.2 59.7818182,7.34545455 59.7090909,7.41818182 C59.6363636,7.49090909 59.5636364,7.49090909 59.4181818,7.49090909 L56.6545455,7.49090909 C56.6545455,7.49090909 56.6545455,7.49090909 56.6545455,7.49090909 L56.5818182,7.49090909 C56.3636364,7.49090909 56.1454545,7.41818182 56.0727273,7.34545455 C55.9272727,7.27272727 55.8545455,7.12727273 55.8545455,6.98181818 C55.8545455,6.90909091 55.8545455,6.90909091 55.8545455,6.83636364 C55.8545455,6.76363636 55.8545455,6.76363636 55.8545455,6.69090909 C55.8545455,6.4 55.8545455,6.10909091 55.7818182,5.89090909 C55.7090909,5.6 55.6363636,5.38181818 55.4909091,5.23636364 C55.3454545,5.01818182 55.1272727,4.87272727 54.9090909,4.72727273 C54.6909091,4.58181818 54.3272727,4.50909091 53.9636364,4.50909091 C53.6,4.50909091 53.3090909,4.58181818 53.0909091,4.72727273 C52.8727273,4.87272727 52.6545455,5.01818182 52.5090909,5.23636364 C52.5090909,5.30909091 52.5090909,5.30909091 52.5090909,5.38181818 L52.8727273,5.67272727 C52.9454545,5.67272727 52.9454545,5.67272727 53.0181818,5.67272727 C53.1636364,5.52727273 53.3090909,5.45454545 53.4545455,5.38181818 C53.6,5.30909091 53.8181818,5.23636364 53.9636364,5.23636364 C54.1818182,5.23636364 54.4,5.23636364 54.5454545,5.30909091 C54.6909091,5.38181818 54.8363636,5.45454545 54.9090909,5.6 C54.9818182,5.74545455 55.0545455,5.89090909 55.1272727,6.10909091 C55.2,6.32727273 55.2,6.47272727 55.2,6.69090909 C55.2,6.83636364 55.2,6.98181818 55.2,7.05454545 C55.2,7.12727273 55.1272727,7.27272727 55.1272727,7.27272727 C55.0545455,7.34545455 54.9818182,7.34545455 54.9090909,7.41818182 C54.8363636,7.41818182 54.6909091,7.49090909 54.5454545,7.49090909 L52.1454545,7.49090909 C52.1454545,7.49090909 52.1454545,7.49090909 52.1454545,7.49090909 L52.0727273,7.49090909 C51.8545455,7.49090909 49.3818182,7.41818182 49.2363636,7.34545455 C49.0909091,7.27272727 49.0181818,7.12727273 49.0181818,6.90909091 L49.0181818,4.72727273 C49.0181818,4.65454545 49.0181818,4.65454545 48.9454545,4.65454545 L48,4.65454545 C47.9272727,4.65454545 47.9272727,4.65454545 47.9272727,4.72727273 L47.9272727,6.98181818 C47.9272727,7.12727273 47.9272727,7.27272727 47.8545455,7.34545455 C47.7818182,7.41818182 47.7090909,7.41818182 47.5636364,7.41818182 L44.7272727,7.41818182 C44.7272727,7.41818182 44.7272727,7.41818182 44.7272727,7.41818182 C44.7272727,7.41818182 44.6545455,7.41818182 44.6545455,7.41818182 L44.4363636,7.41818182 C44.2909091,7.41818182 44.2181818,7.34545455 44.0727273,7.27272727 C43.9272727,7.2 43.9272727,6.98181818 43.9272727,6.69090909 C43.9272727,6.61818182 43.9272727,6.54545455 43.9272727,6.54545455 C43.9272727,6.47272727 43.9272727,6.4 43.9272727,6.32727273 C43.9272727,5.67272727 43.7818182,5.23636364 43.4909091,4.94545455 C43.2,4.65454545 42.8363636,4.50909091 42.3272727,4.50909091 C41.8181818,4.50909091 41.4545455,4.65454545 41.1636364,4.94545455 C40.8727273,5.23636364 40.7272727,5.67272727 40.7272727,6.32727273 L40.7272727,6.54545455 C40.7272727,6.61818182 40.7272727,6.61818182 40.7272727,6.69090909 C40.7272727,6.83636364 40.7272727,6.98181818 40.6545455,7.05454545 C40.6545455,7.12727273 40.5818182,7.2 40.5090909,7.27272727 C40.4363636,7.34545455 40.4363636,7.34545455 40.3636364,7.41818182 C40.2909091,7.41818182 40.2181818,7.49090909 40.1454545,7.49090909 L39.7090909,7.49090909 C39.7090909,7.49090909 39.7090909,7.49090909 39.7090909,7.49090909 L37.0909091,7.49090909 C36.9454545,7.49090909 36.8727273,7.49090909 36.8,7.41818182 C36.7272727,7.34545455 36.7272727,7.2 36.7272727,7.05454545 L36.7272727,4.14545455 C36.7272727,4.07272727 36.7272727,4.07272727 36.6545455,4.07272727 L36.1454545,4.07272727 C36.0727273,4.07272727 36.0727273,4.07272727 36.0727273,4.14545455 L36.0727273,4.50909091 L35.2727273,4.50909091 C35.0545455,4.50909091 34.8363636,4.50909091 34.6909091,4.58181818 C34.4727273,4.65454545 34.3272727,4.72727273 34.1818182,4.87272727 C34.0363636,5.01818182 33.8909091,5.16363636 33.8181818,5.38181818 C33.7454545,5.6 33.6727273,5.89090909 33.6727273,6.18181818 C33.6727273,6.47272727 33.7454545,6.69090909 33.8181818,6.90909091 C33.8909091,7.12727273 34.0363636,7.27272727 34.1090909,7.41818182 C34.2545455,7.56363636 34.4,7.63636364 34.6181818,7.70909091 C34.8363636,7.78181818 34.9818182,7.78181818 35.2,7.78181818 C35.4181818,7.78181818 35.5636364,7.78181818 35.7090909,7.70909091 C35.8545455,7.63636364 36,7.56363636 36.1454545,7.49090909 C36.2181818,7.70909091 36.2909091,7.92727273 36.4363636,8 C36.5818182,8.07272727 36.8,8.14545455 37.0909091,8.14545455 L39.8545455,8.14545455 L40.2181818,8.14545455 C40.3636364,8.14545455 40.5818182,8.14545455 40.7272727,8.07272727 C40.9454545,8 41.0909091,7.92727273 41.1636364,7.70909091 C41.3090909,7.85454545 41.4545455,8 41.6727273,8.07272727 C41.8909091,8.14545455 42.1090909,8.21818182 42.4,8.21818182 C42.6909091,8.21818182 42.9090909,8.14545455 43.1272727,8.07272727 C43.3454545,8 43.4909091,7.85454545 43.6363636,7.70909091 C43.7090909,7.78181818 43.7818182,7.85454545 43.8545455,7.92727273 C43.9272727,8 44,8 44.0727273,8.07272727 C44.1454545,8.07272727 44.2181818,8.14545455 44.3636364,8.14545455 C44.4363636,8.14545455 44.5090909,8.14545455 44.5818182,8.14545455 L44.8,8.14545455 C44.8,8.14545455 44.8,8.14545455 44.8727273,8.14545455 C44.8727273,8.14545455 44.8727273,8.14545455 44.8727273,8.14545455 L47.8545455,8.14545455 C48.2909091,8.14545455 48.5818182,8 48.7272727,7.70909091 C48.8,7.85454545 48.8727273,8 49.0181818,8.07272727 C49.1636364,8.14545455 49.3090909,8.21818182 49.5272727,8.21818182 L52,8.21818182 C52,8.21818182 52,8.21818182 52,8.21818182 L54.6909091,8.21818182 C54.9818182,8.21818182 55.2,8.14545455 55.3454545,8.07272727 C55.4909091,8 55.6363636,7.85454545 55.7818182,7.70909091 C55.8545455,7.85454545 55.9272727,8 56.0727273,8.07272727 C56.2181818,8.14545455 56.3636364,8.21818182 56.5818182,8.21818182 L56.7272727,8.21818182 C56.7272727,8.21818182 56.7272727,8.21818182 56.7272727,8.21818182 L59.6363636,8.21818182 C60,8.21818182 60.2181818,8.14545455 60.3636364,7.92727273 C60.5090909,7.78181818 60.5818182,7.49090909 60.5818182,7.12727273 L60.5818182,2.54545455 C60.4363636,2.4 60.4363636,2.4 60.3636364,2.4 Z M35.9272727,6.03636364 C35.9272727,6.4 35.8545455,6.61818182 35.7090909,6.83636364 C35.5636364,7.05454545 35.3454545,7.12727273 35.0545455,7.12727273 C34.7636364,7.12727273 34.5454545,7.05454545 34.4,6.90909091 C34.2545455,6.76363636 34.1818182,6.54545455 34.1818182,6.25454545 C34.1818182,5.89090909 34.2545455,5.6 34.4,5.45454545 C34.5454545,5.30909091 34.7636364,5.23636364 35.0545455,5.23636364 L35.8545455,5.23636364 L35.8545455,6.03636364 L35.9272727,6.03636364 Z M42.9818182,7.27272727 C42.8363636,7.49090909 42.6181818,7.56363636 42.2545455,7.56363636 C41.9636364,7.56363636 41.6727273,7.49090909 41.5272727,7.27272727 C41.3818182,7.05454545 41.3090909,6.76363636 41.3090909,6.4 C41.3090909,6.03636364 41.3818182,5.74545455 41.5272727,5.52727273 C41.6727273,5.30909091 41.8909091,5.23636364 42.2545455,5.23636364 C42.5454545,5.23636364 42.8363636,5.30909091 42.9818182,5.52727273 C43.1272727,5.74545455 43.2,6.03636364 43.2,6.4 C43.2,6.76363636 43.1272727,7.05454545 42.9818182,7.27272727 Z" id="Shape" fill-rule="nonzero"></path>
                            <path d="M62.2545455,2.4 L61.7454545,2.4 C61.6727273,2.4 61.6727273,2.4 61.6727273,2.47272727 L61.6727273,8.07272727 C61.6727273,8.14545455 61.6727273,8.14545455 61.7454545,8.14545455 L62.2545455,8.14545455 C62.3272727,8.14545455 62.3272727,8.14545455 62.3272727,8.07272727 L62.3272727,2.47272727 C62.3272727,2.4 62.3272727,2.4 62.2545455,2.4 Z" id="Path"></path>
                            <path d="M73.3818182,4.65454545 L72.8727273,4.65454545 C72.8,4.65454545 72.8,4.65454545 72.8,4.72727273 L72.8,6.98181818 C72.8,7.12727273 72.8,7.27272727 72.7272727,7.34545455 C72.6545455,7.41818182 72.5818182,7.41818182 72.4363636,7.41818182 L72.2181818,7.41818182 C72,7.41818182 71.7818182,7.34545455 71.6363636,7.27272727 C71.4909091,7.2 71.4181818,7.05454545 71.4181818,6.83636364 L71.4181818,5.38181818 C71.4181818,5.30909091 71.4181818,5.30909091 71.3454545,5.30909091 L70.8363636,5.30909091 C70.7636364,5.30909091 70.7636364,5.30909091 70.7636364,5.38181818 L70.7636364,6.90909091 C70.7636364,7.05454545 70.7636364,7.2 70.6909091,7.27272727 C70.6181818,7.34545455 70.5454545,7.34545455 70.4,7.34545455 L70.1818182,7.34545455 C69.9636364,7.34545455 69.7454545,7.27272727 69.6,7.2 C69.4545455,7.12727273 69.3818182,6.98181818 69.3818182,6.76363636 L69.3818182,5.30909091 C69.3818182,5.23636364 69.3818182,5.23636364 69.3090909,5.23636364 L68.8,5.23636364 C68.7272727,5.23636364 68.7272727,5.23636364 68.7272727,5.30909091 L68.7272727,7.78181818 C68.7272727,8.21818182 68.5818182,8.50909091 68.3636364,8.65454545 C68.1454545,8.87272727 67.8545455,8.94545455 67.4909091,8.94545455 C67.3454545,8.94545455 67.2,8.94545455 67.0545455,8.87272727 C66.9090909,8.8 66.7636364,8.8 66.6181818,8.65454545 C66.4727273,8.58181818 66.4,8.43636364 66.3272727,8.29090909 C66.2545455,8.14545455 66.1818182,7.92727273 66.1818182,7.70909091 C66.1818182,7.49090909 66.2545455,7.2 66.3272727,6.98181818 C66.4,6.76363636 66.5454545,6.54545455 66.6181818,6.4 C66.6181818,6.32727273 66.6181818,6.32727273 66.6181818,6.25454545 L66.1818182,6.03636364 C66.1090909,6.03636364 66.1090909,6.03636364 66.0363636,6.03636364 C65.8909091,6.25454545 65.7454545,6.47272727 65.6727273,6.83636364 C65.5272727,7.12727273 65.5272727,7.49090909 65.5272727,7.78181818 C65.5272727,8.07272727 65.6,8.36363636 65.6727273,8.58181818 C65.7454545,8.8 65.8909091,9.01818182 66.1090909,9.16363636 C66.2545455,9.30909091 66.4727273,9.45454545 66.7636364,9.52727273 C66.9818182,9.6 67.2727273,9.67272727 67.5636364,9.67272727 C68.2181818,9.67272727 68.7272727,9.52727273 69.0181818,9.16363636 C69.3818182,8.8 69.5272727,8.36363636 69.5272727,7.78181818 L69.5272727,7.70909091 C69.6727273,7.85454545 69.8909091,8 70.1818182,8 L70.6181818,8 C71.0545455,8 71.3454545,7.85454545 71.4909091,7.56363636 C71.5636364,7.70909091 71.6363636,7.85454545 71.7818182,7.92727273 C71.9272727,8 72.0727273,8.07272727 72.2909091,8.07272727 L72.7272727,8.07272727 C73.0909091,8.07272727 73.3090909,8 73.4545455,7.78181818 C73.6,7.63636364 73.6727273,7.34545455 73.6727273,6.98181818 L73.6727273,4.65454545 C73.5272727,4.72727273 73.4545455,4.65454545 73.3818182,4.65454545 Z" id="Path"></path>
                            <path d="M75.2727273,2.4 L74.7636364,2.4 C74.6909091,2.4 74.6909091,2.4 74.6909091,2.47272727 L74.6909091,8.07272727 C74.6909091,8.14545455 74.6909091,8.14545455 74.7636364,8.14545455 L75.2727273,8.14545455 C75.3454545,8.14545455 75.3454545,8.14545455 75.3454545,8.07272727 L75.3454545,2.47272727 C75.3454545,2.4 75.3454545,2.4 75.2727273,2.4 Z" id="Path"></path>
                            <path d="M75.8545455,1.6 L74.9818182,1.6 C74.9090909,1.52727273 74.8363636,1.45454545 74.7636364,1.38181818 C74.6909091,1.30909091 74.6909091,1.16363636 74.6909091,1.09090909 C74.6909091,0.945454545 74.7636364,0.872727273 74.8363636,0.727272727 C74.9090909,0.654545455 75.0545455,0.581818182 75.2,0.581818182 C75.2727273,0.581818182 75.3454545,0.581818182 75.4181818,0.654545455 C75.4909091,0.727272727 75.5636364,0.727272727 75.5636364,0.8 C75.5636364,0.8 75.6363636,0.8 75.6363636,0.8 L75.7818182,0.654545455 C75.7818182,0.654545455 75.7818182,0.581818182 75.7818182,0.581818182 C75.7090909,0.509090909 75.6363636,0.436363636 75.4909091,0.363636364 C75.3454545,0.290909091 75.2727273,0.290909091 75.1272727,0.290909091 C74.9818182,0.290909091 74.8363636,0.290909091 74.6909091,0.363636364 C74.5454545,0.436363636 74.4727273,0.509090909 74.4,0.581818182 C74.3272727,0.654545455 74.2545455,0.727272727 74.2545455,0.872727273 C74.2545455,0.945454545 74.1818182,1.09090909 74.1818182,1.16363636 C74.1818182,1.23636364 74.1818182,1.38181818 74.2545455,1.45454545 C74.2545455,1.52727273 74.3272727,1.6 74.4,1.67272727 L74.1090909,1.67272727 C74.1090909,1.67272727 74.0363636,1.67272727 74.0363636,1.74545455 L74.0363636,1.96363636 C74.0363636,2.03636364 74.0363636,2.03636364 74.1090909,2.03636364 L75.8545455,2.03636364 C75.8545455,2.03636364 75.9272727,2.03636364 75.9272727,1.96363636 L75.8545455,1.6 C75.9272727,1.6 75.8545455,1.6 75.8545455,1.6 Z" id="Path"></path>
                            <path d="M77.5272727,4.65454545 L77.0181818,4.65454545 C76.9454545,4.65454545 76.9454545,4.65454545 76.9454545,4.72727273 L76.9454545,8.43636364 C76.9454545,8.94545455 76.7272727,9.16363636 76.2909091,9.16363636 L76.0727273,9.16363636 C76,9.16363636 76,9.16363636 76,9.23636364 L76,9.74545455 C76,9.81818182 76,9.81818182 76.0727273,9.81818182 L76.2909091,9.81818182 C76.7272727,9.81818182 77.0909091,9.67272727 77.3090909,9.45454545 C77.5272727,9.23636364 77.6727273,8.87272727 77.6727273,8.43636364 L77.6727273,4.8 C77.6,4.72727273 77.6,4.65454545 77.5272727,4.65454545 Z" id="Path"></path>
                        </g>
                    </g>
                </g>
            </g>
        </g>
    </g>
</svg>