<?xml version="1.0" encoding="UTF-8"?>
<svg width="90px" height="40px" viewBox="0 0 90 40" version="1.1" xmlns="http://www.w3.org/2000/svg" xmlns:xlink="http://www.w3.org/1999/xlink">
    <!-- Generator: Sketch 52.6 (67491) - http://www.bohemiancoding.com/sketch -->
    <title>footer-logo</title>
    <desc>Created with Sketch.</desc>
    <g id="Page-1" stroke="none" stroke-width="1" fill="none" fill-rule="evenodd">
        <g id="Facilio_Homepage2.2" transform="translate(-607.000000, -1482.000000)" fill="#151138">
            <g id="Group-3" transform="translate(188.000000, 1408.000000)">
                <g id="Group-2" transform="translate(0.000000, 68.000000)">
                    <g id="footer-logo" transform="translate(419.000000, 6.000000)">
                        <path d="M14.0501567,14.9529781 C14.0501567,14.9529781 2.08777429,37.4670846 1.8338558,37.9749216 C1.55172414,38.5109718 1.49529781,38.8213166 1.69278997,39.0188088 L1.8338558,39.1598746 C2.11598746,39.3855799 2.62382445,39.3291536 3.07523511,38.9905956 L21.0470219,24.3761755 C22.5423197,23.3322884 21.2163009,22.0626959 21.2163009,22.0626959 L14.0501567,14.9529781 Z" id="Shape" fill-rule="nonzero"></path>
                        <path d="M34.1661442,32.4451411 C33.4890282,32.9247649 32.6990596,33.1786834 31.7115987,33.1786834 C30.7241379,33.1786834 29.9059561,32.9529781 29.369906,32.5015674 C28.7774295,32.0501567 28.4388715,31.4012539 28.2978056,30.5266458 L27,30.5266458 C27,31.6551724 27.3949843,32.5579937 28.2413793,33.2915361 C29.0595611,33.9968652 30.2445141,34.3354232 31.7398119,34.3354232 C33.1504702,34.3354232 34.30721,33.968652 35.1818182,33.2633229 C36.0564263,32.5297806 36.4796238,31.6551724 36.4796238,30.6394984 C36.4796238,29.6238245 36.2257053,28.8056426 35.6896552,28.184953 C34.9278997,27.5642633 33.7711599,27.1128527 32.1065831,26.7460815 C30.8652038,26.492163 29.9905956,26.1818182 29.4827586,25.8432602 C28.9749216,25.476489 28.69279,25.0250784 28.69279,24.460815 C28.69279,23.8683386 28.9749216,23.3605016 29.5673981,22.9373041 C30.1598746,22.5141066 30.8652038,22.3166144 31.7398119,22.3166144 C32.5579937,22.3166144 33.2351097,22.5141066 33.799373,22.9373041 C34.3354232,23.3605016 34.645768,23.9247649 34.7586207,24.630094 L36.0564263,24.630094 C36.0564263,23.6144201 35.661442,22.7962382 34.8714734,22.1473354 C34.0815047,21.4702194 33.0376176,21.1598746 31.7115987,21.1598746 C30.4137931,21.1598746 29.369906,21.4984326 28.5517241,22.1473354 C27.7617555,22.7962382 27.338558,23.5862069 27.338558,24.5454545 C27.338558,25.4200627 27.5924765,26.153605 28.0438871,26.6896552 C28.7210031,27.2257053 29.7931034,27.677116 31.2884013,27.9874608 C32.6708464,28.2695925 33.6583072,28.6363636 34.2507837,29.0595611 C34.8432602,29.5109718 35.1253918,30.0752351 35.1253918,30.7805643 C35.1818182,31.3730408 34.8432602,31.9655172 34.1661442,32.4451411" id="Path"></path>
                        <polygon id="Path" points="52.8714734 21.3291536 51.8275862 21.3291536 50.8401254 21.3291536 45.9592476 32.4169279 41.1065831 21.3291536 40.0909091 21.3291536 39.0752351 21.3291536 39.0752351 34.137931 39.7241379 34.137931 40.4012539 34.137931 40.4012539 22.8244514 45.3949843 34.137931 45.9592476 34.137931 46.5517241 34.137931 51.5454545 22.8244514 51.5454545 34.137931 52.1943574 34.137931 52.8714734 34.137931"></polygon>
                        <path d="M65.4827586,21.3291536 L54.0282132,34.137931 L54.7335423,34.137931 L55.4388715,34.137931 L59.3040752,29.7931034 L65.4545455,29.7931034 L65.4545455,34.137931 L66.1880878,34.137931 L66.6677116,34.137931 L66.6677116,21.3291536 L66.2163009,21.3291536 L65.4827586,21.3291536 Z M65.4545455,28.6363636 L63.0846395,28.6363636 L60.3197492,28.6363636 L65.4545455,22.9373041 L65.4545455,28.6363636 Z" id="Shape" fill-rule="nonzero"></path>
                        <path d="M78.0940439,25.3918495 C78.0940439,24.0940439 77.6708464,23.1347962 76.7962382,22.4012539 C75.9216301,21.6677116 74.7084639,21.3291536 73.1285266,21.3291536 L69.7711599,21.3291536 L69.0940439,21.3291536 L69.0940439,34.137931 L69.7711599,34.137931 L70.4482759,34.137931 L70.4482759,29.3981191 L72.5924765,29.3981191 L76.2884013,34.1097179 L77.1065831,34.1097179 L77.9247649,34.1097179 L74.1442006,29.3981191 C75.2163009,29.2570533 76.0909091,28.9467085 76.7962382,28.354232 C77.6708464,27.677116 78.0940439,26.661442 78.0940439,25.3918495 M75.8087774,27.5360502 C75.1598746,28.0438871 74.2852665,28.2978056 73.1567398,28.2978056 L70.4200627,28.2978056 L70.4200627,22.4858934 L73.1285266,22.4858934 C74.2570533,22.4858934 75.1598746,22.7398119 75.7805643,23.2476489 C76.4294671,23.7554859 76.7398119,24.4890282 76.7398119,25.3918495 C76.7680251,26.2946708 76.4576803,27.0282132 75.8087774,27.5360502" id="Shape" fill-rule="nonzero"></path>
                        <polygon id="Path" points="83.9623824 34.137931 85.3166144 34.137931 85.3166144 22.4858934 89.830721 22.4858934 89.830721 21.3291536 79.4200627 21.3291536 79.4200627 22.4858934 83.9623824 22.4858934"></polygon>
                        <path d="M28.6645768,36.1410658 C28.6081505,36.1410658 28.5517241,36.169279 28.523511,36.2257053 L26.9717868,39.2727273 L27.3103448,39.2727273 L27.7335423,38.4545455 L29.5956113,38.4545455 L30.0188088,39.2727273 L30.3291536,39.2727273 L28.7774295,36.2257053 C28.7774295,36.169279 28.7492163,36.1410658 28.6645768,36.1410658 Z M27.8746082,38.1724138 L28.6645768,36.6489028 L29.4545455,38.1724138 L27.8746082,38.1724138 Z" id="Shape" fill-rule="nonzero"></path>
                        <path d="M33.6018809,38.4545455 C33.6018809,38.5956113 33.5736677,38.6802508 33.5172414,38.7648903 C33.460815,38.8495298 33.3761755,38.9059561 33.2915361,38.9341693 C33.2068966,38.9905956 33.0940439,39.0188088 33.0376176,39.0188088 C32.9247649,39.0188088 32.8401254,39.0470219 32.7836991,39.0470219 C32.6990596,39.0470219 32.6144201,39.0470219 32.5297806,39.0188088 C32.4169279,38.9905956 32.3322884,38.9623824 32.2758621,38.9341693 C32.1912226,38.8777429 32.1065831,38.8213166 32.0501567,38.7648903 C31.9937304,38.6802508 31.9655172,38.5956113 31.9655172,38.4545455 L31.9655172,36.1974922 L31.6833856,36.1974922 L31.6833856,38.4545455 C31.6833856,38.7084639 31.7962382,38.9341693 31.9655172,39.0752351 C32.1912226,39.2163009 32.4451411,39.3009404 32.8119122,39.3009404 C33.1786834,39.3009404 33.460815,39.2163009 33.6583072,39.0752351 C33.8840125,38.9341693 33.9404389,38.7084639 33.9404389,38.4545455 L33.9404389,36.1974922 L33.6583072,36.1974922 C33.6018809,36.169279 33.6018809,38.4545455 33.6018809,38.4545455 Z" id="Path"></path>
                        <polygon id="Path" points="35.0689655 36.4796238 36.0846395 36.4796238 36.0846395 39.2727273 36.3949843 39.2727273 36.3949843 36.4796238 37.4106583 36.4796238 37.4106583 36.169279 35.0689655 36.169279"></polygon>
                        <path d="M41.3605016,36.5642633 C41.2194357,36.4231975 41.0501567,36.338558 40.8526646,36.2539185 C40.6551724,36.169279 40.4294671,36.1410658 40.1473354,36.1410658 C39.8652038,36.1410658 39.6677116,36.169279 39.4420063,36.2539185 C39.2163009,36.338558 39.0752351,36.4231975 38.9341693,36.5642633 C38.7931034,36.7053292 38.6802508,36.8746082 38.6238245,37.0438871 C38.539185,37.2413793 38.5109718,37.4670846 38.5109718,37.7210031 C38.5109718,37.9749216 38.539185,38.1724138 38.6238245,38.3981191 C38.7084639,38.5956113 38.8213166,38.7648903 38.9341693,38.8777429 C39.0752351,39.0188088 39.2445141,39.1034483 39.4420063,39.1880878 C39.6677116,39.2727273 39.8652038,39.3009404 40.1473354,39.3009404 C40.4294671,39.3009404 40.6269592,39.2727273 40.8526646,39.1880878 C41.0783699,39.1034483 41.2194357,39.0188088 41.3605016,38.8777429 C41.5015674,38.7366771 41.6144201,38.5673981 41.6708464,38.3981191 C41.7554859,38.2288401 41.7836991,37.9749216 41.7836991,37.7210031 C41.7836991,37.4670846 41.7554859,37.2695925 41.6708464,37.0438871 C41.6144201,36.8746082 41.5015674,36.7053292 41.3605016,36.5642633 M41.1630094,38.6802508 C40.9373041,38.9059561 40.5987461,39.0188088 40.1755486,39.0188088 C39.7523511,39.0188088 39.3855799,38.9059561 39.1880878,38.6802508 C38.9341693,38.4545455 38.8495298,38.1442006 38.8495298,37.7210031 C38.8495298,37.2978056 38.9623824,36.9874608 39.1880878,36.7617555 C39.4137931,36.5360502 39.7523511,36.4231975 40.1755486,36.4231975 C40.5987461,36.4231975 40.9655172,36.5360502 41.1630094,36.7617555 C41.3605016,36.9874608 41.5015674,37.2978056 41.5015674,37.7210031 C41.5015674,38.1724138 41.3887147,38.4827586 41.1630094,38.6802508" id="Shape" fill-rule="nonzero"></path>
                        <path d="M46.2978056,36.169279 C46.2695925,36.169279 46.2413793,36.169279 46.184953,36.169279 C46.1567398,36.169279 46.1285266,36.1974922 46.1003135,36.2257053 L44.8025078,38.3416928 L43.5047022,36.2257053 C43.476489,36.1974922 43.4482759,36.169279 43.4200627,36.169279 C43.3918495,36.169279 43.3636364,36.1410658 43.30721,36.169279 C43.2225705,36.1974922 43.1943574,36.2539185 43.1943574,36.3103448 L43.1943574,39.2727273 L43.476489,39.2727273 L43.476489,36.8181818 L44.661442,38.6802508 C44.6896552,38.7366771 44.7460815,38.7648903 44.8025078,38.7648903 C44.830721,38.7648903 44.8589342,38.7648903 44.8871473,38.7366771 C44.9153605,38.7366771 44.9435737,38.7084639 44.9435737,38.6802508 L46.1285266,36.8181818 L46.1285266,39.2727273 L46.4106583,39.2727273 L46.4106583,36.3103448 C46.4106583,36.2821317 46.4106583,36.2539185 46.3824451,36.2257053 C46.354232,36.1974922 46.3260188,36.169279 46.2978056,36.169279" id="Path"></path>
                        <path d="M49.4012539,36.1410658 C49.3448276,36.1410658 49.2884013,36.169279 49.2601881,36.2257053 L47.7084639,39.2727273 L48.0470219,39.2727273 L48.4702194,38.4545455 L50.3040752,38.4545455 L50.7272727,39.2727273 L51.0376176,39.2727273 L49.4858934,36.2257053 C49.5141066,36.169279 49.4858934,36.1410658 49.4012539,36.1410658 Z M48.6112853,38.1724138 L49.4012539,36.6489028 L50.1912226,38.1724138 L48.6112853,38.1724138 Z" id="Shape" fill-rule="nonzero"></path>
                        <polygon id="Path" points="52.2225705 36.4796238 53.2100313 36.4796238 53.2100313 39.2727273 53.5485893 39.2727273 53.5485893 36.4796238 54.5360502 36.4796238 54.5360502 36.169279 52.2225705 36.169279"></polygon>
                        <rect id="Rectangle" x="55.9467085" y="36.169279" width="1" height="3.10344828"></rect>
                        <path d="M60.460815,36.5642633 C60.3197492,36.4231975 60.1504702,36.338558 59.9529781,36.2539185 C59.7272727,36.169279 59.5297806,36.1410658 59.2476489,36.1410658 C58.9655172,36.1410658 58.7680251,36.169279 58.5423197,36.2539185 C58.3166144,36.338558 58.1755486,36.4231975 58.0344828,36.5642633 C57.8934169,36.7053292 57.7805643,36.8746082 57.7241379,37.0438871 C57.6394984,37.2413793 57.6112853,37.4670846 57.6112853,37.7210031 C57.6112853,37.9749216 57.6394984,38.1724138 57.7241379,38.3981191 C57.8087774,38.5956113 57.9216301,38.7648903 58.0344828,38.8777429 C58.1755486,39.0188088 58.3448276,39.1034483 58.5423197,39.1880878 C58.7680251,39.2727273 58.9655172,39.3009404 59.2476489,39.3009404 C59.5297806,39.3009404 59.7272727,39.2727273 59.9529781,39.1880878 C60.1504702,39.1034483 60.3197492,39.0188088 60.460815,38.8777429 C60.6018809,38.7366771 60.7147335,38.5673981 60.7711599,38.3981191 C60.8557994,38.2288401 60.8840125,37.9749216 60.8840125,37.7210031 C60.8840125,37.4670846 60.8557994,37.2695925 60.7711599,37.0438871 C60.6865204,36.8746082 60.5736677,36.7053292 60.460815,36.5642633 M60.2351097,38.6802508 C60.0094044,38.9059561 59.6708464,39.0188088 59.2476489,39.0188088 C58.8244514,39.0188088 58.4576803,38.9059561 58.2601881,38.6802508 C58.0062696,38.4545455 57.9216301,38.1442006 57.9216301,37.7210031 C57.9216301,37.2978056 58.0344828,36.9874608 58.2601881,36.7617555 C58.4858934,36.5360502 58.8244514,36.4231975 59.2476489,36.4231975 C59.6708464,36.4231975 60.0376176,36.5360502 60.2351097,36.7617555 C60.4890282,36.9874608 60.5736677,37.2978056 60.5736677,37.7210031 C60.5736677,38.1724138 60.460815,38.4827586 60.2351097,38.6802508" id="Shape" fill-rule="nonzero"></path>
                        <path d="M64.354232,38.7084639 L62.5485893,36.2257053 C62.5203762,36.1974922 62.492163,36.169279 62.4639498,36.169279 C62.4357367,36.169279 62.4075235,36.169279 62.3510972,36.169279 C62.322884,36.169279 62.2946708,36.1974922 62.2664577,36.2257053 C62.2382445,36.2539185 62.2382445,36.2821317 62.2382445,36.3103448 L62.2382445,39.2727273 L62.5203762,39.2727273 L62.5203762,36.7335423 L64.3260188,39.2163009 C64.354232,39.2727273 64.4106583,39.2727273 64.4388715,39.2727273 C64.4670846,39.2727273 64.4670846,39.2727273 64.4952978,39.2727273 C64.523511,39.2727273 64.5517241,39.2445141 64.5799373,39.2163009 C64.6081505,39.1880878 64.6081505,39.1598746 64.6081505,39.1316614 L64.6081505,36.169279 L64.3260188,36.169279 L64.354232,38.7084639 Z" id="Path"></path>
                        <path d="M68.7836991,36.2257053 C68.7554859,36.2539185 68.7272727,36.2821317 68.7272727,36.338558 L68.7272727,39.1598746 C68.7272727,39.1880878 68.7554859,39.2445141 68.7836991,39.2727273 C68.8119122,39.3009404 68.8401254,39.3291536 68.8965517,39.3291536 L70.7586207,39.3291536 L70.7586207,39.0470219 L69.0376176,39.0470219 L69.0376176,37.7774295 L70.3354232,37.7774295 L70.4200627,37.4952978 L69.0094044,37.4952978 L69.0094044,36.5360502 L70.7586207,36.5360502 L70.7586207,36.2539185 L68.8965517,36.2539185 C68.8119122,36.169279 68.7836991,36.1974922 68.7836991,36.2257053" id="Path"></path>
                        <path d="M74.200627,38.7084639 L72.3949843,36.2257053 C72.3667712,36.1974922 72.338558,36.169279 72.3103448,36.169279 C72.2821317,36.169279 72.2539185,36.169279 72.1974922,36.169279 C72.169279,36.169279 72.1410658,36.1974922 72.1128527,36.2257053 C72.0846395,36.2539185 72.0846395,36.2821317 72.0846395,36.3103448 L72.0846395,39.2727273 L72.3667712,39.2727273 L72.3667712,36.7335423 L74.1724138,39.2163009 C74.200627,39.2727273 74.2570533,39.2727273 74.2852665,39.2727273 C74.3134796,39.2727273 74.3134796,39.2727273 74.3416928,39.2727273 C74.369906,39.2727273 74.3981191,39.2445141 74.4263323,39.2163009 C74.4545455,39.1880878 74.4545455,39.1598746 74.4545455,39.1316614 L74.4545455,36.169279 L74.1724138,36.169279 L74.200627,38.7084639 Z" id="Path"></path>
                        <path d="M75.9216301,36.2257053 C75.8934169,36.2539185 75.8652038,36.2821317 75.8652038,36.338558 L75.8652038,39.1598746 C75.8652038,39.1880878 75.8934169,39.2445141 75.9216301,39.2727273 C75.9498433,39.3009404 75.9780564,39.3291536 76.0344828,39.3291536 L77.8965517,39.3291536 L77.8965517,39.0470219 L76.1755486,39.0470219 L76.1755486,37.7774295 L77.4733542,37.7774295 L77.5579937,37.4952978 L76.1473354,37.4952978 L76.1473354,36.5360502 L77.8683386,36.5360502 L77.8683386,36.2539185 L76.0062696,36.2539185 C76.0062696,36.169279 75.9780564,36.1974922 75.9216301,36.2257053" id="Path"></path>
                        <path d="M81.169279,37.8902821 C81.2821317,37.8338558 81.3667712,37.7492163 81.4231975,37.69279 C81.507837,37.6081505 81.5642633,37.523511 81.5924765,37.4106583 C81.6489028,37.2978056 81.6489028,37.2131661 81.6489028,37.0721003 C81.6489028,36.9310345 81.6206897,36.846395 81.5642633,36.7053292 C81.507837,36.5924765 81.4514107,36.507837 81.3667712,36.4231975 C81.2821317,36.338558 81.169279,36.2821317 81.0846395,36.2257053 C80.9717868,36.169279 80.830721,36.1410658 80.7178683,36.1410658 L79.3636364,36.1410658 C79.3354232,36.1410658 79.2789969,36.169279 79.2507837,36.1974922 C79.2225705,36.2257053 79.1943574,36.2539185 79.1943574,36.3103448 L79.1943574,39.2445141 L79.476489,39.2445141 L79.476489,38.0031348 L80.4639498,38.0031348 L81.507837,39.2445141 L81.8746082,39.2445141 L80.830721,37.9749216 C80.9717868,38.0031348 81.0846395,37.9749216 81.169279,37.8902821 Z M79.5047022,37.7492163 L79.5047022,36.4796238 L80.7178683,36.4796238 C80.8025078,36.4796238 80.8871473,36.507837 80.9717868,36.5360502 C81.0564263,36.5642633 81.1410658,36.6206897 81.1974922,36.677116 C81.2539185,36.7335423 81.3103448,36.8181818 81.338558,36.8746082 C81.3667712,36.9310345 81.3949843,37.015674 81.3949843,37.1285266 C81.3949843,37.2131661 81.3667712,37.2978056 81.338558,37.3824451 C81.3103448,37.4670846 81.2539185,37.523511 81.1974922,37.5799373 C81.1410658,37.6363636 81.0564263,37.69279 80.9717868,37.7210031 C80.8871473,37.7492163 80.8025078,37.7774295 80.7178683,37.7774295 L79.5047022,37.7492163 Z" id="Shape" fill-rule="nonzero"></path>
                        <path d="M85.4012539,38.7366771 C85.1473354,38.9059561 84.8652038,39.0188088 84.4702194,39.0188088 C84.0470219,39.0188088 83.6802508,38.9059561 83.4827586,38.6802508 C83.2288401,38.4545455 83.1442006,38.1442006 83.1442006,37.7210031 C83.1442006,37.2978056 83.2570533,36.9874608 83.4827586,36.7617555 C83.7366771,36.5360502 84.0470219,36.4231975 84.4702194,36.4231975 C84.8087774,36.4231975 85.1191223,36.507837 85.3448276,36.6489028 L85.5423197,36.4231975 C85.2884013,36.2257053 84.8934169,36.1128527 84.4702194,36.1128527 C84.2163009,36.1128527 83.9905956,36.1410658 83.7648903,36.2257053 C83.539185,36.3103448 83.3981191,36.3949843 83.2570533,36.5360502 C83.1159875,36.677116 83.0031348,36.846395 82.9467085,37.015674 C82.862069,37.2131661 82.8338558,37.4388715 82.8338558,37.69279 C82.8338558,37.9467085 82.862069,38.1442006 82.9467085,38.369906 C83.031348,38.5673981 83.1442006,38.7366771 83.2570533,38.8495298 C83.3981191,38.9905956 83.5673981,39.0752351 83.7648903,39.1598746 C83.9623824,39.2445141 84.1880878,39.2727273 84.4702194,39.2727273 C84.9780564,39.2727273 85.3448276,39.1316614 85.6551724,38.8495298 C85.6833856,38.8213166 85.7115987,38.7648903 85.7115987,38.7366771 L85.7115987,37.523511 L85.4294671,37.6081505 L85.4294671,38.7366771 L85.4012539,38.7366771 Z" id="Path"></path>
                        <polygon id="Path" points="89.492163 36.169279 88.476489 37.6081505 87.4326019 36.169279 87.0658307 36.169279 88.30721 37.8902821 88.30721 39.2727273 88.5893417 39.2727273 88.5893417 37.8902821 89.8589342 36.169279"></polygon>
                        <path d="M20.200627,1.32601881 C20.4827586,0.789968652 20.539185,0.479623824 20.3416928,0.282131661 L20.200627,0.141065831 C19.9184953,-0.0846394984 19.4106583,-0.0282131661 18.9592476,0.310344828 L0.987460815,14.9529781 C-0.507836991,15.9968652 0.818181818,17.2664577 0.818181818,17.2664577 L7.95611285,24.3479624 C7.98432602,24.3479624 19.9467085,1.80564263 20.200627,1.32601881" id="Shape" fill-rule="nonzero"></path>
                    </g>
                </g>
            </g>
        </g>
    </g>
</svg>