<?xml version="1.0" encoding="UTF-8"?>
<svg width="38px" height="26px" viewBox="0 0 38 26" version="1.1" xmlns="http://www.w3.org/2000/svg" xmlns:xlink="http://www.w3.org/1999/xlink">
    <!-- Generator: Sketch 51.2 (57519) - http://www.bohemiancoding.com/sketch -->
    <title>Group 30</title>
    <desc>Created with Sketch.</desc>
    <defs></defs>
    <g id="Page-1" stroke="none" stroke-width="1" fill="none" fill-rule="evenodd">
        <g id="Case-Study-Page" transform="translate(-1018.000000, -5000.000000)">
            <g id="Group-11-Copy" transform="translate(0.000000, 4679.000000)">
                <g id="Group-14" transform="translate(254.000000, 305.000000)">
                    <g id="Group-21" transform="translate(763.000000, 17.000000)">
                        <g id="Group-30" transform="translate(2.000000, 0.000000)">
                            <path d="M20.3078658,6.03079114 L22.805982,6.03079114 L22.805982,7.0510345 L22.1737868,7.0510345 C23.2558211,8.04835025 23.9587868,8.85679711 24.2826837,9.47637508 C24.8797244,10.7263915 25.1078116,11.9912611 24.9669452,13.270984 C24.8140705,14.5662878 24.3909567,15.6062645 23.6976036,16.3909142 C23.0341579,17.1850757 22.3340671,17.8055409 21.5973312,18.25231 C20.6882122,18.6817946 19.6613497,18.9388075 18.5167435,19.0233487 L18.5167435,17.9258045 C20.4336837,17.8698696 21.9304382,17.032568 23.0070068,15.4138997 C23.4900129,14.7254679 23.7877879,13.8948742 23.900332,12.9221187 C23.9390889,11.8892048 23.7998906,11.033838 23.4827371,10.3560182 C22.885093,9.17237123 22.3734984,8.4906651 21.9479533,8.31089983 C21.5607393,8.03995647 21.3671322,7.90448479 21.3671322,7.90448479 C21.3671322,7.90448479 21.3671322,8.09287454 21.3671322,8.46965404 L20.3078658,8.46965404 L20.3078658,6.03079114 Z" id="Path-2" fill="#FF3185"></path>
                            <path d="M13.3078658,6.03079114 L15.805982,6.03079114 L15.805982,7.0510345 L15.1737868,7.0510345 C16.2558211,8.04835025 16.9587868,8.85679711 17.2826837,9.47637508 C17.8797244,10.7263915 18.1078116,11.9912611 17.9669452,13.270984 C17.8140705,14.5662878 17.3909567,15.6062645 16.6976036,16.3909142 C16.0341579,17.1850757 15.3340671,17.8055409 14.5973312,18.25231 C13.6882122,18.6817946 12.6613497,18.9388075 11.5167435,19.0233487 L11.5167435,17.9258045 C13.4336837,17.8698696 14.9304382,17.032568 16.0070068,15.4138997 C16.4900129,14.7254679 16.7877879,13.8948742 16.900332,12.9221187 C16.9390889,11.8892048 16.7998906,11.033838 16.4827371,10.3560182 C15.885093,9.17237123 15.3734984,8.4906651 14.9479533,8.31089983 C14.5607393,8.03995647 14.3671322,7.90448479 14.3671322,7.90448479 C14.3671322,7.90448479 14.3671322,8.09287454 14.3671322,8.46965404 L13.3078658,8.46965404 L13.3078658,6.03079114 Z" id="Path-2-Copy" fill="#FF3185" transform="translate(14.762013, 12.527070) scale(-1, -1) translate(-14.762013, -12.527070) "></path>
                            <rect id="Rectangle-13" stroke="#FF3185" stroke-width="2" x="0" y="0" width="36" height="24"></rect>
                        </g>
                    </g>
                </g>
            </g>
        </g>
    </g>
</svg>