<?xml version="1.0" encoding="UTF-8"?>
<svg width="46px" height="33px" viewBox="0 0 46 33" version="1.1" xmlns="http://www.w3.org/2000/svg" xmlns:xlink="http://www.w3.org/1999/xlink">
    <!-- Generator: Sketch 51.2 (57519) - http://www.bohemiancoding.com/sketch -->
    <title>Group 29</title>
    <desc>Created with Sketch.</desc>
    <defs></defs>
    <g id="Page-1" stroke="none" stroke-width="1" fill="none" fill-rule="evenodd">
        <g id="Case-Study-Page" transform="translate(-623.000000, -4984.000000)">
            <g id="Group-11-Copy" transform="translate(0.000000, 4679.000000)">
                <g id="Group-14" transform="translate(254.000000, 305.000000)">
                    <g id="Group-13" transform="translate(369.000000, 0.000000)">
                        <g id="Group-29">
                            <g id="Group-28" transform="translate(0.000000, 10.000000)" stroke="#FF3185">
                                <g id="Group-27" transform="translate(0.000000, 8.648649)">
                                    <rect id="Rectangle-12" x="0.5" y="9.14864865" width="13.0540541" height="4.40540541" rx="1"></rect>
                                    <rect id="Rectangle-12-Copy" x="0.5" y="4.82432432" width="13.0540541" height="4.40540541" rx="1"></rect>
                                    <rect id="Rectangle-12-Copy-2" x="0.5" y="0.5" width="13.0540541" height="4.40540541" rx="1"></rect>
                                </g>
                                <g id="Group-26" transform="translate(15.972973, 0.000000)">
                                    <rect id="Rectangle-12-Copy-5" x="0.5" y="17.7972973" width="13.0540541" height="4.40540541" rx="1"></rect>
                                    <rect id="Rectangle-12-Copy-4" x="0.5" y="13.472973" width="13.0540541" height="4.40540541" rx="1"></rect>
                                    <rect id="Rectangle-12-Copy-3" x="0.5" y="9.14864865" width="13.0540541" height="4.40540541" rx="1"></rect>
                                    <rect id="Rectangle-12-Copy-6" x="0.5" y="4.82432432" width="13.0540541" height="4.40540541" rx="1"></rect>
                                    <rect id="Rectangle-12-Copy-7" x="0.5" y="0.5" width="13.0540541" height="4.40540541" rx="1"></rect>
                                </g>
                                <g id="Group-26-Copy" transform="translate(31.945946, 4.324324)">
                                    <rect id="Rectangle-12-Copy-5" x="0.5" y="13.472973" width="13.0540541" height="4.40540541" rx="1"></rect>
                                    <rect id="Rectangle-12-Copy-4" x="0.5" y="9.14864865" width="13.0540541" height="4.40540541" rx="1"></rect>
                                    <rect id="Rectangle-12-Copy-3" x="0.5" y="4.82432432" width="13.0540541" height="4.40540541" rx="1"></rect>
                                    <rect id="Rectangle-12-Copy-6" x="0.5" y="0.5" width="13.0540541" height="4.40540541" rx="1"></rect>
                                </g>
                            </g>
                            <polygon id="Path-3" fill="#FF3185" points="8.66346148 14.013932 8.66346148 5.91854278 10.5791471 7.74340892 11.7453558 7.74340892 11.7453558 7.25877886 8.66346148 4.01894518 7.2935577 4.01894518 4.28232963 7.13881065 4.28232963 7.74340892 5.45762023 7.74340892 7.2935577 5.91854278 7.2935577 14.013932"></polygon>
                            <polygon id="Path-3-Copy" fill="#FF3185" points="39.6634615 10.013932 39.6634615 1.91854278 41.5791471 3.74340892 42.7453558 3.74340892 42.7453558 3.25877886 39.6634615 0.0189451777 38.2935577 0.0189451777 35.2823296 3.13881065 35.2823296 3.74340892 36.4576202 3.74340892 38.2935577 1.91854278 38.2935577 10.013932"></polygon>
                        </g>
                    </g>
                </g>
            </g>
        </g>
    </g>
</svg>